%
M48
M72
T01C0.0138
T02C0.0394
T03C0.0400
T04C0.1180
T05C0.1260
%
T01
X8399Y5037
X9399Y5037
X9649Y7287
X10149Y8287
X11199Y8087
X12199Y8087
X13199Y8087
X13699Y7587
X14199Y8087
X14699Y7587
X14199Y7087
X13699Y6587
X14199Y6087
X14699Y6587
X15449Y6587
X14699Y5587
X13699Y5587
X15449Y7587
X16599Y7987
X17799Y9487
X17749Y9887
X17699Y10287
X17449Y10587
X16799Y10587
X16049Y10587
X14499Y10587
X14499Y10237
X13399Y8787
X12449Y10787
X12649Y12087
X12199Y12087
X11799Y12187
X11199Y12187
X11199Y12737
X11299Y13137
X10749Y14087
X9599Y14637
X8599Y14037
X8599Y13587
X9199Y12337
X7449Y11487
X7099Y12087
X6199Y10837
X4449Y10837
X3199Y10837
X4449Y9587
X7199Y8337
X13699Y14737
X13349Y15087
X11199Y15437
X10599Y15837
X11249Y16287
X13449Y17337
X12599Y19187
X11049Y19737
X9199Y19587
X8449Y19587
X5199Y18587
X4199Y18587
X15949Y16337
X16949Y16337
X16949Y14337
X17699Y14337
X19949Y13937
X20249Y13587
X20499Y13937
X20849Y13587
X21149Y13937
X21449Y13587
X24199Y14087
X25199Y14087
X26699Y13837
X27199Y15337
X27699Y16337
X25199Y16587
X24499Y16637
X18749Y12287
X18449Y11687
X18599Y11237
X17699Y12337
X16949Y12337
X19599Y9837
X19949Y8737
X20249Y8437
X20549Y8137
X20849Y7837
X21149Y7537
X21449Y7237
X21449Y5887
X21049Y5887
X22449Y5087
X23199Y5087
X24699Y5087
X25699Y5087
X25699Y7087
X26449Y7087
X25149Y7637
X23749Y8037
X22099Y9987
X19099Y8687
X19399Y7737
X19099Y7437
X19699Y7337
X18449Y4837
X18149Y4537
X18549Y3637
X19149Y3387
X15949Y2587
X26949Y8837
X26949Y9587
X28699Y9587
X28699Y8837
X25199Y11837
X26699Y12087
T02
X4593Y14970
X4593Y16703
T03
X8699Y16837
X9699Y16837
X10699Y16837
X10699Y17837
X9699Y17837
X8699Y17837
X9849Y20837
X10849Y20837
X11849Y20837
X12849Y20837
X13849Y20837
X14849Y20837
X15849Y20837
X16849Y20837
X17849Y20837
X18849Y20837
X20449Y20837
X21449Y20837
X22449Y20837
X23449Y20837
X24449Y20837
X25449Y20837
X26449Y20837
X27449Y20837
X27499Y12837
X28499Y12837
X28499Y11837
X27499Y11837
X27499Y10837
X28499Y10837
X27449Y1837
X26449Y1837
X25449Y1837
X24449Y1837
X23449Y1837
X22449Y1837
X20449Y1837
X19449Y1837
X18449Y1837
X17449Y1837
X16449Y1837
X15449Y1837
X13449Y1837
X12449Y1837
X11449Y1837
X10449Y1837
X10449Y2837
X11449Y2837
X12449Y2837
X13449Y2837
X9449Y2837
X9449Y1837
X8699Y6087
X8699Y7087
X8699Y8087
T04
X4231Y3837
X5412Y1986
X6593Y3837
T05
X7949Y1837
X28449Y3837
X28449Y14837
X8449Y20837
M30
