G75*
%MOIN*%
%OFA0B0*%
%FSLAX25Y25*%
%IPPOS*%
%LPD*%
%AMOC8*
5,1,8,0,0,1.08239X$1,22.5*
%
%ADD10C,0.01000*%
%ADD11C,0.01200*%
%ADD12C,0.00800*%
%ADD13C,0.00500*%
%ADD14C,0.00300*%
%ADD15C,0.00600*%
%ADD16C,0.00000*%
%ADD17C,0.00276*%
%ADD18R,0.02756X0.01181*%
%ADD19R,0.01181X0.01280*%
%ADD20R,0.01181X0.01181*%
%ADD21R,0.03150X0.00787*%
%ADD22R,0.00787X0.03150*%
%ADD23R,0.05512X0.01575*%
D10*
X0024473Y0009437D02*
X0024473Y0211563D01*
X0024475Y0211687D01*
X0024481Y0211810D01*
X0024490Y0211934D01*
X0024504Y0212056D01*
X0024521Y0212179D01*
X0024543Y0212301D01*
X0024568Y0212422D01*
X0024597Y0212542D01*
X0024629Y0212661D01*
X0024666Y0212780D01*
X0024706Y0212897D01*
X0024749Y0213012D01*
X0024797Y0213127D01*
X0024848Y0213239D01*
X0024902Y0213350D01*
X0024960Y0213460D01*
X0025021Y0213567D01*
X0025086Y0213673D01*
X0025154Y0213776D01*
X0025225Y0213877D01*
X0025299Y0213976D01*
X0025376Y0214073D01*
X0025457Y0214167D01*
X0025540Y0214258D01*
X0025626Y0214347D01*
X0025715Y0214433D01*
X0025806Y0214516D01*
X0025900Y0214597D01*
X0025997Y0214674D01*
X0026096Y0214748D01*
X0026197Y0214819D01*
X0026300Y0214887D01*
X0026406Y0214952D01*
X0026513Y0215013D01*
X0026623Y0215071D01*
X0026734Y0215125D01*
X0026846Y0215176D01*
X0026961Y0215224D01*
X0027076Y0215267D01*
X0027193Y0215307D01*
X0027312Y0215344D01*
X0027431Y0215376D01*
X0027551Y0215405D01*
X0027672Y0215430D01*
X0027794Y0215452D01*
X0027917Y0215469D01*
X0028039Y0215483D01*
X0028163Y0215492D01*
X0028286Y0215498D01*
X0028410Y0215500D01*
X0278473Y0215500D01*
X0284473Y0209500D01*
X0284473Y0164500D01*
X0294473Y0154500D01*
X0294473Y0025500D01*
X0284473Y0015500D01*
X0284473Y0009437D01*
X0284471Y0009313D01*
X0284465Y0009190D01*
X0284456Y0009066D01*
X0284442Y0008944D01*
X0284425Y0008821D01*
X0284403Y0008699D01*
X0284378Y0008578D01*
X0284349Y0008458D01*
X0284317Y0008339D01*
X0284280Y0008220D01*
X0284240Y0008103D01*
X0284197Y0007988D01*
X0284149Y0007873D01*
X0284098Y0007761D01*
X0284044Y0007650D01*
X0283986Y0007540D01*
X0283925Y0007433D01*
X0283860Y0007327D01*
X0283792Y0007224D01*
X0283721Y0007123D01*
X0283647Y0007024D01*
X0283570Y0006927D01*
X0283489Y0006833D01*
X0283406Y0006742D01*
X0283320Y0006653D01*
X0283231Y0006567D01*
X0283140Y0006484D01*
X0283046Y0006403D01*
X0282949Y0006326D01*
X0282850Y0006252D01*
X0282749Y0006181D01*
X0282646Y0006113D01*
X0282540Y0006048D01*
X0282433Y0005987D01*
X0282323Y0005929D01*
X0282212Y0005875D01*
X0282100Y0005824D01*
X0281985Y0005776D01*
X0281870Y0005733D01*
X0281753Y0005693D01*
X0281634Y0005656D01*
X0281515Y0005624D01*
X0281395Y0005595D01*
X0281274Y0005570D01*
X0281152Y0005548D01*
X0281029Y0005531D01*
X0280907Y0005517D01*
X0280783Y0005508D01*
X0280660Y0005502D01*
X0280536Y0005500D01*
X0028410Y0005500D01*
X0028286Y0005502D01*
X0028163Y0005508D01*
X0028039Y0005517D01*
X0027917Y0005531D01*
X0027794Y0005548D01*
X0027672Y0005570D01*
X0027551Y0005595D01*
X0027431Y0005624D01*
X0027312Y0005656D01*
X0027193Y0005693D01*
X0027076Y0005733D01*
X0026961Y0005776D01*
X0026846Y0005824D01*
X0026734Y0005875D01*
X0026623Y0005929D01*
X0026513Y0005987D01*
X0026406Y0006048D01*
X0026300Y0006113D01*
X0026197Y0006181D01*
X0026096Y0006252D01*
X0025997Y0006326D01*
X0025900Y0006403D01*
X0025806Y0006484D01*
X0025715Y0006567D01*
X0025626Y0006653D01*
X0025540Y0006742D01*
X0025457Y0006833D01*
X0025376Y0006927D01*
X0025299Y0007024D01*
X0025225Y0007123D01*
X0025154Y0007224D01*
X0025086Y0007327D01*
X0025021Y0007433D01*
X0024960Y0007540D01*
X0024902Y0007650D01*
X0024848Y0007761D01*
X0024797Y0007873D01*
X0024749Y0007988D01*
X0024706Y0008103D01*
X0024666Y0008220D01*
X0024629Y0008339D01*
X0024597Y0008458D01*
X0024568Y0008578D01*
X0024543Y0008699D01*
X0024521Y0008821D01*
X0024504Y0008944D01*
X0024490Y0009066D01*
X0024481Y0009190D01*
X0024475Y0009313D01*
X0024473Y0009437D01*
X0059473Y0023500D02*
X0063473Y0023500D01*
X0057867Y0023500D02*
X0057869Y0023620D01*
X0057875Y0023740D01*
X0057885Y0023859D01*
X0057899Y0023978D01*
X0057917Y0024097D01*
X0057938Y0024215D01*
X0057964Y0024332D01*
X0057994Y0024448D01*
X0058027Y0024563D01*
X0058064Y0024677D01*
X0058105Y0024789D01*
X0058150Y0024901D01*
X0058199Y0025010D01*
X0058251Y0025118D01*
X0058306Y0025225D01*
X0058365Y0025329D01*
X0058428Y0025431D01*
X0058494Y0025531D01*
X0058563Y0025629D01*
X0058635Y0025725D01*
X0058711Y0025818D01*
X0058789Y0025908D01*
X0058871Y0025996D01*
X0058955Y0026081D01*
X0059042Y0026164D01*
X0059132Y0026243D01*
X0059225Y0026319D01*
X0059320Y0026392D01*
X0059417Y0026462D01*
X0059517Y0026529D01*
X0059618Y0026592D01*
X0059722Y0026652D01*
X0059828Y0026709D01*
X0059935Y0026762D01*
X0060045Y0026811D01*
X0060156Y0026857D01*
X0060268Y0026899D01*
X0060382Y0026937D01*
X0060496Y0026971D01*
X0060612Y0027002D01*
X0060729Y0027028D01*
X0060847Y0027051D01*
X0060965Y0027070D01*
X0061084Y0027085D01*
X0061204Y0027096D01*
X0061323Y0027103D01*
X0061443Y0027106D01*
X0061563Y0027105D01*
X0061683Y0027100D01*
X0061802Y0027091D01*
X0061921Y0027078D01*
X0062040Y0027061D01*
X0062158Y0027040D01*
X0062275Y0027016D01*
X0062392Y0026987D01*
X0062507Y0026955D01*
X0062621Y0026918D01*
X0062734Y0026878D01*
X0062846Y0026834D01*
X0062956Y0026787D01*
X0063065Y0026736D01*
X0063171Y0026681D01*
X0063276Y0026623D01*
X0063379Y0026561D01*
X0063480Y0026496D01*
X0063578Y0026428D01*
X0063674Y0026356D01*
X0063768Y0026282D01*
X0063859Y0026204D01*
X0063948Y0026123D01*
X0064033Y0026039D01*
X0064116Y0025953D01*
X0064196Y0025863D01*
X0064274Y0025772D01*
X0064347Y0025677D01*
X0064418Y0025581D01*
X0064486Y0025482D01*
X0064550Y0025380D01*
X0064611Y0025277D01*
X0064668Y0025172D01*
X0064722Y0025065D01*
X0064772Y0024956D01*
X0064819Y0024845D01*
X0064862Y0024733D01*
X0064901Y0024620D01*
X0064936Y0024505D01*
X0064967Y0024390D01*
X0064995Y0024273D01*
X0065019Y0024156D01*
X0065039Y0024037D01*
X0065055Y0023919D01*
X0065067Y0023799D01*
X0065075Y0023680D01*
X0065079Y0023560D01*
X0065079Y0023440D01*
X0065075Y0023320D01*
X0065067Y0023201D01*
X0065055Y0023081D01*
X0065039Y0022963D01*
X0065019Y0022844D01*
X0064995Y0022727D01*
X0064967Y0022610D01*
X0064936Y0022495D01*
X0064901Y0022380D01*
X0064862Y0022267D01*
X0064819Y0022155D01*
X0064772Y0022044D01*
X0064722Y0021935D01*
X0064668Y0021828D01*
X0064611Y0021723D01*
X0064550Y0021620D01*
X0064486Y0021518D01*
X0064418Y0021419D01*
X0064347Y0021323D01*
X0064274Y0021228D01*
X0064196Y0021137D01*
X0064116Y0021047D01*
X0064033Y0020961D01*
X0063948Y0020877D01*
X0063859Y0020796D01*
X0063768Y0020718D01*
X0063674Y0020644D01*
X0063578Y0020572D01*
X0063480Y0020504D01*
X0063379Y0020439D01*
X0063276Y0020377D01*
X0063171Y0020319D01*
X0063065Y0020264D01*
X0062956Y0020213D01*
X0062846Y0020166D01*
X0062734Y0020122D01*
X0062621Y0020082D01*
X0062507Y0020045D01*
X0062392Y0020013D01*
X0062275Y0019984D01*
X0062158Y0019960D01*
X0062040Y0019939D01*
X0061921Y0019922D01*
X0061802Y0019909D01*
X0061683Y0019900D01*
X0061563Y0019895D01*
X0061443Y0019894D01*
X0061323Y0019897D01*
X0061204Y0019904D01*
X0061084Y0019915D01*
X0060965Y0019930D01*
X0060847Y0019949D01*
X0060729Y0019972D01*
X0060612Y0019998D01*
X0060496Y0020029D01*
X0060382Y0020063D01*
X0060268Y0020101D01*
X0060156Y0020143D01*
X0060045Y0020189D01*
X0059935Y0020238D01*
X0059828Y0020291D01*
X0059722Y0020348D01*
X0059618Y0020408D01*
X0059517Y0020471D01*
X0059417Y0020538D01*
X0059320Y0020608D01*
X0059225Y0020681D01*
X0059132Y0020757D01*
X0059042Y0020836D01*
X0058955Y0020919D01*
X0058871Y0021004D01*
X0058789Y0021092D01*
X0058711Y0021182D01*
X0058635Y0021275D01*
X0058563Y0021371D01*
X0058494Y0021469D01*
X0058428Y0021569D01*
X0058365Y0021671D01*
X0058306Y0021775D01*
X0058251Y0021882D01*
X0058199Y0021990D01*
X0058150Y0022099D01*
X0058105Y0022211D01*
X0058064Y0022323D01*
X0058027Y0022437D01*
X0057994Y0022552D01*
X0057964Y0022668D01*
X0057938Y0022785D01*
X0057917Y0022903D01*
X0057899Y0023022D01*
X0057885Y0023141D01*
X0057875Y0023260D01*
X0057869Y0023380D01*
X0057867Y0023500D01*
X0061473Y0021500D02*
X0061473Y0025500D01*
X0057867Y0048000D02*
X0057869Y0048120D01*
X0057875Y0048240D01*
X0057885Y0048359D01*
X0057899Y0048478D01*
X0057917Y0048597D01*
X0057938Y0048715D01*
X0057964Y0048832D01*
X0057994Y0048948D01*
X0058027Y0049063D01*
X0058064Y0049177D01*
X0058105Y0049289D01*
X0058150Y0049401D01*
X0058199Y0049510D01*
X0058251Y0049618D01*
X0058306Y0049725D01*
X0058365Y0049829D01*
X0058428Y0049931D01*
X0058494Y0050031D01*
X0058563Y0050129D01*
X0058635Y0050225D01*
X0058711Y0050318D01*
X0058789Y0050408D01*
X0058871Y0050496D01*
X0058955Y0050581D01*
X0059042Y0050664D01*
X0059132Y0050743D01*
X0059225Y0050819D01*
X0059320Y0050892D01*
X0059417Y0050962D01*
X0059517Y0051029D01*
X0059618Y0051092D01*
X0059722Y0051152D01*
X0059828Y0051209D01*
X0059935Y0051262D01*
X0060045Y0051311D01*
X0060156Y0051357D01*
X0060268Y0051399D01*
X0060382Y0051437D01*
X0060496Y0051471D01*
X0060612Y0051502D01*
X0060729Y0051528D01*
X0060847Y0051551D01*
X0060965Y0051570D01*
X0061084Y0051585D01*
X0061204Y0051596D01*
X0061323Y0051603D01*
X0061443Y0051606D01*
X0061563Y0051605D01*
X0061683Y0051600D01*
X0061802Y0051591D01*
X0061921Y0051578D01*
X0062040Y0051561D01*
X0062158Y0051540D01*
X0062275Y0051516D01*
X0062392Y0051487D01*
X0062507Y0051455D01*
X0062621Y0051418D01*
X0062734Y0051378D01*
X0062846Y0051334D01*
X0062956Y0051287D01*
X0063065Y0051236D01*
X0063171Y0051181D01*
X0063276Y0051123D01*
X0063379Y0051061D01*
X0063480Y0050996D01*
X0063578Y0050928D01*
X0063674Y0050856D01*
X0063768Y0050782D01*
X0063859Y0050704D01*
X0063948Y0050623D01*
X0064033Y0050539D01*
X0064116Y0050453D01*
X0064196Y0050363D01*
X0064274Y0050272D01*
X0064347Y0050177D01*
X0064418Y0050081D01*
X0064486Y0049982D01*
X0064550Y0049880D01*
X0064611Y0049777D01*
X0064668Y0049672D01*
X0064722Y0049565D01*
X0064772Y0049456D01*
X0064819Y0049345D01*
X0064862Y0049233D01*
X0064901Y0049120D01*
X0064936Y0049005D01*
X0064967Y0048890D01*
X0064995Y0048773D01*
X0065019Y0048656D01*
X0065039Y0048537D01*
X0065055Y0048419D01*
X0065067Y0048299D01*
X0065075Y0048180D01*
X0065079Y0048060D01*
X0065079Y0047940D01*
X0065075Y0047820D01*
X0065067Y0047701D01*
X0065055Y0047581D01*
X0065039Y0047463D01*
X0065019Y0047344D01*
X0064995Y0047227D01*
X0064967Y0047110D01*
X0064936Y0046995D01*
X0064901Y0046880D01*
X0064862Y0046767D01*
X0064819Y0046655D01*
X0064772Y0046544D01*
X0064722Y0046435D01*
X0064668Y0046328D01*
X0064611Y0046223D01*
X0064550Y0046120D01*
X0064486Y0046018D01*
X0064418Y0045919D01*
X0064347Y0045823D01*
X0064274Y0045728D01*
X0064196Y0045637D01*
X0064116Y0045547D01*
X0064033Y0045461D01*
X0063948Y0045377D01*
X0063859Y0045296D01*
X0063768Y0045218D01*
X0063674Y0045144D01*
X0063578Y0045072D01*
X0063480Y0045004D01*
X0063379Y0044939D01*
X0063276Y0044877D01*
X0063171Y0044819D01*
X0063065Y0044764D01*
X0062956Y0044713D01*
X0062846Y0044666D01*
X0062734Y0044622D01*
X0062621Y0044582D01*
X0062507Y0044545D01*
X0062392Y0044513D01*
X0062275Y0044484D01*
X0062158Y0044460D01*
X0062040Y0044439D01*
X0061921Y0044422D01*
X0061802Y0044409D01*
X0061683Y0044400D01*
X0061563Y0044395D01*
X0061443Y0044394D01*
X0061323Y0044397D01*
X0061204Y0044404D01*
X0061084Y0044415D01*
X0060965Y0044430D01*
X0060847Y0044449D01*
X0060729Y0044472D01*
X0060612Y0044498D01*
X0060496Y0044529D01*
X0060382Y0044563D01*
X0060268Y0044601D01*
X0060156Y0044643D01*
X0060045Y0044689D01*
X0059935Y0044738D01*
X0059828Y0044791D01*
X0059722Y0044848D01*
X0059618Y0044908D01*
X0059517Y0044971D01*
X0059417Y0045038D01*
X0059320Y0045108D01*
X0059225Y0045181D01*
X0059132Y0045257D01*
X0059042Y0045336D01*
X0058955Y0045419D01*
X0058871Y0045504D01*
X0058789Y0045592D01*
X0058711Y0045682D01*
X0058635Y0045775D01*
X0058563Y0045871D01*
X0058494Y0045969D01*
X0058428Y0046069D01*
X0058365Y0046171D01*
X0058306Y0046275D01*
X0058251Y0046382D01*
X0058199Y0046490D01*
X0058150Y0046599D01*
X0058105Y0046711D01*
X0058064Y0046823D01*
X0058027Y0046937D01*
X0057994Y0047052D01*
X0057964Y0047168D01*
X0057938Y0047285D01*
X0057917Y0047403D01*
X0057899Y0047522D01*
X0057885Y0047641D01*
X0057875Y0047760D01*
X0057869Y0047880D01*
X0057867Y0048000D01*
X0059473Y0048000D02*
X0063473Y0048000D01*
X0164473Y0035000D02*
X0164473Y0022500D01*
X0221608Y0069752D02*
X0221610Y0069819D01*
X0221616Y0069885D01*
X0221626Y0069951D01*
X0221640Y0070016D01*
X0221657Y0070080D01*
X0221679Y0070143D01*
X0221704Y0070205D01*
X0221733Y0070265D01*
X0221766Y0070323D01*
X0221801Y0070379D01*
X0221841Y0070433D01*
X0221883Y0070484D01*
X0221928Y0070533D01*
X0221976Y0070579D01*
X0222027Y0070622D01*
X0222080Y0070662D01*
X0222136Y0070699D01*
X0222194Y0070732D01*
X0222253Y0070762D01*
X0222314Y0070788D01*
X0222377Y0070811D01*
X0222441Y0070829D01*
X0222506Y0070844D01*
X0222572Y0070855D01*
X0222638Y0070862D01*
X0222704Y0070865D01*
X0222771Y0070864D01*
X0222837Y0070859D01*
X0222903Y0070850D01*
X0222969Y0070837D01*
X0223033Y0070820D01*
X0223096Y0070800D01*
X0223158Y0070775D01*
X0223219Y0070747D01*
X0223278Y0070716D01*
X0223334Y0070681D01*
X0223389Y0070643D01*
X0223441Y0070601D01*
X0223490Y0070556D01*
X0223537Y0070509D01*
X0223581Y0070459D01*
X0223621Y0070406D01*
X0223659Y0070351D01*
X0223693Y0070294D01*
X0223724Y0070235D01*
X0223751Y0070174D01*
X0223774Y0070112D01*
X0223794Y0070048D01*
X0223810Y0069983D01*
X0223822Y0069918D01*
X0223830Y0069852D01*
X0223834Y0069785D01*
X0223834Y0069719D01*
X0223830Y0069652D01*
X0223822Y0069586D01*
X0223810Y0069521D01*
X0223794Y0069456D01*
X0223774Y0069392D01*
X0223751Y0069330D01*
X0223724Y0069269D01*
X0223693Y0069210D01*
X0223659Y0069153D01*
X0223621Y0069098D01*
X0223581Y0069045D01*
X0223537Y0068995D01*
X0223490Y0068948D01*
X0223441Y0068903D01*
X0223389Y0068861D01*
X0223334Y0068823D01*
X0223277Y0068788D01*
X0223219Y0068757D01*
X0223158Y0068729D01*
X0223096Y0068704D01*
X0223033Y0068684D01*
X0222969Y0068667D01*
X0222903Y0068654D01*
X0222837Y0068645D01*
X0222771Y0068640D01*
X0222704Y0068639D01*
X0222638Y0068642D01*
X0222572Y0068649D01*
X0222506Y0068660D01*
X0222441Y0068675D01*
X0222377Y0068693D01*
X0222314Y0068716D01*
X0222253Y0068742D01*
X0222194Y0068772D01*
X0222136Y0068805D01*
X0222080Y0068842D01*
X0222027Y0068882D01*
X0221976Y0068925D01*
X0221928Y0068971D01*
X0221883Y0069020D01*
X0221841Y0069071D01*
X0221801Y0069125D01*
X0221766Y0069181D01*
X0221733Y0069239D01*
X0221704Y0069299D01*
X0221679Y0069361D01*
X0221657Y0069424D01*
X0221640Y0069488D01*
X0221626Y0069553D01*
X0221616Y0069619D01*
X0221610Y0069685D01*
X0221608Y0069752D01*
D11*
X0221973Y0039000D02*
X0219473Y0036500D01*
X0221973Y0039000D02*
X0234473Y0039000D01*
X0209473Y0036500D02*
X0206973Y0039000D01*
X0196973Y0039000D01*
X0169473Y0039000D02*
X0161973Y0039000D01*
X0159473Y0036500D01*
X0144473Y0031000D02*
X0144473Y0020500D01*
X0140973Y0020500D01*
X0142473Y0019000D01*
X0140973Y0020500D02*
X0142473Y0022000D01*
X0266973Y0039000D02*
X0276973Y0039000D01*
X0279473Y0036500D01*
X0233819Y0162298D02*
X0233819Y0167703D01*
X0236522Y0167703D01*
X0237423Y0166802D01*
X0237423Y0165001D01*
X0236522Y0164100D01*
X0233819Y0164100D01*
X0230445Y0164100D02*
X0230445Y0169505D01*
X0227742Y0166802D01*
X0231345Y0166802D01*
X0225268Y0165902D02*
X0225268Y0165001D01*
X0224367Y0164100D01*
X0222566Y0164100D01*
X0221665Y0165001D01*
X0221665Y0165902D01*
X0222566Y0166802D01*
X0224367Y0166802D01*
X0225268Y0165902D01*
X0224367Y0166802D02*
X0225268Y0167703D01*
X0225268Y0168604D01*
X0224367Y0169505D01*
X0222566Y0169505D01*
X0221665Y0168604D01*
X0221665Y0167703D01*
X0222566Y0166802D01*
X0219191Y0167703D02*
X0219191Y0168604D01*
X0218290Y0169505D01*
X0216489Y0169505D01*
X0215588Y0168604D01*
X0211312Y0169505D02*
X0211312Y0164100D01*
X0209511Y0164100D02*
X0213114Y0164100D01*
X0215588Y0164100D02*
X0219191Y0167703D01*
X0219191Y0164100D02*
X0215588Y0164100D01*
X0211312Y0169505D02*
X0209511Y0167703D01*
X0207037Y0166802D02*
X0203434Y0166802D01*
X0200959Y0166802D02*
X0200959Y0165001D01*
X0200059Y0164100D01*
X0198257Y0164100D01*
X0197356Y0165001D01*
X0197356Y0166802D01*
X0198257Y0167703D01*
X0200059Y0167703D01*
X0200959Y0166802D01*
X0194882Y0166802D02*
X0194882Y0164100D01*
X0194882Y0166802D02*
X0193981Y0167703D01*
X0191279Y0167703D01*
X0191279Y0164100D01*
X0189029Y0164100D02*
X0187228Y0164100D01*
X0188128Y0164100D02*
X0188128Y0167703D01*
X0187228Y0167703D01*
X0188128Y0169505D02*
X0188128Y0170405D01*
X0184754Y0167703D02*
X0184754Y0164100D01*
X0182051Y0164100D01*
X0181151Y0165001D01*
X0181151Y0167703D01*
X0178676Y0166802D02*
X0175073Y0166802D01*
X0175073Y0165001D02*
X0178676Y0168604D01*
X0176875Y0168604D02*
X0176875Y0165001D01*
X0178676Y0165001D02*
X0175073Y0168604D01*
X0169473Y0179500D02*
X0135973Y0179500D01*
X0133473Y0182000D01*
X0239473Y0179500D02*
X0276973Y0179500D01*
X0279473Y0182000D01*
X0274473Y0184000D02*
X0277973Y0187500D01*
X0270973Y0187500D01*
X0274473Y0184000D01*
X0274473Y0185000D02*
X0272973Y0186500D01*
X0274973Y0186500D01*
X0274473Y0186000D02*
X0274473Y0185500D01*
X0274473Y0185000D02*
X0276473Y0187000D01*
X0272473Y0187000D01*
X0267473Y0184000D02*
X0263973Y0187500D01*
X0260473Y0184000D01*
X0267473Y0184000D01*
X0265973Y0184500D02*
X0263973Y0186500D01*
X0261973Y0184500D01*
X0262973Y0184500D02*
X0264473Y0185500D01*
X0265973Y0184500D02*
X0262973Y0184500D01*
X0257973Y0187500D02*
X0254473Y0184000D01*
X0250973Y0187500D01*
X0257973Y0187500D01*
X0256473Y0187000D02*
X0254473Y0185000D01*
X0252973Y0186500D01*
X0254973Y0186500D01*
X0254473Y0186000D02*
X0254473Y0185500D01*
X0252473Y0187000D02*
X0256473Y0187000D01*
X0247473Y0184000D02*
X0243973Y0187500D01*
X0240473Y0184000D01*
X0247473Y0184000D01*
X0245973Y0184500D02*
X0242973Y0184500D01*
X0244473Y0185500D01*
X0243973Y0186500D02*
X0245973Y0184500D01*
X0243973Y0186500D02*
X0241973Y0184500D01*
D12*
X0237073Y0186289D02*
X0232870Y0186289D01*
X0232870Y0187690D02*
X0237073Y0187690D01*
X0235672Y0188391D02*
X0235672Y0185588D01*
X0234271Y0185588D02*
X0234271Y0187690D01*
X0234271Y0188391D01*
X0232870Y0190192D02*
X0232870Y0192294D01*
X0233570Y0192995D01*
X0236373Y0192995D01*
X0237073Y0192294D01*
X0237073Y0190192D01*
X0232870Y0190192D01*
X0234972Y0194796D02*
X0234972Y0197598D01*
X0237073Y0196898D02*
X0232870Y0196898D01*
X0234972Y0194796D01*
X0236973Y0200500D02*
X0231973Y0200500D01*
X0229473Y0203000D01*
X0226973Y0200500D01*
X0221973Y0200500D01*
X0219473Y0203000D01*
X0216973Y0200500D01*
X0211973Y0200500D01*
X0209473Y0203000D01*
X0206973Y0200500D01*
X0201973Y0200500D01*
X0199473Y0203000D01*
X0199473Y0208000D01*
X0201973Y0210500D01*
X0206973Y0210500D01*
X0209473Y0208000D01*
X0211973Y0210500D01*
X0216973Y0210500D01*
X0219473Y0208000D01*
X0221973Y0210500D01*
X0226973Y0210500D01*
X0229473Y0208000D01*
X0231973Y0210500D01*
X0236973Y0210500D01*
X0239473Y0208000D01*
X0241973Y0210500D01*
X0246973Y0210500D01*
X0249473Y0208000D01*
X0251973Y0210500D01*
X0256973Y0210500D01*
X0259473Y0208000D01*
X0261973Y0210500D01*
X0266973Y0210500D01*
X0269473Y0208000D01*
X0271973Y0210500D01*
X0276973Y0210500D01*
X0279473Y0208000D01*
X0279473Y0203000D01*
X0276973Y0200500D01*
X0271973Y0200500D01*
X0269473Y0203000D01*
X0266973Y0200500D01*
X0261973Y0200500D01*
X0259473Y0203000D01*
X0256973Y0200500D01*
X0251973Y0200500D01*
X0249473Y0203000D01*
X0246973Y0200500D01*
X0241973Y0200500D01*
X0239473Y0203000D01*
X0236973Y0200500D01*
X0242870Y0196898D02*
X0242870Y0195497D01*
X0243570Y0194796D01*
X0243570Y0192995D02*
X0242870Y0192294D01*
X0242870Y0190192D01*
X0247073Y0190192D01*
X0247073Y0192294D01*
X0246373Y0192995D01*
X0243570Y0192995D01*
X0246373Y0194796D02*
X0247073Y0195497D01*
X0247073Y0196898D01*
X0246373Y0197598D01*
X0245672Y0197598D01*
X0244972Y0196898D01*
X0244972Y0196197D01*
X0244972Y0196898D02*
X0244271Y0197598D01*
X0243570Y0197598D01*
X0242870Y0196898D01*
X0252870Y0196898D02*
X0252870Y0195497D01*
X0253570Y0194796D01*
X0253570Y0192995D02*
X0252870Y0192294D01*
X0252870Y0190192D01*
X0257073Y0190192D01*
X0257073Y0192294D01*
X0256373Y0192995D01*
X0253570Y0192995D01*
X0257073Y0194796D02*
X0254271Y0197598D01*
X0253570Y0197598D01*
X0252870Y0196898D01*
X0257073Y0197598D02*
X0257073Y0194796D01*
X0262870Y0196197D02*
X0267073Y0196197D01*
X0267073Y0194796D02*
X0267073Y0197598D01*
X0264271Y0194796D02*
X0262870Y0196197D01*
X0263570Y0192995D02*
X0262870Y0192294D01*
X0262870Y0190192D01*
X0267073Y0190192D01*
X0267073Y0192294D01*
X0266373Y0192995D01*
X0263570Y0192995D01*
X0272870Y0192294D02*
X0272870Y0190192D01*
X0277073Y0190192D01*
X0277073Y0192294D01*
X0276373Y0192995D01*
X0273570Y0192995D01*
X0272870Y0192294D01*
X0273570Y0194796D02*
X0272870Y0195497D01*
X0272870Y0196898D01*
X0273570Y0197598D01*
X0276373Y0194796D01*
X0277073Y0195497D01*
X0277073Y0196898D01*
X0276373Y0197598D01*
X0273570Y0197598D01*
X0273570Y0194796D02*
X0276373Y0194796D01*
X0276373Y0176598D02*
X0273570Y0176598D01*
X0276373Y0173796D01*
X0277073Y0174497D01*
X0277073Y0175898D01*
X0276373Y0176598D01*
X0276373Y0173796D02*
X0273570Y0173796D01*
X0272870Y0174497D01*
X0272870Y0175898D01*
X0273570Y0176598D01*
X0272870Y0171995D02*
X0277073Y0169192D01*
X0277073Y0167391D02*
X0275672Y0165989D01*
X0275672Y0166690D02*
X0275672Y0164588D01*
X0277073Y0164588D02*
X0272870Y0164588D01*
X0272870Y0166690D01*
X0273570Y0167391D01*
X0274972Y0167391D01*
X0275672Y0166690D01*
X0272870Y0169192D02*
X0277073Y0171995D01*
X0267091Y0171946D02*
X0262887Y0169144D01*
X0262887Y0167343D02*
X0262887Y0164540D01*
X0262887Y0165941D02*
X0267091Y0165941D01*
X0267091Y0169144D02*
X0262887Y0171946D01*
X0263588Y0173748D02*
X0262887Y0174449D01*
X0262887Y0175850D01*
X0263588Y0176550D01*
X0266390Y0173748D01*
X0267091Y0174449D01*
X0267091Y0175850D01*
X0266390Y0176550D01*
X0263588Y0176550D01*
X0263588Y0173748D02*
X0266390Y0173748D01*
X0257073Y0173796D02*
X0257073Y0176598D01*
X0257073Y0175197D02*
X0252870Y0175197D01*
X0254271Y0173796D01*
X0252870Y0171995D02*
X0257073Y0169192D01*
X0257073Y0167391D02*
X0255672Y0165989D01*
X0255672Y0166690D02*
X0255672Y0164588D01*
X0257073Y0164588D02*
X0252870Y0164588D01*
X0252870Y0166690D01*
X0253570Y0167391D01*
X0254972Y0167391D01*
X0255672Y0166690D01*
X0252870Y0169192D02*
X0257073Y0171995D01*
X0247091Y0171946D02*
X0242887Y0169144D01*
X0242887Y0167343D02*
X0242887Y0164540D01*
X0242887Y0165941D02*
X0247091Y0165941D01*
X0247091Y0169144D02*
X0242887Y0171946D01*
X0244288Y0173748D02*
X0242887Y0175149D01*
X0247091Y0175149D01*
X0247091Y0173748D02*
X0247091Y0176550D01*
X0235126Y0178801D02*
X0235126Y0180202D01*
X0233724Y0181604D01*
X0231923Y0180202D02*
X0231222Y0180202D01*
X0229120Y0180202D01*
X0229120Y0178801D02*
X0231923Y0178801D01*
X0231222Y0177400D02*
X0231222Y0181604D01*
X0229821Y0181604D02*
X0229821Y0177400D01*
X0233724Y0177400D02*
X0235126Y0178801D01*
X0225672Y0185588D02*
X0225672Y0188391D01*
X0224271Y0188391D02*
X0224271Y0187690D01*
X0224271Y0185588D01*
X0222870Y0186289D02*
X0227073Y0186289D01*
X0227073Y0187690D02*
X0222870Y0187690D01*
X0222870Y0190192D02*
X0222870Y0192294D01*
X0223570Y0192995D01*
X0226373Y0192995D01*
X0227073Y0192294D01*
X0227073Y0190192D01*
X0222870Y0190192D01*
X0222870Y0194796D02*
X0224972Y0194796D01*
X0224271Y0196197D01*
X0224271Y0196898D01*
X0224972Y0197598D01*
X0226373Y0197598D01*
X0227073Y0196898D01*
X0227073Y0195497D01*
X0226373Y0194796D01*
X0222870Y0194796D02*
X0222870Y0197598D01*
X0217073Y0196898D02*
X0217073Y0195497D01*
X0216373Y0194796D01*
X0214972Y0194796D01*
X0214972Y0196898D01*
X0215672Y0197598D01*
X0216373Y0197598D01*
X0217073Y0196898D01*
X0214972Y0194796D02*
X0213570Y0196197D01*
X0212870Y0197598D01*
X0213570Y0192995D02*
X0212870Y0192294D01*
X0212870Y0190192D01*
X0217073Y0190192D01*
X0217073Y0192294D01*
X0216373Y0192995D01*
X0213570Y0192995D01*
X0214271Y0188391D02*
X0214271Y0187690D01*
X0214271Y0185588D01*
X0215672Y0185588D02*
X0215672Y0188391D01*
X0217073Y0187690D02*
X0212870Y0187690D01*
X0212870Y0186289D02*
X0217073Y0186289D01*
X0218111Y0181604D02*
X0218111Y0177400D01*
X0216710Y0178801D01*
X0215309Y0177400D01*
X0215309Y0181604D01*
X0213507Y0180903D02*
X0213507Y0179502D01*
X0212807Y0178801D01*
X0210705Y0178801D01*
X0210705Y0177400D02*
X0210705Y0181604D01*
X0212807Y0181604D01*
X0213507Y0180903D01*
X0209037Y0181604D02*
X0207635Y0180202D01*
X0207635Y0178801D01*
X0209037Y0177400D01*
X0201230Y0177400D02*
X0198428Y0177400D01*
X0198428Y0181604D01*
X0196626Y0180202D02*
X0196626Y0177400D01*
X0196626Y0179502D02*
X0193824Y0179502D01*
X0193824Y0180202D02*
X0195225Y0181604D01*
X0196626Y0180202D01*
X0193824Y0180202D02*
X0193824Y0177400D01*
X0190621Y0177400D02*
X0190621Y0181604D01*
X0189220Y0181604D02*
X0192022Y0181604D01*
X0187552Y0181604D02*
X0186150Y0181604D01*
X0186851Y0181604D02*
X0186851Y0177400D01*
X0186150Y0177400D02*
X0187552Y0177400D01*
X0184349Y0178101D02*
X0184349Y0179502D01*
X0182948Y0179502D01*
X0184349Y0180903D02*
X0183648Y0181604D01*
X0182247Y0181604D01*
X0181547Y0180903D01*
X0181547Y0178101D01*
X0182247Y0177400D01*
X0183648Y0177400D01*
X0184349Y0178101D01*
X0179878Y0177400D02*
X0178477Y0177400D01*
X0179178Y0177400D02*
X0179178Y0181604D01*
X0179878Y0181604D02*
X0178477Y0181604D01*
X0176676Y0180903D02*
X0175975Y0181604D01*
X0173873Y0181604D01*
X0173873Y0177400D01*
X0175975Y0177400D01*
X0176676Y0178101D01*
X0176676Y0180903D01*
X0178271Y0185588D02*
X0178271Y0187690D01*
X0178271Y0188391D01*
X0179672Y0188391D02*
X0179672Y0185588D01*
X0181073Y0186289D02*
X0176870Y0186289D01*
X0176870Y0187690D02*
X0181073Y0187690D01*
X0181073Y0190192D02*
X0176870Y0190192D01*
X0176870Y0192294D01*
X0177570Y0192995D01*
X0180373Y0192995D01*
X0181073Y0192294D01*
X0181073Y0190192D01*
X0180373Y0194796D02*
X0181073Y0195497D01*
X0181073Y0196898D01*
X0180373Y0197598D01*
X0177570Y0197598D01*
X0176870Y0196898D01*
X0176870Y0195497D01*
X0177570Y0194796D01*
X0178271Y0194796D01*
X0178972Y0195497D01*
X0178972Y0197598D01*
X0180973Y0200500D02*
X0175973Y0200500D01*
X0173473Y0203000D01*
X0170973Y0200500D01*
X0165973Y0200500D01*
X0163473Y0203000D01*
X0160973Y0200500D01*
X0155973Y0200500D01*
X0153473Y0203000D01*
X0150973Y0200500D01*
X0145973Y0200500D01*
X0143473Y0203000D01*
X0140973Y0200500D01*
X0135973Y0200500D01*
X0133473Y0203000D01*
X0130973Y0200500D01*
X0125973Y0200500D01*
X0123473Y0203000D01*
X0120973Y0200500D01*
X0115973Y0200500D01*
X0113473Y0203000D01*
X0110973Y0200500D01*
X0105973Y0200500D01*
X0103473Y0203000D01*
X0100973Y0200500D01*
X0095973Y0200500D01*
X0093473Y0203000D01*
X0093473Y0208000D01*
X0095973Y0210500D01*
X0100973Y0210500D01*
X0103473Y0208000D01*
X0105973Y0210500D01*
X0110973Y0210500D01*
X0113473Y0208000D01*
X0115973Y0210500D01*
X0120973Y0210500D01*
X0123473Y0208000D01*
X0125973Y0210500D01*
X0130973Y0210500D01*
X0133473Y0208000D01*
X0135973Y0210500D01*
X0140973Y0210500D01*
X0143473Y0208000D01*
X0145973Y0210500D01*
X0150973Y0210500D01*
X0153473Y0208000D01*
X0155973Y0210500D01*
X0160973Y0210500D01*
X0163473Y0208000D01*
X0165973Y0210500D01*
X0170973Y0210500D01*
X0173473Y0208000D01*
X0175973Y0210500D01*
X0180973Y0210500D01*
X0183473Y0208000D01*
X0185973Y0210500D01*
X0190973Y0210500D01*
X0193473Y0208000D01*
X0193473Y0203000D01*
X0190973Y0200500D01*
X0185973Y0200500D01*
X0183473Y0203000D01*
X0180973Y0200500D01*
X0186870Y0196898D02*
X0186870Y0195497D01*
X0187570Y0194796D01*
X0188271Y0194796D01*
X0188972Y0195497D01*
X0188972Y0196898D01*
X0189672Y0197598D01*
X0190373Y0197598D01*
X0191073Y0196898D01*
X0191073Y0195497D01*
X0190373Y0194796D01*
X0189672Y0194796D01*
X0188972Y0195497D01*
X0188972Y0196898D02*
X0188271Y0197598D01*
X0187570Y0197598D01*
X0186870Y0196898D01*
X0187570Y0192995D02*
X0186870Y0192294D01*
X0186870Y0190192D01*
X0191073Y0190192D01*
X0191073Y0192294D01*
X0190373Y0192995D01*
X0187570Y0192995D01*
X0202870Y0192294D02*
X0202870Y0190192D01*
X0207073Y0190192D01*
X0207073Y0192294D01*
X0206373Y0192995D01*
X0203570Y0192995D01*
X0202870Y0192294D01*
X0202870Y0194796D02*
X0202870Y0197598D01*
X0203570Y0197598D01*
X0206373Y0194796D01*
X0207073Y0194796D01*
X0205672Y0188391D02*
X0205672Y0185588D01*
X0204271Y0185588D02*
X0204271Y0187690D01*
X0204271Y0188391D01*
X0202870Y0187690D02*
X0207073Y0187690D01*
X0207073Y0186289D02*
X0202870Y0186289D01*
X0219913Y0181604D02*
X0219913Y0177400D01*
X0222715Y0177400D02*
X0222715Y0181604D01*
X0221314Y0180202D01*
X0219913Y0181604D01*
X0252473Y0150500D02*
X0256473Y0150500D01*
X0262210Y0147350D02*
X0262210Y0153650D01*
X0263292Y0151878D02*
X0265654Y0151878D01*
X0264473Y0149516D01*
X0263292Y0151878D01*
X0263686Y0151681D02*
X0264473Y0150106D01*
X0265261Y0151681D01*
X0263686Y0151681D01*
X0263713Y0151628D02*
X0265234Y0151628D01*
X0264835Y0150829D02*
X0264112Y0150829D01*
X0266737Y0153650D02*
X0266737Y0147350D01*
X0271921Y0136621D02*
X0273323Y0136621D01*
X0272622Y0136621D02*
X0272622Y0132417D01*
X0271921Y0132417D02*
X0273323Y0132417D01*
X0274991Y0133118D02*
X0275691Y0132417D01*
X0277092Y0132417D01*
X0277793Y0133118D01*
X0279595Y0133118D02*
X0280295Y0132417D01*
X0281696Y0132417D01*
X0282397Y0133118D01*
X0282397Y0133819D01*
X0281696Y0134519D01*
X0280295Y0134519D01*
X0279595Y0135220D01*
X0279595Y0135920D01*
X0280295Y0136621D01*
X0281696Y0136621D01*
X0282397Y0135920D01*
X0284198Y0136621D02*
X0286300Y0136621D01*
X0287001Y0135920D01*
X0287001Y0134519D01*
X0286300Y0133819D01*
X0284198Y0133819D01*
X0284198Y0132417D02*
X0284198Y0136621D01*
X0277793Y0135920D02*
X0277092Y0136621D01*
X0275691Y0136621D01*
X0274991Y0135920D01*
X0274991Y0133118D01*
X0253973Y0128000D02*
X0249973Y0128000D01*
X0243973Y0128000D02*
X0239973Y0128000D01*
X0257973Y0107000D02*
X0261973Y0107000D01*
X0261973Y0089000D02*
X0257973Y0089000D01*
X0246473Y0072000D02*
X0242473Y0072000D01*
X0225871Y0068177D02*
X0225871Y0102823D01*
X0224296Y0104398D01*
X0189650Y0104398D01*
X0188076Y0102823D01*
X0188076Y0068177D01*
X0189650Y0066602D01*
X0224296Y0066602D01*
X0225871Y0068177D01*
X0211973Y0047500D02*
X0211973Y0043500D01*
X0206573Y0033376D02*
X0202370Y0033376D01*
X0202370Y0030573D02*
X0206573Y0033376D01*
X0206573Y0030573D02*
X0202370Y0030573D01*
X0202370Y0028905D02*
X0202370Y0027504D01*
X0202370Y0028205D02*
X0206573Y0028205D01*
X0206573Y0028905D02*
X0206573Y0027504D01*
X0205172Y0025702D02*
X0202370Y0025702D01*
X0202370Y0022900D02*
X0205172Y0022900D01*
X0206573Y0024301D01*
X0205172Y0025702D01*
X0206973Y0020500D02*
X0201973Y0020500D01*
X0199473Y0018000D01*
X0196973Y0020500D01*
X0191973Y0020500D01*
X0189473Y0018000D01*
X0186973Y0020500D01*
X0181973Y0020500D01*
X0179473Y0018000D01*
X0176973Y0020500D01*
X0171973Y0020500D01*
X0169473Y0018000D01*
X0166973Y0020500D01*
X0161973Y0020500D01*
X0159473Y0018000D01*
X0156973Y0020500D01*
X0151973Y0020500D01*
X0149473Y0018000D01*
X0149473Y0013000D01*
X0151973Y0010500D01*
X0156973Y0010500D01*
X0159473Y0013000D01*
X0161973Y0010500D01*
X0166973Y0010500D01*
X0169473Y0013000D01*
X0171973Y0010500D01*
X0176973Y0010500D01*
X0179473Y0013000D01*
X0181973Y0010500D01*
X0186973Y0010500D01*
X0189473Y0013000D01*
X0191973Y0010500D01*
X0196973Y0010500D01*
X0199473Y0013000D01*
X0201973Y0010500D01*
X0206973Y0010500D01*
X0209473Y0013000D01*
X0209473Y0018000D01*
X0206973Y0020500D01*
X0196573Y0023601D02*
X0196573Y0025002D01*
X0195873Y0025702D01*
X0194472Y0025702D01*
X0194472Y0024301D01*
X0195873Y0022900D02*
X0193070Y0022900D01*
X0192370Y0023601D01*
X0192370Y0025002D01*
X0193070Y0025702D01*
X0192370Y0027504D02*
X0196573Y0030306D01*
X0192370Y0030306D01*
X0192370Y0032108D02*
X0192370Y0034210D01*
X0193070Y0034910D01*
X0195873Y0034910D01*
X0196573Y0034210D01*
X0196573Y0032108D01*
X0192370Y0032108D01*
X0186573Y0032108D02*
X0186573Y0034210D01*
X0185873Y0034910D01*
X0183070Y0034910D01*
X0182370Y0034210D01*
X0182370Y0032108D01*
X0186573Y0032108D01*
X0186573Y0030306D02*
X0182370Y0030306D01*
X0182370Y0027504D02*
X0186573Y0030306D01*
X0186573Y0027504D02*
X0182370Y0027504D01*
X0183070Y0025702D02*
X0182370Y0025002D01*
X0182370Y0023601D01*
X0183070Y0022900D01*
X0185873Y0022900D01*
X0186573Y0023601D01*
X0186573Y0025002D01*
X0185873Y0025702D01*
X0184472Y0025702D01*
X0184472Y0024301D01*
X0192370Y0027504D02*
X0196573Y0027504D01*
X0196573Y0023601D02*
X0195873Y0022900D01*
X0193591Y0037400D02*
X0192190Y0038801D01*
X0192891Y0038801D02*
X0190789Y0038801D01*
X0190789Y0037400D02*
X0190789Y0041604D01*
X0192891Y0041604D01*
X0193591Y0040903D01*
X0193591Y0039502D01*
X0192891Y0038801D01*
X0188987Y0037400D02*
X0186185Y0037400D01*
X0186185Y0041604D01*
X0188987Y0041604D01*
X0187586Y0039502D02*
X0186185Y0039502D01*
X0184384Y0037400D02*
X0184384Y0041604D01*
X0181581Y0041604D02*
X0181581Y0037400D01*
X0182982Y0038801D01*
X0184384Y0037400D01*
X0179780Y0038101D02*
X0179780Y0040903D01*
X0179079Y0041604D01*
X0177678Y0041604D01*
X0176977Y0040903D01*
X0176977Y0038101D01*
X0177678Y0037400D01*
X0179079Y0037400D01*
X0179780Y0038101D01*
X0175176Y0039502D02*
X0175176Y0040903D01*
X0174475Y0041604D01*
X0172373Y0041604D01*
X0172373Y0037400D01*
X0172373Y0038801D02*
X0174475Y0038801D01*
X0175176Y0039502D01*
X0166573Y0034210D02*
X0166573Y0032808D01*
X0165873Y0032108D01*
X0165172Y0030306D02*
X0162370Y0030306D01*
X0163070Y0032108D02*
X0162370Y0032808D01*
X0162370Y0034210D01*
X0163070Y0034910D01*
X0163771Y0034910D01*
X0164472Y0034210D01*
X0165172Y0034910D01*
X0165873Y0034910D01*
X0166573Y0034210D01*
X0164472Y0034210D02*
X0164472Y0033509D01*
X0165172Y0030306D02*
X0166573Y0028905D01*
X0165172Y0027504D01*
X0162370Y0027504D01*
X0163070Y0025702D02*
X0162370Y0025002D01*
X0162370Y0023601D01*
X0163070Y0022900D01*
X0164472Y0024301D02*
X0164472Y0025002D01*
X0165172Y0025702D01*
X0165873Y0025702D01*
X0166573Y0025002D01*
X0166573Y0023601D01*
X0165873Y0022900D01*
X0164472Y0025002D02*
X0163771Y0025702D01*
X0163070Y0025702D01*
X0156573Y0025702D02*
X0155172Y0024301D01*
X0155172Y0025002D02*
X0155172Y0022900D01*
X0156573Y0022900D02*
X0152370Y0022900D01*
X0152370Y0025002D01*
X0153070Y0025702D01*
X0154472Y0025702D01*
X0155172Y0025002D01*
X0154472Y0027504D02*
X0154472Y0028905D01*
X0156573Y0027504D02*
X0156573Y0030306D01*
X0155873Y0032108D02*
X0156573Y0032808D01*
X0156573Y0034210D01*
X0155873Y0034910D01*
X0155172Y0034910D01*
X0154472Y0034210D01*
X0154472Y0032808D01*
X0153771Y0032108D01*
X0153070Y0032108D01*
X0152370Y0032808D01*
X0152370Y0034210D01*
X0153070Y0034910D01*
X0152370Y0036712D02*
X0156573Y0036712D01*
X0156573Y0039514D01*
X0154472Y0038113D02*
X0154472Y0036712D01*
X0152370Y0036712D02*
X0152370Y0039514D01*
X0152370Y0041316D02*
X0152370Y0044118D01*
X0152370Y0042717D02*
X0156573Y0042717D01*
X0146073Y0042274D02*
X0145373Y0041573D01*
X0142570Y0041573D01*
X0141870Y0042274D01*
X0141870Y0043675D01*
X0142570Y0044376D01*
X0145373Y0044376D01*
X0146073Y0043675D01*
X0146073Y0042274D01*
X0141870Y0039772D02*
X0146073Y0036969D01*
X0146073Y0035301D02*
X0146073Y0033900D01*
X0146073Y0034601D02*
X0141870Y0034601D01*
X0141870Y0035301D02*
X0141870Y0033900D01*
X0152370Y0030306D02*
X0152370Y0027504D01*
X0156573Y0027504D01*
X0172370Y0027504D02*
X0175172Y0027504D01*
X0176573Y0028905D01*
X0175172Y0030306D01*
X0172370Y0030306D01*
X0172370Y0025702D02*
X0172370Y0022900D01*
X0174472Y0022900D01*
X0173771Y0024301D01*
X0173771Y0025002D01*
X0174472Y0025702D01*
X0175873Y0025702D01*
X0176573Y0025002D01*
X0176573Y0023601D01*
X0175873Y0022900D01*
X0219473Y0018000D02*
X0219473Y0013000D01*
X0221973Y0010500D01*
X0226973Y0010500D01*
X0229473Y0013000D01*
X0231973Y0010500D01*
X0236973Y0010500D01*
X0239473Y0013000D01*
X0241973Y0010500D01*
X0246973Y0010500D01*
X0249473Y0013000D01*
X0251973Y0010500D01*
X0256973Y0010500D01*
X0259473Y0013000D01*
X0261973Y0010500D01*
X0266973Y0010500D01*
X0269473Y0013000D01*
X0271973Y0010500D01*
X0276973Y0010500D01*
X0279473Y0013000D01*
X0279473Y0018000D01*
X0276973Y0020500D01*
X0271973Y0020500D01*
X0269473Y0018000D01*
X0266973Y0020500D01*
X0261973Y0020500D01*
X0259473Y0018000D01*
X0256973Y0020500D01*
X0251973Y0020500D01*
X0249473Y0018000D01*
X0246973Y0020500D01*
X0241973Y0020500D01*
X0239473Y0018000D01*
X0236973Y0020500D01*
X0231973Y0020500D01*
X0229473Y0018000D01*
X0226973Y0020500D01*
X0221973Y0020500D01*
X0219473Y0018000D01*
X0223771Y0022900D02*
X0222370Y0024301D01*
X0223771Y0025702D01*
X0226573Y0025702D01*
X0225873Y0027504D02*
X0223070Y0027504D01*
X0222370Y0028205D01*
X0222370Y0029606D01*
X0223070Y0030306D01*
X0225873Y0027504D01*
X0226573Y0028205D01*
X0226573Y0029606D01*
X0225873Y0030306D01*
X0223070Y0030306D01*
X0224472Y0025702D02*
X0224472Y0022900D01*
X0223771Y0022900D02*
X0226573Y0022900D01*
X0232370Y0024301D02*
X0233771Y0025702D01*
X0236573Y0025702D01*
X0236573Y0027504D02*
X0236573Y0030306D01*
X0236573Y0028905D02*
X0232370Y0028905D01*
X0233771Y0027504D01*
X0234472Y0025702D02*
X0234472Y0022900D01*
X0233771Y0022900D02*
X0236573Y0022900D01*
X0233771Y0022900D02*
X0232370Y0024301D01*
X0242370Y0024301D02*
X0243771Y0025702D01*
X0246573Y0025702D01*
X0246573Y0027504D02*
X0243771Y0030306D01*
X0243070Y0030306D01*
X0242370Y0029606D01*
X0242370Y0028205D01*
X0243070Y0027504D01*
X0244472Y0025702D02*
X0244472Y0022900D01*
X0243771Y0022900D02*
X0242370Y0024301D01*
X0243771Y0022900D02*
X0246573Y0022900D01*
X0246573Y0027504D02*
X0246573Y0030306D01*
X0252370Y0029606D02*
X0252370Y0028205D01*
X0253070Y0027504D01*
X0253771Y0025702D02*
X0256573Y0025702D01*
X0255873Y0027504D02*
X0256573Y0028205D01*
X0256573Y0029606D01*
X0255873Y0030306D01*
X0255172Y0030306D01*
X0254472Y0029606D01*
X0254472Y0028905D01*
X0254472Y0029606D02*
X0253771Y0030306D01*
X0253070Y0030306D01*
X0252370Y0029606D01*
X0253771Y0025702D02*
X0252370Y0024301D01*
X0253771Y0022900D01*
X0256573Y0022900D01*
X0254472Y0022900D02*
X0254472Y0025702D01*
X0262370Y0024301D02*
X0263771Y0025702D01*
X0266573Y0025702D01*
X0264472Y0025702D02*
X0264472Y0022900D01*
X0263771Y0022900D02*
X0262370Y0024301D01*
X0263771Y0022900D02*
X0266573Y0022900D01*
X0272370Y0024301D02*
X0273771Y0025702D01*
X0276573Y0025702D01*
X0275873Y0027504D02*
X0276573Y0028205D01*
X0276573Y0029606D01*
X0275873Y0030306D01*
X0274472Y0030306D01*
X0273771Y0029606D01*
X0273771Y0028905D01*
X0274472Y0027504D01*
X0272370Y0027504D01*
X0272370Y0030306D01*
X0266573Y0029606D02*
X0262370Y0029606D01*
X0264472Y0027504D01*
X0264472Y0030306D01*
X0262995Y0037400D02*
X0263695Y0038101D01*
X0263695Y0039502D01*
X0262294Y0039502D01*
X0260893Y0040903D02*
X0260893Y0038101D01*
X0261594Y0037400D01*
X0262995Y0037400D01*
X0259091Y0038101D02*
X0259091Y0040903D01*
X0258391Y0041604D01*
X0256990Y0041604D01*
X0256289Y0040903D01*
X0256289Y0038101D01*
X0256990Y0037400D01*
X0258391Y0037400D01*
X0259091Y0038101D01*
X0260893Y0040903D02*
X0261594Y0041604D01*
X0262995Y0041604D01*
X0263695Y0040903D01*
X0254487Y0037400D02*
X0251685Y0037400D01*
X0251685Y0041604D01*
X0249884Y0040202D02*
X0249884Y0037400D01*
X0249884Y0039502D02*
X0247081Y0039502D01*
X0247081Y0040202D02*
X0247081Y0037400D01*
X0245280Y0037400D02*
X0245280Y0041604D01*
X0247081Y0040202D02*
X0248482Y0041604D01*
X0249884Y0040202D01*
X0245280Y0037400D02*
X0242477Y0041604D01*
X0242477Y0037400D01*
X0240676Y0037400D02*
X0240676Y0040202D01*
X0239275Y0041604D01*
X0237873Y0040202D01*
X0237873Y0037400D01*
X0237873Y0039502D02*
X0240676Y0039502D01*
X0272370Y0024301D02*
X0273771Y0022900D01*
X0276573Y0022900D01*
X0274472Y0022900D02*
X0274472Y0025702D01*
X0171473Y0067500D02*
X0167473Y0067500D01*
X0167473Y0086500D02*
X0171473Y0086500D01*
X0153973Y0095500D02*
X0149973Y0095500D01*
X0141473Y0095500D02*
X0137473Y0095500D01*
X0129473Y0095500D02*
X0125473Y0095500D01*
X0116473Y0095500D02*
X0112473Y0095500D01*
X0103973Y0095500D02*
X0099973Y0095500D01*
X0094573Y0090598D02*
X0093172Y0089197D01*
X0093172Y0089898D02*
X0093172Y0087796D01*
X0094573Y0087796D02*
X0090370Y0087796D01*
X0090370Y0089898D01*
X0091070Y0090598D01*
X0092472Y0090598D01*
X0093172Y0089898D01*
X0088973Y0088000D02*
X0086473Y0085500D01*
X0088973Y0083000D01*
X0088973Y0078000D01*
X0086473Y0075500D01*
X0088973Y0073000D01*
X0088973Y0068000D01*
X0086473Y0065500D01*
X0081473Y0065500D01*
X0078973Y0068000D01*
X0078973Y0073000D01*
X0081473Y0075500D01*
X0078973Y0078000D01*
X0078973Y0083000D01*
X0081473Y0085500D01*
X0078973Y0088000D01*
X0078973Y0093000D01*
X0081473Y0095500D01*
X0086473Y0095500D01*
X0088973Y0093000D01*
X0088973Y0088000D01*
X0090370Y0085994D02*
X0090370Y0083192D01*
X0094573Y0083192D01*
X0094573Y0085994D01*
X0092472Y0084593D02*
X0092472Y0083192D01*
X0094573Y0081391D02*
X0090370Y0081391D01*
X0090370Y0078588D02*
X0094573Y0078588D01*
X0093172Y0079989D01*
X0094573Y0081391D01*
X0093873Y0076787D02*
X0091070Y0076787D01*
X0090370Y0076086D01*
X0090370Y0074685D01*
X0091070Y0073984D01*
X0093873Y0073984D01*
X0094573Y0074685D01*
X0094573Y0076086D01*
X0093873Y0076787D01*
X0092472Y0072183D02*
X0091070Y0072183D01*
X0090370Y0071482D01*
X0090370Y0069380D01*
X0094573Y0069380D01*
X0093172Y0069380D02*
X0093172Y0071482D01*
X0092472Y0072183D01*
X0077573Y0072806D02*
X0073370Y0070004D01*
X0073370Y0068202D02*
X0073370Y0065400D01*
X0077573Y0065400D01*
X0077573Y0068202D01*
X0077573Y0070004D02*
X0073370Y0072806D01*
X0073370Y0074608D02*
X0073370Y0077410D01*
X0073370Y0076009D02*
X0077573Y0076009D01*
X0076873Y0083400D02*
X0073370Y0083400D01*
X0076873Y0083400D02*
X0077573Y0084101D01*
X0077573Y0085502D01*
X0076873Y0086202D01*
X0073370Y0086202D01*
X0074070Y0088004D02*
X0073370Y0088705D01*
X0073370Y0090106D01*
X0074070Y0090806D01*
X0075472Y0090106D02*
X0076172Y0090806D01*
X0076873Y0090806D01*
X0077573Y0090106D01*
X0077573Y0088705D01*
X0076873Y0088004D01*
X0075472Y0088705D02*
X0074771Y0088004D01*
X0074070Y0088004D01*
X0075472Y0088705D02*
X0075472Y0090106D01*
X0075472Y0092608D02*
X0075472Y0094710D01*
X0076172Y0095410D01*
X0076873Y0095410D01*
X0077573Y0094710D01*
X0077573Y0092608D01*
X0073370Y0092608D01*
X0073370Y0094710D01*
X0074070Y0095410D01*
X0074771Y0095410D01*
X0075472Y0094710D01*
X0084473Y0103500D02*
X0084473Y0107500D01*
X0084473Y0123500D02*
X0084473Y0127500D01*
X0066973Y0138500D02*
X0066973Y0142500D01*
X0066973Y0148500D02*
X0066973Y0152500D01*
X0043284Y0144083D02*
X0043284Y0139752D01*
X0037182Y0139752D01*
X0025765Y0139752D02*
X0025174Y0139752D01*
X0025174Y0171248D01*
X0025765Y0171248D01*
X0037182Y0171248D02*
X0043284Y0171248D01*
X0043284Y0166917D01*
X0042410Y0182383D02*
X0045212Y0182383D01*
X0047013Y0183083D02*
X0047714Y0182383D01*
X0049115Y0182383D01*
X0049816Y0183083D01*
X0049816Y0183784D01*
X0049115Y0184484D01*
X0047714Y0184484D01*
X0047013Y0185185D01*
X0047013Y0185886D01*
X0047714Y0186586D01*
X0049115Y0186586D01*
X0049816Y0185886D01*
X0051617Y0186586D02*
X0051617Y0182383D01*
X0054420Y0182383D01*
X0053019Y0184484D02*
X0051617Y0184484D01*
X0051617Y0186586D02*
X0054420Y0186586D01*
X0056221Y0186586D02*
X0059024Y0186586D01*
X0057623Y0186586D02*
X0057623Y0182383D01*
X0055536Y0190000D02*
X0043410Y0190000D01*
X0042410Y0186586D02*
X0042410Y0182383D01*
X0040608Y0182383D02*
X0039207Y0183784D01*
X0039907Y0183784D02*
X0037806Y0183784D01*
X0037806Y0182383D02*
X0037806Y0186586D01*
X0039907Y0186586D01*
X0040608Y0185886D01*
X0040608Y0184484D01*
X0039907Y0183784D01*
X0042410Y0184484D02*
X0043811Y0184484D01*
X0045212Y0186586D02*
X0042410Y0186586D01*
X0039473Y0195118D02*
X0039473Y0205000D01*
X0043410Y0210000D02*
X0055536Y0210000D01*
X0059473Y0204882D02*
X0059473Y0195118D01*
X0044473Y0200000D02*
X0044475Y0200141D01*
X0044481Y0200282D01*
X0044491Y0200422D01*
X0044505Y0200562D01*
X0044523Y0200702D01*
X0044544Y0200841D01*
X0044570Y0200980D01*
X0044599Y0201118D01*
X0044633Y0201254D01*
X0044670Y0201390D01*
X0044711Y0201525D01*
X0044756Y0201659D01*
X0044805Y0201791D01*
X0044857Y0201922D01*
X0044913Y0202051D01*
X0044973Y0202178D01*
X0045036Y0202304D01*
X0045102Y0202428D01*
X0045173Y0202551D01*
X0045246Y0202671D01*
X0045323Y0202789D01*
X0045403Y0202905D01*
X0045487Y0203018D01*
X0045573Y0203129D01*
X0045663Y0203238D01*
X0045756Y0203344D01*
X0045851Y0203447D01*
X0045950Y0203548D01*
X0046051Y0203646D01*
X0046155Y0203741D01*
X0046262Y0203833D01*
X0046371Y0203922D01*
X0046483Y0204007D01*
X0046597Y0204090D01*
X0046713Y0204170D01*
X0046832Y0204246D01*
X0046953Y0204318D01*
X0047075Y0204388D01*
X0047200Y0204453D01*
X0047326Y0204516D01*
X0047454Y0204574D01*
X0047584Y0204629D01*
X0047715Y0204681D01*
X0047848Y0204728D01*
X0047982Y0204772D01*
X0048117Y0204813D01*
X0048253Y0204849D01*
X0048390Y0204881D01*
X0048528Y0204910D01*
X0048666Y0204935D01*
X0048806Y0204955D01*
X0048946Y0204972D01*
X0049086Y0204985D01*
X0049227Y0204994D01*
X0049367Y0204999D01*
X0049508Y0205000D01*
X0049649Y0204997D01*
X0049790Y0204990D01*
X0049930Y0204979D01*
X0050070Y0204964D01*
X0050210Y0204945D01*
X0050349Y0204923D01*
X0050487Y0204896D01*
X0050625Y0204866D01*
X0050761Y0204831D01*
X0050897Y0204793D01*
X0051031Y0204751D01*
X0051165Y0204705D01*
X0051297Y0204656D01*
X0051427Y0204602D01*
X0051556Y0204545D01*
X0051683Y0204485D01*
X0051809Y0204421D01*
X0051932Y0204353D01*
X0052054Y0204282D01*
X0052174Y0204208D01*
X0052291Y0204130D01*
X0052406Y0204049D01*
X0052519Y0203965D01*
X0052630Y0203878D01*
X0052738Y0203787D01*
X0052843Y0203694D01*
X0052946Y0203597D01*
X0053046Y0203498D01*
X0053143Y0203396D01*
X0053237Y0203291D01*
X0053328Y0203184D01*
X0053416Y0203074D01*
X0053501Y0202962D01*
X0053583Y0202847D01*
X0053662Y0202730D01*
X0053737Y0202611D01*
X0053809Y0202490D01*
X0053877Y0202367D01*
X0053942Y0202242D01*
X0054004Y0202115D01*
X0054061Y0201986D01*
X0054116Y0201856D01*
X0054166Y0201725D01*
X0054213Y0201592D01*
X0054256Y0201458D01*
X0054295Y0201322D01*
X0054330Y0201186D01*
X0054362Y0201049D01*
X0054389Y0200911D01*
X0054413Y0200772D01*
X0054433Y0200632D01*
X0054449Y0200492D01*
X0054461Y0200352D01*
X0054469Y0200211D01*
X0054473Y0200070D01*
X0054473Y0199930D01*
X0054469Y0199789D01*
X0054461Y0199648D01*
X0054449Y0199508D01*
X0054433Y0199368D01*
X0054413Y0199228D01*
X0054389Y0199089D01*
X0054362Y0198951D01*
X0054330Y0198814D01*
X0054295Y0198678D01*
X0054256Y0198542D01*
X0054213Y0198408D01*
X0054166Y0198275D01*
X0054116Y0198144D01*
X0054061Y0198014D01*
X0054004Y0197885D01*
X0053942Y0197758D01*
X0053877Y0197633D01*
X0053809Y0197510D01*
X0053737Y0197389D01*
X0053662Y0197270D01*
X0053583Y0197153D01*
X0053501Y0197038D01*
X0053416Y0196926D01*
X0053328Y0196816D01*
X0053237Y0196709D01*
X0053143Y0196604D01*
X0053046Y0196502D01*
X0052946Y0196403D01*
X0052843Y0196306D01*
X0052738Y0196213D01*
X0052630Y0196122D01*
X0052519Y0196035D01*
X0052406Y0195951D01*
X0052291Y0195870D01*
X0052174Y0195792D01*
X0052054Y0195718D01*
X0051932Y0195647D01*
X0051809Y0195579D01*
X0051683Y0195515D01*
X0051556Y0195455D01*
X0051427Y0195398D01*
X0051297Y0195344D01*
X0051165Y0195295D01*
X0051031Y0195249D01*
X0050897Y0195207D01*
X0050761Y0195169D01*
X0050625Y0195134D01*
X0050487Y0195104D01*
X0050349Y0195077D01*
X0050210Y0195055D01*
X0050070Y0195036D01*
X0049930Y0195021D01*
X0049790Y0195010D01*
X0049649Y0195003D01*
X0049508Y0195000D01*
X0049367Y0195001D01*
X0049227Y0195006D01*
X0049086Y0195015D01*
X0048946Y0195028D01*
X0048806Y0195045D01*
X0048666Y0195065D01*
X0048528Y0195090D01*
X0048390Y0195119D01*
X0048253Y0195151D01*
X0048117Y0195187D01*
X0047982Y0195228D01*
X0047848Y0195272D01*
X0047715Y0195319D01*
X0047584Y0195371D01*
X0047454Y0195426D01*
X0047326Y0195484D01*
X0047200Y0195547D01*
X0047075Y0195612D01*
X0046953Y0195682D01*
X0046832Y0195754D01*
X0046713Y0195830D01*
X0046597Y0195910D01*
X0046483Y0195993D01*
X0046371Y0196078D01*
X0046262Y0196167D01*
X0046155Y0196259D01*
X0046051Y0196354D01*
X0045950Y0196452D01*
X0045851Y0196553D01*
X0045756Y0196656D01*
X0045663Y0196762D01*
X0045573Y0196871D01*
X0045487Y0196982D01*
X0045403Y0197095D01*
X0045323Y0197211D01*
X0045246Y0197329D01*
X0045173Y0197449D01*
X0045102Y0197572D01*
X0045036Y0197696D01*
X0044973Y0197822D01*
X0044913Y0197949D01*
X0044857Y0198078D01*
X0044805Y0198209D01*
X0044756Y0198341D01*
X0044711Y0198475D01*
X0044670Y0198610D01*
X0044633Y0198746D01*
X0044599Y0198882D01*
X0044570Y0199020D01*
X0044544Y0199159D01*
X0044523Y0199298D01*
X0044505Y0199438D01*
X0044491Y0199578D01*
X0044481Y0199718D01*
X0044475Y0199859D01*
X0044473Y0200000D01*
X0087421Y0181621D02*
X0088823Y0181621D01*
X0088122Y0181621D02*
X0088122Y0177417D01*
X0087421Y0177417D02*
X0088823Y0177417D01*
X0090491Y0178118D02*
X0091191Y0177417D01*
X0092592Y0177417D01*
X0093293Y0178118D01*
X0095095Y0178118D02*
X0095795Y0177417D01*
X0097196Y0177417D01*
X0097897Y0178118D01*
X0097897Y0178819D01*
X0097196Y0179519D01*
X0095795Y0179519D01*
X0095095Y0180220D01*
X0095095Y0180920D01*
X0095795Y0181621D01*
X0097196Y0181621D01*
X0097897Y0180920D01*
X0099698Y0181621D02*
X0099698Y0177417D01*
X0099698Y0178819D02*
X0101800Y0178819D01*
X0102501Y0179519D01*
X0102501Y0180920D01*
X0101800Y0181621D01*
X0099698Y0181621D01*
X0100490Y0185640D02*
X0101191Y0186341D01*
X0101191Y0187742D01*
X0100490Y0188443D01*
X0099789Y0188443D01*
X0099089Y0187742D01*
X0099089Y0186341D01*
X0098388Y0185640D01*
X0097688Y0185640D01*
X0096987Y0186341D01*
X0096987Y0187742D01*
X0097688Y0188443D01*
X0097688Y0190244D02*
X0100490Y0190244D01*
X0101191Y0190945D01*
X0101191Y0192346D01*
X0100490Y0193046D01*
X0101191Y0194848D02*
X0096987Y0194848D01*
X0097688Y0193046D02*
X0096987Y0192346D01*
X0096987Y0190945D01*
X0097688Y0190244D01*
X0101191Y0194848D02*
X0101191Y0197650D01*
X0106987Y0196249D02*
X0108388Y0197650D01*
X0111191Y0197650D01*
X0109089Y0197650D02*
X0109089Y0194848D01*
X0108388Y0194848D02*
X0106987Y0196249D01*
X0108388Y0194848D02*
X0111191Y0194848D01*
X0110490Y0193046D02*
X0107688Y0193046D01*
X0106987Y0192346D01*
X0106987Y0190244D01*
X0111191Y0190244D01*
X0111191Y0192346D01*
X0110490Y0193046D01*
X0110490Y0188443D02*
X0111191Y0187742D01*
X0111191Y0186341D01*
X0110490Y0185640D01*
X0109089Y0186341D02*
X0109089Y0187742D01*
X0109789Y0188443D01*
X0110490Y0188443D01*
X0109089Y0186341D02*
X0108388Y0185640D01*
X0107688Y0185640D01*
X0106987Y0186341D01*
X0106987Y0187742D01*
X0107688Y0188443D01*
X0116987Y0187742D02*
X0117688Y0188443D01*
X0119089Y0188443D01*
X0119789Y0187742D01*
X0119789Y0185640D01*
X0119789Y0187041D02*
X0121191Y0188443D01*
X0121191Y0190244D02*
X0116987Y0190244D01*
X0116987Y0193046D01*
X0116987Y0194848D02*
X0116987Y0197650D01*
X0119089Y0196249D02*
X0119089Y0194848D01*
X0121191Y0194848D02*
X0116987Y0194848D01*
X0121191Y0193046D02*
X0121191Y0190244D01*
X0119089Y0190244D02*
X0119089Y0191645D01*
X0116987Y0187742D02*
X0116987Y0185640D01*
X0121191Y0185640D01*
X0121191Y0183839D02*
X0118388Y0183839D01*
X0116987Y0182437D01*
X0118388Y0181036D01*
X0121191Y0181036D01*
X0119089Y0181036D02*
X0119089Y0183839D01*
X0126945Y0186241D02*
X0127645Y0185540D01*
X0130448Y0185540D01*
X0131148Y0186241D01*
X0131148Y0187642D01*
X0130448Y0188343D01*
X0129046Y0188343D01*
X0129046Y0186941D01*
X0127645Y0188343D02*
X0126945Y0187642D01*
X0126945Y0186241D01*
X0126945Y0190144D02*
X0131148Y0192946D01*
X0126945Y0192946D01*
X0126945Y0194748D02*
X0126945Y0196850D01*
X0127645Y0197550D01*
X0130448Y0197550D01*
X0131148Y0196850D01*
X0131148Y0194748D01*
X0126945Y0194748D01*
X0126945Y0190144D02*
X0131148Y0190144D01*
X0136870Y0191593D02*
X0141073Y0191593D01*
X0141073Y0190192D02*
X0141073Y0192995D01*
X0140373Y0194796D02*
X0141073Y0195497D01*
X0141073Y0196898D01*
X0140373Y0197598D01*
X0139672Y0197598D01*
X0138972Y0196898D01*
X0138972Y0196197D01*
X0138972Y0196898D02*
X0138271Y0197598D01*
X0137570Y0197598D01*
X0136870Y0196898D01*
X0136870Y0195497D01*
X0137570Y0194796D01*
X0136870Y0191593D02*
X0138271Y0190192D01*
X0137570Y0188391D02*
X0136870Y0187690D01*
X0136870Y0185588D01*
X0141073Y0185588D01*
X0141073Y0187690D01*
X0140373Y0188391D01*
X0137570Y0188391D01*
X0138271Y0183787D02*
X0138271Y0183086D01*
X0138271Y0180984D01*
X0139672Y0180984D02*
X0139672Y0183787D01*
X0141073Y0183086D02*
X0136870Y0183086D01*
X0136870Y0181685D02*
X0141073Y0181685D01*
X0146870Y0181685D02*
X0151073Y0181685D01*
X0151073Y0183086D02*
X0146870Y0183086D01*
X0148271Y0183086D02*
X0148271Y0180984D01*
X0149672Y0180984D02*
X0149672Y0183787D01*
X0148271Y0183787D02*
X0148271Y0183086D01*
X0146870Y0185588D02*
X0146870Y0187690D01*
X0147570Y0188391D01*
X0150373Y0188391D01*
X0151073Y0187690D01*
X0151073Y0185588D01*
X0146870Y0185588D01*
X0148271Y0190192D02*
X0146870Y0191593D01*
X0151073Y0191593D01*
X0151073Y0190192D02*
X0151073Y0192995D01*
X0151073Y0194796D02*
X0148271Y0197598D01*
X0147570Y0197598D01*
X0146870Y0196898D01*
X0146870Y0195497D01*
X0147570Y0194796D01*
X0151073Y0194796D02*
X0151073Y0197598D01*
X0156870Y0196197D02*
X0161073Y0196197D01*
X0161073Y0194796D02*
X0161073Y0197598D01*
X0158271Y0194796D02*
X0156870Y0196197D01*
X0156870Y0191593D02*
X0161073Y0191593D01*
X0161073Y0190192D02*
X0161073Y0192995D01*
X0158271Y0190192D02*
X0156870Y0191593D01*
X0157570Y0188391D02*
X0156870Y0187690D01*
X0156870Y0185588D01*
X0161073Y0185588D01*
X0161073Y0187690D01*
X0160373Y0188391D01*
X0157570Y0188391D01*
X0166870Y0187690D02*
X0166870Y0185588D01*
X0171073Y0185588D01*
X0171073Y0187690D01*
X0170373Y0188391D01*
X0167570Y0188391D01*
X0166870Y0187690D01*
X0168271Y0183787D02*
X0168271Y0183086D01*
X0168271Y0180984D01*
X0169672Y0180984D02*
X0169672Y0183787D01*
X0171073Y0183086D02*
X0166870Y0183086D01*
X0166870Y0181685D02*
X0171073Y0181685D01*
X0171073Y0190192D02*
X0171073Y0192995D01*
X0171073Y0191593D02*
X0166870Y0191593D01*
X0168271Y0190192D01*
X0167570Y0194796D02*
X0166870Y0195497D01*
X0166870Y0196898D01*
X0167570Y0197598D01*
X0170373Y0194796D01*
X0171073Y0195497D01*
X0171073Y0196898D01*
X0170373Y0197598D01*
X0167570Y0197598D01*
X0167570Y0194796D02*
X0170373Y0194796D01*
X0151473Y0160500D02*
X0147473Y0160500D01*
X0141473Y0160500D02*
X0137473Y0160500D01*
X0131473Y0160500D02*
X0127473Y0160500D01*
X0155473Y0146000D02*
X0155473Y0142000D01*
X0166973Y0131500D02*
X0166973Y0127500D01*
X0166973Y0121000D02*
X0166973Y0117000D01*
X0205973Y0121500D02*
X0205973Y0125500D01*
X0123473Y0079400D02*
X0123473Y0053600D01*
X0110473Y0053600D01*
X0110473Y0079400D01*
X0123473Y0079400D01*
X0093973Y0053000D02*
X0089973Y0053000D01*
X0092623Y0040264D02*
X0086324Y0040264D01*
X0088095Y0039181D02*
X0090458Y0038000D01*
X0088095Y0036819D01*
X0088095Y0039181D01*
X0088292Y0038787D02*
X0089867Y0038000D01*
X0088292Y0037213D01*
X0088292Y0038787D01*
X0088292Y0038239D02*
X0089389Y0038239D01*
X0088748Y0037440D02*
X0088292Y0037440D01*
X0086324Y0035736D02*
X0092623Y0035736D01*
X0075073Y0047400D02*
X0071873Y0047400D01*
X0071873Y0049994D01*
X0071873Y0056006D02*
X0071873Y0058600D01*
X0075073Y0058600D01*
X0075472Y0065400D02*
X0075472Y0066801D01*
X0061973Y0065000D02*
X0061973Y0061000D01*
X0055045Y0062121D02*
X0055045Y0059319D01*
X0053644Y0057917D01*
X0052243Y0059319D01*
X0052243Y0062121D01*
X0050441Y0062121D02*
X0047639Y0062121D01*
X0047639Y0060019D01*
X0049040Y0060720D01*
X0049741Y0060720D01*
X0050441Y0060019D01*
X0050441Y0058618D01*
X0049741Y0057917D01*
X0048340Y0057917D01*
X0047639Y0058618D01*
X0045837Y0057917D02*
X0043035Y0057917D01*
X0044436Y0057917D02*
X0044436Y0062121D01*
X0043035Y0060720D01*
X0041234Y0060019D02*
X0038431Y0060019D01*
X0036630Y0060019D02*
X0033827Y0060019D01*
X0035929Y0062121D01*
X0035929Y0057917D01*
X0032226Y0057917D02*
X0031525Y0057917D01*
X0031525Y0058618D01*
X0032226Y0058618D01*
X0032226Y0057917D01*
X0029724Y0058618D02*
X0029724Y0059319D01*
X0029023Y0060019D01*
X0026921Y0060019D01*
X0026921Y0058618D01*
X0027622Y0057917D01*
X0029023Y0057917D01*
X0029724Y0058618D01*
X0028323Y0061420D02*
X0026921Y0060019D01*
X0028323Y0061420D02*
X0029724Y0062121D01*
X0031525Y0071417D02*
X0032926Y0072819D01*
X0034328Y0071417D01*
X0034328Y0075621D01*
X0031525Y0075621D02*
X0031525Y0071417D01*
X0029724Y0073519D02*
X0029023Y0072819D01*
X0026921Y0072819D01*
X0026921Y0071417D02*
X0026921Y0075621D01*
X0029023Y0075621D01*
X0029724Y0074920D01*
X0029724Y0073519D01*
X0029724Y0086417D02*
X0028323Y0087819D01*
X0029023Y0087819D02*
X0026921Y0087819D01*
X0026921Y0086417D02*
X0026921Y0090621D01*
X0029023Y0090621D01*
X0029724Y0089920D01*
X0029724Y0088519D01*
X0029023Y0087819D01*
X0031525Y0086417D02*
X0034328Y0090621D01*
X0031525Y0090621D02*
X0034328Y0086417D01*
X0034328Y0096417D02*
X0031525Y0100621D01*
X0029724Y0100621D02*
X0026921Y0100621D01*
X0028323Y0100621D02*
X0028323Y0096417D01*
X0031525Y0096417D02*
X0034328Y0100621D01*
X0034328Y0111417D02*
X0031525Y0111417D01*
X0034328Y0114220D01*
X0034328Y0114920D01*
X0033627Y0115621D01*
X0032226Y0115621D01*
X0031525Y0114920D01*
X0026921Y0115621D02*
X0026921Y0111417D01*
X0029724Y0111417D01*
X0029724Y0121417D02*
X0026921Y0121417D01*
X0026921Y0125621D01*
X0031525Y0124220D02*
X0032926Y0125621D01*
X0032926Y0121417D01*
X0031525Y0121417D02*
X0034328Y0121417D01*
X0061973Y0121000D02*
X0061973Y0125000D01*
X0061973Y0115000D02*
X0061973Y0111000D01*
X0061973Y0100000D02*
X0061973Y0096000D01*
X0061973Y0090000D02*
X0061973Y0086000D01*
X0061973Y0075000D02*
X0061973Y0071000D01*
X0071973Y0030000D02*
X0071973Y0026000D01*
X0090491Y0178118D02*
X0090491Y0180920D01*
X0091191Y0181621D01*
X0092592Y0181621D01*
X0093293Y0180920D01*
D13*
X0077489Y0176269D02*
X0075821Y0176269D01*
X0076655Y0176269D02*
X0076655Y0173767D01*
X0074727Y0173767D02*
X0073058Y0173767D01*
X0073058Y0176269D01*
X0074727Y0176269D01*
X0073892Y0175018D02*
X0073058Y0175018D01*
X0071964Y0174601D02*
X0071964Y0174184D01*
X0071547Y0173767D01*
X0070713Y0173767D01*
X0070296Y0174184D01*
X0070713Y0175018D02*
X0071547Y0175018D01*
X0071964Y0174601D01*
X0071964Y0175852D02*
X0071547Y0176269D01*
X0070713Y0176269D01*
X0070296Y0175852D01*
X0070296Y0175435D01*
X0070713Y0175018D01*
X0069202Y0173767D02*
X0067534Y0173767D01*
X0067534Y0176269D01*
X0069202Y0176269D01*
X0068368Y0175018D02*
X0067534Y0175018D01*
X0066439Y0175018D02*
X0066022Y0174601D01*
X0064771Y0174601D01*
X0064771Y0173767D02*
X0064771Y0176269D01*
X0066022Y0176269D01*
X0066439Y0175852D01*
X0066439Y0175018D01*
X0065605Y0174601D02*
X0066439Y0173767D01*
X0066271Y0177767D02*
X0066271Y0179435D01*
X0067105Y0180269D01*
X0067939Y0179435D01*
X0067939Y0177767D01*
X0069034Y0178184D02*
X0069034Y0180269D01*
X0067939Y0179018D02*
X0066271Y0179018D01*
X0069034Y0178184D02*
X0069451Y0177767D01*
X0070285Y0177767D01*
X0070702Y0178184D01*
X0070702Y0180269D01*
X0071796Y0180269D02*
X0073464Y0180269D01*
X0072630Y0180269D02*
X0072630Y0177767D01*
X0074558Y0178184D02*
X0074558Y0179852D01*
X0074975Y0180269D01*
X0075809Y0180269D01*
X0076227Y0179852D01*
X0076227Y0178184D01*
X0075809Y0177767D01*
X0074975Y0177767D01*
X0074558Y0178184D01*
X0074582Y0191250D02*
X0074582Y0193752D01*
X0073748Y0192918D01*
X0072654Y0193752D02*
X0071820Y0193752D01*
X0072237Y0193752D02*
X0072237Y0191667D01*
X0071820Y0191250D01*
X0071403Y0191250D01*
X0070986Y0191667D01*
X0069891Y0191667D02*
X0069474Y0191250D01*
X0068640Y0191250D01*
X0068223Y0191667D01*
X0068640Y0192501D02*
X0069474Y0192501D01*
X0069891Y0192084D01*
X0069891Y0191667D01*
X0068640Y0192501D02*
X0068223Y0192918D01*
X0068223Y0193335D01*
X0068640Y0193752D01*
X0069474Y0193752D01*
X0069891Y0193335D01*
X0073748Y0191250D02*
X0075416Y0191250D01*
X0068154Y0199750D02*
X0066486Y0199750D01*
X0067320Y0199750D02*
X0067320Y0202252D01*
X0066486Y0201418D01*
X0065391Y0201835D02*
X0064974Y0202252D01*
X0064140Y0202252D01*
X0063723Y0201835D01*
X0063723Y0201418D01*
X0064140Y0201001D01*
X0064974Y0201001D01*
X0065391Y0200584D01*
X0065391Y0200167D01*
X0064974Y0199750D01*
X0064140Y0199750D01*
X0063723Y0200167D01*
X0088236Y0197467D02*
X0088653Y0197050D01*
X0089070Y0197050D01*
X0089487Y0197467D01*
X0089487Y0199552D01*
X0089070Y0199552D02*
X0089904Y0199552D01*
X0090999Y0199552D02*
X0092250Y0199552D01*
X0092667Y0199135D01*
X0092667Y0198301D01*
X0092250Y0197884D01*
X0090999Y0197884D01*
X0090999Y0197050D02*
X0090999Y0199552D01*
X0093761Y0198301D02*
X0095429Y0198301D01*
X0095012Y0197050D02*
X0095012Y0199552D01*
X0093761Y0198301D01*
X0117057Y0178252D02*
X0117891Y0178252D01*
X0117474Y0178252D02*
X0117474Y0176167D01*
X0117057Y0175750D01*
X0116640Y0175750D01*
X0116223Y0176167D01*
X0118986Y0175750D02*
X0120654Y0177418D01*
X0120654Y0177835D01*
X0120237Y0178252D01*
X0119403Y0178252D01*
X0118986Y0177835D01*
X0118986Y0175750D02*
X0120654Y0175750D01*
X0127723Y0170252D02*
X0128974Y0170252D01*
X0129391Y0169835D01*
X0129391Y0169001D01*
X0128974Y0168584D01*
X0127723Y0168584D01*
X0127723Y0167750D02*
X0127723Y0170252D01*
X0128557Y0168584D02*
X0129391Y0167750D01*
X0130486Y0167750D02*
X0132154Y0169418D01*
X0132154Y0169835D01*
X0131737Y0170252D01*
X0130903Y0170252D01*
X0130486Y0169835D01*
X0130486Y0167750D02*
X0132154Y0167750D01*
X0136723Y0168167D02*
X0137140Y0167750D01*
X0137974Y0167750D01*
X0138391Y0168167D01*
X0139486Y0168167D02*
X0139486Y0167750D01*
X0139486Y0168167D02*
X0141154Y0169835D01*
X0141154Y0170252D01*
X0139486Y0170252D01*
X0138391Y0169835D02*
X0137974Y0170252D01*
X0137140Y0170252D01*
X0136723Y0169835D01*
X0136723Y0168167D01*
X0146723Y0167750D02*
X0146723Y0170252D01*
X0147974Y0170252D01*
X0148391Y0169835D01*
X0148391Y0169001D01*
X0147974Y0168584D01*
X0146723Y0168584D01*
X0147557Y0168584D02*
X0148391Y0167750D01*
X0149486Y0168167D02*
X0149903Y0167750D01*
X0150737Y0167750D01*
X0151154Y0168167D01*
X0151154Y0169001D01*
X0150737Y0169418D01*
X0150320Y0169418D01*
X0149486Y0169001D01*
X0149486Y0170252D01*
X0151154Y0170252D01*
X0152640Y0150752D02*
X0152223Y0150335D01*
X0152223Y0148667D01*
X0152640Y0148250D01*
X0153474Y0148250D01*
X0153891Y0148667D01*
X0154986Y0148250D02*
X0156654Y0148250D01*
X0155820Y0148250D02*
X0155820Y0150752D01*
X0154986Y0149918D01*
X0153891Y0150335D02*
X0153474Y0150752D01*
X0152640Y0150752D01*
X0164640Y0137252D02*
X0164223Y0136835D01*
X0164223Y0135167D01*
X0164640Y0134750D01*
X0165474Y0134750D01*
X0165891Y0135167D01*
X0166986Y0135167D02*
X0167403Y0134750D01*
X0168237Y0134750D01*
X0168654Y0135167D01*
X0168654Y0135584D01*
X0168237Y0136001D01*
X0167820Y0136001D01*
X0168237Y0136001D02*
X0168654Y0136418D01*
X0168654Y0136835D01*
X0168237Y0137252D01*
X0167403Y0137252D01*
X0166986Y0136835D01*
X0165891Y0136835D02*
X0165474Y0137252D01*
X0164640Y0137252D01*
X0158273Y0133229D02*
X0158273Y0115771D01*
X0158272Y0115771D02*
X0158260Y0115700D01*
X0158243Y0115631D01*
X0158223Y0115562D01*
X0158199Y0115494D01*
X0158172Y0115428D01*
X0158141Y0115363D01*
X0158106Y0115300D01*
X0158069Y0115239D01*
X0158027Y0115180D01*
X0157983Y0115124D01*
X0157936Y0115070D01*
X0157886Y0115018D01*
X0157833Y0114970D01*
X0157778Y0114924D01*
X0157720Y0114881D01*
X0157660Y0114842D01*
X0157598Y0114806D01*
X0157534Y0114773D01*
X0157469Y0114744D01*
X0157402Y0114718D01*
X0157334Y0114696D01*
X0157264Y0114678D01*
X0157194Y0114663D01*
X0157123Y0114653D01*
X0157051Y0114646D01*
X0156980Y0114643D01*
X0156908Y0114644D01*
X0156836Y0114649D01*
X0156765Y0114658D01*
X0156765Y0114657D02*
X0146554Y0114657D01*
X0146554Y0114658D02*
X0146496Y0114660D01*
X0146439Y0114666D01*
X0146382Y0114675D01*
X0146326Y0114688D01*
X0146271Y0114705D01*
X0146217Y0114725D01*
X0146165Y0114749D01*
X0146114Y0114776D01*
X0146065Y0114806D01*
X0146018Y0114840D01*
X0145974Y0114876D01*
X0145932Y0114916D01*
X0145892Y0114958D01*
X0145856Y0115002D01*
X0145822Y0115049D01*
X0145792Y0115098D01*
X0145765Y0115149D01*
X0145741Y0115201D01*
X0145721Y0115255D01*
X0145704Y0115310D01*
X0145691Y0115366D01*
X0145682Y0115423D01*
X0145676Y0115480D01*
X0145674Y0115538D01*
X0145674Y0133098D01*
X0145676Y0133168D01*
X0145682Y0133237D01*
X0145692Y0133307D01*
X0145705Y0133375D01*
X0145723Y0133443D01*
X0145744Y0133509D01*
X0145769Y0133574D01*
X0145797Y0133638D01*
X0145829Y0133700D01*
X0145865Y0133760D01*
X0145904Y0133818D01*
X0145946Y0133874D01*
X0145991Y0133928D01*
X0146039Y0133978D01*
X0146089Y0134026D01*
X0146143Y0134071D01*
X0146199Y0134113D01*
X0146257Y0134152D01*
X0146317Y0134188D01*
X0146379Y0134220D01*
X0146443Y0134248D01*
X0146508Y0134273D01*
X0146574Y0134294D01*
X0146642Y0134312D01*
X0146710Y0134325D01*
X0146780Y0134335D01*
X0146849Y0134341D01*
X0146919Y0134343D01*
X0156765Y0134343D01*
X0156765Y0134342D02*
X0156836Y0134351D01*
X0156908Y0134356D01*
X0156980Y0134357D01*
X0157051Y0134354D01*
X0157123Y0134347D01*
X0157194Y0134337D01*
X0157264Y0134322D01*
X0157334Y0134304D01*
X0157402Y0134282D01*
X0157469Y0134256D01*
X0157534Y0134227D01*
X0157598Y0134194D01*
X0157660Y0134158D01*
X0157720Y0134119D01*
X0157778Y0134076D01*
X0157833Y0134030D01*
X0157886Y0133982D01*
X0157936Y0133930D01*
X0157983Y0133876D01*
X0158027Y0133820D01*
X0158069Y0133761D01*
X0158106Y0133700D01*
X0158141Y0133637D01*
X0158172Y0133572D01*
X0158199Y0133506D01*
X0158223Y0133438D01*
X0158243Y0133369D01*
X0158260Y0133300D01*
X0158272Y0133229D01*
X0155123Y0132374D02*
X0149611Y0132374D01*
X0149611Y0132373D02*
X0149511Y0132379D01*
X0149410Y0132381D01*
X0149309Y0132379D01*
X0149208Y0132373D01*
X0149108Y0132363D01*
X0149008Y0132349D01*
X0148909Y0132331D01*
X0148811Y0132309D01*
X0148713Y0132283D01*
X0148617Y0132254D01*
X0148522Y0132221D01*
X0148428Y0132184D01*
X0148336Y0132143D01*
X0148245Y0132099D01*
X0148157Y0132051D01*
X0148070Y0132000D01*
X0147985Y0131946D01*
X0147902Y0131888D01*
X0147822Y0131827D01*
X0147744Y0131763D01*
X0147669Y0131696D01*
X0147597Y0131626D01*
X0147527Y0131553D01*
X0147460Y0131478D01*
X0147396Y0131400D01*
X0147336Y0131319D01*
X0147278Y0131237D01*
X0147224Y0131152D01*
X0147173Y0131065D01*
X0147126Y0130976D01*
X0147082Y0130885D01*
X0147042Y0130793D01*
X0147005Y0130699D01*
X0146972Y0130603D01*
X0146943Y0130507D01*
X0146918Y0130409D01*
X0146897Y0130311D01*
X0146879Y0130212D01*
X0146865Y0130112D01*
X0146856Y0130012D01*
X0146855Y0130012D02*
X0146855Y0118988D01*
X0146857Y0118893D01*
X0146863Y0118798D01*
X0146872Y0118703D01*
X0146886Y0118609D01*
X0146903Y0118516D01*
X0146924Y0118423D01*
X0146948Y0118331D01*
X0146977Y0118240D01*
X0147008Y0118150D01*
X0147044Y0118062D01*
X0147083Y0117975D01*
X0147126Y0117890D01*
X0147171Y0117807D01*
X0147221Y0117726D01*
X0147273Y0117646D01*
X0147329Y0117569D01*
X0147387Y0117494D01*
X0147449Y0117422D01*
X0147514Y0117352D01*
X0147581Y0117285D01*
X0147651Y0117220D01*
X0147723Y0117158D01*
X0147798Y0117100D01*
X0147875Y0117044D01*
X0147955Y0116992D01*
X0148036Y0116942D01*
X0148119Y0116897D01*
X0148204Y0116854D01*
X0148291Y0116815D01*
X0148379Y0116779D01*
X0148469Y0116748D01*
X0148560Y0116719D01*
X0148652Y0116695D01*
X0148745Y0116674D01*
X0148838Y0116657D01*
X0148932Y0116643D01*
X0149027Y0116634D01*
X0149122Y0116628D01*
X0149217Y0116626D01*
X0154729Y0116626D01*
X0154827Y0116635D01*
X0154924Y0116648D01*
X0155021Y0116665D01*
X0155117Y0116686D01*
X0155213Y0116710D01*
X0155307Y0116738D01*
X0155400Y0116769D01*
X0155492Y0116804D01*
X0155582Y0116843D01*
X0155671Y0116885D01*
X0155759Y0116930D01*
X0155844Y0116979D01*
X0155928Y0117031D01*
X0156009Y0117086D01*
X0156088Y0117144D01*
X0156166Y0117205D01*
X0156240Y0117269D01*
X0156312Y0117336D01*
X0156382Y0117405D01*
X0156449Y0117477D01*
X0156513Y0117552D01*
X0156574Y0117629D01*
X0156632Y0117708D01*
X0156687Y0117790D01*
X0156739Y0117874D01*
X0156787Y0117959D01*
X0156833Y0118046D01*
X0156875Y0118135D01*
X0156913Y0118226D01*
X0156948Y0118318D01*
X0156979Y0118411D01*
X0157007Y0118505D01*
X0157032Y0118600D01*
X0157052Y0118697D01*
X0157069Y0118794D01*
X0157082Y0118891D01*
X0157091Y0118989D01*
X0157097Y0119087D01*
X0157099Y0119185D01*
X0157097Y0119284D01*
X0157091Y0119382D01*
X0157091Y0130012D01*
X0157097Y0130104D01*
X0157100Y0130196D01*
X0157099Y0130289D01*
X0157093Y0130381D01*
X0157084Y0130473D01*
X0157071Y0130564D01*
X0157054Y0130655D01*
X0157033Y0130745D01*
X0157008Y0130834D01*
X0156980Y0130921D01*
X0156948Y0131008D01*
X0156912Y0131093D01*
X0156873Y0131177D01*
X0156830Y0131258D01*
X0156784Y0131338D01*
X0156734Y0131416D01*
X0156681Y0131492D01*
X0156625Y0131565D01*
X0156566Y0131636D01*
X0156504Y0131704D01*
X0156439Y0131770D01*
X0156372Y0131833D01*
X0156301Y0131893D01*
X0156229Y0131949D01*
X0156154Y0132003D01*
X0156076Y0132054D01*
X0155997Y0132101D01*
X0155916Y0132145D01*
X0155833Y0132185D01*
X0155748Y0132222D01*
X0155662Y0132255D01*
X0155575Y0132284D01*
X0155486Y0132310D01*
X0155396Y0132332D01*
X0155306Y0132350D01*
X0155215Y0132364D01*
X0155123Y0132374D01*
X0164616Y0114252D02*
X0164199Y0113835D01*
X0164199Y0112167D01*
X0164616Y0111750D01*
X0165450Y0111750D01*
X0165867Y0112167D01*
X0166961Y0111750D02*
X0168629Y0113418D01*
X0168629Y0113835D01*
X0168212Y0114252D01*
X0167378Y0114252D01*
X0166961Y0113835D01*
X0165867Y0113835D02*
X0165450Y0114252D01*
X0164616Y0114252D01*
X0166961Y0111750D02*
X0168629Y0111750D01*
X0153865Y0108770D02*
X0152197Y0108770D01*
X0153031Y0108770D02*
X0153031Y0111272D01*
X0152197Y0110438D01*
X0151103Y0111272D02*
X0149435Y0108770D01*
X0151103Y0108770D02*
X0149435Y0111272D01*
X0143166Y0106002D02*
X0142332Y0105585D01*
X0141498Y0104751D01*
X0142749Y0104751D01*
X0143166Y0104334D01*
X0143166Y0103917D01*
X0142749Y0103500D01*
X0141915Y0103500D01*
X0141498Y0103917D01*
X0141498Y0104751D01*
X0140404Y0103500D02*
X0138736Y0103500D01*
X0139570Y0103500D02*
X0139570Y0106002D01*
X0138736Y0105168D01*
X0137641Y0105585D02*
X0137224Y0106002D01*
X0136390Y0106002D01*
X0135973Y0105585D01*
X0135973Y0103917D01*
X0136390Y0103500D01*
X0137224Y0103500D01*
X0137641Y0103917D01*
X0131416Y0104501D02*
X0129748Y0104501D01*
X0130999Y0105752D01*
X0130999Y0103250D01*
X0128654Y0103250D02*
X0126986Y0103250D01*
X0127820Y0103250D02*
X0127820Y0105752D01*
X0126986Y0104918D01*
X0125891Y0105335D02*
X0125474Y0105752D01*
X0124640Y0105752D01*
X0124223Y0105335D01*
X0124223Y0103667D01*
X0124640Y0103250D01*
X0125474Y0103250D01*
X0125891Y0103667D01*
X0118166Y0103917D02*
X0117749Y0103500D01*
X0116915Y0103500D01*
X0116498Y0103917D01*
X0116498Y0104751D02*
X0117332Y0105168D01*
X0117749Y0105168D01*
X0118166Y0104751D01*
X0118166Y0103917D01*
X0116498Y0104751D02*
X0116498Y0106002D01*
X0118166Y0106002D01*
X0114570Y0106002D02*
X0114570Y0103500D01*
X0113736Y0103500D02*
X0115404Y0103500D01*
X0113736Y0105168D02*
X0114570Y0106002D01*
X0112641Y0105585D02*
X0112224Y0106002D01*
X0111390Y0106002D01*
X0110973Y0105585D01*
X0110973Y0103917D01*
X0111390Y0103500D01*
X0112224Y0103500D01*
X0112641Y0103917D01*
X0104154Y0104501D02*
X0102486Y0104501D01*
X0103737Y0105752D01*
X0103737Y0103250D01*
X0101391Y0103667D02*
X0100974Y0103250D01*
X0100140Y0103250D01*
X0099723Y0103667D01*
X0099723Y0105335D01*
X0100140Y0105752D01*
X0100974Y0105752D01*
X0101391Y0105335D01*
X0096654Y0105084D02*
X0096237Y0105501D01*
X0094986Y0105501D01*
X0094986Y0104667D01*
X0095403Y0104250D01*
X0096237Y0104250D01*
X0096654Y0104667D01*
X0096654Y0105084D01*
X0095820Y0106335D02*
X0094986Y0105501D01*
X0095820Y0106335D02*
X0096654Y0106752D01*
X0093891Y0106335D02*
X0093474Y0106752D01*
X0092640Y0106752D01*
X0092223Y0106335D01*
X0092223Y0104667D01*
X0092640Y0104250D01*
X0093474Y0104250D01*
X0093891Y0104667D01*
X0093891Y0114500D02*
X0092223Y0114500D01*
X0092223Y0117002D01*
X0094986Y0116168D02*
X0095820Y0117002D01*
X0095820Y0114500D01*
X0094986Y0114500D02*
X0096654Y0114500D01*
X0089198Y0115500D02*
X0079355Y0115500D01*
X0091723Y0124167D02*
X0092140Y0123750D01*
X0092974Y0123750D01*
X0093391Y0124167D01*
X0094486Y0124167D02*
X0094903Y0123750D01*
X0095737Y0123750D01*
X0096154Y0124167D01*
X0096154Y0125001D01*
X0095737Y0125418D01*
X0095320Y0125418D01*
X0094486Y0125001D01*
X0094486Y0126252D01*
X0096154Y0126252D01*
X0093391Y0125835D02*
X0092974Y0126252D01*
X0092140Y0126252D01*
X0091723Y0125835D01*
X0091723Y0124167D01*
X0078237Y0138750D02*
X0078237Y0141252D01*
X0076986Y0140001D01*
X0078654Y0140001D01*
X0075891Y0140001D02*
X0075474Y0139584D01*
X0074223Y0139584D01*
X0074223Y0138750D02*
X0074223Y0141252D01*
X0075474Y0141252D01*
X0075891Y0140835D01*
X0075891Y0140001D01*
X0075057Y0139584D02*
X0075891Y0138750D01*
X0064654Y0129252D02*
X0063820Y0128835D01*
X0062986Y0128001D01*
X0064237Y0128001D01*
X0064654Y0127584D01*
X0064654Y0127167D01*
X0064237Y0126750D01*
X0063403Y0126750D01*
X0062986Y0127167D01*
X0062986Y0128001D01*
X0061891Y0128001D02*
X0061891Y0128835D01*
X0061474Y0129252D01*
X0060223Y0129252D01*
X0060223Y0126750D01*
X0060223Y0127584D02*
X0061474Y0127584D01*
X0061891Y0128001D01*
X0061057Y0127584D02*
X0061891Y0126750D01*
X0050439Y0127018D02*
X0048771Y0127018D01*
X0049605Y0127852D02*
X0049605Y0126184D01*
X0045154Y0126250D02*
X0043486Y0126250D01*
X0045154Y0127918D01*
X0045154Y0128335D01*
X0044737Y0128752D01*
X0043903Y0128752D01*
X0043486Y0128335D01*
X0042391Y0128335D02*
X0041974Y0128752D01*
X0040723Y0128752D01*
X0040723Y0126250D01*
X0041974Y0126250D01*
X0042391Y0126667D01*
X0042391Y0128335D01*
X0041974Y0118752D02*
X0040723Y0118752D01*
X0040723Y0116250D01*
X0041974Y0116250D01*
X0042391Y0116667D01*
X0042391Y0118335D01*
X0041974Y0118752D01*
X0043486Y0117501D02*
X0045154Y0117501D01*
X0044737Y0116250D02*
X0044737Y0118752D01*
X0043486Y0117501D01*
X0048771Y0117018D02*
X0050439Y0117018D01*
X0049605Y0117852D02*
X0049605Y0116184D01*
X0060223Y0116750D02*
X0060223Y0119252D01*
X0061474Y0119252D01*
X0061891Y0118835D01*
X0061891Y0118001D01*
X0061474Y0117584D01*
X0060223Y0117584D01*
X0061057Y0117584D02*
X0061891Y0116750D01*
X0062986Y0117167D02*
X0062986Y0117584D01*
X0063403Y0118001D01*
X0064237Y0118001D01*
X0064654Y0117584D01*
X0064654Y0117167D01*
X0064237Y0116750D01*
X0063403Y0116750D01*
X0062986Y0117167D01*
X0063403Y0118001D02*
X0062986Y0118418D01*
X0062986Y0118835D01*
X0063403Y0119252D01*
X0064237Y0119252D01*
X0064654Y0118835D01*
X0064654Y0118418D01*
X0064237Y0118001D01*
X0064237Y0104252D02*
X0063403Y0104252D01*
X0062986Y0103835D01*
X0062986Y0103418D01*
X0063403Y0103001D01*
X0064654Y0103001D01*
X0064654Y0102167D02*
X0064654Y0103835D01*
X0064237Y0104252D01*
X0064654Y0102167D02*
X0064237Y0101750D01*
X0063403Y0101750D01*
X0062986Y0102167D01*
X0061891Y0101750D02*
X0061057Y0102584D01*
X0061474Y0102584D02*
X0060223Y0102584D01*
X0060223Y0101750D02*
X0060223Y0104252D01*
X0061474Y0104252D01*
X0061891Y0103835D01*
X0061891Y0103001D01*
X0061474Y0102584D01*
X0050439Y0102018D02*
X0048771Y0102018D01*
X0049605Y0102852D02*
X0049605Y0101184D01*
X0045154Y0101667D02*
X0044737Y0101250D01*
X0043903Y0101250D01*
X0043486Y0101667D01*
X0043486Y0102501D02*
X0044320Y0102918D01*
X0044737Y0102918D01*
X0045154Y0102501D01*
X0045154Y0101667D01*
X0043486Y0102501D02*
X0043486Y0103752D01*
X0045154Y0103752D01*
X0042391Y0103335D02*
X0041974Y0103752D01*
X0040723Y0103752D01*
X0040723Y0101250D01*
X0041974Y0101250D01*
X0042391Y0101667D01*
X0042391Y0103335D01*
X0041974Y0093752D02*
X0040723Y0093752D01*
X0040723Y0091250D01*
X0041974Y0091250D01*
X0042391Y0091667D01*
X0042391Y0093335D01*
X0041974Y0093752D01*
X0043486Y0093335D02*
X0043903Y0093752D01*
X0044737Y0093752D01*
X0045154Y0093335D01*
X0045154Y0092918D01*
X0044737Y0092501D01*
X0045154Y0092084D01*
X0045154Y0091667D01*
X0044737Y0091250D01*
X0043903Y0091250D01*
X0043486Y0091667D01*
X0044320Y0092501D02*
X0044737Y0092501D01*
X0048771Y0092018D02*
X0050439Y0092018D01*
X0049605Y0092852D02*
X0049605Y0091184D01*
X0060223Y0091750D02*
X0060223Y0094252D01*
X0061474Y0094252D01*
X0061891Y0093835D01*
X0061891Y0093001D01*
X0061474Y0092584D01*
X0060223Y0092584D01*
X0061057Y0092584D02*
X0061891Y0091750D01*
X0062986Y0091750D02*
X0062986Y0092167D01*
X0064654Y0093835D01*
X0064654Y0094252D01*
X0062986Y0094252D01*
X0063820Y0079252D02*
X0063820Y0076750D01*
X0062986Y0076750D02*
X0064654Y0076750D01*
X0062986Y0078418D02*
X0063820Y0079252D01*
X0061891Y0078835D02*
X0061891Y0078001D01*
X0061474Y0077584D01*
X0060223Y0077584D01*
X0060223Y0076750D02*
X0060223Y0079252D01*
X0061474Y0079252D01*
X0061891Y0078835D01*
X0061057Y0077584D02*
X0061891Y0076750D01*
X0061474Y0069252D02*
X0060640Y0069252D01*
X0060223Y0068835D01*
X0060223Y0067167D01*
X0060640Y0066750D01*
X0061474Y0066750D01*
X0061891Y0067167D01*
X0062986Y0067167D02*
X0062986Y0067584D01*
X0063403Y0068001D01*
X0064237Y0068001D01*
X0064654Y0067584D01*
X0064654Y0067167D01*
X0064237Y0066750D01*
X0063403Y0066750D01*
X0062986Y0067167D01*
X0063403Y0068001D02*
X0062986Y0068418D01*
X0062986Y0068835D01*
X0063403Y0069252D01*
X0064237Y0069252D01*
X0064654Y0068835D01*
X0064654Y0068418D01*
X0064237Y0068001D01*
X0061891Y0068835D02*
X0061474Y0069252D01*
X0050439Y0077018D02*
X0048771Y0077018D01*
X0049605Y0077852D02*
X0049605Y0076184D01*
X0045154Y0076250D02*
X0043486Y0076250D01*
X0044320Y0076250D02*
X0044320Y0078752D01*
X0043486Y0077918D01*
X0042391Y0078335D02*
X0041974Y0078752D01*
X0040723Y0078752D01*
X0040723Y0076250D01*
X0041974Y0076250D01*
X0042391Y0076667D01*
X0042391Y0078335D01*
X0073116Y0046252D02*
X0073950Y0046252D01*
X0074367Y0045835D01*
X0074367Y0044167D01*
X0073950Y0043750D01*
X0073116Y0043750D01*
X0072699Y0044167D01*
X0072699Y0045835D01*
X0073116Y0046252D01*
X0073533Y0044584D02*
X0074367Y0043750D01*
X0075461Y0043750D02*
X0077129Y0043750D01*
X0076295Y0043750D02*
X0076295Y0046252D01*
X0075461Y0045418D01*
X0071712Y0034252D02*
X0070878Y0034252D01*
X0070461Y0033835D01*
X0069367Y0034252D02*
X0067699Y0034252D01*
X0067699Y0031750D01*
X0067699Y0033001D02*
X0068533Y0033001D01*
X0070461Y0031750D02*
X0072129Y0033418D01*
X0072129Y0033835D01*
X0071712Y0034252D01*
X0072129Y0031750D02*
X0070461Y0031750D01*
X0071320Y0023752D02*
X0070486Y0022918D01*
X0069391Y0022501D02*
X0068974Y0022084D01*
X0067723Y0022084D01*
X0067723Y0021250D02*
X0067723Y0023752D01*
X0068974Y0023752D01*
X0069391Y0023335D01*
X0069391Y0022501D01*
X0068557Y0022084D02*
X0069391Y0021250D01*
X0070486Y0021250D02*
X0072154Y0021250D01*
X0071320Y0021250D02*
X0071320Y0023752D01*
X0073248Y0023335D02*
X0073665Y0023752D01*
X0074499Y0023752D01*
X0074916Y0023335D01*
X0073248Y0021667D01*
X0073665Y0021250D01*
X0074499Y0021250D01*
X0074916Y0021667D01*
X0074916Y0023335D01*
X0073248Y0023335D02*
X0073248Y0021667D01*
X0085242Y0032179D02*
X0086493Y0032179D01*
X0086910Y0032596D01*
X0086910Y0034264D01*
X0086493Y0034681D01*
X0085242Y0034681D01*
X0085242Y0032179D01*
X0088004Y0032596D02*
X0088004Y0033430D01*
X0089255Y0033430D01*
X0089672Y0033013D01*
X0089672Y0032596D01*
X0089255Y0032179D01*
X0088421Y0032179D01*
X0088004Y0032596D01*
X0088004Y0033430D02*
X0088838Y0034264D01*
X0089672Y0034681D01*
X0090116Y0043250D02*
X0090950Y0043250D01*
X0091367Y0043667D01*
X0092461Y0043667D02*
X0092878Y0043250D01*
X0093712Y0043250D01*
X0094129Y0043667D01*
X0094129Y0045335D01*
X0093712Y0045752D01*
X0092878Y0045752D01*
X0092461Y0045335D01*
X0092461Y0044918D01*
X0092878Y0044501D01*
X0094129Y0044501D01*
X0091367Y0045335D02*
X0090950Y0045752D01*
X0090116Y0045752D01*
X0089699Y0045335D01*
X0089699Y0043667D01*
X0090116Y0043250D01*
X0115449Y0047417D02*
X0115866Y0047000D01*
X0116700Y0047000D01*
X0117117Y0047417D01*
X0117117Y0049502D01*
X0118211Y0049085D02*
X0118628Y0049502D01*
X0119462Y0049502D01*
X0119879Y0049085D01*
X0119879Y0048668D01*
X0118211Y0047000D01*
X0119879Y0047000D01*
X0115449Y0047417D02*
X0115449Y0049502D01*
X0095116Y0064367D02*
X0094699Y0063950D01*
X0093865Y0063950D01*
X0093448Y0064367D01*
X0093448Y0065201D02*
X0094282Y0065618D01*
X0094699Y0065618D01*
X0095116Y0065201D01*
X0095116Y0064367D01*
X0093448Y0065201D02*
X0093448Y0066452D01*
X0095116Y0066452D01*
X0092354Y0066035D02*
X0092354Y0065201D01*
X0091937Y0064784D01*
X0090686Y0064784D01*
X0090686Y0063950D02*
X0090686Y0066452D01*
X0091937Y0066452D01*
X0092354Y0066035D01*
X0089591Y0066452D02*
X0088757Y0066452D01*
X0089174Y0066452D02*
X0089174Y0064367D01*
X0088757Y0063950D01*
X0088340Y0063950D01*
X0087923Y0064367D01*
X0134640Y0110750D02*
X0135474Y0110750D01*
X0135891Y0111167D01*
X0135891Y0113252D01*
X0136986Y0112418D02*
X0137820Y0113252D01*
X0137820Y0110750D01*
X0136986Y0110750D02*
X0138654Y0110750D01*
X0134640Y0110750D02*
X0134223Y0111167D01*
X0134223Y0113252D01*
X0166723Y0096335D02*
X0166723Y0094667D01*
X0167140Y0094250D01*
X0167974Y0094250D01*
X0168391Y0094667D01*
X0169486Y0094250D02*
X0171154Y0094250D01*
X0170320Y0094250D02*
X0170320Y0096752D01*
X0169486Y0095918D01*
X0168391Y0096335D02*
X0167974Y0096752D01*
X0167140Y0096752D01*
X0166723Y0096335D01*
X0172248Y0096335D02*
X0172248Y0094667D01*
X0173916Y0096335D01*
X0173916Y0094667D01*
X0173499Y0094250D01*
X0172665Y0094250D01*
X0172248Y0094667D01*
X0172248Y0096335D02*
X0172665Y0096752D01*
X0173499Y0096752D01*
X0173916Y0096335D01*
X0204640Y0127750D02*
X0204223Y0128167D01*
X0204223Y0129835D01*
X0204640Y0130252D01*
X0205474Y0130252D01*
X0205891Y0129835D01*
X0206986Y0129418D02*
X0207820Y0130252D01*
X0207820Y0127750D01*
X0206986Y0127750D02*
X0208654Y0127750D01*
X0209748Y0128167D02*
X0210165Y0127750D01*
X0210999Y0127750D01*
X0211416Y0128167D01*
X0211416Y0129835D01*
X0210999Y0130252D01*
X0210165Y0130252D01*
X0209748Y0129835D01*
X0209748Y0129418D01*
X0210165Y0129001D01*
X0211416Y0129001D01*
X0205891Y0128167D02*
X0205474Y0127750D01*
X0204640Y0127750D01*
X0237436Y0120252D02*
X0237436Y0117750D01*
X0237436Y0118584D02*
X0238687Y0118584D01*
X0239104Y0119001D01*
X0239104Y0119835D01*
X0238687Y0120252D01*
X0237436Y0120252D01*
X0238270Y0118584D02*
X0239104Y0117750D01*
X0240199Y0117750D02*
X0241867Y0117750D01*
X0241033Y0117750D02*
X0241033Y0120252D01*
X0240199Y0119418D01*
X0242961Y0119835D02*
X0243378Y0120252D01*
X0244212Y0120252D01*
X0244629Y0119835D01*
X0244629Y0119418D01*
X0244212Y0119001D01*
X0244629Y0118584D01*
X0244629Y0118167D01*
X0244212Y0117750D01*
X0243378Y0117750D01*
X0242961Y0118167D01*
X0243795Y0119001D02*
X0244212Y0119001D01*
X0247436Y0118584D02*
X0248687Y0118584D01*
X0249104Y0119001D01*
X0249104Y0119835D01*
X0248687Y0120252D01*
X0247436Y0120252D01*
X0247436Y0117750D01*
X0248270Y0118584D02*
X0249104Y0117750D01*
X0250199Y0117750D02*
X0251867Y0117750D01*
X0251033Y0117750D02*
X0251033Y0120252D01*
X0250199Y0119418D01*
X0252961Y0119835D02*
X0253378Y0120252D01*
X0254212Y0120252D01*
X0254629Y0119835D01*
X0254629Y0119418D01*
X0252961Y0117750D01*
X0254629Y0117750D01*
X0257223Y0116335D02*
X0257223Y0114667D01*
X0257640Y0114250D01*
X0258474Y0114250D01*
X0258891Y0114667D01*
X0259986Y0114250D02*
X0261654Y0114250D01*
X0260820Y0114250D02*
X0260820Y0116752D01*
X0259986Y0115918D01*
X0258891Y0116335D02*
X0258474Y0116752D01*
X0257640Y0116752D01*
X0257223Y0116335D01*
X0262748Y0115918D02*
X0263582Y0116752D01*
X0263582Y0114250D01*
X0262748Y0114250D02*
X0264416Y0114250D01*
X0253773Y0106962D02*
X0253773Y0089402D01*
X0253771Y0089332D01*
X0253765Y0089263D01*
X0253755Y0089193D01*
X0253742Y0089125D01*
X0253724Y0089057D01*
X0253703Y0088991D01*
X0253678Y0088926D01*
X0253650Y0088862D01*
X0253618Y0088800D01*
X0253582Y0088740D01*
X0253543Y0088682D01*
X0253501Y0088626D01*
X0253456Y0088572D01*
X0253408Y0088522D01*
X0253358Y0088474D01*
X0253304Y0088429D01*
X0253248Y0088387D01*
X0253190Y0088348D01*
X0253130Y0088312D01*
X0253068Y0088280D01*
X0253004Y0088252D01*
X0252939Y0088227D01*
X0252873Y0088206D01*
X0252805Y0088188D01*
X0252737Y0088175D01*
X0252667Y0088165D01*
X0252598Y0088159D01*
X0252528Y0088157D01*
X0242681Y0088157D01*
X0242681Y0088158D02*
X0242610Y0088149D01*
X0242538Y0088144D01*
X0242466Y0088143D01*
X0242395Y0088146D01*
X0242323Y0088153D01*
X0242252Y0088163D01*
X0242182Y0088178D01*
X0242112Y0088196D01*
X0242044Y0088218D01*
X0241977Y0088244D01*
X0241912Y0088273D01*
X0241848Y0088306D01*
X0241786Y0088342D01*
X0241726Y0088381D01*
X0241668Y0088424D01*
X0241613Y0088470D01*
X0241560Y0088518D01*
X0241510Y0088570D01*
X0241463Y0088624D01*
X0241419Y0088680D01*
X0241377Y0088739D01*
X0241340Y0088800D01*
X0241305Y0088863D01*
X0241274Y0088928D01*
X0241247Y0088994D01*
X0241223Y0089062D01*
X0241203Y0089131D01*
X0241186Y0089200D01*
X0241174Y0089271D01*
X0241174Y0106729D01*
X0241186Y0106800D01*
X0241203Y0106869D01*
X0241223Y0106938D01*
X0241247Y0107006D01*
X0241274Y0107072D01*
X0241305Y0107137D01*
X0241340Y0107200D01*
X0241377Y0107261D01*
X0241419Y0107320D01*
X0241463Y0107376D01*
X0241510Y0107430D01*
X0241560Y0107482D01*
X0241613Y0107530D01*
X0241668Y0107576D01*
X0241726Y0107619D01*
X0241786Y0107658D01*
X0241848Y0107694D01*
X0241912Y0107727D01*
X0241977Y0107756D01*
X0242044Y0107782D01*
X0242112Y0107804D01*
X0242182Y0107822D01*
X0242252Y0107837D01*
X0242323Y0107847D01*
X0242395Y0107854D01*
X0242466Y0107857D01*
X0242538Y0107856D01*
X0242610Y0107851D01*
X0242681Y0107842D01*
X0242681Y0107843D02*
X0252892Y0107843D01*
X0252892Y0107842D02*
X0252950Y0107840D01*
X0253007Y0107834D01*
X0253064Y0107825D01*
X0253120Y0107812D01*
X0253175Y0107795D01*
X0253229Y0107775D01*
X0253281Y0107751D01*
X0253332Y0107724D01*
X0253381Y0107694D01*
X0253428Y0107660D01*
X0253472Y0107624D01*
X0253514Y0107584D01*
X0253554Y0107542D01*
X0253590Y0107498D01*
X0253624Y0107451D01*
X0253654Y0107402D01*
X0253681Y0107351D01*
X0253705Y0107299D01*
X0253725Y0107245D01*
X0253742Y0107190D01*
X0253755Y0107134D01*
X0253764Y0107077D01*
X0253770Y0107020D01*
X0253772Y0106962D01*
X0250229Y0105874D02*
X0244717Y0105874D01*
X0244619Y0105865D01*
X0244522Y0105852D01*
X0244425Y0105835D01*
X0244329Y0105814D01*
X0244233Y0105790D01*
X0244139Y0105762D01*
X0244046Y0105731D01*
X0243954Y0105696D01*
X0243864Y0105657D01*
X0243775Y0105615D01*
X0243687Y0105570D01*
X0243602Y0105521D01*
X0243518Y0105469D01*
X0243437Y0105414D01*
X0243358Y0105356D01*
X0243280Y0105295D01*
X0243206Y0105231D01*
X0243134Y0105164D01*
X0243064Y0105095D01*
X0242997Y0105023D01*
X0242933Y0104948D01*
X0242872Y0104871D01*
X0242814Y0104792D01*
X0242759Y0104710D01*
X0242707Y0104626D01*
X0242659Y0104541D01*
X0242613Y0104454D01*
X0242571Y0104365D01*
X0242533Y0104274D01*
X0242498Y0104182D01*
X0242467Y0104089D01*
X0242439Y0103995D01*
X0242414Y0103900D01*
X0242394Y0103803D01*
X0242377Y0103706D01*
X0242364Y0103609D01*
X0242355Y0103511D01*
X0242349Y0103413D01*
X0242347Y0103315D01*
X0242349Y0103216D01*
X0242355Y0103118D01*
X0242355Y0092488D01*
X0242356Y0092488D02*
X0242350Y0092396D01*
X0242347Y0092304D01*
X0242348Y0092211D01*
X0242354Y0092119D01*
X0242363Y0092027D01*
X0242376Y0091936D01*
X0242393Y0091845D01*
X0242414Y0091755D01*
X0242439Y0091666D01*
X0242467Y0091579D01*
X0242499Y0091492D01*
X0242535Y0091407D01*
X0242574Y0091323D01*
X0242617Y0091242D01*
X0242663Y0091162D01*
X0242713Y0091084D01*
X0242766Y0091008D01*
X0242822Y0090935D01*
X0242881Y0090864D01*
X0242943Y0090796D01*
X0243008Y0090730D01*
X0243075Y0090667D01*
X0243146Y0090607D01*
X0243218Y0090551D01*
X0243293Y0090497D01*
X0243371Y0090446D01*
X0243450Y0090399D01*
X0243531Y0090355D01*
X0243614Y0090315D01*
X0243699Y0090278D01*
X0243785Y0090245D01*
X0243872Y0090216D01*
X0243961Y0090190D01*
X0244051Y0090168D01*
X0244141Y0090150D01*
X0244232Y0090136D01*
X0244324Y0090126D01*
X0249836Y0090126D01*
X0249836Y0090127D02*
X0249936Y0090121D01*
X0250037Y0090119D01*
X0250138Y0090121D01*
X0250239Y0090127D01*
X0250339Y0090137D01*
X0250439Y0090151D01*
X0250538Y0090169D01*
X0250636Y0090191D01*
X0250734Y0090217D01*
X0250830Y0090246D01*
X0250925Y0090279D01*
X0251019Y0090316D01*
X0251111Y0090357D01*
X0251202Y0090401D01*
X0251290Y0090449D01*
X0251377Y0090500D01*
X0251462Y0090554D01*
X0251545Y0090612D01*
X0251625Y0090673D01*
X0251703Y0090737D01*
X0251778Y0090804D01*
X0251850Y0090874D01*
X0251920Y0090947D01*
X0251987Y0091022D01*
X0252051Y0091100D01*
X0252111Y0091181D01*
X0252169Y0091263D01*
X0252223Y0091348D01*
X0252274Y0091435D01*
X0252321Y0091524D01*
X0252365Y0091615D01*
X0252405Y0091707D01*
X0252442Y0091801D01*
X0252475Y0091897D01*
X0252504Y0091993D01*
X0252529Y0092091D01*
X0252550Y0092189D01*
X0252568Y0092288D01*
X0252582Y0092388D01*
X0252591Y0092488D01*
X0252591Y0103512D01*
X0252589Y0103607D01*
X0252583Y0103702D01*
X0252574Y0103797D01*
X0252560Y0103891D01*
X0252543Y0103984D01*
X0252522Y0104077D01*
X0252498Y0104169D01*
X0252469Y0104260D01*
X0252438Y0104350D01*
X0252402Y0104438D01*
X0252363Y0104525D01*
X0252320Y0104610D01*
X0252275Y0104693D01*
X0252225Y0104774D01*
X0252173Y0104854D01*
X0252117Y0104931D01*
X0252059Y0105006D01*
X0251997Y0105078D01*
X0251932Y0105148D01*
X0251865Y0105215D01*
X0251795Y0105280D01*
X0251723Y0105342D01*
X0251648Y0105400D01*
X0251571Y0105456D01*
X0251491Y0105508D01*
X0251410Y0105558D01*
X0251327Y0105603D01*
X0251242Y0105646D01*
X0251155Y0105685D01*
X0251067Y0105721D01*
X0250977Y0105752D01*
X0250886Y0105781D01*
X0250794Y0105805D01*
X0250701Y0105826D01*
X0250608Y0105843D01*
X0250514Y0105857D01*
X0250419Y0105866D01*
X0250324Y0105872D01*
X0250229Y0105874D01*
X0249918Y0111730D02*
X0248249Y0111730D01*
X0249918Y0113398D01*
X0249918Y0113815D01*
X0249501Y0114232D01*
X0248666Y0114232D01*
X0248249Y0113815D01*
X0247155Y0114232D02*
X0245487Y0111730D01*
X0247155Y0111730D02*
X0245487Y0114232D01*
X0267413Y0124733D02*
X0269081Y0124733D01*
X0268247Y0124733D02*
X0268247Y0127235D01*
X0267413Y0126401D01*
X0264292Y0140313D02*
X0264292Y0140730D01*
X0265960Y0142398D01*
X0265960Y0142815D01*
X0264292Y0142815D01*
X0263197Y0142398D02*
X0263197Y0140730D01*
X0262780Y0140313D01*
X0261529Y0140313D01*
X0261529Y0142815D01*
X0262780Y0142815D01*
X0263197Y0142398D01*
X0257629Y0140250D02*
X0255961Y0140250D01*
X0256795Y0140250D02*
X0256795Y0142752D01*
X0255961Y0141918D01*
X0254867Y0140250D02*
X0253199Y0140250D01*
X0254033Y0140250D02*
X0254033Y0142752D01*
X0253199Y0141918D01*
X0252104Y0141501D02*
X0251687Y0141084D01*
X0250436Y0141084D01*
X0250436Y0140250D02*
X0250436Y0142752D01*
X0251687Y0142752D01*
X0252104Y0142335D01*
X0252104Y0141501D01*
X0251270Y0141084D02*
X0252104Y0140250D01*
X0275533Y0099252D02*
X0276367Y0099252D01*
X0275950Y0099252D02*
X0275950Y0097167D01*
X0275533Y0096750D01*
X0275116Y0096750D01*
X0274699Y0097167D01*
X0277461Y0098001D02*
X0279129Y0098001D01*
X0278712Y0096750D02*
X0278712Y0099252D01*
X0277461Y0098001D01*
X0262212Y0081752D02*
X0261378Y0081752D01*
X0260961Y0081335D01*
X0262212Y0081752D02*
X0262629Y0081335D01*
X0262629Y0080918D01*
X0260961Y0079250D01*
X0262629Y0079250D01*
X0259867Y0079250D02*
X0258199Y0079250D01*
X0259033Y0079250D02*
X0259033Y0081752D01*
X0258199Y0080918D01*
X0257104Y0081335D02*
X0256687Y0081752D01*
X0255853Y0081752D01*
X0255436Y0081335D01*
X0255436Y0079667D01*
X0255853Y0079250D01*
X0256687Y0079250D01*
X0257104Y0079667D01*
X0248916Y0079667D02*
X0248499Y0079250D01*
X0247665Y0079250D01*
X0247248Y0079667D01*
X0248916Y0081335D01*
X0248916Y0079667D01*
X0247248Y0079667D02*
X0247248Y0081335D01*
X0247665Y0081752D01*
X0248499Y0081752D01*
X0248916Y0081335D01*
X0246154Y0081335D02*
X0245737Y0081752D01*
X0244903Y0081752D01*
X0244486Y0081335D01*
X0243391Y0081335D02*
X0242974Y0081752D01*
X0242140Y0081752D01*
X0241723Y0081335D01*
X0241723Y0079667D01*
X0242140Y0079250D01*
X0242974Y0079250D01*
X0243391Y0079667D01*
X0244486Y0079250D02*
X0246154Y0080918D01*
X0246154Y0081335D01*
X0246154Y0079250D02*
X0244486Y0079250D01*
X0216916Y0051835D02*
X0216916Y0051418D01*
X0216499Y0051001D01*
X0215665Y0051001D01*
X0215248Y0051418D01*
X0215248Y0051835D01*
X0215665Y0052252D01*
X0216499Y0052252D01*
X0216916Y0051835D01*
X0216499Y0051001D02*
X0216916Y0050584D01*
X0216916Y0050167D01*
X0216499Y0049750D01*
X0215665Y0049750D01*
X0215248Y0050167D01*
X0215248Y0050584D01*
X0215665Y0051001D01*
X0214154Y0049750D02*
X0212486Y0049750D01*
X0213320Y0049750D02*
X0213320Y0052252D01*
X0212486Y0051418D01*
X0211391Y0051835D02*
X0210974Y0052252D01*
X0210140Y0052252D01*
X0209723Y0051835D01*
X0209723Y0050167D01*
X0210140Y0049750D01*
X0210974Y0049750D01*
X0211391Y0050167D01*
X0186129Y0060667D02*
X0185712Y0060250D01*
X0184878Y0060250D01*
X0184461Y0060667D01*
X0183367Y0060667D02*
X0183367Y0062752D01*
X0184461Y0062335D02*
X0184878Y0062752D01*
X0185712Y0062752D01*
X0186129Y0062335D01*
X0186129Y0061918D01*
X0185712Y0061501D01*
X0186129Y0061084D01*
X0186129Y0060667D01*
X0185712Y0061501D02*
X0185295Y0061501D01*
X0183367Y0060667D02*
X0182950Y0060250D01*
X0182116Y0060250D01*
X0181699Y0060667D01*
X0181699Y0062752D01*
X0172129Y0059335D02*
X0172129Y0058918D01*
X0171712Y0058501D01*
X0172129Y0058084D01*
X0172129Y0057667D01*
X0171712Y0057250D01*
X0170878Y0057250D01*
X0170461Y0057667D01*
X0169367Y0057250D02*
X0167699Y0057250D01*
X0168533Y0057250D02*
X0168533Y0059752D01*
X0167699Y0058918D01*
X0166604Y0059335D02*
X0166187Y0059752D01*
X0165353Y0059752D01*
X0164936Y0059335D01*
X0164936Y0057667D01*
X0165353Y0057250D01*
X0166187Y0057250D01*
X0166604Y0057667D01*
X0170461Y0059335D02*
X0170878Y0059752D01*
X0171712Y0059752D01*
X0172129Y0059335D01*
X0171712Y0058501D02*
X0171295Y0058501D01*
X0149595Y0010552D02*
X0149595Y0008050D01*
X0148761Y0008050D02*
X0150429Y0008050D01*
X0148761Y0009718D02*
X0149595Y0010552D01*
X0147667Y0010135D02*
X0147667Y0009301D01*
X0147250Y0008884D01*
X0145999Y0008884D01*
X0145999Y0008050D02*
X0145999Y0010552D01*
X0147250Y0010552D01*
X0147667Y0010135D01*
X0144904Y0010552D02*
X0144070Y0010552D01*
X0144487Y0010552D02*
X0144487Y0008467D01*
X0144070Y0008050D01*
X0143653Y0008050D01*
X0143236Y0008467D01*
X0090129Y0008167D02*
X0089712Y0007750D01*
X0088878Y0007750D01*
X0088461Y0008167D01*
X0088461Y0009001D02*
X0089295Y0009418D01*
X0089712Y0009418D01*
X0090129Y0009001D01*
X0090129Y0008167D01*
X0088461Y0009001D02*
X0088461Y0010252D01*
X0090129Y0010252D01*
X0087367Y0010252D02*
X0086533Y0010252D01*
X0086950Y0010252D02*
X0086950Y0008167D01*
X0086533Y0007750D01*
X0086116Y0007750D01*
X0085699Y0008167D01*
X0054469Y0011915D02*
X0054052Y0011498D01*
X0053218Y0011498D01*
X0052801Y0011915D01*
X0053635Y0012749D02*
X0054052Y0012749D01*
X0054469Y0012332D01*
X0054469Y0011915D01*
X0054052Y0012749D02*
X0054469Y0013166D01*
X0054469Y0013583D01*
X0054052Y0014000D01*
X0053218Y0014000D01*
X0052801Y0013583D01*
X0051706Y0014000D02*
X0050872Y0014000D01*
X0051289Y0014000D02*
X0051289Y0011915D01*
X0050872Y0011498D01*
X0050455Y0011498D01*
X0050038Y0011915D01*
X0213236Y0008467D02*
X0213653Y0008050D01*
X0214070Y0008050D01*
X0214487Y0008467D01*
X0214487Y0010552D01*
X0214070Y0010552D02*
X0214904Y0010552D01*
X0215999Y0010552D02*
X0217250Y0010552D01*
X0217667Y0010135D01*
X0217667Y0009301D01*
X0217250Y0008884D01*
X0215999Y0008884D01*
X0215999Y0008050D02*
X0215999Y0010552D01*
X0218761Y0010135D02*
X0219178Y0010552D01*
X0220012Y0010552D01*
X0220429Y0010135D01*
X0220429Y0009718D01*
X0218761Y0008050D01*
X0220429Y0008050D01*
X0078654Y0149167D02*
X0078237Y0148750D01*
X0077403Y0148750D01*
X0076986Y0149167D01*
X0075891Y0148750D02*
X0075057Y0149584D01*
X0075474Y0149584D02*
X0074223Y0149584D01*
X0074223Y0148750D02*
X0074223Y0151252D01*
X0075474Y0151252D01*
X0075891Y0150835D01*
X0075891Y0150001D01*
X0075474Y0149584D01*
X0076986Y0150835D02*
X0077403Y0151252D01*
X0078237Y0151252D01*
X0078654Y0150835D01*
X0078654Y0150418D01*
X0078237Y0150001D01*
X0078654Y0149584D01*
X0078654Y0149167D01*
X0078237Y0150001D02*
X0077820Y0150001D01*
X0078154Y0158750D02*
X0076486Y0158750D01*
X0077320Y0158750D02*
X0077320Y0161252D01*
X0076486Y0160418D01*
X0075391Y0161252D02*
X0073723Y0161252D01*
X0073723Y0158750D01*
X0073723Y0160001D02*
X0074557Y0160001D01*
X0084413Y0159233D02*
X0086081Y0159233D01*
X0085247Y0159233D02*
X0085247Y0161735D01*
X0084413Y0160901D01*
X0043122Y0173813D02*
X0041454Y0173813D01*
X0042288Y0173813D02*
X0042288Y0176315D01*
X0041454Y0175481D01*
X0040360Y0176315D02*
X0039526Y0176315D01*
X0039943Y0176315D02*
X0039943Y0174230D01*
X0039526Y0173813D01*
X0039109Y0173813D01*
X0038692Y0174230D01*
X0192736Y0198967D02*
X0193153Y0198550D01*
X0193570Y0198550D01*
X0193987Y0198967D01*
X0193987Y0201052D01*
X0193570Y0201052D02*
X0194404Y0201052D01*
X0195499Y0201052D02*
X0195499Y0198550D01*
X0195499Y0199384D02*
X0196750Y0199384D01*
X0197167Y0199801D01*
X0197167Y0200635D01*
X0196750Y0201052D01*
X0195499Y0201052D01*
X0198261Y0200635D02*
X0198678Y0201052D01*
X0199512Y0201052D01*
X0199929Y0200635D01*
X0199929Y0200218D01*
X0199512Y0199801D01*
X0199929Y0199384D01*
X0199929Y0198967D01*
X0199512Y0198550D01*
X0198678Y0198550D01*
X0198261Y0198967D01*
X0199095Y0199801D02*
X0199512Y0199801D01*
D14*
X0261255Y0154653D02*
X0263723Y0154653D01*
X0262489Y0153419D02*
X0262489Y0155888D01*
X0078189Y0038932D02*
X0075720Y0038932D01*
X0076954Y0037698D02*
X0076954Y0040167D01*
X0051280Y0055185D02*
X0051891Y0057469D01*
X0048347Y0057469D01*
X0048958Y0055185D01*
X0048347Y0045343D02*
X0048349Y0045427D01*
X0048355Y0045510D01*
X0048365Y0045593D01*
X0048379Y0045676D01*
X0048396Y0045758D01*
X0048418Y0045839D01*
X0048443Y0045918D01*
X0048472Y0045997D01*
X0048505Y0046074D01*
X0048541Y0046149D01*
X0048581Y0046223D01*
X0048624Y0046295D01*
X0048671Y0046364D01*
X0048721Y0046431D01*
X0048774Y0046496D01*
X0048830Y0046558D01*
X0048888Y0046618D01*
X0048950Y0046675D01*
X0049014Y0046728D01*
X0049081Y0046779D01*
X0049150Y0046826D01*
X0049221Y0046871D01*
X0049294Y0046911D01*
X0049369Y0046948D01*
X0049446Y0046982D01*
X0049524Y0047012D01*
X0049603Y0047038D01*
X0049684Y0047061D01*
X0049766Y0047079D01*
X0049848Y0047094D01*
X0049931Y0047105D01*
X0050014Y0047112D01*
X0050098Y0047115D01*
X0050182Y0047114D01*
X0050265Y0047109D01*
X0050349Y0047100D01*
X0050431Y0047087D01*
X0050513Y0047071D01*
X0050594Y0047050D01*
X0050675Y0047026D01*
X0050753Y0046998D01*
X0050831Y0046966D01*
X0050907Y0046930D01*
X0050981Y0046891D01*
X0051053Y0046849D01*
X0051123Y0046803D01*
X0051191Y0046754D01*
X0051256Y0046702D01*
X0051319Y0046647D01*
X0051379Y0046589D01*
X0051437Y0046528D01*
X0051491Y0046464D01*
X0051543Y0046398D01*
X0051591Y0046330D01*
X0051636Y0046259D01*
X0051677Y0046186D01*
X0051716Y0046112D01*
X0051750Y0046036D01*
X0051781Y0045958D01*
X0051808Y0045879D01*
X0051832Y0045798D01*
X0051851Y0045717D01*
X0051867Y0045635D01*
X0051879Y0045552D01*
X0051887Y0045468D01*
X0051891Y0045385D01*
X0051891Y0045301D01*
X0051887Y0045218D01*
X0051879Y0045134D01*
X0051867Y0045051D01*
X0051851Y0044969D01*
X0051832Y0044888D01*
X0051808Y0044807D01*
X0051781Y0044728D01*
X0051750Y0044650D01*
X0051716Y0044574D01*
X0051677Y0044500D01*
X0051636Y0044427D01*
X0051591Y0044356D01*
X0051543Y0044288D01*
X0051491Y0044222D01*
X0051437Y0044158D01*
X0051379Y0044097D01*
X0051319Y0044039D01*
X0051256Y0043984D01*
X0051191Y0043932D01*
X0051123Y0043883D01*
X0051053Y0043837D01*
X0050981Y0043795D01*
X0050907Y0043756D01*
X0050831Y0043720D01*
X0050753Y0043688D01*
X0050675Y0043660D01*
X0050594Y0043636D01*
X0050513Y0043615D01*
X0050431Y0043599D01*
X0050349Y0043586D01*
X0050265Y0043577D01*
X0050182Y0043572D01*
X0050098Y0043571D01*
X0050014Y0043574D01*
X0049931Y0043581D01*
X0049848Y0043592D01*
X0049766Y0043607D01*
X0049684Y0043625D01*
X0049603Y0043648D01*
X0049524Y0043674D01*
X0049446Y0043704D01*
X0049369Y0043738D01*
X0049294Y0043775D01*
X0049221Y0043815D01*
X0049150Y0043860D01*
X0049081Y0043907D01*
X0049014Y0043958D01*
X0048950Y0044011D01*
X0048888Y0044068D01*
X0048830Y0044128D01*
X0048774Y0044190D01*
X0048721Y0044255D01*
X0048671Y0044322D01*
X0048624Y0044391D01*
X0048581Y0044463D01*
X0048541Y0044537D01*
X0048505Y0044612D01*
X0048472Y0044689D01*
X0048443Y0044768D01*
X0048418Y0044847D01*
X0048396Y0044928D01*
X0048379Y0045010D01*
X0048365Y0045093D01*
X0048355Y0045176D01*
X0048349Y0045259D01*
X0048347Y0045343D01*
X0048347Y0025657D02*
X0048349Y0025741D01*
X0048355Y0025824D01*
X0048365Y0025907D01*
X0048379Y0025990D01*
X0048396Y0026072D01*
X0048418Y0026153D01*
X0048443Y0026232D01*
X0048472Y0026311D01*
X0048505Y0026388D01*
X0048541Y0026463D01*
X0048581Y0026537D01*
X0048624Y0026609D01*
X0048671Y0026678D01*
X0048721Y0026745D01*
X0048774Y0026810D01*
X0048830Y0026872D01*
X0048888Y0026932D01*
X0048950Y0026989D01*
X0049014Y0027042D01*
X0049081Y0027093D01*
X0049150Y0027140D01*
X0049221Y0027185D01*
X0049294Y0027225D01*
X0049369Y0027262D01*
X0049446Y0027296D01*
X0049524Y0027326D01*
X0049603Y0027352D01*
X0049684Y0027375D01*
X0049766Y0027393D01*
X0049848Y0027408D01*
X0049931Y0027419D01*
X0050014Y0027426D01*
X0050098Y0027429D01*
X0050182Y0027428D01*
X0050265Y0027423D01*
X0050349Y0027414D01*
X0050431Y0027401D01*
X0050513Y0027385D01*
X0050594Y0027364D01*
X0050675Y0027340D01*
X0050753Y0027312D01*
X0050831Y0027280D01*
X0050907Y0027244D01*
X0050981Y0027205D01*
X0051053Y0027163D01*
X0051123Y0027117D01*
X0051191Y0027068D01*
X0051256Y0027016D01*
X0051319Y0026961D01*
X0051379Y0026903D01*
X0051437Y0026842D01*
X0051491Y0026778D01*
X0051543Y0026712D01*
X0051591Y0026644D01*
X0051636Y0026573D01*
X0051677Y0026500D01*
X0051716Y0026426D01*
X0051750Y0026350D01*
X0051781Y0026272D01*
X0051808Y0026193D01*
X0051832Y0026112D01*
X0051851Y0026031D01*
X0051867Y0025949D01*
X0051879Y0025866D01*
X0051887Y0025782D01*
X0051891Y0025699D01*
X0051891Y0025615D01*
X0051887Y0025532D01*
X0051879Y0025448D01*
X0051867Y0025365D01*
X0051851Y0025283D01*
X0051832Y0025202D01*
X0051808Y0025121D01*
X0051781Y0025042D01*
X0051750Y0024964D01*
X0051716Y0024888D01*
X0051677Y0024814D01*
X0051636Y0024741D01*
X0051591Y0024670D01*
X0051543Y0024602D01*
X0051491Y0024536D01*
X0051437Y0024472D01*
X0051379Y0024411D01*
X0051319Y0024353D01*
X0051256Y0024298D01*
X0051191Y0024246D01*
X0051123Y0024197D01*
X0051053Y0024151D01*
X0050981Y0024109D01*
X0050907Y0024070D01*
X0050831Y0024034D01*
X0050753Y0024002D01*
X0050675Y0023974D01*
X0050594Y0023950D01*
X0050513Y0023929D01*
X0050431Y0023913D01*
X0050349Y0023900D01*
X0050265Y0023891D01*
X0050182Y0023886D01*
X0050098Y0023885D01*
X0050014Y0023888D01*
X0049931Y0023895D01*
X0049848Y0023906D01*
X0049766Y0023921D01*
X0049684Y0023939D01*
X0049603Y0023962D01*
X0049524Y0023988D01*
X0049446Y0024018D01*
X0049369Y0024052D01*
X0049294Y0024089D01*
X0049221Y0024129D01*
X0049150Y0024174D01*
X0049081Y0024221D01*
X0049014Y0024272D01*
X0048950Y0024325D01*
X0048888Y0024382D01*
X0048830Y0024442D01*
X0048774Y0024504D01*
X0048721Y0024569D01*
X0048671Y0024636D01*
X0048624Y0024705D01*
X0048581Y0024777D01*
X0048541Y0024851D01*
X0048505Y0024926D01*
X0048472Y0025003D01*
X0048443Y0025082D01*
X0048418Y0025161D01*
X0048396Y0025242D01*
X0048379Y0025324D01*
X0048365Y0025407D01*
X0048355Y0025490D01*
X0048349Y0025573D01*
X0048347Y0025657D01*
D15*
X0048426Y0015815D02*
X0048426Y0055185D01*
X0048958Y0055185D01*
X0051280Y0055185D01*
X0055237Y0055185D01*
X0055237Y0015815D01*
X0048426Y0015815D01*
X0028623Y0015815D01*
X0028623Y0055185D01*
X0048426Y0055185D01*
X0028623Y0055185D02*
X0025710Y0055185D01*
X0025710Y0015815D01*
X0028623Y0015815D01*
X0089473Y0013000D02*
X0089473Y0028000D01*
X0091973Y0030500D01*
X0096973Y0030500D01*
X0099473Y0028000D01*
X0101973Y0030500D01*
X0106973Y0030500D01*
X0109473Y0028000D01*
X0111973Y0030500D01*
X0116973Y0030500D01*
X0119473Y0028000D01*
X0121973Y0030500D01*
X0126973Y0030500D01*
X0129473Y0028000D01*
X0131973Y0030500D01*
X0136973Y0030500D01*
X0139473Y0028000D01*
X0139473Y0013000D01*
X0136973Y0010500D01*
X0131973Y0010500D01*
X0129473Y0013000D01*
X0126973Y0010500D01*
X0121973Y0010500D01*
X0119473Y0013000D01*
X0116973Y0010500D01*
X0111973Y0010500D01*
X0109473Y0013000D01*
X0106973Y0010500D01*
X0101973Y0010500D01*
X0099473Y0013000D01*
X0096973Y0010500D01*
X0091973Y0010500D01*
X0089473Y0013000D01*
X0149174Y0103300D02*
X0149974Y0103300D01*
X0150375Y0103700D01*
X0151536Y0103300D02*
X0153137Y0103300D01*
X0152336Y0103300D02*
X0152336Y0105702D01*
X0151536Y0104901D01*
X0150375Y0105302D02*
X0149974Y0105702D01*
X0149174Y0105702D01*
X0148773Y0105302D01*
X0148773Y0103700D01*
X0149174Y0103300D01*
X0154298Y0103300D02*
X0154298Y0103700D01*
X0155899Y0105302D01*
X0155899Y0105702D01*
X0154298Y0105702D01*
X0130773Y0115598D02*
X0129375Y0114201D01*
X0103174Y0114201D01*
X0103174Y0141799D01*
X0130773Y0141799D01*
X0130773Y0115598D01*
X0126359Y0117200D02*
X0126361Y0117275D01*
X0126367Y0117349D01*
X0126377Y0117423D01*
X0126390Y0117496D01*
X0126408Y0117569D01*
X0126429Y0117640D01*
X0126454Y0117711D01*
X0126483Y0117780D01*
X0126516Y0117847D01*
X0126552Y0117912D01*
X0126591Y0117976D01*
X0126633Y0118037D01*
X0126679Y0118096D01*
X0126728Y0118153D01*
X0126780Y0118206D01*
X0126834Y0118257D01*
X0126891Y0118306D01*
X0126951Y0118350D01*
X0127013Y0118392D01*
X0127077Y0118431D01*
X0127143Y0118466D01*
X0127210Y0118497D01*
X0127280Y0118525D01*
X0127350Y0118549D01*
X0127422Y0118570D01*
X0127495Y0118586D01*
X0127568Y0118599D01*
X0127643Y0118608D01*
X0127717Y0118613D01*
X0127792Y0118614D01*
X0127866Y0118611D01*
X0127941Y0118604D01*
X0128014Y0118593D01*
X0128088Y0118579D01*
X0128160Y0118560D01*
X0128231Y0118538D01*
X0128301Y0118512D01*
X0128370Y0118482D01*
X0128436Y0118449D01*
X0128501Y0118412D01*
X0128564Y0118372D01*
X0128625Y0118328D01*
X0128683Y0118282D01*
X0128739Y0118232D01*
X0128792Y0118180D01*
X0128843Y0118125D01*
X0128890Y0118067D01*
X0128934Y0118007D01*
X0128975Y0117944D01*
X0129013Y0117880D01*
X0129047Y0117814D01*
X0129078Y0117745D01*
X0129105Y0117676D01*
X0129128Y0117605D01*
X0129147Y0117533D01*
X0129163Y0117460D01*
X0129175Y0117386D01*
X0129183Y0117312D01*
X0129187Y0117237D01*
X0129187Y0117163D01*
X0129183Y0117088D01*
X0129175Y0117014D01*
X0129163Y0116940D01*
X0129147Y0116867D01*
X0129128Y0116795D01*
X0129105Y0116724D01*
X0129078Y0116655D01*
X0129047Y0116586D01*
X0129013Y0116520D01*
X0128975Y0116456D01*
X0128934Y0116393D01*
X0128890Y0116333D01*
X0128843Y0116275D01*
X0128792Y0116220D01*
X0128739Y0116168D01*
X0128683Y0116118D01*
X0128625Y0116072D01*
X0128564Y0116028D01*
X0128501Y0115988D01*
X0128436Y0115951D01*
X0128370Y0115918D01*
X0128301Y0115888D01*
X0128231Y0115862D01*
X0128160Y0115840D01*
X0128088Y0115821D01*
X0128014Y0115807D01*
X0127941Y0115796D01*
X0127866Y0115789D01*
X0127792Y0115786D01*
X0127717Y0115787D01*
X0127643Y0115792D01*
X0127568Y0115801D01*
X0127495Y0115814D01*
X0127422Y0115830D01*
X0127350Y0115851D01*
X0127280Y0115875D01*
X0127210Y0115903D01*
X0127143Y0115934D01*
X0127077Y0115969D01*
X0127013Y0116008D01*
X0126951Y0116050D01*
X0126891Y0116094D01*
X0126834Y0116143D01*
X0126780Y0116194D01*
X0126728Y0116247D01*
X0126679Y0116304D01*
X0126633Y0116363D01*
X0126591Y0116424D01*
X0126552Y0116488D01*
X0126516Y0116553D01*
X0126483Y0116620D01*
X0126454Y0116689D01*
X0126429Y0116760D01*
X0126408Y0116831D01*
X0126390Y0116904D01*
X0126377Y0116977D01*
X0126367Y0117051D01*
X0126361Y0117125D01*
X0126359Y0117200D01*
X0114473Y0155500D02*
X0109473Y0155500D01*
X0106973Y0158000D01*
X0104473Y0155500D01*
X0099473Y0155500D01*
X0096973Y0158000D01*
X0094473Y0155500D01*
X0089473Y0155500D01*
X0086973Y0158000D01*
X0086973Y0173000D01*
X0089473Y0175500D01*
X0094473Y0175500D01*
X0096973Y0173000D01*
X0099473Y0175500D01*
X0104473Y0175500D01*
X0106973Y0173000D01*
X0109473Y0175500D01*
X0114473Y0175500D01*
X0116973Y0173000D01*
X0116973Y0158000D01*
X0114473Y0155500D01*
X0086473Y0155500D02*
X0086475Y0155544D01*
X0086481Y0155588D01*
X0086491Y0155631D01*
X0086504Y0155673D01*
X0086521Y0155714D01*
X0086542Y0155753D01*
X0086566Y0155790D01*
X0086593Y0155825D01*
X0086623Y0155857D01*
X0086656Y0155887D01*
X0086692Y0155913D01*
X0086729Y0155937D01*
X0086769Y0155956D01*
X0086810Y0155973D01*
X0086853Y0155985D01*
X0086896Y0155994D01*
X0086940Y0155999D01*
X0086984Y0156000D01*
X0087028Y0155997D01*
X0087072Y0155990D01*
X0087115Y0155979D01*
X0087157Y0155965D01*
X0087197Y0155947D01*
X0087236Y0155925D01*
X0087272Y0155901D01*
X0087306Y0155873D01*
X0087338Y0155842D01*
X0087367Y0155808D01*
X0087393Y0155772D01*
X0087415Y0155734D01*
X0087434Y0155694D01*
X0087449Y0155652D01*
X0087461Y0155610D01*
X0087469Y0155566D01*
X0087473Y0155522D01*
X0087473Y0155478D01*
X0087469Y0155434D01*
X0087461Y0155390D01*
X0087449Y0155348D01*
X0087434Y0155306D01*
X0087415Y0155266D01*
X0087393Y0155228D01*
X0087367Y0155192D01*
X0087338Y0155158D01*
X0087306Y0155127D01*
X0087272Y0155099D01*
X0087236Y0155075D01*
X0087197Y0155053D01*
X0087157Y0155035D01*
X0087115Y0155021D01*
X0087072Y0155010D01*
X0087028Y0155003D01*
X0086984Y0155000D01*
X0086940Y0155001D01*
X0086896Y0155006D01*
X0086853Y0155015D01*
X0086810Y0155027D01*
X0086769Y0155044D01*
X0086729Y0155063D01*
X0086692Y0155087D01*
X0086656Y0155113D01*
X0086623Y0155143D01*
X0086593Y0155175D01*
X0086566Y0155210D01*
X0086542Y0155247D01*
X0086521Y0155286D01*
X0086504Y0155327D01*
X0086491Y0155369D01*
X0086481Y0155412D01*
X0086475Y0155456D01*
X0086473Y0155500D01*
X0077473Y0181500D02*
X0066473Y0181500D01*
X0066413Y0181502D01*
X0066352Y0181507D01*
X0066293Y0181516D01*
X0066234Y0181529D01*
X0066175Y0181545D01*
X0066118Y0181565D01*
X0066063Y0181588D01*
X0066008Y0181615D01*
X0065956Y0181644D01*
X0065905Y0181677D01*
X0065856Y0181713D01*
X0065810Y0181751D01*
X0065766Y0181793D01*
X0065724Y0181837D01*
X0065686Y0181883D01*
X0065650Y0181932D01*
X0065617Y0181983D01*
X0065588Y0182035D01*
X0065561Y0182090D01*
X0065538Y0182145D01*
X0065518Y0182202D01*
X0065502Y0182261D01*
X0065489Y0182320D01*
X0065480Y0182379D01*
X0065475Y0182440D01*
X0065473Y0182500D01*
X0065473Y0188500D01*
X0065475Y0188560D01*
X0065480Y0188621D01*
X0065489Y0188680D01*
X0065502Y0188739D01*
X0065518Y0188798D01*
X0065538Y0188855D01*
X0065561Y0188910D01*
X0065588Y0188965D01*
X0065617Y0189017D01*
X0065650Y0189068D01*
X0065686Y0189117D01*
X0065724Y0189163D01*
X0065766Y0189207D01*
X0065810Y0189249D01*
X0065856Y0189287D01*
X0065905Y0189323D01*
X0065956Y0189356D01*
X0066008Y0189385D01*
X0066063Y0189412D01*
X0066118Y0189435D01*
X0066175Y0189455D01*
X0066234Y0189471D01*
X0066293Y0189484D01*
X0066352Y0189493D01*
X0066413Y0189498D01*
X0066473Y0189500D01*
X0077473Y0189500D01*
X0077533Y0189498D01*
X0077594Y0189493D01*
X0077653Y0189484D01*
X0077712Y0189471D01*
X0077771Y0189455D01*
X0077828Y0189435D01*
X0077883Y0189412D01*
X0077938Y0189385D01*
X0077990Y0189356D01*
X0078041Y0189323D01*
X0078090Y0189287D01*
X0078136Y0189249D01*
X0078180Y0189207D01*
X0078222Y0189163D01*
X0078260Y0189117D01*
X0078296Y0189068D01*
X0078329Y0189017D01*
X0078358Y0188965D01*
X0078385Y0188910D01*
X0078408Y0188855D01*
X0078428Y0188798D01*
X0078444Y0188739D01*
X0078457Y0188680D01*
X0078466Y0188621D01*
X0078471Y0188560D01*
X0078473Y0188500D01*
X0078473Y0182500D01*
X0078471Y0182440D01*
X0078466Y0182379D01*
X0078457Y0182320D01*
X0078444Y0182261D01*
X0078428Y0182202D01*
X0078408Y0182145D01*
X0078385Y0182090D01*
X0078358Y0182035D01*
X0078329Y0181983D01*
X0078296Y0181932D01*
X0078260Y0181883D01*
X0078222Y0181837D01*
X0078180Y0181793D01*
X0078136Y0181751D01*
X0078090Y0181713D01*
X0078041Y0181677D01*
X0077990Y0181644D01*
X0077938Y0181615D01*
X0077883Y0181588D01*
X0077828Y0181565D01*
X0077771Y0181545D01*
X0077712Y0181529D01*
X0077653Y0181516D01*
X0077594Y0181507D01*
X0077533Y0181502D01*
X0077473Y0181500D01*
X0174773Y0159569D02*
X0175908Y0157300D01*
X0177042Y0159569D01*
X0178456Y0159569D02*
X0179591Y0160703D01*
X0179591Y0157300D01*
X0180725Y0157300D02*
X0178456Y0157300D01*
X0182140Y0157300D02*
X0182707Y0157300D01*
X0182707Y0157867D01*
X0182140Y0157867D01*
X0182140Y0157300D01*
X0183981Y0159001D02*
X0185683Y0160703D01*
X0185683Y0157300D01*
X0186250Y0159001D02*
X0183981Y0159001D01*
X0186957Y0154703D02*
X0188091Y0153569D01*
X0188091Y0151300D01*
X0189506Y0151867D02*
X0189506Y0153001D01*
X0190073Y0153569D01*
X0191775Y0153569D01*
X0191775Y0154703D02*
X0191775Y0151300D01*
X0190073Y0151300D01*
X0189506Y0151867D01*
X0188091Y0153001D02*
X0185823Y0153001D01*
X0185823Y0153569D02*
X0186957Y0154703D01*
X0185823Y0153569D02*
X0185823Y0151300D01*
X0180725Y0151300D02*
X0179024Y0151300D01*
X0178456Y0151867D01*
X0178456Y0153569D01*
X0177042Y0153001D02*
X0177042Y0151867D01*
X0176475Y0151300D01*
X0174773Y0151300D01*
X0174773Y0154703D01*
X0174773Y0153569D02*
X0176475Y0153569D01*
X0177042Y0153001D01*
X0180725Y0153569D02*
X0180725Y0150733D01*
X0180158Y0150166D01*
X0179591Y0150166D01*
X0191347Y0157300D02*
X0193616Y0159569D01*
X0193616Y0160136D01*
X0193049Y0160703D01*
X0191915Y0160703D01*
X0191347Y0160136D01*
X0191347Y0157300D02*
X0193616Y0157300D01*
X0195031Y0157867D02*
X0197299Y0160136D01*
X0197299Y0157867D01*
X0196732Y0157300D01*
X0195598Y0157300D01*
X0195031Y0157867D01*
X0195031Y0160136D01*
X0195598Y0160703D01*
X0196732Y0160703D01*
X0197299Y0160136D01*
X0198714Y0159569D02*
X0199848Y0160703D01*
X0199848Y0157300D01*
X0198714Y0157300D02*
X0200982Y0157300D01*
X0202397Y0157867D02*
X0202964Y0157300D01*
X0204098Y0157300D01*
X0204666Y0157867D01*
X0204666Y0158434D01*
X0204098Y0159001D01*
X0202397Y0159001D01*
X0202397Y0157867D01*
X0202397Y0159001D02*
X0203531Y0160136D01*
X0204666Y0160703D01*
X0208349Y0160703D02*
X0206080Y0157300D01*
X0203578Y0155270D02*
X0203578Y0154703D01*
X0203578Y0153569D02*
X0203578Y0151300D01*
X0203011Y0151300D02*
X0204145Y0151300D01*
X0205466Y0151300D02*
X0205466Y0153569D01*
X0207168Y0153569D01*
X0207735Y0153001D01*
X0207735Y0151300D01*
X0209149Y0151867D02*
X0209149Y0153001D01*
X0209716Y0153569D01*
X0211418Y0153569D01*
X0211418Y0154703D02*
X0211418Y0151300D01*
X0209716Y0151300D01*
X0209149Y0151867D01*
X0212832Y0151867D02*
X0212832Y0153001D01*
X0213400Y0153569D01*
X0214534Y0153569D01*
X0215101Y0153001D01*
X0215101Y0152434D01*
X0212832Y0152434D01*
X0212832Y0151867D02*
X0213400Y0151300D01*
X0214534Y0151300D01*
X0216516Y0151300D02*
X0216516Y0153569D01*
X0218217Y0153569D01*
X0218784Y0153001D01*
X0218784Y0151300D01*
X0217129Y0157300D02*
X0219398Y0160703D01*
X0220813Y0159569D02*
X0221947Y0160703D01*
X0221947Y0157300D01*
X0220813Y0157300D02*
X0223081Y0157300D01*
X0224496Y0157867D02*
X0225063Y0157300D01*
X0226197Y0157300D01*
X0226764Y0157867D01*
X0226764Y0158434D01*
X0226197Y0159001D01*
X0225630Y0159001D01*
X0226197Y0159001D02*
X0226764Y0159569D01*
X0226764Y0160136D01*
X0226197Y0160703D01*
X0225063Y0160703D01*
X0224496Y0160136D01*
X0215715Y0157300D02*
X0213446Y0157300D01*
X0214581Y0157300D02*
X0214581Y0160703D01*
X0213446Y0159569D01*
X0212032Y0157300D02*
X0209763Y0157300D01*
X0210898Y0157300D02*
X0210898Y0160703D01*
X0209763Y0159569D01*
X0203578Y0153569D02*
X0203011Y0153569D01*
X0201596Y0151300D02*
X0199328Y0151300D01*
X0199328Y0154703D01*
X0193756Y0154703D02*
X0193756Y0155270D01*
X0193756Y0153569D02*
X0193756Y0151300D01*
X0193189Y0151300D02*
X0194323Y0151300D01*
X0193756Y0153569D02*
X0193189Y0153569D01*
X0269473Y0130500D02*
X0269475Y0130544D01*
X0269481Y0130588D01*
X0269491Y0130631D01*
X0269504Y0130673D01*
X0269521Y0130714D01*
X0269542Y0130753D01*
X0269566Y0130790D01*
X0269593Y0130825D01*
X0269623Y0130857D01*
X0269656Y0130887D01*
X0269692Y0130913D01*
X0269729Y0130937D01*
X0269769Y0130956D01*
X0269810Y0130973D01*
X0269853Y0130985D01*
X0269896Y0130994D01*
X0269940Y0130999D01*
X0269984Y0131000D01*
X0270028Y0130997D01*
X0270072Y0130990D01*
X0270115Y0130979D01*
X0270157Y0130965D01*
X0270197Y0130947D01*
X0270236Y0130925D01*
X0270272Y0130901D01*
X0270306Y0130873D01*
X0270338Y0130842D01*
X0270367Y0130808D01*
X0270393Y0130772D01*
X0270415Y0130734D01*
X0270434Y0130694D01*
X0270449Y0130652D01*
X0270461Y0130610D01*
X0270469Y0130566D01*
X0270473Y0130522D01*
X0270473Y0130478D01*
X0270469Y0130434D01*
X0270461Y0130390D01*
X0270449Y0130348D01*
X0270434Y0130306D01*
X0270415Y0130266D01*
X0270393Y0130228D01*
X0270367Y0130192D01*
X0270338Y0130158D01*
X0270306Y0130127D01*
X0270272Y0130099D01*
X0270236Y0130075D01*
X0270197Y0130053D01*
X0270157Y0130035D01*
X0270115Y0130021D01*
X0270072Y0130010D01*
X0270028Y0130003D01*
X0269984Y0130000D01*
X0269940Y0130001D01*
X0269896Y0130006D01*
X0269853Y0130015D01*
X0269810Y0130027D01*
X0269769Y0130044D01*
X0269729Y0130063D01*
X0269692Y0130087D01*
X0269656Y0130113D01*
X0269623Y0130143D01*
X0269593Y0130175D01*
X0269566Y0130210D01*
X0269542Y0130247D01*
X0269521Y0130286D01*
X0269504Y0130327D01*
X0269491Y0130369D01*
X0269481Y0130412D01*
X0269475Y0130456D01*
X0269473Y0130500D01*
X0269973Y0128000D02*
X0272473Y0130500D01*
X0287473Y0130500D01*
X0289973Y0128000D01*
X0289973Y0123000D01*
X0287473Y0120500D01*
X0289973Y0118000D01*
X0289973Y0113000D01*
X0287473Y0110500D01*
X0289973Y0108000D01*
X0289973Y0103000D01*
X0287473Y0100500D01*
X0272473Y0100500D01*
X0269973Y0103000D01*
X0269973Y0108000D01*
X0272473Y0110500D01*
X0269973Y0113000D01*
X0269973Y0118000D01*
X0272473Y0120500D01*
X0269973Y0123000D01*
X0269973Y0128000D01*
D16*
X0278174Y0145500D02*
X0278176Y0145658D01*
X0278182Y0145816D01*
X0278192Y0145974D01*
X0278206Y0146132D01*
X0278224Y0146289D01*
X0278245Y0146446D01*
X0278271Y0146602D01*
X0278301Y0146758D01*
X0278334Y0146913D01*
X0278372Y0147066D01*
X0278413Y0147219D01*
X0278458Y0147371D01*
X0278507Y0147522D01*
X0278560Y0147671D01*
X0278616Y0147819D01*
X0278676Y0147965D01*
X0278740Y0148110D01*
X0278808Y0148253D01*
X0278879Y0148395D01*
X0278953Y0148535D01*
X0279031Y0148672D01*
X0279113Y0148808D01*
X0279197Y0148942D01*
X0279286Y0149073D01*
X0279377Y0149202D01*
X0279472Y0149329D01*
X0279569Y0149454D01*
X0279670Y0149576D01*
X0279774Y0149695D01*
X0279881Y0149812D01*
X0279991Y0149926D01*
X0280104Y0150037D01*
X0280219Y0150146D01*
X0280337Y0150251D01*
X0280458Y0150353D01*
X0280581Y0150453D01*
X0280707Y0150549D01*
X0280835Y0150642D01*
X0280965Y0150732D01*
X0281098Y0150818D01*
X0281233Y0150902D01*
X0281369Y0150981D01*
X0281508Y0151058D01*
X0281649Y0151130D01*
X0281791Y0151200D01*
X0281935Y0151265D01*
X0282081Y0151327D01*
X0282228Y0151385D01*
X0282377Y0151440D01*
X0282527Y0151491D01*
X0282678Y0151538D01*
X0282830Y0151581D01*
X0282983Y0151620D01*
X0283138Y0151656D01*
X0283293Y0151687D01*
X0283449Y0151715D01*
X0283605Y0151739D01*
X0283762Y0151759D01*
X0283920Y0151775D01*
X0284077Y0151787D01*
X0284236Y0151795D01*
X0284394Y0151799D01*
X0284552Y0151799D01*
X0284710Y0151795D01*
X0284869Y0151787D01*
X0285026Y0151775D01*
X0285184Y0151759D01*
X0285341Y0151739D01*
X0285497Y0151715D01*
X0285653Y0151687D01*
X0285808Y0151656D01*
X0285963Y0151620D01*
X0286116Y0151581D01*
X0286268Y0151538D01*
X0286419Y0151491D01*
X0286569Y0151440D01*
X0286718Y0151385D01*
X0286865Y0151327D01*
X0287011Y0151265D01*
X0287155Y0151200D01*
X0287297Y0151130D01*
X0287438Y0151058D01*
X0287577Y0150981D01*
X0287713Y0150902D01*
X0287848Y0150818D01*
X0287981Y0150732D01*
X0288111Y0150642D01*
X0288239Y0150549D01*
X0288365Y0150453D01*
X0288488Y0150353D01*
X0288609Y0150251D01*
X0288727Y0150146D01*
X0288842Y0150037D01*
X0288955Y0149926D01*
X0289065Y0149812D01*
X0289172Y0149695D01*
X0289276Y0149576D01*
X0289377Y0149454D01*
X0289474Y0149329D01*
X0289569Y0149202D01*
X0289660Y0149073D01*
X0289749Y0148942D01*
X0289833Y0148808D01*
X0289915Y0148672D01*
X0289993Y0148535D01*
X0290067Y0148395D01*
X0290138Y0148253D01*
X0290206Y0148110D01*
X0290270Y0147965D01*
X0290330Y0147819D01*
X0290386Y0147671D01*
X0290439Y0147522D01*
X0290488Y0147371D01*
X0290533Y0147219D01*
X0290574Y0147066D01*
X0290612Y0146913D01*
X0290645Y0146758D01*
X0290675Y0146602D01*
X0290701Y0146446D01*
X0290722Y0146289D01*
X0290740Y0146132D01*
X0290754Y0145974D01*
X0290764Y0145816D01*
X0290770Y0145658D01*
X0290772Y0145500D01*
X0290770Y0145342D01*
X0290764Y0145184D01*
X0290754Y0145026D01*
X0290740Y0144868D01*
X0290722Y0144711D01*
X0290701Y0144554D01*
X0290675Y0144398D01*
X0290645Y0144242D01*
X0290612Y0144087D01*
X0290574Y0143934D01*
X0290533Y0143781D01*
X0290488Y0143629D01*
X0290439Y0143478D01*
X0290386Y0143329D01*
X0290330Y0143181D01*
X0290270Y0143035D01*
X0290206Y0142890D01*
X0290138Y0142747D01*
X0290067Y0142605D01*
X0289993Y0142465D01*
X0289915Y0142328D01*
X0289833Y0142192D01*
X0289749Y0142058D01*
X0289660Y0141927D01*
X0289569Y0141798D01*
X0289474Y0141671D01*
X0289377Y0141546D01*
X0289276Y0141424D01*
X0289172Y0141305D01*
X0289065Y0141188D01*
X0288955Y0141074D01*
X0288842Y0140963D01*
X0288727Y0140854D01*
X0288609Y0140749D01*
X0288488Y0140647D01*
X0288365Y0140547D01*
X0288239Y0140451D01*
X0288111Y0140358D01*
X0287981Y0140268D01*
X0287848Y0140182D01*
X0287713Y0140098D01*
X0287577Y0140019D01*
X0287438Y0139942D01*
X0287297Y0139870D01*
X0287155Y0139800D01*
X0287011Y0139735D01*
X0286865Y0139673D01*
X0286718Y0139615D01*
X0286569Y0139560D01*
X0286419Y0139509D01*
X0286268Y0139462D01*
X0286116Y0139419D01*
X0285963Y0139380D01*
X0285808Y0139344D01*
X0285653Y0139313D01*
X0285497Y0139285D01*
X0285341Y0139261D01*
X0285184Y0139241D01*
X0285026Y0139225D01*
X0284869Y0139213D01*
X0284710Y0139205D01*
X0284552Y0139201D01*
X0284394Y0139201D01*
X0284236Y0139205D01*
X0284077Y0139213D01*
X0283920Y0139225D01*
X0283762Y0139241D01*
X0283605Y0139261D01*
X0283449Y0139285D01*
X0283293Y0139313D01*
X0283138Y0139344D01*
X0282983Y0139380D01*
X0282830Y0139419D01*
X0282678Y0139462D01*
X0282527Y0139509D01*
X0282377Y0139560D01*
X0282228Y0139615D01*
X0282081Y0139673D01*
X0281935Y0139735D01*
X0281791Y0139800D01*
X0281649Y0139870D01*
X0281508Y0139942D01*
X0281369Y0140019D01*
X0281233Y0140098D01*
X0281098Y0140182D01*
X0280965Y0140268D01*
X0280835Y0140358D01*
X0280707Y0140451D01*
X0280581Y0140547D01*
X0280458Y0140647D01*
X0280337Y0140749D01*
X0280219Y0140854D01*
X0280104Y0140963D01*
X0279991Y0141074D01*
X0279881Y0141188D01*
X0279774Y0141305D01*
X0279670Y0141424D01*
X0279569Y0141546D01*
X0279472Y0141671D01*
X0279377Y0141798D01*
X0279286Y0141927D01*
X0279197Y0142058D01*
X0279113Y0142192D01*
X0279031Y0142328D01*
X0278953Y0142465D01*
X0278879Y0142605D01*
X0278808Y0142747D01*
X0278740Y0142890D01*
X0278676Y0143035D01*
X0278616Y0143181D01*
X0278560Y0143329D01*
X0278507Y0143478D01*
X0278458Y0143629D01*
X0278413Y0143781D01*
X0278372Y0143934D01*
X0278334Y0144087D01*
X0278301Y0144242D01*
X0278271Y0144398D01*
X0278245Y0144554D01*
X0278224Y0144711D01*
X0278206Y0144868D01*
X0278192Y0145026D01*
X0278182Y0145184D01*
X0278176Y0145342D01*
X0278174Y0145500D01*
X0278174Y0035500D02*
X0278176Y0035658D01*
X0278182Y0035816D01*
X0278192Y0035974D01*
X0278206Y0036132D01*
X0278224Y0036289D01*
X0278245Y0036446D01*
X0278271Y0036602D01*
X0278301Y0036758D01*
X0278334Y0036913D01*
X0278372Y0037066D01*
X0278413Y0037219D01*
X0278458Y0037371D01*
X0278507Y0037522D01*
X0278560Y0037671D01*
X0278616Y0037819D01*
X0278676Y0037965D01*
X0278740Y0038110D01*
X0278808Y0038253D01*
X0278879Y0038395D01*
X0278953Y0038535D01*
X0279031Y0038672D01*
X0279113Y0038808D01*
X0279197Y0038942D01*
X0279286Y0039073D01*
X0279377Y0039202D01*
X0279472Y0039329D01*
X0279569Y0039454D01*
X0279670Y0039576D01*
X0279774Y0039695D01*
X0279881Y0039812D01*
X0279991Y0039926D01*
X0280104Y0040037D01*
X0280219Y0040146D01*
X0280337Y0040251D01*
X0280458Y0040353D01*
X0280581Y0040453D01*
X0280707Y0040549D01*
X0280835Y0040642D01*
X0280965Y0040732D01*
X0281098Y0040818D01*
X0281233Y0040902D01*
X0281369Y0040981D01*
X0281508Y0041058D01*
X0281649Y0041130D01*
X0281791Y0041200D01*
X0281935Y0041265D01*
X0282081Y0041327D01*
X0282228Y0041385D01*
X0282377Y0041440D01*
X0282527Y0041491D01*
X0282678Y0041538D01*
X0282830Y0041581D01*
X0282983Y0041620D01*
X0283138Y0041656D01*
X0283293Y0041687D01*
X0283449Y0041715D01*
X0283605Y0041739D01*
X0283762Y0041759D01*
X0283920Y0041775D01*
X0284077Y0041787D01*
X0284236Y0041795D01*
X0284394Y0041799D01*
X0284552Y0041799D01*
X0284710Y0041795D01*
X0284869Y0041787D01*
X0285026Y0041775D01*
X0285184Y0041759D01*
X0285341Y0041739D01*
X0285497Y0041715D01*
X0285653Y0041687D01*
X0285808Y0041656D01*
X0285963Y0041620D01*
X0286116Y0041581D01*
X0286268Y0041538D01*
X0286419Y0041491D01*
X0286569Y0041440D01*
X0286718Y0041385D01*
X0286865Y0041327D01*
X0287011Y0041265D01*
X0287155Y0041200D01*
X0287297Y0041130D01*
X0287438Y0041058D01*
X0287577Y0040981D01*
X0287713Y0040902D01*
X0287848Y0040818D01*
X0287981Y0040732D01*
X0288111Y0040642D01*
X0288239Y0040549D01*
X0288365Y0040453D01*
X0288488Y0040353D01*
X0288609Y0040251D01*
X0288727Y0040146D01*
X0288842Y0040037D01*
X0288955Y0039926D01*
X0289065Y0039812D01*
X0289172Y0039695D01*
X0289276Y0039576D01*
X0289377Y0039454D01*
X0289474Y0039329D01*
X0289569Y0039202D01*
X0289660Y0039073D01*
X0289749Y0038942D01*
X0289833Y0038808D01*
X0289915Y0038672D01*
X0289993Y0038535D01*
X0290067Y0038395D01*
X0290138Y0038253D01*
X0290206Y0038110D01*
X0290270Y0037965D01*
X0290330Y0037819D01*
X0290386Y0037671D01*
X0290439Y0037522D01*
X0290488Y0037371D01*
X0290533Y0037219D01*
X0290574Y0037066D01*
X0290612Y0036913D01*
X0290645Y0036758D01*
X0290675Y0036602D01*
X0290701Y0036446D01*
X0290722Y0036289D01*
X0290740Y0036132D01*
X0290754Y0035974D01*
X0290764Y0035816D01*
X0290770Y0035658D01*
X0290772Y0035500D01*
X0290770Y0035342D01*
X0290764Y0035184D01*
X0290754Y0035026D01*
X0290740Y0034868D01*
X0290722Y0034711D01*
X0290701Y0034554D01*
X0290675Y0034398D01*
X0290645Y0034242D01*
X0290612Y0034087D01*
X0290574Y0033934D01*
X0290533Y0033781D01*
X0290488Y0033629D01*
X0290439Y0033478D01*
X0290386Y0033329D01*
X0290330Y0033181D01*
X0290270Y0033035D01*
X0290206Y0032890D01*
X0290138Y0032747D01*
X0290067Y0032605D01*
X0289993Y0032465D01*
X0289915Y0032328D01*
X0289833Y0032192D01*
X0289749Y0032058D01*
X0289660Y0031927D01*
X0289569Y0031798D01*
X0289474Y0031671D01*
X0289377Y0031546D01*
X0289276Y0031424D01*
X0289172Y0031305D01*
X0289065Y0031188D01*
X0288955Y0031074D01*
X0288842Y0030963D01*
X0288727Y0030854D01*
X0288609Y0030749D01*
X0288488Y0030647D01*
X0288365Y0030547D01*
X0288239Y0030451D01*
X0288111Y0030358D01*
X0287981Y0030268D01*
X0287848Y0030182D01*
X0287713Y0030098D01*
X0287577Y0030019D01*
X0287438Y0029942D01*
X0287297Y0029870D01*
X0287155Y0029800D01*
X0287011Y0029735D01*
X0286865Y0029673D01*
X0286718Y0029615D01*
X0286569Y0029560D01*
X0286419Y0029509D01*
X0286268Y0029462D01*
X0286116Y0029419D01*
X0285963Y0029380D01*
X0285808Y0029344D01*
X0285653Y0029313D01*
X0285497Y0029285D01*
X0285341Y0029261D01*
X0285184Y0029241D01*
X0285026Y0029225D01*
X0284869Y0029213D01*
X0284710Y0029205D01*
X0284552Y0029201D01*
X0284394Y0029201D01*
X0284236Y0029205D01*
X0284077Y0029213D01*
X0283920Y0029225D01*
X0283762Y0029241D01*
X0283605Y0029261D01*
X0283449Y0029285D01*
X0283293Y0029313D01*
X0283138Y0029344D01*
X0282983Y0029380D01*
X0282830Y0029419D01*
X0282678Y0029462D01*
X0282527Y0029509D01*
X0282377Y0029560D01*
X0282228Y0029615D01*
X0282081Y0029673D01*
X0281935Y0029735D01*
X0281791Y0029800D01*
X0281649Y0029870D01*
X0281508Y0029942D01*
X0281369Y0030019D01*
X0281233Y0030098D01*
X0281098Y0030182D01*
X0280965Y0030268D01*
X0280835Y0030358D01*
X0280707Y0030451D01*
X0280581Y0030547D01*
X0280458Y0030647D01*
X0280337Y0030749D01*
X0280219Y0030854D01*
X0280104Y0030963D01*
X0279991Y0031074D01*
X0279881Y0031188D01*
X0279774Y0031305D01*
X0279670Y0031424D01*
X0279569Y0031546D01*
X0279472Y0031671D01*
X0279377Y0031798D01*
X0279286Y0031927D01*
X0279197Y0032058D01*
X0279113Y0032192D01*
X0279031Y0032328D01*
X0278953Y0032465D01*
X0278879Y0032605D01*
X0278808Y0032747D01*
X0278740Y0032890D01*
X0278676Y0033035D01*
X0278616Y0033181D01*
X0278560Y0033329D01*
X0278507Y0033478D01*
X0278458Y0033629D01*
X0278413Y0033781D01*
X0278372Y0033934D01*
X0278334Y0034087D01*
X0278301Y0034242D01*
X0278271Y0034398D01*
X0278245Y0034554D01*
X0278224Y0034711D01*
X0278206Y0034868D01*
X0278192Y0035026D01*
X0278182Y0035184D01*
X0278176Y0035342D01*
X0278174Y0035500D01*
X0073174Y0015500D02*
X0073176Y0015658D01*
X0073182Y0015816D01*
X0073192Y0015974D01*
X0073206Y0016132D01*
X0073224Y0016289D01*
X0073245Y0016446D01*
X0073271Y0016602D01*
X0073301Y0016758D01*
X0073334Y0016913D01*
X0073372Y0017066D01*
X0073413Y0017219D01*
X0073458Y0017371D01*
X0073507Y0017522D01*
X0073560Y0017671D01*
X0073616Y0017819D01*
X0073676Y0017965D01*
X0073740Y0018110D01*
X0073808Y0018253D01*
X0073879Y0018395D01*
X0073953Y0018535D01*
X0074031Y0018672D01*
X0074113Y0018808D01*
X0074197Y0018942D01*
X0074286Y0019073D01*
X0074377Y0019202D01*
X0074472Y0019329D01*
X0074569Y0019454D01*
X0074670Y0019576D01*
X0074774Y0019695D01*
X0074881Y0019812D01*
X0074991Y0019926D01*
X0075104Y0020037D01*
X0075219Y0020146D01*
X0075337Y0020251D01*
X0075458Y0020353D01*
X0075581Y0020453D01*
X0075707Y0020549D01*
X0075835Y0020642D01*
X0075965Y0020732D01*
X0076098Y0020818D01*
X0076233Y0020902D01*
X0076369Y0020981D01*
X0076508Y0021058D01*
X0076649Y0021130D01*
X0076791Y0021200D01*
X0076935Y0021265D01*
X0077081Y0021327D01*
X0077228Y0021385D01*
X0077377Y0021440D01*
X0077527Y0021491D01*
X0077678Y0021538D01*
X0077830Y0021581D01*
X0077983Y0021620D01*
X0078138Y0021656D01*
X0078293Y0021687D01*
X0078449Y0021715D01*
X0078605Y0021739D01*
X0078762Y0021759D01*
X0078920Y0021775D01*
X0079077Y0021787D01*
X0079236Y0021795D01*
X0079394Y0021799D01*
X0079552Y0021799D01*
X0079710Y0021795D01*
X0079869Y0021787D01*
X0080026Y0021775D01*
X0080184Y0021759D01*
X0080341Y0021739D01*
X0080497Y0021715D01*
X0080653Y0021687D01*
X0080808Y0021656D01*
X0080963Y0021620D01*
X0081116Y0021581D01*
X0081268Y0021538D01*
X0081419Y0021491D01*
X0081569Y0021440D01*
X0081718Y0021385D01*
X0081865Y0021327D01*
X0082011Y0021265D01*
X0082155Y0021200D01*
X0082297Y0021130D01*
X0082438Y0021058D01*
X0082577Y0020981D01*
X0082713Y0020902D01*
X0082848Y0020818D01*
X0082981Y0020732D01*
X0083111Y0020642D01*
X0083239Y0020549D01*
X0083365Y0020453D01*
X0083488Y0020353D01*
X0083609Y0020251D01*
X0083727Y0020146D01*
X0083842Y0020037D01*
X0083955Y0019926D01*
X0084065Y0019812D01*
X0084172Y0019695D01*
X0084276Y0019576D01*
X0084377Y0019454D01*
X0084474Y0019329D01*
X0084569Y0019202D01*
X0084660Y0019073D01*
X0084749Y0018942D01*
X0084833Y0018808D01*
X0084915Y0018672D01*
X0084993Y0018535D01*
X0085067Y0018395D01*
X0085138Y0018253D01*
X0085206Y0018110D01*
X0085270Y0017965D01*
X0085330Y0017819D01*
X0085386Y0017671D01*
X0085439Y0017522D01*
X0085488Y0017371D01*
X0085533Y0017219D01*
X0085574Y0017066D01*
X0085612Y0016913D01*
X0085645Y0016758D01*
X0085675Y0016602D01*
X0085701Y0016446D01*
X0085722Y0016289D01*
X0085740Y0016132D01*
X0085754Y0015974D01*
X0085764Y0015816D01*
X0085770Y0015658D01*
X0085772Y0015500D01*
X0085770Y0015342D01*
X0085764Y0015184D01*
X0085754Y0015026D01*
X0085740Y0014868D01*
X0085722Y0014711D01*
X0085701Y0014554D01*
X0085675Y0014398D01*
X0085645Y0014242D01*
X0085612Y0014087D01*
X0085574Y0013934D01*
X0085533Y0013781D01*
X0085488Y0013629D01*
X0085439Y0013478D01*
X0085386Y0013329D01*
X0085330Y0013181D01*
X0085270Y0013035D01*
X0085206Y0012890D01*
X0085138Y0012747D01*
X0085067Y0012605D01*
X0084993Y0012465D01*
X0084915Y0012328D01*
X0084833Y0012192D01*
X0084749Y0012058D01*
X0084660Y0011927D01*
X0084569Y0011798D01*
X0084474Y0011671D01*
X0084377Y0011546D01*
X0084276Y0011424D01*
X0084172Y0011305D01*
X0084065Y0011188D01*
X0083955Y0011074D01*
X0083842Y0010963D01*
X0083727Y0010854D01*
X0083609Y0010749D01*
X0083488Y0010647D01*
X0083365Y0010547D01*
X0083239Y0010451D01*
X0083111Y0010358D01*
X0082981Y0010268D01*
X0082848Y0010182D01*
X0082713Y0010098D01*
X0082577Y0010019D01*
X0082438Y0009942D01*
X0082297Y0009870D01*
X0082155Y0009800D01*
X0082011Y0009735D01*
X0081865Y0009673D01*
X0081718Y0009615D01*
X0081569Y0009560D01*
X0081419Y0009509D01*
X0081268Y0009462D01*
X0081116Y0009419D01*
X0080963Y0009380D01*
X0080808Y0009344D01*
X0080653Y0009313D01*
X0080497Y0009285D01*
X0080341Y0009261D01*
X0080184Y0009241D01*
X0080026Y0009225D01*
X0079869Y0009213D01*
X0079710Y0009205D01*
X0079552Y0009201D01*
X0079394Y0009201D01*
X0079236Y0009205D01*
X0079077Y0009213D01*
X0078920Y0009225D01*
X0078762Y0009241D01*
X0078605Y0009261D01*
X0078449Y0009285D01*
X0078293Y0009313D01*
X0078138Y0009344D01*
X0077983Y0009380D01*
X0077830Y0009419D01*
X0077678Y0009462D01*
X0077527Y0009509D01*
X0077377Y0009560D01*
X0077228Y0009615D01*
X0077081Y0009673D01*
X0076935Y0009735D01*
X0076791Y0009800D01*
X0076649Y0009870D01*
X0076508Y0009942D01*
X0076369Y0010019D01*
X0076233Y0010098D01*
X0076098Y0010182D01*
X0075965Y0010268D01*
X0075835Y0010358D01*
X0075707Y0010451D01*
X0075581Y0010547D01*
X0075458Y0010647D01*
X0075337Y0010749D01*
X0075219Y0010854D01*
X0075104Y0010963D01*
X0074991Y0011074D01*
X0074881Y0011188D01*
X0074774Y0011305D01*
X0074670Y0011424D01*
X0074569Y0011546D01*
X0074472Y0011671D01*
X0074377Y0011798D01*
X0074286Y0011927D01*
X0074197Y0012058D01*
X0074113Y0012192D01*
X0074031Y0012328D01*
X0073953Y0012465D01*
X0073879Y0012605D01*
X0073808Y0012747D01*
X0073740Y0012890D01*
X0073676Y0013035D01*
X0073616Y0013181D01*
X0073560Y0013329D01*
X0073507Y0013478D01*
X0073458Y0013629D01*
X0073413Y0013781D01*
X0073372Y0013934D01*
X0073334Y0014087D01*
X0073301Y0014242D01*
X0073271Y0014398D01*
X0073245Y0014554D01*
X0073224Y0014711D01*
X0073206Y0014868D01*
X0073192Y0015026D01*
X0073182Y0015184D01*
X0073176Y0015342D01*
X0073174Y0015500D01*
X0041218Y0146740D02*
X0041220Y0146821D01*
X0041226Y0146903D01*
X0041236Y0146984D01*
X0041250Y0147064D01*
X0041267Y0147143D01*
X0041289Y0147222D01*
X0041314Y0147299D01*
X0041343Y0147376D01*
X0041376Y0147450D01*
X0041413Y0147523D01*
X0041452Y0147594D01*
X0041496Y0147663D01*
X0041542Y0147730D01*
X0041592Y0147794D01*
X0041645Y0147856D01*
X0041701Y0147916D01*
X0041759Y0147972D01*
X0041821Y0148026D01*
X0041885Y0148077D01*
X0041951Y0148124D01*
X0042019Y0148168D01*
X0042090Y0148209D01*
X0042162Y0148246D01*
X0042237Y0148280D01*
X0042312Y0148310D01*
X0042390Y0148336D01*
X0042468Y0148359D01*
X0042547Y0148377D01*
X0042627Y0148392D01*
X0042708Y0148403D01*
X0042789Y0148410D01*
X0042871Y0148413D01*
X0042952Y0148412D01*
X0043033Y0148407D01*
X0043114Y0148398D01*
X0043195Y0148385D01*
X0043275Y0148368D01*
X0043353Y0148348D01*
X0043431Y0148323D01*
X0043508Y0148295D01*
X0043583Y0148263D01*
X0043656Y0148228D01*
X0043727Y0148189D01*
X0043797Y0148146D01*
X0043864Y0148101D01*
X0043930Y0148052D01*
X0043992Y0148000D01*
X0044052Y0147944D01*
X0044109Y0147886D01*
X0044164Y0147826D01*
X0044215Y0147762D01*
X0044263Y0147697D01*
X0044308Y0147629D01*
X0044350Y0147559D01*
X0044388Y0147487D01*
X0044423Y0147413D01*
X0044454Y0147338D01*
X0044481Y0147261D01*
X0044504Y0147183D01*
X0044524Y0147104D01*
X0044540Y0147024D01*
X0044552Y0146943D01*
X0044560Y0146862D01*
X0044564Y0146781D01*
X0044564Y0146699D01*
X0044560Y0146618D01*
X0044552Y0146537D01*
X0044540Y0146456D01*
X0044524Y0146376D01*
X0044504Y0146297D01*
X0044481Y0146219D01*
X0044454Y0146142D01*
X0044423Y0146067D01*
X0044388Y0145993D01*
X0044350Y0145921D01*
X0044308Y0145851D01*
X0044263Y0145783D01*
X0044215Y0145718D01*
X0044164Y0145654D01*
X0044109Y0145594D01*
X0044052Y0145536D01*
X0043992Y0145480D01*
X0043930Y0145428D01*
X0043864Y0145379D01*
X0043797Y0145334D01*
X0043728Y0145291D01*
X0043656Y0145252D01*
X0043583Y0145217D01*
X0043508Y0145185D01*
X0043431Y0145157D01*
X0043353Y0145132D01*
X0043275Y0145112D01*
X0043195Y0145095D01*
X0043114Y0145082D01*
X0043033Y0145073D01*
X0042952Y0145068D01*
X0042871Y0145067D01*
X0042789Y0145070D01*
X0042708Y0145077D01*
X0042627Y0145088D01*
X0042547Y0145103D01*
X0042468Y0145121D01*
X0042390Y0145144D01*
X0042312Y0145170D01*
X0042237Y0145200D01*
X0042162Y0145234D01*
X0042090Y0145271D01*
X0042019Y0145312D01*
X0041951Y0145356D01*
X0041885Y0145403D01*
X0041821Y0145454D01*
X0041759Y0145508D01*
X0041701Y0145564D01*
X0041645Y0145624D01*
X0041592Y0145686D01*
X0041542Y0145750D01*
X0041496Y0145817D01*
X0041452Y0145886D01*
X0041413Y0145957D01*
X0041376Y0146030D01*
X0041343Y0146104D01*
X0041314Y0146181D01*
X0041289Y0146258D01*
X0041267Y0146337D01*
X0041250Y0146416D01*
X0041236Y0146496D01*
X0041226Y0146577D01*
X0041220Y0146659D01*
X0041218Y0146740D01*
X0041218Y0164260D02*
X0041220Y0164341D01*
X0041226Y0164423D01*
X0041236Y0164504D01*
X0041250Y0164584D01*
X0041267Y0164663D01*
X0041289Y0164742D01*
X0041314Y0164819D01*
X0041343Y0164896D01*
X0041376Y0164970D01*
X0041413Y0165043D01*
X0041452Y0165114D01*
X0041496Y0165183D01*
X0041542Y0165250D01*
X0041592Y0165314D01*
X0041645Y0165376D01*
X0041701Y0165436D01*
X0041759Y0165492D01*
X0041821Y0165546D01*
X0041885Y0165597D01*
X0041951Y0165644D01*
X0042019Y0165688D01*
X0042090Y0165729D01*
X0042162Y0165766D01*
X0042237Y0165800D01*
X0042312Y0165830D01*
X0042390Y0165856D01*
X0042468Y0165879D01*
X0042547Y0165897D01*
X0042627Y0165912D01*
X0042708Y0165923D01*
X0042789Y0165930D01*
X0042871Y0165933D01*
X0042952Y0165932D01*
X0043033Y0165927D01*
X0043114Y0165918D01*
X0043195Y0165905D01*
X0043275Y0165888D01*
X0043353Y0165868D01*
X0043431Y0165843D01*
X0043508Y0165815D01*
X0043583Y0165783D01*
X0043656Y0165748D01*
X0043727Y0165709D01*
X0043797Y0165666D01*
X0043864Y0165621D01*
X0043930Y0165572D01*
X0043992Y0165520D01*
X0044052Y0165464D01*
X0044109Y0165406D01*
X0044164Y0165346D01*
X0044215Y0165282D01*
X0044263Y0165217D01*
X0044308Y0165149D01*
X0044350Y0165079D01*
X0044388Y0165007D01*
X0044423Y0164933D01*
X0044454Y0164858D01*
X0044481Y0164781D01*
X0044504Y0164703D01*
X0044524Y0164624D01*
X0044540Y0164544D01*
X0044552Y0164463D01*
X0044560Y0164382D01*
X0044564Y0164301D01*
X0044564Y0164219D01*
X0044560Y0164138D01*
X0044552Y0164057D01*
X0044540Y0163976D01*
X0044524Y0163896D01*
X0044504Y0163817D01*
X0044481Y0163739D01*
X0044454Y0163662D01*
X0044423Y0163587D01*
X0044388Y0163513D01*
X0044350Y0163441D01*
X0044308Y0163371D01*
X0044263Y0163303D01*
X0044215Y0163238D01*
X0044164Y0163174D01*
X0044109Y0163114D01*
X0044052Y0163056D01*
X0043992Y0163000D01*
X0043930Y0162948D01*
X0043864Y0162899D01*
X0043797Y0162854D01*
X0043728Y0162811D01*
X0043656Y0162772D01*
X0043583Y0162737D01*
X0043508Y0162705D01*
X0043431Y0162677D01*
X0043353Y0162652D01*
X0043275Y0162632D01*
X0043195Y0162615D01*
X0043114Y0162602D01*
X0043033Y0162593D01*
X0042952Y0162588D01*
X0042871Y0162587D01*
X0042789Y0162590D01*
X0042708Y0162597D01*
X0042627Y0162608D01*
X0042547Y0162623D01*
X0042468Y0162641D01*
X0042390Y0162664D01*
X0042312Y0162690D01*
X0042237Y0162720D01*
X0042162Y0162754D01*
X0042090Y0162791D01*
X0042019Y0162832D01*
X0041951Y0162876D01*
X0041885Y0162923D01*
X0041821Y0162974D01*
X0041759Y0163028D01*
X0041701Y0163084D01*
X0041645Y0163144D01*
X0041592Y0163206D01*
X0041542Y0163270D01*
X0041496Y0163337D01*
X0041452Y0163406D01*
X0041413Y0163477D01*
X0041376Y0163550D01*
X0041343Y0163624D01*
X0041314Y0163701D01*
X0041289Y0163778D01*
X0041267Y0163857D01*
X0041250Y0163936D01*
X0041236Y0164016D01*
X0041226Y0164097D01*
X0041220Y0164179D01*
X0041218Y0164260D01*
X0078174Y0205500D02*
X0078176Y0205658D01*
X0078182Y0205816D01*
X0078192Y0205974D01*
X0078206Y0206132D01*
X0078224Y0206289D01*
X0078245Y0206446D01*
X0078271Y0206602D01*
X0078301Y0206758D01*
X0078334Y0206913D01*
X0078372Y0207066D01*
X0078413Y0207219D01*
X0078458Y0207371D01*
X0078507Y0207522D01*
X0078560Y0207671D01*
X0078616Y0207819D01*
X0078676Y0207965D01*
X0078740Y0208110D01*
X0078808Y0208253D01*
X0078879Y0208395D01*
X0078953Y0208535D01*
X0079031Y0208672D01*
X0079113Y0208808D01*
X0079197Y0208942D01*
X0079286Y0209073D01*
X0079377Y0209202D01*
X0079472Y0209329D01*
X0079569Y0209454D01*
X0079670Y0209576D01*
X0079774Y0209695D01*
X0079881Y0209812D01*
X0079991Y0209926D01*
X0080104Y0210037D01*
X0080219Y0210146D01*
X0080337Y0210251D01*
X0080458Y0210353D01*
X0080581Y0210453D01*
X0080707Y0210549D01*
X0080835Y0210642D01*
X0080965Y0210732D01*
X0081098Y0210818D01*
X0081233Y0210902D01*
X0081369Y0210981D01*
X0081508Y0211058D01*
X0081649Y0211130D01*
X0081791Y0211200D01*
X0081935Y0211265D01*
X0082081Y0211327D01*
X0082228Y0211385D01*
X0082377Y0211440D01*
X0082527Y0211491D01*
X0082678Y0211538D01*
X0082830Y0211581D01*
X0082983Y0211620D01*
X0083138Y0211656D01*
X0083293Y0211687D01*
X0083449Y0211715D01*
X0083605Y0211739D01*
X0083762Y0211759D01*
X0083920Y0211775D01*
X0084077Y0211787D01*
X0084236Y0211795D01*
X0084394Y0211799D01*
X0084552Y0211799D01*
X0084710Y0211795D01*
X0084869Y0211787D01*
X0085026Y0211775D01*
X0085184Y0211759D01*
X0085341Y0211739D01*
X0085497Y0211715D01*
X0085653Y0211687D01*
X0085808Y0211656D01*
X0085963Y0211620D01*
X0086116Y0211581D01*
X0086268Y0211538D01*
X0086419Y0211491D01*
X0086569Y0211440D01*
X0086718Y0211385D01*
X0086865Y0211327D01*
X0087011Y0211265D01*
X0087155Y0211200D01*
X0087297Y0211130D01*
X0087438Y0211058D01*
X0087577Y0210981D01*
X0087713Y0210902D01*
X0087848Y0210818D01*
X0087981Y0210732D01*
X0088111Y0210642D01*
X0088239Y0210549D01*
X0088365Y0210453D01*
X0088488Y0210353D01*
X0088609Y0210251D01*
X0088727Y0210146D01*
X0088842Y0210037D01*
X0088955Y0209926D01*
X0089065Y0209812D01*
X0089172Y0209695D01*
X0089276Y0209576D01*
X0089377Y0209454D01*
X0089474Y0209329D01*
X0089569Y0209202D01*
X0089660Y0209073D01*
X0089749Y0208942D01*
X0089833Y0208808D01*
X0089915Y0208672D01*
X0089993Y0208535D01*
X0090067Y0208395D01*
X0090138Y0208253D01*
X0090206Y0208110D01*
X0090270Y0207965D01*
X0090330Y0207819D01*
X0090386Y0207671D01*
X0090439Y0207522D01*
X0090488Y0207371D01*
X0090533Y0207219D01*
X0090574Y0207066D01*
X0090612Y0206913D01*
X0090645Y0206758D01*
X0090675Y0206602D01*
X0090701Y0206446D01*
X0090722Y0206289D01*
X0090740Y0206132D01*
X0090754Y0205974D01*
X0090764Y0205816D01*
X0090770Y0205658D01*
X0090772Y0205500D01*
X0090770Y0205342D01*
X0090764Y0205184D01*
X0090754Y0205026D01*
X0090740Y0204868D01*
X0090722Y0204711D01*
X0090701Y0204554D01*
X0090675Y0204398D01*
X0090645Y0204242D01*
X0090612Y0204087D01*
X0090574Y0203934D01*
X0090533Y0203781D01*
X0090488Y0203629D01*
X0090439Y0203478D01*
X0090386Y0203329D01*
X0090330Y0203181D01*
X0090270Y0203035D01*
X0090206Y0202890D01*
X0090138Y0202747D01*
X0090067Y0202605D01*
X0089993Y0202465D01*
X0089915Y0202328D01*
X0089833Y0202192D01*
X0089749Y0202058D01*
X0089660Y0201927D01*
X0089569Y0201798D01*
X0089474Y0201671D01*
X0089377Y0201546D01*
X0089276Y0201424D01*
X0089172Y0201305D01*
X0089065Y0201188D01*
X0088955Y0201074D01*
X0088842Y0200963D01*
X0088727Y0200854D01*
X0088609Y0200749D01*
X0088488Y0200647D01*
X0088365Y0200547D01*
X0088239Y0200451D01*
X0088111Y0200358D01*
X0087981Y0200268D01*
X0087848Y0200182D01*
X0087713Y0200098D01*
X0087577Y0200019D01*
X0087438Y0199942D01*
X0087297Y0199870D01*
X0087155Y0199800D01*
X0087011Y0199735D01*
X0086865Y0199673D01*
X0086718Y0199615D01*
X0086569Y0199560D01*
X0086419Y0199509D01*
X0086268Y0199462D01*
X0086116Y0199419D01*
X0085963Y0199380D01*
X0085808Y0199344D01*
X0085653Y0199313D01*
X0085497Y0199285D01*
X0085341Y0199261D01*
X0085184Y0199241D01*
X0085026Y0199225D01*
X0084869Y0199213D01*
X0084710Y0199205D01*
X0084552Y0199201D01*
X0084394Y0199201D01*
X0084236Y0199205D01*
X0084077Y0199213D01*
X0083920Y0199225D01*
X0083762Y0199241D01*
X0083605Y0199261D01*
X0083449Y0199285D01*
X0083293Y0199313D01*
X0083138Y0199344D01*
X0082983Y0199380D01*
X0082830Y0199419D01*
X0082678Y0199462D01*
X0082527Y0199509D01*
X0082377Y0199560D01*
X0082228Y0199615D01*
X0082081Y0199673D01*
X0081935Y0199735D01*
X0081791Y0199800D01*
X0081649Y0199870D01*
X0081508Y0199942D01*
X0081369Y0200019D01*
X0081233Y0200098D01*
X0081098Y0200182D01*
X0080965Y0200268D01*
X0080835Y0200358D01*
X0080707Y0200451D01*
X0080581Y0200547D01*
X0080458Y0200647D01*
X0080337Y0200749D01*
X0080219Y0200854D01*
X0080104Y0200963D01*
X0079991Y0201074D01*
X0079881Y0201188D01*
X0079774Y0201305D01*
X0079670Y0201424D01*
X0079569Y0201546D01*
X0079472Y0201671D01*
X0079377Y0201798D01*
X0079286Y0201927D01*
X0079197Y0202058D01*
X0079113Y0202192D01*
X0079031Y0202328D01*
X0078953Y0202465D01*
X0078879Y0202605D01*
X0078808Y0202747D01*
X0078740Y0202890D01*
X0078676Y0203035D01*
X0078616Y0203181D01*
X0078560Y0203329D01*
X0078507Y0203478D01*
X0078458Y0203629D01*
X0078413Y0203781D01*
X0078372Y0203934D01*
X0078334Y0204087D01*
X0078301Y0204242D01*
X0078271Y0204398D01*
X0078245Y0204554D01*
X0078224Y0204711D01*
X0078206Y0204868D01*
X0078192Y0205026D01*
X0078182Y0205184D01*
X0078176Y0205342D01*
X0078174Y0205500D01*
D17*
X0080536Y0117961D02*
X0088410Y0117961D01*
X0088410Y0113039D02*
X0080536Y0113039D01*
D18*
X0084473Y0115500D03*
D19*
X0044180Y0115313D03*
X0044180Y0110687D03*
X0044180Y0120687D03*
X0044180Y0125313D03*
X0044180Y0100313D03*
X0044180Y0095687D03*
X0044180Y0090313D03*
X0044180Y0085687D03*
X0044180Y0075313D03*
X0044180Y0070687D03*
D20*
X0044180Y0073000D03*
X0044180Y0088000D03*
X0044180Y0098000D03*
X0044180Y0113000D03*
X0044180Y0123000D03*
D21*
X0264473Y0149122D03*
D22*
X0090851Y0038000D03*
D23*
X0114473Y0087626D03*
M02*
