G75*
G70*
%OFA0B0*%
%FSLAX24Y24*%
%IPPOS*%
%LPD*%
%AMOC8*
5,1,8,0,0,1.08239X$1,22.5*
%
%ADD10C,0.0000*%
%ADD11C,0.0100*%
%ADD12C,0.0740*%
%ADD13R,0.0740X0.0740*%
%ADD14OC8,0.0740*%
%ADD15R,0.0945X0.0787*%
%ADD16R,0.0909X0.0197*%
%ADD17R,0.0591X0.0197*%
%ADD18R,0.0197X0.0591*%
%ADD19R,0.0500X0.0220*%
%ADD20R,0.0220X0.0500*%
%ADD21R,0.0512X0.0591*%
%ADD22R,0.0472X0.0394*%
%ADD23R,0.0591X0.0512*%
%ADD24R,0.0472X0.0472*%
%ADD25R,0.0480X0.0880*%
%ADD26R,0.1417X0.0866*%
%ADD27C,0.1700*%
%ADD28R,0.0787X0.0472*%
%ADD29R,0.0551X0.0551*%
%ADD30R,0.0600X0.0300*%
%ADD31R,0.0460X0.0630*%
%ADD32C,0.0120*%
%ADD33C,0.0258*%
%ADD34C,0.0320*%
%ADD35C,0.0240*%
D10*
X007319Y001837D02*
X007321Y001887D01*
X007327Y001937D01*
X007337Y001986D01*
X007351Y002034D01*
X007368Y002081D01*
X007389Y002126D01*
X007414Y002170D01*
X007442Y002211D01*
X007474Y002250D01*
X007508Y002287D01*
X007545Y002321D01*
X007585Y002351D01*
X007627Y002378D01*
X007671Y002402D01*
X007717Y002423D01*
X007764Y002439D01*
X007812Y002452D01*
X007862Y002461D01*
X007911Y002466D01*
X007962Y002467D01*
X008012Y002464D01*
X008061Y002457D01*
X008110Y002446D01*
X008158Y002431D01*
X008204Y002413D01*
X008249Y002391D01*
X008292Y002365D01*
X008333Y002336D01*
X008372Y002304D01*
X008408Y002269D01*
X008440Y002231D01*
X008470Y002191D01*
X008497Y002148D01*
X008520Y002104D01*
X008539Y002058D01*
X008555Y002010D01*
X008567Y001961D01*
X008575Y001912D01*
X008579Y001862D01*
X008579Y001812D01*
X008575Y001762D01*
X008567Y001713D01*
X008555Y001664D01*
X008539Y001616D01*
X008520Y001570D01*
X008497Y001526D01*
X008470Y001483D01*
X008440Y001443D01*
X008408Y001405D01*
X008372Y001370D01*
X008333Y001338D01*
X008292Y001309D01*
X008249Y001283D01*
X008204Y001261D01*
X008158Y001243D01*
X008110Y001228D01*
X008061Y001217D01*
X008012Y001210D01*
X007962Y001207D01*
X007911Y001208D01*
X007862Y001213D01*
X007812Y001222D01*
X007764Y001235D01*
X007717Y001251D01*
X007671Y001272D01*
X007627Y001296D01*
X007585Y001323D01*
X007545Y001353D01*
X007508Y001387D01*
X007474Y001424D01*
X007442Y001463D01*
X007414Y001504D01*
X007389Y001548D01*
X007368Y001593D01*
X007351Y001640D01*
X007337Y001688D01*
X007327Y001737D01*
X007321Y001787D01*
X007319Y001837D01*
X004396Y014970D02*
X004398Y014997D01*
X004404Y015024D01*
X004413Y015050D01*
X004426Y015074D01*
X004442Y015097D01*
X004461Y015116D01*
X004483Y015133D01*
X004507Y015147D01*
X004532Y015157D01*
X004559Y015164D01*
X004586Y015167D01*
X004614Y015166D01*
X004641Y015161D01*
X004667Y015153D01*
X004691Y015141D01*
X004714Y015125D01*
X004735Y015107D01*
X004752Y015086D01*
X004767Y015062D01*
X004778Y015037D01*
X004786Y015011D01*
X004790Y014984D01*
X004790Y014956D01*
X004786Y014929D01*
X004778Y014903D01*
X004767Y014878D01*
X004752Y014854D01*
X004735Y014833D01*
X004714Y014815D01*
X004692Y014799D01*
X004667Y014787D01*
X004641Y014779D01*
X004614Y014774D01*
X004586Y014773D01*
X004559Y014776D01*
X004532Y014783D01*
X004507Y014793D01*
X004483Y014807D01*
X004461Y014824D01*
X004442Y014843D01*
X004426Y014866D01*
X004413Y014890D01*
X004404Y014916D01*
X004398Y014943D01*
X004396Y014970D01*
X004396Y016703D02*
X004398Y016730D01*
X004404Y016757D01*
X004413Y016783D01*
X004426Y016807D01*
X004442Y016830D01*
X004461Y016849D01*
X004483Y016866D01*
X004507Y016880D01*
X004532Y016890D01*
X004559Y016897D01*
X004586Y016900D01*
X004614Y016899D01*
X004641Y016894D01*
X004667Y016886D01*
X004691Y016874D01*
X004714Y016858D01*
X004735Y016840D01*
X004752Y016819D01*
X004767Y016795D01*
X004778Y016770D01*
X004786Y016744D01*
X004790Y016717D01*
X004790Y016689D01*
X004786Y016662D01*
X004778Y016636D01*
X004767Y016611D01*
X004752Y016587D01*
X004735Y016566D01*
X004714Y016548D01*
X004692Y016532D01*
X004667Y016520D01*
X004641Y016512D01*
X004614Y016507D01*
X004586Y016506D01*
X004559Y016509D01*
X004532Y016516D01*
X004507Y016526D01*
X004483Y016540D01*
X004461Y016557D01*
X004442Y016576D01*
X004426Y016599D01*
X004413Y016623D01*
X004404Y016649D01*
X004398Y016676D01*
X004396Y016703D01*
X007819Y020837D02*
X007821Y020887D01*
X007827Y020937D01*
X007837Y020986D01*
X007851Y021034D01*
X007868Y021081D01*
X007889Y021126D01*
X007914Y021170D01*
X007942Y021211D01*
X007974Y021250D01*
X008008Y021287D01*
X008045Y021321D01*
X008085Y021351D01*
X008127Y021378D01*
X008171Y021402D01*
X008217Y021423D01*
X008264Y021439D01*
X008312Y021452D01*
X008362Y021461D01*
X008411Y021466D01*
X008462Y021467D01*
X008512Y021464D01*
X008561Y021457D01*
X008610Y021446D01*
X008658Y021431D01*
X008704Y021413D01*
X008749Y021391D01*
X008792Y021365D01*
X008833Y021336D01*
X008872Y021304D01*
X008908Y021269D01*
X008940Y021231D01*
X008970Y021191D01*
X008997Y021148D01*
X009020Y021104D01*
X009039Y021058D01*
X009055Y021010D01*
X009067Y020961D01*
X009075Y020912D01*
X009079Y020862D01*
X009079Y020812D01*
X009075Y020762D01*
X009067Y020713D01*
X009055Y020664D01*
X009039Y020616D01*
X009020Y020570D01*
X008997Y020526D01*
X008970Y020483D01*
X008940Y020443D01*
X008908Y020405D01*
X008872Y020370D01*
X008833Y020338D01*
X008792Y020309D01*
X008749Y020283D01*
X008704Y020261D01*
X008658Y020243D01*
X008610Y020228D01*
X008561Y020217D01*
X008512Y020210D01*
X008462Y020207D01*
X008411Y020208D01*
X008362Y020213D01*
X008312Y020222D01*
X008264Y020235D01*
X008217Y020251D01*
X008171Y020272D01*
X008127Y020296D01*
X008085Y020323D01*
X008045Y020353D01*
X008008Y020387D01*
X007974Y020424D01*
X007942Y020463D01*
X007914Y020504D01*
X007889Y020548D01*
X007868Y020593D01*
X007851Y020640D01*
X007837Y020688D01*
X007827Y020737D01*
X007821Y020787D01*
X007819Y020837D01*
X027819Y014837D02*
X027821Y014887D01*
X027827Y014937D01*
X027837Y014986D01*
X027851Y015034D01*
X027868Y015081D01*
X027889Y015126D01*
X027914Y015170D01*
X027942Y015211D01*
X027974Y015250D01*
X028008Y015287D01*
X028045Y015321D01*
X028085Y015351D01*
X028127Y015378D01*
X028171Y015402D01*
X028217Y015423D01*
X028264Y015439D01*
X028312Y015452D01*
X028362Y015461D01*
X028411Y015466D01*
X028462Y015467D01*
X028512Y015464D01*
X028561Y015457D01*
X028610Y015446D01*
X028658Y015431D01*
X028704Y015413D01*
X028749Y015391D01*
X028792Y015365D01*
X028833Y015336D01*
X028872Y015304D01*
X028908Y015269D01*
X028940Y015231D01*
X028970Y015191D01*
X028997Y015148D01*
X029020Y015104D01*
X029039Y015058D01*
X029055Y015010D01*
X029067Y014961D01*
X029075Y014912D01*
X029079Y014862D01*
X029079Y014812D01*
X029075Y014762D01*
X029067Y014713D01*
X029055Y014664D01*
X029039Y014616D01*
X029020Y014570D01*
X028997Y014526D01*
X028970Y014483D01*
X028940Y014443D01*
X028908Y014405D01*
X028872Y014370D01*
X028833Y014338D01*
X028792Y014309D01*
X028749Y014283D01*
X028704Y014261D01*
X028658Y014243D01*
X028610Y014228D01*
X028561Y014217D01*
X028512Y014210D01*
X028462Y014207D01*
X028411Y014208D01*
X028362Y014213D01*
X028312Y014222D01*
X028264Y014235D01*
X028217Y014251D01*
X028171Y014272D01*
X028127Y014296D01*
X028085Y014323D01*
X028045Y014353D01*
X028008Y014387D01*
X027974Y014424D01*
X027942Y014463D01*
X027914Y014504D01*
X027889Y014548D01*
X027868Y014593D01*
X027851Y014640D01*
X027837Y014688D01*
X027827Y014737D01*
X027821Y014787D01*
X027819Y014837D01*
X027819Y003837D02*
X027821Y003887D01*
X027827Y003937D01*
X027837Y003986D01*
X027851Y004034D01*
X027868Y004081D01*
X027889Y004126D01*
X027914Y004170D01*
X027942Y004211D01*
X027974Y004250D01*
X028008Y004287D01*
X028045Y004321D01*
X028085Y004351D01*
X028127Y004378D01*
X028171Y004402D01*
X028217Y004423D01*
X028264Y004439D01*
X028312Y004452D01*
X028362Y004461D01*
X028411Y004466D01*
X028462Y004467D01*
X028512Y004464D01*
X028561Y004457D01*
X028610Y004446D01*
X028658Y004431D01*
X028704Y004413D01*
X028749Y004391D01*
X028792Y004365D01*
X028833Y004336D01*
X028872Y004304D01*
X028908Y004269D01*
X028940Y004231D01*
X028970Y004191D01*
X028997Y004148D01*
X029020Y004104D01*
X029039Y004058D01*
X029055Y004010D01*
X029067Y003961D01*
X029075Y003912D01*
X029079Y003862D01*
X029079Y003812D01*
X029075Y003762D01*
X029067Y003713D01*
X029055Y003664D01*
X029039Y003616D01*
X029020Y003570D01*
X028997Y003526D01*
X028970Y003483D01*
X028940Y003443D01*
X028908Y003405D01*
X028872Y003370D01*
X028833Y003338D01*
X028792Y003309D01*
X028749Y003283D01*
X028704Y003261D01*
X028658Y003243D01*
X028610Y003228D01*
X028561Y003217D01*
X028512Y003210D01*
X028462Y003207D01*
X028411Y003208D01*
X028362Y003213D01*
X028312Y003222D01*
X028264Y003235D01*
X028217Y003251D01*
X028171Y003272D01*
X028127Y003296D01*
X028085Y003323D01*
X028045Y003353D01*
X028008Y003387D01*
X027974Y003424D01*
X027942Y003463D01*
X027914Y003504D01*
X027889Y003548D01*
X027868Y003593D01*
X027851Y003640D01*
X027837Y003688D01*
X027827Y003737D01*
X027821Y003787D01*
X027819Y003837D01*
D11*
X002449Y001230D02*
X002449Y021443D01*
X002451Y021482D01*
X002457Y021520D01*
X002466Y021557D01*
X002479Y021594D01*
X002496Y021629D01*
X002515Y021662D01*
X002538Y021693D01*
X002564Y021722D01*
X002593Y021748D01*
X002624Y021771D01*
X002657Y021790D01*
X002692Y021807D01*
X002729Y021820D01*
X002766Y021829D01*
X002804Y021835D01*
X002843Y021837D01*
X027849Y021837D01*
X028449Y021237D01*
X028449Y016737D01*
X029449Y015737D01*
X029449Y002837D01*
X028449Y001837D01*
X028449Y001230D01*
X028447Y001191D01*
X028441Y001153D01*
X028432Y001116D01*
X028419Y001079D01*
X028402Y001044D01*
X028383Y001011D01*
X028360Y000980D01*
X028334Y000951D01*
X028305Y000925D01*
X028274Y000902D01*
X028241Y000883D01*
X028206Y000866D01*
X028169Y000853D01*
X028132Y000844D01*
X028094Y000838D01*
X028055Y000836D01*
X028055Y000837D02*
X002843Y000837D01*
X002843Y000836D02*
X002804Y000838D01*
X002766Y000844D01*
X002729Y000853D01*
X002692Y000866D01*
X002657Y000883D01*
X002624Y000902D01*
X002593Y000925D01*
X002564Y000951D01*
X002538Y000980D01*
X002515Y001011D01*
X002496Y001044D01*
X002479Y001079D01*
X002466Y001116D01*
X002457Y001153D01*
X002451Y001191D01*
X002449Y001230D01*
X009199Y016337D02*
X009199Y017337D01*
X010199Y016437D02*
X010199Y018237D01*
X027999Y012337D02*
X027999Y010337D01*
D12*
X027449Y001837D03*
X026449Y001837D03*
X025449Y001837D03*
X024449Y001837D03*
X023449Y001837D03*
X022449Y001837D03*
X020449Y001837D03*
X019449Y001837D03*
X018449Y001837D03*
X017449Y001837D03*
X016449Y001837D03*
X015449Y001837D03*
X015849Y020837D03*
X014849Y020837D03*
X013849Y020837D03*
X012849Y020837D03*
X011849Y020837D03*
X010849Y020837D03*
X009849Y020837D03*
X016849Y020837D03*
X017849Y020837D03*
X020449Y020837D03*
X021449Y020837D03*
X022449Y020837D03*
X023449Y020837D03*
X024449Y020837D03*
X025449Y020837D03*
X026449Y020837D03*
D13*
X027449Y020837D03*
X018849Y020837D03*
D14*
X010699Y017837D03*
X009699Y017837D03*
X008699Y017837D03*
X008699Y016837D03*
X009699Y016837D03*
X010699Y016837D03*
X027499Y012837D03*
X028499Y012837D03*
X028499Y011837D03*
X027499Y011837D03*
X027499Y010837D03*
X028499Y010837D03*
D15*
X024749Y010874D03*
X024749Y009299D03*
X014999Y011349D03*
X014999Y012924D03*
X005577Y014104D03*
X003412Y014104D03*
X003412Y017569D03*
X005577Y017569D03*
D16*
X005799Y016466D03*
X005799Y016151D03*
X005799Y015837D03*
X005799Y015522D03*
X005799Y015207D03*
D17*
X018416Y010411D03*
X018416Y010096D03*
X018416Y009781D03*
X018416Y009466D03*
X018416Y009151D03*
X018416Y008837D03*
X018416Y008522D03*
X018416Y008207D03*
X018416Y007892D03*
X018416Y007577D03*
X018416Y007262D03*
X022983Y007262D03*
X022983Y007577D03*
X022983Y007892D03*
X022983Y008207D03*
X022983Y008522D03*
X022983Y008837D03*
X022983Y009151D03*
X022983Y009466D03*
X022983Y009781D03*
X022983Y010096D03*
X022983Y010411D03*
D18*
X022274Y011120D03*
X021959Y011120D03*
X021644Y011120D03*
X021329Y011120D03*
X021014Y011120D03*
X020699Y011120D03*
X020384Y011120D03*
X020069Y011120D03*
X019754Y011120D03*
X019439Y011120D03*
X019124Y011120D03*
X019124Y006553D03*
X019439Y006553D03*
X019754Y006553D03*
X020069Y006553D03*
X020384Y006553D03*
X020699Y006553D03*
X021014Y006553D03*
X021329Y006553D03*
X021644Y006553D03*
X021959Y006553D03*
X022274Y006553D03*
D19*
X013389Y011984D03*
X013389Y012299D03*
X013389Y012614D03*
X013389Y012929D03*
X013389Y013244D03*
X013389Y013559D03*
X013389Y013874D03*
X013389Y014189D03*
X010009Y014189D03*
X010009Y013874D03*
X010009Y013559D03*
X010009Y013244D03*
X010009Y012929D03*
X010009Y012614D03*
X010009Y012299D03*
X010009Y011984D03*
D20*
X010597Y011397D03*
X010912Y011397D03*
X011227Y011397D03*
X011542Y011397D03*
X011857Y011397D03*
X012172Y011397D03*
X012487Y011397D03*
X012801Y011397D03*
X012801Y014777D03*
X012487Y014777D03*
X012172Y014777D03*
X011857Y014777D03*
X011542Y014777D03*
X011227Y014777D03*
X010912Y014777D03*
X010597Y014777D03*
D21*
X008073Y014587D03*
X007325Y014587D03*
X007325Y013587D03*
X008073Y013587D03*
X006573Y012587D03*
X005825Y012587D03*
X005825Y011587D03*
X006573Y011587D03*
X006573Y010087D03*
X005825Y010087D03*
X005825Y009087D03*
X006573Y009087D03*
X006573Y007587D03*
X005825Y007587D03*
X005864Y006337D03*
X006534Y006337D03*
X008325Y005587D03*
X009073Y005587D03*
X009073Y008587D03*
X008325Y008587D03*
X010825Y010087D03*
X011573Y010087D03*
X009073Y010587D03*
X008325Y010587D03*
X014575Y014087D03*
X015323Y014087D03*
X020225Y012637D03*
X020973Y012637D03*
X021825Y005337D03*
X022573Y005337D03*
X015073Y004837D03*
X014325Y004837D03*
X008034Y015587D03*
X007364Y015587D03*
D22*
X008266Y009587D03*
X009132Y009587D03*
D23*
X016249Y010913D03*
X016249Y011661D03*
X016249Y012613D03*
X016249Y013361D03*
X013949Y015963D03*
X013949Y016711D03*
X012949Y016711D03*
X012949Y015963D03*
X011949Y015963D03*
X011949Y016711D03*
X017199Y007711D03*
X017199Y006963D03*
X024449Y007113D03*
X024449Y007861D03*
X025999Y008813D03*
X025999Y009561D03*
X025999Y010613D03*
X025999Y011361D03*
X025199Y012713D03*
X025199Y013461D03*
X024199Y013461D03*
X024199Y012713D03*
X025199Y015213D03*
X025199Y015961D03*
D24*
X004863Y012587D03*
X004036Y012587D03*
X004036Y011587D03*
X004863Y011587D03*
X004863Y010087D03*
X004036Y010087D03*
X004036Y009087D03*
X004863Y009087D03*
X004863Y007587D03*
X004036Y007587D03*
D25*
X010789Y005557D03*
X011699Y005557D03*
X012609Y005557D03*
D26*
X011699Y003116D03*
D27*
X006593Y003837D03*
X005412Y001986D03*
X004231Y003837D03*
D28*
X014148Y006337D03*
X015250Y006337D03*
D29*
X009447Y006587D03*
X009447Y007587D03*
X007951Y007587D03*
X007951Y006587D03*
X026199Y014839D03*
X026199Y016335D03*
D30*
X005949Y019537D03*
X005949Y021037D03*
X003949Y021037D03*
X003949Y019537D03*
D31*
X006899Y018837D03*
X007499Y018837D03*
D32*
X007949Y018837D01*
X008099Y018687D01*
X010749Y018687D01*
X011349Y018087D01*
X011349Y017687D01*
X011649Y017387D01*
X012649Y017387D01*
X012949Y017087D01*
X012949Y016711D01*
X013424Y016721D02*
X013889Y016721D01*
X013889Y016770D02*
X013889Y016651D01*
X013494Y016651D01*
X013494Y016434D01*
X013505Y016393D01*
X013526Y016356D01*
X013532Y016351D01*
X013474Y016293D01*
X013474Y016202D01*
X013424Y016202D01*
X013424Y016293D01*
X013381Y016337D01*
X013424Y016380D01*
X013424Y017028D01*
X013505Y017028D01*
X013494Y016988D01*
X013494Y016770D01*
X013889Y016770D01*
X013889Y016771D02*
X013889Y017126D01*
X013676Y017126D01*
X013711Y017162D01*
X013758Y017275D01*
X013758Y017398D01*
X013711Y017511D01*
X013624Y017598D01*
X013511Y017645D01*
X013388Y017645D01*
X013274Y017598D01*
X013252Y017576D01*
X013199Y017576D01*
X012935Y017840D01*
X012847Y017876D01*
X012751Y017876D01*
X011899Y017876D01*
X011839Y017936D01*
X011839Y018234D01*
X011803Y018322D01*
X011735Y018390D01*
X010985Y019140D01*
X010897Y019176D01*
X010801Y019176D01*
X008399Y019176D01*
X007985Y019590D01*
X007897Y019626D01*
X007801Y019626D01*
X007139Y019626D01*
X007139Y020784D01*
X007103Y020872D01*
X007035Y020940D01*
X006735Y021240D01*
X006647Y021276D01*
X006551Y021276D01*
X006414Y021276D01*
X006324Y021366D01*
X005575Y021366D01*
X005485Y021276D01*
X004414Y021276D01*
X004324Y021366D01*
X003575Y021366D01*
X003469Y021261D01*
X003469Y020812D01*
X003575Y020707D01*
X004324Y020707D01*
X004414Y020797D01*
X005485Y020797D01*
X005575Y020707D01*
X006324Y020707D01*
X006414Y020797D01*
X006500Y020797D01*
X006659Y020637D01*
X006659Y019434D01*
X006659Y019339D01*
X006659Y019331D01*
X006595Y019331D01*
X006489Y019226D01*
X006489Y018447D01*
X006595Y018342D01*
X007204Y018342D01*
X007804Y018342D01*
X007909Y018447D01*
X007909Y018537D01*
X007963Y018483D01*
X008051Y018447D01*
X008970Y018447D01*
X008910Y018386D01*
X008471Y018386D01*
X008149Y018064D01*
X008149Y017609D01*
X008421Y017336D01*
X008149Y017064D01*
X008149Y016609D01*
X008459Y016299D01*
X008459Y016134D01*
X008459Y016039D01*
X008496Y015951D01*
X008520Y015926D01*
X008470Y015926D01*
X008470Y015956D01*
X008364Y016062D01*
X007703Y016062D01*
X007699Y016058D01*
X007695Y016062D01*
X007689Y016062D01*
X007689Y016254D01*
X007637Y016379D01*
X007542Y016475D01*
X007292Y016725D01*
X007167Y016776D01*
X007031Y016776D01*
X006681Y016776D01*
X006557Y016725D01*
X006538Y016706D01*
X006366Y016706D01*
X006328Y016745D01*
X005270Y016745D01*
X005165Y016639D01*
X005165Y016324D01*
X005165Y016009D01*
X005165Y015695D01*
X005165Y015349D01*
X005185Y015328D01*
X005185Y015326D01*
X005185Y015207D01*
X005799Y015207D01*
X005799Y015206D01*
X005799Y015206D01*
X005799Y014948D01*
X005324Y014948D01*
X005283Y014959D01*
X005247Y014980D01*
X005217Y015010D01*
X005196Y015046D01*
X005185Y015087D01*
X005185Y015206D01*
X005799Y015206D01*
X005799Y014948D01*
X006259Y014948D01*
X006259Y013834D01*
X006259Y013739D01*
X006296Y013651D01*
X006496Y013451D01*
X006563Y013383D01*
X006651Y013347D01*
X006889Y013347D01*
X006889Y013217D01*
X006995Y013111D01*
X007656Y013111D01*
X007699Y013155D01*
X007743Y013111D01*
X008404Y013111D01*
X008509Y013217D01*
X008509Y013290D01*
X008538Y013278D01*
X008661Y013278D01*
X008759Y013318D01*
X008759Y013227D01*
X008037Y012505D01*
X007985Y012380D01*
X007985Y012245D01*
X007985Y011052D01*
X007889Y010956D01*
X007889Y010217D01*
X007926Y010180D01*
X007926Y009934D01*
X007850Y009858D01*
X007850Y009315D01*
X007955Y009210D01*
X008198Y009210D01*
X008179Y009191D01*
X008095Y009106D01*
X008076Y009062D01*
X007995Y009062D01*
X007889Y008956D01*
X007889Y008217D01*
X007985Y008121D01*
X007985Y008087D01*
X007938Y008042D01*
X007601Y008042D01*
X007496Y007937D01*
X007496Y007379D01*
X007085Y007790D01*
X007009Y007821D01*
X007009Y007956D01*
X006904Y008062D01*
X006813Y008062D01*
X006813Y008611D01*
X006904Y008611D01*
X007009Y008717D01*
X007009Y009456D01*
X006904Y009562D01*
X006813Y009562D01*
X006813Y009611D01*
X006904Y009611D01*
X007009Y009717D01*
X007009Y010456D01*
X006904Y010562D01*
X006243Y010562D01*
X006199Y010518D01*
X006156Y010562D01*
X005495Y010562D01*
X005389Y010456D01*
X005389Y010326D01*
X005279Y010326D01*
X005279Y010397D01*
X005173Y010503D01*
X004552Y010503D01*
X004449Y010400D01*
X004401Y010449D01*
X004480Y010528D01*
X004511Y010528D01*
X004624Y010575D01*
X004711Y010662D01*
X004758Y010775D01*
X004758Y010898D01*
X004711Y011011D01*
X004624Y011098D01*
X004511Y011145D01*
X004388Y011145D01*
X004274Y011098D01*
X004187Y011011D01*
X004140Y010898D01*
X004140Y010867D01*
X003832Y010559D01*
X003809Y010503D01*
X003725Y010503D01*
X003620Y010397D01*
X003620Y009776D01*
X003725Y009670D01*
X004150Y009670D01*
X004140Y009648D01*
X004140Y009617D01*
X004026Y009503D01*
X003725Y009503D01*
X003620Y009397D01*
X003620Y008776D01*
X003725Y008670D01*
X004346Y008670D01*
X004449Y008773D01*
X004552Y008670D01*
X005173Y008670D01*
X005279Y008776D01*
X005279Y008847D01*
X005389Y008847D01*
X005389Y008717D01*
X005495Y008611D01*
X006156Y008611D01*
X006199Y008655D01*
X006243Y008611D01*
X006333Y008611D01*
X006333Y008062D01*
X006243Y008062D01*
X006199Y008018D01*
X006156Y008062D01*
X005495Y008062D01*
X005389Y007956D01*
X005389Y007826D01*
X005279Y007826D01*
X005279Y007897D01*
X005173Y008003D01*
X004552Y008003D01*
X004446Y007897D01*
X004446Y007276D01*
X004552Y007170D01*
X005173Y007170D01*
X005279Y007276D01*
X005279Y007347D01*
X005389Y007347D01*
X005389Y007217D01*
X005495Y007111D01*
X006156Y007111D01*
X006199Y007155D01*
X006243Y007111D01*
X006904Y007111D01*
X006994Y007202D01*
X007246Y006951D01*
X007302Y006894D01*
X007257Y006875D01*
X007058Y006676D01*
X006970Y006676D01*
X006970Y006706D01*
X006864Y006812D01*
X006203Y006812D01*
X006199Y006808D01*
X006195Y006812D01*
X005534Y006812D01*
X005429Y006706D01*
X005429Y006381D01*
X005257Y006209D01*
X005161Y006114D01*
X005109Y005989D01*
X005109Y005048D01*
X005109Y004913D01*
X005161Y004788D01*
X005663Y004286D01*
X005633Y004234D01*
X005563Y003972D01*
X005563Y003701D01*
X005633Y003439D01*
X005769Y003204D01*
X005960Y003012D01*
X006195Y002877D01*
X006457Y002807D01*
X006728Y002807D01*
X006990Y002877D01*
X007225Y003012D01*
X007417Y003204D01*
X007553Y003439D01*
X007623Y003701D01*
X007623Y003972D01*
X007553Y004234D01*
X007417Y004469D01*
X007225Y004661D01*
X006990Y004796D01*
X006728Y004866D01*
X006457Y004866D01*
X006195Y004796D01*
X006144Y004766D01*
X005789Y005121D01*
X005789Y005780D01*
X005870Y005861D01*
X006195Y005861D01*
X006199Y005865D01*
X006203Y005861D01*
X006864Y005861D01*
X006970Y005967D01*
X006970Y005997D01*
X007267Y005997D01*
X007392Y006048D01*
X007487Y006144D01*
X007538Y006194D01*
X007601Y006131D01*
X008301Y006131D01*
X008407Y006236D01*
X008407Y006847D01*
X008709Y006847D01*
X008709Y006028D01*
X008685Y006004D01*
X008679Y006010D01*
X008643Y006031D01*
X008602Y006042D01*
X008385Y006042D01*
X008385Y005647D01*
X008265Y005647D01*
X008265Y006042D01*
X008048Y006042D01*
X008007Y006031D01*
X007971Y006010D01*
X007941Y005980D01*
X007920Y005944D01*
X007909Y005903D01*
X007909Y005646D01*
X008265Y005646D01*
X008265Y005527D01*
X007909Y005527D01*
X007909Y005270D01*
X007920Y005229D01*
X007941Y005193D01*
X007971Y005163D01*
X008007Y005142D01*
X008048Y005131D01*
X008265Y005131D01*
X008265Y005526D01*
X008385Y005526D01*
X008385Y005131D01*
X008602Y005131D01*
X008643Y005142D01*
X008679Y005163D01*
X008685Y005169D01*
X008709Y005145D01*
X008709Y002289D01*
X008746Y002201D01*
X008813Y002133D01*
X009313Y001633D01*
X009401Y001597D01*
X009497Y001597D01*
X013997Y001597D01*
X014085Y001633D01*
X014153Y001701D01*
X014585Y002133D01*
X014653Y002201D01*
X014689Y002289D01*
X014689Y003247D01*
X016808Y003247D01*
X017109Y002946D01*
X017109Y002274D01*
X016983Y002148D01*
X016949Y002067D01*
X016915Y002148D01*
X016761Y002303D01*
X016559Y002386D01*
X016340Y002386D01*
X016138Y002303D01*
X015983Y002148D01*
X015949Y002067D01*
X015915Y002148D01*
X015761Y002303D01*
X015559Y002386D01*
X015340Y002386D01*
X015138Y002303D01*
X014983Y002148D01*
X014899Y001946D01*
X014899Y001727D01*
X014983Y001525D01*
X015138Y001370D01*
X015340Y001287D01*
X015559Y001287D01*
X015761Y001370D01*
X015915Y001525D01*
X015949Y001606D01*
X015983Y001525D01*
X016138Y001370D01*
X016340Y001287D01*
X016559Y001287D01*
X016761Y001370D01*
X016915Y001525D01*
X016949Y001606D01*
X016983Y001525D01*
X017138Y001370D01*
X017340Y001287D01*
X017559Y001287D01*
X017761Y001370D01*
X017915Y001525D01*
X017959Y001631D01*
X017996Y001559D01*
X018045Y001491D01*
X018104Y001432D01*
X018171Y001383D01*
X018246Y001345D01*
X018325Y001320D01*
X018407Y001307D01*
X018409Y001307D01*
X018409Y001796D01*
X018489Y001796D01*
X018489Y001307D01*
X018491Y001307D01*
X018573Y001320D01*
X018653Y001345D01*
X018727Y001383D01*
X018794Y001432D01*
X018853Y001491D01*
X018902Y001559D01*
X018940Y001633D01*
X018949Y001660D01*
X018958Y001633D01*
X018996Y001559D01*
X019045Y001491D01*
X019104Y001432D01*
X019171Y001383D01*
X019246Y001345D01*
X019325Y001320D01*
X019407Y001307D01*
X019409Y001307D01*
X019409Y001796D01*
X019489Y001796D01*
X019489Y001307D01*
X019491Y001307D01*
X019573Y001320D01*
X019653Y001345D01*
X019727Y001383D01*
X019794Y001432D01*
X019853Y001491D01*
X019902Y001559D01*
X019939Y001631D01*
X019983Y001525D01*
X020138Y001370D01*
X020340Y001287D01*
X020559Y001287D01*
X020761Y001370D01*
X020915Y001525D01*
X020999Y001727D01*
X020999Y001946D01*
X020915Y002148D01*
X020761Y002303D01*
X020559Y002386D01*
X020340Y002386D01*
X020138Y002303D01*
X019983Y002148D01*
X019939Y002042D01*
X019902Y002114D01*
X019853Y002182D01*
X019794Y002241D01*
X019727Y002290D01*
X019653Y002328D01*
X019573Y002353D01*
X019491Y002366D01*
X019489Y002366D01*
X019489Y001877D01*
X019409Y001877D01*
X019409Y002366D01*
X019407Y002366D01*
X019325Y002353D01*
X019246Y002328D01*
X019171Y002290D01*
X019104Y002241D01*
X019045Y002182D01*
X018996Y002114D01*
X018958Y002040D01*
X018949Y002013D01*
X018940Y002040D01*
X018902Y002114D01*
X018853Y002182D01*
X018794Y002241D01*
X018727Y002290D01*
X018653Y002328D01*
X018573Y002353D01*
X018491Y002366D01*
X018489Y002366D01*
X018489Y001877D01*
X018409Y001877D01*
X018409Y002366D01*
X018407Y002366D01*
X018325Y002353D01*
X018246Y002328D01*
X018171Y002290D01*
X018104Y002241D01*
X018045Y002182D01*
X017996Y002114D01*
X017959Y002042D01*
X017915Y002148D01*
X017789Y002274D01*
X017789Y003019D01*
X017789Y003154D01*
X017737Y003279D01*
X017237Y003779D01*
X017142Y003875D01*
X017017Y003926D01*
X014689Y003926D01*
X014689Y004395D01*
X014713Y004419D01*
X014719Y004413D01*
X014755Y004392D01*
X014796Y004381D01*
X015013Y004381D01*
X015013Y004776D01*
X015133Y004776D01*
X015133Y004381D01*
X015350Y004381D01*
X015391Y004392D01*
X015427Y004413D01*
X015457Y004443D01*
X015478Y004479D01*
X015489Y004520D01*
X015489Y004777D01*
X015133Y004777D01*
X015133Y004896D01*
X015489Y004896D01*
X015489Y005153D01*
X015478Y005194D01*
X015457Y005230D01*
X015427Y005260D01*
X015391Y005281D01*
X015350Y005292D01*
X015133Y005292D01*
X015133Y004897D01*
X015013Y004897D01*
X015013Y005292D01*
X014796Y005292D01*
X014755Y005281D01*
X014719Y005260D01*
X014713Y005254D01*
X014689Y005278D01*
X014689Y005993D01*
X014717Y006022D01*
X014729Y006002D01*
X014758Y005972D01*
X014795Y005951D01*
X014836Y005940D01*
X015192Y005940D01*
X015192Y006278D01*
X015308Y006278D01*
X015308Y005940D01*
X015665Y005940D01*
X015706Y005951D01*
X015742Y005972D01*
X015772Y006002D01*
X015793Y006039D01*
X015804Y006079D01*
X015804Y006278D01*
X015309Y006278D01*
X015309Y006395D01*
X015804Y006395D01*
X015804Y006594D01*
X015793Y006634D01*
X015772Y006671D01*
X015742Y006701D01*
X015706Y006722D01*
X015665Y006733D01*
X015308Y006733D01*
X015308Y006395D01*
X015192Y006395D01*
X015192Y006733D01*
X014836Y006733D01*
X014795Y006722D01*
X014758Y006701D01*
X014729Y006671D01*
X014717Y006651D01*
X014689Y006680D01*
X014689Y007134D01*
X014653Y007222D01*
X014585Y007290D01*
X014234Y007641D01*
X015490Y008897D01*
X017917Y008897D01*
X017953Y008911D01*
X017960Y008911D01*
X017960Y008837D01*
X018415Y008837D01*
X018415Y008836D01*
X017960Y008836D01*
X017960Y008762D01*
X017682Y008762D01*
X017586Y008762D01*
X017498Y008725D01*
X017063Y008290D01*
X016996Y008222D01*
X016964Y008146D01*
X016829Y008146D01*
X016724Y008041D01*
X016724Y007380D01*
X016782Y007322D01*
X016776Y007317D01*
X016755Y007280D01*
X016744Y007239D01*
X016744Y007022D01*
X017139Y007022D01*
X017139Y006903D01*
X016744Y006903D01*
X016744Y006686D01*
X016755Y006645D01*
X016776Y006608D01*
X016806Y006579D01*
X016842Y006558D01*
X016883Y006547D01*
X017139Y006547D01*
X017139Y006902D01*
X017259Y006902D01*
X017259Y006547D01*
X017515Y006547D01*
X017556Y006558D01*
X017593Y006579D01*
X017609Y006595D01*
X017609Y006184D01*
X017609Y006089D01*
X017646Y006001D01*
X021263Y002383D01*
X021351Y002347D01*
X021447Y002347D01*
X022100Y002347D01*
X022142Y002304D01*
X022138Y002303D01*
X021983Y002148D01*
X021899Y001946D01*
X021899Y001727D01*
X021983Y001525D01*
X022138Y001370D01*
X022340Y001287D01*
X022559Y001287D01*
X022761Y001370D01*
X022915Y001525D01*
X022949Y001606D01*
X022983Y001525D01*
X023138Y001370D01*
X023340Y001287D01*
X023559Y001287D01*
X023761Y001370D01*
X023915Y001525D01*
X023949Y001606D01*
X023983Y001525D01*
X024138Y001370D01*
X024340Y001287D01*
X024559Y001287D01*
X024761Y001370D01*
X024915Y001525D01*
X024949Y001606D01*
X024983Y001525D01*
X025138Y001370D01*
X025340Y001287D01*
X025559Y001287D01*
X025761Y001370D01*
X025915Y001525D01*
X025949Y001606D01*
X025983Y001525D01*
X026138Y001370D01*
X026340Y001287D01*
X026559Y001287D01*
X026761Y001370D01*
X026915Y001525D01*
X026949Y001606D01*
X026983Y001525D01*
X027138Y001370D01*
X027340Y001287D01*
X027559Y001287D01*
X027761Y001370D01*
X027915Y001525D01*
X027999Y001727D01*
X027999Y001946D01*
X027915Y002148D01*
X027761Y002303D01*
X027689Y002332D01*
X027689Y002384D01*
X027653Y002472D01*
X027585Y002540D01*
X025835Y004290D01*
X025747Y004326D01*
X025651Y004326D01*
X021999Y004326D01*
X021228Y005097D01*
X021389Y005097D01*
X021389Y004967D01*
X021495Y004861D01*
X022156Y004861D01*
X022213Y004919D01*
X022219Y004913D01*
X022255Y004892D01*
X022296Y004881D01*
X022513Y004881D01*
X022513Y005276D01*
X022633Y005276D01*
X022633Y004881D01*
X022850Y004881D01*
X022891Y004892D01*
X022927Y004913D01*
X022957Y004943D01*
X022978Y004979D01*
X022989Y005020D01*
X022989Y005277D01*
X022633Y005277D01*
X022633Y005396D01*
X022989Y005396D01*
X022989Y005653D01*
X022978Y005694D01*
X022957Y005730D01*
X022927Y005760D01*
X022891Y005781D01*
X022850Y005792D01*
X022633Y005792D01*
X022633Y005397D01*
X022513Y005397D01*
X022513Y005792D01*
X022296Y005792D01*
X022255Y005781D01*
X022219Y005760D01*
X022213Y005754D01*
X022156Y005812D01*
X021495Y005812D01*
X021389Y005706D01*
X021389Y005576D01*
X021149Y005576D01*
X020627Y006098D01*
X020699Y006098D01*
X020699Y006553D01*
X020699Y006553D01*
X020699Y006098D01*
X020819Y006098D01*
X020821Y006098D01*
X020841Y006078D01*
X021156Y006078D01*
X021471Y006078D01*
X021786Y006078D01*
X022101Y006078D01*
X022447Y006078D01*
X022552Y006183D01*
X022552Y006923D01*
X022514Y006961D01*
X022514Y007027D01*
X022526Y007022D01*
X022574Y007022D01*
X022613Y006983D01*
X022743Y006983D01*
X022743Y006351D01*
X022743Y006255D01*
X022779Y006167D01*
X023246Y005701D01*
X023313Y005633D01*
X023401Y005597D01*
X027701Y005597D01*
X027797Y005597D01*
X027885Y005633D01*
X028385Y006133D01*
X028453Y006201D01*
X028489Y006289D01*
X028489Y009637D01*
X029219Y010367D01*
X029219Y004094D01*
X029136Y004295D01*
X028908Y004523D01*
X028610Y004646D01*
X028288Y004646D01*
X027990Y004523D01*
X027763Y004295D01*
X027639Y003998D01*
X027639Y003675D01*
X027763Y003378D01*
X027990Y003150D01*
X028288Y003027D01*
X028610Y003027D01*
X028908Y003150D01*
X029136Y003378D01*
X029219Y003579D01*
X029219Y002932D01*
X028354Y002066D01*
X028219Y001932D01*
X028219Y001325D01*
X028219Y001230D01*
X028216Y001198D01*
X028192Y001139D01*
X028146Y001094D01*
X028087Y001070D01*
X028055Y001066D01*
X008206Y001066D01*
X008408Y001150D01*
X008636Y001378D01*
X008759Y001675D01*
X008759Y001998D01*
X008636Y002295D01*
X008408Y002523D01*
X008110Y002646D01*
X007788Y002646D01*
X007490Y002523D01*
X007263Y002295D01*
X007139Y001998D01*
X007139Y001675D01*
X007263Y001378D01*
X007490Y001150D01*
X007692Y001066D01*
X005830Y001066D01*
X005901Y001101D01*
X005997Y001161D01*
X006086Y001232D01*
X006166Y001312D01*
X006237Y001401D01*
X006297Y001497D01*
X006346Y001599D01*
X006384Y001706D01*
X006409Y001817D01*
X006421Y001926D01*
X005472Y001926D01*
X005472Y002046D01*
X006421Y002046D01*
X006409Y002156D01*
X006384Y002266D01*
X006346Y002373D01*
X006297Y002475D01*
X006237Y002571D01*
X006166Y002660D01*
X006086Y002740D01*
X005997Y002811D01*
X005901Y002871D01*
X005799Y002921D01*
X005692Y002958D01*
X005581Y002983D01*
X005472Y002996D01*
X005472Y002046D01*
X005352Y002046D01*
X005352Y002996D01*
X005242Y002983D01*
X005132Y002958D01*
X005025Y002921D01*
X004922Y002871D01*
X004826Y002811D01*
X004738Y002740D01*
X004657Y002660D01*
X004587Y002571D01*
X004526Y002475D01*
X004477Y002373D01*
X004440Y002266D01*
X004414Y002156D01*
X004402Y002046D01*
X005352Y002046D01*
X005352Y001926D01*
X004402Y001926D01*
X004414Y001817D01*
X004440Y001706D01*
X004477Y001599D01*
X004526Y001497D01*
X004587Y001401D01*
X004657Y001312D01*
X004738Y001232D01*
X004826Y001161D01*
X004922Y001101D01*
X004994Y001066D01*
X002938Y001066D01*
X002843Y001066D01*
X002811Y001070D01*
X002752Y001094D01*
X002707Y001139D01*
X002682Y001198D01*
X002679Y001230D01*
X002679Y021348D01*
X002679Y021443D01*
X002682Y021475D01*
X002707Y021534D01*
X002752Y021579D01*
X002811Y021603D01*
X002843Y021607D01*
X008192Y021607D01*
X007990Y021523D01*
X007763Y021295D01*
X007639Y020998D01*
X007639Y020675D01*
X007763Y020378D01*
X007990Y020150D01*
X008288Y020027D01*
X008610Y020027D01*
X008908Y020150D01*
X009136Y020378D01*
X009259Y020675D01*
X009259Y020998D01*
X009136Y021295D01*
X008908Y021523D01*
X008706Y021607D01*
X027754Y021607D01*
X028219Y021141D01*
X028219Y016641D01*
X028354Y016507D01*
X029219Y015641D01*
X029219Y015094D01*
X029136Y015295D01*
X028908Y015523D01*
X028610Y015646D01*
X028288Y015646D01*
X027990Y015523D01*
X027763Y015295D01*
X027639Y014998D01*
X027639Y014675D01*
X027763Y014378D01*
X027990Y014150D01*
X028288Y014027D01*
X028610Y014027D01*
X028908Y014150D01*
X029136Y014378D01*
X029219Y014579D01*
X029219Y011656D01*
X029049Y011826D01*
X029049Y012064D01*
X028777Y012337D01*
X029049Y012609D01*
X029049Y013064D01*
X028727Y013386D01*
X028289Y013386D01*
X026675Y015000D01*
X026671Y015008D01*
X026655Y015022D01*
X026655Y015189D01*
X026549Y015294D01*
X026098Y015294D01*
X026050Y015345D01*
X026048Y015348D01*
X026017Y015380D01*
X025986Y015412D01*
X025983Y015414D01*
X025981Y015416D01*
X025940Y015433D01*
X025899Y015451D01*
X025896Y015451D01*
X025893Y015452D01*
X025848Y015452D01*
X025804Y015454D01*
X025800Y015452D01*
X025674Y015452D01*
X025674Y015543D01*
X025631Y015587D01*
X025674Y015630D01*
X025674Y015721D01*
X025800Y015721D01*
X025804Y015719D01*
X025848Y015721D01*
X025893Y015721D01*
X025896Y015722D01*
X025899Y015722D01*
X025940Y015740D01*
X025981Y015757D01*
X025983Y015759D01*
X025986Y015761D01*
X026017Y015793D01*
X026048Y015825D01*
X026050Y015828D01*
X026098Y015879D01*
X026549Y015879D01*
X026655Y015984D01*
X026655Y016685D01*
X026549Y016790D01*
X025849Y016790D01*
X025744Y016685D01*
X025744Y016203D01*
X025742Y016201D01*
X025674Y016201D01*
X025674Y016291D01*
X025569Y016396D01*
X025446Y016396D01*
X025461Y016412D01*
X025508Y016525D01*
X025508Y016648D01*
X025461Y016761D01*
X025374Y016848D01*
X025261Y016895D01*
X025138Y016895D01*
X025024Y016848D01*
X024937Y016761D01*
X024890Y016648D01*
X024890Y016525D01*
X024937Y016412D01*
X024952Y016396D01*
X024829Y016396D01*
X024724Y016291D01*
X024724Y015630D01*
X024767Y015587D01*
X024724Y015543D01*
X024724Y014882D01*
X024829Y014777D01*
X025569Y014777D01*
X025674Y014882D01*
X025674Y014973D01*
X025742Y014973D01*
X025744Y014970D01*
X025744Y014488D01*
X025849Y014383D01*
X026549Y014383D01*
X026581Y014415D01*
X027610Y013386D01*
X027271Y013386D01*
X026949Y013064D01*
X026949Y012609D01*
X027221Y012337D01*
X026949Y012064D01*
X026949Y011826D01*
X026763Y011640D01*
X026696Y011572D01*
X026659Y011484D01*
X026659Y010634D01*
X026659Y010539D01*
X026696Y010451D01*
X027509Y009637D01*
X027509Y006636D01*
X027450Y006576D01*
X024099Y006576D01*
X024039Y006636D01*
X024039Y006745D01*
X024056Y006729D01*
X024092Y006708D01*
X024133Y006697D01*
X024389Y006697D01*
X024389Y007052D01*
X024509Y007052D01*
X024509Y006697D01*
X024765Y006697D01*
X024806Y006708D01*
X024843Y006729D01*
X024872Y006758D01*
X024893Y006795D01*
X024904Y006836D01*
X024904Y007053D01*
X024509Y007053D01*
X024509Y007172D01*
X024904Y007172D01*
X024904Y007389D01*
X024893Y007430D01*
X024872Y007467D01*
X024867Y007472D01*
X024878Y007484D01*
X024887Y007462D01*
X024974Y007375D01*
X025088Y007328D01*
X025211Y007328D01*
X025324Y007375D01*
X025411Y007462D01*
X025458Y007575D01*
X025458Y007698D01*
X025411Y007811D01*
X025324Y007898D01*
X025211Y007945D01*
X025180Y007945D01*
X025061Y008064D01*
X024973Y008101D01*
X024924Y008101D01*
X024924Y008191D01*
X024819Y008296D01*
X024329Y008296D01*
X023900Y008725D01*
X023812Y008762D01*
X023716Y008762D01*
X023438Y008762D01*
X023438Y008836D01*
X022983Y008836D01*
X022983Y008837D01*
X023438Y008837D01*
X023438Y008911D01*
X023766Y008911D01*
X023862Y008911D01*
X023950Y008948D01*
X024097Y009095D01*
X024097Y008831D01*
X024202Y008725D01*
X025296Y008725D01*
X025402Y008831D01*
X025402Y009059D01*
X025459Y009059D01*
X025545Y009095D01*
X025544Y009089D01*
X025544Y008872D01*
X025939Y008872D01*
X025939Y008753D01*
X025544Y008753D01*
X025544Y008536D01*
X025555Y008495D01*
X025576Y008458D01*
X025606Y008429D01*
X025642Y008408D01*
X025683Y008397D01*
X025939Y008397D01*
X025939Y008752D01*
X026059Y008752D01*
X026059Y008397D01*
X026315Y008397D01*
X026356Y008408D01*
X026393Y008429D01*
X026422Y008458D01*
X026443Y008495D01*
X026454Y008536D01*
X026454Y008753D01*
X026059Y008753D01*
X026059Y008872D01*
X026454Y008872D01*
X026454Y009089D01*
X026443Y009130D01*
X026422Y009167D01*
X026417Y009172D01*
X026474Y009230D01*
X026474Y009891D01*
X026369Y009996D01*
X025629Y009996D01*
X025524Y009891D01*
X025524Y009751D01*
X025496Y009722D01*
X025402Y009628D01*
X025402Y009767D01*
X025296Y009873D01*
X024610Y009873D01*
X024635Y009883D01*
X024885Y010133D01*
X024953Y010201D01*
X025604Y010201D01*
X025629Y010177D02*
X026369Y010177D01*
X026474Y010282D01*
X026474Y010943D01*
X026417Y011001D01*
X026422Y011006D01*
X026443Y011043D01*
X026454Y011084D01*
X026454Y011301D01*
X026059Y011301D01*
X026059Y011420D01*
X026454Y011420D01*
X026454Y011638D01*
X026443Y011678D01*
X026422Y011715D01*
X026393Y011744D01*
X026356Y011766D01*
X026315Y011776D01*
X026059Y011776D01*
X026059Y011421D01*
X025939Y011421D01*
X025939Y011776D01*
X025683Y011776D01*
X025642Y011766D01*
X025606Y011744D01*
X025576Y011715D01*
X025555Y011678D01*
X025544Y011638D01*
X025544Y011420D01*
X025939Y011420D01*
X025939Y011301D01*
X025544Y011301D01*
X025544Y011084D01*
X025545Y011078D01*
X025459Y011114D01*
X025402Y011114D01*
X025402Y011342D01*
X025296Y011448D01*
X024202Y011448D01*
X024097Y011342D01*
X024097Y010406D01*
X024183Y010319D01*
X024113Y010290D01*
X024089Y010266D01*
X024089Y011387D01*
X024903Y012201D01*
X024934Y012277D01*
X025569Y012277D01*
X025674Y012382D01*
X025674Y013043D01*
X025631Y013086D01*
X025674Y013130D01*
X025674Y013791D01*
X025569Y013896D01*
X025446Y013896D01*
X025461Y013912D01*
X025508Y014025D01*
X025508Y014148D01*
X025461Y014261D01*
X025374Y014348D01*
X025261Y014395D01*
X025138Y014395D01*
X025024Y014348D01*
X024939Y014263D01*
X024939Y014289D01*
X024939Y014384D01*
X024903Y014472D01*
X024089Y015286D01*
X024089Y018587D01*
X024449Y018947D01*
X026251Y018947D01*
X026347Y018947D01*
X026435Y018983D01*
X027585Y020133D01*
X027653Y020201D01*
X027688Y020287D01*
X027894Y020287D01*
X027999Y020392D01*
X027999Y021281D01*
X027894Y021386D01*
X027005Y021386D01*
X026899Y021281D01*
X026899Y021164D01*
X026761Y021303D01*
X026559Y021386D01*
X026340Y021386D01*
X026138Y021303D01*
X025983Y021148D01*
X025949Y021067D01*
X025915Y021148D01*
X025761Y021303D01*
X025559Y021386D01*
X025340Y021386D01*
X025138Y021303D01*
X024983Y021148D01*
X024949Y021067D01*
X024915Y021148D01*
X024761Y021303D01*
X024559Y021386D01*
X024340Y021386D01*
X024138Y021303D01*
X023983Y021148D01*
X023949Y021067D01*
X023915Y021148D01*
X023761Y021303D01*
X023559Y021386D01*
X023340Y021386D01*
X023138Y021303D01*
X022983Y021148D01*
X022949Y021067D01*
X022915Y021148D01*
X022761Y021303D01*
X022559Y021386D01*
X022340Y021386D01*
X022138Y021303D01*
X021983Y021148D01*
X021949Y021067D01*
X021915Y021148D01*
X021761Y021303D01*
X021559Y021386D01*
X021340Y021386D01*
X021138Y021303D01*
X020983Y021148D01*
X020949Y021067D01*
X020915Y021148D01*
X020761Y021303D01*
X020559Y021386D01*
X020340Y021386D01*
X020138Y021303D01*
X019983Y021148D01*
X019899Y020946D01*
X019899Y020727D01*
X019983Y020525D01*
X020138Y020370D01*
X020209Y020341D01*
X020209Y019866D01*
X019903Y020172D01*
X019835Y020240D01*
X019747Y020276D01*
X019249Y020276D01*
X019238Y020287D01*
X019294Y020287D01*
X019399Y020392D01*
X019399Y021281D01*
X019294Y021386D01*
X018405Y021386D01*
X018299Y021281D01*
X018299Y021164D01*
X018161Y021303D01*
X017959Y021386D01*
X017740Y021386D01*
X017538Y021303D01*
X017383Y021148D01*
X017349Y021067D01*
X017315Y021148D01*
X017161Y021303D01*
X016959Y021386D01*
X016740Y021386D01*
X016538Y021303D01*
X016383Y021148D01*
X016349Y021067D01*
X016315Y021148D01*
X016161Y021303D01*
X015959Y021386D01*
X015740Y021386D01*
X015538Y021303D01*
X015383Y021148D01*
X015349Y021067D01*
X015315Y021148D01*
X015161Y021303D01*
X014959Y021386D01*
X014740Y021386D01*
X014538Y021303D01*
X014383Y021148D01*
X014349Y021067D01*
X014315Y021148D01*
X014161Y021303D01*
X013959Y021386D01*
X013740Y021386D01*
X013538Y021303D01*
X013383Y021148D01*
X013339Y021042D01*
X013302Y021114D01*
X013253Y021182D01*
X013194Y021241D01*
X013127Y021290D01*
X013053Y021328D01*
X012973Y021353D01*
X012891Y021366D01*
X012889Y021366D01*
X012889Y020877D01*
X012809Y020877D01*
X012809Y021366D01*
X012807Y021366D01*
X012725Y021353D01*
X012646Y021328D01*
X012571Y021290D01*
X012504Y021241D01*
X012445Y021182D01*
X012396Y021114D01*
X012359Y021042D01*
X012315Y021148D01*
X012161Y021303D01*
X011959Y021386D01*
X011740Y021386D01*
X011538Y021303D01*
X011383Y021148D01*
X011349Y021067D01*
X011315Y021148D01*
X011161Y021303D01*
X010959Y021386D01*
X010740Y021386D01*
X010538Y021303D01*
X010383Y021148D01*
X010349Y021067D01*
X010315Y021148D01*
X010161Y021303D01*
X009959Y021386D01*
X009740Y021386D01*
X009538Y021303D01*
X009383Y021148D01*
X009299Y020946D01*
X009299Y020727D01*
X009383Y020525D01*
X009538Y020370D01*
X009609Y020341D01*
X009609Y020289D01*
X009646Y020201D01*
X009896Y019951D01*
X009963Y019883D01*
X010051Y019847D01*
X010760Y019847D01*
X010740Y019798D01*
X010740Y019675D01*
X010787Y019562D01*
X010874Y019475D01*
X010988Y019428D01*
X011111Y019428D01*
X011224Y019475D01*
X011296Y019547D01*
X013500Y019547D01*
X014596Y018451D01*
X014596Y018451D01*
X014663Y018383D01*
X014751Y018347D01*
X017400Y018347D01*
X018013Y017733D01*
X018101Y017697D01*
X018197Y017697D01*
X018850Y017697D01*
X019109Y017437D01*
X019109Y011939D01*
X019114Y011926D01*
X018646Y011926D01*
X018624Y011948D01*
X018511Y011995D01*
X018388Y011995D01*
X018274Y011948D01*
X018187Y011861D01*
X016724Y011861D01*
X016724Y011743D02*
X018140Y011743D01*
X018140Y011748D02*
X018140Y011625D01*
X018187Y011512D01*
X018274Y011425D01*
X018333Y011400D01*
X018290Y011298D01*
X018290Y011175D01*
X018337Y011062D01*
X018424Y010975D01*
X018538Y010928D01*
X018569Y010928D01*
X018613Y010883D01*
X018701Y010847D01*
X018797Y010847D01*
X018846Y010847D01*
X018846Y010750D01*
X018951Y010645D01*
X019297Y010645D01*
X019612Y010645D01*
X019927Y010645D01*
X020242Y010645D01*
X020263Y010665D01*
X020265Y010665D01*
X020384Y010665D01*
X020384Y011120D01*
X020384Y011575D01*
X020309Y011575D01*
X020309Y011619D01*
X020309Y011714D01*
X020273Y011802D01*
X019889Y012186D01*
X019889Y012203D01*
X019907Y012192D01*
X019948Y012181D01*
X020165Y012181D01*
X020165Y012576D01*
X020285Y012576D01*
X020285Y012181D01*
X020502Y012181D01*
X020543Y012192D01*
X020579Y012213D01*
X020585Y012219D01*
X020643Y012161D01*
X020684Y012161D01*
X020496Y011972D01*
X020459Y011884D01*
X020459Y011789D01*
X020459Y011575D01*
X020384Y011575D01*
X020384Y011120D01*
X020384Y011120D01*
X020384Y011120D01*
X020384Y010665D01*
X020359Y010604D01*
X020359Y009457D01*
X020292Y009525D01*
X020167Y009576D01*
X020031Y009576D01*
X019731Y009576D01*
X019607Y009525D01*
X019558Y009476D01*
X019481Y009476D01*
X018931Y009476D01*
X018891Y009460D01*
X018891Y009639D01*
X018891Y009954D01*
X018891Y010269D01*
X018891Y010584D01*
X018785Y010690D01*
X018046Y010690D01*
X017940Y010584D01*
X017940Y010269D01*
X017940Y009954D01*
X017940Y009639D01*
X017940Y009567D01*
X017917Y009576D01*
X015417Y009576D01*
X015281Y009576D01*
X015157Y009525D01*
X013458Y007826D01*
X012989Y007826D01*
X012989Y010837D01*
X013005Y010853D01*
X013041Y010941D01*
X013041Y011022D01*
X013091Y011072D01*
X013091Y011694D01*
X013714Y011694D01*
X013764Y011744D01*
X014347Y011744D01*
X014347Y010881D01*
X014452Y010775D01*
X015546Y010775D01*
X015652Y010881D01*
X015652Y011097D01*
X015747Y011097D01*
X015794Y011116D01*
X015794Y010972D01*
X016189Y010972D01*
X016189Y010853D01*
X015794Y010853D01*
X015794Y010636D01*
X015805Y010595D01*
X015826Y010558D01*
X015856Y010529D01*
X015892Y010508D01*
X015933Y010497D01*
X016189Y010497D01*
X016189Y010852D01*
X016309Y010852D01*
X016309Y010497D01*
X016565Y010497D01*
X016606Y010508D01*
X016643Y010529D01*
X016672Y010558D01*
X016693Y010595D01*
X016704Y010636D01*
X016704Y010853D01*
X016309Y010853D01*
X016309Y010972D01*
X016704Y010972D01*
X016704Y011189D01*
X016693Y011230D01*
X016672Y011267D01*
X016667Y011272D01*
X016724Y011330D01*
X016724Y011991D01*
X016619Y012096D01*
X015879Y012096D01*
X015774Y011991D01*
X015774Y011751D01*
X015652Y011628D01*
X015652Y011817D01*
X015546Y011923D01*
X015052Y011923D01*
X014839Y012136D01*
X015052Y012350D01*
X015546Y012350D01*
X015652Y012456D01*
X015652Y012595D01*
X015774Y012472D01*
X015774Y012282D01*
X015879Y012177D01*
X016619Y012177D01*
X016724Y012282D01*
X016724Y012943D01*
X016667Y013001D01*
X016672Y013006D01*
X016693Y013043D01*
X016704Y013084D01*
X016704Y013301D01*
X016309Y013301D01*
X016309Y013420D01*
X016704Y013420D01*
X016704Y013638D01*
X016693Y013678D01*
X016672Y013715D01*
X016643Y013744D01*
X016606Y013766D01*
X016565Y013776D01*
X016309Y013776D01*
X016309Y013421D01*
X016189Y013421D01*
X016189Y013776D01*
X015933Y013776D01*
X015892Y013766D01*
X015856Y013744D01*
X015826Y013715D01*
X015805Y013678D01*
X015794Y013638D01*
X015794Y013420D01*
X016189Y013420D01*
X016189Y013301D01*
X015794Y013301D01*
X015794Y013107D01*
X015747Y013126D01*
X015652Y013126D01*
X015652Y013392D01*
X015546Y013498D01*
X014452Y013498D01*
X014347Y013392D01*
X014347Y012539D01*
X013799Y012539D01*
X013799Y012614D01*
X013390Y012614D01*
X013390Y012614D01*
X013799Y012614D01*
X013799Y012714D01*
X013828Y012726D01*
X014035Y012933D01*
X014103Y013001D01*
X014139Y013089D01*
X014139Y013687D01*
X014154Y013702D01*
X014245Y013611D01*
X014906Y013611D01*
X014963Y013669D01*
X014969Y013663D01*
X015005Y013642D01*
X015046Y013631D01*
X015263Y013631D01*
X015263Y014026D01*
X015383Y014026D01*
X015383Y013631D01*
X015600Y013631D01*
X015641Y013642D01*
X015677Y013663D01*
X015707Y013693D01*
X015728Y013729D01*
X015739Y013770D01*
X015739Y014027D01*
X015383Y014027D01*
X015383Y014146D01*
X015739Y014146D01*
X015739Y014403D01*
X015728Y014444D01*
X015707Y014480D01*
X015677Y014510D01*
X015641Y014531D01*
X015600Y014542D01*
X015383Y014542D01*
X015383Y014147D01*
X015263Y014147D01*
X015263Y014542D01*
X015046Y014542D01*
X015005Y014531D01*
X014969Y014510D01*
X014963Y014504D01*
X014906Y014562D01*
X014245Y014562D01*
X014139Y014456D01*
X014139Y014321D01*
X014063Y014290D01*
X013996Y014222D01*
X013819Y014046D01*
X013819Y014373D01*
X013764Y014429D01*
X013874Y014475D01*
X013961Y014562D01*
X014008Y014675D01*
X014008Y014798D01*
X013961Y014911D01*
X013874Y014998D01*
X013761Y015045D01*
X013658Y015045D01*
X013658Y015148D01*
X013611Y015261D01*
X013524Y015348D01*
X013411Y015395D01*
X013288Y015395D01*
X013174Y015348D01*
X013087Y015261D01*
X013041Y015151D01*
X012986Y015206D01*
X012908Y015206D01*
X013085Y015383D01*
X013153Y015451D01*
X013184Y015527D01*
X013319Y015527D01*
X013424Y015632D01*
X013424Y015723D01*
X013474Y015723D01*
X013474Y015632D01*
X013579Y015527D01*
X014319Y015527D01*
X014424Y015632D01*
X014424Y016293D01*
X014367Y016351D01*
X014372Y016356D01*
X014393Y016393D01*
X014404Y016434D01*
X014404Y016651D01*
X014009Y016651D01*
X014009Y016770D01*
X014404Y016770D01*
X014404Y016988D01*
X014393Y017028D01*
X014372Y017065D01*
X014343Y017094D01*
X014306Y017116D01*
X014265Y017126D01*
X014009Y017126D01*
X014009Y016771D01*
X013889Y016771D01*
X013889Y016840D02*
X014009Y016840D01*
X014009Y016958D02*
X013889Y016958D01*
X013889Y017077D02*
X014009Y017077D01*
X013725Y017196D02*
X017909Y017196D01*
X017910Y017195D02*
X017954Y017197D01*
X018400Y017197D01*
X018509Y017087D01*
X018509Y012483D01*
X018487Y012461D01*
X018440Y012348D01*
X018440Y012225D01*
X018487Y012112D01*
X018574Y012025D01*
X018688Y011978D01*
X018811Y011978D01*
X018924Y012025D01*
X019011Y012112D01*
X019058Y012225D01*
X019058Y012348D01*
X019011Y012461D01*
X018989Y012483D01*
X018989Y017234D01*
X018953Y017322D01*
X018885Y017390D01*
X018635Y017640D01*
X018547Y017676D01*
X018451Y017676D01*
X018043Y017676D01*
X017416Y018259D01*
X017385Y018290D01*
X017381Y018292D01*
X017377Y018295D01*
X017337Y018310D01*
X017297Y018326D01*
X017292Y018326D01*
X017288Y018328D01*
X017244Y018326D01*
X014699Y018326D01*
X013635Y019390D01*
X013547Y019426D01*
X013451Y019426D01*
X012796Y019426D01*
X012774Y019448D01*
X012661Y019495D01*
X012538Y019495D01*
X012424Y019448D01*
X012337Y019361D01*
X012290Y019248D01*
X012290Y019125D01*
X012337Y019012D01*
X012424Y018925D01*
X012538Y018878D01*
X012661Y018878D01*
X012774Y018925D01*
X012796Y018947D01*
X013400Y018947D01*
X014396Y017951D01*
X014463Y017883D01*
X014551Y017847D01*
X017155Y017847D01*
X017782Y017264D01*
X017813Y017233D01*
X017817Y017231D01*
X017821Y017228D01*
X017861Y017213D01*
X017901Y017197D01*
X017906Y017197D01*
X017910Y017195D01*
X017926Y017196D02*
X018401Y017196D01*
X018509Y017077D02*
X014360Y017077D01*
X014404Y016958D02*
X018509Y016958D01*
X018509Y016840D02*
X014404Y016840D01*
X014404Y016603D02*
X018509Y016603D01*
X018509Y016721D02*
X014009Y016721D01*
X014378Y016366D02*
X018509Y016366D01*
X018509Y016484D02*
X014404Y016484D01*
X014424Y016247D02*
X018509Y016247D01*
X018509Y016129D02*
X014424Y016129D01*
X014424Y016010D02*
X018509Y016010D01*
X018509Y015892D02*
X014424Y015892D01*
X014424Y015773D02*
X018509Y015773D01*
X018509Y015654D02*
X014424Y015654D01*
X014328Y015536D02*
X018509Y015536D01*
X018509Y015417D02*
X013119Y015417D01*
X013125Y015299D02*
X013001Y015299D01*
X013012Y015180D02*
X013054Y015180D01*
X013349Y015087D02*
X013039Y014777D01*
X012801Y014777D01*
X012487Y014777D02*
X012487Y013774D01*
X011449Y012737D01*
X011199Y012737D01*
X011075Y012454D02*
X010889Y012454D01*
X010937Y012562D02*
X011024Y012475D01*
X011138Y012428D01*
X011261Y012428D01*
X011374Y012475D01*
X011396Y012497D01*
X011497Y012497D01*
X011585Y012533D01*
X011653Y012601D01*
X012690Y013638D01*
X012726Y013726D01*
X012726Y013822D01*
X012726Y014347D01*
X012959Y014347D01*
X012959Y014004D01*
X012959Y013689D01*
X012959Y013374D01*
X012959Y013276D01*
X012831Y013276D01*
X012707Y013225D01*
X012457Y012975D01*
X012361Y012879D01*
X012309Y012754D01*
X012309Y012375D01*
X012261Y012395D01*
X012138Y012395D01*
X012059Y012363D01*
X011974Y012448D01*
X011861Y012495D01*
X011738Y012495D01*
X011624Y012448D01*
X011537Y012361D01*
X011490Y012248D01*
X011490Y012125D01*
X011537Y012012D01*
X011617Y011932D01*
X011617Y011806D01*
X011542Y011806D01*
X011542Y011397D01*
X011541Y011397D01*
X011541Y011806D01*
X011431Y011806D01*
X011411Y011826D01*
X011042Y011826D01*
X010727Y011826D01*
X010628Y011826D01*
X010785Y011983D01*
X010853Y012051D01*
X010889Y012139D01*
X010889Y013810D01*
X010924Y013825D01*
X011011Y013912D01*
X011058Y014025D01*
X011058Y014148D01*
X011011Y014261D01*
X010926Y014347D01*
X011096Y014347D01*
X011411Y014347D01*
X011726Y014347D01*
X011932Y014347D01*
X011932Y014008D01*
X011366Y013443D01*
X011361Y013445D01*
X011238Y013445D01*
X011124Y013398D01*
X011037Y013311D01*
X010990Y013198D01*
X010990Y013075D01*
X011023Y012997D01*
X010937Y012911D01*
X010890Y012798D01*
X010890Y012675D01*
X010937Y012562D01*
X010933Y012572D02*
X010889Y012572D01*
X010889Y012691D02*
X010890Y012691D01*
X010889Y012809D02*
X010895Y012809D01*
X010889Y012928D02*
X010954Y012928D01*
X011002Y013046D02*
X010889Y013046D01*
X010889Y013165D02*
X010990Y013165D01*
X011026Y013284D02*
X010889Y013284D01*
X010889Y013402D02*
X011133Y013402D01*
X010889Y013521D02*
X011444Y013521D01*
X011562Y013639D02*
X010889Y013639D01*
X010889Y013758D02*
X011681Y013758D01*
X011799Y013876D02*
X010976Y013876D01*
X011045Y013995D02*
X011918Y013995D01*
X011932Y014113D02*
X011058Y014113D01*
X011023Y014232D02*
X011932Y014232D01*
X012172Y013909D02*
X011399Y013137D01*
X011299Y013137D01*
X011743Y012691D02*
X012309Y012691D01*
X012309Y012572D02*
X011624Y012572D01*
X011653Y012601D02*
X011653Y012601D01*
X011637Y012454D02*
X011324Y012454D01*
X011526Y012335D02*
X010889Y012335D01*
X010889Y012217D02*
X011490Y012217D01*
X011501Y012098D02*
X010872Y012098D01*
X010785Y011983D02*
X010785Y011983D01*
X010782Y011980D02*
X011569Y011980D01*
X011617Y011861D02*
X010663Y011861D01*
X010447Y011984D02*
X010649Y012187D01*
X010649Y013987D01*
X010749Y014087D01*
X010597Y014777D02*
X010587Y014787D01*
X010399Y014787D01*
X009199Y015987D01*
X009199Y016337D01*
X008699Y016087D02*
X008699Y016837D01*
X008149Y016840D02*
X004944Y016840D01*
X004970Y016778D02*
X004912Y016916D01*
X004806Y017022D01*
X004668Y017079D01*
X004518Y017079D01*
X004379Y017022D01*
X004273Y016916D01*
X004216Y016778D01*
X004216Y016628D01*
X004273Y016489D01*
X004379Y016383D01*
X004518Y016326D01*
X004668Y016326D01*
X004806Y016383D01*
X004912Y016489D01*
X004970Y016628D01*
X004970Y016778D01*
X004970Y016721D02*
X005247Y016721D01*
X005165Y016603D02*
X004959Y016603D01*
X004907Y016484D02*
X005165Y016484D01*
X005165Y016366D02*
X004764Y016366D01*
X004422Y016366D02*
X002679Y016366D01*
X002679Y016484D02*
X004278Y016484D01*
X004226Y016603D02*
X002679Y016603D01*
X002679Y016721D02*
X004216Y016721D01*
X004242Y016840D02*
X002679Y016840D01*
X002679Y016958D02*
X004316Y016958D01*
X004512Y017077D02*
X004041Y017077D01*
X004064Y017101D02*
X004064Y018037D01*
X003959Y018142D01*
X002865Y018142D01*
X002759Y018037D01*
X002759Y017101D01*
X002865Y016995D01*
X003959Y016995D01*
X004064Y017101D01*
X004064Y017196D02*
X004925Y017196D01*
X004925Y017101D02*
X005030Y016995D01*
X006124Y016995D01*
X006229Y017101D01*
X006229Y018037D01*
X006124Y018142D01*
X005030Y018142D01*
X004925Y018037D01*
X004925Y017101D01*
X004948Y017077D02*
X004674Y017077D01*
X004870Y016958D02*
X008149Y016958D01*
X008162Y017077D02*
X006206Y017077D01*
X006229Y017196D02*
X008280Y017196D01*
X008399Y017314D02*
X006229Y017314D01*
X006229Y017433D02*
X008325Y017433D01*
X008207Y017551D02*
X006229Y017551D01*
X006229Y017670D02*
X008149Y017670D01*
X008149Y017788D02*
X006229Y017788D01*
X006229Y017907D02*
X008149Y017907D01*
X008149Y018025D02*
X006229Y018025D01*
X006555Y018381D02*
X002679Y018381D01*
X002679Y018499D02*
X006489Y018499D01*
X006489Y018618D02*
X002679Y018618D01*
X002679Y018737D02*
X006489Y018737D01*
X006489Y018855D02*
X002679Y018855D01*
X002679Y018974D02*
X006489Y018974D01*
X006489Y019092D02*
X002679Y019092D01*
X002679Y019211D02*
X006489Y019211D01*
X006377Y019288D02*
X006398Y019325D01*
X006409Y019365D01*
X006409Y019521D01*
X005964Y019521D01*
X005964Y019227D01*
X006270Y019227D01*
X006311Y019237D01*
X006347Y019259D01*
X006377Y019288D01*
X006399Y019329D02*
X006592Y019329D01*
X006659Y019448D02*
X006409Y019448D01*
X006409Y019552D02*
X005964Y019552D01*
X005934Y019552D01*
X005934Y019846D01*
X005628Y019846D01*
X005587Y019836D01*
X005551Y019815D01*
X005521Y019785D01*
X005500Y019748D01*
X005489Y019708D01*
X005489Y019552D01*
X005934Y019552D01*
X005934Y019521D01*
X005964Y019521D01*
X005964Y019552D01*
X005964Y019846D01*
X006270Y019846D01*
X006311Y019836D01*
X006347Y019815D01*
X006377Y019785D01*
X006398Y019748D01*
X006409Y019708D01*
X006409Y019552D01*
X006409Y019566D02*
X006659Y019566D01*
X006659Y019685D02*
X006409Y019685D01*
X006358Y019803D02*
X006659Y019803D01*
X006659Y019922D02*
X002679Y019922D01*
X002679Y019803D02*
X003540Y019803D01*
X003551Y019815D02*
X003521Y019785D01*
X003500Y019748D01*
X003489Y019708D01*
X003489Y019552D01*
X003934Y019552D01*
X003934Y019846D01*
X003628Y019846D01*
X003587Y019836D01*
X003551Y019815D01*
X003489Y019685D02*
X002679Y019685D01*
X002679Y019566D02*
X003489Y019566D01*
X003489Y019521D02*
X003489Y019365D01*
X003500Y019325D01*
X003521Y019288D01*
X003551Y019259D01*
X003587Y019237D01*
X003628Y019227D01*
X003934Y019227D01*
X003934Y019521D01*
X003964Y019521D01*
X003964Y019227D01*
X004270Y019227D01*
X004311Y019237D01*
X004347Y019259D01*
X004377Y019288D01*
X004398Y019325D01*
X004409Y019365D01*
X004409Y019521D01*
X003964Y019521D01*
X003964Y019552D01*
X003934Y019552D01*
X003934Y019521D01*
X003489Y019521D01*
X003489Y019448D02*
X002679Y019448D01*
X002679Y019329D02*
X003499Y019329D01*
X003934Y019329D02*
X003964Y019329D01*
X003964Y019448D02*
X003934Y019448D01*
X003964Y019552D02*
X004409Y019552D01*
X004409Y019708D01*
X004398Y019748D01*
X004377Y019785D01*
X004347Y019815D01*
X004311Y019836D01*
X004270Y019846D01*
X003964Y019846D01*
X003964Y019552D01*
X003964Y019566D02*
X003934Y019566D01*
X003934Y019685D02*
X003964Y019685D01*
X003964Y019803D02*
X003934Y019803D01*
X004358Y019803D02*
X005540Y019803D01*
X005489Y019685D02*
X004409Y019685D01*
X004409Y019566D02*
X005489Y019566D01*
X005489Y019521D02*
X005489Y019365D01*
X005500Y019325D01*
X005521Y019288D01*
X005551Y019259D01*
X005587Y019237D01*
X005628Y019227D01*
X005934Y019227D01*
X005934Y019521D01*
X005489Y019521D01*
X005489Y019448D02*
X004409Y019448D01*
X004399Y019329D02*
X005499Y019329D01*
X005934Y019329D02*
X005964Y019329D01*
X005964Y019448D02*
X005934Y019448D01*
X005934Y019566D02*
X005964Y019566D01*
X005964Y019685D02*
X005934Y019685D01*
X005934Y019803D02*
X005964Y019803D01*
X006659Y020041D02*
X002679Y020041D01*
X002679Y020159D02*
X006659Y020159D01*
X006659Y020278D02*
X002679Y020278D01*
X002679Y020396D02*
X006659Y020396D01*
X006659Y020515D02*
X002679Y020515D01*
X002679Y020633D02*
X006659Y020633D01*
X006544Y020752D02*
X006369Y020752D01*
X006599Y021037D02*
X005949Y021037D01*
X003949Y021037D01*
X003469Y020989D02*
X002679Y020989D01*
X002679Y021107D02*
X003469Y021107D01*
X003469Y021226D02*
X002679Y021226D01*
X002679Y021345D02*
X003553Y021345D01*
X003469Y020870D02*
X002679Y020870D01*
X002679Y020752D02*
X003529Y020752D01*
X004369Y020752D02*
X005529Y020752D01*
X005553Y021345D02*
X004346Y021345D01*
X002758Y021582D02*
X008132Y021582D01*
X007930Y021463D02*
X002681Y021463D01*
X006346Y021345D02*
X007812Y021345D01*
X007734Y021226D02*
X006749Y021226D01*
X006868Y021107D02*
X007685Y021107D01*
X007639Y020989D02*
X006986Y020989D01*
X007103Y020870D02*
X007639Y020870D01*
X007639Y020752D02*
X007139Y020752D01*
X007139Y020633D02*
X007657Y020633D01*
X007706Y020515D02*
X007139Y020515D01*
X007139Y020396D02*
X007755Y020396D01*
X007863Y020278D02*
X007139Y020278D01*
X007139Y020159D02*
X007981Y020159D01*
X008254Y020041D02*
X007139Y020041D01*
X007139Y019922D02*
X009924Y019922D01*
X009806Y020041D02*
X008644Y020041D01*
X008917Y020159D02*
X009687Y020159D01*
X009614Y020278D02*
X009036Y020278D01*
X009143Y020396D02*
X009512Y020396D01*
X009393Y020515D02*
X009192Y020515D01*
X009242Y020633D02*
X009338Y020633D01*
X009299Y020752D02*
X009259Y020752D01*
X009259Y020870D02*
X009299Y020870D01*
X009317Y020989D02*
X009259Y020989D01*
X009214Y021107D02*
X009366Y021107D01*
X009461Y021226D02*
X009164Y021226D01*
X009086Y021345D02*
X009638Y021345D01*
X010060Y021345D02*
X010638Y021345D01*
X010461Y021226D02*
X010237Y021226D01*
X010332Y021107D02*
X010366Y021107D01*
X009849Y020837D02*
X009849Y020337D01*
X010099Y020087D01*
X013699Y020087D01*
X014899Y018887D01*
X017599Y018887D01*
X018249Y018237D01*
X019049Y018237D01*
X019649Y017637D01*
X019649Y012087D01*
X020069Y011666D01*
X020069Y011120D01*
X019754Y011120D02*
X019754Y011581D01*
X019349Y011987D01*
X019349Y017537D01*
X018949Y017937D01*
X018149Y017937D01*
X017499Y018587D01*
X014799Y018587D01*
X013599Y019787D01*
X011099Y019787D01*
X011049Y019737D01*
X010740Y019685D02*
X007139Y019685D01*
X007139Y019803D02*
X010743Y019803D01*
X010785Y019566D02*
X008009Y019566D01*
X008127Y019448D02*
X010939Y019448D01*
X011159Y019448D02*
X012424Y019448D01*
X012324Y019329D02*
X008246Y019329D01*
X008364Y019211D02*
X012290Y019211D01*
X012304Y019092D02*
X011033Y019092D01*
X011151Y018974D02*
X012375Y018974D01*
X012599Y019187D02*
X013499Y019187D01*
X014599Y018087D01*
X017249Y018087D01*
X017949Y017437D01*
X018499Y017437D01*
X018749Y017187D01*
X018749Y012287D01*
X018501Y012098D02*
X014877Y012098D01*
X014919Y012217D02*
X015839Y012217D01*
X015774Y012335D02*
X015037Y012335D01*
X014949Y012587D02*
X014949Y012874D01*
X014999Y012924D01*
X015037Y012887D01*
X015699Y012887D01*
X015973Y012613D01*
X016249Y012613D01*
X016724Y012572D02*
X018509Y012572D01*
X018509Y012691D02*
X016724Y012691D01*
X016724Y012809D02*
X018509Y012809D01*
X018509Y012928D02*
X016724Y012928D01*
X016694Y013046D02*
X018509Y013046D01*
X018509Y013165D02*
X016704Y013165D01*
X016704Y013284D02*
X018509Y013284D01*
X018509Y013402D02*
X016309Y013402D01*
X016309Y013521D02*
X016189Y013521D01*
X016189Y013639D02*
X016309Y013639D01*
X016309Y013758D02*
X016189Y013758D01*
X015879Y013758D02*
X015736Y013758D01*
X015739Y013876D02*
X018509Y013876D01*
X018509Y013758D02*
X016620Y013758D01*
X016704Y013639D02*
X018509Y013639D01*
X018509Y013521D02*
X016704Y013521D01*
X016189Y013402D02*
X015642Y013402D01*
X015652Y013284D02*
X015794Y013284D01*
X015794Y013165D02*
X015652Y013165D01*
X015794Y013521D02*
X014139Y013521D01*
X014139Y013639D02*
X014217Y013639D01*
X014139Y013402D02*
X014357Y013402D01*
X014347Y013284D02*
X014139Y013284D01*
X014139Y013165D02*
X014347Y013165D01*
X014347Y013046D02*
X014122Y013046D01*
X014030Y012928D02*
X014347Y012928D01*
X014347Y012809D02*
X013911Y012809D01*
X013799Y012691D02*
X014347Y012691D01*
X014347Y012572D02*
X013799Y012572D01*
X013692Y012929D02*
X013389Y012929D01*
X012907Y012929D01*
X012899Y012937D01*
X012647Y013165D02*
X012217Y013165D01*
X012098Y013046D02*
X012528Y013046D01*
X012410Y012928D02*
X011980Y012928D01*
X011861Y012809D02*
X012332Y012809D01*
X012309Y012454D02*
X011961Y012454D01*
X011799Y012187D02*
X011857Y012129D01*
X011857Y011397D01*
X012172Y011397D02*
X012199Y011424D01*
X012199Y012087D01*
X012487Y011774D02*
X012649Y011937D01*
X012801Y011784D01*
X012801Y011397D01*
X012801Y010989D01*
X012649Y010837D01*
X012487Y010999D01*
X012487Y011397D01*
X012487Y011774D01*
X013091Y011624D02*
X014347Y011624D01*
X014347Y011743D02*
X013762Y011743D01*
X013389Y011984D02*
X014651Y011984D01*
X014999Y011637D01*
X014999Y011349D01*
X015012Y011337D01*
X015699Y011337D01*
X016023Y011661D01*
X016249Y011661D01*
X016724Y011624D02*
X018141Y011624D01*
X018140Y011748D02*
X018187Y011861D01*
X018350Y011980D02*
X016724Y011980D01*
X016659Y012217D02*
X018444Y012217D01*
X018440Y012335D02*
X016724Y012335D01*
X016724Y012454D02*
X018484Y012454D01*
X018989Y012572D02*
X019109Y012572D01*
X019109Y012454D02*
X019014Y012454D01*
X019058Y012335D02*
X019109Y012335D01*
X019109Y012217D02*
X019054Y012217D01*
X018998Y012098D02*
X019109Y012098D01*
X019109Y011980D02*
X018815Y011980D01*
X018683Y011980D02*
X018549Y011980D01*
X018449Y011687D02*
X019249Y011687D01*
X019439Y011496D01*
X019439Y011120D01*
X019124Y011120D02*
X019091Y011087D01*
X018749Y011087D01*
X018599Y011237D01*
X018368Y011031D02*
X016704Y011031D01*
X016704Y011150D02*
X018301Y011150D01*
X018290Y011268D02*
X016671Y011268D01*
X016724Y011387D02*
X018327Y011387D01*
X018193Y011505D02*
X016724Y011505D01*
X016704Y010794D02*
X018846Y010794D01*
X018800Y010676D02*
X018920Y010676D01*
X018891Y010557D02*
X020359Y010557D01*
X020359Y010439D02*
X018891Y010439D01*
X018891Y010320D02*
X020359Y010320D01*
X020359Y010201D02*
X018891Y010201D01*
X018891Y010083D02*
X020359Y010083D01*
X020359Y009964D02*
X018891Y009964D01*
X018891Y009846D02*
X020359Y009846D01*
X020359Y009727D02*
X018891Y009727D01*
X018891Y009609D02*
X020359Y009609D01*
X020359Y009490D02*
X020326Y009490D01*
X021039Y009490D02*
X022507Y009490D01*
X022507Y009372D02*
X022145Y009372D01*
X022142Y009375D02*
X022017Y009426D01*
X021039Y009426D01*
X021039Y010604D01*
X021022Y010645D01*
X021187Y010645D01*
X021502Y010645D01*
X021817Y010645D01*
X022132Y010645D01*
X022447Y010645D01*
X022552Y010750D01*
X022552Y010880D01*
X022685Y010880D01*
X022780Y010880D01*
X022869Y010917D01*
X023009Y011057D01*
X023009Y010986D01*
X022779Y010756D01*
X022752Y010690D01*
X022613Y010690D01*
X022507Y010584D01*
X022507Y010238D01*
X022507Y009923D01*
X022507Y009608D01*
X022507Y009293D01*
X022507Y009009D01*
X022237Y009279D01*
X022142Y009375D01*
X022237Y009279D02*
X022237Y009279D01*
X022263Y009253D02*
X022507Y009253D01*
X022507Y009135D02*
X022382Y009135D01*
X022500Y009016D02*
X022507Y009016D01*
X022399Y008637D02*
X022514Y008522D01*
X022983Y008522D01*
X023764Y008522D01*
X024299Y007987D01*
X024323Y007987D01*
X024449Y007861D01*
X024925Y007861D01*
X025149Y007637D01*
X025018Y007356D02*
X024904Y007356D01*
X024904Y007238D02*
X027509Y007238D01*
X027509Y007356D02*
X025280Y007356D01*
X025417Y007475D02*
X027509Y007475D01*
X027509Y007594D02*
X025458Y007594D01*
X025452Y007712D02*
X027509Y007712D01*
X027509Y007831D02*
X025392Y007831D01*
X025176Y007949D02*
X027509Y007949D01*
X027509Y008068D02*
X025052Y008068D01*
X024924Y008186D02*
X027509Y008186D01*
X027509Y008305D02*
X024320Y008305D01*
X024202Y008423D02*
X025615Y008423D01*
X025544Y008542D02*
X024083Y008542D01*
X023965Y008660D02*
X025544Y008660D01*
X025350Y008779D02*
X025939Y008779D01*
X025939Y008660D02*
X026059Y008660D01*
X026059Y008542D02*
X025939Y008542D01*
X025939Y008423D02*
X026059Y008423D01*
X026383Y008423D02*
X027509Y008423D01*
X027509Y008542D02*
X026454Y008542D01*
X026454Y008660D02*
X027509Y008660D01*
X027509Y008779D02*
X026059Y008779D01*
X026454Y008897D02*
X027509Y008897D01*
X027509Y009016D02*
X026454Y009016D01*
X026441Y009135D02*
X027509Y009135D01*
X027509Y009253D02*
X026474Y009253D01*
X026474Y009372D02*
X027509Y009372D01*
X027509Y009490D02*
X026474Y009490D01*
X026474Y009609D02*
X027509Y009609D01*
X027419Y009727D02*
X026474Y009727D01*
X026474Y009846D02*
X027300Y009846D01*
X027182Y009964D02*
X026401Y009964D01*
X026394Y010201D02*
X026945Y010201D01*
X027063Y010083D02*
X024835Y010083D01*
X024953Y010201D02*
X024989Y010289D01*
X024989Y010300D01*
X025296Y010300D01*
X025402Y010406D01*
X025402Y010545D01*
X025496Y010451D01*
X025524Y010422D01*
X025524Y010282D01*
X025629Y010177D01*
X025524Y010320D02*
X025316Y010320D01*
X025402Y010439D02*
X025508Y010439D01*
X025699Y010587D02*
X025973Y010587D01*
X025999Y010613D01*
X025699Y010587D02*
X025412Y010874D01*
X024749Y010874D01*
X024749Y010337D01*
X024499Y010087D01*
X024249Y010087D01*
X023629Y009466D01*
X022983Y009466D01*
X022983Y009781D02*
X023494Y009781D01*
X023849Y010137D01*
X023849Y011487D01*
X024699Y012337D01*
X024699Y012637D01*
X024773Y012711D01*
X024773Y012713D01*
X024699Y012787D01*
X024699Y014337D01*
X023849Y015187D01*
X023849Y018687D01*
X024349Y019187D01*
X026299Y019187D01*
X027449Y020337D01*
X027449Y020837D01*
X027999Y020870D02*
X028219Y020870D01*
X028219Y020752D02*
X027999Y020752D01*
X027999Y020633D02*
X028219Y020633D01*
X028219Y020515D02*
X027999Y020515D01*
X027999Y020396D02*
X028219Y020396D01*
X028219Y020278D02*
X027684Y020278D01*
X027611Y020159D02*
X028219Y020159D01*
X028219Y020041D02*
X027493Y020041D01*
X027374Y019922D02*
X028219Y019922D01*
X028219Y019803D02*
X027255Y019803D01*
X027137Y019685D02*
X028219Y019685D01*
X028219Y019566D02*
X027018Y019566D01*
X026900Y019448D02*
X028219Y019448D01*
X028219Y019329D02*
X026781Y019329D01*
X026663Y019211D02*
X028219Y019211D01*
X028219Y019092D02*
X026544Y019092D01*
X026412Y018974D02*
X028219Y018974D01*
X028219Y018855D02*
X024357Y018855D01*
X024239Y018737D02*
X028219Y018737D01*
X028219Y018618D02*
X024120Y018618D01*
X024089Y018499D02*
X028219Y018499D01*
X028219Y018381D02*
X024089Y018381D01*
X024089Y018262D02*
X028219Y018262D01*
X028219Y018144D02*
X024089Y018144D01*
X024089Y018025D02*
X028219Y018025D01*
X028219Y017907D02*
X024089Y017907D01*
X024089Y017788D02*
X028219Y017788D01*
X028219Y017670D02*
X024089Y017670D01*
X024089Y017551D02*
X028219Y017551D01*
X028219Y017433D02*
X024089Y017433D01*
X024089Y017314D02*
X028219Y017314D01*
X028219Y017196D02*
X024089Y017196D01*
X024089Y017077D02*
X028219Y017077D01*
X028219Y016958D02*
X024089Y016958D01*
X024089Y016840D02*
X025016Y016840D01*
X024921Y016721D02*
X024089Y016721D01*
X024089Y016603D02*
X024890Y016603D01*
X024907Y016484D02*
X024089Y016484D01*
X024089Y016366D02*
X024799Y016366D01*
X024724Y016247D02*
X024089Y016247D01*
X024089Y016129D02*
X024724Y016129D01*
X024724Y016010D02*
X024089Y016010D01*
X024089Y015892D02*
X024724Y015892D01*
X024724Y015773D02*
X024089Y015773D01*
X024089Y015654D02*
X024724Y015654D01*
X024724Y015536D02*
X024089Y015536D01*
X024089Y015417D02*
X024724Y015417D01*
X024724Y015299D02*
X024089Y015299D01*
X024195Y015180D02*
X024724Y015180D01*
X024724Y015062D02*
X024313Y015062D01*
X024432Y014943D02*
X024724Y014943D01*
X024781Y014825D02*
X024550Y014825D01*
X024669Y014706D02*
X025744Y014706D01*
X025744Y014588D02*
X024787Y014588D01*
X024904Y014469D02*
X025763Y014469D01*
X025744Y014825D02*
X025617Y014825D01*
X025674Y014943D02*
X025744Y014943D01*
X025845Y015213D02*
X026199Y014839D01*
X026477Y014858D01*
X028499Y012837D01*
X029049Y012809D02*
X029219Y012809D01*
X029219Y012691D02*
X029049Y012691D01*
X029013Y012572D02*
X029219Y012572D01*
X029219Y012454D02*
X028894Y012454D01*
X028778Y012335D02*
X029219Y012335D01*
X029219Y012217D02*
X028897Y012217D01*
X029015Y012098D02*
X029219Y012098D01*
X029219Y011980D02*
X029049Y011980D01*
X029049Y011861D02*
X029219Y011861D01*
X029219Y011743D02*
X029133Y011743D01*
X029099Y011437D02*
X028699Y011837D01*
X028499Y011837D01*
X027999Y012337D02*
X027499Y012837D01*
X027168Y013284D02*
X025674Y013284D01*
X025674Y013402D02*
X027594Y013402D01*
X027476Y013521D02*
X025674Y013521D01*
X025674Y013639D02*
X027357Y013639D01*
X027238Y013758D02*
X025674Y013758D01*
X025589Y013876D02*
X027120Y013876D01*
X027001Y013995D02*
X025495Y013995D01*
X025508Y014113D02*
X026883Y014113D01*
X026764Y014232D02*
X025473Y014232D01*
X025369Y014350D02*
X026646Y014350D01*
X026969Y014706D02*
X027639Y014706D01*
X027639Y014825D02*
X026850Y014825D01*
X026732Y014943D02*
X027639Y014943D01*
X027666Y015062D02*
X026655Y015062D01*
X026655Y015180D02*
X027715Y015180D01*
X027766Y015299D02*
X026094Y015299D01*
X025977Y015417D02*
X027885Y015417D01*
X028021Y015536D02*
X025674Y015536D01*
X025674Y015654D02*
X029206Y015654D01*
X029219Y015536D02*
X028877Y015536D01*
X029014Y015417D02*
X029219Y015417D01*
X029219Y015299D02*
X029132Y015299D01*
X029183Y015180D02*
X029219Y015180D01*
X029087Y015773D02*
X025998Y015773D01*
X025845Y015961D02*
X026199Y016335D01*
X025744Y016366D02*
X025600Y016366D01*
X025674Y016247D02*
X025744Y016247D01*
X025744Y016484D02*
X025491Y016484D01*
X025508Y016603D02*
X025744Y016603D01*
X025780Y016721D02*
X025478Y016721D01*
X025383Y016840D02*
X028219Y016840D01*
X028219Y016721D02*
X026618Y016721D01*
X026655Y016603D02*
X028258Y016603D01*
X028354Y016507D02*
X028354Y016507D01*
X028376Y016484D02*
X026655Y016484D01*
X026655Y016366D02*
X028495Y016366D01*
X028613Y016247D02*
X026655Y016247D01*
X026655Y016129D02*
X028732Y016129D01*
X028850Y016010D02*
X026655Y016010D01*
X026562Y015892D02*
X028969Y015892D01*
X029174Y014469D02*
X029219Y014469D01*
X029219Y014350D02*
X029108Y014350D01*
X029219Y014232D02*
X028990Y014232D01*
X028820Y014113D02*
X029219Y014113D01*
X029219Y013995D02*
X027680Y013995D01*
X027562Y014113D02*
X028079Y014113D01*
X027908Y014232D02*
X027443Y014232D01*
X027325Y014350D02*
X027790Y014350D01*
X027725Y014469D02*
X027206Y014469D01*
X027087Y014588D02*
X027676Y014588D01*
X027799Y013876D02*
X029219Y013876D01*
X029219Y013758D02*
X027917Y013758D01*
X028036Y013639D02*
X029219Y013639D01*
X029219Y013521D02*
X028154Y013521D01*
X028273Y013402D02*
X029219Y013402D01*
X029219Y013284D02*
X028830Y013284D01*
X028948Y013165D02*
X029219Y013165D01*
X029219Y013046D02*
X029049Y013046D01*
X029049Y012928D02*
X029219Y012928D01*
X027499Y011837D02*
X027299Y011837D01*
X026899Y011437D01*
X026899Y010587D01*
X027749Y009737D01*
X027749Y006537D01*
X027549Y006337D01*
X023999Y006337D01*
X023799Y006537D01*
X023799Y007537D01*
X023444Y007892D01*
X022983Y007892D01*
X022644Y007892D01*
X021799Y008737D01*
X019949Y008737D01*
X020249Y008437D02*
X021749Y008437D01*
X022609Y007577D01*
X022983Y007577D01*
X023359Y007577D01*
X023549Y007387D01*
X023549Y006387D01*
X023849Y006087D01*
X027649Y006087D01*
X027999Y006437D01*
X027999Y010337D01*
X028239Y010347D02*
X028280Y010307D01*
X028459Y010307D01*
X028459Y010796D01*
X028539Y010796D01*
X028539Y010366D01*
X028239Y010066D01*
X028239Y010347D01*
X028239Y010320D02*
X028266Y010320D01*
X028239Y010201D02*
X028375Y010201D01*
X028459Y010320D02*
X028493Y010320D01*
X028459Y010439D02*
X028539Y010439D01*
X028539Y010557D02*
X028459Y010557D01*
X028459Y010676D02*
X028539Y010676D01*
X028539Y010794D02*
X028459Y010794D01*
X029099Y010587D02*
X029099Y011437D01*
X029099Y010587D02*
X028249Y009737D01*
X028249Y006337D01*
X027749Y005837D01*
X023449Y005837D01*
X022983Y006303D01*
X022983Y007262D01*
X022574Y007262D01*
X021699Y008137D01*
X020549Y008137D01*
X020849Y007837D02*
X021649Y007837D01*
X022274Y007212D01*
X022274Y006553D01*
X022552Y006527D02*
X022743Y006527D01*
X022743Y006645D02*
X022552Y006645D01*
X022552Y006764D02*
X022743Y006764D01*
X022743Y006882D02*
X022552Y006882D01*
X022514Y007001D02*
X022595Y007001D01*
X021959Y007177D02*
X021959Y006553D01*
X021644Y006553D02*
X021644Y007042D01*
X021449Y007237D01*
X021140Y007228D02*
X021140Y007175D01*
X021187Y007062D01*
X021221Y007028D01*
X021156Y007028D01*
X020841Y007028D01*
X020821Y007008D01*
X020819Y007008D01*
X020699Y007008D01*
X020664Y007008D01*
X020689Y007069D01*
X020689Y007568D01*
X020788Y007528D01*
X020840Y007528D01*
X020840Y007475D01*
X020887Y007362D01*
X020974Y007275D01*
X021088Y007228D01*
X021140Y007228D01*
X021063Y007238D02*
X020689Y007238D01*
X020689Y007356D02*
X020892Y007356D01*
X020840Y007475D02*
X020689Y007475D01*
X020689Y007119D02*
X021163Y007119D01*
X021149Y007537D02*
X021599Y007537D01*
X021959Y007177D01*
X022552Y006408D02*
X022743Y006408D01*
X022743Y006290D02*
X022552Y006290D01*
X022540Y006171D02*
X022778Y006171D01*
X022894Y006052D02*
X020673Y006052D01*
X020699Y006171D02*
X020699Y006171D01*
X020699Y006290D02*
X020699Y006290D01*
X020699Y006408D02*
X020699Y006408D01*
X020699Y006527D02*
X020699Y006527D01*
X020699Y006553D02*
X020699Y007008D01*
X020699Y006553D01*
X020699Y006553D01*
X020699Y006645D02*
X020699Y006645D01*
X020699Y006764D02*
X020699Y006764D01*
X020699Y006882D02*
X020699Y006882D01*
X020699Y007001D02*
X020699Y007001D01*
X020384Y007101D02*
X020349Y007137D01*
X020384Y007101D02*
X020384Y006553D01*
X020384Y006001D01*
X021049Y005337D01*
X021825Y005337D01*
X021389Y005578D02*
X021147Y005578D01*
X021028Y005697D02*
X021389Y005697D01*
X020910Y005815D02*
X023131Y005815D01*
X023249Y005697D02*
X022976Y005697D01*
X022989Y005578D02*
X029219Y005578D01*
X029219Y005460D02*
X022989Y005460D01*
X022989Y005223D02*
X029219Y005223D01*
X029219Y005341D02*
X022633Y005341D01*
X022633Y005223D02*
X022513Y005223D01*
X022513Y005104D02*
X022633Y005104D01*
X022633Y004986D02*
X022513Y004986D01*
X022161Y004867D02*
X029219Y004867D01*
X029219Y004986D02*
X022980Y004986D01*
X022989Y005104D02*
X029219Y005104D01*
X029219Y004748D02*
X021577Y004748D01*
X021489Y004867D02*
X021458Y004867D01*
X021389Y004986D02*
X021339Y004986D01*
X021695Y004630D02*
X028248Y004630D01*
X027979Y004511D02*
X021814Y004511D01*
X021932Y004393D02*
X027860Y004393D01*
X027754Y004274D02*
X025851Y004274D01*
X025969Y004156D02*
X027705Y004156D01*
X027656Y004037D02*
X026088Y004037D01*
X026206Y003919D02*
X027639Y003919D01*
X027639Y003800D02*
X026325Y003800D01*
X026443Y003682D02*
X027639Y003682D01*
X027686Y003563D02*
X026562Y003563D01*
X026681Y003444D02*
X027735Y003444D01*
X027814Y003326D02*
X026799Y003326D01*
X026918Y003207D02*
X027933Y003207D01*
X028138Y003089D02*
X027036Y003089D01*
X027155Y002970D02*
X029219Y002970D01*
X029219Y003089D02*
X028760Y003089D01*
X028965Y003207D02*
X029219Y003207D01*
X029219Y003326D02*
X029084Y003326D01*
X029163Y003444D02*
X029219Y003444D01*
X029212Y003563D02*
X029219Y003563D01*
X029194Y004156D02*
X029219Y004156D01*
X029219Y004274D02*
X029144Y004274D01*
X029219Y004393D02*
X029038Y004393D01*
X028920Y004511D02*
X029219Y004511D01*
X029219Y004630D02*
X028650Y004630D01*
X029219Y005697D02*
X027949Y005697D01*
X028067Y005815D02*
X029219Y005815D01*
X029219Y005934D02*
X028186Y005934D01*
X028304Y006052D02*
X029219Y006052D01*
X029219Y006171D02*
X028423Y006171D01*
X028489Y006290D02*
X029219Y006290D01*
X029219Y006408D02*
X028489Y006408D01*
X028489Y006527D02*
X029219Y006527D01*
X029219Y006645D02*
X028489Y006645D01*
X028489Y006764D02*
X029219Y006764D01*
X029219Y006882D02*
X028489Y006882D01*
X028489Y007001D02*
X029219Y007001D01*
X029219Y007119D02*
X028489Y007119D01*
X028489Y007238D02*
X029219Y007238D01*
X029219Y007356D02*
X028489Y007356D01*
X028489Y007475D02*
X029219Y007475D01*
X029219Y007594D02*
X028489Y007594D01*
X028489Y007712D02*
X029219Y007712D01*
X029219Y007831D02*
X028489Y007831D01*
X028489Y007949D02*
X029219Y007949D01*
X029219Y008068D02*
X028489Y008068D01*
X028489Y008186D02*
X029219Y008186D01*
X029219Y008305D02*
X028489Y008305D01*
X028489Y008423D02*
X029219Y008423D01*
X029219Y008542D02*
X028489Y008542D01*
X028489Y008660D02*
X029219Y008660D01*
X029219Y008779D02*
X028489Y008779D01*
X028489Y008897D02*
X029219Y008897D01*
X029219Y009016D02*
X028489Y009016D01*
X028489Y009135D02*
X029219Y009135D01*
X029219Y009253D02*
X028489Y009253D01*
X028489Y009372D02*
X029219Y009372D01*
X029219Y009490D02*
X028489Y009490D01*
X028489Y009609D02*
X029219Y009609D01*
X029219Y009727D02*
X028579Y009727D01*
X028698Y009846D02*
X029219Y009846D01*
X029219Y009964D02*
X028816Y009964D01*
X028935Y010083D02*
X029219Y010083D01*
X029219Y010201D02*
X029053Y010201D01*
X029172Y010320D02*
X029219Y010320D01*
X028256Y010083D02*
X028239Y010083D01*
X026826Y010320D02*
X026474Y010320D01*
X026474Y010439D02*
X026708Y010439D01*
X026659Y010557D02*
X026474Y010557D01*
X026474Y010676D02*
X026659Y010676D01*
X026659Y010794D02*
X026474Y010794D01*
X026474Y010913D02*
X026659Y010913D01*
X026659Y011031D02*
X026437Y011031D01*
X026454Y011150D02*
X026659Y011150D01*
X026659Y011268D02*
X026454Y011268D01*
X026659Y011387D02*
X026059Y011387D01*
X026059Y011505D02*
X025939Y011505D01*
X025939Y011387D02*
X025357Y011387D01*
X025402Y011268D02*
X025544Y011268D01*
X025544Y011150D02*
X025402Y011150D01*
X025544Y011505D02*
X024207Y011505D01*
X024141Y011387D02*
X024089Y011387D01*
X024089Y011268D02*
X024097Y011268D01*
X024089Y011150D02*
X024097Y011150D01*
X024089Y011031D02*
X024097Y011031D01*
X024089Y010913D02*
X024097Y010913D01*
X024089Y010794D02*
X024097Y010794D01*
X024089Y010676D02*
X024097Y010676D01*
X024089Y010557D02*
X024097Y010557D01*
X024089Y010439D02*
X024097Y010439D01*
X024089Y010320D02*
X024182Y010320D01*
X023549Y010287D02*
X023549Y012637D01*
X023623Y012711D01*
X023623Y012713D01*
X023549Y012787D01*
X023549Y018837D01*
X024199Y019487D01*
X025599Y019487D01*
X026449Y020337D01*
X026449Y020837D01*
X026061Y021226D02*
X025837Y021226D01*
X025932Y021107D02*
X025966Y021107D01*
X026238Y021345D02*
X025660Y021345D01*
X025238Y021345D02*
X024660Y021345D01*
X024837Y021226D02*
X025061Y021226D01*
X024966Y021107D02*
X024932Y021107D01*
X024449Y020837D02*
X024449Y020387D01*
X024149Y020087D01*
X023899Y020087D01*
X022949Y019137D01*
X022949Y011337D01*
X022733Y011120D01*
X022274Y011120D01*
X021959Y011120D02*
X021959Y011496D01*
X022649Y012187D01*
X022649Y019287D01*
X023449Y020087D01*
X023449Y020837D01*
X023061Y021226D02*
X022837Y021226D01*
X022932Y021107D02*
X022966Y021107D01*
X023238Y021345D02*
X022660Y021345D01*
X022238Y021345D02*
X021660Y021345D01*
X021837Y021226D02*
X022061Y021226D01*
X021966Y021107D02*
X021932Y021107D01*
X021449Y020837D02*
X021449Y019087D01*
X022049Y018487D01*
X022049Y012387D01*
X021329Y011666D01*
X021329Y011120D01*
X021014Y011120D02*
X021014Y011751D01*
X021749Y012487D01*
X021749Y018387D01*
X020449Y019687D01*
X020449Y020837D01*
X019938Y020633D02*
X019399Y020633D01*
X019399Y020515D02*
X019993Y020515D01*
X020112Y020396D02*
X019399Y020396D01*
X019247Y020278D02*
X020209Y020278D01*
X020209Y020159D02*
X019916Y020159D01*
X020034Y020041D02*
X020209Y020041D01*
X020209Y019922D02*
X020153Y019922D01*
X019699Y020037D02*
X019149Y020037D01*
X018849Y020337D01*
X018849Y020837D01*
X019399Y020870D02*
X019899Y020870D01*
X019899Y020752D02*
X019399Y020752D01*
X019399Y020989D02*
X019917Y020989D01*
X019966Y021107D02*
X019399Y021107D01*
X019399Y021226D02*
X020061Y021226D01*
X020238Y021345D02*
X019336Y021345D01*
X018363Y021345D02*
X018060Y021345D01*
X018237Y021226D02*
X018299Y021226D01*
X017849Y020837D02*
X017849Y020637D01*
X018749Y019737D01*
X019599Y019737D01*
X021149Y018187D01*
X021149Y013937D01*
X020849Y013587D02*
X020849Y018087D01*
X019499Y019437D01*
X018649Y019437D01*
X017999Y020087D01*
X017099Y020087D01*
X016849Y020337D01*
X016849Y020837D01*
X016461Y021226D02*
X016237Y021226D01*
X016332Y021107D02*
X016366Y021107D01*
X016638Y021345D02*
X016060Y021345D01*
X015638Y021345D02*
X015060Y021345D01*
X015237Y021226D02*
X015461Y021226D01*
X015366Y021107D02*
X015332Y021107D01*
X014849Y020837D02*
X014849Y020337D01*
X015699Y019487D01*
X017799Y019487D01*
X018449Y018837D01*
X019299Y018837D01*
X020249Y017887D01*
X020249Y013587D01*
X020549Y013504D02*
X020511Y013412D01*
X020424Y013325D01*
X020311Y013278D01*
X020188Y013278D01*
X020074Y013325D01*
X019987Y013412D01*
X019940Y013525D01*
X019940Y013628D01*
X019889Y013628D01*
X019889Y013070D01*
X019907Y013081D01*
X019948Y013092D01*
X020165Y013092D01*
X020165Y012697D01*
X020285Y012697D01*
X020285Y013092D01*
X020502Y013092D01*
X020543Y013081D01*
X020579Y013060D01*
X020585Y013054D01*
X020643Y013112D01*
X021304Y013112D01*
X021409Y013006D01*
X021409Y012486D01*
X021509Y012586D01*
X021509Y013278D01*
X021388Y013278D01*
X021274Y013325D01*
X021187Y013412D01*
X021149Y013504D01*
X021111Y013412D01*
X021024Y013325D01*
X020911Y013278D01*
X020788Y013278D01*
X020674Y013325D01*
X020587Y013412D01*
X020549Y013504D01*
X020502Y013402D02*
X020597Y013402D01*
X020773Y013284D02*
X020325Y013284D01*
X020173Y013284D02*
X019889Y013284D01*
X019889Y013402D02*
X019997Y013402D01*
X019942Y013521D02*
X019889Y013521D01*
X019889Y013165D02*
X021509Y013165D01*
X021509Y013046D02*
X021369Y013046D01*
X021409Y012928D02*
X021509Y012928D01*
X021509Y012809D02*
X021409Y012809D01*
X021409Y012691D02*
X021509Y012691D01*
X021496Y012572D02*
X021409Y012572D01*
X020999Y012611D02*
X020973Y012637D01*
X020999Y012611D02*
X020999Y012137D01*
X020699Y011837D01*
X020699Y011120D01*
X020699Y010537D01*
X021039Y010557D02*
X022507Y010557D01*
X022507Y010439D02*
X021039Y010439D01*
X021039Y010320D02*
X022507Y010320D01*
X022507Y010201D02*
X021039Y010201D01*
X021039Y010083D02*
X022507Y010083D01*
X022507Y009964D02*
X021039Y009964D01*
X021039Y009846D02*
X022507Y009846D01*
X022507Y009727D02*
X021039Y009727D01*
X021039Y009609D02*
X022507Y009609D01*
X022983Y009151D02*
X023814Y009151D01*
X023999Y009337D01*
X024712Y009337D01*
X024749Y009299D01*
X025412Y009299D01*
X025699Y009587D01*
X025973Y009587D01*
X025999Y009561D01*
X025500Y009727D02*
X025402Y009727D01*
X025323Y009846D02*
X025524Y009846D01*
X025597Y009964D02*
X024716Y009964D01*
X024097Y009016D02*
X024018Y009016D01*
X024097Y008897D02*
X023438Y008897D01*
X023438Y008779D02*
X024149Y008779D01*
X023579Y008207D02*
X022983Y008207D01*
X023579Y008207D02*
X023749Y008037D01*
X024509Y007119D02*
X027509Y007119D01*
X027509Y007001D02*
X024904Y007001D01*
X024904Y006882D02*
X027509Y006882D01*
X027509Y006764D02*
X024875Y006764D01*
X024509Y006764D02*
X024389Y006764D01*
X024389Y006882D02*
X024509Y006882D01*
X024509Y007001D02*
X024389Y007001D01*
X024039Y006645D02*
X027509Y006645D01*
X024882Y007475D02*
X024869Y007475D01*
X025402Y008897D02*
X025544Y008897D01*
X025544Y009016D02*
X025402Y009016D01*
X023549Y010287D02*
X023359Y010096D01*
X022983Y010096D01*
X022983Y010411D02*
X022983Y010620D01*
X023249Y010887D01*
X023249Y018987D01*
X024049Y019787D01*
X024899Y019787D01*
X025449Y020337D01*
X025449Y020837D01*
X024238Y021345D02*
X023660Y021345D01*
X023837Y021226D02*
X024061Y021226D01*
X023966Y021107D02*
X023932Y021107D01*
X022449Y020837D02*
X022449Y019537D01*
X022349Y019437D01*
X022349Y012287D01*
X021644Y011581D01*
X021644Y011120D01*
X022478Y010676D02*
X022599Y010676D01*
X022552Y010794D02*
X022817Y010794D01*
X022859Y010913D02*
X022936Y010913D01*
X022983Y011031D02*
X023009Y011031D01*
X024326Y011624D02*
X025544Y011624D01*
X025604Y011743D02*
X024445Y011743D01*
X024563Y011861D02*
X026949Y011861D01*
X026949Y011980D02*
X024682Y011980D01*
X024800Y012098D02*
X026983Y012098D01*
X027101Y012217D02*
X024909Y012217D01*
X024699Y012637D02*
X024699Y012787D01*
X024773Y012713D02*
X025199Y012713D01*
X025674Y012691D02*
X026949Y012691D01*
X026949Y012809D02*
X025674Y012809D01*
X025674Y012928D02*
X026949Y012928D01*
X026949Y013046D02*
X025671Y013046D01*
X025674Y013165D02*
X027050Y013165D01*
X026986Y012572D02*
X025674Y012572D01*
X025674Y012454D02*
X027104Y012454D01*
X027220Y012335D02*
X025628Y012335D01*
X025939Y011743D02*
X026059Y011743D01*
X026059Y011624D02*
X025939Y011624D01*
X026395Y011743D02*
X026866Y011743D01*
X026747Y011624D02*
X026454Y011624D01*
X026454Y011505D02*
X026668Y011505D01*
X025199Y013461D02*
X025199Y014087D01*
X025029Y014350D02*
X024939Y014350D01*
X024199Y014087D02*
X024199Y013461D01*
X024199Y012713D02*
X023623Y012713D01*
X023549Y012787D02*
X023549Y012637D01*
X021449Y013587D02*
X021449Y018287D01*
X019699Y020037D01*
X019399Y019137D02*
X018549Y019137D01*
X017899Y019787D01*
X016399Y019787D01*
X015849Y020337D01*
X015849Y020837D01*
X014638Y021345D02*
X014060Y021345D01*
X014237Y021226D02*
X014461Y021226D01*
X014366Y021107D02*
X014332Y021107D01*
X013849Y020837D02*
X013849Y020337D01*
X014999Y019187D01*
X017699Y019187D01*
X018349Y018537D01*
X019199Y018537D01*
X019949Y017787D01*
X019949Y013937D01*
X020499Y013937D02*
X020549Y017987D01*
X019399Y019137D01*
X017839Y017907D02*
X017795Y017907D01*
X017721Y018025D02*
X017668Y018025D01*
X017602Y018144D02*
X017540Y018144D01*
X017484Y018262D02*
X017413Y018262D01*
X017218Y017788D02*
X012987Y017788D01*
X013105Y017670D02*
X017345Y017670D01*
X017473Y017551D02*
X013671Y017551D01*
X013744Y017433D02*
X017601Y017433D01*
X017728Y017314D02*
X013758Y017314D01*
X013449Y017337D02*
X013099Y017337D01*
X012799Y017637D01*
X011799Y017637D01*
X011599Y017837D01*
X011599Y018187D01*
X010849Y018937D01*
X008299Y018937D01*
X007849Y019387D01*
X006899Y019387D01*
X006899Y018837D01*
X006899Y019387D02*
X006899Y020737D01*
X006599Y021037D01*
X008767Y021582D02*
X027779Y021582D01*
X027897Y021463D02*
X008968Y021463D01*
X011060Y021345D02*
X011638Y021345D01*
X011461Y021226D02*
X011237Y021226D01*
X011332Y021107D02*
X011366Y021107D01*
X012060Y021345D02*
X012698Y021345D01*
X012809Y021345D02*
X012889Y021345D01*
X013001Y021345D02*
X013638Y021345D01*
X013461Y021226D02*
X013209Y021226D01*
X013306Y021107D02*
X013366Y021107D01*
X012889Y021107D02*
X012809Y021107D01*
X012809Y020989D02*
X012889Y020989D01*
X012889Y021226D02*
X012809Y021226D01*
X012489Y021226D02*
X012237Y021226D01*
X012332Y021107D02*
X012392Y021107D01*
X012775Y019448D02*
X013598Y019448D01*
X013696Y019329D02*
X013717Y019329D01*
X013814Y019211D02*
X013835Y019211D01*
X013933Y019092D02*
X013954Y019092D01*
X014051Y018974D02*
X014073Y018974D01*
X014170Y018855D02*
X014191Y018855D01*
X014288Y018737D02*
X014310Y018737D01*
X014407Y018618D02*
X014428Y018618D01*
X014526Y018499D02*
X014547Y018499D01*
X014644Y018381D02*
X014668Y018381D01*
X014202Y018144D02*
X011839Y018144D01*
X011839Y018025D02*
X014321Y018025D01*
X014439Y017907D02*
X011868Y017907D01*
X011827Y018262D02*
X014084Y018262D01*
X013965Y018381D02*
X011744Y018381D01*
X011626Y018499D02*
X013847Y018499D01*
X013728Y018618D02*
X011507Y018618D01*
X011388Y018737D02*
X013610Y018737D01*
X013491Y018855D02*
X011270Y018855D01*
X010739Y018357D02*
X010650Y018447D01*
X010328Y018447D01*
X010403Y018372D01*
X010413Y018348D01*
X010429Y018332D01*
X010429Y018316D01*
X010480Y018366D01*
X010659Y018366D01*
X010659Y017877D01*
X010739Y017877D01*
X010739Y018357D01*
X010715Y018381D02*
X010394Y018381D01*
X010199Y018237D02*
X009999Y018437D01*
X009299Y018437D01*
X008699Y017837D01*
X008347Y018262D02*
X002679Y018262D01*
X002679Y018144D02*
X008229Y018144D01*
X008466Y018381D02*
X007843Y018381D01*
X007909Y018499D02*
X007947Y018499D01*
X009199Y017337D02*
X009699Y017837D01*
X010659Y017907D02*
X010739Y017907D01*
X010739Y018025D02*
X010659Y018025D01*
X010659Y018144D02*
X010739Y018144D01*
X010739Y018262D02*
X010659Y018262D01*
X011154Y017542D02*
X011446Y017251D01*
X011513Y017183D01*
X011601Y017147D01*
X012550Y017147D01*
X012565Y017132D01*
X012474Y017041D01*
X012474Y016380D01*
X012517Y016337D01*
X012474Y016293D01*
X012474Y015632D01*
X012565Y015541D01*
X012550Y015526D01*
X011701Y015526D01*
X011613Y015490D01*
X011546Y015422D01*
X011338Y015215D01*
X011335Y015206D01*
X011109Y015206D01*
X011103Y015222D01*
X011035Y015290D01*
X010835Y015490D01*
X010747Y015526D01*
X010651Y015526D01*
X010399Y015526D01*
X009939Y015986D01*
X009939Y016299D01*
X009959Y016319D01*
X009959Y016284D01*
X009959Y016189D01*
X009996Y016101D01*
X010290Y015806D01*
X010290Y015775D01*
X010337Y015662D01*
X010424Y015575D01*
X010538Y015528D01*
X010661Y015528D01*
X010774Y015575D01*
X010796Y015597D01*
X011509Y015597D01*
X011579Y015527D01*
X012319Y015527D01*
X012424Y015632D01*
X012424Y016293D01*
X012381Y016337D01*
X012424Y016380D01*
X012424Y017041D01*
X012319Y017146D01*
X011579Y017146D01*
X011509Y017076D01*
X011237Y017076D01*
X010963Y017351D01*
X011154Y017542D01*
X011045Y017433D02*
X011264Y017433D01*
X011382Y017314D02*
X010999Y017314D01*
X011118Y017196D02*
X011501Y017196D01*
X011510Y017077D02*
X011236Y017077D01*
X011237Y016597D02*
X011474Y016597D01*
X011474Y016380D01*
X011517Y016337D01*
X011474Y016293D01*
X011474Y016076D01*
X010796Y016076D01*
X010774Y016098D01*
X010661Y016145D01*
X010630Y016145D01*
X010488Y016287D01*
X010927Y016287D01*
X011237Y016597D01*
X011125Y016484D02*
X011474Y016484D01*
X011488Y016366D02*
X011006Y016366D01*
X010701Y016129D02*
X011474Y016129D01*
X011474Y016247D02*
X010528Y016247D01*
X010199Y016237D02*
X010199Y016437D01*
X010199Y016237D02*
X010599Y015837D01*
X011823Y015837D01*
X011949Y015963D01*
X012424Y016010D02*
X012474Y016010D01*
X012474Y015892D02*
X012424Y015892D01*
X012424Y015773D02*
X012474Y015773D01*
X012474Y015654D02*
X012424Y015654D01*
X012328Y015536D02*
X012559Y015536D01*
X012649Y015287D02*
X012949Y015587D01*
X012949Y015963D01*
X013949Y015963D01*
X013474Y016247D02*
X013424Y016247D01*
X013410Y016366D02*
X013520Y016366D01*
X013494Y016484D02*
X013424Y016484D01*
X013424Y016603D02*
X013494Y016603D01*
X013494Y016840D02*
X013424Y016840D01*
X013424Y016958D02*
X013494Y016958D01*
X012510Y017077D02*
X012388Y017077D01*
X012424Y016958D02*
X012474Y016958D01*
X012474Y016840D02*
X012424Y016840D01*
X012424Y016721D02*
X012474Y016721D01*
X012474Y016603D02*
X012424Y016603D01*
X012424Y016484D02*
X012474Y016484D01*
X012488Y016366D02*
X012410Y016366D01*
X012424Y016247D02*
X012474Y016247D01*
X012474Y016129D02*
X012424Y016129D01*
X011949Y016711D02*
X011823Y016837D01*
X010699Y016837D01*
X009959Y016247D02*
X009939Y016247D01*
X009939Y016129D02*
X009984Y016129D01*
X009939Y016010D02*
X010086Y016010D01*
X010034Y015892D02*
X010205Y015892D01*
X010152Y015773D02*
X010291Y015773D01*
X010271Y015654D02*
X010344Y015654D01*
X010389Y015536D02*
X010518Y015536D01*
X010681Y015536D02*
X011570Y015536D01*
X011541Y015417D02*
X010908Y015417D01*
X011026Y015299D02*
X011422Y015299D01*
X011542Y015079D02*
X011749Y015287D01*
X012649Y015287D01*
X012172Y014777D02*
X012172Y013909D01*
X012726Y013876D02*
X012959Y013876D01*
X012959Y013758D02*
X012726Y013758D01*
X012690Y013639D02*
X012959Y013639D01*
X012959Y013521D02*
X012573Y013521D01*
X012454Y013402D02*
X012959Y013402D01*
X012959Y013284D02*
X012336Y013284D01*
X012726Y013995D02*
X012959Y013995D01*
X012959Y014113D02*
X012726Y014113D01*
X012726Y014232D02*
X012959Y014232D01*
X013389Y014189D02*
X013389Y014427D01*
X013699Y014737D01*
X013929Y014943D02*
X018509Y014943D01*
X018509Y014825D02*
X013997Y014825D01*
X014008Y014706D02*
X018509Y014706D01*
X018509Y014588D02*
X013972Y014588D01*
X013860Y014469D02*
X014152Y014469D01*
X014139Y014350D02*
X013819Y014350D01*
X013819Y014232D02*
X014005Y014232D01*
X013887Y014113D02*
X013819Y014113D01*
X013899Y013787D02*
X014199Y014087D01*
X014575Y014087D01*
X014933Y013639D02*
X015016Y013639D01*
X015263Y013639D02*
X015383Y013639D01*
X015383Y013758D02*
X015263Y013758D01*
X015263Y013876D02*
X015383Y013876D01*
X015383Y013995D02*
X015263Y013995D01*
X015383Y014113D02*
X018509Y014113D01*
X018509Y013995D02*
X015739Y013995D01*
X015739Y014232D02*
X018509Y014232D01*
X018509Y014350D02*
X015739Y014350D01*
X015713Y014469D02*
X018509Y014469D01*
X018989Y014469D02*
X019109Y014469D01*
X019109Y014588D02*
X018989Y014588D01*
X018989Y014706D02*
X019109Y014706D01*
X019109Y014825D02*
X018989Y014825D01*
X018989Y014943D02*
X019109Y014943D01*
X019109Y015062D02*
X018989Y015062D01*
X018989Y015180D02*
X019109Y015180D01*
X019109Y015299D02*
X018989Y015299D01*
X018989Y015417D02*
X019109Y015417D01*
X019109Y015536D02*
X018989Y015536D01*
X018989Y015654D02*
X019109Y015654D01*
X019109Y015773D02*
X018989Y015773D01*
X018989Y015892D02*
X019109Y015892D01*
X019109Y016010D02*
X018989Y016010D01*
X018989Y016129D02*
X019109Y016129D01*
X019109Y016247D02*
X018989Y016247D01*
X018989Y016366D02*
X019109Y016366D01*
X019109Y016484D02*
X018989Y016484D01*
X018989Y016603D02*
X019109Y016603D01*
X019109Y016721D02*
X018989Y016721D01*
X018989Y016840D02*
X019109Y016840D01*
X019109Y016958D02*
X018989Y016958D01*
X018989Y017077D02*
X019109Y017077D01*
X019109Y017196D02*
X018989Y017196D01*
X018956Y017314D02*
X019109Y017314D01*
X019109Y017433D02*
X018842Y017433D01*
X018724Y017551D02*
X018995Y017551D01*
X018877Y017670D02*
X018563Y017670D01*
X017958Y017788D02*
X017923Y017788D01*
X018509Y015299D02*
X013574Y015299D01*
X013645Y015180D02*
X018509Y015180D01*
X018509Y015062D02*
X013658Y015062D01*
X013570Y015536D02*
X013328Y015536D01*
X013424Y015654D02*
X013474Y015654D01*
X011542Y015079D02*
X011542Y014777D01*
X010912Y014777D02*
X010899Y014789D01*
X010899Y015087D01*
X010699Y015287D01*
X010299Y015287D01*
X009699Y015887D01*
X009699Y016837D01*
X008699Y016087D02*
X010009Y014777D01*
X010009Y014189D01*
X009579Y014232D02*
X009439Y014232D01*
X009439Y014350D02*
X009579Y014350D01*
X009579Y014373D02*
X009579Y014058D01*
X009579Y013744D01*
X009579Y013429D01*
X009579Y013114D01*
X009579Y012799D01*
X009579Y012484D01*
X009579Y012169D01*
X009579Y011800D01*
X009685Y011694D01*
X010307Y011694D01*
X010307Y011072D01*
X010412Y010967D01*
X010727Y010967D01*
X010987Y010967D01*
X010987Y010857D01*
X010987Y010761D01*
X011023Y010673D01*
X011189Y010508D01*
X011185Y010504D01*
X011179Y010510D01*
X011143Y010531D01*
X011102Y010542D01*
X010885Y010542D01*
X010885Y010147D01*
X010765Y010147D01*
X010765Y010542D01*
X010548Y010542D01*
X010507Y010531D01*
X010471Y010510D01*
X010441Y010480D01*
X010420Y010444D01*
X010409Y010403D01*
X010409Y010146D01*
X010765Y010146D01*
X010765Y010027D01*
X010409Y010027D01*
X010409Y009770D01*
X010420Y009729D01*
X010441Y009693D01*
X010471Y009663D01*
X010507Y009642D01*
X010548Y009631D01*
X010765Y009631D01*
X010765Y010026D01*
X010885Y010026D01*
X010885Y009631D01*
X011102Y009631D01*
X011143Y009642D01*
X011179Y009663D01*
X011185Y009669D01*
X011243Y009611D01*
X011904Y009611D01*
X012009Y009717D01*
X012009Y010456D01*
X011904Y010562D01*
X011778Y010562D01*
X011753Y010622D01*
X011685Y010690D01*
X011467Y010908D01*
X011467Y010987D01*
X011541Y010987D01*
X011541Y011396D01*
X011542Y011396D01*
X011542Y010987D01*
X011652Y010987D01*
X011672Y010967D01*
X011987Y010967D01*
X012247Y010967D01*
X012247Y010951D01*
X012283Y010863D01*
X012309Y010837D01*
X012309Y007826D01*
X009903Y007826D01*
X009903Y007937D01*
X009797Y008042D01*
X009097Y008042D01*
X008992Y007937D01*
X008992Y007468D01*
X008850Y007326D01*
X008407Y007326D01*
X008407Y007550D01*
X008513Y007651D01*
X008518Y007653D01*
X008562Y007697D01*
X008608Y007741D01*
X008610Y007745D01*
X008613Y007748D01*
X008637Y007806D01*
X008663Y007864D01*
X008663Y007869D01*
X008665Y007873D01*
X008665Y007937D01*
X008667Y007999D01*
X008665Y008004D01*
X008665Y008121D01*
X008713Y008169D01*
X008719Y008163D01*
X008755Y008142D01*
X008796Y008131D01*
X009013Y008131D01*
X009013Y008526D01*
X009133Y008526D01*
X009133Y008131D01*
X009350Y008131D01*
X009391Y008142D01*
X009427Y008163D01*
X009457Y008193D01*
X009478Y008229D01*
X009489Y008270D01*
X009489Y008527D01*
X009133Y008527D01*
X009133Y008646D01*
X009489Y008646D01*
X009489Y008903D01*
X009478Y008944D01*
X009457Y008980D01*
X009427Y009010D01*
X009391Y009031D01*
X009350Y009042D01*
X009229Y009042D01*
X009386Y009200D01*
X009391Y009210D01*
X009443Y009210D01*
X009548Y009315D01*
X009548Y009858D01*
X009443Y009963D01*
X008821Y009963D01*
X008716Y009858D01*
X008716Y009436D01*
X008682Y009436D01*
X008682Y009858D01*
X008606Y009934D01*
X008606Y010111D01*
X008656Y010111D01*
X008713Y010169D01*
X008719Y010163D01*
X008755Y010142D01*
X008796Y010131D01*
X009013Y010131D01*
X009013Y010526D01*
X009133Y010526D01*
X009133Y010131D01*
X009350Y010131D01*
X009391Y010142D01*
X009427Y010163D01*
X009457Y010193D01*
X009478Y010229D01*
X009489Y010270D01*
X009489Y010527D01*
X009133Y010527D01*
X009133Y010646D01*
X009489Y010646D01*
X009489Y010903D01*
X009478Y010944D01*
X009457Y010980D01*
X009427Y011010D01*
X009391Y011031D01*
X009350Y011042D01*
X009133Y011042D01*
X009133Y010647D01*
X009013Y010647D01*
X009013Y011042D01*
X008796Y011042D01*
X008755Y011031D01*
X008719Y011010D01*
X008713Y011004D01*
X008665Y011052D01*
X008665Y012172D01*
X009387Y012894D01*
X009439Y013019D01*
X009439Y013154D01*
X009439Y015007D01*
X009769Y014677D01*
X009769Y014479D01*
X009685Y014479D01*
X009579Y014373D01*
X009675Y014469D02*
X009439Y014469D01*
X009439Y014588D02*
X009769Y014588D01*
X009740Y014706D02*
X009439Y014706D01*
X009439Y014825D02*
X009622Y014825D01*
X009503Y014943D02*
X009439Y014943D01*
X008599Y014387D02*
X008599Y014037D01*
X008599Y014387D02*
X008399Y014587D01*
X008073Y014587D01*
X007325Y014587D02*
X007049Y014587D01*
X006749Y014887D01*
X006749Y015787D01*
X006384Y016151D01*
X005799Y016151D01*
X005799Y015837D02*
X006349Y015837D01*
X006499Y015687D01*
X006499Y013787D01*
X006699Y013587D01*
X007325Y013587D01*
X006889Y013284D02*
X002679Y013284D01*
X002679Y013402D02*
X006544Y013402D01*
X006426Y013521D02*
X002679Y013521D01*
X002679Y013639D02*
X002759Y013639D01*
X002759Y013636D02*
X002865Y013531D01*
X003959Y013531D01*
X004064Y013636D01*
X004064Y014572D01*
X003959Y014678D01*
X002865Y014678D01*
X002759Y014572D01*
X002759Y013636D01*
X002759Y013758D02*
X002679Y013758D01*
X002679Y013876D02*
X002759Y013876D01*
X002759Y013995D02*
X002679Y013995D01*
X002679Y014113D02*
X002759Y014113D01*
X002759Y014232D02*
X002679Y014232D01*
X002679Y014350D02*
X002759Y014350D01*
X002759Y014469D02*
X002679Y014469D01*
X002679Y014588D02*
X002774Y014588D01*
X002679Y014706D02*
X004324Y014706D01*
X004273Y014757D02*
X004379Y014651D01*
X004518Y014594D01*
X004668Y014594D01*
X004806Y014651D01*
X004912Y014757D01*
X004970Y014895D01*
X004970Y015045D01*
X004912Y015184D01*
X004806Y015290D01*
X004668Y015347D01*
X004518Y015347D01*
X004379Y015290D01*
X004273Y015184D01*
X004216Y015045D01*
X004216Y014895D01*
X004273Y014757D01*
X004245Y014825D02*
X002679Y014825D01*
X002679Y014943D02*
X004216Y014943D01*
X004223Y015062D02*
X002679Y015062D01*
X002679Y015180D02*
X004272Y015180D01*
X004401Y015299D02*
X002679Y015299D01*
X002679Y015417D02*
X005165Y015417D01*
X005165Y015536D02*
X002679Y015536D01*
X002679Y015654D02*
X005165Y015654D01*
X005165Y015773D02*
X002679Y015773D01*
X002679Y015892D02*
X005165Y015892D01*
X005165Y016010D02*
X002679Y016010D01*
X002679Y016129D02*
X005165Y016129D01*
X005165Y016247D02*
X002679Y016247D01*
X002679Y017077D02*
X002783Y017077D01*
X002759Y017196D02*
X002679Y017196D01*
X002679Y017314D02*
X002759Y017314D01*
X002759Y017433D02*
X002679Y017433D01*
X002679Y017551D02*
X002759Y017551D01*
X002759Y017670D02*
X002679Y017670D01*
X002679Y017788D02*
X002759Y017788D01*
X002759Y017907D02*
X002679Y017907D01*
X002679Y018025D02*
X002759Y018025D01*
X004064Y018025D02*
X004925Y018025D01*
X004925Y017907D02*
X004064Y017907D01*
X004064Y017788D02*
X004925Y017788D01*
X004925Y017670D02*
X004064Y017670D01*
X004064Y017551D02*
X004925Y017551D01*
X004925Y017433D02*
X004064Y017433D01*
X004064Y017314D02*
X004925Y017314D01*
X005799Y016466D02*
X006719Y016466D01*
X006749Y016437D01*
X006553Y016721D02*
X006351Y016721D01*
X007295Y016721D02*
X008149Y016721D01*
X008155Y016603D02*
X007414Y016603D01*
X007532Y016484D02*
X008274Y016484D01*
X008392Y016366D02*
X007643Y016366D01*
X007689Y016247D02*
X008459Y016247D01*
X008459Y016129D02*
X007689Y016129D01*
X008416Y016010D02*
X008471Y016010D01*
X006259Y014943D02*
X004970Y014943D01*
X004963Y015062D02*
X005192Y015062D01*
X005185Y015180D02*
X004914Y015180D01*
X004785Y015299D02*
X005185Y015299D01*
X004940Y014825D02*
X006259Y014825D01*
X006259Y014706D02*
X004861Y014706D01*
X004940Y014588D02*
X004049Y014588D01*
X004064Y014469D02*
X004925Y014469D01*
X004925Y014572D02*
X004925Y013636D01*
X005030Y013531D01*
X006124Y013531D01*
X006229Y013636D01*
X006229Y014572D01*
X006124Y014678D01*
X005030Y014678D01*
X004925Y014572D01*
X004925Y014350D02*
X004064Y014350D01*
X004064Y014232D02*
X004925Y014232D01*
X004925Y014113D02*
X004064Y014113D01*
X004064Y013995D02*
X004925Y013995D01*
X004925Y013876D02*
X004064Y013876D01*
X004064Y013758D02*
X004925Y013758D01*
X004925Y013639D02*
X004064Y013639D01*
X004094Y012983D02*
X004094Y012645D01*
X003978Y012645D01*
X003978Y012983D01*
X003778Y012983D01*
X003738Y012972D01*
X003701Y012951D01*
X003671Y012921D01*
X003650Y012884D01*
X003640Y012844D01*
X003640Y012645D01*
X003977Y012645D01*
X003977Y012528D01*
X003640Y012528D01*
X003640Y012329D01*
X003650Y012289D01*
X003671Y012252D01*
X003701Y012222D01*
X003738Y012201D01*
X003778Y012190D01*
X003978Y012190D01*
X003978Y012528D01*
X004094Y012528D01*
X004094Y012190D01*
X004293Y012190D01*
X004334Y012201D01*
X004370Y012222D01*
X004400Y012252D01*
X004421Y012289D01*
X004432Y012329D01*
X004432Y012528D01*
X004094Y012528D01*
X004094Y012645D01*
X004432Y012645D01*
X004432Y012844D01*
X004421Y012884D01*
X004400Y012921D01*
X004370Y012951D01*
X004334Y012972D01*
X004293Y012983D01*
X004094Y012983D01*
X004094Y012928D02*
X003978Y012928D01*
X003978Y012809D02*
X004094Y012809D01*
X004094Y012691D02*
X003978Y012691D01*
X003977Y012572D02*
X002679Y012572D01*
X002679Y012454D02*
X003640Y012454D01*
X003640Y012335D02*
X002679Y012335D01*
X002679Y012217D02*
X003711Y012217D01*
X003778Y011983D02*
X003738Y011972D01*
X003701Y011951D01*
X003671Y011921D01*
X003650Y011884D01*
X003640Y011844D01*
X003640Y011645D01*
X003977Y011645D01*
X003977Y011528D01*
X003640Y011528D01*
X003640Y011329D01*
X003650Y011289D01*
X003671Y011252D01*
X003701Y011222D01*
X003738Y011201D01*
X003778Y011190D01*
X003978Y011190D01*
X003978Y011528D01*
X004094Y011528D01*
X004094Y011190D01*
X004293Y011190D01*
X004334Y011201D01*
X004370Y011222D01*
X004400Y011252D01*
X004421Y011289D01*
X004432Y011329D01*
X004432Y011528D01*
X004094Y011528D01*
X004094Y011645D01*
X003978Y011645D01*
X003978Y011983D01*
X003778Y011983D01*
X003767Y011980D02*
X002679Y011980D01*
X002679Y012098D02*
X007072Y012098D01*
X007087Y012062D02*
X007174Y011975D01*
X007288Y011928D01*
X007411Y011928D01*
X007524Y011975D01*
X007611Y012062D01*
X007658Y012175D01*
X007658Y012298D01*
X007611Y012411D01*
X007524Y012498D01*
X007411Y012545D01*
X007380Y012545D01*
X007135Y012790D01*
X007047Y012826D01*
X007009Y012826D01*
X007009Y012956D01*
X006904Y013062D01*
X006243Y013062D01*
X006199Y013018D01*
X006156Y013062D01*
X005495Y013062D01*
X005389Y012956D01*
X005389Y012826D01*
X005279Y012826D01*
X005279Y012897D01*
X005173Y013003D01*
X004552Y013003D01*
X004446Y012897D01*
X004446Y012276D01*
X004552Y012170D01*
X005173Y012170D01*
X005279Y012276D01*
X005279Y012347D01*
X005389Y012347D01*
X005389Y012217D01*
X005220Y012217D01*
X005279Y012335D02*
X005389Y012335D01*
X005389Y012217D02*
X005495Y012111D01*
X006156Y012111D01*
X006199Y012155D01*
X006243Y012111D01*
X006904Y012111D01*
X007009Y012217D01*
X007030Y012217D01*
X007040Y012206D02*
X007040Y012175D01*
X007087Y012062D01*
X007169Y011980D02*
X006986Y011980D01*
X007009Y011956D02*
X006904Y012062D01*
X006243Y012062D01*
X006199Y012018D01*
X006156Y012062D01*
X005495Y012062D01*
X005389Y011956D01*
X005389Y011826D01*
X005279Y011826D01*
X005279Y011897D01*
X005173Y012003D01*
X004552Y012003D01*
X004446Y011897D01*
X004446Y011276D01*
X004552Y011170D01*
X005173Y011170D01*
X005279Y011276D01*
X005279Y011347D01*
X005389Y011347D01*
X005389Y011217D01*
X005495Y011111D01*
X006156Y011111D01*
X006199Y011155D01*
X006243Y011111D01*
X006904Y011111D01*
X007009Y011217D01*
X007009Y011347D01*
X007102Y011347D01*
X007124Y011325D01*
X007238Y011278D01*
X007361Y011278D01*
X007474Y011325D01*
X007561Y011412D01*
X007608Y011525D01*
X007608Y011648D01*
X007561Y011761D01*
X007474Y011848D01*
X007361Y011895D01*
X007238Y011895D01*
X007124Y011848D01*
X007102Y011826D01*
X007009Y011826D01*
X007009Y011956D01*
X007009Y011861D02*
X007155Y011861D01*
X007444Y011861D02*
X007985Y011861D01*
X007985Y011743D02*
X007569Y011743D01*
X007608Y011624D02*
X007985Y011624D01*
X007985Y011505D02*
X007600Y011505D01*
X007536Y011387D02*
X007985Y011387D01*
X007985Y011268D02*
X007009Y011268D01*
X006942Y011150D02*
X007985Y011150D01*
X007964Y011031D02*
X004691Y011031D01*
X004752Y010913D02*
X007889Y010913D01*
X007889Y010794D02*
X004758Y010794D01*
X004717Y010676D02*
X007889Y010676D01*
X007889Y010557D02*
X006908Y010557D01*
X007009Y010439D02*
X007889Y010439D01*
X007889Y010320D02*
X007009Y010320D01*
X007009Y010201D02*
X007904Y010201D01*
X007926Y010083D02*
X007009Y010083D01*
X007009Y009964D02*
X007926Y009964D01*
X007850Y009846D02*
X007009Y009846D01*
X007009Y009727D02*
X007850Y009727D01*
X007850Y009609D02*
X006813Y009609D01*
X006975Y009490D02*
X007850Y009490D01*
X007850Y009372D02*
X007009Y009372D01*
X007009Y009253D02*
X007912Y009253D01*
X007949Y009016D02*
X007009Y009016D01*
X007009Y008897D02*
X007889Y008897D01*
X007889Y008779D02*
X007009Y008779D01*
X006953Y008660D02*
X007889Y008660D01*
X007889Y008542D02*
X006813Y008542D01*
X006813Y008423D02*
X007889Y008423D01*
X007889Y008305D02*
X006813Y008305D01*
X006813Y008186D02*
X007920Y008186D01*
X007965Y008068D02*
X006813Y008068D01*
X007009Y007949D02*
X007508Y007949D01*
X007496Y007831D02*
X007009Y007831D01*
X007163Y007712D02*
X007496Y007712D01*
X007496Y007594D02*
X007282Y007594D01*
X007400Y007475D02*
X007496Y007475D01*
X007077Y007119D02*
X006912Y007119D01*
X007195Y007001D02*
X002679Y007001D01*
X002679Y007119D02*
X005487Y007119D01*
X005389Y007238D02*
X005241Y007238D01*
X004863Y007587D02*
X005825Y007587D01*
X005389Y007831D02*
X005279Y007831D01*
X005227Y007949D02*
X005389Y007949D01*
X005446Y008660D02*
X002679Y008660D01*
X002679Y008542D02*
X006333Y008542D01*
X006333Y008423D02*
X002679Y008423D01*
X002679Y008305D02*
X006333Y008305D01*
X006333Y008186D02*
X002679Y008186D01*
X002679Y008068D02*
X006333Y008068D01*
X006573Y007587D02*
X006949Y007587D01*
X007449Y007087D01*
X010199Y007087D01*
X009903Y006937D02*
X009797Y007042D01*
X009097Y007042D01*
X008992Y006937D01*
X008992Y006623D01*
X008949Y006583D01*
X008949Y007087D01*
X009059Y007197D01*
X009073Y007183D01*
X009110Y007162D01*
X009150Y007151D01*
X009387Y007151D01*
X009387Y007525D01*
X009389Y007526D01*
X009507Y007526D01*
X009507Y007151D01*
X009744Y007151D01*
X009784Y007162D01*
X009821Y007183D01*
X009851Y007213D01*
X009872Y007249D01*
X009883Y007290D01*
X009883Y007527D01*
X009507Y007527D01*
X009507Y007587D01*
X013949Y007587D01*
X014449Y007087D01*
X014449Y006733D01*
X014206Y006733D01*
X014206Y006395D01*
X014090Y006395D01*
X014090Y006733D01*
X013733Y006733D01*
X013692Y006722D01*
X013656Y006701D01*
X013626Y006671D01*
X013605Y006634D01*
X013594Y006594D01*
X013594Y006395D01*
X014090Y006395D01*
X014090Y006278D01*
X014206Y006278D01*
X014206Y005940D01*
X014449Y005940D01*
X014449Y005896D01*
X013029Y005896D01*
X013029Y006071D01*
X012924Y006176D01*
X012295Y006176D01*
X012189Y006071D01*
X012189Y005042D01*
X012295Y004937D01*
X012924Y004937D01*
X013029Y005042D01*
X013029Y005217D01*
X013933Y005217D01*
X013920Y005194D01*
X013909Y005153D01*
X013909Y004896D01*
X014265Y004896D01*
X014265Y004777D01*
X013909Y004777D01*
X013909Y004520D01*
X013920Y004479D01*
X013941Y004443D01*
X013971Y004413D01*
X014007Y004392D01*
X014048Y004381D01*
X014265Y004381D01*
X014265Y004776D01*
X014385Y004776D01*
X014385Y004381D01*
X014449Y004381D01*
X014449Y002337D01*
X013949Y001837D01*
X009449Y001837D01*
X008949Y002337D01*
X008949Y004606D01*
X009161Y004394D01*
X009257Y004298D01*
X009381Y004247D01*
X010381Y004247D01*
X010517Y004247D01*
X010642Y004298D01*
X010892Y004548D01*
X010987Y004644D01*
X011039Y004769D01*
X011039Y004937D01*
X011104Y004937D01*
X011209Y005042D01*
X011209Y006071D01*
X011104Y006176D01*
X010475Y006176D01*
X010369Y006071D01*
X010369Y005558D01*
X010359Y005534D01*
X010359Y005399D01*
X010359Y004977D01*
X010308Y004926D01*
X009590Y004926D01*
X009413Y005103D01*
X009413Y005121D01*
X009509Y005217D01*
X009509Y005956D01*
X009413Y006052D01*
X009413Y006086D01*
X009461Y006131D01*
X009797Y006131D01*
X009903Y006236D01*
X009903Y006937D01*
X009903Y006882D02*
X014449Y006882D01*
X014449Y006764D02*
X009903Y006764D01*
X009903Y006645D02*
X013611Y006645D01*
X013594Y006527D02*
X009903Y006527D01*
X009903Y006408D02*
X013594Y006408D01*
X013594Y006278D02*
X013594Y006079D01*
X013605Y006039D01*
X013626Y006002D01*
X013656Y005972D01*
X013692Y005951D01*
X013733Y005940D01*
X014090Y005940D01*
X014090Y006278D01*
X013594Y006278D01*
X013594Y006171D02*
X012929Y006171D01*
X013029Y006052D02*
X013601Y006052D01*
X014090Y006052D02*
X014206Y006052D01*
X014206Y006171D02*
X014090Y006171D01*
X014090Y006290D02*
X009903Y006290D01*
X009837Y006171D02*
X010469Y006171D01*
X010369Y006052D02*
X009413Y006052D01*
X009509Y005934D02*
X010369Y005934D01*
X010369Y005815D02*
X009509Y005815D01*
X009509Y005697D02*
X010369Y005697D01*
X010369Y005578D02*
X009509Y005578D01*
X009509Y005460D02*
X010359Y005460D01*
X010359Y005341D02*
X009509Y005341D01*
X009509Y005223D02*
X010359Y005223D01*
X010359Y005104D02*
X009413Y005104D01*
X009531Y004986D02*
X010359Y004986D01*
X010855Y004511D02*
X013912Y004511D01*
X013909Y004630D02*
X010973Y004630D01*
X011031Y004748D02*
X013909Y004748D01*
X013909Y004986D02*
X012973Y004986D01*
X013029Y005104D02*
X013909Y005104D01*
X014265Y004867D02*
X011039Y004867D01*
X011153Y004986D02*
X011366Y004986D01*
X011361Y004989D02*
X011397Y004967D01*
X011438Y004957D01*
X011639Y004957D01*
X011639Y005496D01*
X011759Y005496D01*
X011759Y004957D01*
X011960Y004957D01*
X012001Y004967D01*
X012037Y004989D01*
X012067Y005018D01*
X012088Y005055D01*
X012099Y005095D01*
X012099Y005497D01*
X011759Y005497D01*
X011759Y005616D01*
X012099Y005616D01*
X012099Y006018D01*
X012088Y006058D01*
X012067Y006095D01*
X012037Y006125D01*
X012001Y006146D01*
X011960Y006156D01*
X011759Y006156D01*
X011759Y005617D01*
X011639Y005617D01*
X011639Y006156D01*
X011438Y006156D01*
X011397Y006146D01*
X011361Y006125D01*
X011331Y006095D01*
X011310Y006058D01*
X011299Y006018D01*
X011299Y005616D01*
X011639Y005616D01*
X011639Y005497D01*
X011299Y005497D01*
X011299Y005095D01*
X011310Y005055D01*
X011331Y005018D01*
X011361Y004989D01*
X011299Y005104D02*
X011209Y005104D01*
X011209Y005223D02*
X011299Y005223D01*
X011299Y005341D02*
X011209Y005341D01*
X011209Y005460D02*
X011299Y005460D01*
X011209Y005578D02*
X011639Y005578D01*
X011639Y005460D02*
X011759Y005460D01*
X011759Y005578D02*
X012189Y005578D01*
X012189Y005460D02*
X012099Y005460D01*
X012099Y005341D02*
X012189Y005341D01*
X012189Y005223D02*
X012099Y005223D01*
X012099Y005104D02*
X012189Y005104D01*
X012246Y004986D02*
X012032Y004986D01*
X011759Y004986D02*
X011639Y004986D01*
X011639Y005104D02*
X011759Y005104D01*
X011759Y005223D02*
X011639Y005223D01*
X011639Y005341D02*
X011759Y005341D01*
X011759Y005697D02*
X011639Y005697D01*
X011639Y005815D02*
X011759Y005815D01*
X011759Y005934D02*
X011639Y005934D01*
X011639Y006052D02*
X011759Y006052D01*
X012090Y006052D02*
X012189Y006052D01*
X012189Y005934D02*
X012099Y005934D01*
X012099Y005815D02*
X012189Y005815D01*
X012189Y005697D02*
X012099Y005697D01*
X012289Y006171D02*
X011109Y006171D01*
X011209Y006052D02*
X011309Y006052D01*
X011299Y005934D02*
X011209Y005934D01*
X011209Y005815D02*
X011299Y005815D01*
X011299Y005697D02*
X011209Y005697D01*
X010736Y004393D02*
X014006Y004393D01*
X014265Y004393D02*
X014385Y004393D01*
X014385Y004511D02*
X014265Y004511D01*
X014265Y004630D02*
X014385Y004630D01*
X014385Y004748D02*
X014265Y004748D01*
X014689Y004393D02*
X014754Y004393D01*
X014689Y004274D02*
X019372Y004274D01*
X019490Y004156D02*
X014689Y004156D01*
X014689Y004037D02*
X019609Y004037D01*
X019728Y003919D02*
X017036Y003919D01*
X017216Y003800D02*
X019846Y003800D01*
X019965Y003682D02*
X017335Y003682D01*
X017453Y003563D02*
X020083Y003563D01*
X020202Y003444D02*
X017572Y003444D01*
X017690Y003326D02*
X020320Y003326D01*
X020439Y003207D02*
X017767Y003207D01*
X017789Y003089D02*
X020557Y003089D01*
X020676Y002970D02*
X017789Y002970D01*
X017789Y002852D02*
X020794Y002852D01*
X020913Y002733D02*
X017789Y002733D01*
X017789Y002615D02*
X021032Y002615D01*
X021150Y002496D02*
X017789Y002496D01*
X017789Y002378D02*
X020318Y002378D01*
X020094Y002259D02*
X019769Y002259D01*
X019883Y002141D02*
X019980Y002141D01*
X019489Y002141D02*
X019409Y002141D01*
X019409Y002259D02*
X019489Y002259D01*
X019489Y002022D02*
X019409Y002022D01*
X019409Y001903D02*
X019489Y001903D01*
X019409Y001877D02*
X019409Y001796D01*
X018919Y001796D01*
X018489Y001796D01*
X018489Y001877D01*
X018919Y001877D01*
X019409Y001877D01*
X019409Y001785D02*
X019489Y001785D01*
X019489Y001666D02*
X019409Y001666D01*
X019409Y001548D02*
X019489Y001548D01*
X019489Y001429D02*
X019409Y001429D01*
X019409Y001311D02*
X019489Y001311D01*
X019517Y001311D02*
X020281Y001311D01*
X020079Y001429D02*
X019790Y001429D01*
X019894Y001548D02*
X019973Y001548D01*
X019381Y001311D02*
X018517Y001311D01*
X018489Y001311D02*
X018409Y001311D01*
X018381Y001311D02*
X017617Y001311D01*
X017820Y001429D02*
X018108Y001429D01*
X018004Y001548D02*
X017925Y001548D01*
X018409Y001548D02*
X018489Y001548D01*
X018489Y001666D02*
X018409Y001666D01*
X018409Y001785D02*
X018489Y001785D01*
X018489Y001903D02*
X018409Y001903D01*
X018409Y002022D02*
X018489Y002022D01*
X018489Y002141D02*
X018409Y002141D01*
X018409Y002259D02*
X018489Y002259D01*
X018769Y002259D02*
X019129Y002259D01*
X019015Y002141D02*
X018883Y002141D01*
X018946Y002022D02*
X018952Y002022D01*
X019004Y001548D02*
X018894Y001548D01*
X018790Y001429D02*
X019108Y001429D01*
X018489Y001429D02*
X018409Y001429D01*
X018015Y002141D02*
X017919Y002141D01*
X017804Y002259D02*
X018129Y002259D01*
X017109Y002378D02*
X016580Y002378D01*
X016804Y002259D02*
X017094Y002259D01*
X016980Y002141D02*
X016919Y002141D01*
X017109Y002496D02*
X014689Y002496D01*
X014689Y002378D02*
X015318Y002378D01*
X015094Y002259D02*
X014677Y002259D01*
X014593Y002141D02*
X014980Y002141D01*
X014931Y002022D02*
X014474Y002022D01*
X014585Y002133D02*
X014585Y002133D01*
X014372Y002259D02*
X009027Y002259D01*
X008949Y002378D02*
X014449Y002378D01*
X014449Y002496D02*
X008949Y002496D01*
X008949Y002615D02*
X010845Y002615D01*
X010841Y002622D02*
X010862Y002585D01*
X010892Y002555D01*
X010929Y002534D01*
X010969Y002523D01*
X011639Y002523D01*
X011639Y003056D01*
X011759Y003056D01*
X011759Y002523D01*
X012429Y002523D01*
X012470Y002534D01*
X012506Y002555D01*
X012536Y002585D01*
X012557Y002622D01*
X012568Y002662D01*
X012568Y003056D01*
X011759Y003056D01*
X011759Y003176D01*
X012568Y003176D01*
X012568Y003571D01*
X012557Y003611D01*
X012536Y003648D01*
X012506Y003678D01*
X012470Y003699D01*
X012429Y003709D01*
X011759Y003709D01*
X011759Y003177D01*
X011639Y003177D01*
X011639Y003709D01*
X010969Y003709D01*
X010929Y003699D01*
X010892Y003678D01*
X010862Y003648D01*
X010841Y003611D01*
X010830Y003571D01*
X010830Y003176D01*
X011639Y003176D01*
X011639Y003056D01*
X010830Y003056D01*
X010830Y002662D01*
X010841Y002622D01*
X010830Y002733D02*
X008949Y002733D01*
X008949Y002852D02*
X010830Y002852D01*
X010830Y002970D02*
X008949Y002970D01*
X008949Y003089D02*
X011639Y003089D01*
X011639Y003207D02*
X011759Y003207D01*
X011759Y003089D02*
X014449Y003089D01*
X014449Y003207D02*
X012568Y003207D01*
X012568Y003326D02*
X014449Y003326D01*
X014449Y003444D02*
X012568Y003444D01*
X012568Y003563D02*
X014449Y003563D01*
X014449Y003682D02*
X012499Y003682D01*
X011759Y003682D02*
X011639Y003682D01*
X011639Y003563D02*
X011759Y003563D01*
X011759Y003444D02*
X011639Y003444D01*
X011639Y003326D02*
X011759Y003326D01*
X011759Y002970D02*
X011639Y002970D01*
X011639Y002852D02*
X011759Y002852D01*
X011759Y002733D02*
X011639Y002733D01*
X011639Y002615D02*
X011759Y002615D01*
X012553Y002615D02*
X014449Y002615D01*
X014449Y002733D02*
X012568Y002733D01*
X012568Y002852D02*
X014449Y002852D01*
X014449Y002970D02*
X012568Y002970D01*
X013199Y002970D02*
X010199Y002970D01*
X010199Y002852D02*
X013199Y002852D01*
X013199Y002733D02*
X010199Y002733D01*
X010199Y002615D02*
X013199Y002615D01*
X013199Y002496D02*
X010199Y002496D01*
X010199Y002378D02*
X013199Y002378D01*
X013199Y002337D02*
X010199Y002337D01*
X010199Y003587D01*
X013199Y003587D01*
X013199Y002337D01*
X014016Y001903D02*
X009382Y001903D01*
X009264Y002022D02*
X014135Y002022D01*
X014253Y002141D02*
X009145Y002141D01*
X008924Y002022D02*
X008749Y002022D01*
X008759Y001903D02*
X009043Y001903D01*
X009161Y001785D02*
X008759Y001785D01*
X008755Y001666D02*
X009280Y001666D01*
X008706Y001548D02*
X014973Y001548D01*
X014924Y001666D02*
X014118Y001666D01*
X014153Y001701D02*
X014153Y001701D01*
X014237Y001785D02*
X014899Y001785D01*
X014899Y001903D02*
X014355Y001903D01*
X014689Y002615D02*
X017109Y002615D01*
X017109Y002733D02*
X014689Y002733D01*
X014689Y002852D02*
X017109Y002852D01*
X017085Y002970D02*
X014689Y002970D01*
X014689Y003089D02*
X016966Y003089D01*
X016847Y003207D02*
X014689Y003207D01*
X014449Y003800D02*
X008949Y003800D01*
X008949Y003682D02*
X010899Y003682D01*
X010830Y003563D02*
X008949Y003563D01*
X008949Y003444D02*
X010830Y003444D01*
X010830Y003326D02*
X008949Y003326D01*
X008949Y003207D02*
X010830Y003207D01*
X010199Y003207D02*
X013199Y003207D01*
X013199Y003089D02*
X010199Y003089D01*
X010199Y003326D02*
X013199Y003326D01*
X013199Y003444D02*
X010199Y003444D01*
X010199Y003563D02*
X013199Y003563D01*
X014449Y003919D02*
X008949Y003919D01*
X008949Y004037D02*
X014449Y004037D01*
X014449Y004156D02*
X008949Y004156D01*
X008949Y004274D02*
X009314Y004274D01*
X009162Y004393D02*
X008949Y004393D01*
X008949Y004511D02*
X009043Y004511D01*
X008709Y004511D02*
X007375Y004511D01*
X007461Y004393D02*
X008709Y004393D01*
X008709Y004274D02*
X007529Y004274D01*
X007574Y004156D02*
X008709Y004156D01*
X008709Y004037D02*
X007605Y004037D01*
X007623Y003919D02*
X008709Y003919D01*
X008709Y003800D02*
X007623Y003800D01*
X007618Y003682D02*
X008709Y003682D01*
X008709Y003563D02*
X007586Y003563D01*
X007554Y003444D02*
X008709Y003444D01*
X008709Y003326D02*
X007487Y003326D01*
X007419Y003207D02*
X008709Y003207D01*
X008709Y003089D02*
X007302Y003089D01*
X007152Y002970D02*
X008709Y002970D01*
X008709Y002852D02*
X006897Y002852D01*
X006288Y002852D02*
X005932Y002852D01*
X006033Y002970D02*
X005638Y002970D01*
X005472Y002970D02*
X005352Y002970D01*
X005352Y002852D02*
X005472Y002852D01*
X005472Y002733D02*
X005352Y002733D01*
X005352Y002615D02*
X005472Y002615D01*
X005472Y002496D02*
X005352Y002496D01*
X005352Y002378D02*
X005472Y002378D01*
X005472Y002259D02*
X005352Y002259D01*
X005352Y002141D02*
X005472Y002141D01*
X005472Y002022D02*
X007149Y002022D01*
X007139Y001903D02*
X006419Y001903D01*
X006402Y001785D02*
X007139Y001785D01*
X007143Y001666D02*
X006370Y001666D01*
X006322Y001548D02*
X007192Y001548D01*
X007241Y001429D02*
X006255Y001429D01*
X006165Y001311D02*
X007330Y001311D01*
X007448Y001192D02*
X006036Y001192D01*
X005845Y001074D02*
X007675Y001074D01*
X008224Y001074D02*
X028097Y001074D01*
X028213Y001192D02*
X008450Y001192D01*
X008569Y001311D02*
X015281Y001311D01*
X015079Y001429D02*
X008657Y001429D01*
X008700Y002141D02*
X008806Y002141D01*
X008721Y002259D02*
X008651Y002259D01*
X008709Y002378D02*
X008553Y002378D01*
X008435Y002496D02*
X008709Y002496D01*
X008709Y002615D02*
X008187Y002615D01*
X007711Y002615D02*
X006202Y002615D01*
X006284Y002496D02*
X007463Y002496D01*
X007345Y002378D02*
X006344Y002378D01*
X006385Y002259D02*
X007248Y002259D01*
X007198Y002141D02*
X006411Y002141D01*
X006093Y002733D02*
X008709Y002733D01*
X010584Y004274D02*
X014449Y004274D01*
X015013Y004393D02*
X015133Y004393D01*
X015133Y004511D02*
X015013Y004511D01*
X015013Y004630D02*
X015133Y004630D01*
X015133Y004748D02*
X015013Y004748D01*
X015133Y004867D02*
X018779Y004867D01*
X018661Y004986D02*
X015489Y004986D01*
X015489Y005104D02*
X018542Y005104D01*
X018424Y005223D02*
X015461Y005223D01*
X015133Y005223D02*
X015013Y005223D01*
X015013Y005104D02*
X015133Y005104D01*
X015133Y004986D02*
X015013Y004986D01*
X015489Y004748D02*
X018898Y004748D01*
X019016Y004630D02*
X015489Y004630D01*
X015487Y004511D02*
X019135Y004511D01*
X019253Y004393D02*
X015392Y004393D01*
X014689Y005341D02*
X018305Y005341D01*
X018186Y005460D02*
X014689Y005460D01*
X014689Y005578D02*
X018068Y005578D01*
X017949Y005697D02*
X014689Y005697D01*
X014689Y005815D02*
X017831Y005815D01*
X017712Y005934D02*
X014689Y005934D01*
X014449Y005934D02*
X013029Y005934D01*
X014090Y006408D02*
X014206Y006408D01*
X014206Y006527D02*
X014090Y006527D01*
X014090Y006645D02*
X014206Y006645D01*
X014689Y006764D02*
X016744Y006764D01*
X016744Y006882D02*
X014689Y006882D01*
X014689Y007001D02*
X017139Y007001D01*
X017139Y006882D02*
X017259Y006882D01*
X017259Y006764D02*
X017139Y006764D01*
X017139Y006645D02*
X017259Y006645D01*
X017609Y006527D02*
X015804Y006527D01*
X015804Y006408D02*
X017609Y006408D01*
X017609Y006290D02*
X015309Y006290D01*
X015308Y006408D02*
X015192Y006408D01*
X015192Y006527D02*
X015308Y006527D01*
X015308Y006645D02*
X015192Y006645D01*
X015192Y006171D02*
X015308Y006171D01*
X015308Y006052D02*
X015192Y006052D01*
X015797Y006052D02*
X017624Y006052D01*
X017609Y006171D02*
X015804Y006171D01*
X015787Y006645D02*
X016755Y006645D01*
X016744Y007119D02*
X014689Y007119D01*
X014637Y007238D02*
X016744Y007238D01*
X016748Y007356D02*
X014519Y007356D01*
X014400Y007475D02*
X016724Y007475D01*
X016724Y007594D02*
X014282Y007594D01*
X014305Y007712D02*
X016724Y007712D01*
X016724Y007831D02*
X014424Y007831D01*
X014542Y007949D02*
X016724Y007949D01*
X016751Y008068D02*
X014661Y008068D01*
X014780Y008186D02*
X016981Y008186D01*
X017078Y008305D02*
X014898Y008305D01*
X015017Y008423D02*
X017196Y008423D01*
X017315Y008542D02*
X015135Y008542D01*
X015254Y008660D02*
X017434Y008660D01*
X017634Y008522D02*
X017199Y008087D01*
X017199Y007711D01*
X017849Y007387D02*
X017849Y006137D01*
X021399Y002587D01*
X022199Y002587D01*
X022449Y002337D01*
X022449Y001837D01*
X022094Y002259D02*
X020804Y002259D01*
X020919Y002141D02*
X021980Y002141D01*
X021931Y002022D02*
X020968Y002022D01*
X020999Y001903D02*
X021899Y001903D01*
X021899Y001785D02*
X020999Y001785D01*
X020974Y001666D02*
X021924Y001666D01*
X021973Y001548D02*
X020925Y001548D01*
X020820Y001429D02*
X022079Y001429D01*
X022281Y001311D02*
X020617Y001311D01*
X020580Y002378D02*
X021276Y002378D01*
X021499Y002887D02*
X018149Y006237D01*
X018149Y006995D01*
X018416Y007262D01*
X018477Y006983D02*
X018785Y006983D01*
X018891Y007089D01*
X018891Y007404D01*
X018891Y007750D01*
X018891Y007974D01*
X018937Y007862D01*
X019024Y007775D01*
X019138Y007728D01*
X019261Y007728D01*
X019374Y007775D01*
X019461Y007862D01*
X019508Y007975D01*
X019508Y008097D01*
X020009Y007596D01*
X020009Y007069D01*
X020026Y007028D01*
X019896Y007028D01*
X019581Y007028D01*
X019266Y007028D01*
X018951Y007028D01*
X018846Y006923D01*
X018846Y006183D01*
X018884Y006145D01*
X018884Y005841D01*
X018389Y006336D01*
X018389Y006896D01*
X018477Y006983D01*
X018389Y006882D02*
X018846Y006882D01*
X018846Y006764D02*
X018389Y006764D01*
X018389Y006645D02*
X018846Y006645D01*
X018846Y006527D02*
X018389Y006527D01*
X018389Y006408D02*
X018846Y006408D01*
X018846Y006290D02*
X018435Y006290D01*
X018554Y006171D02*
X018858Y006171D01*
X018884Y006052D02*
X018673Y006052D01*
X018791Y005934D02*
X018884Y005934D01*
X019124Y005661D02*
X021599Y003187D01*
X023599Y003187D01*
X024449Y002337D01*
X024449Y001837D01*
X024079Y001429D02*
X023820Y001429D01*
X023925Y001548D02*
X023973Y001548D01*
X024281Y001311D02*
X023617Y001311D01*
X023281Y001311D02*
X022617Y001311D01*
X022820Y001429D02*
X023079Y001429D01*
X022973Y001548D02*
X022925Y001548D01*
X023449Y001837D02*
X023449Y002337D01*
X022899Y002887D01*
X021499Y002887D01*
X021699Y003487D02*
X024299Y003487D01*
X025449Y002337D01*
X025449Y001837D01*
X025079Y001429D02*
X024820Y001429D01*
X024925Y001548D02*
X024973Y001548D01*
X025281Y001311D02*
X024617Y001311D01*
X025617Y001311D02*
X026281Y001311D01*
X026079Y001429D02*
X025820Y001429D01*
X025925Y001548D02*
X025973Y001548D01*
X026449Y001837D02*
X026449Y002337D01*
X024999Y003787D01*
X021799Y003787D01*
X019754Y005831D01*
X019754Y006553D01*
X019439Y006553D02*
X019439Y005746D01*
X021699Y003487D01*
X021899Y004087D02*
X025699Y004087D01*
X027449Y002337D01*
X027449Y001837D01*
X027804Y002259D02*
X028546Y002259D01*
X028428Y002141D02*
X027919Y002141D01*
X027968Y002022D02*
X028309Y002022D01*
X028219Y001903D02*
X027999Y001903D01*
X027999Y001785D02*
X028219Y001785D01*
X028219Y001666D02*
X027974Y001666D01*
X027925Y001548D02*
X028219Y001548D01*
X028219Y001429D02*
X027820Y001429D01*
X027617Y001311D02*
X028219Y001311D01*
X027281Y001311D02*
X026617Y001311D01*
X026820Y001429D02*
X027079Y001429D01*
X026973Y001548D02*
X026925Y001548D01*
X027689Y002378D02*
X028665Y002378D01*
X028784Y002496D02*
X027629Y002496D01*
X027510Y002615D02*
X028902Y002615D01*
X029021Y002733D02*
X027392Y002733D01*
X027273Y002852D02*
X029139Y002852D01*
X023012Y005934D02*
X020791Y005934D01*
X020069Y005916D02*
X021899Y004087D01*
X022513Y005460D02*
X022633Y005460D01*
X022633Y005578D02*
X022513Y005578D01*
X022513Y005697D02*
X022633Y005697D01*
X020069Y005916D02*
X020069Y006553D01*
X020009Y007119D02*
X018891Y007119D01*
X018891Y007238D02*
X020009Y007238D01*
X020009Y007356D02*
X018891Y007356D01*
X018891Y007475D02*
X020009Y007475D01*
X020009Y007594D02*
X018891Y007594D01*
X018891Y007712D02*
X019893Y007712D01*
X019774Y007831D02*
X019430Y007831D01*
X019497Y007949D02*
X019656Y007949D01*
X019537Y008068D02*
X019508Y008068D01*
X019199Y008037D02*
X019199Y008237D01*
X018899Y008537D01*
X018431Y008537D01*
X018416Y008522D01*
X017634Y008522D01*
X017960Y008779D02*
X015372Y008779D01*
X014885Y009253D02*
X012989Y009253D01*
X012989Y009135D02*
X014766Y009135D01*
X014648Y009016D02*
X012989Y009016D01*
X012989Y008897D02*
X014529Y008897D01*
X014411Y008779D02*
X012989Y008779D01*
X012989Y008660D02*
X014292Y008660D01*
X014174Y008542D02*
X012989Y008542D01*
X012989Y008423D02*
X014055Y008423D01*
X013937Y008305D02*
X012989Y008305D01*
X012989Y008186D02*
X013818Y008186D01*
X013700Y008068D02*
X012989Y008068D01*
X012989Y007949D02*
X013581Y007949D01*
X013462Y007831D02*
X012989Y007831D01*
X012309Y007831D02*
X009903Y007831D01*
X009890Y007949D02*
X012309Y007949D01*
X012309Y008068D02*
X008665Y008068D01*
X008665Y007949D02*
X009004Y007949D01*
X008992Y007831D02*
X008648Y007831D01*
X008578Y007712D02*
X008992Y007712D01*
X008992Y007594D02*
X008453Y007594D01*
X008407Y007475D02*
X008992Y007475D01*
X008880Y007356D02*
X008407Y007356D01*
X008982Y007119D02*
X014416Y007119D01*
X014449Y007001D02*
X009839Y007001D01*
X009865Y007238D02*
X014298Y007238D01*
X014179Y007356D02*
X009883Y007356D01*
X009883Y007475D02*
X014061Y007475D01*
X012309Y008186D02*
X009450Y008186D01*
X009489Y008305D02*
X012309Y008305D01*
X012309Y008423D02*
X009489Y008423D01*
X009489Y008660D02*
X012309Y008660D01*
X012309Y008542D02*
X009133Y008542D01*
X009133Y008423D02*
X009013Y008423D01*
X009013Y008305D02*
X009133Y008305D01*
X009133Y008186D02*
X009013Y008186D01*
X009489Y008779D02*
X012309Y008779D01*
X012309Y008897D02*
X009489Y008897D01*
X009417Y009016D02*
X012309Y009016D01*
X012309Y009135D02*
X009321Y009135D01*
X009486Y009253D02*
X012309Y009253D01*
X012309Y009372D02*
X009548Y009372D01*
X009548Y009490D02*
X012309Y009490D01*
X012309Y009609D02*
X009548Y009609D01*
X009548Y009727D02*
X010421Y009727D01*
X010409Y009846D02*
X009548Y009846D01*
X009462Y010201D02*
X010409Y010201D01*
X010409Y010320D02*
X009489Y010320D01*
X009489Y010439D02*
X010419Y010439D01*
X010765Y010439D02*
X010885Y010439D01*
X010885Y010320D02*
X010765Y010320D01*
X010765Y010201D02*
X010885Y010201D01*
X010765Y010083D02*
X008606Y010083D01*
X008606Y009964D02*
X010409Y009964D01*
X010765Y009964D02*
X010885Y009964D01*
X010885Y009846D02*
X010765Y009846D01*
X010765Y009727D02*
X010885Y009727D01*
X011549Y010111D02*
X011573Y010087D01*
X011549Y010111D02*
X011549Y010487D01*
X011227Y010809D01*
X011227Y011397D01*
X011541Y011387D02*
X011542Y011387D01*
X011541Y011505D02*
X011542Y011505D01*
X011541Y011624D02*
X011542Y011624D01*
X011541Y011743D02*
X011542Y011743D01*
X011541Y011268D02*
X011542Y011268D01*
X011541Y011150D02*
X011542Y011150D01*
X011541Y011031D02*
X011542Y011031D01*
X011467Y010913D02*
X012263Y010913D01*
X012309Y010794D02*
X011581Y010794D01*
X011699Y010676D02*
X012309Y010676D01*
X012309Y010557D02*
X011908Y010557D01*
X012009Y010439D02*
X012309Y010439D01*
X012309Y010320D02*
X012009Y010320D01*
X012009Y010201D02*
X012309Y010201D01*
X012309Y010083D02*
X012009Y010083D01*
X012009Y009964D02*
X012309Y009964D01*
X012309Y009846D02*
X012009Y009846D01*
X012009Y009727D02*
X012309Y009727D01*
X012989Y009727D02*
X017940Y009727D01*
X017940Y009609D02*
X012989Y009609D01*
X012989Y009490D02*
X015122Y009490D01*
X015004Y009372D02*
X012989Y009372D01*
X012989Y009846D02*
X017940Y009846D01*
X017940Y009964D02*
X012989Y009964D01*
X012989Y010083D02*
X017940Y010083D01*
X017940Y010201D02*
X012989Y010201D01*
X012989Y010320D02*
X017940Y010320D01*
X017940Y010439D02*
X012989Y010439D01*
X012989Y010557D02*
X015827Y010557D01*
X015794Y010676D02*
X012989Y010676D01*
X012989Y010794D02*
X014433Y010794D01*
X014347Y010913D02*
X013030Y010913D01*
X013051Y011031D02*
X014347Y011031D01*
X014347Y011150D02*
X013091Y011150D01*
X013091Y011268D02*
X014347Y011268D01*
X014347Y011387D02*
X013091Y011387D01*
X013091Y011505D02*
X014347Y011505D01*
X014995Y011980D02*
X015774Y011980D01*
X015774Y011861D02*
X015608Y011861D01*
X015652Y011743D02*
X015766Y011743D01*
X015774Y012454D02*
X015650Y012454D01*
X015652Y012572D02*
X015674Y012572D01*
X014949Y012587D02*
X014662Y012299D01*
X013389Y012299D01*
X013692Y012929D02*
X013899Y013137D01*
X013899Y013787D01*
X015263Y014232D02*
X015383Y014232D01*
X015383Y014350D02*
X015263Y014350D01*
X015263Y014469D02*
X015383Y014469D01*
X015630Y013639D02*
X015794Y013639D01*
X018989Y013639D02*
X019109Y013639D01*
X019109Y013521D02*
X018989Y013521D01*
X018989Y013402D02*
X019109Y013402D01*
X019109Y013284D02*
X018989Y013284D01*
X018989Y013165D02*
X019109Y013165D01*
X019109Y013046D02*
X018989Y013046D01*
X018989Y012928D02*
X019109Y012928D01*
X019109Y012809D02*
X018989Y012809D01*
X018989Y012691D02*
X019109Y012691D01*
X019977Y012098D02*
X020621Y012098D01*
X020587Y012217D02*
X020583Y012217D01*
X020503Y011980D02*
X020095Y011980D01*
X020214Y011861D02*
X020459Y011861D01*
X020459Y011743D02*
X020297Y011743D01*
X020309Y011624D02*
X020459Y011624D01*
X020384Y011505D02*
X020384Y011505D01*
X020384Y011387D02*
X020384Y011387D01*
X020384Y011268D02*
X020384Y011268D01*
X020384Y011150D02*
X020384Y011150D01*
X020384Y011031D02*
X020384Y011031D01*
X020384Y010913D02*
X020384Y010913D01*
X020384Y010794D02*
X020384Y010794D01*
X020384Y010676D02*
X020384Y010676D01*
X019572Y009490D02*
X018891Y009490D01*
X018984Y009151D02*
X018416Y009151D01*
X017934Y009151D01*
X017849Y009237D01*
X017919Y008897D02*
X017960Y008897D01*
X018984Y009151D02*
X018999Y009137D01*
X018891Y007949D02*
X018901Y007949D01*
X018891Y007831D02*
X018968Y007831D01*
X018416Y007577D02*
X018039Y007577D01*
X017849Y007387D01*
X018803Y007001D02*
X018924Y007001D01*
X019124Y006553D02*
X019124Y005661D01*
X016318Y002378D02*
X015580Y002378D01*
X015804Y002259D02*
X016094Y002259D01*
X015980Y002141D02*
X015919Y002141D01*
X015925Y001548D02*
X015973Y001548D01*
X016079Y001429D02*
X015820Y001429D01*
X015617Y001311D02*
X016281Y001311D01*
X016617Y001311D02*
X017281Y001311D01*
X017079Y001429D02*
X016820Y001429D01*
X016925Y001548D02*
X016973Y001548D01*
X009507Y007238D02*
X009387Y007238D01*
X009387Y007356D02*
X009507Y007356D01*
X009507Y007475D02*
X009387Y007475D01*
X009056Y007001D02*
X008949Y007001D01*
X008949Y006882D02*
X008992Y006882D01*
X008992Y006764D02*
X008949Y006764D01*
X008949Y006645D02*
X008992Y006645D01*
X008709Y006645D02*
X008407Y006645D01*
X008407Y006527D02*
X008709Y006527D01*
X008709Y006408D02*
X008407Y006408D01*
X008407Y006290D02*
X008709Y006290D01*
X008709Y006171D02*
X008341Y006171D01*
X008385Y005934D02*
X008265Y005934D01*
X008265Y005815D02*
X008385Y005815D01*
X008385Y005697D02*
X008265Y005697D01*
X008265Y005578D02*
X005789Y005578D01*
X005789Y005460D02*
X007909Y005460D01*
X007909Y005341D02*
X005789Y005341D01*
X005789Y005223D02*
X007924Y005223D01*
X008265Y005223D02*
X008385Y005223D01*
X008385Y005341D02*
X008265Y005341D01*
X008265Y005460D02*
X008385Y005460D01*
X008709Y005104D02*
X005806Y005104D01*
X005925Y004986D02*
X008709Y004986D01*
X008709Y004867D02*
X006043Y004867D01*
X005556Y004393D02*
X005074Y004393D01*
X005056Y004422D02*
X004985Y004511D01*
X004905Y004591D01*
X004816Y004662D01*
X004720Y004722D01*
X004618Y004771D01*
X004511Y004809D01*
X004400Y004834D01*
X004291Y004846D01*
X004291Y003897D01*
X004171Y003897D01*
X004171Y004846D01*
X004061Y004834D01*
X003951Y004809D01*
X003844Y004771D01*
X003741Y004722D01*
X003645Y004662D01*
X003557Y004591D01*
X003476Y004511D01*
X003406Y004422D01*
X003345Y004326D01*
X003296Y004224D01*
X003259Y004117D01*
X003233Y004006D01*
X003221Y003896D01*
X004170Y003896D01*
X004170Y003777D01*
X003221Y003777D01*
X003233Y003667D01*
X003259Y003556D01*
X003296Y003449D01*
X003345Y003347D01*
X003406Y003251D01*
X003476Y003162D01*
X003557Y003082D01*
X003645Y003011D01*
X003741Y002951D01*
X003844Y002902D01*
X003951Y002864D01*
X004061Y002839D01*
X004171Y002827D01*
X004171Y003776D01*
X004291Y003776D01*
X004291Y003777D02*
X004291Y003896D01*
X005240Y003896D01*
X005228Y004006D01*
X005203Y004117D01*
X005165Y004224D01*
X005116Y004326D01*
X005056Y004422D01*
X004984Y004511D02*
X005437Y004511D01*
X005319Y004630D02*
X004856Y004630D01*
X004665Y004748D02*
X005200Y004748D01*
X005128Y004867D02*
X002679Y004867D01*
X002679Y004986D02*
X005109Y004986D01*
X005109Y005104D02*
X002679Y005104D01*
X002679Y005223D02*
X005109Y005223D01*
X005109Y005341D02*
X002679Y005341D01*
X002679Y005460D02*
X005109Y005460D01*
X005109Y005578D02*
X002679Y005578D01*
X002679Y005697D02*
X005109Y005697D01*
X005109Y005815D02*
X002679Y005815D01*
X002679Y005934D02*
X005109Y005934D01*
X005136Y006052D02*
X002679Y006052D01*
X002679Y006171D02*
X005218Y006171D01*
X005337Y006290D02*
X002679Y006290D01*
X002679Y006408D02*
X005429Y006408D01*
X005429Y006527D02*
X002679Y006527D01*
X002679Y006645D02*
X005429Y006645D01*
X005486Y006764D02*
X002679Y006764D01*
X002679Y006882D02*
X007275Y006882D01*
X007146Y006764D02*
X006912Y006764D01*
X006235Y007119D02*
X006164Y007119D01*
X006573Y007587D02*
X006573Y009087D01*
X006573Y010087D01*
X006238Y010557D02*
X006160Y010557D01*
X005825Y010087D02*
X004863Y010087D01*
X004488Y010439D02*
X004411Y010439D01*
X004582Y010557D02*
X005490Y010557D01*
X005389Y010439D02*
X005237Y010439D01*
X005456Y011150D02*
X002679Y011150D01*
X002679Y011268D02*
X003662Y011268D01*
X003640Y011387D02*
X002679Y011387D01*
X002679Y011505D02*
X003640Y011505D01*
X003640Y011743D02*
X002679Y011743D01*
X002679Y011861D02*
X003644Y011861D01*
X003978Y011861D02*
X004094Y011861D01*
X004094Y011743D02*
X003978Y011743D01*
X003977Y011624D02*
X002679Y011624D01*
X002679Y011031D02*
X004207Y011031D01*
X004146Y010913D02*
X002679Y010913D01*
X002679Y010794D02*
X004067Y010794D01*
X003949Y010676D02*
X002679Y010676D01*
X002679Y010557D02*
X003831Y010557D01*
X003661Y010439D02*
X002679Y010439D01*
X002679Y010320D02*
X003620Y010320D01*
X003620Y010201D02*
X002679Y010201D01*
X002679Y010083D02*
X003620Y010083D01*
X003620Y009964D02*
X002679Y009964D01*
X002679Y009846D02*
X003620Y009846D01*
X003668Y009727D02*
X002679Y009727D01*
X002679Y009609D02*
X004132Y009609D01*
X004449Y009587D02*
X004036Y009173D01*
X004036Y009087D01*
X003620Y009135D02*
X002679Y009135D01*
X002679Y009253D02*
X003620Y009253D01*
X003620Y009372D02*
X002679Y009372D01*
X002679Y009490D02*
X003712Y009490D01*
X003620Y009016D02*
X002679Y009016D01*
X002679Y008897D02*
X003620Y008897D01*
X003620Y008779D02*
X002679Y008779D01*
X002679Y007949D02*
X003700Y007949D01*
X003701Y007951D02*
X003671Y007921D01*
X003650Y007884D01*
X003640Y007844D01*
X003640Y007645D01*
X003977Y007645D01*
X003977Y007528D01*
X003640Y007528D01*
X003640Y007329D01*
X003650Y007289D01*
X003671Y007252D01*
X003701Y007222D01*
X003738Y007201D01*
X003778Y007190D01*
X003978Y007190D01*
X003978Y007528D01*
X004094Y007528D01*
X004094Y007190D01*
X004293Y007190D01*
X004334Y007201D01*
X004370Y007222D01*
X004400Y007252D01*
X004421Y007289D01*
X004432Y007329D01*
X004432Y007528D01*
X004094Y007528D01*
X004094Y007645D01*
X003978Y007645D01*
X003978Y007983D01*
X003778Y007983D01*
X003738Y007972D01*
X003701Y007951D01*
X003640Y007831D02*
X002679Y007831D01*
X002679Y007712D02*
X003640Y007712D01*
X003640Y007475D02*
X002679Y007475D01*
X002679Y007594D02*
X003977Y007594D01*
X004094Y007594D02*
X004446Y007594D01*
X004432Y007645D02*
X004432Y007844D01*
X004421Y007884D01*
X004400Y007921D01*
X004370Y007951D01*
X004334Y007972D01*
X004293Y007983D01*
X004094Y007983D01*
X004094Y007645D01*
X004432Y007645D01*
X004432Y007712D02*
X004446Y007712D01*
X004432Y007831D02*
X004446Y007831D01*
X004498Y007949D02*
X004372Y007949D01*
X004094Y007949D02*
X003978Y007949D01*
X003978Y007831D02*
X004094Y007831D01*
X004094Y007712D02*
X003978Y007712D01*
X003978Y007475D02*
X004094Y007475D01*
X004094Y007356D02*
X003978Y007356D01*
X003978Y007238D02*
X004094Y007238D01*
X004386Y007238D02*
X004484Y007238D01*
X004446Y007356D02*
X004432Y007356D01*
X004432Y007475D02*
X004446Y007475D01*
X003686Y007238D02*
X002679Y007238D01*
X002679Y007356D02*
X003640Y007356D01*
X005279Y008779D02*
X005389Y008779D01*
X005825Y009087D02*
X004863Y009087D01*
X004036Y010087D02*
X004036Y010423D01*
X004449Y010837D01*
X004454Y011268D02*
X004409Y011268D01*
X004432Y011387D02*
X004446Y011387D01*
X004432Y011505D02*
X004446Y011505D01*
X004446Y011624D02*
X004094Y011624D01*
X004094Y011645D02*
X004432Y011645D01*
X004432Y011844D01*
X004421Y011884D01*
X004400Y011921D01*
X004370Y011951D01*
X004334Y011972D01*
X004293Y011983D01*
X004094Y011983D01*
X004094Y011645D01*
X004094Y011505D02*
X003978Y011505D01*
X003978Y011387D02*
X004094Y011387D01*
X004094Y011268D02*
X003978Y011268D01*
X004432Y011743D02*
X004446Y011743D01*
X004446Y011861D02*
X004427Y011861D01*
X004529Y011980D02*
X004305Y011980D01*
X004094Y011980D02*
X003978Y011980D01*
X003978Y012217D02*
X004094Y012217D01*
X004094Y012335D02*
X003978Y012335D01*
X003978Y012454D02*
X004094Y012454D01*
X004094Y012572D02*
X004446Y012572D01*
X004432Y012454D02*
X004446Y012454D01*
X004432Y012335D02*
X004446Y012335D01*
X004505Y012217D02*
X004360Y012217D01*
X004863Y012587D02*
X005825Y012587D01*
X005389Y012928D02*
X005248Y012928D01*
X005479Y013046D02*
X002679Y013046D01*
X002679Y012928D02*
X003678Y012928D01*
X003640Y012809D02*
X002679Y012809D01*
X002679Y012691D02*
X003640Y012691D01*
X004393Y012928D02*
X004477Y012928D01*
X004446Y012809D02*
X004432Y012809D01*
X004432Y012691D02*
X004446Y012691D01*
X005196Y011980D02*
X005412Y011980D01*
X005389Y011861D02*
X005279Y011861D01*
X004863Y011587D02*
X005825Y011587D01*
X005389Y011268D02*
X005271Y011268D01*
X006194Y011150D02*
X006204Y011150D01*
X006573Y011587D02*
X007299Y011587D01*
X007529Y011980D02*
X007985Y011980D01*
X007985Y012098D02*
X007626Y012098D01*
X007658Y012217D02*
X007985Y012217D01*
X007985Y012335D02*
X007643Y012335D01*
X007569Y012454D02*
X008016Y012454D01*
X008104Y012572D02*
X007353Y012572D01*
X007234Y012691D02*
X008223Y012691D01*
X008341Y012809D02*
X007088Y012809D01*
X007009Y012928D02*
X008460Y012928D01*
X008578Y013046D02*
X006919Y013046D01*
X006941Y013165D02*
X002679Y013165D01*
X005799Y015062D02*
X005799Y015062D01*
X005799Y015180D02*
X005799Y015180D01*
X006214Y014588D02*
X006259Y014588D01*
X006259Y014469D02*
X006229Y014469D01*
X006229Y014350D02*
X006259Y014350D01*
X006259Y014232D02*
X006229Y014232D01*
X006229Y014113D02*
X006259Y014113D01*
X006259Y013995D02*
X006229Y013995D01*
X006229Y013876D02*
X006259Y013876D01*
X006259Y013758D02*
X006229Y013758D01*
X006229Y013639D02*
X006307Y013639D01*
X006227Y013046D02*
X006171Y013046D01*
X006573Y012587D02*
X006999Y012587D01*
X007349Y012237D01*
X007040Y012206D02*
X007009Y012237D01*
X007009Y012217D01*
X008457Y013165D02*
X008697Y013165D01*
X008675Y013284D02*
X008759Y013284D01*
X008523Y013284D02*
X008509Y013284D01*
X008599Y013587D02*
X008073Y013587D01*
X009439Y013639D02*
X009579Y013639D01*
X009579Y013521D02*
X009439Y013521D01*
X009439Y013402D02*
X009579Y013402D01*
X009579Y013284D02*
X009439Y013284D01*
X009439Y013165D02*
X009579Y013165D01*
X009579Y013046D02*
X009439Y013046D01*
X009401Y012928D02*
X009579Y012928D01*
X009579Y012809D02*
X009303Y012809D01*
X009184Y012691D02*
X009579Y012691D01*
X009579Y012572D02*
X009066Y012572D01*
X008947Y012454D02*
X009579Y012454D01*
X009579Y012335D02*
X008829Y012335D01*
X008710Y012217D02*
X009579Y012217D01*
X009579Y012098D02*
X008665Y012098D01*
X008665Y011980D02*
X009579Y011980D01*
X009579Y011861D02*
X008665Y011861D01*
X008665Y011743D02*
X009636Y011743D01*
X010009Y011984D02*
X010447Y011984D01*
X010307Y011624D02*
X008665Y011624D01*
X008665Y011505D02*
X010307Y011505D01*
X010307Y011387D02*
X008665Y011387D01*
X008665Y011268D02*
X010307Y011268D01*
X010307Y011150D02*
X008665Y011150D01*
X008686Y011031D02*
X008757Y011031D01*
X009013Y011031D02*
X009133Y011031D01*
X009133Y010913D02*
X009013Y010913D01*
X009013Y010794D02*
X009133Y010794D01*
X009133Y010676D02*
X009013Y010676D01*
X009133Y010557D02*
X011139Y010557D01*
X011022Y010676D02*
X009489Y010676D01*
X009489Y010794D02*
X010987Y010794D01*
X010987Y010913D02*
X009486Y010913D01*
X009389Y011031D02*
X010347Y011031D01*
X009133Y010439D02*
X009013Y010439D01*
X009013Y010320D02*
X009133Y010320D01*
X009133Y010201D02*
X009013Y010201D01*
X008716Y009846D02*
X008682Y009846D01*
X008682Y009727D02*
X008716Y009727D01*
X008716Y009609D02*
X008682Y009609D01*
X008682Y009490D02*
X008716Y009490D01*
X008123Y009135D02*
X007009Y009135D01*
X008407Y006764D02*
X008709Y006764D01*
X008709Y006052D02*
X007396Y006052D01*
X007514Y006171D02*
X007561Y006171D01*
X007918Y005934D02*
X006937Y005934D01*
X007909Y005815D02*
X005824Y005815D01*
X005789Y005697D02*
X007909Y005697D01*
X008709Y004748D02*
X007073Y004748D01*
X007256Y004630D02*
X008709Y004630D01*
X005884Y003089D02*
X004911Y003089D01*
X004905Y003082D02*
X004985Y003162D01*
X005056Y003251D01*
X005116Y003347D01*
X005165Y003449D01*
X005203Y003556D01*
X005228Y003667D01*
X005240Y003777D01*
X004291Y003777D01*
X004291Y003776D02*
X004291Y002827D01*
X004400Y002839D01*
X004511Y002864D01*
X004618Y002902D01*
X004720Y002951D01*
X004816Y003011D01*
X004905Y003082D01*
X005021Y003207D02*
X005767Y003207D01*
X005698Y003326D02*
X005103Y003326D01*
X005163Y003444D02*
X005632Y003444D01*
X005600Y003563D02*
X005204Y003563D01*
X005229Y003682D02*
X005568Y003682D01*
X005563Y003800D02*
X004291Y003800D01*
X004291Y003682D02*
X004171Y003682D01*
X004170Y003800D02*
X002679Y003800D01*
X002679Y003682D02*
X003232Y003682D01*
X003257Y003563D02*
X002679Y003563D01*
X002679Y003444D02*
X003298Y003444D01*
X003359Y003326D02*
X002679Y003326D01*
X002679Y003207D02*
X003440Y003207D01*
X003550Y003089D02*
X002679Y003089D01*
X002679Y002970D02*
X003711Y002970D01*
X004006Y002852D02*
X002679Y002852D01*
X002679Y002733D02*
X004730Y002733D01*
X004621Y002615D02*
X002679Y002615D01*
X002679Y002496D02*
X004539Y002496D01*
X004479Y002378D02*
X002679Y002378D01*
X002679Y002259D02*
X004438Y002259D01*
X004413Y002141D02*
X002679Y002141D01*
X002679Y002022D02*
X005352Y002022D01*
X004405Y001903D02*
X002679Y001903D01*
X002679Y001785D02*
X004422Y001785D01*
X004454Y001666D02*
X002679Y001666D01*
X002679Y001548D02*
X004502Y001548D01*
X004569Y001429D02*
X002679Y001429D01*
X002679Y001311D02*
X004659Y001311D01*
X004787Y001192D02*
X002685Y001192D01*
X002801Y001074D02*
X004979Y001074D01*
X004891Y002852D02*
X004455Y002852D01*
X004291Y002852D02*
X004171Y002852D01*
X004171Y002970D02*
X004291Y002970D01*
X004291Y003089D02*
X004171Y003089D01*
X004171Y003207D02*
X004291Y003207D01*
X004291Y003326D02*
X004171Y003326D01*
X004171Y003444D02*
X004291Y003444D01*
X004291Y003563D02*
X004171Y003563D01*
X004171Y003919D02*
X004291Y003919D01*
X004291Y004037D02*
X004171Y004037D01*
X004171Y004156D02*
X004291Y004156D01*
X004291Y004274D02*
X004171Y004274D01*
X004171Y004393D02*
X004291Y004393D01*
X004291Y004511D02*
X004171Y004511D01*
X004171Y004630D02*
X004291Y004630D01*
X004291Y004748D02*
X004171Y004748D01*
X003797Y004748D02*
X002679Y004748D01*
X002679Y004630D02*
X003606Y004630D01*
X003477Y004511D02*
X002679Y004511D01*
X002679Y004393D02*
X003387Y004393D01*
X003320Y004274D02*
X002679Y004274D01*
X002679Y004156D02*
X003272Y004156D01*
X003240Y004037D02*
X002679Y004037D01*
X002679Y003919D02*
X003224Y003919D01*
X004750Y002970D02*
X005185Y002970D01*
X005238Y003919D02*
X005563Y003919D01*
X005580Y004037D02*
X005221Y004037D01*
X005189Y004156D02*
X005612Y004156D01*
X005656Y004274D02*
X005141Y004274D01*
X015565Y010794D02*
X015794Y010794D01*
X015652Y010913D02*
X016189Y010913D01*
X016189Y010794D02*
X016309Y010794D01*
X016309Y010676D02*
X016189Y010676D01*
X016189Y010557D02*
X016309Y010557D01*
X016309Y010913D02*
X018584Y010913D01*
X018032Y010676D02*
X016704Y010676D01*
X016671Y010557D02*
X017940Y010557D01*
X015794Y011031D02*
X015652Y011031D01*
X018989Y013758D02*
X019109Y013758D01*
X019109Y013876D02*
X018989Y013876D01*
X018989Y013995D02*
X019109Y013995D01*
X019109Y014113D02*
X018989Y014113D01*
X018989Y014232D02*
X019109Y014232D01*
X019109Y014350D02*
X018989Y014350D01*
X020165Y013046D02*
X020285Y013046D01*
X020285Y012928D02*
X020165Y012928D01*
X020165Y012809D02*
X020285Y012809D01*
X020285Y012572D02*
X020165Y012572D01*
X020165Y012454D02*
X020285Y012454D01*
X020285Y012335D02*
X020165Y012335D01*
X020165Y012217D02*
X020285Y012217D01*
X020925Y013284D02*
X021373Y013284D01*
X021197Y013402D02*
X021102Y013402D01*
X025199Y015213D02*
X025845Y015213D01*
X025845Y015961D02*
X025199Y015961D01*
X025199Y016587D01*
X027999Y020989D02*
X028219Y020989D01*
X028219Y021107D02*
X027999Y021107D01*
X027999Y021226D02*
X028134Y021226D01*
X028016Y021345D02*
X027936Y021345D01*
X026963Y021345D02*
X026660Y021345D01*
X026837Y021226D02*
X026899Y021226D01*
X021238Y021345D02*
X020660Y021345D01*
X020837Y021226D02*
X021061Y021226D01*
X020966Y021107D02*
X020932Y021107D01*
X017638Y021345D02*
X017060Y021345D01*
X017237Y021226D02*
X017461Y021226D01*
X017366Y021107D02*
X017332Y021107D01*
X009579Y014113D02*
X009439Y014113D01*
X009439Y013995D02*
X009579Y013995D01*
X009579Y013876D02*
X009439Y013876D01*
X009439Y013758D02*
X009579Y013758D01*
D33*
X008599Y013587D03*
X008599Y014037D03*
X010749Y014087D03*
X011299Y013137D03*
X011199Y012737D03*
X011799Y012187D03*
X012199Y012087D03*
X012649Y012187D03*
X013699Y009837D03*
X014449Y009837D03*
X015449Y007837D03*
X016199Y007837D03*
X013199Y006587D03*
X012449Y006587D03*
X011699Y006587D03*
X010949Y006587D03*
X010199Y006587D03*
X009949Y005587D03*
X010949Y004337D03*
X011699Y004337D03*
X012449Y004337D03*
X013199Y003087D03*
X013199Y002587D03*
X012949Y002087D03*
X013449Y002087D03*
X013949Y002337D03*
X013949Y002837D03*
X013949Y003337D03*
X013949Y003837D03*
X012449Y002087D03*
X011949Y002087D03*
X011449Y002087D03*
X010949Y002087D03*
X010449Y002087D03*
X009949Y002087D03*
X010199Y002587D03*
X010199Y003087D03*
X009449Y003337D03*
X009449Y003837D03*
X009449Y002837D03*
X009449Y002337D03*
X004699Y006087D03*
X003699Y006087D03*
X004449Y009587D03*
X004449Y010837D03*
X007299Y011587D03*
X007349Y012237D03*
X011199Y015437D03*
X010599Y015837D03*
X011249Y016287D03*
X013349Y015087D03*
X013699Y014737D03*
X015949Y016337D03*
X016949Y016337D03*
X016949Y014087D03*
X017699Y014087D03*
X018749Y012287D03*
X018449Y011687D03*
X018599Y011237D03*
X019599Y009837D03*
X019949Y008737D03*
X020249Y008437D03*
X020549Y008137D03*
X020849Y007837D03*
X021149Y007537D03*
X021449Y007237D03*
X023749Y008037D03*
X025149Y007637D03*
X025699Y007087D03*
X026449Y007087D03*
X026949Y008837D03*
X026949Y009587D03*
X026699Y012087D03*
X026699Y013837D03*
X025199Y014087D03*
X024199Y014087D03*
X021449Y013587D03*
X021149Y013937D03*
X020849Y013587D03*
X020499Y013937D03*
X020249Y013587D03*
X019949Y013937D03*
X024499Y016637D03*
X025199Y016587D03*
X027199Y015337D03*
X022099Y009987D03*
X019199Y008037D03*
X019199Y007337D03*
X022199Y004587D03*
X022949Y004587D03*
X024699Y004587D03*
X025449Y004587D03*
X011449Y008587D03*
X010699Y008587D03*
X013449Y017337D03*
X012599Y019187D03*
X011049Y019737D03*
X009199Y019587D03*
X008449Y019587D03*
X005199Y018587D03*
X004199Y018587D03*
D34*
X006749Y016437D02*
X007099Y016437D01*
X007349Y016187D01*
X007349Y015602D01*
X007364Y015587D01*
X008034Y015587D02*
X008499Y015587D01*
X009099Y014987D01*
X009099Y013087D01*
X008325Y012313D01*
X008325Y010587D01*
X008266Y010527D01*
X008266Y009587D01*
X008325Y008587D02*
X008325Y007941D01*
X007951Y007587D01*
X007951Y006587D02*
X007449Y006587D01*
X007199Y006337D01*
X006534Y006337D01*
X005864Y006337D02*
X005449Y005921D01*
X005449Y004980D01*
X006593Y003837D01*
X009073Y004963D02*
X009073Y005587D01*
X009073Y006232D01*
X009447Y006587D01*
X010699Y005467D02*
X010789Y005557D01*
X010699Y005467D02*
X010699Y004837D01*
X010449Y004587D01*
X009449Y004587D01*
X009073Y004963D01*
X012609Y005557D02*
X014919Y005557D01*
X014949Y005587D01*
X013199Y007087D02*
X015349Y009237D01*
X017849Y009237D01*
X018999Y009137D02*
X019549Y009137D01*
X019549Y008537D01*
X020349Y007737D01*
X020349Y007137D01*
X021949Y009087D02*
X022399Y008637D01*
X021949Y009087D02*
X020699Y009087D01*
X020699Y010537D01*
X020099Y009237D02*
X019799Y009237D01*
X019699Y009137D01*
X019549Y009137D01*
X020099Y009237D02*
X020249Y009087D01*
X020699Y009087D01*
X016949Y003587D02*
X014199Y003587D01*
X016949Y003587D02*
X017449Y003087D01*
X017449Y001837D01*
X012649Y007187D02*
X012649Y010837D01*
X012649Y011937D02*
X012649Y012187D01*
X012649Y012687D01*
X012899Y012937D01*
D35*
X009132Y009587D02*
X009132Y009370D01*
X008899Y009137D01*
X008549Y009137D01*
X008349Y008937D01*
X008349Y008611D01*
X008325Y008587D01*
M02*
