%
M48
M72
T01C0.0138
T02C0.0394
T03C0.0400
T04C0.1180
T05C0.1260
%
T01
X3699Y6087
X4699Y6087
X4449Y9587
X4449Y10837
X7299Y11587
X7349Y12237
X8599Y13587
X8599Y14037
X10749Y14087
X11299Y13137
X11199Y12737
X11799Y12187
X12199Y12087
X12649Y12187
X13699Y9837
X14449Y9837
X15449Y7837
X16199Y7837
X13199Y6587
X12449Y6587
X11699Y6587
X10949Y6587
X10199Y6587
X9949Y5587
X10949Y4337
X11699Y4337
X12449Y4337
X13199Y3087
X13199Y2587
X12949Y2087
X13449Y2087
X13949Y2337
X13949Y2837
X13949Y3337
X13949Y3837
X12449Y2087
X11949Y2087
X11449Y2087
X10949Y2087
X10449Y2087
X9949Y2087
X10199Y2587
X10199Y3087
X9449Y3337
X9449Y3837
X9449Y2837
X9449Y2337
X10699Y8587
X11449Y8587
X18599Y11237
X18449Y11687
X18749Y12287
X20249Y13587
X20499Y13937
X19949Y13937
X20849Y13587
X21149Y13937
X21449Y13587
X24199Y14087
X25199Y14087
X26699Y13837
X27199Y15337
X25199Y16587
X24499Y16637
X26699Y12087
X26949Y9587
X26949Y8837
X25149Y7637
X25699Y7087
X26449Y7087
X23749Y8037
X21449Y7237
X21149Y7537
X20849Y7837
X20549Y8137
X20249Y8437
X19949Y8737
X19199Y8037
X19199Y7337
X19599Y9837
X22099Y9987
X17699Y14087
X16949Y14087
X16949Y16337
X15949Y16337
X13699Y14737
X13349Y15087
X11199Y15437
X10599Y15837
X11249Y16287
X13449Y17337
X12599Y19187
X11049Y19737
X9199Y19587
X8449Y19587
X5199Y18587
X4199Y18587
X22199Y4587
X22949Y4587
X24699Y4587
X25449Y4587
T02
X4593Y14970
X4593Y16703
T03
X8699Y16837
X9699Y16837
X10699Y16837
X10699Y17837
X9699Y17837
X8699Y17837
X9849Y20837
X10849Y20837
X11849Y20837
X12849Y20837
X13849Y20837
X14849Y20837
X15849Y20837
X16849Y20837
X17849Y20837
X18849Y20837
X20449Y20837
X21449Y20837
X22449Y20837
X23449Y20837
X24449Y20837
X25449Y20837
X26449Y20837
X27449Y20837
X27499Y12837
X28499Y12837
X28499Y11837
X27499Y11837
X27499Y10837
X28499Y10837
X27449Y1837
X26449Y1837
X25449Y1837
X24449Y1837
X23449Y1837
X22449Y1837
X20449Y1837
X19449Y1837
X18449Y1837
X17449Y1837
X16449Y1837
X15449Y1837
T04
X4231Y3837
X5412Y1986
X6593Y3837
T05
X7949Y1837
X28449Y3837
X28449Y14837
X8449Y20837
M30
