%
M48
M72
T01C0.01378
T02C0.03346
T03C0.04000
T04C0.05512
T05C0.05906
T06C0.12598
%
T01
X44473Y178000
X54473Y178000
X51973Y140500
X51973Y133000
X76973Y133000
X76973Y140500
X76973Y145500
X76973Y150500
X76973Y155500
X88473Y150500
X107973Y138000
X116473Y136000
X112473Y123500
X112473Y119000
X118973Y120000
X121973Y123000
X126473Y118000
X141473Y125000
X120973Y105250
X107973Y101000
X95473Y101000
X95473Y94000
X96973Y82500
X96973Y74500
X109473Y81500
X114473Y76500
X119473Y71500
X114473Y66500
X119473Y61500
X114473Y56500
X119473Y52500
X129473Y53000
X134473Y56500
X139473Y52500
X144473Y56500
X149473Y52500
X154473Y56500
X149473Y61500
X144473Y66500
X139473Y71500
X134473Y76500
X129473Y81500
X119473Y81500
X139473Y81500
X144473Y76500
X149473Y71500
X154473Y66500
X154473Y76500
X164973Y77500
X177973Y92000
X177473Y96000
X176973Y100000
X174473Y103000
X179473Y107500
X185973Y109500
X184473Y114000
X187473Y120000
X179473Y128000
X179473Y135500
X199473Y136500
X202473Y133000
X205473Y136500
X208473Y133000
X211473Y136500
X214473Y133000
X241973Y138000
X251973Y138000
X264473Y130500
X264473Y120500
X251973Y115500
X269473Y93000
X269473Y85500
X286973Y85500
X286973Y93000
X264473Y68000
X256973Y68000
X251473Y73500
X237473Y77500
X214473Y69500
X211473Y72500
X208473Y75500
X205473Y78500
X202473Y81500
X199473Y84500
X190973Y84000
X193973Y74500
X190973Y71500
X196973Y70500
X210473Y56000
X214473Y56000
X224473Y48000
X231973Y48000
X261973Y48000
X269473Y48000
X220973Y97000
X195973Y95500
X166973Y103000
X145473Y101000
X145973Y92500
X145973Y88500
X133473Y101000
X87973Y133000
X71473Y113000
X71473Y108000
X71473Y98000
X71473Y80500
X71473Y63000
X83973Y63000
X91973Y63000
X102473Y46500
X94473Y33000
X69473Y15500
X59473Y15500
X139473Y61500
X160473Y52500
X176473Y44000
X181473Y44000
X184473Y47000
X179473Y33500
X188973Y31000
X159473Y24500
X159473Y21000
X144473Y15500
X39473Y83000
X39473Y103000
X31973Y105500
X110973Y153000
X118473Y157000
X142473Y147500
X144473Y151500
X161973Y160500
X169473Y160500
X144473Y170500
X123473Y189000
X112473Y194500
X91973Y193000
X84473Y193000
X81973Y178000
X81973Y168000
X247973Y153500
X269473Y160500
X279473Y160500
T02
X42891Y164260
X42891Y146740
T03
X98473Y205500
X108473Y205500
X118473Y205500
X128473Y205500
X138473Y205500
X148473Y205500
X158473Y205500
X168473Y205500
X178473Y205500
X188473Y205500
X204473Y205500
X214473Y205500
X224473Y205500
X234473Y205500
X244473Y205500
X254473Y205500
X264473Y205500
X274473Y205500
X275473Y125500
X285473Y125500
X284473Y115500
X274473Y115500
X275473Y105500
X285473Y105500
X274473Y15500
X264473Y15500
X254473Y15500
X244473Y15500
X234473Y15500
X224473Y15500
X204473Y15500
X194473Y15500
X184473Y15500
X174473Y15500
X164473Y15500
X154473Y15500
X134473Y15500
X124473Y15500
X114473Y15500
X104473Y15500
X94473Y15500
X94473Y25500
X104473Y25500
X114473Y25500
X124473Y25500
X134473Y25500
X83973Y70500
X83973Y80500
X83973Y90500
X91973Y161000
X101973Y160000
X111973Y161000
X101973Y170000
X91973Y171000
X111973Y171000
T04
X38702Y45343
X38702Y25657
T05
X31473Y171937
X31473Y139063
T06
X84473Y205500
X79473Y15500
X284473Y35500
X284473Y145500
M30
