G75*
%MOIN*%
%OFA0B0*%
%FSLAX25Y25*%
%IPPOS*%
%LPD*%
%AMOC8*
5,1,8,0,0,1.08239X$1,22.5*
%
%ADD10C,0.01000*%
%ADD11C,0.00000*%
D10*
X0024473Y0009437D02*
X0024473Y0211563D01*
X0024475Y0211687D01*
X0024481Y0211810D01*
X0024490Y0211934D01*
X0024504Y0212056D01*
X0024521Y0212179D01*
X0024543Y0212301D01*
X0024568Y0212422D01*
X0024597Y0212542D01*
X0024629Y0212661D01*
X0024666Y0212780D01*
X0024706Y0212897D01*
X0024749Y0213012D01*
X0024797Y0213127D01*
X0024848Y0213239D01*
X0024902Y0213350D01*
X0024960Y0213460D01*
X0025021Y0213567D01*
X0025086Y0213673D01*
X0025154Y0213776D01*
X0025225Y0213877D01*
X0025299Y0213976D01*
X0025376Y0214073D01*
X0025457Y0214167D01*
X0025540Y0214258D01*
X0025626Y0214347D01*
X0025715Y0214433D01*
X0025806Y0214516D01*
X0025900Y0214597D01*
X0025997Y0214674D01*
X0026096Y0214748D01*
X0026197Y0214819D01*
X0026300Y0214887D01*
X0026406Y0214952D01*
X0026513Y0215013D01*
X0026623Y0215071D01*
X0026734Y0215125D01*
X0026846Y0215176D01*
X0026961Y0215224D01*
X0027076Y0215267D01*
X0027193Y0215307D01*
X0027312Y0215344D01*
X0027431Y0215376D01*
X0027551Y0215405D01*
X0027672Y0215430D01*
X0027794Y0215452D01*
X0027917Y0215469D01*
X0028039Y0215483D01*
X0028163Y0215492D01*
X0028286Y0215498D01*
X0028410Y0215500D01*
X0278473Y0215500D01*
X0284473Y0209500D01*
X0284473Y0164500D01*
X0294473Y0154500D01*
X0294473Y0025500D01*
X0284473Y0015500D01*
X0284473Y0009437D01*
X0284471Y0009313D01*
X0284465Y0009190D01*
X0284456Y0009066D01*
X0284442Y0008944D01*
X0284425Y0008821D01*
X0284403Y0008699D01*
X0284378Y0008578D01*
X0284349Y0008458D01*
X0284317Y0008339D01*
X0284280Y0008220D01*
X0284240Y0008103D01*
X0284197Y0007988D01*
X0284149Y0007873D01*
X0284098Y0007761D01*
X0284044Y0007650D01*
X0283986Y0007540D01*
X0283925Y0007433D01*
X0283860Y0007327D01*
X0283792Y0007224D01*
X0283721Y0007123D01*
X0283647Y0007024D01*
X0283570Y0006927D01*
X0283489Y0006833D01*
X0283406Y0006742D01*
X0283320Y0006653D01*
X0283231Y0006567D01*
X0283140Y0006484D01*
X0283046Y0006403D01*
X0282949Y0006326D01*
X0282850Y0006252D01*
X0282749Y0006181D01*
X0282646Y0006113D01*
X0282540Y0006048D01*
X0282433Y0005987D01*
X0282323Y0005929D01*
X0282212Y0005875D01*
X0282100Y0005824D01*
X0281985Y0005776D01*
X0281870Y0005733D01*
X0281753Y0005693D01*
X0281634Y0005656D01*
X0281515Y0005624D01*
X0281395Y0005595D01*
X0281274Y0005570D01*
X0281152Y0005548D01*
X0281029Y0005531D01*
X0280907Y0005517D01*
X0280783Y0005508D01*
X0280660Y0005502D01*
X0280536Y0005500D01*
X0028410Y0005500D01*
X0028286Y0005502D01*
X0028163Y0005508D01*
X0028039Y0005517D01*
X0027917Y0005531D01*
X0027794Y0005548D01*
X0027672Y0005570D01*
X0027551Y0005595D01*
X0027431Y0005624D01*
X0027312Y0005656D01*
X0027193Y0005693D01*
X0027076Y0005733D01*
X0026961Y0005776D01*
X0026846Y0005824D01*
X0026734Y0005875D01*
X0026623Y0005929D01*
X0026513Y0005987D01*
X0026406Y0006048D01*
X0026300Y0006113D01*
X0026197Y0006181D01*
X0026096Y0006252D01*
X0025997Y0006326D01*
X0025900Y0006403D01*
X0025806Y0006484D01*
X0025715Y0006567D01*
X0025626Y0006653D01*
X0025540Y0006742D01*
X0025457Y0006833D01*
X0025376Y0006927D01*
X0025299Y0007024D01*
X0025225Y0007123D01*
X0025154Y0007224D01*
X0025086Y0007327D01*
X0025021Y0007433D01*
X0024960Y0007540D01*
X0024902Y0007650D01*
X0024848Y0007761D01*
X0024797Y0007873D01*
X0024749Y0007988D01*
X0024706Y0008103D01*
X0024666Y0008220D01*
X0024629Y0008339D01*
X0024597Y0008458D01*
X0024568Y0008578D01*
X0024543Y0008699D01*
X0024521Y0008821D01*
X0024504Y0008944D01*
X0024490Y0009066D01*
X0024481Y0009190D01*
X0024475Y0009313D01*
X0024473Y0009437D01*
D11*
X0073174Y0015500D02*
X0073176Y0015658D01*
X0073182Y0015816D01*
X0073192Y0015974D01*
X0073206Y0016132D01*
X0073224Y0016289D01*
X0073245Y0016446D01*
X0073271Y0016602D01*
X0073301Y0016758D01*
X0073334Y0016913D01*
X0073372Y0017066D01*
X0073413Y0017219D01*
X0073458Y0017371D01*
X0073507Y0017522D01*
X0073560Y0017671D01*
X0073616Y0017819D01*
X0073676Y0017965D01*
X0073740Y0018110D01*
X0073808Y0018253D01*
X0073879Y0018395D01*
X0073953Y0018535D01*
X0074031Y0018672D01*
X0074113Y0018808D01*
X0074197Y0018942D01*
X0074286Y0019073D01*
X0074377Y0019202D01*
X0074472Y0019329D01*
X0074569Y0019454D01*
X0074670Y0019576D01*
X0074774Y0019695D01*
X0074881Y0019812D01*
X0074991Y0019926D01*
X0075104Y0020037D01*
X0075219Y0020146D01*
X0075337Y0020251D01*
X0075458Y0020353D01*
X0075581Y0020453D01*
X0075707Y0020549D01*
X0075835Y0020642D01*
X0075965Y0020732D01*
X0076098Y0020818D01*
X0076233Y0020902D01*
X0076369Y0020981D01*
X0076508Y0021058D01*
X0076649Y0021130D01*
X0076791Y0021200D01*
X0076935Y0021265D01*
X0077081Y0021327D01*
X0077228Y0021385D01*
X0077377Y0021440D01*
X0077527Y0021491D01*
X0077678Y0021538D01*
X0077830Y0021581D01*
X0077983Y0021620D01*
X0078138Y0021656D01*
X0078293Y0021687D01*
X0078449Y0021715D01*
X0078605Y0021739D01*
X0078762Y0021759D01*
X0078920Y0021775D01*
X0079077Y0021787D01*
X0079236Y0021795D01*
X0079394Y0021799D01*
X0079552Y0021799D01*
X0079710Y0021795D01*
X0079869Y0021787D01*
X0080026Y0021775D01*
X0080184Y0021759D01*
X0080341Y0021739D01*
X0080497Y0021715D01*
X0080653Y0021687D01*
X0080808Y0021656D01*
X0080963Y0021620D01*
X0081116Y0021581D01*
X0081268Y0021538D01*
X0081419Y0021491D01*
X0081569Y0021440D01*
X0081718Y0021385D01*
X0081865Y0021327D01*
X0082011Y0021265D01*
X0082155Y0021200D01*
X0082297Y0021130D01*
X0082438Y0021058D01*
X0082577Y0020981D01*
X0082713Y0020902D01*
X0082848Y0020818D01*
X0082981Y0020732D01*
X0083111Y0020642D01*
X0083239Y0020549D01*
X0083365Y0020453D01*
X0083488Y0020353D01*
X0083609Y0020251D01*
X0083727Y0020146D01*
X0083842Y0020037D01*
X0083955Y0019926D01*
X0084065Y0019812D01*
X0084172Y0019695D01*
X0084276Y0019576D01*
X0084377Y0019454D01*
X0084474Y0019329D01*
X0084569Y0019202D01*
X0084660Y0019073D01*
X0084749Y0018942D01*
X0084833Y0018808D01*
X0084915Y0018672D01*
X0084993Y0018535D01*
X0085067Y0018395D01*
X0085138Y0018253D01*
X0085206Y0018110D01*
X0085270Y0017965D01*
X0085330Y0017819D01*
X0085386Y0017671D01*
X0085439Y0017522D01*
X0085488Y0017371D01*
X0085533Y0017219D01*
X0085574Y0017066D01*
X0085612Y0016913D01*
X0085645Y0016758D01*
X0085675Y0016602D01*
X0085701Y0016446D01*
X0085722Y0016289D01*
X0085740Y0016132D01*
X0085754Y0015974D01*
X0085764Y0015816D01*
X0085770Y0015658D01*
X0085772Y0015500D01*
X0085770Y0015342D01*
X0085764Y0015184D01*
X0085754Y0015026D01*
X0085740Y0014868D01*
X0085722Y0014711D01*
X0085701Y0014554D01*
X0085675Y0014398D01*
X0085645Y0014242D01*
X0085612Y0014087D01*
X0085574Y0013934D01*
X0085533Y0013781D01*
X0085488Y0013629D01*
X0085439Y0013478D01*
X0085386Y0013329D01*
X0085330Y0013181D01*
X0085270Y0013035D01*
X0085206Y0012890D01*
X0085138Y0012747D01*
X0085067Y0012605D01*
X0084993Y0012465D01*
X0084915Y0012328D01*
X0084833Y0012192D01*
X0084749Y0012058D01*
X0084660Y0011927D01*
X0084569Y0011798D01*
X0084474Y0011671D01*
X0084377Y0011546D01*
X0084276Y0011424D01*
X0084172Y0011305D01*
X0084065Y0011188D01*
X0083955Y0011074D01*
X0083842Y0010963D01*
X0083727Y0010854D01*
X0083609Y0010749D01*
X0083488Y0010647D01*
X0083365Y0010547D01*
X0083239Y0010451D01*
X0083111Y0010358D01*
X0082981Y0010268D01*
X0082848Y0010182D01*
X0082713Y0010098D01*
X0082577Y0010019D01*
X0082438Y0009942D01*
X0082297Y0009870D01*
X0082155Y0009800D01*
X0082011Y0009735D01*
X0081865Y0009673D01*
X0081718Y0009615D01*
X0081569Y0009560D01*
X0081419Y0009509D01*
X0081268Y0009462D01*
X0081116Y0009419D01*
X0080963Y0009380D01*
X0080808Y0009344D01*
X0080653Y0009313D01*
X0080497Y0009285D01*
X0080341Y0009261D01*
X0080184Y0009241D01*
X0080026Y0009225D01*
X0079869Y0009213D01*
X0079710Y0009205D01*
X0079552Y0009201D01*
X0079394Y0009201D01*
X0079236Y0009205D01*
X0079077Y0009213D01*
X0078920Y0009225D01*
X0078762Y0009241D01*
X0078605Y0009261D01*
X0078449Y0009285D01*
X0078293Y0009313D01*
X0078138Y0009344D01*
X0077983Y0009380D01*
X0077830Y0009419D01*
X0077678Y0009462D01*
X0077527Y0009509D01*
X0077377Y0009560D01*
X0077228Y0009615D01*
X0077081Y0009673D01*
X0076935Y0009735D01*
X0076791Y0009800D01*
X0076649Y0009870D01*
X0076508Y0009942D01*
X0076369Y0010019D01*
X0076233Y0010098D01*
X0076098Y0010182D01*
X0075965Y0010268D01*
X0075835Y0010358D01*
X0075707Y0010451D01*
X0075581Y0010547D01*
X0075458Y0010647D01*
X0075337Y0010749D01*
X0075219Y0010854D01*
X0075104Y0010963D01*
X0074991Y0011074D01*
X0074881Y0011188D01*
X0074774Y0011305D01*
X0074670Y0011424D01*
X0074569Y0011546D01*
X0074472Y0011671D01*
X0074377Y0011798D01*
X0074286Y0011927D01*
X0074197Y0012058D01*
X0074113Y0012192D01*
X0074031Y0012328D01*
X0073953Y0012465D01*
X0073879Y0012605D01*
X0073808Y0012747D01*
X0073740Y0012890D01*
X0073676Y0013035D01*
X0073616Y0013181D01*
X0073560Y0013329D01*
X0073507Y0013478D01*
X0073458Y0013629D01*
X0073413Y0013781D01*
X0073372Y0013934D01*
X0073334Y0014087D01*
X0073301Y0014242D01*
X0073271Y0014398D01*
X0073245Y0014554D01*
X0073224Y0014711D01*
X0073206Y0014868D01*
X0073192Y0015026D01*
X0073182Y0015184D01*
X0073176Y0015342D01*
X0073174Y0015500D01*
X0041218Y0146740D02*
X0041220Y0146821D01*
X0041226Y0146903D01*
X0041236Y0146984D01*
X0041250Y0147064D01*
X0041267Y0147143D01*
X0041289Y0147222D01*
X0041314Y0147299D01*
X0041343Y0147376D01*
X0041376Y0147450D01*
X0041413Y0147523D01*
X0041452Y0147594D01*
X0041496Y0147663D01*
X0041542Y0147730D01*
X0041592Y0147794D01*
X0041645Y0147856D01*
X0041701Y0147916D01*
X0041759Y0147972D01*
X0041821Y0148026D01*
X0041885Y0148077D01*
X0041951Y0148124D01*
X0042019Y0148168D01*
X0042090Y0148209D01*
X0042162Y0148246D01*
X0042237Y0148280D01*
X0042312Y0148310D01*
X0042390Y0148336D01*
X0042468Y0148359D01*
X0042547Y0148377D01*
X0042627Y0148392D01*
X0042708Y0148403D01*
X0042789Y0148410D01*
X0042871Y0148413D01*
X0042952Y0148412D01*
X0043033Y0148407D01*
X0043114Y0148398D01*
X0043195Y0148385D01*
X0043275Y0148368D01*
X0043353Y0148348D01*
X0043431Y0148323D01*
X0043508Y0148295D01*
X0043583Y0148263D01*
X0043656Y0148228D01*
X0043727Y0148189D01*
X0043797Y0148146D01*
X0043864Y0148101D01*
X0043930Y0148052D01*
X0043992Y0148000D01*
X0044052Y0147944D01*
X0044109Y0147886D01*
X0044164Y0147826D01*
X0044215Y0147762D01*
X0044263Y0147697D01*
X0044308Y0147629D01*
X0044350Y0147559D01*
X0044388Y0147487D01*
X0044423Y0147413D01*
X0044454Y0147338D01*
X0044481Y0147261D01*
X0044504Y0147183D01*
X0044524Y0147104D01*
X0044540Y0147024D01*
X0044552Y0146943D01*
X0044560Y0146862D01*
X0044564Y0146781D01*
X0044564Y0146699D01*
X0044560Y0146618D01*
X0044552Y0146537D01*
X0044540Y0146456D01*
X0044524Y0146376D01*
X0044504Y0146297D01*
X0044481Y0146219D01*
X0044454Y0146142D01*
X0044423Y0146067D01*
X0044388Y0145993D01*
X0044350Y0145921D01*
X0044308Y0145851D01*
X0044263Y0145783D01*
X0044215Y0145718D01*
X0044164Y0145654D01*
X0044109Y0145594D01*
X0044052Y0145536D01*
X0043992Y0145480D01*
X0043930Y0145428D01*
X0043864Y0145379D01*
X0043797Y0145334D01*
X0043728Y0145291D01*
X0043656Y0145252D01*
X0043583Y0145217D01*
X0043508Y0145185D01*
X0043431Y0145157D01*
X0043353Y0145132D01*
X0043275Y0145112D01*
X0043195Y0145095D01*
X0043114Y0145082D01*
X0043033Y0145073D01*
X0042952Y0145068D01*
X0042871Y0145067D01*
X0042789Y0145070D01*
X0042708Y0145077D01*
X0042627Y0145088D01*
X0042547Y0145103D01*
X0042468Y0145121D01*
X0042390Y0145144D01*
X0042312Y0145170D01*
X0042237Y0145200D01*
X0042162Y0145234D01*
X0042090Y0145271D01*
X0042019Y0145312D01*
X0041951Y0145356D01*
X0041885Y0145403D01*
X0041821Y0145454D01*
X0041759Y0145508D01*
X0041701Y0145564D01*
X0041645Y0145624D01*
X0041592Y0145686D01*
X0041542Y0145750D01*
X0041496Y0145817D01*
X0041452Y0145886D01*
X0041413Y0145957D01*
X0041376Y0146030D01*
X0041343Y0146104D01*
X0041314Y0146181D01*
X0041289Y0146258D01*
X0041267Y0146337D01*
X0041250Y0146416D01*
X0041236Y0146496D01*
X0041226Y0146577D01*
X0041220Y0146659D01*
X0041218Y0146740D01*
X0041218Y0164260D02*
X0041220Y0164341D01*
X0041226Y0164423D01*
X0041236Y0164504D01*
X0041250Y0164584D01*
X0041267Y0164663D01*
X0041289Y0164742D01*
X0041314Y0164819D01*
X0041343Y0164896D01*
X0041376Y0164970D01*
X0041413Y0165043D01*
X0041452Y0165114D01*
X0041496Y0165183D01*
X0041542Y0165250D01*
X0041592Y0165314D01*
X0041645Y0165376D01*
X0041701Y0165436D01*
X0041759Y0165492D01*
X0041821Y0165546D01*
X0041885Y0165597D01*
X0041951Y0165644D01*
X0042019Y0165688D01*
X0042090Y0165729D01*
X0042162Y0165766D01*
X0042237Y0165800D01*
X0042312Y0165830D01*
X0042390Y0165856D01*
X0042468Y0165879D01*
X0042547Y0165897D01*
X0042627Y0165912D01*
X0042708Y0165923D01*
X0042789Y0165930D01*
X0042871Y0165933D01*
X0042952Y0165932D01*
X0043033Y0165927D01*
X0043114Y0165918D01*
X0043195Y0165905D01*
X0043275Y0165888D01*
X0043353Y0165868D01*
X0043431Y0165843D01*
X0043508Y0165815D01*
X0043583Y0165783D01*
X0043656Y0165748D01*
X0043727Y0165709D01*
X0043797Y0165666D01*
X0043864Y0165621D01*
X0043930Y0165572D01*
X0043992Y0165520D01*
X0044052Y0165464D01*
X0044109Y0165406D01*
X0044164Y0165346D01*
X0044215Y0165282D01*
X0044263Y0165217D01*
X0044308Y0165149D01*
X0044350Y0165079D01*
X0044388Y0165007D01*
X0044423Y0164933D01*
X0044454Y0164858D01*
X0044481Y0164781D01*
X0044504Y0164703D01*
X0044524Y0164624D01*
X0044540Y0164544D01*
X0044552Y0164463D01*
X0044560Y0164382D01*
X0044564Y0164301D01*
X0044564Y0164219D01*
X0044560Y0164138D01*
X0044552Y0164057D01*
X0044540Y0163976D01*
X0044524Y0163896D01*
X0044504Y0163817D01*
X0044481Y0163739D01*
X0044454Y0163662D01*
X0044423Y0163587D01*
X0044388Y0163513D01*
X0044350Y0163441D01*
X0044308Y0163371D01*
X0044263Y0163303D01*
X0044215Y0163238D01*
X0044164Y0163174D01*
X0044109Y0163114D01*
X0044052Y0163056D01*
X0043992Y0163000D01*
X0043930Y0162948D01*
X0043864Y0162899D01*
X0043797Y0162854D01*
X0043728Y0162811D01*
X0043656Y0162772D01*
X0043583Y0162737D01*
X0043508Y0162705D01*
X0043431Y0162677D01*
X0043353Y0162652D01*
X0043275Y0162632D01*
X0043195Y0162615D01*
X0043114Y0162602D01*
X0043033Y0162593D01*
X0042952Y0162588D01*
X0042871Y0162587D01*
X0042789Y0162590D01*
X0042708Y0162597D01*
X0042627Y0162608D01*
X0042547Y0162623D01*
X0042468Y0162641D01*
X0042390Y0162664D01*
X0042312Y0162690D01*
X0042237Y0162720D01*
X0042162Y0162754D01*
X0042090Y0162791D01*
X0042019Y0162832D01*
X0041951Y0162876D01*
X0041885Y0162923D01*
X0041821Y0162974D01*
X0041759Y0163028D01*
X0041701Y0163084D01*
X0041645Y0163144D01*
X0041592Y0163206D01*
X0041542Y0163270D01*
X0041496Y0163337D01*
X0041452Y0163406D01*
X0041413Y0163477D01*
X0041376Y0163550D01*
X0041343Y0163624D01*
X0041314Y0163701D01*
X0041289Y0163778D01*
X0041267Y0163857D01*
X0041250Y0163936D01*
X0041236Y0164016D01*
X0041226Y0164097D01*
X0041220Y0164179D01*
X0041218Y0164260D01*
X0078174Y0205500D02*
X0078176Y0205658D01*
X0078182Y0205816D01*
X0078192Y0205974D01*
X0078206Y0206132D01*
X0078224Y0206289D01*
X0078245Y0206446D01*
X0078271Y0206602D01*
X0078301Y0206758D01*
X0078334Y0206913D01*
X0078372Y0207066D01*
X0078413Y0207219D01*
X0078458Y0207371D01*
X0078507Y0207522D01*
X0078560Y0207671D01*
X0078616Y0207819D01*
X0078676Y0207965D01*
X0078740Y0208110D01*
X0078808Y0208253D01*
X0078879Y0208395D01*
X0078953Y0208535D01*
X0079031Y0208672D01*
X0079113Y0208808D01*
X0079197Y0208942D01*
X0079286Y0209073D01*
X0079377Y0209202D01*
X0079472Y0209329D01*
X0079569Y0209454D01*
X0079670Y0209576D01*
X0079774Y0209695D01*
X0079881Y0209812D01*
X0079991Y0209926D01*
X0080104Y0210037D01*
X0080219Y0210146D01*
X0080337Y0210251D01*
X0080458Y0210353D01*
X0080581Y0210453D01*
X0080707Y0210549D01*
X0080835Y0210642D01*
X0080965Y0210732D01*
X0081098Y0210818D01*
X0081233Y0210902D01*
X0081369Y0210981D01*
X0081508Y0211058D01*
X0081649Y0211130D01*
X0081791Y0211200D01*
X0081935Y0211265D01*
X0082081Y0211327D01*
X0082228Y0211385D01*
X0082377Y0211440D01*
X0082527Y0211491D01*
X0082678Y0211538D01*
X0082830Y0211581D01*
X0082983Y0211620D01*
X0083138Y0211656D01*
X0083293Y0211687D01*
X0083449Y0211715D01*
X0083605Y0211739D01*
X0083762Y0211759D01*
X0083920Y0211775D01*
X0084077Y0211787D01*
X0084236Y0211795D01*
X0084394Y0211799D01*
X0084552Y0211799D01*
X0084710Y0211795D01*
X0084869Y0211787D01*
X0085026Y0211775D01*
X0085184Y0211759D01*
X0085341Y0211739D01*
X0085497Y0211715D01*
X0085653Y0211687D01*
X0085808Y0211656D01*
X0085963Y0211620D01*
X0086116Y0211581D01*
X0086268Y0211538D01*
X0086419Y0211491D01*
X0086569Y0211440D01*
X0086718Y0211385D01*
X0086865Y0211327D01*
X0087011Y0211265D01*
X0087155Y0211200D01*
X0087297Y0211130D01*
X0087438Y0211058D01*
X0087577Y0210981D01*
X0087713Y0210902D01*
X0087848Y0210818D01*
X0087981Y0210732D01*
X0088111Y0210642D01*
X0088239Y0210549D01*
X0088365Y0210453D01*
X0088488Y0210353D01*
X0088609Y0210251D01*
X0088727Y0210146D01*
X0088842Y0210037D01*
X0088955Y0209926D01*
X0089065Y0209812D01*
X0089172Y0209695D01*
X0089276Y0209576D01*
X0089377Y0209454D01*
X0089474Y0209329D01*
X0089569Y0209202D01*
X0089660Y0209073D01*
X0089749Y0208942D01*
X0089833Y0208808D01*
X0089915Y0208672D01*
X0089993Y0208535D01*
X0090067Y0208395D01*
X0090138Y0208253D01*
X0090206Y0208110D01*
X0090270Y0207965D01*
X0090330Y0207819D01*
X0090386Y0207671D01*
X0090439Y0207522D01*
X0090488Y0207371D01*
X0090533Y0207219D01*
X0090574Y0207066D01*
X0090612Y0206913D01*
X0090645Y0206758D01*
X0090675Y0206602D01*
X0090701Y0206446D01*
X0090722Y0206289D01*
X0090740Y0206132D01*
X0090754Y0205974D01*
X0090764Y0205816D01*
X0090770Y0205658D01*
X0090772Y0205500D01*
X0090770Y0205342D01*
X0090764Y0205184D01*
X0090754Y0205026D01*
X0090740Y0204868D01*
X0090722Y0204711D01*
X0090701Y0204554D01*
X0090675Y0204398D01*
X0090645Y0204242D01*
X0090612Y0204087D01*
X0090574Y0203934D01*
X0090533Y0203781D01*
X0090488Y0203629D01*
X0090439Y0203478D01*
X0090386Y0203329D01*
X0090330Y0203181D01*
X0090270Y0203035D01*
X0090206Y0202890D01*
X0090138Y0202747D01*
X0090067Y0202605D01*
X0089993Y0202465D01*
X0089915Y0202328D01*
X0089833Y0202192D01*
X0089749Y0202058D01*
X0089660Y0201927D01*
X0089569Y0201798D01*
X0089474Y0201671D01*
X0089377Y0201546D01*
X0089276Y0201424D01*
X0089172Y0201305D01*
X0089065Y0201188D01*
X0088955Y0201074D01*
X0088842Y0200963D01*
X0088727Y0200854D01*
X0088609Y0200749D01*
X0088488Y0200647D01*
X0088365Y0200547D01*
X0088239Y0200451D01*
X0088111Y0200358D01*
X0087981Y0200268D01*
X0087848Y0200182D01*
X0087713Y0200098D01*
X0087577Y0200019D01*
X0087438Y0199942D01*
X0087297Y0199870D01*
X0087155Y0199800D01*
X0087011Y0199735D01*
X0086865Y0199673D01*
X0086718Y0199615D01*
X0086569Y0199560D01*
X0086419Y0199509D01*
X0086268Y0199462D01*
X0086116Y0199419D01*
X0085963Y0199380D01*
X0085808Y0199344D01*
X0085653Y0199313D01*
X0085497Y0199285D01*
X0085341Y0199261D01*
X0085184Y0199241D01*
X0085026Y0199225D01*
X0084869Y0199213D01*
X0084710Y0199205D01*
X0084552Y0199201D01*
X0084394Y0199201D01*
X0084236Y0199205D01*
X0084077Y0199213D01*
X0083920Y0199225D01*
X0083762Y0199241D01*
X0083605Y0199261D01*
X0083449Y0199285D01*
X0083293Y0199313D01*
X0083138Y0199344D01*
X0082983Y0199380D01*
X0082830Y0199419D01*
X0082678Y0199462D01*
X0082527Y0199509D01*
X0082377Y0199560D01*
X0082228Y0199615D01*
X0082081Y0199673D01*
X0081935Y0199735D01*
X0081791Y0199800D01*
X0081649Y0199870D01*
X0081508Y0199942D01*
X0081369Y0200019D01*
X0081233Y0200098D01*
X0081098Y0200182D01*
X0080965Y0200268D01*
X0080835Y0200358D01*
X0080707Y0200451D01*
X0080581Y0200547D01*
X0080458Y0200647D01*
X0080337Y0200749D01*
X0080219Y0200854D01*
X0080104Y0200963D01*
X0079991Y0201074D01*
X0079881Y0201188D01*
X0079774Y0201305D01*
X0079670Y0201424D01*
X0079569Y0201546D01*
X0079472Y0201671D01*
X0079377Y0201798D01*
X0079286Y0201927D01*
X0079197Y0202058D01*
X0079113Y0202192D01*
X0079031Y0202328D01*
X0078953Y0202465D01*
X0078879Y0202605D01*
X0078808Y0202747D01*
X0078740Y0202890D01*
X0078676Y0203035D01*
X0078616Y0203181D01*
X0078560Y0203329D01*
X0078507Y0203478D01*
X0078458Y0203629D01*
X0078413Y0203781D01*
X0078372Y0203934D01*
X0078334Y0204087D01*
X0078301Y0204242D01*
X0078271Y0204398D01*
X0078245Y0204554D01*
X0078224Y0204711D01*
X0078206Y0204868D01*
X0078192Y0205026D01*
X0078182Y0205184D01*
X0078176Y0205342D01*
X0078174Y0205500D01*
X0278174Y0145500D02*
X0278176Y0145658D01*
X0278182Y0145816D01*
X0278192Y0145974D01*
X0278206Y0146132D01*
X0278224Y0146289D01*
X0278245Y0146446D01*
X0278271Y0146602D01*
X0278301Y0146758D01*
X0278334Y0146913D01*
X0278372Y0147066D01*
X0278413Y0147219D01*
X0278458Y0147371D01*
X0278507Y0147522D01*
X0278560Y0147671D01*
X0278616Y0147819D01*
X0278676Y0147965D01*
X0278740Y0148110D01*
X0278808Y0148253D01*
X0278879Y0148395D01*
X0278953Y0148535D01*
X0279031Y0148672D01*
X0279113Y0148808D01*
X0279197Y0148942D01*
X0279286Y0149073D01*
X0279377Y0149202D01*
X0279472Y0149329D01*
X0279569Y0149454D01*
X0279670Y0149576D01*
X0279774Y0149695D01*
X0279881Y0149812D01*
X0279991Y0149926D01*
X0280104Y0150037D01*
X0280219Y0150146D01*
X0280337Y0150251D01*
X0280458Y0150353D01*
X0280581Y0150453D01*
X0280707Y0150549D01*
X0280835Y0150642D01*
X0280965Y0150732D01*
X0281098Y0150818D01*
X0281233Y0150902D01*
X0281369Y0150981D01*
X0281508Y0151058D01*
X0281649Y0151130D01*
X0281791Y0151200D01*
X0281935Y0151265D01*
X0282081Y0151327D01*
X0282228Y0151385D01*
X0282377Y0151440D01*
X0282527Y0151491D01*
X0282678Y0151538D01*
X0282830Y0151581D01*
X0282983Y0151620D01*
X0283138Y0151656D01*
X0283293Y0151687D01*
X0283449Y0151715D01*
X0283605Y0151739D01*
X0283762Y0151759D01*
X0283920Y0151775D01*
X0284077Y0151787D01*
X0284236Y0151795D01*
X0284394Y0151799D01*
X0284552Y0151799D01*
X0284710Y0151795D01*
X0284869Y0151787D01*
X0285026Y0151775D01*
X0285184Y0151759D01*
X0285341Y0151739D01*
X0285497Y0151715D01*
X0285653Y0151687D01*
X0285808Y0151656D01*
X0285963Y0151620D01*
X0286116Y0151581D01*
X0286268Y0151538D01*
X0286419Y0151491D01*
X0286569Y0151440D01*
X0286718Y0151385D01*
X0286865Y0151327D01*
X0287011Y0151265D01*
X0287155Y0151200D01*
X0287297Y0151130D01*
X0287438Y0151058D01*
X0287577Y0150981D01*
X0287713Y0150902D01*
X0287848Y0150818D01*
X0287981Y0150732D01*
X0288111Y0150642D01*
X0288239Y0150549D01*
X0288365Y0150453D01*
X0288488Y0150353D01*
X0288609Y0150251D01*
X0288727Y0150146D01*
X0288842Y0150037D01*
X0288955Y0149926D01*
X0289065Y0149812D01*
X0289172Y0149695D01*
X0289276Y0149576D01*
X0289377Y0149454D01*
X0289474Y0149329D01*
X0289569Y0149202D01*
X0289660Y0149073D01*
X0289749Y0148942D01*
X0289833Y0148808D01*
X0289915Y0148672D01*
X0289993Y0148535D01*
X0290067Y0148395D01*
X0290138Y0148253D01*
X0290206Y0148110D01*
X0290270Y0147965D01*
X0290330Y0147819D01*
X0290386Y0147671D01*
X0290439Y0147522D01*
X0290488Y0147371D01*
X0290533Y0147219D01*
X0290574Y0147066D01*
X0290612Y0146913D01*
X0290645Y0146758D01*
X0290675Y0146602D01*
X0290701Y0146446D01*
X0290722Y0146289D01*
X0290740Y0146132D01*
X0290754Y0145974D01*
X0290764Y0145816D01*
X0290770Y0145658D01*
X0290772Y0145500D01*
X0290770Y0145342D01*
X0290764Y0145184D01*
X0290754Y0145026D01*
X0290740Y0144868D01*
X0290722Y0144711D01*
X0290701Y0144554D01*
X0290675Y0144398D01*
X0290645Y0144242D01*
X0290612Y0144087D01*
X0290574Y0143934D01*
X0290533Y0143781D01*
X0290488Y0143629D01*
X0290439Y0143478D01*
X0290386Y0143329D01*
X0290330Y0143181D01*
X0290270Y0143035D01*
X0290206Y0142890D01*
X0290138Y0142747D01*
X0290067Y0142605D01*
X0289993Y0142465D01*
X0289915Y0142328D01*
X0289833Y0142192D01*
X0289749Y0142058D01*
X0289660Y0141927D01*
X0289569Y0141798D01*
X0289474Y0141671D01*
X0289377Y0141546D01*
X0289276Y0141424D01*
X0289172Y0141305D01*
X0289065Y0141188D01*
X0288955Y0141074D01*
X0288842Y0140963D01*
X0288727Y0140854D01*
X0288609Y0140749D01*
X0288488Y0140647D01*
X0288365Y0140547D01*
X0288239Y0140451D01*
X0288111Y0140358D01*
X0287981Y0140268D01*
X0287848Y0140182D01*
X0287713Y0140098D01*
X0287577Y0140019D01*
X0287438Y0139942D01*
X0287297Y0139870D01*
X0287155Y0139800D01*
X0287011Y0139735D01*
X0286865Y0139673D01*
X0286718Y0139615D01*
X0286569Y0139560D01*
X0286419Y0139509D01*
X0286268Y0139462D01*
X0286116Y0139419D01*
X0285963Y0139380D01*
X0285808Y0139344D01*
X0285653Y0139313D01*
X0285497Y0139285D01*
X0285341Y0139261D01*
X0285184Y0139241D01*
X0285026Y0139225D01*
X0284869Y0139213D01*
X0284710Y0139205D01*
X0284552Y0139201D01*
X0284394Y0139201D01*
X0284236Y0139205D01*
X0284077Y0139213D01*
X0283920Y0139225D01*
X0283762Y0139241D01*
X0283605Y0139261D01*
X0283449Y0139285D01*
X0283293Y0139313D01*
X0283138Y0139344D01*
X0282983Y0139380D01*
X0282830Y0139419D01*
X0282678Y0139462D01*
X0282527Y0139509D01*
X0282377Y0139560D01*
X0282228Y0139615D01*
X0282081Y0139673D01*
X0281935Y0139735D01*
X0281791Y0139800D01*
X0281649Y0139870D01*
X0281508Y0139942D01*
X0281369Y0140019D01*
X0281233Y0140098D01*
X0281098Y0140182D01*
X0280965Y0140268D01*
X0280835Y0140358D01*
X0280707Y0140451D01*
X0280581Y0140547D01*
X0280458Y0140647D01*
X0280337Y0140749D01*
X0280219Y0140854D01*
X0280104Y0140963D01*
X0279991Y0141074D01*
X0279881Y0141188D01*
X0279774Y0141305D01*
X0279670Y0141424D01*
X0279569Y0141546D01*
X0279472Y0141671D01*
X0279377Y0141798D01*
X0279286Y0141927D01*
X0279197Y0142058D01*
X0279113Y0142192D01*
X0279031Y0142328D01*
X0278953Y0142465D01*
X0278879Y0142605D01*
X0278808Y0142747D01*
X0278740Y0142890D01*
X0278676Y0143035D01*
X0278616Y0143181D01*
X0278560Y0143329D01*
X0278507Y0143478D01*
X0278458Y0143629D01*
X0278413Y0143781D01*
X0278372Y0143934D01*
X0278334Y0144087D01*
X0278301Y0144242D01*
X0278271Y0144398D01*
X0278245Y0144554D01*
X0278224Y0144711D01*
X0278206Y0144868D01*
X0278192Y0145026D01*
X0278182Y0145184D01*
X0278176Y0145342D01*
X0278174Y0145500D01*
X0278174Y0035500D02*
X0278176Y0035658D01*
X0278182Y0035816D01*
X0278192Y0035974D01*
X0278206Y0036132D01*
X0278224Y0036289D01*
X0278245Y0036446D01*
X0278271Y0036602D01*
X0278301Y0036758D01*
X0278334Y0036913D01*
X0278372Y0037066D01*
X0278413Y0037219D01*
X0278458Y0037371D01*
X0278507Y0037522D01*
X0278560Y0037671D01*
X0278616Y0037819D01*
X0278676Y0037965D01*
X0278740Y0038110D01*
X0278808Y0038253D01*
X0278879Y0038395D01*
X0278953Y0038535D01*
X0279031Y0038672D01*
X0279113Y0038808D01*
X0279197Y0038942D01*
X0279286Y0039073D01*
X0279377Y0039202D01*
X0279472Y0039329D01*
X0279569Y0039454D01*
X0279670Y0039576D01*
X0279774Y0039695D01*
X0279881Y0039812D01*
X0279991Y0039926D01*
X0280104Y0040037D01*
X0280219Y0040146D01*
X0280337Y0040251D01*
X0280458Y0040353D01*
X0280581Y0040453D01*
X0280707Y0040549D01*
X0280835Y0040642D01*
X0280965Y0040732D01*
X0281098Y0040818D01*
X0281233Y0040902D01*
X0281369Y0040981D01*
X0281508Y0041058D01*
X0281649Y0041130D01*
X0281791Y0041200D01*
X0281935Y0041265D01*
X0282081Y0041327D01*
X0282228Y0041385D01*
X0282377Y0041440D01*
X0282527Y0041491D01*
X0282678Y0041538D01*
X0282830Y0041581D01*
X0282983Y0041620D01*
X0283138Y0041656D01*
X0283293Y0041687D01*
X0283449Y0041715D01*
X0283605Y0041739D01*
X0283762Y0041759D01*
X0283920Y0041775D01*
X0284077Y0041787D01*
X0284236Y0041795D01*
X0284394Y0041799D01*
X0284552Y0041799D01*
X0284710Y0041795D01*
X0284869Y0041787D01*
X0285026Y0041775D01*
X0285184Y0041759D01*
X0285341Y0041739D01*
X0285497Y0041715D01*
X0285653Y0041687D01*
X0285808Y0041656D01*
X0285963Y0041620D01*
X0286116Y0041581D01*
X0286268Y0041538D01*
X0286419Y0041491D01*
X0286569Y0041440D01*
X0286718Y0041385D01*
X0286865Y0041327D01*
X0287011Y0041265D01*
X0287155Y0041200D01*
X0287297Y0041130D01*
X0287438Y0041058D01*
X0287577Y0040981D01*
X0287713Y0040902D01*
X0287848Y0040818D01*
X0287981Y0040732D01*
X0288111Y0040642D01*
X0288239Y0040549D01*
X0288365Y0040453D01*
X0288488Y0040353D01*
X0288609Y0040251D01*
X0288727Y0040146D01*
X0288842Y0040037D01*
X0288955Y0039926D01*
X0289065Y0039812D01*
X0289172Y0039695D01*
X0289276Y0039576D01*
X0289377Y0039454D01*
X0289474Y0039329D01*
X0289569Y0039202D01*
X0289660Y0039073D01*
X0289749Y0038942D01*
X0289833Y0038808D01*
X0289915Y0038672D01*
X0289993Y0038535D01*
X0290067Y0038395D01*
X0290138Y0038253D01*
X0290206Y0038110D01*
X0290270Y0037965D01*
X0290330Y0037819D01*
X0290386Y0037671D01*
X0290439Y0037522D01*
X0290488Y0037371D01*
X0290533Y0037219D01*
X0290574Y0037066D01*
X0290612Y0036913D01*
X0290645Y0036758D01*
X0290675Y0036602D01*
X0290701Y0036446D01*
X0290722Y0036289D01*
X0290740Y0036132D01*
X0290754Y0035974D01*
X0290764Y0035816D01*
X0290770Y0035658D01*
X0290772Y0035500D01*
X0290770Y0035342D01*
X0290764Y0035184D01*
X0290754Y0035026D01*
X0290740Y0034868D01*
X0290722Y0034711D01*
X0290701Y0034554D01*
X0290675Y0034398D01*
X0290645Y0034242D01*
X0290612Y0034087D01*
X0290574Y0033934D01*
X0290533Y0033781D01*
X0290488Y0033629D01*
X0290439Y0033478D01*
X0290386Y0033329D01*
X0290330Y0033181D01*
X0290270Y0033035D01*
X0290206Y0032890D01*
X0290138Y0032747D01*
X0290067Y0032605D01*
X0289993Y0032465D01*
X0289915Y0032328D01*
X0289833Y0032192D01*
X0289749Y0032058D01*
X0289660Y0031927D01*
X0289569Y0031798D01*
X0289474Y0031671D01*
X0289377Y0031546D01*
X0289276Y0031424D01*
X0289172Y0031305D01*
X0289065Y0031188D01*
X0288955Y0031074D01*
X0288842Y0030963D01*
X0288727Y0030854D01*
X0288609Y0030749D01*
X0288488Y0030647D01*
X0288365Y0030547D01*
X0288239Y0030451D01*
X0288111Y0030358D01*
X0287981Y0030268D01*
X0287848Y0030182D01*
X0287713Y0030098D01*
X0287577Y0030019D01*
X0287438Y0029942D01*
X0287297Y0029870D01*
X0287155Y0029800D01*
X0287011Y0029735D01*
X0286865Y0029673D01*
X0286718Y0029615D01*
X0286569Y0029560D01*
X0286419Y0029509D01*
X0286268Y0029462D01*
X0286116Y0029419D01*
X0285963Y0029380D01*
X0285808Y0029344D01*
X0285653Y0029313D01*
X0285497Y0029285D01*
X0285341Y0029261D01*
X0285184Y0029241D01*
X0285026Y0029225D01*
X0284869Y0029213D01*
X0284710Y0029205D01*
X0284552Y0029201D01*
X0284394Y0029201D01*
X0284236Y0029205D01*
X0284077Y0029213D01*
X0283920Y0029225D01*
X0283762Y0029241D01*
X0283605Y0029261D01*
X0283449Y0029285D01*
X0283293Y0029313D01*
X0283138Y0029344D01*
X0282983Y0029380D01*
X0282830Y0029419D01*
X0282678Y0029462D01*
X0282527Y0029509D01*
X0282377Y0029560D01*
X0282228Y0029615D01*
X0282081Y0029673D01*
X0281935Y0029735D01*
X0281791Y0029800D01*
X0281649Y0029870D01*
X0281508Y0029942D01*
X0281369Y0030019D01*
X0281233Y0030098D01*
X0281098Y0030182D01*
X0280965Y0030268D01*
X0280835Y0030358D01*
X0280707Y0030451D01*
X0280581Y0030547D01*
X0280458Y0030647D01*
X0280337Y0030749D01*
X0280219Y0030854D01*
X0280104Y0030963D01*
X0279991Y0031074D01*
X0279881Y0031188D01*
X0279774Y0031305D01*
X0279670Y0031424D01*
X0279569Y0031546D01*
X0279472Y0031671D01*
X0279377Y0031798D01*
X0279286Y0031927D01*
X0279197Y0032058D01*
X0279113Y0032192D01*
X0279031Y0032328D01*
X0278953Y0032465D01*
X0278879Y0032605D01*
X0278808Y0032747D01*
X0278740Y0032890D01*
X0278676Y0033035D01*
X0278616Y0033181D01*
X0278560Y0033329D01*
X0278507Y0033478D01*
X0278458Y0033629D01*
X0278413Y0033781D01*
X0278372Y0033934D01*
X0278334Y0034087D01*
X0278301Y0034242D01*
X0278271Y0034398D01*
X0278245Y0034554D01*
X0278224Y0034711D01*
X0278206Y0034868D01*
X0278192Y0035026D01*
X0278182Y0035184D01*
X0278176Y0035342D01*
X0278174Y0035500D01*
M02*
