G75*
%MOIN*%
%OFA0B0*%
%FSLAX25Y25*%
%IPPOS*%
%LPD*%
%AMOC8*
5,1,8,0,0,1.08239X$1,22.5*
%
%ADD10C,0.01000*%
%ADD11C,0.00000*%
%ADD12C,0.07400*%
%ADD13R,0.07400X0.07400*%
%ADD14C,0.08858*%
%ADD15R,0.05315X0.01575*%
%ADD16R,0.05906X0.01969*%
%ADD17R,0.01969X0.05906*%
%ADD18R,0.05000X0.02200*%
%ADD19R,0.02200X0.05000*%
%ADD20R,0.05118X0.05906*%
%ADD21R,0.04724X0.05118*%
%ADD22R,0.04724X0.03937*%
%ADD23R,0.09449X0.07874*%
%ADD24R,0.05118X0.04724*%
%ADD25R,0.08800X0.04800*%
%ADD26R,0.08661X0.14173*%
%ADD27R,0.02362X0.03937*%
%ADD28R,0.06000X0.03000*%
%ADD29R,0.04600X0.06300*%
%ADD30OC8,0.07400*%
%ADD31C,0.09370*%
%ADD32R,0.05512X0.03937*%
%ADD33R,0.03937X0.02362*%
%ADD34R,0.05709X0.04724*%
%ADD35C,0.01200*%
%ADD36C,0.02978*%
%ADD37C,0.03200*%
%ADD38C,0.01600*%
D10*
X0024473Y0009437D02*
X0024473Y0211563D01*
X0024475Y0211687D01*
X0024481Y0211810D01*
X0024490Y0211934D01*
X0024504Y0212056D01*
X0024521Y0212179D01*
X0024543Y0212301D01*
X0024568Y0212422D01*
X0024597Y0212542D01*
X0024629Y0212661D01*
X0024666Y0212780D01*
X0024706Y0212897D01*
X0024749Y0213012D01*
X0024797Y0213127D01*
X0024848Y0213239D01*
X0024902Y0213350D01*
X0024960Y0213460D01*
X0025021Y0213567D01*
X0025086Y0213673D01*
X0025154Y0213776D01*
X0025225Y0213877D01*
X0025299Y0213976D01*
X0025376Y0214073D01*
X0025457Y0214167D01*
X0025540Y0214258D01*
X0025626Y0214347D01*
X0025715Y0214433D01*
X0025806Y0214516D01*
X0025900Y0214597D01*
X0025997Y0214674D01*
X0026096Y0214748D01*
X0026197Y0214819D01*
X0026300Y0214887D01*
X0026406Y0214952D01*
X0026513Y0215013D01*
X0026623Y0215071D01*
X0026734Y0215125D01*
X0026846Y0215176D01*
X0026961Y0215224D01*
X0027076Y0215267D01*
X0027193Y0215307D01*
X0027312Y0215344D01*
X0027431Y0215376D01*
X0027551Y0215405D01*
X0027672Y0215430D01*
X0027794Y0215452D01*
X0027917Y0215469D01*
X0028039Y0215483D01*
X0028163Y0215492D01*
X0028286Y0215498D01*
X0028410Y0215500D01*
X0278473Y0215500D01*
X0284473Y0209500D01*
X0284473Y0164500D01*
X0294473Y0154500D01*
X0294473Y0025500D01*
X0284473Y0015500D01*
X0284473Y0009437D01*
X0284471Y0009313D01*
X0284465Y0009190D01*
X0284456Y0009066D01*
X0284442Y0008944D01*
X0284425Y0008821D01*
X0284403Y0008699D01*
X0284378Y0008578D01*
X0284349Y0008458D01*
X0284317Y0008339D01*
X0284280Y0008220D01*
X0284240Y0008103D01*
X0284197Y0007988D01*
X0284149Y0007873D01*
X0284098Y0007761D01*
X0284044Y0007650D01*
X0283986Y0007540D01*
X0283925Y0007433D01*
X0283860Y0007327D01*
X0283792Y0007224D01*
X0283721Y0007123D01*
X0283647Y0007024D01*
X0283570Y0006927D01*
X0283489Y0006833D01*
X0283406Y0006742D01*
X0283320Y0006653D01*
X0283231Y0006567D01*
X0283140Y0006484D01*
X0283046Y0006403D01*
X0282949Y0006326D01*
X0282850Y0006252D01*
X0282749Y0006181D01*
X0282646Y0006113D01*
X0282540Y0006048D01*
X0282433Y0005987D01*
X0282323Y0005929D01*
X0282212Y0005875D01*
X0282100Y0005824D01*
X0281985Y0005776D01*
X0281870Y0005733D01*
X0281753Y0005693D01*
X0281634Y0005656D01*
X0281515Y0005624D01*
X0281395Y0005595D01*
X0281274Y0005570D01*
X0281152Y0005548D01*
X0281029Y0005531D01*
X0280907Y0005517D01*
X0280783Y0005508D01*
X0280660Y0005502D01*
X0280536Y0005500D01*
X0028410Y0005500D01*
X0028286Y0005502D01*
X0028163Y0005508D01*
X0028039Y0005517D01*
X0027917Y0005531D01*
X0027794Y0005548D01*
X0027672Y0005570D01*
X0027551Y0005595D01*
X0027431Y0005624D01*
X0027312Y0005656D01*
X0027193Y0005693D01*
X0027076Y0005733D01*
X0026961Y0005776D01*
X0026846Y0005824D01*
X0026734Y0005875D01*
X0026623Y0005929D01*
X0026513Y0005987D01*
X0026406Y0006048D01*
X0026300Y0006113D01*
X0026197Y0006181D01*
X0026096Y0006252D01*
X0025997Y0006326D01*
X0025900Y0006403D01*
X0025806Y0006484D01*
X0025715Y0006567D01*
X0025626Y0006653D01*
X0025540Y0006742D01*
X0025457Y0006833D01*
X0025376Y0006927D01*
X0025299Y0007024D01*
X0025225Y0007123D01*
X0025154Y0007224D01*
X0025086Y0007327D01*
X0025021Y0007433D01*
X0024960Y0007540D01*
X0024902Y0007650D01*
X0024848Y0007761D01*
X0024797Y0007873D01*
X0024749Y0007988D01*
X0024706Y0008103D01*
X0024666Y0008220D01*
X0024629Y0008339D01*
X0024597Y0008458D01*
X0024568Y0008578D01*
X0024543Y0008699D01*
X0024521Y0008821D01*
X0024504Y0008944D01*
X0024490Y0009066D01*
X0024481Y0009190D01*
X0024475Y0009313D01*
X0024473Y0009437D01*
X0096973Y0157000D02*
X0096973Y0165500D01*
X0279473Y0120000D02*
X0279473Y0111000D01*
X0280473Y0110000D02*
X0280473Y0101500D01*
D11*
X0278174Y0145500D02*
X0278176Y0145658D01*
X0278182Y0145816D01*
X0278192Y0145974D01*
X0278206Y0146132D01*
X0278224Y0146289D01*
X0278245Y0146446D01*
X0278271Y0146602D01*
X0278301Y0146758D01*
X0278334Y0146913D01*
X0278372Y0147066D01*
X0278413Y0147219D01*
X0278458Y0147371D01*
X0278507Y0147522D01*
X0278560Y0147671D01*
X0278616Y0147819D01*
X0278676Y0147965D01*
X0278740Y0148110D01*
X0278808Y0148253D01*
X0278879Y0148395D01*
X0278953Y0148535D01*
X0279031Y0148672D01*
X0279113Y0148808D01*
X0279197Y0148942D01*
X0279286Y0149073D01*
X0279377Y0149202D01*
X0279472Y0149329D01*
X0279569Y0149454D01*
X0279670Y0149576D01*
X0279774Y0149695D01*
X0279881Y0149812D01*
X0279991Y0149926D01*
X0280104Y0150037D01*
X0280219Y0150146D01*
X0280337Y0150251D01*
X0280458Y0150353D01*
X0280581Y0150453D01*
X0280707Y0150549D01*
X0280835Y0150642D01*
X0280965Y0150732D01*
X0281098Y0150818D01*
X0281233Y0150902D01*
X0281369Y0150981D01*
X0281508Y0151058D01*
X0281649Y0151130D01*
X0281791Y0151200D01*
X0281935Y0151265D01*
X0282081Y0151327D01*
X0282228Y0151385D01*
X0282377Y0151440D01*
X0282527Y0151491D01*
X0282678Y0151538D01*
X0282830Y0151581D01*
X0282983Y0151620D01*
X0283138Y0151656D01*
X0283293Y0151687D01*
X0283449Y0151715D01*
X0283605Y0151739D01*
X0283762Y0151759D01*
X0283920Y0151775D01*
X0284077Y0151787D01*
X0284236Y0151795D01*
X0284394Y0151799D01*
X0284552Y0151799D01*
X0284710Y0151795D01*
X0284869Y0151787D01*
X0285026Y0151775D01*
X0285184Y0151759D01*
X0285341Y0151739D01*
X0285497Y0151715D01*
X0285653Y0151687D01*
X0285808Y0151656D01*
X0285963Y0151620D01*
X0286116Y0151581D01*
X0286268Y0151538D01*
X0286419Y0151491D01*
X0286569Y0151440D01*
X0286718Y0151385D01*
X0286865Y0151327D01*
X0287011Y0151265D01*
X0287155Y0151200D01*
X0287297Y0151130D01*
X0287438Y0151058D01*
X0287577Y0150981D01*
X0287713Y0150902D01*
X0287848Y0150818D01*
X0287981Y0150732D01*
X0288111Y0150642D01*
X0288239Y0150549D01*
X0288365Y0150453D01*
X0288488Y0150353D01*
X0288609Y0150251D01*
X0288727Y0150146D01*
X0288842Y0150037D01*
X0288955Y0149926D01*
X0289065Y0149812D01*
X0289172Y0149695D01*
X0289276Y0149576D01*
X0289377Y0149454D01*
X0289474Y0149329D01*
X0289569Y0149202D01*
X0289660Y0149073D01*
X0289749Y0148942D01*
X0289833Y0148808D01*
X0289915Y0148672D01*
X0289993Y0148535D01*
X0290067Y0148395D01*
X0290138Y0148253D01*
X0290206Y0148110D01*
X0290270Y0147965D01*
X0290330Y0147819D01*
X0290386Y0147671D01*
X0290439Y0147522D01*
X0290488Y0147371D01*
X0290533Y0147219D01*
X0290574Y0147066D01*
X0290612Y0146913D01*
X0290645Y0146758D01*
X0290675Y0146602D01*
X0290701Y0146446D01*
X0290722Y0146289D01*
X0290740Y0146132D01*
X0290754Y0145974D01*
X0290764Y0145816D01*
X0290770Y0145658D01*
X0290772Y0145500D01*
X0290770Y0145342D01*
X0290764Y0145184D01*
X0290754Y0145026D01*
X0290740Y0144868D01*
X0290722Y0144711D01*
X0290701Y0144554D01*
X0290675Y0144398D01*
X0290645Y0144242D01*
X0290612Y0144087D01*
X0290574Y0143934D01*
X0290533Y0143781D01*
X0290488Y0143629D01*
X0290439Y0143478D01*
X0290386Y0143329D01*
X0290330Y0143181D01*
X0290270Y0143035D01*
X0290206Y0142890D01*
X0290138Y0142747D01*
X0290067Y0142605D01*
X0289993Y0142465D01*
X0289915Y0142328D01*
X0289833Y0142192D01*
X0289749Y0142058D01*
X0289660Y0141927D01*
X0289569Y0141798D01*
X0289474Y0141671D01*
X0289377Y0141546D01*
X0289276Y0141424D01*
X0289172Y0141305D01*
X0289065Y0141188D01*
X0288955Y0141074D01*
X0288842Y0140963D01*
X0288727Y0140854D01*
X0288609Y0140749D01*
X0288488Y0140647D01*
X0288365Y0140547D01*
X0288239Y0140451D01*
X0288111Y0140358D01*
X0287981Y0140268D01*
X0287848Y0140182D01*
X0287713Y0140098D01*
X0287577Y0140019D01*
X0287438Y0139942D01*
X0287297Y0139870D01*
X0287155Y0139800D01*
X0287011Y0139735D01*
X0286865Y0139673D01*
X0286718Y0139615D01*
X0286569Y0139560D01*
X0286419Y0139509D01*
X0286268Y0139462D01*
X0286116Y0139419D01*
X0285963Y0139380D01*
X0285808Y0139344D01*
X0285653Y0139313D01*
X0285497Y0139285D01*
X0285341Y0139261D01*
X0285184Y0139241D01*
X0285026Y0139225D01*
X0284869Y0139213D01*
X0284710Y0139205D01*
X0284552Y0139201D01*
X0284394Y0139201D01*
X0284236Y0139205D01*
X0284077Y0139213D01*
X0283920Y0139225D01*
X0283762Y0139241D01*
X0283605Y0139261D01*
X0283449Y0139285D01*
X0283293Y0139313D01*
X0283138Y0139344D01*
X0282983Y0139380D01*
X0282830Y0139419D01*
X0282678Y0139462D01*
X0282527Y0139509D01*
X0282377Y0139560D01*
X0282228Y0139615D01*
X0282081Y0139673D01*
X0281935Y0139735D01*
X0281791Y0139800D01*
X0281649Y0139870D01*
X0281508Y0139942D01*
X0281369Y0140019D01*
X0281233Y0140098D01*
X0281098Y0140182D01*
X0280965Y0140268D01*
X0280835Y0140358D01*
X0280707Y0140451D01*
X0280581Y0140547D01*
X0280458Y0140647D01*
X0280337Y0140749D01*
X0280219Y0140854D01*
X0280104Y0140963D01*
X0279991Y0141074D01*
X0279881Y0141188D01*
X0279774Y0141305D01*
X0279670Y0141424D01*
X0279569Y0141546D01*
X0279472Y0141671D01*
X0279377Y0141798D01*
X0279286Y0141927D01*
X0279197Y0142058D01*
X0279113Y0142192D01*
X0279031Y0142328D01*
X0278953Y0142465D01*
X0278879Y0142605D01*
X0278808Y0142747D01*
X0278740Y0142890D01*
X0278676Y0143035D01*
X0278616Y0143181D01*
X0278560Y0143329D01*
X0278507Y0143478D01*
X0278458Y0143629D01*
X0278413Y0143781D01*
X0278372Y0143934D01*
X0278334Y0144087D01*
X0278301Y0144242D01*
X0278271Y0144398D01*
X0278245Y0144554D01*
X0278224Y0144711D01*
X0278206Y0144868D01*
X0278192Y0145026D01*
X0278182Y0145184D01*
X0278176Y0145342D01*
X0278174Y0145500D01*
X0278174Y0035500D02*
X0278176Y0035658D01*
X0278182Y0035816D01*
X0278192Y0035974D01*
X0278206Y0036132D01*
X0278224Y0036289D01*
X0278245Y0036446D01*
X0278271Y0036602D01*
X0278301Y0036758D01*
X0278334Y0036913D01*
X0278372Y0037066D01*
X0278413Y0037219D01*
X0278458Y0037371D01*
X0278507Y0037522D01*
X0278560Y0037671D01*
X0278616Y0037819D01*
X0278676Y0037965D01*
X0278740Y0038110D01*
X0278808Y0038253D01*
X0278879Y0038395D01*
X0278953Y0038535D01*
X0279031Y0038672D01*
X0279113Y0038808D01*
X0279197Y0038942D01*
X0279286Y0039073D01*
X0279377Y0039202D01*
X0279472Y0039329D01*
X0279569Y0039454D01*
X0279670Y0039576D01*
X0279774Y0039695D01*
X0279881Y0039812D01*
X0279991Y0039926D01*
X0280104Y0040037D01*
X0280219Y0040146D01*
X0280337Y0040251D01*
X0280458Y0040353D01*
X0280581Y0040453D01*
X0280707Y0040549D01*
X0280835Y0040642D01*
X0280965Y0040732D01*
X0281098Y0040818D01*
X0281233Y0040902D01*
X0281369Y0040981D01*
X0281508Y0041058D01*
X0281649Y0041130D01*
X0281791Y0041200D01*
X0281935Y0041265D01*
X0282081Y0041327D01*
X0282228Y0041385D01*
X0282377Y0041440D01*
X0282527Y0041491D01*
X0282678Y0041538D01*
X0282830Y0041581D01*
X0282983Y0041620D01*
X0283138Y0041656D01*
X0283293Y0041687D01*
X0283449Y0041715D01*
X0283605Y0041739D01*
X0283762Y0041759D01*
X0283920Y0041775D01*
X0284077Y0041787D01*
X0284236Y0041795D01*
X0284394Y0041799D01*
X0284552Y0041799D01*
X0284710Y0041795D01*
X0284869Y0041787D01*
X0285026Y0041775D01*
X0285184Y0041759D01*
X0285341Y0041739D01*
X0285497Y0041715D01*
X0285653Y0041687D01*
X0285808Y0041656D01*
X0285963Y0041620D01*
X0286116Y0041581D01*
X0286268Y0041538D01*
X0286419Y0041491D01*
X0286569Y0041440D01*
X0286718Y0041385D01*
X0286865Y0041327D01*
X0287011Y0041265D01*
X0287155Y0041200D01*
X0287297Y0041130D01*
X0287438Y0041058D01*
X0287577Y0040981D01*
X0287713Y0040902D01*
X0287848Y0040818D01*
X0287981Y0040732D01*
X0288111Y0040642D01*
X0288239Y0040549D01*
X0288365Y0040453D01*
X0288488Y0040353D01*
X0288609Y0040251D01*
X0288727Y0040146D01*
X0288842Y0040037D01*
X0288955Y0039926D01*
X0289065Y0039812D01*
X0289172Y0039695D01*
X0289276Y0039576D01*
X0289377Y0039454D01*
X0289474Y0039329D01*
X0289569Y0039202D01*
X0289660Y0039073D01*
X0289749Y0038942D01*
X0289833Y0038808D01*
X0289915Y0038672D01*
X0289993Y0038535D01*
X0290067Y0038395D01*
X0290138Y0038253D01*
X0290206Y0038110D01*
X0290270Y0037965D01*
X0290330Y0037819D01*
X0290386Y0037671D01*
X0290439Y0037522D01*
X0290488Y0037371D01*
X0290533Y0037219D01*
X0290574Y0037066D01*
X0290612Y0036913D01*
X0290645Y0036758D01*
X0290675Y0036602D01*
X0290701Y0036446D01*
X0290722Y0036289D01*
X0290740Y0036132D01*
X0290754Y0035974D01*
X0290764Y0035816D01*
X0290770Y0035658D01*
X0290772Y0035500D01*
X0290770Y0035342D01*
X0290764Y0035184D01*
X0290754Y0035026D01*
X0290740Y0034868D01*
X0290722Y0034711D01*
X0290701Y0034554D01*
X0290675Y0034398D01*
X0290645Y0034242D01*
X0290612Y0034087D01*
X0290574Y0033934D01*
X0290533Y0033781D01*
X0290488Y0033629D01*
X0290439Y0033478D01*
X0290386Y0033329D01*
X0290330Y0033181D01*
X0290270Y0033035D01*
X0290206Y0032890D01*
X0290138Y0032747D01*
X0290067Y0032605D01*
X0289993Y0032465D01*
X0289915Y0032328D01*
X0289833Y0032192D01*
X0289749Y0032058D01*
X0289660Y0031927D01*
X0289569Y0031798D01*
X0289474Y0031671D01*
X0289377Y0031546D01*
X0289276Y0031424D01*
X0289172Y0031305D01*
X0289065Y0031188D01*
X0288955Y0031074D01*
X0288842Y0030963D01*
X0288727Y0030854D01*
X0288609Y0030749D01*
X0288488Y0030647D01*
X0288365Y0030547D01*
X0288239Y0030451D01*
X0288111Y0030358D01*
X0287981Y0030268D01*
X0287848Y0030182D01*
X0287713Y0030098D01*
X0287577Y0030019D01*
X0287438Y0029942D01*
X0287297Y0029870D01*
X0287155Y0029800D01*
X0287011Y0029735D01*
X0286865Y0029673D01*
X0286718Y0029615D01*
X0286569Y0029560D01*
X0286419Y0029509D01*
X0286268Y0029462D01*
X0286116Y0029419D01*
X0285963Y0029380D01*
X0285808Y0029344D01*
X0285653Y0029313D01*
X0285497Y0029285D01*
X0285341Y0029261D01*
X0285184Y0029241D01*
X0285026Y0029225D01*
X0284869Y0029213D01*
X0284710Y0029205D01*
X0284552Y0029201D01*
X0284394Y0029201D01*
X0284236Y0029205D01*
X0284077Y0029213D01*
X0283920Y0029225D01*
X0283762Y0029241D01*
X0283605Y0029261D01*
X0283449Y0029285D01*
X0283293Y0029313D01*
X0283138Y0029344D01*
X0282983Y0029380D01*
X0282830Y0029419D01*
X0282678Y0029462D01*
X0282527Y0029509D01*
X0282377Y0029560D01*
X0282228Y0029615D01*
X0282081Y0029673D01*
X0281935Y0029735D01*
X0281791Y0029800D01*
X0281649Y0029870D01*
X0281508Y0029942D01*
X0281369Y0030019D01*
X0281233Y0030098D01*
X0281098Y0030182D01*
X0280965Y0030268D01*
X0280835Y0030358D01*
X0280707Y0030451D01*
X0280581Y0030547D01*
X0280458Y0030647D01*
X0280337Y0030749D01*
X0280219Y0030854D01*
X0280104Y0030963D01*
X0279991Y0031074D01*
X0279881Y0031188D01*
X0279774Y0031305D01*
X0279670Y0031424D01*
X0279569Y0031546D01*
X0279472Y0031671D01*
X0279377Y0031798D01*
X0279286Y0031927D01*
X0279197Y0032058D01*
X0279113Y0032192D01*
X0279031Y0032328D01*
X0278953Y0032465D01*
X0278879Y0032605D01*
X0278808Y0032747D01*
X0278740Y0032890D01*
X0278676Y0033035D01*
X0278616Y0033181D01*
X0278560Y0033329D01*
X0278507Y0033478D01*
X0278458Y0033629D01*
X0278413Y0033781D01*
X0278372Y0033934D01*
X0278334Y0034087D01*
X0278301Y0034242D01*
X0278271Y0034398D01*
X0278245Y0034554D01*
X0278224Y0034711D01*
X0278206Y0034868D01*
X0278192Y0035026D01*
X0278182Y0035184D01*
X0278176Y0035342D01*
X0278174Y0035500D01*
X0073174Y0015500D02*
X0073176Y0015658D01*
X0073182Y0015816D01*
X0073192Y0015974D01*
X0073206Y0016132D01*
X0073224Y0016289D01*
X0073245Y0016446D01*
X0073271Y0016602D01*
X0073301Y0016758D01*
X0073334Y0016913D01*
X0073372Y0017066D01*
X0073413Y0017219D01*
X0073458Y0017371D01*
X0073507Y0017522D01*
X0073560Y0017671D01*
X0073616Y0017819D01*
X0073676Y0017965D01*
X0073740Y0018110D01*
X0073808Y0018253D01*
X0073879Y0018395D01*
X0073953Y0018535D01*
X0074031Y0018672D01*
X0074113Y0018808D01*
X0074197Y0018942D01*
X0074286Y0019073D01*
X0074377Y0019202D01*
X0074472Y0019329D01*
X0074569Y0019454D01*
X0074670Y0019576D01*
X0074774Y0019695D01*
X0074881Y0019812D01*
X0074991Y0019926D01*
X0075104Y0020037D01*
X0075219Y0020146D01*
X0075337Y0020251D01*
X0075458Y0020353D01*
X0075581Y0020453D01*
X0075707Y0020549D01*
X0075835Y0020642D01*
X0075965Y0020732D01*
X0076098Y0020818D01*
X0076233Y0020902D01*
X0076369Y0020981D01*
X0076508Y0021058D01*
X0076649Y0021130D01*
X0076791Y0021200D01*
X0076935Y0021265D01*
X0077081Y0021327D01*
X0077228Y0021385D01*
X0077377Y0021440D01*
X0077527Y0021491D01*
X0077678Y0021538D01*
X0077830Y0021581D01*
X0077983Y0021620D01*
X0078138Y0021656D01*
X0078293Y0021687D01*
X0078449Y0021715D01*
X0078605Y0021739D01*
X0078762Y0021759D01*
X0078920Y0021775D01*
X0079077Y0021787D01*
X0079236Y0021795D01*
X0079394Y0021799D01*
X0079552Y0021799D01*
X0079710Y0021795D01*
X0079869Y0021787D01*
X0080026Y0021775D01*
X0080184Y0021759D01*
X0080341Y0021739D01*
X0080497Y0021715D01*
X0080653Y0021687D01*
X0080808Y0021656D01*
X0080963Y0021620D01*
X0081116Y0021581D01*
X0081268Y0021538D01*
X0081419Y0021491D01*
X0081569Y0021440D01*
X0081718Y0021385D01*
X0081865Y0021327D01*
X0082011Y0021265D01*
X0082155Y0021200D01*
X0082297Y0021130D01*
X0082438Y0021058D01*
X0082577Y0020981D01*
X0082713Y0020902D01*
X0082848Y0020818D01*
X0082981Y0020732D01*
X0083111Y0020642D01*
X0083239Y0020549D01*
X0083365Y0020453D01*
X0083488Y0020353D01*
X0083609Y0020251D01*
X0083727Y0020146D01*
X0083842Y0020037D01*
X0083955Y0019926D01*
X0084065Y0019812D01*
X0084172Y0019695D01*
X0084276Y0019576D01*
X0084377Y0019454D01*
X0084474Y0019329D01*
X0084569Y0019202D01*
X0084660Y0019073D01*
X0084749Y0018942D01*
X0084833Y0018808D01*
X0084915Y0018672D01*
X0084993Y0018535D01*
X0085067Y0018395D01*
X0085138Y0018253D01*
X0085206Y0018110D01*
X0085270Y0017965D01*
X0085330Y0017819D01*
X0085386Y0017671D01*
X0085439Y0017522D01*
X0085488Y0017371D01*
X0085533Y0017219D01*
X0085574Y0017066D01*
X0085612Y0016913D01*
X0085645Y0016758D01*
X0085675Y0016602D01*
X0085701Y0016446D01*
X0085722Y0016289D01*
X0085740Y0016132D01*
X0085754Y0015974D01*
X0085764Y0015816D01*
X0085770Y0015658D01*
X0085772Y0015500D01*
X0085770Y0015342D01*
X0085764Y0015184D01*
X0085754Y0015026D01*
X0085740Y0014868D01*
X0085722Y0014711D01*
X0085701Y0014554D01*
X0085675Y0014398D01*
X0085645Y0014242D01*
X0085612Y0014087D01*
X0085574Y0013934D01*
X0085533Y0013781D01*
X0085488Y0013629D01*
X0085439Y0013478D01*
X0085386Y0013329D01*
X0085330Y0013181D01*
X0085270Y0013035D01*
X0085206Y0012890D01*
X0085138Y0012747D01*
X0085067Y0012605D01*
X0084993Y0012465D01*
X0084915Y0012328D01*
X0084833Y0012192D01*
X0084749Y0012058D01*
X0084660Y0011927D01*
X0084569Y0011798D01*
X0084474Y0011671D01*
X0084377Y0011546D01*
X0084276Y0011424D01*
X0084172Y0011305D01*
X0084065Y0011188D01*
X0083955Y0011074D01*
X0083842Y0010963D01*
X0083727Y0010854D01*
X0083609Y0010749D01*
X0083488Y0010647D01*
X0083365Y0010547D01*
X0083239Y0010451D01*
X0083111Y0010358D01*
X0082981Y0010268D01*
X0082848Y0010182D01*
X0082713Y0010098D01*
X0082577Y0010019D01*
X0082438Y0009942D01*
X0082297Y0009870D01*
X0082155Y0009800D01*
X0082011Y0009735D01*
X0081865Y0009673D01*
X0081718Y0009615D01*
X0081569Y0009560D01*
X0081419Y0009509D01*
X0081268Y0009462D01*
X0081116Y0009419D01*
X0080963Y0009380D01*
X0080808Y0009344D01*
X0080653Y0009313D01*
X0080497Y0009285D01*
X0080341Y0009261D01*
X0080184Y0009241D01*
X0080026Y0009225D01*
X0079869Y0009213D01*
X0079710Y0009205D01*
X0079552Y0009201D01*
X0079394Y0009201D01*
X0079236Y0009205D01*
X0079077Y0009213D01*
X0078920Y0009225D01*
X0078762Y0009241D01*
X0078605Y0009261D01*
X0078449Y0009285D01*
X0078293Y0009313D01*
X0078138Y0009344D01*
X0077983Y0009380D01*
X0077830Y0009419D01*
X0077678Y0009462D01*
X0077527Y0009509D01*
X0077377Y0009560D01*
X0077228Y0009615D01*
X0077081Y0009673D01*
X0076935Y0009735D01*
X0076791Y0009800D01*
X0076649Y0009870D01*
X0076508Y0009942D01*
X0076369Y0010019D01*
X0076233Y0010098D01*
X0076098Y0010182D01*
X0075965Y0010268D01*
X0075835Y0010358D01*
X0075707Y0010451D01*
X0075581Y0010547D01*
X0075458Y0010647D01*
X0075337Y0010749D01*
X0075219Y0010854D01*
X0075104Y0010963D01*
X0074991Y0011074D01*
X0074881Y0011188D01*
X0074774Y0011305D01*
X0074670Y0011424D01*
X0074569Y0011546D01*
X0074472Y0011671D01*
X0074377Y0011798D01*
X0074286Y0011927D01*
X0074197Y0012058D01*
X0074113Y0012192D01*
X0074031Y0012328D01*
X0073953Y0012465D01*
X0073879Y0012605D01*
X0073808Y0012747D01*
X0073740Y0012890D01*
X0073676Y0013035D01*
X0073616Y0013181D01*
X0073560Y0013329D01*
X0073507Y0013478D01*
X0073458Y0013629D01*
X0073413Y0013781D01*
X0073372Y0013934D01*
X0073334Y0014087D01*
X0073301Y0014242D01*
X0073271Y0014398D01*
X0073245Y0014554D01*
X0073224Y0014711D01*
X0073206Y0014868D01*
X0073192Y0015026D01*
X0073182Y0015184D01*
X0073176Y0015342D01*
X0073174Y0015500D01*
X0041218Y0146740D02*
X0041220Y0146821D01*
X0041226Y0146903D01*
X0041236Y0146984D01*
X0041250Y0147064D01*
X0041267Y0147143D01*
X0041289Y0147222D01*
X0041314Y0147299D01*
X0041343Y0147376D01*
X0041376Y0147450D01*
X0041413Y0147523D01*
X0041452Y0147594D01*
X0041496Y0147663D01*
X0041542Y0147730D01*
X0041592Y0147794D01*
X0041645Y0147856D01*
X0041701Y0147916D01*
X0041759Y0147972D01*
X0041821Y0148026D01*
X0041885Y0148077D01*
X0041951Y0148124D01*
X0042019Y0148168D01*
X0042090Y0148209D01*
X0042162Y0148246D01*
X0042237Y0148280D01*
X0042312Y0148310D01*
X0042390Y0148336D01*
X0042468Y0148359D01*
X0042547Y0148377D01*
X0042627Y0148392D01*
X0042708Y0148403D01*
X0042789Y0148410D01*
X0042871Y0148413D01*
X0042952Y0148412D01*
X0043033Y0148407D01*
X0043114Y0148398D01*
X0043195Y0148385D01*
X0043275Y0148368D01*
X0043353Y0148348D01*
X0043431Y0148323D01*
X0043508Y0148295D01*
X0043583Y0148263D01*
X0043656Y0148228D01*
X0043727Y0148189D01*
X0043797Y0148146D01*
X0043864Y0148101D01*
X0043930Y0148052D01*
X0043992Y0148000D01*
X0044052Y0147944D01*
X0044109Y0147886D01*
X0044164Y0147826D01*
X0044215Y0147762D01*
X0044263Y0147697D01*
X0044308Y0147629D01*
X0044350Y0147559D01*
X0044388Y0147487D01*
X0044423Y0147413D01*
X0044454Y0147338D01*
X0044481Y0147261D01*
X0044504Y0147183D01*
X0044524Y0147104D01*
X0044540Y0147024D01*
X0044552Y0146943D01*
X0044560Y0146862D01*
X0044564Y0146781D01*
X0044564Y0146699D01*
X0044560Y0146618D01*
X0044552Y0146537D01*
X0044540Y0146456D01*
X0044524Y0146376D01*
X0044504Y0146297D01*
X0044481Y0146219D01*
X0044454Y0146142D01*
X0044423Y0146067D01*
X0044388Y0145993D01*
X0044350Y0145921D01*
X0044308Y0145851D01*
X0044263Y0145783D01*
X0044215Y0145718D01*
X0044164Y0145654D01*
X0044109Y0145594D01*
X0044052Y0145536D01*
X0043992Y0145480D01*
X0043930Y0145428D01*
X0043864Y0145379D01*
X0043797Y0145334D01*
X0043728Y0145291D01*
X0043656Y0145252D01*
X0043583Y0145217D01*
X0043508Y0145185D01*
X0043431Y0145157D01*
X0043353Y0145132D01*
X0043275Y0145112D01*
X0043195Y0145095D01*
X0043114Y0145082D01*
X0043033Y0145073D01*
X0042952Y0145068D01*
X0042871Y0145067D01*
X0042789Y0145070D01*
X0042708Y0145077D01*
X0042627Y0145088D01*
X0042547Y0145103D01*
X0042468Y0145121D01*
X0042390Y0145144D01*
X0042312Y0145170D01*
X0042237Y0145200D01*
X0042162Y0145234D01*
X0042090Y0145271D01*
X0042019Y0145312D01*
X0041951Y0145356D01*
X0041885Y0145403D01*
X0041821Y0145454D01*
X0041759Y0145508D01*
X0041701Y0145564D01*
X0041645Y0145624D01*
X0041592Y0145686D01*
X0041542Y0145750D01*
X0041496Y0145817D01*
X0041452Y0145886D01*
X0041413Y0145957D01*
X0041376Y0146030D01*
X0041343Y0146104D01*
X0041314Y0146181D01*
X0041289Y0146258D01*
X0041267Y0146337D01*
X0041250Y0146416D01*
X0041236Y0146496D01*
X0041226Y0146577D01*
X0041220Y0146659D01*
X0041218Y0146740D01*
X0041218Y0164260D02*
X0041220Y0164341D01*
X0041226Y0164423D01*
X0041236Y0164504D01*
X0041250Y0164584D01*
X0041267Y0164663D01*
X0041289Y0164742D01*
X0041314Y0164819D01*
X0041343Y0164896D01*
X0041376Y0164970D01*
X0041413Y0165043D01*
X0041452Y0165114D01*
X0041496Y0165183D01*
X0041542Y0165250D01*
X0041592Y0165314D01*
X0041645Y0165376D01*
X0041701Y0165436D01*
X0041759Y0165492D01*
X0041821Y0165546D01*
X0041885Y0165597D01*
X0041951Y0165644D01*
X0042019Y0165688D01*
X0042090Y0165729D01*
X0042162Y0165766D01*
X0042237Y0165800D01*
X0042312Y0165830D01*
X0042390Y0165856D01*
X0042468Y0165879D01*
X0042547Y0165897D01*
X0042627Y0165912D01*
X0042708Y0165923D01*
X0042789Y0165930D01*
X0042871Y0165933D01*
X0042952Y0165932D01*
X0043033Y0165927D01*
X0043114Y0165918D01*
X0043195Y0165905D01*
X0043275Y0165888D01*
X0043353Y0165868D01*
X0043431Y0165843D01*
X0043508Y0165815D01*
X0043583Y0165783D01*
X0043656Y0165748D01*
X0043727Y0165709D01*
X0043797Y0165666D01*
X0043864Y0165621D01*
X0043930Y0165572D01*
X0043992Y0165520D01*
X0044052Y0165464D01*
X0044109Y0165406D01*
X0044164Y0165346D01*
X0044215Y0165282D01*
X0044263Y0165217D01*
X0044308Y0165149D01*
X0044350Y0165079D01*
X0044388Y0165007D01*
X0044423Y0164933D01*
X0044454Y0164858D01*
X0044481Y0164781D01*
X0044504Y0164703D01*
X0044524Y0164624D01*
X0044540Y0164544D01*
X0044552Y0164463D01*
X0044560Y0164382D01*
X0044564Y0164301D01*
X0044564Y0164219D01*
X0044560Y0164138D01*
X0044552Y0164057D01*
X0044540Y0163976D01*
X0044524Y0163896D01*
X0044504Y0163817D01*
X0044481Y0163739D01*
X0044454Y0163662D01*
X0044423Y0163587D01*
X0044388Y0163513D01*
X0044350Y0163441D01*
X0044308Y0163371D01*
X0044263Y0163303D01*
X0044215Y0163238D01*
X0044164Y0163174D01*
X0044109Y0163114D01*
X0044052Y0163056D01*
X0043992Y0163000D01*
X0043930Y0162948D01*
X0043864Y0162899D01*
X0043797Y0162854D01*
X0043728Y0162811D01*
X0043656Y0162772D01*
X0043583Y0162737D01*
X0043508Y0162705D01*
X0043431Y0162677D01*
X0043353Y0162652D01*
X0043275Y0162632D01*
X0043195Y0162615D01*
X0043114Y0162602D01*
X0043033Y0162593D01*
X0042952Y0162588D01*
X0042871Y0162587D01*
X0042789Y0162590D01*
X0042708Y0162597D01*
X0042627Y0162608D01*
X0042547Y0162623D01*
X0042468Y0162641D01*
X0042390Y0162664D01*
X0042312Y0162690D01*
X0042237Y0162720D01*
X0042162Y0162754D01*
X0042090Y0162791D01*
X0042019Y0162832D01*
X0041951Y0162876D01*
X0041885Y0162923D01*
X0041821Y0162974D01*
X0041759Y0163028D01*
X0041701Y0163084D01*
X0041645Y0163144D01*
X0041592Y0163206D01*
X0041542Y0163270D01*
X0041496Y0163337D01*
X0041452Y0163406D01*
X0041413Y0163477D01*
X0041376Y0163550D01*
X0041343Y0163624D01*
X0041314Y0163701D01*
X0041289Y0163778D01*
X0041267Y0163857D01*
X0041250Y0163936D01*
X0041236Y0164016D01*
X0041226Y0164097D01*
X0041220Y0164179D01*
X0041218Y0164260D01*
X0078174Y0205500D02*
X0078176Y0205658D01*
X0078182Y0205816D01*
X0078192Y0205974D01*
X0078206Y0206132D01*
X0078224Y0206289D01*
X0078245Y0206446D01*
X0078271Y0206602D01*
X0078301Y0206758D01*
X0078334Y0206913D01*
X0078372Y0207066D01*
X0078413Y0207219D01*
X0078458Y0207371D01*
X0078507Y0207522D01*
X0078560Y0207671D01*
X0078616Y0207819D01*
X0078676Y0207965D01*
X0078740Y0208110D01*
X0078808Y0208253D01*
X0078879Y0208395D01*
X0078953Y0208535D01*
X0079031Y0208672D01*
X0079113Y0208808D01*
X0079197Y0208942D01*
X0079286Y0209073D01*
X0079377Y0209202D01*
X0079472Y0209329D01*
X0079569Y0209454D01*
X0079670Y0209576D01*
X0079774Y0209695D01*
X0079881Y0209812D01*
X0079991Y0209926D01*
X0080104Y0210037D01*
X0080219Y0210146D01*
X0080337Y0210251D01*
X0080458Y0210353D01*
X0080581Y0210453D01*
X0080707Y0210549D01*
X0080835Y0210642D01*
X0080965Y0210732D01*
X0081098Y0210818D01*
X0081233Y0210902D01*
X0081369Y0210981D01*
X0081508Y0211058D01*
X0081649Y0211130D01*
X0081791Y0211200D01*
X0081935Y0211265D01*
X0082081Y0211327D01*
X0082228Y0211385D01*
X0082377Y0211440D01*
X0082527Y0211491D01*
X0082678Y0211538D01*
X0082830Y0211581D01*
X0082983Y0211620D01*
X0083138Y0211656D01*
X0083293Y0211687D01*
X0083449Y0211715D01*
X0083605Y0211739D01*
X0083762Y0211759D01*
X0083920Y0211775D01*
X0084077Y0211787D01*
X0084236Y0211795D01*
X0084394Y0211799D01*
X0084552Y0211799D01*
X0084710Y0211795D01*
X0084869Y0211787D01*
X0085026Y0211775D01*
X0085184Y0211759D01*
X0085341Y0211739D01*
X0085497Y0211715D01*
X0085653Y0211687D01*
X0085808Y0211656D01*
X0085963Y0211620D01*
X0086116Y0211581D01*
X0086268Y0211538D01*
X0086419Y0211491D01*
X0086569Y0211440D01*
X0086718Y0211385D01*
X0086865Y0211327D01*
X0087011Y0211265D01*
X0087155Y0211200D01*
X0087297Y0211130D01*
X0087438Y0211058D01*
X0087577Y0210981D01*
X0087713Y0210902D01*
X0087848Y0210818D01*
X0087981Y0210732D01*
X0088111Y0210642D01*
X0088239Y0210549D01*
X0088365Y0210453D01*
X0088488Y0210353D01*
X0088609Y0210251D01*
X0088727Y0210146D01*
X0088842Y0210037D01*
X0088955Y0209926D01*
X0089065Y0209812D01*
X0089172Y0209695D01*
X0089276Y0209576D01*
X0089377Y0209454D01*
X0089474Y0209329D01*
X0089569Y0209202D01*
X0089660Y0209073D01*
X0089749Y0208942D01*
X0089833Y0208808D01*
X0089915Y0208672D01*
X0089993Y0208535D01*
X0090067Y0208395D01*
X0090138Y0208253D01*
X0090206Y0208110D01*
X0090270Y0207965D01*
X0090330Y0207819D01*
X0090386Y0207671D01*
X0090439Y0207522D01*
X0090488Y0207371D01*
X0090533Y0207219D01*
X0090574Y0207066D01*
X0090612Y0206913D01*
X0090645Y0206758D01*
X0090675Y0206602D01*
X0090701Y0206446D01*
X0090722Y0206289D01*
X0090740Y0206132D01*
X0090754Y0205974D01*
X0090764Y0205816D01*
X0090770Y0205658D01*
X0090772Y0205500D01*
X0090770Y0205342D01*
X0090764Y0205184D01*
X0090754Y0205026D01*
X0090740Y0204868D01*
X0090722Y0204711D01*
X0090701Y0204554D01*
X0090675Y0204398D01*
X0090645Y0204242D01*
X0090612Y0204087D01*
X0090574Y0203934D01*
X0090533Y0203781D01*
X0090488Y0203629D01*
X0090439Y0203478D01*
X0090386Y0203329D01*
X0090330Y0203181D01*
X0090270Y0203035D01*
X0090206Y0202890D01*
X0090138Y0202747D01*
X0090067Y0202605D01*
X0089993Y0202465D01*
X0089915Y0202328D01*
X0089833Y0202192D01*
X0089749Y0202058D01*
X0089660Y0201927D01*
X0089569Y0201798D01*
X0089474Y0201671D01*
X0089377Y0201546D01*
X0089276Y0201424D01*
X0089172Y0201305D01*
X0089065Y0201188D01*
X0088955Y0201074D01*
X0088842Y0200963D01*
X0088727Y0200854D01*
X0088609Y0200749D01*
X0088488Y0200647D01*
X0088365Y0200547D01*
X0088239Y0200451D01*
X0088111Y0200358D01*
X0087981Y0200268D01*
X0087848Y0200182D01*
X0087713Y0200098D01*
X0087577Y0200019D01*
X0087438Y0199942D01*
X0087297Y0199870D01*
X0087155Y0199800D01*
X0087011Y0199735D01*
X0086865Y0199673D01*
X0086718Y0199615D01*
X0086569Y0199560D01*
X0086419Y0199509D01*
X0086268Y0199462D01*
X0086116Y0199419D01*
X0085963Y0199380D01*
X0085808Y0199344D01*
X0085653Y0199313D01*
X0085497Y0199285D01*
X0085341Y0199261D01*
X0085184Y0199241D01*
X0085026Y0199225D01*
X0084869Y0199213D01*
X0084710Y0199205D01*
X0084552Y0199201D01*
X0084394Y0199201D01*
X0084236Y0199205D01*
X0084077Y0199213D01*
X0083920Y0199225D01*
X0083762Y0199241D01*
X0083605Y0199261D01*
X0083449Y0199285D01*
X0083293Y0199313D01*
X0083138Y0199344D01*
X0082983Y0199380D01*
X0082830Y0199419D01*
X0082678Y0199462D01*
X0082527Y0199509D01*
X0082377Y0199560D01*
X0082228Y0199615D01*
X0082081Y0199673D01*
X0081935Y0199735D01*
X0081791Y0199800D01*
X0081649Y0199870D01*
X0081508Y0199942D01*
X0081369Y0200019D01*
X0081233Y0200098D01*
X0081098Y0200182D01*
X0080965Y0200268D01*
X0080835Y0200358D01*
X0080707Y0200451D01*
X0080581Y0200547D01*
X0080458Y0200647D01*
X0080337Y0200749D01*
X0080219Y0200854D01*
X0080104Y0200963D01*
X0079991Y0201074D01*
X0079881Y0201188D01*
X0079774Y0201305D01*
X0079670Y0201424D01*
X0079569Y0201546D01*
X0079472Y0201671D01*
X0079377Y0201798D01*
X0079286Y0201927D01*
X0079197Y0202058D01*
X0079113Y0202192D01*
X0079031Y0202328D01*
X0078953Y0202465D01*
X0078879Y0202605D01*
X0078808Y0202747D01*
X0078740Y0202890D01*
X0078676Y0203035D01*
X0078616Y0203181D01*
X0078560Y0203329D01*
X0078507Y0203478D01*
X0078458Y0203629D01*
X0078413Y0203781D01*
X0078372Y0203934D01*
X0078334Y0204087D01*
X0078301Y0204242D01*
X0078271Y0204398D01*
X0078245Y0204554D01*
X0078224Y0204711D01*
X0078206Y0204868D01*
X0078192Y0205026D01*
X0078182Y0205184D01*
X0078176Y0205342D01*
X0078174Y0205500D01*
D12*
X0098473Y0205500D03*
X0108473Y0205500D03*
X0118473Y0205500D03*
X0128473Y0205500D03*
X0138473Y0205500D03*
X0148473Y0205500D03*
X0158473Y0205500D03*
X0168473Y0205500D03*
X0178473Y0205500D03*
X0204473Y0205500D03*
X0214473Y0205500D03*
X0224473Y0205500D03*
X0234473Y0205500D03*
X0244473Y0205500D03*
X0254473Y0205500D03*
X0264473Y0205500D03*
X0275473Y0125500D03*
X0285473Y0125500D03*
X0284473Y0115500D03*
X0274473Y0115500D03*
X0275473Y0105500D03*
X0285473Y0105500D03*
X0274473Y0015500D03*
X0264473Y0015500D03*
X0254473Y0015500D03*
X0244473Y0015500D03*
X0234473Y0015500D03*
X0224473Y0015500D03*
X0204473Y0015500D03*
X0194473Y0015500D03*
X0184473Y0015500D03*
X0174473Y0015500D03*
X0164473Y0015500D03*
X0154473Y0015500D03*
X0083973Y0070500D03*
X0083973Y0080500D03*
X0083973Y0090500D03*
X0091973Y0161000D03*
X0101973Y0160000D03*
X0111973Y0161000D03*
X0101973Y0170000D03*
X0091973Y0171000D03*
X0111973Y0171000D03*
D13*
X0188473Y0205500D03*
X0274473Y0205500D03*
D14*
X0031473Y0171937D03*
X0031473Y0139063D03*
D15*
X0042103Y0150382D03*
X0042103Y0152941D03*
X0042103Y0155500D03*
X0042103Y0158059D03*
X0042103Y0160618D03*
D16*
X0184139Y0101248D03*
X0184139Y0098098D03*
X0184139Y0094949D03*
X0184139Y0091799D03*
X0184139Y0088650D03*
X0184139Y0085500D03*
X0184139Y0082350D03*
X0184139Y0079201D03*
X0184139Y0076051D03*
X0184139Y0072902D03*
X0184139Y0069752D03*
X0229808Y0069752D03*
X0229808Y0072902D03*
X0229808Y0076051D03*
X0229808Y0079201D03*
X0229808Y0082350D03*
X0229808Y0085500D03*
X0229808Y0088650D03*
X0229808Y0091799D03*
X0229808Y0094949D03*
X0229808Y0098098D03*
X0229808Y0101248D03*
D17*
X0222721Y0108335D03*
X0219572Y0108335D03*
X0216422Y0108335D03*
X0213273Y0108335D03*
X0210123Y0108335D03*
X0206973Y0108335D03*
X0203824Y0108335D03*
X0200674Y0108335D03*
X0197525Y0108335D03*
X0194375Y0108335D03*
X0191225Y0108335D03*
X0191225Y0062665D03*
X0194375Y0062665D03*
X0197525Y0062665D03*
X0200674Y0062665D03*
X0203824Y0062665D03*
X0206973Y0062665D03*
X0210123Y0062665D03*
X0213273Y0062665D03*
X0216422Y0062665D03*
X0219572Y0062665D03*
X0222721Y0062665D03*
D18*
X0133873Y0116976D03*
X0133873Y0120126D03*
X0133873Y0123276D03*
X0133873Y0126425D03*
X0133873Y0129575D03*
X0133873Y0132724D03*
X0133873Y0135874D03*
X0133873Y0139024D03*
X0100073Y0139024D03*
X0100073Y0135874D03*
X0100073Y0132724D03*
X0100073Y0129575D03*
X0100073Y0126425D03*
X0100073Y0123276D03*
X0100073Y0120126D03*
X0100073Y0116976D03*
D19*
X0105950Y0111100D03*
X0109099Y0111100D03*
X0112249Y0111100D03*
X0115399Y0111100D03*
X0118548Y0111100D03*
X0121698Y0111100D03*
X0124847Y0111100D03*
X0127997Y0111100D03*
X0127997Y0144900D03*
X0124847Y0144900D03*
X0121698Y0144900D03*
X0118548Y0144900D03*
X0115399Y0144900D03*
X0112249Y0144900D03*
X0109099Y0144900D03*
X0105950Y0144900D03*
D20*
X0070320Y0160500D03*
X0063627Y0160500D03*
X0068627Y0038000D03*
X0075320Y0038000D03*
D21*
X0075973Y0028000D03*
X0067973Y0028000D03*
X0065973Y0063000D03*
X0057973Y0063000D03*
X0057973Y0073000D03*
X0065973Y0073000D03*
X0065973Y0088000D03*
X0057973Y0088000D03*
X0048223Y0088000D03*
X0040723Y0088000D03*
X0040723Y0098000D03*
X0048223Y0098000D03*
X0057973Y0098000D03*
X0065973Y0098000D03*
X0080473Y0105500D03*
X0088473Y0105500D03*
X0065973Y0113000D03*
X0057973Y0113000D03*
X0048223Y0113000D03*
X0040723Y0113000D03*
X0040723Y0123000D03*
X0048223Y0123000D03*
X0057973Y0123000D03*
X0065973Y0123000D03*
X0080473Y0125500D03*
X0088473Y0125500D03*
X0070973Y0140500D03*
X0062973Y0140500D03*
X0062973Y0150500D03*
X0070973Y0150500D03*
X0151473Y0144000D03*
X0159473Y0144000D03*
X0162973Y0129500D03*
X0170973Y0129500D03*
X0170973Y0119000D03*
X0162973Y0119000D03*
X0201973Y0123500D03*
X0209973Y0123500D03*
X0207973Y0045500D03*
X0215973Y0045500D03*
X0048223Y0073000D03*
X0040723Y0073000D03*
D22*
X0080143Y0115500D03*
X0088804Y0115500D03*
D23*
X0151973Y0116626D03*
X0151973Y0132374D03*
X0247473Y0105874D03*
X0247473Y0090126D03*
D24*
X0259973Y0093000D03*
X0259973Y0085000D03*
X0244473Y0076000D03*
X0244473Y0068000D03*
X0259973Y0103000D03*
X0259973Y0111000D03*
X0251973Y0124000D03*
X0251973Y0132000D03*
X0241973Y0132000D03*
X0241973Y0124000D03*
X0254473Y0146500D03*
X0254473Y0154500D03*
X0169473Y0090500D03*
X0169473Y0082500D03*
X0169473Y0071500D03*
X0169473Y0063500D03*
X0151973Y0091500D03*
X0151973Y0099500D03*
X0139473Y0099500D03*
X0139473Y0091500D03*
X0127473Y0091500D03*
X0127473Y0099500D03*
X0101973Y0099500D03*
X0101973Y0091500D03*
X0091973Y0057000D03*
X0091973Y0049000D03*
X0129473Y0156500D03*
X0129473Y0164500D03*
X0139473Y0164500D03*
X0149473Y0164500D03*
X0149473Y0156500D03*
X0139473Y0156500D03*
D25*
X0104773Y0075600D03*
X0104773Y0066500D03*
X0104773Y0057400D03*
D26*
X0129174Y0066500D03*
D27*
X0264473Y0146000D03*
X0264473Y0155000D03*
D28*
X0059473Y0192500D03*
X0059473Y0207500D03*
X0039473Y0207500D03*
X0039473Y0192500D03*
D29*
X0068973Y0185500D03*
X0074973Y0185500D03*
D30*
X0094473Y0025500D03*
X0094473Y0015500D03*
X0104473Y0015500D03*
X0114473Y0015500D03*
X0114473Y0025500D03*
X0104473Y0025500D03*
X0124473Y0025500D03*
X0134473Y0025500D03*
X0134473Y0015500D03*
X0124473Y0015500D03*
D31*
X0043387Y0025657D02*
X0034017Y0025657D01*
X0034017Y0045343D02*
X0043387Y0045343D01*
D32*
X0070143Y0053000D03*
X0078804Y0049260D03*
X0078804Y0056740D03*
D33*
X0084973Y0038000D03*
X0093973Y0038000D03*
D34*
X0114473Y0091500D03*
X0114473Y0099500D03*
D35*
X0113892Y0098984D02*
X0106332Y0098984D01*
X0106332Y0100182D02*
X0110019Y0100182D01*
X0110019Y0100081D02*
X0113892Y0100081D01*
X0113892Y0098919D01*
X0110019Y0098919D01*
X0110019Y0096927D01*
X0110128Y0096520D01*
X0110197Y0096400D01*
X0109496Y0096400D01*
X0108614Y0096035D01*
X0107939Y0095359D01*
X0107573Y0094477D01*
X0107573Y0087494D01*
X0104939Y0084859D01*
X0104573Y0083977D01*
X0104573Y0076200D01*
X0104173Y0076200D01*
X0104173Y0075000D01*
X0098773Y0075000D01*
X0098773Y0072989D01*
X0098882Y0072582D01*
X0099093Y0072218D01*
X0099391Y0071920D01*
X0099756Y0071709D01*
X0100163Y0071600D01*
X0104173Y0071600D01*
X0104173Y0075000D01*
X0104573Y0075000D01*
X0104573Y0070700D01*
X0099628Y0070700D01*
X0098828Y0069900D01*
X0098382Y0069900D01*
X0094899Y0073382D01*
X0093650Y0073900D01*
X0088351Y0073900D01*
X0087089Y0075163D01*
X0086274Y0075500D01*
X0087089Y0075837D01*
X0088636Y0077384D01*
X0089473Y0079406D01*
X0089473Y0081594D01*
X0088636Y0083615D01*
X0087089Y0085163D01*
X0086274Y0085500D01*
X0087089Y0085837D01*
X0088636Y0087384D01*
X0089473Y0089406D01*
X0089473Y0091192D01*
X0090588Y0092307D01*
X0091049Y0092745D01*
X0091066Y0092784D01*
X0091096Y0092814D01*
X0091339Y0093401D01*
X0091596Y0093982D01*
X0091597Y0094025D01*
X0091613Y0094064D01*
X0091613Y0094699D01*
X0091774Y0101334D01*
X0092636Y0102195D01*
X0092636Y0108805D01*
X0091759Y0109681D01*
X0091703Y0111731D01*
X0091912Y0111731D01*
X0092966Y0112786D01*
X0092966Y0118214D01*
X0091912Y0119268D01*
X0085696Y0119268D01*
X0084642Y0118214D01*
X0084642Y0112786D01*
X0084877Y0112550D01*
X0084963Y0109456D01*
X0084311Y0108805D01*
X0084311Y0108703D01*
X0084116Y0109041D01*
X0083818Y0109339D01*
X0083453Y0109550D01*
X0083046Y0109659D01*
X0081054Y0109659D01*
X0081054Y0106081D01*
X0079892Y0106081D01*
X0079892Y0104919D01*
X0076511Y0104919D01*
X0076511Y0102730D01*
X0076620Y0102323D01*
X0076831Y0101959D01*
X0077129Y0101661D01*
X0077494Y0101450D01*
X0077900Y0101341D01*
X0079892Y0101341D01*
X0079892Y0104919D01*
X0081054Y0104919D01*
X0081054Y0101341D01*
X0083046Y0101341D01*
X0083453Y0101450D01*
X0083818Y0101661D01*
X0084116Y0101959D01*
X0084311Y0102297D01*
X0084311Y0102195D01*
X0084976Y0101530D01*
X0084847Y0096182D01*
X0084665Y0096000D01*
X0082879Y0096000D01*
X0080858Y0095163D01*
X0079311Y0093615D01*
X0078473Y0091594D01*
X0078473Y0089406D01*
X0079311Y0087384D01*
X0080858Y0085837D01*
X0081672Y0085500D01*
X0080858Y0085163D01*
X0079531Y0083836D01*
X0073333Y0090035D01*
X0072451Y0090400D01*
X0070136Y0090400D01*
X0070136Y0091305D01*
X0069081Y0092359D01*
X0068373Y0092359D01*
X0068373Y0093641D01*
X0069081Y0093641D01*
X0070136Y0094695D01*
X0070136Y0101305D01*
X0069081Y0102359D01*
X0062866Y0102359D01*
X0061973Y0101467D01*
X0061081Y0102359D01*
X0054866Y0102359D01*
X0053811Y0101305D01*
X0053811Y0100400D01*
X0052386Y0100400D01*
X0052386Y0101305D01*
X0051331Y0102359D01*
X0045116Y0102359D01*
X0044473Y0101717D01*
X0043831Y0102359D01*
X0042762Y0102359D01*
X0042762Y0103654D01*
X0042262Y0104863D01*
X0041336Y0105788D01*
X0040128Y0106289D01*
X0038819Y0106289D01*
X0037610Y0105788D01*
X0036685Y0104863D01*
X0036184Y0103654D01*
X0036184Y0102346D01*
X0036600Y0101343D01*
X0036561Y0101305D01*
X0036561Y0094695D01*
X0037616Y0093641D01*
X0043831Y0093641D01*
X0044473Y0094283D01*
X0045116Y0093641D01*
X0051331Y0093641D01*
X0052386Y0094695D01*
X0052386Y0095600D01*
X0053811Y0095600D01*
X0053811Y0094695D01*
X0054866Y0093641D01*
X0061081Y0093641D01*
X0061973Y0094533D01*
X0062866Y0093641D01*
X0063573Y0093641D01*
X0063573Y0092359D01*
X0062866Y0092359D01*
X0061973Y0091467D01*
X0061081Y0092359D01*
X0054866Y0092359D01*
X0053811Y0091305D01*
X0053811Y0090400D01*
X0052386Y0090400D01*
X0052386Y0091305D01*
X0051331Y0092359D01*
X0045116Y0092359D01*
X0044473Y0091717D01*
X0043831Y0092359D01*
X0037616Y0092359D01*
X0036561Y0091305D01*
X0036561Y0084695D01*
X0036600Y0084657D01*
X0036184Y0083654D01*
X0036184Y0082346D01*
X0036685Y0081137D01*
X0037610Y0080212D01*
X0038819Y0079711D01*
X0040128Y0079711D01*
X0041336Y0080212D01*
X0042262Y0081137D01*
X0042762Y0082346D01*
X0042762Y0083641D01*
X0043831Y0083641D01*
X0044473Y0084283D01*
X0045116Y0083641D01*
X0051331Y0083641D01*
X0052386Y0084695D01*
X0052386Y0085600D01*
X0053811Y0085600D01*
X0053811Y0084695D01*
X0054866Y0083641D01*
X0061081Y0083641D01*
X0061973Y0084533D01*
X0062866Y0083641D01*
X0063573Y0083641D01*
X0063573Y0077359D01*
X0062866Y0077359D01*
X0061973Y0076467D01*
X0061081Y0077359D01*
X0054866Y0077359D01*
X0053811Y0076305D01*
X0053811Y0075400D01*
X0052386Y0075400D01*
X0052386Y0076305D01*
X0051331Y0077359D01*
X0045116Y0077359D01*
X0044332Y0076575D01*
X0044068Y0076839D01*
X0043703Y0077050D01*
X0043296Y0077159D01*
X0041304Y0077159D01*
X0041304Y0073581D01*
X0040142Y0073581D01*
X0040142Y0072419D01*
X0036761Y0072419D01*
X0036761Y0070230D01*
X0036870Y0069823D01*
X0037081Y0069459D01*
X0037379Y0069161D01*
X0037744Y0068950D01*
X0038150Y0068841D01*
X0040142Y0068841D01*
X0040142Y0072419D01*
X0041304Y0072419D01*
X0041304Y0068841D01*
X0043296Y0068841D01*
X0043703Y0068950D01*
X0044068Y0069161D01*
X0044332Y0069425D01*
X0045116Y0068641D01*
X0051331Y0068641D01*
X0052386Y0069695D01*
X0052386Y0070600D01*
X0053811Y0070600D01*
X0053811Y0069695D01*
X0054866Y0068641D01*
X0061081Y0068641D01*
X0061973Y0069533D01*
X0062866Y0068641D01*
X0063573Y0068641D01*
X0063573Y0067359D01*
X0062866Y0067359D01*
X0061811Y0066305D01*
X0061811Y0066203D01*
X0061616Y0066541D01*
X0061318Y0066839D01*
X0060953Y0067050D01*
X0060546Y0067159D01*
X0058554Y0067159D01*
X0058554Y0063581D01*
X0057392Y0063581D01*
X0057392Y0062419D01*
X0054011Y0062419D01*
X0054011Y0060230D01*
X0054120Y0059823D01*
X0054331Y0059459D01*
X0054629Y0059161D01*
X0054994Y0058950D01*
X0055400Y0058841D01*
X0057392Y0058841D01*
X0057392Y0062419D01*
X0058554Y0062419D01*
X0058554Y0058841D01*
X0060546Y0058841D01*
X0060953Y0058950D01*
X0061318Y0059161D01*
X0061616Y0059459D01*
X0061811Y0059797D01*
X0061811Y0059695D01*
X0062866Y0058641D01*
X0069081Y0058641D01*
X0070136Y0059695D01*
X0070136Y0066305D01*
X0069081Y0067359D01*
X0068373Y0067359D01*
X0068373Y0068641D01*
X0069081Y0068641D01*
X0070136Y0069695D01*
X0070136Y0076305D01*
X0069081Y0077359D01*
X0068373Y0077359D01*
X0068373Y0083641D01*
X0069081Y0083641D01*
X0070136Y0084695D01*
X0070136Y0085600D01*
X0070979Y0085600D01*
X0077439Y0079141D01*
X0078114Y0078465D01*
X0078996Y0078100D01*
X0079014Y0078100D01*
X0079311Y0077384D01*
X0080858Y0075837D01*
X0081672Y0075500D01*
X0080858Y0075163D01*
X0079311Y0073615D01*
X0078473Y0071594D01*
X0078473Y0069406D01*
X0079311Y0067384D01*
X0080858Y0065837D01*
X0082879Y0065000D01*
X0085067Y0065000D01*
X0087089Y0065837D01*
X0088351Y0067100D01*
X0091565Y0067100D01*
X0095047Y0063618D01*
X0096297Y0063100D01*
X0098828Y0063100D01*
X0099628Y0062300D01*
X0104573Y0062300D01*
X0104573Y0061600D01*
X0099628Y0061600D01*
X0098573Y0060546D01*
X0098573Y0060542D01*
X0097947Y0060282D01*
X0096132Y0058467D01*
X0096132Y0059573D01*
X0096023Y0059980D01*
X0095813Y0060345D01*
X0095515Y0060643D01*
X0095150Y0060853D01*
X0094743Y0060962D01*
X0092554Y0060962D01*
X0092554Y0057581D01*
X0091392Y0057581D01*
X0091392Y0056419D01*
X0088359Y0056419D01*
X0088356Y0056426D01*
X0087399Y0057382D01*
X0085159Y0059623D01*
X0083909Y0060140D01*
X0082674Y0060140D01*
X0082306Y0060509D01*
X0075303Y0060509D01*
X0074248Y0059454D01*
X0074248Y0056164D01*
X0073644Y0056768D01*
X0066641Y0056768D01*
X0065587Y0055714D01*
X0065587Y0050286D01*
X0066641Y0049231D01*
X0066743Y0049231D01*
X0066743Y0047154D01*
X0067260Y0045905D01*
X0070412Y0042753D01*
X0065322Y0042753D01*
X0064268Y0041698D01*
X0064268Y0041400D01*
X0058797Y0041400D01*
X0057547Y0040882D01*
X0047440Y0030775D01*
X0047060Y0031155D01*
X0044677Y0032143D01*
X0032727Y0032143D01*
X0030343Y0031155D01*
X0028519Y0029331D01*
X0027532Y0026947D01*
X0027532Y0024368D01*
X0028519Y0021984D01*
X0030343Y0020160D01*
X0032727Y0019172D01*
X0044677Y0019172D01*
X0047060Y0020160D01*
X0048884Y0021984D01*
X0049322Y0023040D01*
X0060882Y0034600D01*
X0064268Y0034600D01*
X0064268Y0034302D01*
X0065322Y0033247D01*
X0071932Y0033247D01*
X0071973Y0033289D01*
X0072015Y0033247D01*
X0078624Y0033247D01*
X0079679Y0034302D01*
X0079679Y0041698D01*
X0078720Y0042657D01*
X0078720Y0043330D01*
X0078202Y0044579D01*
X0077290Y0045491D01*
X0082088Y0045491D01*
X0082573Y0045006D01*
X0082573Y0040981D01*
X0082259Y0040981D01*
X0081205Y0039927D01*
X0081205Y0036073D01*
X0082259Y0035019D01*
X0082573Y0035019D01*
X0082573Y0032994D01*
X0080136Y0030556D01*
X0080136Y0031305D01*
X0079081Y0032359D01*
X0072866Y0032359D01*
X0071811Y0031305D01*
X0071811Y0031203D01*
X0071616Y0031541D01*
X0071318Y0031839D01*
X0070953Y0032050D01*
X0070546Y0032159D01*
X0068554Y0032159D01*
X0068554Y0028581D01*
X0067392Y0028581D01*
X0067392Y0027419D01*
X0064011Y0027419D01*
X0064011Y0025230D01*
X0064120Y0024823D01*
X0064331Y0024459D01*
X0064629Y0024161D01*
X0064994Y0023950D01*
X0065400Y0023841D01*
X0067392Y0023841D01*
X0067392Y0027419D01*
X0068554Y0027419D01*
X0068554Y0023841D01*
X0070546Y0023841D01*
X0070953Y0023950D01*
X0071318Y0024161D01*
X0071616Y0024459D01*
X0071811Y0024797D01*
X0071811Y0024695D01*
X0072866Y0023641D01*
X0079081Y0023641D01*
X0080136Y0024695D01*
X0080136Y0025600D01*
X0081451Y0025600D01*
X0082333Y0025965D01*
X0083008Y0026641D01*
X0087008Y0030641D01*
X0087373Y0031523D01*
X0087373Y0035019D01*
X0087687Y0035019D01*
X0088742Y0036073D01*
X0088742Y0039927D01*
X0087687Y0040981D01*
X0087373Y0040981D01*
X0087373Y0045860D01*
X0087610Y0045860D01*
X0087649Y0045857D01*
X0088573Y0044933D01*
X0088573Y0044824D01*
X0089091Y0043574D01*
X0090591Y0042074D01*
X0091547Y0041118D01*
X0091573Y0041107D01*
X0091573Y0040981D01*
X0091259Y0040981D01*
X0090205Y0039927D01*
X0090205Y0036073D01*
X0091259Y0035019D01*
X0096687Y0035019D01*
X0097742Y0036073D01*
X0097742Y0037923D01*
X0104047Y0031618D01*
X0105297Y0031100D01*
X0154065Y0031100D01*
X0156073Y0029092D01*
X0156073Y0020790D01*
X0155567Y0021000D01*
X0153379Y0021000D01*
X0151358Y0020163D01*
X0149811Y0018615D01*
X0148973Y0016594D01*
X0148973Y0014406D01*
X0149811Y0012384D01*
X0151358Y0010837D01*
X0153379Y0010000D01*
X0155567Y0010000D01*
X0157589Y0010837D01*
X0159136Y0012384D01*
X0159473Y0013199D01*
X0159811Y0012384D01*
X0161358Y0010837D01*
X0163379Y0010000D01*
X0165567Y0010000D01*
X0167589Y0010837D01*
X0169136Y0012384D01*
X0169473Y0013199D01*
X0169811Y0012384D01*
X0171358Y0010837D01*
X0173379Y0010000D01*
X0175567Y0010000D01*
X0177589Y0010837D01*
X0179136Y0012384D01*
X0179574Y0013442D01*
X0179940Y0012722D01*
X0180431Y0012047D01*
X0181021Y0011457D01*
X0181696Y0010967D01*
X0182439Y0010588D01*
X0183232Y0010330D01*
X0184056Y0010200D01*
X0184073Y0010200D01*
X0184073Y0015100D01*
X0184873Y0015100D01*
X0184873Y0010200D01*
X0184890Y0010200D01*
X0185714Y0010330D01*
X0186508Y0010588D01*
X0187251Y0010967D01*
X0187926Y0011457D01*
X0188516Y0012047D01*
X0189006Y0012722D01*
X0189385Y0013466D01*
X0189473Y0013737D01*
X0189562Y0013466D01*
X0189940Y0012722D01*
X0190431Y0012047D01*
X0191021Y0011457D01*
X0191696Y0010967D01*
X0192439Y0010588D01*
X0193232Y0010330D01*
X0194056Y0010200D01*
X0194073Y0010200D01*
X0194073Y0015100D01*
X0189173Y0015100D01*
X0184873Y0015100D01*
X0184873Y0015900D01*
X0184073Y0015900D01*
X0184073Y0020800D01*
X0184056Y0020800D01*
X0183232Y0020669D01*
X0182439Y0020412D01*
X0181696Y0020033D01*
X0181021Y0019543D01*
X0180431Y0018953D01*
X0179940Y0018278D01*
X0179574Y0017558D01*
X0179136Y0018615D01*
X0177873Y0019878D01*
X0177873Y0021176D01*
X0177356Y0022426D01*
X0172873Y0026908D01*
X0172873Y0051176D01*
X0172356Y0052426D01*
X0163373Y0061408D01*
X0163373Y0084506D01*
X0164833Y0085965D01*
X0165508Y0086641D01*
X0165613Y0086894D01*
X0166169Y0086338D01*
X0166270Y0086338D01*
X0165932Y0086143D01*
X0165634Y0085845D01*
X0165423Y0085480D01*
X0165314Y0085073D01*
X0165314Y0083081D01*
X0168892Y0083081D01*
X0168892Y0081919D01*
X0165314Y0081919D01*
X0165314Y0079927D01*
X0165423Y0079520D01*
X0165634Y0079155D01*
X0165932Y0078857D01*
X0166297Y0078647D01*
X0166704Y0078538D01*
X0168892Y0078538D01*
X0168892Y0081919D01*
X0170054Y0081919D01*
X0170054Y0078538D01*
X0172243Y0078538D01*
X0172650Y0078647D01*
X0173015Y0078857D01*
X0173313Y0079155D01*
X0173523Y0079520D01*
X0173632Y0079927D01*
X0173632Y0081919D01*
X0170055Y0081919D01*
X0170055Y0083081D01*
X0173632Y0083081D01*
X0173632Y0085073D01*
X0173523Y0085480D01*
X0173313Y0085845D01*
X0173015Y0086143D01*
X0172677Y0086338D01*
X0172778Y0086338D01*
X0172803Y0086362D01*
X0175047Y0084118D01*
X0176297Y0083600D01*
X0177650Y0083600D01*
X0178899Y0084118D01*
X0179586Y0084804D01*
X0179586Y0084435D01*
X0179464Y0084385D01*
X0177114Y0082035D01*
X0176439Y0081359D01*
X0176073Y0080477D01*
X0176073Y0075994D01*
X0174979Y0074900D01*
X0173540Y0074900D01*
X0172778Y0075662D01*
X0166169Y0075662D01*
X0165114Y0074608D01*
X0165114Y0068392D01*
X0166169Y0067338D01*
X0166270Y0067338D01*
X0165932Y0067143D01*
X0165634Y0066845D01*
X0165423Y0066480D01*
X0165314Y0066073D01*
X0165314Y0064081D01*
X0168892Y0064081D01*
X0168892Y0062919D01*
X0165314Y0062919D01*
X0165314Y0060927D01*
X0165423Y0060520D01*
X0165634Y0060155D01*
X0165932Y0059857D01*
X0166297Y0059647D01*
X0166704Y0059538D01*
X0168892Y0059538D01*
X0168892Y0062919D01*
X0170054Y0062919D01*
X0170054Y0059538D01*
X0172243Y0059538D01*
X0172650Y0059647D01*
X0173015Y0059857D01*
X0173313Y0060155D01*
X0173523Y0060520D01*
X0173632Y0060927D01*
X0173632Y0062919D01*
X0170055Y0062919D01*
X0170055Y0064081D01*
X0173632Y0064081D01*
X0173632Y0066073D01*
X0173523Y0066480D01*
X0173313Y0066845D01*
X0173015Y0067143D01*
X0172677Y0067338D01*
X0172778Y0067338D01*
X0173832Y0068392D01*
X0173832Y0070100D01*
X0176073Y0070100D01*
X0176073Y0063023D01*
X0176439Y0062141D01*
X0185573Y0053006D01*
X0185573Y0050104D01*
X0185128Y0050289D01*
X0183819Y0050289D01*
X0182610Y0049788D01*
X0181685Y0048863D01*
X0181184Y0047654D01*
X0181184Y0047289D01*
X0180819Y0047289D01*
X0179610Y0046788D01*
X0178685Y0045863D01*
X0178184Y0044654D01*
X0178184Y0043346D01*
X0178685Y0042137D01*
X0179610Y0041212D01*
X0180573Y0040813D01*
X0180573Y0037994D01*
X0179368Y0036789D01*
X0178819Y0036789D01*
X0177610Y0036288D01*
X0176685Y0035363D01*
X0176184Y0034154D01*
X0176184Y0032846D01*
X0176685Y0031637D01*
X0177610Y0030712D01*
X0178819Y0030211D01*
X0180128Y0030211D01*
X0181336Y0030712D01*
X0182262Y0031637D01*
X0182762Y0032846D01*
X0182762Y0033395D01*
X0184723Y0035356D01*
X0186573Y0033506D01*
X0186573Y0033251D01*
X0186185Y0032863D01*
X0185684Y0031654D01*
X0185684Y0030346D01*
X0186185Y0029137D01*
X0187110Y0028212D01*
X0188319Y0027711D01*
X0189628Y0027711D01*
X0190836Y0028212D01*
X0191762Y0029137D01*
X0192262Y0030346D01*
X0192262Y0031317D01*
X0199439Y0024141D01*
X0200114Y0023465D01*
X0200996Y0023100D01*
X0218479Y0023100D01*
X0221399Y0020180D01*
X0221358Y0020163D01*
X0219811Y0018615D01*
X0218973Y0016594D01*
X0218973Y0014406D01*
X0219811Y0012384D01*
X0221358Y0010837D01*
X0223379Y0010000D01*
X0225567Y0010000D01*
X0227589Y0010837D01*
X0229136Y0012384D01*
X0229473Y0013199D01*
X0229811Y0012384D01*
X0231358Y0010837D01*
X0233379Y0010000D01*
X0235567Y0010000D01*
X0237589Y0010837D01*
X0239136Y0012384D01*
X0239473Y0013199D01*
X0239811Y0012384D01*
X0241358Y0010837D01*
X0243379Y0010000D01*
X0245567Y0010000D01*
X0247589Y0010837D01*
X0249136Y0012384D01*
X0249473Y0013199D01*
X0249811Y0012384D01*
X0251358Y0010837D01*
X0253379Y0010000D01*
X0255567Y0010000D01*
X0257589Y0010837D01*
X0259136Y0012384D01*
X0259473Y0013199D01*
X0259811Y0012384D01*
X0261358Y0010837D01*
X0263379Y0010000D01*
X0265567Y0010000D01*
X0267589Y0010837D01*
X0269136Y0012384D01*
X0269473Y0013199D01*
X0269811Y0012384D01*
X0271358Y0010837D01*
X0273379Y0010000D01*
X0275567Y0010000D01*
X0277589Y0010837D01*
X0279136Y0012384D01*
X0279973Y0014406D01*
X0279973Y0016594D01*
X0279136Y0018615D01*
X0277589Y0020163D01*
X0276873Y0020459D01*
X0276873Y0020977D01*
X0276508Y0021859D01*
X0275833Y0022535D01*
X0258333Y0040035D01*
X0257451Y0040400D01*
X0207467Y0040400D01*
X0206726Y0041141D01*
X0211081Y0041141D01*
X0212136Y0042195D01*
X0212136Y0042297D01*
X0212331Y0041959D01*
X0212629Y0041661D01*
X0212994Y0041450D01*
X0213400Y0041341D01*
X0215392Y0041341D01*
X0215392Y0044919D01*
X0216554Y0044919D01*
X0216554Y0041341D01*
X0218546Y0041341D01*
X0218953Y0041450D01*
X0219318Y0041661D01*
X0219616Y0041959D01*
X0219826Y0042323D01*
X0219936Y0042730D01*
X0219936Y0044919D01*
X0216555Y0044919D01*
X0216555Y0046081D01*
X0219936Y0046081D01*
X0219936Y0048270D01*
X0219826Y0048677D01*
X0219616Y0049041D01*
X0219318Y0049339D01*
X0218953Y0049550D01*
X0218546Y0049659D01*
X0216554Y0049659D01*
X0216554Y0046081D01*
X0215392Y0046081D01*
X0215392Y0049659D01*
X0213400Y0049659D01*
X0212994Y0049550D01*
X0212629Y0049339D01*
X0212331Y0049041D01*
X0212136Y0048703D01*
X0212136Y0048805D01*
X0211081Y0049859D01*
X0205873Y0049859D01*
X0205873Y0057027D01*
X0206224Y0057873D01*
X0206224Y0058113D01*
X0206973Y0058113D01*
X0206973Y0062665D01*
X0206973Y0062665D01*
X0206973Y0058113D01*
X0207723Y0058113D01*
X0207723Y0057901D01*
X0207685Y0057863D01*
X0207184Y0056654D01*
X0207184Y0055346D01*
X0207685Y0054137D01*
X0208610Y0053212D01*
X0209819Y0052711D01*
X0211128Y0052711D01*
X0212336Y0053212D01*
X0212473Y0053349D01*
X0212610Y0053212D01*
X0213819Y0052711D01*
X0215128Y0052711D01*
X0216336Y0053212D01*
X0217262Y0054137D01*
X0217762Y0055346D01*
X0217762Y0056654D01*
X0217262Y0057863D01*
X0217212Y0057913D01*
X0224451Y0057913D01*
X0225506Y0058967D01*
X0225506Y0066364D01*
X0225121Y0066748D01*
X0225121Y0067403D01*
X0225244Y0067352D01*
X0225725Y0067352D01*
X0226110Y0066968D01*
X0229198Y0066968D01*
X0230573Y0065592D01*
X0230573Y0059523D01*
X0230939Y0058641D01*
X0231614Y0057965D01*
X0236114Y0053465D01*
X0236996Y0053100D01*
X0277951Y0053100D01*
X0278833Y0053465D01*
X0279508Y0054141D01*
X0283833Y0058465D01*
X0284508Y0059141D01*
X0284873Y0060023D01*
X0284873Y0093506D01*
X0292173Y0100806D01*
X0292173Y0038075D01*
X0291339Y0040088D01*
X0289061Y0042366D01*
X0286084Y0043599D01*
X0282862Y0043599D01*
X0279885Y0042366D01*
X0277607Y0040088D01*
X0276374Y0037111D01*
X0276374Y0033889D01*
X0277607Y0030912D01*
X0279885Y0028634D01*
X0282862Y0027401D01*
X0286084Y0027401D01*
X0289061Y0028634D01*
X0291339Y0030912D01*
X0292173Y0032925D01*
X0292173Y0026453D01*
X0283521Y0017800D01*
X0282173Y0016453D01*
X0282173Y0009437D01*
X0282142Y0009118D01*
X0281897Y0008528D01*
X0281446Y0008076D01*
X0280856Y0007831D01*
X0280536Y0007800D01*
X0082048Y0007800D01*
X0084061Y0008634D01*
X0086339Y0010912D01*
X0087573Y0013889D01*
X0087573Y0017111D01*
X0086339Y0020088D01*
X0084061Y0022366D01*
X0081084Y0023599D01*
X0077862Y0023599D01*
X0074885Y0022366D01*
X0072607Y0020088D01*
X0071374Y0017111D01*
X0071374Y0013889D01*
X0072607Y0010912D01*
X0074885Y0008634D01*
X0076899Y0007800D01*
X0028410Y0007800D01*
X0028091Y0007831D01*
X0027501Y0008076D01*
X0027049Y0008528D01*
X0026805Y0009118D01*
X0026773Y0009437D01*
X0026773Y0135275D01*
X0026875Y0135135D01*
X0027546Y0134464D01*
X0028313Y0133906D01*
X0029159Y0133476D01*
X0030061Y0133182D01*
X0030873Y0133054D01*
X0030873Y0138463D01*
X0032073Y0138463D01*
X0032073Y0133054D01*
X0032885Y0133182D01*
X0033788Y0133476D01*
X0034633Y0133906D01*
X0035401Y0134464D01*
X0036072Y0135135D01*
X0036630Y0135903D01*
X0037061Y0136749D01*
X0037354Y0137651D01*
X0037483Y0138463D01*
X0032073Y0138463D01*
X0032073Y0139663D01*
X0030873Y0139663D01*
X0030873Y0145072D01*
X0030061Y0144944D01*
X0029159Y0144650D01*
X0028313Y0144220D01*
X0027546Y0143662D01*
X0026875Y0142991D01*
X0026773Y0142851D01*
X0026773Y0168149D01*
X0026875Y0168009D01*
X0027546Y0167338D01*
X0028313Y0166780D01*
X0029159Y0166350D01*
X0030061Y0166056D01*
X0030873Y0165928D01*
X0030873Y0171337D01*
X0032073Y0171337D01*
X0032073Y0165928D01*
X0032885Y0166056D01*
X0033788Y0166350D01*
X0034633Y0166780D01*
X0035401Y0167338D01*
X0036072Y0168009D01*
X0036630Y0168777D01*
X0037061Y0169623D01*
X0037354Y0170525D01*
X0037483Y0171337D01*
X0032073Y0171337D01*
X0032073Y0172537D01*
X0030873Y0172537D01*
X0030873Y0177946D01*
X0030061Y0177818D01*
X0029159Y0177524D01*
X0028313Y0177094D01*
X0027546Y0176536D01*
X0026875Y0175865D01*
X0026773Y0175725D01*
X0026773Y0211563D01*
X0026805Y0211882D01*
X0027049Y0212472D01*
X0027501Y0212924D01*
X0028091Y0213169D01*
X0028410Y0213200D01*
X0081899Y0213200D01*
X0079885Y0212366D01*
X0077607Y0210088D01*
X0076374Y0207111D01*
X0076374Y0203889D01*
X0077607Y0200912D01*
X0079885Y0198634D01*
X0082862Y0197401D01*
X0086084Y0197401D01*
X0089061Y0198634D01*
X0091339Y0200912D01*
X0092573Y0203889D01*
X0092573Y0207111D01*
X0091339Y0210088D01*
X0089061Y0212366D01*
X0087048Y0213200D01*
X0277521Y0213200D01*
X0282173Y0208547D01*
X0282173Y0163547D01*
X0283521Y0162200D01*
X0292173Y0153547D01*
X0292173Y0148075D01*
X0291339Y0150088D01*
X0289061Y0152366D01*
X0286084Y0153599D01*
X0282862Y0153599D01*
X0279885Y0152366D01*
X0277607Y0150088D01*
X0276374Y0147111D01*
X0276374Y0143889D01*
X0277607Y0140912D01*
X0279885Y0138634D01*
X0282862Y0137401D01*
X0286084Y0137401D01*
X0289061Y0138634D01*
X0291339Y0140912D01*
X0292173Y0142925D01*
X0292173Y0113694D01*
X0289973Y0115894D01*
X0289973Y0116594D01*
X0289136Y0118615D01*
X0287589Y0120163D01*
X0287274Y0120293D01*
X0288589Y0120837D01*
X0290136Y0122384D01*
X0290973Y0124406D01*
X0290973Y0126594D01*
X0290136Y0128615D01*
X0288589Y0130163D01*
X0286567Y0131000D01*
X0284379Y0131000D01*
X0283604Y0130679D01*
X0267454Y0146444D01*
X0267454Y0148714D01*
X0266400Y0149768D01*
X0262547Y0149768D01*
X0261492Y0148714D01*
X0261492Y0148592D01*
X0261290Y0148794D01*
X0261235Y0148817D01*
X0261191Y0148857D01*
X0260796Y0148999D01*
X0260407Y0149160D01*
X0260348Y0149160D01*
X0260293Y0149180D01*
X0259873Y0149160D01*
X0259453Y0149160D01*
X0259398Y0149137D01*
X0258832Y0149110D01*
X0258832Y0149608D01*
X0257940Y0150500D01*
X0258832Y0151392D01*
X0258832Y0151890D01*
X0259398Y0151863D01*
X0259453Y0151840D01*
X0259873Y0151840D01*
X0260293Y0151820D01*
X0260348Y0151840D01*
X0260407Y0151840D01*
X0260796Y0152001D01*
X0261191Y0152143D01*
X0261235Y0152183D01*
X0261290Y0152206D01*
X0261492Y0152408D01*
X0261492Y0152286D01*
X0262547Y0151231D01*
X0266400Y0151231D01*
X0267454Y0152286D01*
X0267454Y0157714D01*
X0266400Y0158768D01*
X0262547Y0158768D01*
X0261492Y0157714D01*
X0261492Y0157400D01*
X0260212Y0157400D01*
X0259330Y0157035D01*
X0258984Y0156688D01*
X0258832Y0156695D01*
X0258832Y0157608D01*
X0257778Y0158662D01*
X0251169Y0158662D01*
X0250114Y0157608D01*
X0250114Y0156706D01*
X0248955Y0156653D01*
X0248628Y0156789D01*
X0247319Y0156789D01*
X0246110Y0156288D01*
X0245185Y0155363D01*
X0244684Y0154154D01*
X0244684Y0152846D01*
X0245185Y0151637D01*
X0246110Y0150712D01*
X0247319Y0150211D01*
X0248628Y0150211D01*
X0249836Y0150712D01*
X0250316Y0151191D01*
X0251006Y0150500D01*
X0250114Y0149608D01*
X0250114Y0143392D01*
X0251169Y0142338D01*
X0257778Y0142338D01*
X0258832Y0143392D01*
X0258832Y0144305D01*
X0258984Y0144312D01*
X0259330Y0143965D01*
X0260212Y0143600D01*
X0261492Y0143600D01*
X0261492Y0143286D01*
X0262547Y0142231D01*
X0264898Y0142231D01*
X0276403Y0131000D01*
X0274379Y0131000D01*
X0272358Y0130163D01*
X0270811Y0128615D01*
X0269973Y0126594D01*
X0269973Y0124406D01*
X0270811Y0122384D01*
X0272358Y0120837D01*
X0272672Y0120707D01*
X0271358Y0120163D01*
X0269811Y0118615D01*
X0268973Y0116594D01*
X0268973Y0114894D01*
X0267614Y0113535D01*
X0266939Y0112859D01*
X0266573Y0111977D01*
X0266573Y0102523D01*
X0266939Y0101641D01*
X0275073Y0093506D01*
X0275073Y0063494D01*
X0274479Y0062900D01*
X0240967Y0062900D01*
X0240373Y0063494D01*
X0240373Y0065207D01*
X0240423Y0065020D01*
X0240634Y0064655D01*
X0240932Y0064357D01*
X0241297Y0064147D01*
X0241704Y0064038D01*
X0243892Y0064038D01*
X0243892Y0067419D01*
X0245054Y0067419D01*
X0245054Y0064038D01*
X0247243Y0064038D01*
X0247650Y0064147D01*
X0248015Y0064357D01*
X0248313Y0064655D01*
X0248523Y0065020D01*
X0248632Y0065427D01*
X0248632Y0067419D01*
X0245055Y0067419D01*
X0245055Y0068581D01*
X0248632Y0068581D01*
X0248632Y0070573D01*
X0248523Y0070980D01*
X0248313Y0071345D01*
X0248015Y0071643D01*
X0247677Y0071838D01*
X0247778Y0071838D01*
X0248361Y0072420D01*
X0248685Y0071637D01*
X0249610Y0070712D01*
X0250819Y0070211D01*
X0252128Y0070211D01*
X0253336Y0070712D01*
X0254262Y0071637D01*
X0254762Y0072846D01*
X0254762Y0074154D01*
X0254262Y0075363D01*
X0253336Y0076288D01*
X0252128Y0076789D01*
X0251578Y0076789D01*
X0250977Y0077391D01*
X0250702Y0077698D01*
X0250641Y0077727D01*
X0250593Y0077775D01*
X0250212Y0077932D01*
X0249841Y0078111D01*
X0249773Y0078114D01*
X0249711Y0078140D01*
X0249299Y0078140D01*
X0248832Y0078166D01*
X0248832Y0079108D01*
X0247778Y0080162D01*
X0243205Y0080162D01*
X0238982Y0084385D01*
X0238100Y0084750D01*
X0234361Y0084750D01*
X0234361Y0085500D01*
X0234361Y0086250D01*
X0238600Y0086250D01*
X0239482Y0086615D01*
X0240949Y0088081D01*
X0240949Y0085443D01*
X0242003Y0084389D01*
X0252943Y0084389D01*
X0253998Y0085443D01*
X0253998Y0087726D01*
X0254577Y0087726D01*
X0255459Y0088091D01*
X0256437Y0089070D01*
X0256669Y0088838D01*
X0256770Y0088838D01*
X0256432Y0088643D01*
X0256134Y0088345D01*
X0255923Y0087980D01*
X0255814Y0087573D01*
X0255814Y0085581D01*
X0259392Y0085581D01*
X0259392Y0084419D01*
X0255814Y0084419D01*
X0255814Y0082427D01*
X0255923Y0082020D01*
X0256134Y0081655D01*
X0256432Y0081357D01*
X0256797Y0081147D01*
X0257204Y0081038D01*
X0259392Y0081038D01*
X0259392Y0084419D01*
X0260554Y0084419D01*
X0260554Y0081038D01*
X0262743Y0081038D01*
X0263150Y0081147D01*
X0263515Y0081357D01*
X0263813Y0081655D01*
X0264023Y0082020D01*
X0264132Y0082427D01*
X0264132Y0084419D01*
X0260555Y0084419D01*
X0260555Y0085581D01*
X0264132Y0085581D01*
X0264132Y0087573D01*
X0264023Y0087980D01*
X0263813Y0088345D01*
X0263515Y0088643D01*
X0263177Y0088838D01*
X0263278Y0088838D01*
X0264332Y0089892D01*
X0264332Y0096108D01*
X0263278Y0097162D01*
X0256669Y0097162D01*
X0255614Y0096108D01*
X0255614Y0095035D01*
X0255614Y0095035D01*
X0254939Y0094359D01*
X0253998Y0093418D01*
X0253998Y0094809D01*
X0252943Y0095863D01*
X0246086Y0095863D01*
X0246333Y0095965D01*
X0248833Y0098465D01*
X0249508Y0099141D01*
X0249873Y0100023D01*
X0249873Y0100137D01*
X0252943Y0100137D01*
X0253998Y0101191D01*
X0253998Y0102581D01*
X0254939Y0101641D01*
X0255614Y0100965D01*
X0255614Y0099892D01*
X0256669Y0098838D01*
X0263278Y0098838D01*
X0264332Y0099892D01*
X0264332Y0106108D01*
X0263278Y0107162D01*
X0263177Y0107162D01*
X0263515Y0107357D01*
X0263813Y0107655D01*
X0264023Y0108020D01*
X0264132Y0108427D01*
X0264132Y0110419D01*
X0260555Y0110419D01*
X0260555Y0111581D01*
X0264132Y0111581D01*
X0264132Y0113573D01*
X0264023Y0113980D01*
X0263813Y0114345D01*
X0263515Y0114643D01*
X0263150Y0114853D01*
X0262743Y0114962D01*
X0260554Y0114962D01*
X0260554Y0111581D01*
X0259392Y0111581D01*
X0259392Y0110419D01*
X0255814Y0110419D01*
X0255814Y0108427D01*
X0255923Y0108020D01*
X0256134Y0107655D01*
X0256432Y0107357D01*
X0256770Y0107162D01*
X0256669Y0107162D01*
X0256437Y0106930D01*
X0255459Y0107909D01*
X0254577Y0108274D01*
X0253998Y0108274D01*
X0253998Y0110557D01*
X0252943Y0111611D01*
X0242003Y0111611D01*
X0240949Y0110557D01*
X0240949Y0101191D01*
X0241815Y0100325D01*
X0241114Y0100035D01*
X0240873Y0099794D01*
X0240873Y0111006D01*
X0248333Y0118465D01*
X0249008Y0119141D01*
X0249297Y0119838D01*
X0255278Y0119838D01*
X0256332Y0120892D01*
X0256332Y0127108D01*
X0255440Y0128000D01*
X0256332Y0128892D01*
X0256332Y0135108D01*
X0255278Y0136162D01*
X0254772Y0136162D01*
X0255262Y0137346D01*
X0255262Y0138654D01*
X0254762Y0139863D01*
X0253836Y0140788D01*
X0252628Y0141289D01*
X0251319Y0141289D01*
X0250110Y0140788D01*
X0249373Y0140051D01*
X0249373Y0140977D01*
X0249008Y0141859D01*
X0248333Y0142535D01*
X0240873Y0149994D01*
X0240873Y0183006D01*
X0244467Y0186600D01*
X0263451Y0186600D01*
X0264333Y0186965D01*
X0275833Y0198465D01*
X0276508Y0199141D01*
X0276864Y0200000D01*
X0278919Y0200000D01*
X0279973Y0201054D01*
X0279973Y0209946D01*
X0278919Y0211000D01*
X0270028Y0211000D01*
X0268973Y0209946D01*
X0268973Y0208778D01*
X0267589Y0210163D01*
X0265567Y0211000D01*
X0263379Y0211000D01*
X0261358Y0210163D01*
X0259811Y0208615D01*
X0259473Y0207801D01*
X0259136Y0208615D01*
X0257589Y0210163D01*
X0255567Y0211000D01*
X0253379Y0211000D01*
X0251358Y0210163D01*
X0249811Y0208615D01*
X0249473Y0207801D01*
X0249136Y0208615D01*
X0247589Y0210163D01*
X0245567Y0211000D01*
X0243379Y0211000D01*
X0241358Y0210163D01*
X0239811Y0208615D01*
X0239473Y0207801D01*
X0239136Y0208615D01*
X0237589Y0210163D01*
X0235567Y0211000D01*
X0233379Y0211000D01*
X0231358Y0210163D01*
X0229811Y0208615D01*
X0229473Y0207801D01*
X0229136Y0208615D01*
X0227589Y0210163D01*
X0225567Y0211000D01*
X0223379Y0211000D01*
X0221358Y0210163D01*
X0219811Y0208615D01*
X0219473Y0207801D01*
X0219136Y0208615D01*
X0217589Y0210163D01*
X0215567Y0211000D01*
X0213379Y0211000D01*
X0211358Y0210163D01*
X0209811Y0208615D01*
X0209473Y0207801D01*
X0209136Y0208615D01*
X0207589Y0210163D01*
X0205567Y0211000D01*
X0203379Y0211000D01*
X0201358Y0210163D01*
X0199811Y0208615D01*
X0198973Y0206594D01*
X0198973Y0204406D01*
X0199811Y0202384D01*
X0201358Y0200837D01*
X0202073Y0200541D01*
X0202073Y0195794D01*
X0199008Y0198859D01*
X0198333Y0199535D01*
X0197451Y0199900D01*
X0192467Y0199900D01*
X0192367Y0200000D01*
X0192919Y0200000D01*
X0193973Y0201054D01*
X0193973Y0209946D01*
X0192919Y0211000D01*
X0184028Y0211000D01*
X0182973Y0209946D01*
X0182973Y0208778D01*
X0181589Y0210163D01*
X0179567Y0211000D01*
X0177379Y0211000D01*
X0175358Y0210163D01*
X0173811Y0208615D01*
X0173473Y0207801D01*
X0173136Y0208615D01*
X0171589Y0210163D01*
X0169567Y0211000D01*
X0167379Y0211000D01*
X0165358Y0210163D01*
X0163811Y0208615D01*
X0163473Y0207801D01*
X0163136Y0208615D01*
X0161589Y0210163D01*
X0159567Y0211000D01*
X0157379Y0211000D01*
X0155358Y0210163D01*
X0153811Y0208615D01*
X0153473Y0207801D01*
X0153136Y0208615D01*
X0151589Y0210163D01*
X0149567Y0211000D01*
X0147379Y0211000D01*
X0145358Y0210163D01*
X0143811Y0208615D01*
X0143473Y0207801D01*
X0143136Y0208615D01*
X0141589Y0210163D01*
X0139567Y0211000D01*
X0137379Y0211000D01*
X0135358Y0210163D01*
X0133811Y0208615D01*
X0133373Y0207558D01*
X0133006Y0208278D01*
X0132516Y0208953D01*
X0131926Y0209543D01*
X0131251Y0210033D01*
X0130508Y0210412D01*
X0129714Y0210669D01*
X0128890Y0210800D01*
X0128873Y0210800D01*
X0128873Y0205900D01*
X0128073Y0205900D01*
X0128073Y0210800D01*
X0128056Y0210800D01*
X0127232Y0210669D01*
X0126439Y0210412D01*
X0125696Y0210033D01*
X0125021Y0209543D01*
X0124431Y0208953D01*
X0123940Y0208278D01*
X0123574Y0207558D01*
X0123136Y0208615D01*
X0121589Y0210163D01*
X0119567Y0211000D01*
X0117379Y0211000D01*
X0115358Y0210163D01*
X0113811Y0208615D01*
X0113473Y0207801D01*
X0113136Y0208615D01*
X0111589Y0210163D01*
X0109567Y0211000D01*
X0107379Y0211000D01*
X0105358Y0210163D01*
X0103811Y0208615D01*
X0103473Y0207801D01*
X0103136Y0208615D01*
X0101589Y0210163D01*
X0099567Y0211000D01*
X0097379Y0211000D01*
X0095358Y0210163D01*
X0093811Y0208615D01*
X0092973Y0206594D01*
X0092973Y0204406D01*
X0093811Y0202384D01*
X0095358Y0200837D01*
X0096073Y0200541D01*
X0096073Y0200023D01*
X0096439Y0199141D01*
X0098939Y0196641D01*
X0099614Y0195965D01*
X0100496Y0195600D01*
X0109369Y0195600D01*
X0109184Y0195154D01*
X0109184Y0193846D01*
X0109685Y0192637D01*
X0110610Y0191712D01*
X0111819Y0191211D01*
X0113128Y0191211D01*
X0114336Y0191712D01*
X0115262Y0192637D01*
X0115453Y0193100D01*
X0134479Y0193100D01*
X0145939Y0181641D01*
X0146614Y0180965D01*
X0147496Y0180600D01*
X0173979Y0180600D01*
X0180114Y0174465D01*
X0180996Y0174100D01*
X0188479Y0174100D01*
X0191073Y0171506D01*
X0191073Y0116523D01*
X0191124Y0116400D01*
X0186725Y0116400D01*
X0186336Y0116788D01*
X0185128Y0117289D01*
X0183819Y0117289D01*
X0182610Y0116788D01*
X0181685Y0115863D01*
X0181184Y0114654D01*
X0181184Y0113346D01*
X0181685Y0112137D01*
X0182610Y0111212D01*
X0183047Y0111031D01*
X0182684Y0110154D01*
X0182684Y0108846D01*
X0183185Y0107637D01*
X0184110Y0106712D01*
X0185319Y0106211D01*
X0185868Y0106211D01*
X0186114Y0105965D01*
X0186996Y0105600D01*
X0188441Y0105600D01*
X0188441Y0104636D01*
X0189495Y0103582D01*
X0202404Y0103582D01*
X0202609Y0103787D01*
X0202629Y0103782D01*
X0203824Y0103782D01*
X0203573Y0103176D01*
X0203573Y0091708D01*
X0202899Y0092382D01*
X0201650Y0092900D01*
X0197297Y0092900D01*
X0196047Y0092382D01*
X0195565Y0091900D01*
X0189297Y0091900D01*
X0188891Y0091732D01*
X0188891Y0102978D01*
X0187837Y0104032D01*
X0185335Y0104032D01*
X0185008Y0104359D01*
X0184333Y0105035D01*
X0183451Y0105400D01*
X0176725Y0105400D01*
X0176336Y0105788D01*
X0175128Y0106289D01*
X0173819Y0106289D01*
X0172610Y0105788D01*
X0171685Y0104863D01*
X0171184Y0103654D01*
X0171184Y0102346D01*
X0171685Y0101137D01*
X0172610Y0100212D01*
X0173684Y0099767D01*
X0173684Y0099346D01*
X0174185Y0098137D01*
X0174619Y0097703D01*
X0174184Y0096654D01*
X0174184Y0095346D01*
X0174685Y0094137D01*
X0175119Y0093703D01*
X0175046Y0093528D01*
X0174150Y0093900D01*
X0173540Y0093900D01*
X0172778Y0094662D01*
X0166169Y0094662D01*
X0165437Y0093930D01*
X0164008Y0095359D01*
X0163373Y0095994D01*
X0163373Y0104176D01*
X0162856Y0105426D01*
X0161899Y0106382D01*
X0158399Y0109882D01*
X0157150Y0110400D01*
X0134382Y0110400D01*
X0132899Y0111882D01*
X0131650Y0112400D01*
X0130967Y0112400D01*
X0130897Y0112470D01*
X0130897Y0114076D01*
X0137119Y0114076D01*
X0137619Y0114576D01*
X0145449Y0114576D01*
X0145449Y0111943D01*
X0146503Y0110889D01*
X0157443Y0110889D01*
X0158498Y0111943D01*
X0158498Y0115600D01*
X0158906Y0115600D01*
X0159866Y0114641D01*
X0166081Y0114641D01*
X0167136Y0115695D01*
X0167136Y0115797D01*
X0167331Y0115459D01*
X0167629Y0115161D01*
X0167994Y0114950D01*
X0168400Y0114841D01*
X0170392Y0114841D01*
X0170392Y0118419D01*
X0171554Y0118419D01*
X0171554Y0114841D01*
X0173546Y0114841D01*
X0173953Y0114950D01*
X0174318Y0115161D01*
X0174616Y0115459D01*
X0174826Y0115823D01*
X0174936Y0116230D01*
X0174936Y0118419D01*
X0171555Y0118419D01*
X0171555Y0119581D01*
X0174936Y0119581D01*
X0174936Y0121770D01*
X0174826Y0122177D01*
X0174616Y0122541D01*
X0174318Y0122839D01*
X0173953Y0123050D01*
X0173546Y0123159D01*
X0171554Y0123159D01*
X0171554Y0119581D01*
X0170392Y0119581D01*
X0170392Y0123159D01*
X0168400Y0123159D01*
X0167994Y0123050D01*
X0167629Y0122839D01*
X0167331Y0122541D01*
X0167136Y0122203D01*
X0167136Y0122305D01*
X0166081Y0123359D01*
X0159866Y0123359D01*
X0158811Y0122305D01*
X0158811Y0120732D01*
X0158498Y0120418D01*
X0158498Y0121309D01*
X0157443Y0122363D01*
X0150586Y0122363D01*
X0150833Y0122465D01*
X0151508Y0123141D01*
X0154008Y0125641D01*
X0154373Y0126523D01*
X0154373Y0126637D01*
X0157443Y0126637D01*
X0158498Y0127691D01*
X0158498Y0128081D01*
X0158811Y0127768D01*
X0158811Y0126195D01*
X0159866Y0125141D01*
X0166081Y0125141D01*
X0167136Y0126195D01*
X0167136Y0126297D01*
X0167331Y0125959D01*
X0167629Y0125661D01*
X0167994Y0125450D01*
X0168400Y0125341D01*
X0170392Y0125341D01*
X0170392Y0128919D01*
X0171554Y0128919D01*
X0171554Y0125341D01*
X0173546Y0125341D01*
X0173953Y0125450D01*
X0174318Y0125661D01*
X0174616Y0125959D01*
X0174826Y0126323D01*
X0174936Y0126730D01*
X0174936Y0128919D01*
X0171555Y0128919D01*
X0171555Y0130081D01*
X0174936Y0130081D01*
X0174936Y0132270D01*
X0174826Y0132677D01*
X0174616Y0133041D01*
X0174318Y0133339D01*
X0173953Y0133550D01*
X0173546Y0133659D01*
X0171554Y0133659D01*
X0171554Y0130081D01*
X0170392Y0130081D01*
X0170392Y0133659D01*
X0168400Y0133659D01*
X0167994Y0133550D01*
X0167629Y0133339D01*
X0167331Y0133041D01*
X0167136Y0132703D01*
X0167136Y0132805D01*
X0166081Y0133859D01*
X0159866Y0133859D01*
X0158906Y0132900D01*
X0158498Y0132900D01*
X0158498Y0137057D01*
X0157443Y0138111D01*
X0146503Y0138111D01*
X0145449Y0137057D01*
X0145449Y0127691D01*
X0146240Y0126900D01*
X0145996Y0126900D01*
X0145114Y0126535D01*
X0140979Y0122400D01*
X0137973Y0122400D01*
X0137973Y0123276D01*
X0137973Y0124025D01*
X0138376Y0124025D01*
X0139258Y0124391D01*
X0141333Y0126465D01*
X0142008Y0127141D01*
X0142373Y0128023D01*
X0142373Y0140006D01*
X0143967Y0141600D01*
X0147311Y0141600D01*
X0147311Y0140695D01*
X0148366Y0139641D01*
X0154581Y0139641D01*
X0155636Y0140695D01*
X0155636Y0140797D01*
X0155831Y0140459D01*
X0156129Y0140161D01*
X0156494Y0139950D01*
X0156900Y0139841D01*
X0158892Y0139841D01*
X0158892Y0143419D01*
X0160054Y0143419D01*
X0160054Y0139841D01*
X0162046Y0139841D01*
X0162453Y0139950D01*
X0162818Y0140161D01*
X0163116Y0140459D01*
X0163326Y0140823D01*
X0163436Y0141230D01*
X0163436Y0143419D01*
X0160055Y0143419D01*
X0160055Y0144581D01*
X0163436Y0144581D01*
X0163436Y0146770D01*
X0163326Y0147177D01*
X0163116Y0147541D01*
X0162818Y0147839D01*
X0162453Y0148050D01*
X0162046Y0148159D01*
X0160054Y0148159D01*
X0160054Y0144581D01*
X0158892Y0144581D01*
X0158892Y0148159D01*
X0156900Y0148159D01*
X0156494Y0148050D01*
X0156129Y0147839D01*
X0155831Y0147541D01*
X0155636Y0147203D01*
X0155636Y0147305D01*
X0154581Y0148359D01*
X0148366Y0148359D01*
X0147311Y0147305D01*
X0147311Y0146400D01*
X0145578Y0146400D01*
X0145762Y0146846D01*
X0145762Y0148154D01*
X0145649Y0148427D01*
X0146336Y0148712D01*
X0147262Y0149637D01*
X0147762Y0150846D01*
X0147762Y0152154D01*
X0147686Y0152338D01*
X0152778Y0152338D01*
X0153832Y0153392D01*
X0153832Y0159608D01*
X0152778Y0160662D01*
X0152677Y0160662D01*
X0153015Y0160857D01*
X0153313Y0161155D01*
X0153523Y0161520D01*
X0153632Y0161927D01*
X0153632Y0163919D01*
X0150055Y0163919D01*
X0150055Y0165081D01*
X0153632Y0165081D01*
X0153632Y0167073D01*
X0153523Y0167480D01*
X0153313Y0167845D01*
X0153015Y0168143D01*
X0152650Y0168353D01*
X0152243Y0168462D01*
X0150054Y0168462D01*
X0150054Y0165081D01*
X0148892Y0165081D01*
X0148892Y0163919D01*
X0145314Y0163919D01*
X0145314Y0161927D01*
X0145423Y0161520D01*
X0145634Y0161155D01*
X0145932Y0160857D01*
X0146270Y0160662D01*
X0146169Y0160662D01*
X0145114Y0159608D01*
X0145114Y0158900D01*
X0143832Y0158900D01*
X0143832Y0159608D01*
X0142940Y0160500D01*
X0143832Y0161392D01*
X0143832Y0167211D01*
X0145128Y0167211D01*
X0145379Y0167315D01*
X0145314Y0167073D01*
X0145314Y0165081D01*
X0148892Y0165081D01*
X0148892Y0168462D01*
X0147087Y0168462D01*
X0147262Y0168637D01*
X0147762Y0169846D01*
X0147762Y0171154D01*
X0147262Y0172363D01*
X0146336Y0173288D01*
X0145128Y0173789D01*
X0143819Y0173789D01*
X0142610Y0173288D01*
X0142222Y0172900D01*
X0141967Y0172900D01*
X0139333Y0175535D01*
X0138451Y0175900D01*
X0123967Y0175900D01*
X0123373Y0176494D01*
X0123373Y0179477D01*
X0123008Y0180359D01*
X0122333Y0181035D01*
X0114833Y0188535D01*
X0113951Y0188900D01*
X0083967Y0188900D01*
X0079833Y0193035D01*
X0078951Y0193400D01*
X0071373Y0193400D01*
X0071373Y0204977D01*
X0071008Y0205859D01*
X0070333Y0206535D01*
X0067333Y0209535D01*
X0066451Y0209900D01*
X0064119Y0209900D01*
X0063219Y0210800D01*
X0055728Y0210800D01*
X0054828Y0209900D01*
X0044119Y0209900D01*
X0043219Y0210800D01*
X0035728Y0210800D01*
X0034673Y0209746D01*
X0034673Y0205254D01*
X0035728Y0204200D01*
X0043219Y0204200D01*
X0044119Y0205100D01*
X0054828Y0205100D01*
X0055728Y0204200D01*
X0063219Y0204200D01*
X0064119Y0205100D01*
X0064979Y0205100D01*
X0066573Y0203506D01*
X0066573Y0190450D01*
X0065928Y0190450D01*
X0064873Y0189396D01*
X0064873Y0181604D01*
X0065928Y0180550D01*
X0078019Y0180550D01*
X0079073Y0181604D01*
X0079073Y0182506D01*
X0079614Y0181965D01*
X0080496Y0181600D01*
X0111479Y0181600D01*
X0116073Y0177006D01*
X0116073Y0174374D01*
X0116016Y0174453D01*
X0115426Y0175043D01*
X0114751Y0175533D01*
X0114008Y0175912D01*
X0113214Y0176169D01*
X0112390Y0176300D01*
X0112373Y0176300D01*
X0112373Y0171400D01*
X0111573Y0171400D01*
X0111573Y0176300D01*
X0111556Y0176300D01*
X0110732Y0176169D01*
X0109939Y0175912D01*
X0109196Y0175533D01*
X0108521Y0175043D01*
X0107931Y0174453D01*
X0107440Y0173778D01*
X0107062Y0173034D01*
X0106889Y0172504D01*
X0106636Y0173115D01*
X0105089Y0174663D01*
X0103067Y0175500D01*
X0100879Y0175500D01*
X0098858Y0174663D01*
X0097311Y0173115D01*
X0097180Y0172801D01*
X0096636Y0174115D01*
X0095089Y0175663D01*
X0093067Y0176500D01*
X0090879Y0176500D01*
X0088858Y0175663D01*
X0087311Y0174115D01*
X0086473Y0172094D01*
X0086473Y0169906D01*
X0087311Y0167884D01*
X0088858Y0166337D01*
X0089672Y0166000D01*
X0088858Y0165663D01*
X0087311Y0164115D01*
X0086473Y0162094D01*
X0086473Y0159906D01*
X0087311Y0157884D01*
X0088858Y0156337D01*
X0090879Y0155500D01*
X0091579Y0155500D01*
X0099573Y0147506D01*
X0099573Y0143918D01*
X0098039Y0142383D01*
X0097848Y0141924D01*
X0096828Y0141924D01*
X0095773Y0140869D01*
X0095773Y0115131D01*
X0096828Y0114076D01*
X0103050Y0114076D01*
X0103050Y0108715D01*
X0102614Y0108535D01*
X0100614Y0106535D01*
X0099939Y0105859D01*
X0099573Y0104977D01*
X0099573Y0103662D01*
X0098669Y0103662D01*
X0097614Y0102608D01*
X0097614Y0096392D01*
X0098669Y0095338D01*
X0098770Y0095338D01*
X0098432Y0095143D01*
X0098134Y0094845D01*
X0097923Y0094480D01*
X0097814Y0094073D01*
X0097814Y0092081D01*
X0101392Y0092081D01*
X0101392Y0090919D01*
X0097814Y0090919D01*
X0097814Y0088927D01*
X0097923Y0088520D01*
X0098134Y0088155D01*
X0098432Y0087857D01*
X0098797Y0087647D01*
X0099204Y0087538D01*
X0101392Y0087538D01*
X0101392Y0090919D01*
X0102554Y0090919D01*
X0102554Y0087538D01*
X0104743Y0087538D01*
X0105150Y0087647D01*
X0105515Y0087857D01*
X0105813Y0088155D01*
X0106023Y0088520D01*
X0106132Y0088927D01*
X0106132Y0090919D01*
X0102555Y0090919D01*
X0102555Y0092081D01*
X0106132Y0092081D01*
X0106132Y0094073D01*
X0106023Y0094480D01*
X0105813Y0094845D01*
X0105515Y0095143D01*
X0105177Y0095338D01*
X0105278Y0095338D01*
X0106332Y0096392D01*
X0106332Y0102608D01*
X0105278Y0103662D01*
X0104530Y0103662D01*
X0104967Y0104100D01*
X0111451Y0104100D01*
X0112333Y0104465D01*
X0113008Y0105141D01*
X0114284Y0106416D01*
X0114525Y0107000D01*
X0115398Y0107000D01*
X0115398Y0111100D01*
X0115398Y0115200D01*
X0114295Y0115200D01*
X0114095Y0115400D01*
X0106267Y0115400D01*
X0107833Y0116965D01*
X0108508Y0117641D01*
X0108873Y0118523D01*
X0108873Y0134813D01*
X0109836Y0135212D01*
X0110762Y0136137D01*
X0111262Y0137346D01*
X0111262Y0138654D01*
X0110762Y0139863D01*
X0110025Y0140600D01*
X0119298Y0140600D01*
X0119298Y0133719D01*
X0112368Y0126789D01*
X0111819Y0126789D01*
X0110610Y0126288D01*
X0109685Y0125363D01*
X0109184Y0124154D01*
X0109184Y0122846D01*
X0109685Y0121637D01*
X0110072Y0121250D01*
X0109685Y0120863D01*
X0109184Y0119654D01*
X0109184Y0118346D01*
X0109685Y0117137D01*
X0110610Y0116212D01*
X0111819Y0115711D01*
X0113128Y0115711D01*
X0114336Y0116212D01*
X0115262Y0117137D01*
X0115762Y0118346D01*
X0115762Y0118895D01*
X0115839Y0118972D01*
X0116148Y0118226D01*
X0116148Y0115200D01*
X0115399Y0115200D01*
X0115399Y0111100D01*
X0115398Y0111100D01*
X0115399Y0111100D01*
X0115399Y0107000D01*
X0116503Y0107000D01*
X0116703Y0106800D01*
X0118055Y0106800D01*
X0117684Y0105904D01*
X0117684Y0104596D01*
X0118185Y0103387D01*
X0119110Y0102462D01*
X0120319Y0101961D01*
X0121628Y0101961D01*
X0122836Y0102462D01*
X0123762Y0103387D01*
X0124160Y0104350D01*
X0124201Y0104350D01*
X0125083Y0104715D01*
X0125758Y0105391D01*
X0126882Y0106515D01*
X0127000Y0106800D01*
X0128365Y0106800D01*
X0131047Y0104118D01*
X0132297Y0103600D01*
X0155065Y0103600D01*
X0156573Y0102092D01*
X0156573Y0096400D01*
X0155954Y0096400D01*
X0156023Y0096520D01*
X0156132Y0096927D01*
X0156132Y0098919D01*
X0152555Y0098919D01*
X0152555Y0100081D01*
X0156132Y0100081D01*
X0156132Y0102073D01*
X0156023Y0102480D01*
X0155813Y0102845D01*
X0155515Y0103143D01*
X0155150Y0103353D01*
X0154743Y0103462D01*
X0152554Y0103462D01*
X0152554Y0100081D01*
X0151392Y0100081D01*
X0151392Y0098919D01*
X0147814Y0098919D01*
X0147814Y0096927D01*
X0147923Y0096520D01*
X0147993Y0096400D01*
X0143454Y0096400D01*
X0143523Y0096520D01*
X0143632Y0096927D01*
X0143632Y0098919D01*
X0140055Y0098919D01*
X0140055Y0100081D01*
X0143632Y0100081D01*
X0143632Y0102073D01*
X0143523Y0102480D01*
X0143313Y0102845D01*
X0143015Y0103143D01*
X0142650Y0103353D01*
X0142243Y0103462D01*
X0140054Y0103462D01*
X0140054Y0100081D01*
X0138892Y0100081D01*
X0138892Y0098919D01*
X0135314Y0098919D01*
X0135314Y0096927D01*
X0135423Y0096520D01*
X0135493Y0096400D01*
X0134496Y0096400D01*
X0133723Y0096080D01*
X0132951Y0096400D01*
X0131454Y0096400D01*
X0131523Y0096520D01*
X0131632Y0096927D01*
X0131632Y0098919D01*
X0128055Y0098919D01*
X0128055Y0100081D01*
X0131632Y0100081D01*
X0131632Y0102073D01*
X0131523Y0102480D01*
X0131313Y0102845D01*
X0131015Y0103143D01*
X0130650Y0103353D01*
X0130243Y0103462D01*
X0128054Y0103462D01*
X0128054Y0100081D01*
X0126892Y0100081D01*
X0126892Y0098919D01*
X0123314Y0098919D01*
X0123314Y0096927D01*
X0123423Y0096520D01*
X0123493Y0096400D01*
X0118749Y0096400D01*
X0118819Y0096520D01*
X0118928Y0096927D01*
X0118928Y0098919D01*
X0115055Y0098919D01*
X0115055Y0100081D01*
X0118928Y0100081D01*
X0118928Y0102073D01*
X0118819Y0102480D01*
X0118608Y0102845D01*
X0118310Y0103143D01*
X0117945Y0103353D01*
X0117538Y0103462D01*
X0115054Y0103462D01*
X0115054Y0100081D01*
X0113892Y0100081D01*
X0113892Y0103462D01*
X0111408Y0103462D01*
X0111001Y0103353D01*
X0110637Y0103143D01*
X0110339Y0102845D01*
X0110128Y0102480D01*
X0110019Y0102073D01*
X0110019Y0100081D01*
X0110019Y0101381D02*
X0106332Y0101381D01*
X0106332Y0102579D02*
X0110186Y0102579D01*
X0112844Y0104976D02*
X0117684Y0104976D01*
X0117796Y0106175D02*
X0114042Y0106175D01*
X0115398Y0107373D02*
X0115399Y0107373D01*
X0115398Y0108572D02*
X0115399Y0108572D01*
X0115398Y0109770D02*
X0115399Y0109770D01*
X0115398Y0110969D02*
X0115399Y0110969D01*
X0115398Y0112168D02*
X0115399Y0112168D01*
X0115398Y0113366D02*
X0115399Y0113366D01*
X0115398Y0114565D02*
X0115399Y0114565D01*
X0116148Y0115763D02*
X0113253Y0115763D01*
X0111694Y0115763D02*
X0106630Y0115763D01*
X0107829Y0116962D02*
X0109860Y0116962D01*
X0109261Y0118160D02*
X0108723Y0118160D01*
X0108873Y0119359D02*
X0109184Y0119359D01*
X0108873Y0120557D02*
X0109558Y0120557D01*
X0109636Y0121756D02*
X0108873Y0121756D01*
X0108873Y0122954D02*
X0109184Y0122954D01*
X0109184Y0124153D02*
X0108873Y0124153D01*
X0108873Y0125351D02*
X0109680Y0125351D01*
X0108873Y0126550D02*
X0111241Y0126550D01*
X0113327Y0127748D02*
X0108873Y0127748D01*
X0108873Y0128947D02*
X0114526Y0128947D01*
X0115724Y0130145D02*
X0108873Y0130145D01*
X0108873Y0131344D02*
X0116923Y0131344D01*
X0118121Y0132542D02*
X0108873Y0132542D01*
X0108873Y0133741D02*
X0119298Y0133741D01*
X0119298Y0134939D02*
X0109178Y0134939D01*
X0110762Y0136138D02*
X0119298Y0136138D01*
X0119298Y0137336D02*
X0111258Y0137336D01*
X0111262Y0138535D02*
X0119298Y0138535D01*
X0119298Y0139733D02*
X0110815Y0139733D01*
X0107973Y0138000D02*
X0106473Y0136500D01*
X0106473Y0119000D01*
X0104450Y0116976D01*
X0100073Y0116976D01*
X0095773Y0116962D02*
X0092966Y0116962D01*
X0092966Y0118160D02*
X0095773Y0118160D01*
X0095773Y0119359D02*
X0084044Y0119359D01*
X0084069Y0118450D02*
X0083984Y0121544D01*
X0084636Y0122195D01*
X0084636Y0122297D01*
X0084831Y0121959D01*
X0085129Y0121661D01*
X0085494Y0121450D01*
X0085900Y0121341D01*
X0087892Y0121341D01*
X0087892Y0124919D01*
X0089054Y0124919D01*
X0089054Y0121341D01*
X0091046Y0121341D01*
X0091453Y0121450D01*
X0091818Y0121661D01*
X0092116Y0121959D01*
X0092326Y0122323D01*
X0092436Y0122730D01*
X0092436Y0124919D01*
X0089055Y0124919D01*
X0089055Y0126081D01*
X0092436Y0126081D01*
X0092436Y0128270D01*
X0092326Y0128677D01*
X0092116Y0129041D01*
X0091818Y0129339D01*
X0091453Y0129550D01*
X0091046Y0129659D01*
X0089054Y0129659D01*
X0089054Y0126081D01*
X0087892Y0126081D01*
X0087892Y0129659D01*
X0085900Y0129659D01*
X0085560Y0129568D01*
X0085873Y0130324D01*
X0085873Y0158176D01*
X0085356Y0159426D01*
X0084399Y0160382D01*
X0081399Y0163382D01*
X0080150Y0163900D01*
X0074679Y0163900D01*
X0074679Y0164198D01*
X0073624Y0165253D01*
X0067015Y0165253D01*
X0066973Y0165211D01*
X0066932Y0165253D01*
X0060322Y0165253D01*
X0059268Y0164198D01*
X0059268Y0162900D01*
X0046087Y0162900D01*
X0046364Y0163569D01*
X0046364Y0164951D01*
X0045835Y0166227D01*
X0044858Y0167204D01*
X0043582Y0167733D01*
X0042200Y0167733D01*
X0040923Y0167204D01*
X0039946Y0166227D01*
X0039417Y0164951D01*
X0039417Y0163569D01*
X0039568Y0163205D01*
X0038700Y0163205D01*
X0037646Y0162151D01*
X0037646Y0151408D01*
X0037846Y0151208D01*
X0037846Y0150382D01*
X0038672Y0150382D01*
X0037846Y0150382D01*
X0037846Y0149384D01*
X0037955Y0148977D01*
X0038165Y0148612D01*
X0038463Y0148314D01*
X0038828Y0148104D01*
X0039235Y0147994D01*
X0039651Y0147994D01*
X0039417Y0147431D01*
X0039417Y0146049D01*
X0039946Y0144773D01*
X0040923Y0143796D01*
X0042200Y0143267D01*
X0043582Y0143267D01*
X0044858Y0143796D01*
X0045835Y0144773D01*
X0046364Y0146049D01*
X0046364Y0147431D01*
X0045923Y0148494D01*
X0046041Y0148612D01*
X0046252Y0148977D01*
X0046361Y0149384D01*
X0046361Y0150382D01*
X0046361Y0151208D01*
X0046561Y0151408D01*
X0046561Y0153100D01*
X0049979Y0153100D01*
X0054573Y0148506D01*
X0054573Y0142523D01*
X0054939Y0141641D01*
X0057439Y0139141D01*
X0057439Y0139141D01*
X0058114Y0138465D01*
X0058811Y0138177D01*
X0058811Y0137195D01*
X0059866Y0136141D01*
X0066081Y0136141D01*
X0066973Y0137033D01*
X0067866Y0136141D01*
X0074081Y0136141D01*
X0075136Y0137195D01*
X0075136Y0137701D01*
X0076319Y0137211D01*
X0077628Y0137211D01*
X0078836Y0137712D01*
X0079073Y0137949D01*
X0079073Y0132408D01*
X0078412Y0131747D01*
X0077990Y0131380D01*
X0077936Y0131271D01*
X0077851Y0131186D01*
X0077637Y0130669D01*
X0077388Y0130169D01*
X0077380Y0130048D01*
X0077333Y0129936D01*
X0077333Y0129827D01*
X0076311Y0128805D01*
X0076311Y0122195D01*
X0077188Y0121319D01*
X0077244Y0119268D01*
X0077035Y0119268D01*
X0075980Y0118214D01*
X0075980Y0112786D01*
X0077035Y0111731D01*
X0083250Y0111731D01*
X0084305Y0112786D01*
X0084305Y0118214D01*
X0084069Y0118450D01*
X0084305Y0118160D02*
X0084642Y0118160D01*
X0084642Y0116962D02*
X0084305Y0116962D01*
X0084305Y0115763D02*
X0084642Y0115763D01*
X0084642Y0114565D02*
X0084305Y0114565D01*
X0084305Y0113366D02*
X0084642Y0113366D01*
X0084888Y0112168D02*
X0083686Y0112168D01*
X0084921Y0110969D02*
X0074094Y0110969D01*
X0074262Y0111137D02*
X0074762Y0112346D01*
X0074762Y0113654D01*
X0074262Y0114863D01*
X0073873Y0115251D01*
X0073873Y0120977D01*
X0073508Y0121859D01*
X0072833Y0122535D01*
X0070333Y0125035D01*
X0070136Y0125116D01*
X0070136Y0126305D01*
X0069081Y0127359D01*
X0062866Y0127359D01*
X0061973Y0126467D01*
X0061081Y0127359D01*
X0054866Y0127359D01*
X0053811Y0126305D01*
X0053811Y0125400D01*
X0052386Y0125400D01*
X0052386Y0126305D01*
X0051331Y0127359D01*
X0045116Y0127359D01*
X0044332Y0126575D01*
X0044068Y0126839D01*
X0043703Y0127050D01*
X0043296Y0127159D01*
X0041304Y0127159D01*
X0041304Y0123581D01*
X0040142Y0123581D01*
X0040142Y0122419D01*
X0036761Y0122419D01*
X0036761Y0120230D01*
X0036870Y0119823D01*
X0037081Y0119459D01*
X0037379Y0119161D01*
X0037744Y0118950D01*
X0038150Y0118841D01*
X0040142Y0118841D01*
X0040142Y0122419D01*
X0041304Y0122419D01*
X0041304Y0118841D01*
X0043296Y0118841D01*
X0043703Y0118950D01*
X0044068Y0119161D01*
X0044332Y0119425D01*
X0045116Y0118641D01*
X0051331Y0118641D01*
X0052386Y0119695D01*
X0052386Y0120600D01*
X0053811Y0120600D01*
X0053811Y0119695D01*
X0054866Y0118641D01*
X0061081Y0118641D01*
X0061973Y0119533D01*
X0062866Y0118641D01*
X0069073Y0118641D01*
X0069073Y0117359D01*
X0062866Y0117359D01*
X0061973Y0116467D01*
X0061081Y0117359D01*
X0054866Y0117359D01*
X0053811Y0116305D01*
X0053811Y0115400D01*
X0052386Y0115400D01*
X0052386Y0116305D01*
X0051331Y0117359D01*
X0045116Y0117359D01*
X0044332Y0116575D01*
X0044068Y0116839D01*
X0043703Y0117050D01*
X0043296Y0117159D01*
X0041304Y0117159D01*
X0041304Y0113581D01*
X0040142Y0113581D01*
X0040142Y0112419D01*
X0036761Y0112419D01*
X0036761Y0110230D01*
X0036870Y0109823D01*
X0037081Y0109459D01*
X0037379Y0109161D01*
X0037744Y0108950D01*
X0038150Y0108841D01*
X0040142Y0108841D01*
X0040142Y0112419D01*
X0041304Y0112419D01*
X0041304Y0108841D01*
X0043296Y0108841D01*
X0043703Y0108950D01*
X0044068Y0109161D01*
X0044332Y0109425D01*
X0045116Y0108641D01*
X0051331Y0108641D01*
X0052386Y0109695D01*
X0052386Y0110600D01*
X0053811Y0110600D01*
X0053811Y0109695D01*
X0054866Y0108641D01*
X0061081Y0108641D01*
X0061973Y0109533D01*
X0062866Y0108641D01*
X0063372Y0108641D01*
X0063464Y0108418D01*
X0063590Y0108045D01*
X0063646Y0107980D01*
X0063679Y0107900D01*
X0063958Y0107622D01*
X0064216Y0107324D01*
X0064293Y0107286D01*
X0064939Y0106641D01*
X0065614Y0105965D01*
X0066496Y0105600D01*
X0069222Y0105600D01*
X0069610Y0105212D01*
X0070819Y0104711D01*
X0072128Y0104711D01*
X0073336Y0105212D01*
X0074262Y0106137D01*
X0074762Y0107346D01*
X0074762Y0108654D01*
X0074262Y0109863D01*
X0073625Y0110500D01*
X0074262Y0111137D01*
X0074688Y0112168D02*
X0076599Y0112168D01*
X0075980Y0113366D02*
X0074762Y0113366D01*
X0074385Y0114565D02*
X0075980Y0114565D01*
X0075980Y0115763D02*
X0073873Y0115763D01*
X0073873Y0116962D02*
X0075980Y0116962D01*
X0075980Y0118160D02*
X0073873Y0118160D01*
X0073873Y0119359D02*
X0077242Y0119359D01*
X0077209Y0120557D02*
X0073873Y0120557D01*
X0073551Y0121756D02*
X0076751Y0121756D01*
X0076311Y0122954D02*
X0072413Y0122954D01*
X0071215Y0124153D02*
X0076311Y0124153D01*
X0076311Y0125351D02*
X0070136Y0125351D01*
X0069891Y0126550D02*
X0076311Y0126550D01*
X0076311Y0127748D02*
X0026773Y0127748D01*
X0026773Y0126550D02*
X0037089Y0126550D01*
X0037081Y0126541D02*
X0036870Y0126177D01*
X0036761Y0125770D01*
X0036761Y0123581D01*
X0040142Y0123581D01*
X0040142Y0127159D01*
X0038150Y0127159D01*
X0037744Y0127050D01*
X0037379Y0126839D01*
X0037081Y0126541D01*
X0036761Y0125351D02*
X0026773Y0125351D01*
X0026773Y0124153D02*
X0036761Y0124153D01*
X0036761Y0121756D02*
X0026773Y0121756D01*
X0026773Y0122954D02*
X0040142Y0122954D01*
X0040142Y0121756D02*
X0041304Y0121756D01*
X0041304Y0120557D02*
X0040142Y0120557D01*
X0040142Y0119359D02*
X0041304Y0119359D01*
X0040142Y0117159D02*
X0038150Y0117159D01*
X0037744Y0117050D01*
X0037379Y0116839D01*
X0037081Y0116541D01*
X0036870Y0116177D01*
X0036761Y0115770D01*
X0036761Y0113581D01*
X0040142Y0113581D01*
X0040142Y0117159D01*
X0040142Y0116962D02*
X0041304Y0116962D01*
X0041304Y0115763D02*
X0040142Y0115763D01*
X0040142Y0114565D02*
X0041304Y0114565D01*
X0040142Y0113366D02*
X0026773Y0113366D01*
X0026773Y0112168D02*
X0036761Y0112168D01*
X0036761Y0110969D02*
X0026773Y0110969D01*
X0026773Y0109770D02*
X0036901Y0109770D01*
X0040142Y0109770D02*
X0041304Y0109770D01*
X0041304Y0110969D02*
X0040142Y0110969D01*
X0040142Y0112168D02*
X0041304Y0112168D01*
X0036761Y0114565D02*
X0026773Y0114565D01*
X0026773Y0115763D02*
X0036761Y0115763D01*
X0037590Y0116962D02*
X0026773Y0116962D01*
X0026773Y0118160D02*
X0069073Y0118160D01*
X0071473Y0120500D02*
X0071473Y0113000D01*
X0074300Y0109770D02*
X0084954Y0109770D01*
X0081054Y0108572D02*
X0079892Y0108572D01*
X0079892Y0109659D02*
X0077900Y0109659D01*
X0077494Y0109550D01*
X0077129Y0109339D01*
X0076831Y0109041D01*
X0076620Y0108677D01*
X0076511Y0108270D01*
X0076511Y0106081D01*
X0079892Y0106081D01*
X0079892Y0109659D01*
X0079892Y0107373D02*
X0081054Y0107373D01*
X0081054Y0106175D02*
X0079892Y0106175D01*
X0079892Y0104976D02*
X0072768Y0104976D01*
X0074277Y0106175D02*
X0076511Y0106175D01*
X0076511Y0107373D02*
X0074762Y0107373D01*
X0074762Y0108572D02*
X0076592Y0108572D01*
X0071473Y0108000D02*
X0066973Y0108000D01*
X0065713Y0109260D01*
X0065973Y0113000D01*
X0062468Y0116962D02*
X0061479Y0116962D01*
X0057973Y0113000D02*
X0048223Y0113000D01*
X0052386Y0115763D02*
X0053811Y0115763D01*
X0054468Y0116962D02*
X0051729Y0116962D01*
X0052049Y0119359D02*
X0054148Y0119359D01*
X0053811Y0120557D02*
X0052386Y0120557D01*
X0048223Y0123000D02*
X0057973Y0123000D01*
X0061799Y0119359D02*
X0062148Y0119359D01*
X0065973Y0123000D02*
X0068973Y0123000D01*
X0071473Y0120500D01*
X0076453Y0128947D02*
X0026773Y0128947D01*
X0026773Y0130145D02*
X0077386Y0130145D01*
X0077972Y0131344D02*
X0026773Y0131344D01*
X0026773Y0132542D02*
X0079073Y0132542D01*
X0079073Y0133741D02*
X0034308Y0133741D01*
X0035876Y0134939D02*
X0079073Y0134939D01*
X0079073Y0136138D02*
X0036749Y0136138D01*
X0037252Y0137336D02*
X0058811Y0137336D01*
X0058044Y0138535D02*
X0032073Y0138535D01*
X0032073Y0139663D02*
X0037483Y0139663D01*
X0037354Y0140475D01*
X0037061Y0141377D01*
X0036630Y0142223D01*
X0036072Y0142991D01*
X0035401Y0143662D01*
X0034633Y0144220D01*
X0033788Y0144650D01*
X0032885Y0144944D01*
X0032073Y0145072D01*
X0032073Y0139663D01*
X0032073Y0139733D02*
X0030873Y0139733D01*
X0030873Y0140932D02*
X0032073Y0140932D01*
X0032073Y0142130D02*
X0030873Y0142130D01*
X0030873Y0143329D02*
X0032073Y0143329D01*
X0032073Y0144527D02*
X0030873Y0144527D01*
X0028917Y0144527D02*
X0026773Y0144527D01*
X0026773Y0143329D02*
X0027213Y0143329D01*
X0026773Y0145726D02*
X0039551Y0145726D01*
X0039417Y0146924D02*
X0026773Y0146924D01*
X0026773Y0148123D02*
X0038795Y0148123D01*
X0037863Y0149321D02*
X0026773Y0149321D01*
X0026773Y0150520D02*
X0037846Y0150520D01*
X0038672Y0150382D02*
X0038672Y0150382D01*
X0037646Y0151718D02*
X0026773Y0151718D01*
X0026773Y0152917D02*
X0037646Y0152917D01*
X0037646Y0154115D02*
X0026773Y0154115D01*
X0026773Y0155314D02*
X0037646Y0155314D01*
X0037646Y0156512D02*
X0026773Y0156512D01*
X0026773Y0157711D02*
X0037646Y0157711D01*
X0037646Y0158909D02*
X0026773Y0158909D01*
X0026773Y0160108D02*
X0037646Y0160108D01*
X0037646Y0161306D02*
X0026773Y0161306D01*
X0026773Y0162505D02*
X0038000Y0162505D01*
X0039417Y0163703D02*
X0026773Y0163703D01*
X0026773Y0164902D02*
X0039417Y0164902D01*
X0039894Y0166101D02*
X0033021Y0166101D01*
X0032073Y0166101D02*
X0030873Y0166101D01*
X0029926Y0166101D02*
X0026773Y0166101D01*
X0026773Y0167299D02*
X0027600Y0167299D01*
X0030873Y0167299D02*
X0032073Y0167299D01*
X0032073Y0168498D02*
X0030873Y0168498D01*
X0030873Y0169696D02*
X0032073Y0169696D01*
X0032073Y0170895D02*
X0030873Y0170895D01*
X0032073Y0172093D02*
X0086473Y0172093D01*
X0086473Y0170895D02*
X0037412Y0170895D01*
X0037085Y0169696D02*
X0086560Y0169696D01*
X0087057Y0168498D02*
X0036427Y0168498D01*
X0035347Y0167299D02*
X0041152Y0167299D01*
X0044629Y0167299D02*
X0087896Y0167299D01*
X0089430Y0166101D02*
X0045888Y0166101D01*
X0046364Y0164902D02*
X0059971Y0164902D01*
X0059268Y0163703D02*
X0046364Y0163703D01*
X0042221Y0160500D02*
X0063627Y0160500D01*
X0059268Y0158100D02*
X0059268Y0156802D01*
X0060322Y0155747D01*
X0066932Y0155747D01*
X0066973Y0155789D01*
X0067015Y0155747D01*
X0073624Y0155747D01*
X0074679Y0156802D01*
X0074679Y0157100D01*
X0078065Y0157100D01*
X0079073Y0156092D01*
X0079073Y0153051D01*
X0078836Y0153288D01*
X0077628Y0153789D01*
X0076319Y0153789D01*
X0075136Y0153299D01*
X0075136Y0153805D01*
X0074081Y0154859D01*
X0067866Y0154859D01*
X0066973Y0153967D01*
X0066081Y0154859D01*
X0059866Y0154859D01*
X0059187Y0154180D01*
X0055267Y0158100D01*
X0059268Y0158100D01*
X0059268Y0157711D02*
X0055656Y0157711D01*
X0056855Y0156512D02*
X0059557Y0156512D01*
X0058054Y0155314D02*
X0079073Y0155314D01*
X0079073Y0154115D02*
X0074825Y0154115D01*
X0074390Y0156512D02*
X0078653Y0156512D01*
X0076973Y0150500D02*
X0070973Y0150500D01*
X0067122Y0154115D02*
X0066825Y0154115D01*
X0062973Y0150500D02*
X0059473Y0150500D01*
X0051973Y0158000D01*
X0042162Y0158000D01*
X0042103Y0158059D01*
X0042221Y0160500D02*
X0042103Y0160618D01*
X0042103Y0155500D02*
X0050973Y0155500D01*
X0056973Y0149500D01*
X0056973Y0143000D01*
X0059473Y0140500D01*
X0062973Y0140500D01*
X0059373Y0144367D02*
X0059373Y0146633D01*
X0059866Y0146141D01*
X0066081Y0146141D01*
X0066973Y0147033D01*
X0067866Y0146141D01*
X0074081Y0146141D01*
X0075136Y0147195D01*
X0075136Y0147701D01*
X0076319Y0147211D01*
X0077628Y0147211D01*
X0078836Y0147712D01*
X0079073Y0147949D01*
X0079073Y0143051D01*
X0078836Y0143288D01*
X0077628Y0143789D01*
X0076319Y0143789D01*
X0075136Y0143299D01*
X0075136Y0143805D01*
X0074081Y0144859D01*
X0067866Y0144859D01*
X0066973Y0143967D01*
X0066081Y0144859D01*
X0059866Y0144859D01*
X0059373Y0144367D01*
X0059373Y0144527D02*
X0059534Y0144527D01*
X0059373Y0145726D02*
X0079073Y0145726D01*
X0079073Y0146924D02*
X0074865Y0146924D01*
X0074413Y0144527D02*
X0079073Y0144527D01*
X0079073Y0143329D02*
X0078738Y0143329D01*
X0076973Y0140500D02*
X0070973Y0140500D01*
X0075136Y0143329D02*
X0075208Y0143329D01*
X0075136Y0137336D02*
X0076017Y0137336D01*
X0077930Y0137336D02*
X0079073Y0137336D01*
X0085873Y0137336D02*
X0095773Y0137336D01*
X0095773Y0136138D02*
X0085873Y0136138D01*
X0085873Y0134939D02*
X0095773Y0134939D01*
X0095773Y0133741D02*
X0085873Y0133741D01*
X0085873Y0132542D02*
X0095773Y0132542D01*
X0095773Y0131344D02*
X0085873Y0131344D01*
X0085799Y0130145D02*
X0095773Y0130145D01*
X0095773Y0128947D02*
X0092171Y0128947D01*
X0092436Y0127748D02*
X0095773Y0127748D01*
X0095773Y0126550D02*
X0092436Y0126550D01*
X0092436Y0124153D02*
X0095773Y0124153D01*
X0095773Y0125351D02*
X0089055Y0125351D01*
X0089054Y0124153D02*
X0087892Y0124153D01*
X0087892Y0122954D02*
X0089054Y0122954D01*
X0089054Y0121756D02*
X0087892Y0121756D01*
X0085034Y0121756D02*
X0084196Y0121756D01*
X0084011Y0120557D02*
X0095773Y0120557D01*
X0095773Y0121756D02*
X0091913Y0121756D01*
X0092436Y0122954D02*
X0095773Y0122954D01*
X0089054Y0126550D02*
X0087892Y0126550D01*
X0087892Y0127748D02*
X0089054Y0127748D01*
X0089054Y0128947D02*
X0087892Y0128947D01*
X0085873Y0138535D02*
X0095773Y0138535D01*
X0095773Y0139733D02*
X0085873Y0139733D01*
X0085873Y0140932D02*
X0095836Y0140932D01*
X0097934Y0142130D02*
X0085873Y0142130D01*
X0085873Y0143329D02*
X0098984Y0143329D01*
X0099573Y0144527D02*
X0085873Y0144527D01*
X0085873Y0145726D02*
X0099573Y0145726D01*
X0099573Y0146924D02*
X0085873Y0146924D01*
X0085873Y0148123D02*
X0098956Y0148123D01*
X0097758Y0149321D02*
X0085873Y0149321D01*
X0085873Y0150520D02*
X0096559Y0150520D01*
X0095361Y0151718D02*
X0085873Y0151718D01*
X0085873Y0152917D02*
X0094162Y0152917D01*
X0092964Y0154115D02*
X0085873Y0154115D01*
X0085873Y0155314D02*
X0091765Y0155314D01*
X0091973Y0158500D02*
X0101973Y0148500D01*
X0101973Y0142924D01*
X0100073Y0141024D01*
X0100073Y0139024D01*
X0105950Y0144900D02*
X0105973Y0144924D01*
X0105973Y0148000D01*
X0096973Y0157000D01*
X0091973Y0158500D02*
X0091973Y0161000D01*
X0086886Y0158909D02*
X0085570Y0158909D01*
X0085873Y0157711D02*
X0087484Y0157711D01*
X0088683Y0156512D02*
X0085873Y0156512D01*
X0086473Y0160108D02*
X0084674Y0160108D01*
X0083475Y0161306D02*
X0086473Y0161306D01*
X0086644Y0162505D02*
X0082277Y0162505D01*
X0080624Y0163703D02*
X0087140Y0163703D01*
X0088097Y0164902D02*
X0073975Y0164902D01*
X0086969Y0173292D02*
X0037363Y0173292D01*
X0037354Y0173349D02*
X0037061Y0174251D01*
X0036630Y0175097D01*
X0036072Y0175865D01*
X0035401Y0176536D01*
X0034633Y0177094D01*
X0033788Y0177524D01*
X0032885Y0177818D01*
X0032073Y0177946D01*
X0032073Y0172537D01*
X0037483Y0172537D01*
X0037354Y0173349D01*
X0036939Y0174490D02*
X0087685Y0174490D01*
X0088920Y0175689D02*
X0036200Y0175689D01*
X0034917Y0176887D02*
X0116073Y0176887D01*
X0116073Y0175689D02*
X0114446Y0175689D01*
X0115979Y0174490D02*
X0116073Y0174490D01*
X0118473Y0174000D02*
X0121473Y0171000D01*
X0136473Y0171000D01*
X0139473Y0168000D01*
X0139473Y0164500D01*
X0143832Y0164902D02*
X0148892Y0164902D01*
X0150055Y0164902D02*
X0185073Y0164902D01*
X0185073Y0163703D02*
X0153632Y0163703D01*
X0153632Y0162505D02*
X0185073Y0162505D01*
X0185073Y0161306D02*
X0153400Y0161306D01*
X0153332Y0160108D02*
X0185073Y0160108D01*
X0185073Y0158909D02*
X0153832Y0158909D01*
X0153832Y0157711D02*
X0185073Y0157711D01*
X0185073Y0156512D02*
X0153832Y0156512D01*
X0153832Y0155314D02*
X0185073Y0155314D01*
X0185073Y0154115D02*
X0153832Y0154115D01*
X0153357Y0152917D02*
X0185073Y0152917D01*
X0185073Y0151718D02*
X0147762Y0151718D01*
X0147627Y0150520D02*
X0185073Y0150520D01*
X0185073Y0149321D02*
X0146946Y0149321D01*
X0148129Y0148123D02*
X0145762Y0148123D01*
X0145762Y0146924D02*
X0147311Y0146924D01*
X0142473Y0147500D02*
X0139973Y0145000D01*
X0135973Y0145000D01*
X0133873Y0142900D01*
X0133873Y0139024D01*
X0139973Y0141000D02*
X0142973Y0144000D01*
X0151473Y0144000D01*
X0147311Y0140932D02*
X0143299Y0140932D01*
X0142373Y0139733D02*
X0148273Y0139733D01*
X0145729Y0137336D02*
X0142373Y0137336D01*
X0142373Y0136138D02*
X0145449Y0136138D01*
X0145449Y0134939D02*
X0142373Y0134939D01*
X0142373Y0133741D02*
X0145449Y0133741D01*
X0145449Y0132542D02*
X0142373Y0132542D01*
X0142373Y0131344D02*
X0145449Y0131344D01*
X0145449Y0130145D02*
X0142373Y0130145D01*
X0142373Y0128947D02*
X0145449Y0128947D01*
X0145449Y0127748D02*
X0142260Y0127748D01*
X0141417Y0126550D02*
X0145150Y0126550D01*
X0143930Y0125351D02*
X0140219Y0125351D01*
X0138684Y0124153D02*
X0142732Y0124153D01*
X0141533Y0122954D02*
X0137973Y0122954D01*
X0137973Y0123276D02*
X0133873Y0123276D01*
X0137973Y0123276D01*
X0133873Y0123276D02*
X0133873Y0123276D01*
X0133873Y0120126D02*
X0133999Y0120000D01*
X0141973Y0120000D01*
X0146473Y0124500D01*
X0149473Y0124500D01*
X0151973Y0127000D01*
X0151973Y0132374D01*
X0153847Y0130500D01*
X0159473Y0130500D01*
X0160473Y0129500D01*
X0162973Y0129500D01*
X0158811Y0127748D02*
X0158498Y0127748D01*
X0158811Y0126550D02*
X0154373Y0126550D01*
X0153719Y0125351D02*
X0159655Y0125351D01*
X0159461Y0122954D02*
X0151322Y0122954D01*
X0152520Y0124153D02*
X0185073Y0124153D01*
X0185073Y0125351D02*
X0173584Y0125351D01*
X0174887Y0126550D02*
X0185073Y0126550D01*
X0185073Y0127748D02*
X0174936Y0127748D01*
X0174936Y0130145D02*
X0185073Y0130145D01*
X0185073Y0128947D02*
X0171555Y0128947D01*
X0171554Y0130145D02*
X0170392Y0130145D01*
X0170392Y0131344D02*
X0171554Y0131344D01*
X0171554Y0132542D02*
X0170392Y0132542D01*
X0166199Y0133741D02*
X0185073Y0133741D01*
X0185073Y0134939D02*
X0158498Y0134939D01*
X0158498Y0133741D02*
X0159747Y0133741D01*
X0158498Y0136138D02*
X0185073Y0136138D01*
X0185073Y0137336D02*
X0158218Y0137336D01*
X0158892Y0140932D02*
X0160054Y0140932D01*
X0160054Y0142130D02*
X0158892Y0142130D01*
X0158892Y0143329D02*
X0160054Y0143329D01*
X0160055Y0144527D02*
X0185073Y0144527D01*
X0185073Y0143329D02*
X0163436Y0143329D01*
X0163436Y0142130D02*
X0185073Y0142130D01*
X0185073Y0140932D02*
X0163356Y0140932D01*
X0163436Y0145726D02*
X0185073Y0145726D01*
X0185073Y0146924D02*
X0163394Y0146924D01*
X0162181Y0148123D02*
X0185073Y0148123D01*
X0189873Y0148123D02*
X0191073Y0148123D01*
X0191073Y0149321D02*
X0189873Y0149321D01*
X0189873Y0150520D02*
X0191073Y0150520D01*
X0191073Y0151718D02*
X0189873Y0151718D01*
X0189873Y0152917D02*
X0191073Y0152917D01*
X0191073Y0154115D02*
X0189873Y0154115D01*
X0189873Y0155314D02*
X0191073Y0155314D01*
X0191073Y0156512D02*
X0189873Y0156512D01*
X0189873Y0157711D02*
X0191073Y0157711D01*
X0191073Y0158909D02*
X0189873Y0158909D01*
X0189873Y0160108D02*
X0191073Y0160108D01*
X0191073Y0161306D02*
X0189873Y0161306D01*
X0189873Y0162505D02*
X0191073Y0162505D01*
X0191073Y0163703D02*
X0189873Y0163703D01*
X0189873Y0164902D02*
X0191073Y0164902D01*
X0191073Y0166101D02*
X0189873Y0166101D01*
X0189873Y0167299D02*
X0191073Y0167299D01*
X0191073Y0168498D02*
X0189873Y0168498D01*
X0189873Y0169477D02*
X0189508Y0170359D01*
X0188833Y0171035D01*
X0186333Y0173535D01*
X0185451Y0173900D01*
X0180416Y0173900D01*
X0174139Y0179728D01*
X0173833Y0180035D01*
X0173790Y0180052D01*
X0173757Y0180084D01*
X0173351Y0180234D01*
X0172951Y0180400D01*
X0172905Y0180400D01*
X0172862Y0180416D01*
X0172429Y0180400D01*
X0146967Y0180400D01*
X0136333Y0191035D01*
X0135451Y0191400D01*
X0125725Y0191400D01*
X0125336Y0191788D01*
X0124128Y0192289D01*
X0122819Y0192289D01*
X0121610Y0191788D01*
X0120685Y0190863D01*
X0120184Y0189654D01*
X0120184Y0188346D01*
X0120685Y0187137D01*
X0121610Y0186212D01*
X0122819Y0185711D01*
X0124128Y0185711D01*
X0125336Y0186212D01*
X0125725Y0186600D01*
X0133979Y0186600D01*
X0143939Y0176641D01*
X0144614Y0175965D01*
X0145496Y0175600D01*
X0171531Y0175600D01*
X0177808Y0169772D01*
X0178114Y0169465D01*
X0178156Y0169448D01*
X0178190Y0169416D01*
X0178596Y0169266D01*
X0178996Y0169100D01*
X0179042Y0169100D01*
X0179085Y0169084D01*
X0179518Y0169100D01*
X0183979Y0169100D01*
X0185073Y0168006D01*
X0185073Y0122251D01*
X0184685Y0121863D01*
X0184184Y0120654D01*
X0184184Y0119346D01*
X0184685Y0118137D01*
X0185610Y0117212D01*
X0186819Y0116711D01*
X0188128Y0116711D01*
X0189336Y0117212D01*
X0190262Y0118137D01*
X0190762Y0119346D01*
X0190762Y0120654D01*
X0190262Y0121863D01*
X0189873Y0122251D01*
X0189873Y0169477D01*
X0189783Y0169696D02*
X0191073Y0169696D01*
X0191073Y0170895D02*
X0188973Y0170895D01*
X0187774Y0172093D02*
X0190486Y0172093D01*
X0189288Y0173292D02*
X0186576Y0173292D01*
X0184973Y0171500D02*
X0187473Y0169000D01*
X0187473Y0120000D01*
X0184641Y0121756D02*
X0174936Y0121756D01*
X0174936Y0120557D02*
X0184184Y0120557D01*
X0184184Y0119359D02*
X0171555Y0119359D01*
X0171554Y0120557D02*
X0170392Y0120557D01*
X0170392Y0121756D02*
X0171554Y0121756D01*
X0171554Y0122954D02*
X0170392Y0122954D01*
X0170392Y0125351D02*
X0171554Y0125351D01*
X0171554Y0126550D02*
X0170392Y0126550D01*
X0170392Y0127748D02*
X0171554Y0127748D01*
X0168362Y0125351D02*
X0166291Y0125351D01*
X0166486Y0122954D02*
X0167827Y0122954D01*
X0170392Y0118160D02*
X0171554Y0118160D01*
X0171554Y0116962D02*
X0170392Y0116962D01*
X0170392Y0115763D02*
X0171554Y0115763D01*
X0167155Y0115763D02*
X0167136Y0115763D01*
X0162973Y0119000D02*
X0160473Y0119000D01*
X0159473Y0118000D01*
X0153347Y0118000D01*
X0151973Y0116626D01*
X0146623Y0116976D01*
X0133873Y0116976D01*
X0137607Y0114565D02*
X0145449Y0114565D01*
X0145449Y0113366D02*
X0130897Y0113366D01*
X0132211Y0112168D02*
X0145449Y0112168D01*
X0146423Y0110969D02*
X0133813Y0110969D01*
X0130973Y0109000D02*
X0128873Y0111100D01*
X0127997Y0111100D01*
X0128597Y0110500D01*
X0127997Y0111100D02*
X0127997Y0114976D01*
X0127973Y0116500D01*
X0124847Y0111100D02*
X0124847Y0107874D01*
X0123723Y0106750D01*
X0122973Y0106750D01*
X0120973Y0105250D01*
X0118023Y0103778D02*
X0104645Y0103778D01*
X0101973Y0104500D02*
X0101973Y0099500D01*
X0106332Y0097785D02*
X0110019Y0097785D01*
X0110110Y0096587D02*
X0106332Y0096587D01*
X0105329Y0095388D02*
X0107968Y0095388D01*
X0107573Y0094190D02*
X0106101Y0094190D01*
X0106132Y0092991D02*
X0107573Y0092991D01*
X0107573Y0091793D02*
X0102555Y0091793D01*
X0101392Y0091793D02*
X0090074Y0091793D01*
X0089473Y0090594D02*
X0097814Y0090594D01*
X0097814Y0089396D02*
X0089469Y0089396D01*
X0088973Y0088197D02*
X0098110Y0088197D01*
X0101392Y0088197D02*
X0102554Y0088197D01*
X0102554Y0089396D02*
X0101392Y0089396D01*
X0101392Y0090594D02*
X0102554Y0090594D01*
X0106132Y0090594D02*
X0107573Y0090594D01*
X0107573Y0089396D02*
X0106132Y0089396D01*
X0105837Y0088197D02*
X0107573Y0088197D01*
X0107078Y0086999D02*
X0088250Y0086999D01*
X0086999Y0085800D02*
X0105879Y0085800D01*
X0104832Y0084602D02*
X0087650Y0084602D01*
X0088724Y0083403D02*
X0104573Y0083403D01*
X0104573Y0082205D02*
X0089220Y0082205D01*
X0089473Y0081006D02*
X0104573Y0081006D01*
X0104573Y0079808D02*
X0089473Y0079808D01*
X0089143Y0078609D02*
X0098880Y0078609D01*
X0098882Y0078618D02*
X0098773Y0078211D01*
X0098773Y0076200D01*
X0104173Y0076200D01*
X0104173Y0079600D01*
X0100163Y0079600D01*
X0099756Y0079491D01*
X0099391Y0079280D01*
X0099093Y0078982D01*
X0098882Y0078618D01*
X0098773Y0077411D02*
X0088647Y0077411D01*
X0087464Y0076212D02*
X0098773Y0076212D01*
X0098773Y0073815D02*
X0093854Y0073815D01*
X0095665Y0072617D02*
X0098873Y0072617D01*
X0096864Y0071418D02*
X0104573Y0071418D01*
X0104573Y0072617D02*
X0104173Y0072617D01*
X0104173Y0073815D02*
X0104573Y0073815D01*
X0104173Y0075014D02*
X0087238Y0075014D01*
X0080709Y0075014D02*
X0070136Y0075014D01*
X0070136Y0076212D02*
X0080483Y0076212D01*
X0079300Y0077411D02*
X0068373Y0077411D01*
X0068373Y0078609D02*
X0077970Y0078609D01*
X0076772Y0079808D02*
X0068373Y0079808D01*
X0068373Y0081006D02*
X0075573Y0081006D01*
X0074374Y0082205D02*
X0068373Y0082205D01*
X0068373Y0083403D02*
X0073176Y0083403D01*
X0071977Y0084602D02*
X0070042Y0084602D01*
X0071973Y0088000D02*
X0065973Y0088000D01*
X0065973Y0073000D01*
X0065973Y0063000D01*
X0070136Y0063029D02*
X0098899Y0063029D01*
X0098659Y0060632D02*
X0095526Y0060632D01*
X0096132Y0059433D02*
X0097098Y0059433D01*
X0092554Y0059433D02*
X0091392Y0059433D01*
X0091392Y0058234D02*
X0092554Y0058234D01*
X0091392Y0057581D02*
X0091392Y0060962D01*
X0089204Y0060962D01*
X0088797Y0060853D01*
X0088432Y0060643D01*
X0088134Y0060345D01*
X0087923Y0059980D01*
X0087814Y0059573D01*
X0087814Y0057581D01*
X0091392Y0057581D01*
X0091392Y0057036D02*
X0087746Y0057036D01*
X0087814Y0058234D02*
X0086547Y0058234D01*
X0085349Y0059433D02*
X0087814Y0059433D01*
X0088421Y0060632D02*
X0070136Y0060632D01*
X0070136Y0061830D02*
X0104573Y0061830D01*
X0106973Y0061830D02*
X0123243Y0061830D01*
X0123243Y0060632D02*
X0110887Y0060632D01*
X0110973Y0060546D02*
X0109919Y0061600D01*
X0106973Y0061600D01*
X0106973Y0062500D01*
X0109384Y0062500D01*
X0109791Y0062609D01*
X0110156Y0062820D01*
X0110454Y0063118D01*
X0110664Y0063482D01*
X0110773Y0063889D01*
X0110773Y0065900D01*
X0106973Y0065900D01*
X0106973Y0067100D01*
X0110773Y0067100D01*
X0110773Y0069111D01*
X0110664Y0069518D01*
X0110454Y0069882D01*
X0110156Y0070180D01*
X0109791Y0070391D01*
X0109384Y0070500D01*
X0106973Y0070500D01*
X0106973Y0071400D01*
X0109919Y0071400D01*
X0110973Y0072454D01*
X0110973Y0078746D01*
X0109919Y0079800D01*
X0106973Y0079800D01*
X0106973Y0083500D01*
X0109973Y0086500D01*
X0109973Y0094000D01*
X0110019Y0094000D01*
X0110019Y0092081D01*
X0113892Y0092081D01*
X0113892Y0090919D01*
X0110019Y0090919D01*
X0110019Y0088927D01*
X0110128Y0088520D01*
X0110339Y0088155D01*
X0110637Y0087857D01*
X0111001Y0087647D01*
X0111408Y0087538D01*
X0113892Y0087538D01*
X0113892Y0090919D01*
X0115054Y0090919D01*
X0115054Y0087538D01*
X0117538Y0087538D01*
X0117945Y0087647D01*
X0118310Y0087857D01*
X0118608Y0088155D01*
X0118819Y0088520D01*
X0118928Y0088927D01*
X0118928Y0090919D01*
X0115055Y0090919D01*
X0115055Y0092081D01*
X0118928Y0092081D01*
X0118928Y0094000D01*
X0123314Y0094000D01*
X0123314Y0092081D01*
X0126892Y0092081D01*
X0126892Y0090919D01*
X0123314Y0090919D01*
X0123314Y0088927D01*
X0123423Y0088520D01*
X0123634Y0088155D01*
X0123932Y0087857D01*
X0124297Y0087647D01*
X0124704Y0087538D01*
X0126892Y0087538D01*
X0126892Y0090919D01*
X0128054Y0090919D01*
X0128054Y0087538D01*
X0130243Y0087538D01*
X0130650Y0087647D01*
X0131015Y0087857D01*
X0131313Y0088155D01*
X0131523Y0088520D01*
X0131632Y0088927D01*
X0131632Y0090919D01*
X0128055Y0090919D01*
X0128055Y0092081D01*
X0131632Y0092081D01*
X0131632Y0094000D01*
X0132473Y0094000D01*
X0132473Y0086500D01*
X0134973Y0084000D01*
X0156473Y0084000D01*
X0156473Y0043000D01*
X0109473Y0043000D01*
X0106973Y0045500D01*
X0106973Y0053200D01*
X0109919Y0053200D01*
X0110973Y0054254D01*
X0110973Y0060546D01*
X0110973Y0059433D02*
X0123243Y0059433D01*
X0123243Y0059203D02*
X0123352Y0058796D01*
X0123563Y0058431D01*
X0123861Y0058133D01*
X0124226Y0057922D01*
X0124633Y0057813D01*
X0128574Y0057813D01*
X0128574Y0065900D01*
X0123243Y0065900D01*
X0123243Y0059203D01*
X0123760Y0058234D02*
X0110973Y0058234D01*
X0110973Y0057036D02*
X0156473Y0057036D01*
X0156473Y0058234D02*
X0134589Y0058234D01*
X0134487Y0058133D02*
X0134785Y0058431D01*
X0134996Y0058796D01*
X0135105Y0059203D01*
X0135105Y0065900D01*
X0129774Y0065900D01*
X0129774Y0057813D01*
X0133715Y0057813D01*
X0134122Y0057922D01*
X0134487Y0058133D01*
X0135105Y0059433D02*
X0156473Y0059433D01*
X0156473Y0060632D02*
X0135105Y0060632D01*
X0135105Y0061830D02*
X0156473Y0061830D01*
X0156473Y0063029D02*
X0135105Y0063029D01*
X0135105Y0064227D02*
X0156473Y0064227D01*
X0156473Y0065426D02*
X0135105Y0065426D01*
X0135105Y0067100D02*
X0135105Y0073797D01*
X0134996Y0074204D01*
X0134785Y0074569D01*
X0134487Y0074867D01*
X0134122Y0075078D01*
X0133715Y0075187D01*
X0129774Y0075187D01*
X0129774Y0067100D01*
X0128574Y0067100D01*
X0128574Y0065900D01*
X0129774Y0065900D01*
X0129774Y0067100D01*
X0135105Y0067100D01*
X0135105Y0067823D02*
X0156473Y0067823D01*
X0156473Y0069021D02*
X0135105Y0069021D01*
X0135105Y0070220D02*
X0156473Y0070220D01*
X0156473Y0071418D02*
X0135105Y0071418D01*
X0135105Y0072617D02*
X0156473Y0072617D01*
X0156473Y0073815D02*
X0135100Y0073815D01*
X0134233Y0075014D02*
X0156473Y0075014D01*
X0156473Y0076212D02*
X0110973Y0076212D01*
X0110973Y0075014D02*
X0124115Y0075014D01*
X0124226Y0075078D02*
X0123861Y0074867D01*
X0123563Y0074569D01*
X0123352Y0074204D01*
X0123243Y0073797D01*
X0123243Y0067100D01*
X0128574Y0067100D01*
X0128574Y0075187D01*
X0124633Y0075187D01*
X0124226Y0075078D01*
X0123248Y0073815D02*
X0110973Y0073815D01*
X0110973Y0072617D02*
X0123243Y0072617D01*
X0123243Y0071418D02*
X0109937Y0071418D01*
X0110088Y0070220D02*
X0123243Y0070220D01*
X0123243Y0069021D02*
X0110773Y0069021D01*
X0110773Y0067823D02*
X0123243Y0067823D01*
X0123243Y0065426D02*
X0110773Y0065426D01*
X0110773Y0064227D02*
X0123243Y0064227D01*
X0123243Y0063029D02*
X0110365Y0063029D01*
X0106973Y0066624D02*
X0128574Y0066624D01*
X0128574Y0065426D02*
X0129774Y0065426D01*
X0129774Y0066624D02*
X0156473Y0066624D01*
X0163373Y0066624D02*
X0165507Y0066624D01*
X0165684Y0067823D02*
X0163373Y0067823D01*
X0163373Y0069021D02*
X0165114Y0069021D01*
X0165114Y0070220D02*
X0163373Y0070220D01*
X0163373Y0071418D02*
X0165114Y0071418D01*
X0165114Y0072617D02*
X0163373Y0072617D01*
X0163373Y0073815D02*
X0165114Y0073815D01*
X0165520Y0075014D02*
X0163373Y0075014D01*
X0163373Y0076212D02*
X0176073Y0076212D01*
X0176073Y0077411D02*
X0163373Y0077411D01*
X0163373Y0078609D02*
X0166437Y0078609D01*
X0165346Y0079808D02*
X0163373Y0079808D01*
X0163373Y0081006D02*
X0165314Y0081006D01*
X0163373Y0082205D02*
X0168892Y0082205D01*
X0169473Y0082500D02*
X0169713Y0083000D01*
X0177973Y0083000D01*
X0180473Y0085500D01*
X0184139Y0085500D01*
X0180282Y0085500D01*
X0180282Y0085500D01*
X0184139Y0085500D01*
X0184139Y0085500D01*
X0184288Y0082500D02*
X0189473Y0082500D01*
X0190973Y0084000D01*
X0192340Y0081006D02*
X0192412Y0081006D01*
X0192401Y0081032D02*
X0192591Y0080574D01*
X0200073Y0073092D01*
X0200073Y0067824D01*
X0200241Y0067418D01*
X0189495Y0067418D01*
X0188441Y0066364D01*
X0188441Y0060426D01*
X0186539Y0062329D01*
X0186539Y0066968D01*
X0187837Y0066968D01*
X0188891Y0068022D01*
X0188891Y0068931D01*
X0189110Y0068712D01*
X0190319Y0068211D01*
X0191628Y0068211D01*
X0192836Y0068712D01*
X0193762Y0069637D01*
X0194262Y0070846D01*
X0194262Y0071211D01*
X0194628Y0071211D01*
X0195836Y0071712D01*
X0196762Y0072637D01*
X0197262Y0073846D01*
X0197262Y0075154D01*
X0196762Y0076363D01*
X0195836Y0077288D01*
X0194628Y0077789D01*
X0194078Y0077789D01*
X0191156Y0080711D01*
X0191628Y0080711D01*
X0192401Y0081032D01*
X0192060Y0079808D02*
X0193357Y0079808D01*
X0193258Y0078609D02*
X0194556Y0078609D01*
X0195541Y0077411D02*
X0195754Y0077411D01*
X0196824Y0076212D02*
X0196953Y0076212D01*
X0197262Y0075014D02*
X0198151Y0075014D01*
X0197250Y0073815D02*
X0199350Y0073815D01*
X0200073Y0072617D02*
X0196741Y0072617D01*
X0195128Y0071418D02*
X0200073Y0071418D01*
X0200073Y0070220D02*
X0194003Y0070220D01*
X0193146Y0069021D02*
X0200073Y0069021D01*
X0200074Y0067823D02*
X0188692Y0067823D01*
X0188701Y0066624D02*
X0186539Y0066624D01*
X0186539Y0065426D02*
X0188441Y0065426D01*
X0188441Y0064227D02*
X0186539Y0064227D01*
X0186539Y0063029D02*
X0188441Y0063029D01*
X0188441Y0061830D02*
X0187037Y0061830D01*
X0188236Y0060632D02*
X0188441Y0060632D01*
X0191225Y0062665D02*
X0191225Y0057748D01*
X0192973Y0056000D01*
X0192973Y0041000D01*
X0203473Y0030500D01*
X0234473Y0030500D01*
X0244473Y0020500D01*
X0244473Y0015500D01*
X0240703Y0011493D02*
X0238244Y0011493D01*
X0239263Y0012691D02*
X0239684Y0012691D01*
X0242669Y0010294D02*
X0236277Y0010294D01*
X0232669Y0010294D02*
X0226277Y0010294D01*
X0228244Y0011493D02*
X0230703Y0011493D01*
X0229684Y0012691D02*
X0229263Y0012691D01*
X0224473Y0015500D02*
X0224473Y0020500D01*
X0219473Y0025500D01*
X0201473Y0025500D01*
X0187973Y0039000D01*
X0187973Y0054000D01*
X0178473Y0063500D01*
X0178473Y0071000D01*
X0180375Y0072902D01*
X0184139Y0072902D01*
X0184139Y0069752D02*
X0184139Y0061335D01*
X0190473Y0055000D01*
X0190473Y0040000D01*
X0202473Y0028000D01*
X0226973Y0028000D01*
X0234473Y0020500D01*
X0234473Y0015500D01*
X0222669Y0010294D02*
X0206277Y0010294D01*
X0205567Y0010000D02*
X0207589Y0010837D01*
X0209136Y0012384D01*
X0209973Y0014406D01*
X0209973Y0016594D01*
X0209136Y0018615D01*
X0207589Y0020163D01*
X0205567Y0021000D01*
X0203379Y0021000D01*
X0201358Y0020163D01*
X0199811Y0018615D01*
X0199373Y0017558D01*
X0199006Y0018278D01*
X0198516Y0018953D01*
X0197926Y0019543D01*
X0197251Y0020033D01*
X0196508Y0020412D01*
X0195714Y0020669D01*
X0194890Y0020800D01*
X0194873Y0020800D01*
X0194873Y0015900D01*
X0194073Y0015900D01*
X0194073Y0015100D01*
X0194873Y0015100D01*
X0194873Y0010200D01*
X0194890Y0010200D01*
X0195714Y0010330D01*
X0196508Y0010588D01*
X0197251Y0010967D01*
X0197926Y0011457D01*
X0198516Y0012047D01*
X0199006Y0012722D01*
X0199373Y0013442D01*
X0199811Y0012384D01*
X0201358Y0010837D01*
X0203379Y0010000D01*
X0205567Y0010000D01*
X0202669Y0010294D02*
X0195484Y0010294D01*
X0194873Y0010294D02*
X0194073Y0010294D01*
X0193462Y0010294D02*
X0185484Y0010294D01*
X0184873Y0010294D02*
X0184073Y0010294D01*
X0183462Y0010294D02*
X0176277Y0010294D01*
X0178244Y0011493D02*
X0180985Y0011493D01*
X0179963Y0012691D02*
X0179263Y0012691D01*
X0184073Y0012691D02*
X0184873Y0012691D01*
X0184873Y0011493D02*
X0184073Y0011493D01*
X0184073Y0013890D02*
X0184873Y0013890D01*
X0184873Y0015088D02*
X0184073Y0015088D01*
X0184873Y0015900D02*
X0194073Y0015900D01*
X0194073Y0020800D01*
X0194056Y0020800D01*
X0193232Y0020669D01*
X0192439Y0020412D01*
X0191696Y0020033D01*
X0191021Y0019543D01*
X0190431Y0018953D01*
X0189940Y0018278D01*
X0189562Y0017534D01*
X0189473Y0017263D01*
X0189385Y0017534D01*
X0189006Y0018278D01*
X0188516Y0018953D01*
X0187926Y0019543D01*
X0187251Y0020033D01*
X0186508Y0020412D01*
X0185714Y0020669D01*
X0184890Y0020800D01*
X0184873Y0020800D01*
X0184873Y0015900D01*
X0184873Y0016287D02*
X0184073Y0016287D01*
X0184073Y0017485D02*
X0184873Y0017485D01*
X0184873Y0018684D02*
X0184073Y0018684D01*
X0184073Y0019882D02*
X0184873Y0019882D01*
X0187459Y0019882D02*
X0191488Y0019882D01*
X0190235Y0018684D02*
X0188711Y0018684D01*
X0189401Y0017485D02*
X0189546Y0017485D01*
X0194073Y0017485D02*
X0194873Y0017485D01*
X0194873Y0016287D02*
X0194073Y0016287D01*
X0194073Y0015088D02*
X0194873Y0015088D01*
X0194873Y0013890D02*
X0194073Y0013890D01*
X0194073Y0012691D02*
X0194873Y0012691D01*
X0194873Y0011493D02*
X0194073Y0011493D01*
X0190985Y0011493D02*
X0187961Y0011493D01*
X0188984Y0012691D02*
X0189963Y0012691D01*
X0197961Y0011493D02*
X0200703Y0011493D01*
X0199684Y0012691D02*
X0198984Y0012691D01*
X0198711Y0018684D02*
X0199879Y0018684D01*
X0201077Y0019882D02*
X0197459Y0019882D01*
X0194873Y0019882D02*
X0194073Y0019882D01*
X0194073Y0018684D02*
X0194873Y0018684D01*
X0200102Y0023478D02*
X0176304Y0023478D01*
X0177416Y0022279D02*
X0219300Y0022279D01*
X0220499Y0021081D02*
X0177873Y0021081D01*
X0177873Y0019882D02*
X0181488Y0019882D01*
X0180235Y0018684D02*
X0179068Y0018684D01*
X0175105Y0024676D02*
X0198903Y0024676D01*
X0197705Y0025875D02*
X0173907Y0025875D01*
X0172873Y0027073D02*
X0196506Y0027073D01*
X0195307Y0028272D02*
X0190896Y0028272D01*
X0191900Y0029470D02*
X0194109Y0029470D01*
X0192910Y0030669D02*
X0192262Y0030669D01*
X0188973Y0031000D02*
X0188973Y0034500D01*
X0185473Y0038000D01*
X0185473Y0046000D01*
X0184473Y0047000D01*
X0181595Y0048646D02*
X0172873Y0048646D01*
X0172873Y0047448D02*
X0181184Y0047448D01*
X0179071Y0046249D02*
X0172873Y0046249D01*
X0172873Y0045051D02*
X0178349Y0045051D01*
X0178184Y0043852D02*
X0172873Y0043852D01*
X0172873Y0042654D02*
X0178471Y0042654D01*
X0179367Y0041455D02*
X0172873Y0041455D01*
X0172873Y0040257D02*
X0180573Y0040257D01*
X0180573Y0039058D02*
X0172873Y0039058D01*
X0172873Y0037860D02*
X0180439Y0037860D01*
X0178511Y0036661D02*
X0172873Y0036661D01*
X0172873Y0035463D02*
X0176785Y0035463D01*
X0176230Y0034264D02*
X0172873Y0034264D01*
X0172873Y0033066D02*
X0176184Y0033066D01*
X0176590Y0031867D02*
X0172873Y0031867D01*
X0172873Y0030669D02*
X0177714Y0030669D01*
X0181233Y0030669D02*
X0185684Y0030669D01*
X0185773Y0031867D02*
X0182357Y0031867D01*
X0182762Y0033066D02*
X0186388Y0033066D01*
X0185815Y0034264D02*
X0183632Y0034264D01*
X0182973Y0037000D02*
X0179473Y0033500D01*
X0182973Y0037000D02*
X0182973Y0042500D01*
X0181473Y0044000D01*
X0182747Y0049845D02*
X0172873Y0049845D01*
X0172873Y0051043D02*
X0185573Y0051043D01*
X0185573Y0052242D02*
X0172432Y0052242D01*
X0171341Y0053440D02*
X0185139Y0053440D01*
X0183940Y0054639D02*
X0170143Y0054639D01*
X0168944Y0055837D02*
X0182742Y0055837D01*
X0181543Y0057036D02*
X0167746Y0057036D01*
X0166547Y0058234D02*
X0180345Y0058234D01*
X0179146Y0059433D02*
X0165349Y0059433D01*
X0165393Y0060632D02*
X0164150Y0060632D01*
X0163373Y0061830D02*
X0165314Y0061830D01*
X0163373Y0063029D02*
X0168892Y0063029D01*
X0170055Y0063029D02*
X0176073Y0063029D01*
X0176073Y0064227D02*
X0173632Y0064227D01*
X0173632Y0065426D02*
X0176073Y0065426D01*
X0176073Y0066624D02*
X0173440Y0066624D01*
X0173263Y0067823D02*
X0176073Y0067823D01*
X0176073Y0069021D02*
X0173832Y0069021D01*
X0175973Y0072500D02*
X0169713Y0072500D01*
X0169473Y0071500D01*
X0173427Y0075014D02*
X0175093Y0075014D01*
X0175973Y0072500D02*
X0178473Y0075000D01*
X0178473Y0080000D01*
X0180824Y0082350D01*
X0184139Y0082350D01*
X0184288Y0082500D01*
X0184139Y0079201D02*
X0189273Y0079201D01*
X0193973Y0074500D01*
X0190973Y0074000D02*
X0190973Y0071500D01*
X0190973Y0074000D02*
X0188922Y0076051D01*
X0184139Y0076051D01*
X0176073Y0078609D02*
X0172509Y0078609D01*
X0173600Y0079808D02*
X0176073Y0079808D01*
X0176292Y0081006D02*
X0173632Y0081006D01*
X0173632Y0083403D02*
X0178482Y0083403D01*
X0179383Y0084602D02*
X0179586Y0084602D01*
X0177284Y0082205D02*
X0170055Y0082205D01*
X0170054Y0081006D02*
X0168892Y0081006D01*
X0168892Y0079808D02*
X0170054Y0079808D01*
X0170054Y0078609D02*
X0168892Y0078609D01*
X0165314Y0083403D02*
X0163373Y0083403D01*
X0163469Y0084602D02*
X0165314Y0084602D01*
X0165608Y0085800D02*
X0164668Y0085800D01*
X0162472Y0086999D02*
X0135975Y0086999D01*
X0136473Y0086500D02*
X0134973Y0088000D01*
X0134973Y0094000D01*
X0135314Y0094000D01*
X0135314Y0092081D01*
X0138892Y0092081D01*
X0138892Y0090919D01*
X0135314Y0090919D01*
X0135314Y0088927D01*
X0135423Y0088520D01*
X0135634Y0088155D01*
X0135932Y0087857D01*
X0136297Y0087647D01*
X0136704Y0087538D01*
X0138892Y0087538D01*
X0138892Y0090919D01*
X0140054Y0090919D01*
X0140054Y0087538D01*
X0142243Y0087538D01*
X0142650Y0087647D01*
X0143015Y0087857D01*
X0143313Y0088155D01*
X0143523Y0088520D01*
X0143632Y0088927D01*
X0143632Y0090919D01*
X0140055Y0090919D01*
X0140055Y0092081D01*
X0143632Y0092081D01*
X0143632Y0094000D01*
X0147814Y0094000D01*
X0147814Y0092081D01*
X0151392Y0092081D01*
X0151392Y0090919D01*
X0147814Y0090919D01*
X0147814Y0088927D01*
X0147923Y0088520D01*
X0148134Y0088155D01*
X0148432Y0087857D01*
X0148797Y0087647D01*
X0149204Y0087538D01*
X0151392Y0087538D01*
X0151392Y0090919D01*
X0152554Y0090919D01*
X0152554Y0087538D01*
X0154743Y0087538D01*
X0155150Y0087647D01*
X0155515Y0087857D01*
X0155813Y0088155D01*
X0156023Y0088520D01*
X0156132Y0088927D01*
X0156132Y0090919D01*
X0152555Y0090919D01*
X0152555Y0092081D01*
X0156132Y0092081D01*
X0156132Y0094000D01*
X0161973Y0094000D01*
X0163473Y0092500D01*
X0163473Y0088000D01*
X0161973Y0086500D01*
X0136473Y0086500D01*
X0135610Y0088197D02*
X0134973Y0088197D01*
X0134973Y0089396D02*
X0135314Y0089396D01*
X0135314Y0090594D02*
X0134973Y0090594D01*
X0134973Y0091793D02*
X0138892Y0091793D01*
X0140055Y0091793D02*
X0151392Y0091793D01*
X0152555Y0091793D02*
X0163473Y0091793D01*
X0163473Y0090594D02*
X0156132Y0090594D01*
X0156132Y0089396D02*
X0163473Y0089396D01*
X0163473Y0088197D02*
X0155837Y0088197D01*
X0152554Y0088197D02*
X0151392Y0088197D01*
X0151392Y0089396D02*
X0152554Y0089396D01*
X0152554Y0090594D02*
X0151392Y0090594D01*
X0148110Y0088197D02*
X0143337Y0088197D01*
X0143632Y0089396D02*
X0147814Y0089396D01*
X0147814Y0090594D02*
X0143632Y0090594D01*
X0140054Y0090594D02*
X0138892Y0090594D01*
X0138892Y0089396D02*
X0140054Y0089396D01*
X0140054Y0088197D02*
X0138892Y0088197D01*
X0134372Y0084602D02*
X0108075Y0084602D01*
X0106973Y0083403D02*
X0156473Y0083403D01*
X0156473Y0082205D02*
X0106973Y0082205D01*
X0106973Y0081006D02*
X0156473Y0081006D01*
X0156473Y0079808D02*
X0106973Y0079808D01*
X0104573Y0078609D02*
X0104173Y0078609D01*
X0104173Y0077411D02*
X0104573Y0077411D01*
X0104573Y0076212D02*
X0104173Y0076212D01*
X0110973Y0077411D02*
X0156473Y0077411D01*
X0156473Y0078609D02*
X0110973Y0078609D01*
X0109274Y0085800D02*
X0133173Y0085800D01*
X0132473Y0086999D02*
X0109973Y0086999D01*
X0109973Y0088197D02*
X0110314Y0088197D01*
X0110019Y0089396D02*
X0109973Y0089396D01*
X0109973Y0090594D02*
X0110019Y0090594D01*
X0109973Y0091793D02*
X0113892Y0091793D01*
X0115055Y0091793D02*
X0126892Y0091793D01*
X0128055Y0091793D02*
X0132473Y0091793D01*
X0132473Y0092991D02*
X0131632Y0092991D01*
X0134973Y0092991D02*
X0135314Y0092991D01*
X0135405Y0096587D02*
X0131541Y0096587D01*
X0131632Y0097785D02*
X0135314Y0097785D01*
X0135314Y0100081D02*
X0138892Y0100081D01*
X0138892Y0103462D01*
X0136704Y0103462D01*
X0136297Y0103353D01*
X0135932Y0103143D01*
X0135634Y0102845D01*
X0135423Y0102480D01*
X0135314Y0102073D01*
X0135314Y0100081D01*
X0135314Y0100182D02*
X0131632Y0100182D01*
X0131632Y0101381D02*
X0135314Y0101381D01*
X0135481Y0102579D02*
X0131466Y0102579D01*
X0131867Y0103778D02*
X0123924Y0103778D01*
X0124297Y0103353D02*
X0123932Y0103143D01*
X0123634Y0102845D01*
X0123423Y0102480D01*
X0123314Y0102073D01*
X0123314Y0100081D01*
X0126892Y0100081D01*
X0126892Y0103462D01*
X0124704Y0103462D01*
X0124297Y0103353D01*
X0123481Y0102579D02*
X0122954Y0102579D01*
X0123314Y0101381D02*
X0118928Y0101381D01*
X0118928Y0100182D02*
X0123314Y0100182D01*
X0123314Y0097785D02*
X0118928Y0097785D01*
X0118836Y0096587D02*
X0123405Y0096587D01*
X0123314Y0092991D02*
X0118928Y0092991D01*
X0118928Y0090594D02*
X0123314Y0090594D01*
X0123314Y0089396D02*
X0118928Y0089396D01*
X0118632Y0088197D02*
X0123610Y0088197D01*
X0126892Y0088197D02*
X0128054Y0088197D01*
X0128054Y0089396D02*
X0126892Y0089396D01*
X0126892Y0090594D02*
X0128054Y0090594D01*
X0131632Y0090594D02*
X0132473Y0090594D01*
X0132473Y0089396D02*
X0131632Y0089396D01*
X0131337Y0088197D02*
X0132473Y0088197D01*
X0143632Y0092991D02*
X0147814Y0092991D01*
X0147905Y0096587D02*
X0143541Y0096587D01*
X0143632Y0097785D02*
X0147814Y0097785D01*
X0147814Y0100081D02*
X0151392Y0100081D01*
X0151392Y0103462D01*
X0149204Y0103462D01*
X0148797Y0103353D01*
X0148432Y0103143D01*
X0148134Y0102845D01*
X0147923Y0102480D01*
X0147814Y0102073D01*
X0147814Y0100081D01*
X0147814Y0100182D02*
X0143632Y0100182D01*
X0143632Y0101381D02*
X0147814Y0101381D01*
X0147981Y0102579D02*
X0143466Y0102579D01*
X0140054Y0102579D02*
X0138892Y0102579D01*
X0138892Y0101381D02*
X0140054Y0101381D01*
X0140054Y0100182D02*
X0138892Y0100182D01*
X0138892Y0098984D02*
X0128055Y0098984D01*
X0126892Y0098984D02*
X0115055Y0098984D01*
X0115054Y0100182D02*
X0113892Y0100182D01*
X0113892Y0101381D02*
X0115054Y0101381D01*
X0115054Y0102579D02*
X0113892Y0102579D01*
X0118761Y0102579D02*
X0118993Y0102579D01*
X0125344Y0104976D02*
X0130189Y0104976D01*
X0128990Y0106175D02*
X0126542Y0106175D01*
X0126892Y0102579D02*
X0128054Y0102579D01*
X0128054Y0101381D02*
X0126892Y0101381D01*
X0126892Y0100182D02*
X0128054Y0100182D01*
X0140055Y0098984D02*
X0151392Y0098984D01*
X0152555Y0098984D02*
X0156573Y0098984D01*
X0156573Y0100182D02*
X0156132Y0100182D01*
X0156132Y0101381D02*
X0156573Y0101381D01*
X0156086Y0102579D02*
X0155966Y0102579D01*
X0152554Y0102579D02*
X0151392Y0102579D01*
X0151392Y0101381D02*
X0152554Y0101381D01*
X0152554Y0100182D02*
X0151392Y0100182D01*
X0156132Y0097785D02*
X0156573Y0097785D01*
X0156573Y0096587D02*
X0156041Y0096587D01*
X0156132Y0092991D02*
X0162982Y0092991D01*
X0165178Y0094190D02*
X0165696Y0094190D01*
X0163979Y0095388D02*
X0174184Y0095388D01*
X0174184Y0096587D02*
X0163373Y0096587D01*
X0163373Y0097785D02*
X0174537Y0097785D01*
X0173834Y0098984D02*
X0163373Y0098984D01*
X0163373Y0100182D02*
X0172681Y0100182D01*
X0171584Y0101381D02*
X0163373Y0101381D01*
X0163373Y0102579D02*
X0171184Y0102579D01*
X0171236Y0103778D02*
X0163373Y0103778D01*
X0163042Y0104976D02*
X0171798Y0104976D01*
X0173544Y0106175D02*
X0162107Y0106175D01*
X0160908Y0107373D02*
X0183449Y0107373D01*
X0182798Y0108572D02*
X0159710Y0108572D01*
X0158511Y0109770D02*
X0182684Y0109770D01*
X0183022Y0110969D02*
X0157523Y0110969D01*
X0158498Y0112168D02*
X0181672Y0112168D01*
X0181184Y0113366D02*
X0158498Y0113366D01*
X0158498Y0114565D02*
X0181184Y0114565D01*
X0181644Y0115763D02*
X0174792Y0115763D01*
X0174936Y0116962D02*
X0183029Y0116962D01*
X0184675Y0118160D02*
X0174936Y0118160D01*
X0174119Y0122954D02*
X0185073Y0122954D01*
X0189873Y0122954D02*
X0191073Y0122954D01*
X0191073Y0121756D02*
X0190306Y0121756D01*
X0190762Y0120557D02*
X0191073Y0120557D01*
X0191073Y0119359D02*
X0190762Y0119359D01*
X0191073Y0118160D02*
X0190271Y0118160D01*
X0191073Y0116962D02*
X0188732Y0116962D01*
X0186214Y0116962D02*
X0185918Y0116962D01*
X0184473Y0114000D02*
X0192473Y0114000D01*
X0194375Y0112098D01*
X0194375Y0108335D01*
X0197525Y0108335D02*
X0197525Y0112949D01*
X0193473Y0117000D01*
X0193473Y0172500D01*
X0189473Y0176500D01*
X0181473Y0176500D01*
X0174973Y0183000D01*
X0147973Y0183000D01*
X0135473Y0195500D01*
X0113473Y0195500D01*
X0112473Y0194500D01*
X0109184Y0194865D02*
X0071373Y0194865D01*
X0071373Y0196063D02*
X0099516Y0196063D01*
X0098317Y0197262D02*
X0071373Y0197262D01*
X0071373Y0198460D02*
X0080304Y0198460D01*
X0078860Y0199659D02*
X0071373Y0199659D01*
X0071373Y0200857D02*
X0077662Y0200857D01*
X0077133Y0202056D02*
X0071373Y0202056D01*
X0071373Y0203254D02*
X0076637Y0203254D01*
X0076374Y0204453D02*
X0071373Y0204453D01*
X0071094Y0205651D02*
X0076374Y0205651D01*
X0076374Y0206850D02*
X0070018Y0206850D01*
X0068819Y0208048D02*
X0076762Y0208048D01*
X0077259Y0209247D02*
X0067620Y0209247D01*
X0065973Y0207500D02*
X0068973Y0204500D01*
X0068973Y0191000D01*
X0078473Y0191000D01*
X0082973Y0186500D01*
X0113473Y0186500D01*
X0120973Y0179000D01*
X0120973Y0175500D01*
X0122973Y0173500D01*
X0137973Y0173500D01*
X0140973Y0170500D01*
X0144473Y0170500D01*
X0147373Y0172093D02*
X0175308Y0172093D01*
X0176598Y0170895D02*
X0147762Y0170895D01*
X0147700Y0169696D02*
X0177883Y0169696D01*
X0179473Y0171500D02*
X0184973Y0171500D01*
X0184582Y0168498D02*
X0147122Y0168498D01*
X0145375Y0167299D02*
X0145340Y0167299D01*
X0145314Y0166101D02*
X0143832Y0166101D01*
X0143832Y0163703D02*
X0145314Y0163703D01*
X0145314Y0162505D02*
X0143832Y0162505D01*
X0143747Y0161306D02*
X0145547Y0161306D01*
X0145614Y0160108D02*
X0143332Y0160108D01*
X0143832Y0158909D02*
X0145114Y0158909D01*
X0149473Y0156500D02*
X0139473Y0156500D01*
X0139473Y0152500D01*
X0136973Y0150000D01*
X0117473Y0150000D01*
X0115399Y0147925D01*
X0115399Y0144900D01*
X0113329Y0149200D02*
X0111281Y0149200D01*
X0111008Y0149859D01*
X0110333Y0150535D01*
X0105309Y0155558D01*
X0106636Y0156884D01*
X0107180Y0158199D01*
X0107311Y0157884D01*
X0108858Y0156337D01*
X0110879Y0155500D01*
X0113067Y0155500D01*
X0115089Y0156337D01*
X0115184Y0156433D01*
X0115184Y0156346D01*
X0115685Y0155137D01*
X0116610Y0154212D01*
X0117819Y0153711D01*
X0119128Y0153711D01*
X0120336Y0154212D01*
X0120725Y0154600D01*
X0125114Y0154600D01*
X0125114Y0153392D01*
X0126106Y0152400D01*
X0116996Y0152400D01*
X0116114Y0152035D01*
X0115439Y0151359D01*
X0113364Y0149285D01*
X0113329Y0149200D01*
X0113401Y0149321D02*
X0111231Y0149321D01*
X0110348Y0150520D02*
X0114599Y0150520D01*
X0115798Y0151718D02*
X0109149Y0151718D01*
X0107951Y0152917D02*
X0125590Y0152917D01*
X0125114Y0154115D02*
X0120104Y0154115D01*
X0116843Y0154115D02*
X0106752Y0154115D01*
X0105554Y0155314D02*
X0115612Y0155314D01*
X0118473Y0157000D02*
X0129233Y0157000D01*
X0129473Y0156500D01*
X0123973Y0160500D02*
X0112473Y0160500D01*
X0111973Y0161000D01*
X0107484Y0157711D02*
X0106978Y0157711D01*
X0106264Y0156512D02*
X0108683Y0156512D01*
X0101973Y0155500D02*
X0101973Y0160000D01*
X0101973Y0155500D02*
X0108973Y0148500D01*
X0108973Y0145026D01*
X0109099Y0144900D01*
X0105950Y0144900D02*
X0105850Y0145000D01*
X0121698Y0144900D02*
X0121698Y0132724D01*
X0112473Y0123500D01*
X0112473Y0119000D02*
X0124847Y0131374D01*
X0124847Y0144900D01*
X0127997Y0144900D02*
X0131873Y0144900D01*
X0134473Y0147500D01*
X0137973Y0147500D01*
X0141973Y0151500D01*
X0144473Y0151500D01*
X0154817Y0148123D02*
X0156765Y0148123D01*
X0158892Y0148123D02*
X0160054Y0148123D01*
X0160054Y0146924D02*
X0158892Y0146924D01*
X0158892Y0145726D02*
X0160054Y0145726D01*
X0154673Y0139733D02*
X0185073Y0139733D01*
X0185073Y0138535D02*
X0142373Y0138535D01*
X0139973Y0141000D02*
X0139973Y0128500D01*
X0137899Y0126425D01*
X0133873Y0126425D01*
X0129048Y0126425D01*
X0128973Y0126500D01*
X0121973Y0123000D02*
X0121973Y0111376D01*
X0121698Y0111100D01*
X0118548Y0111100D02*
X0118548Y0119425D01*
X0118973Y0120000D01*
X0116148Y0118160D02*
X0115685Y0118160D01*
X0116148Y0116962D02*
X0115086Y0116962D01*
X0112249Y0111100D02*
X0112249Y0107776D01*
X0110973Y0106500D01*
X0103973Y0106500D01*
X0101973Y0104500D01*
X0100254Y0106175D02*
X0092636Y0106175D01*
X0092636Y0107373D02*
X0101453Y0107373D01*
X0102704Y0108572D02*
X0092636Y0108572D01*
X0091757Y0109770D02*
X0103050Y0109770D01*
X0103050Y0110969D02*
X0091724Y0110969D01*
X0092348Y0112168D02*
X0103050Y0112168D01*
X0103050Y0113366D02*
X0092966Y0113366D01*
X0092966Y0114565D02*
X0096340Y0114565D01*
X0095773Y0115763D02*
X0092966Y0115763D01*
X0092636Y0104976D02*
X0099573Y0104976D01*
X0099573Y0103778D02*
X0092636Y0103778D01*
X0092636Y0102579D02*
X0097614Y0102579D01*
X0097614Y0101381D02*
X0091821Y0101381D01*
X0091746Y0100182D02*
X0097614Y0100182D01*
X0097614Y0098984D02*
X0091717Y0098984D01*
X0091688Y0097785D02*
X0097614Y0097785D01*
X0097614Y0096587D02*
X0091659Y0096587D01*
X0091630Y0095388D02*
X0098618Y0095388D01*
X0097846Y0094190D02*
X0091613Y0094190D01*
X0091169Y0092991D02*
X0097814Y0092991D01*
X0109973Y0092991D02*
X0110019Y0092991D01*
X0113892Y0090594D02*
X0115054Y0090594D01*
X0115054Y0089396D02*
X0113892Y0089396D01*
X0113892Y0088197D02*
X0115054Y0088197D01*
X0128574Y0075014D02*
X0129774Y0075014D01*
X0129774Y0073815D02*
X0128574Y0073815D01*
X0128574Y0072617D02*
X0129774Y0072617D01*
X0129774Y0071418D02*
X0128574Y0071418D01*
X0128574Y0070220D02*
X0129774Y0070220D01*
X0129774Y0069021D02*
X0128574Y0069021D01*
X0128574Y0067823D02*
X0129774Y0067823D01*
X0129774Y0064227D02*
X0128574Y0064227D01*
X0128574Y0063029D02*
X0129774Y0063029D01*
X0129774Y0061830D02*
X0128574Y0061830D01*
X0128574Y0060632D02*
X0129774Y0060632D01*
X0129774Y0059433D02*
X0128574Y0059433D01*
X0128574Y0058234D02*
X0129774Y0058234D01*
X0110973Y0055837D02*
X0156473Y0055837D01*
X0156473Y0054639D02*
X0110973Y0054639D01*
X0110159Y0053440D02*
X0156473Y0053440D01*
X0156473Y0052242D02*
X0106973Y0052242D01*
X0106973Y0051043D02*
X0156473Y0051043D01*
X0156473Y0049845D02*
X0106973Y0049845D01*
X0106973Y0048646D02*
X0156473Y0048646D01*
X0156473Y0047448D02*
X0106973Y0047448D01*
X0106973Y0046249D02*
X0156473Y0046249D01*
X0156473Y0045051D02*
X0107422Y0045051D01*
X0108621Y0043852D02*
X0156473Y0043852D01*
X0158873Y0043852D02*
X0166073Y0043852D01*
X0166073Y0042654D02*
X0158873Y0042654D01*
X0158873Y0042523D02*
X0158873Y0056292D01*
X0166073Y0049092D01*
X0166073Y0024824D01*
X0166591Y0023574D01*
X0167547Y0022618D01*
X0170680Y0019485D01*
X0169811Y0018615D01*
X0169473Y0017801D01*
X0169136Y0018615D01*
X0167589Y0020163D01*
X0165567Y0021000D01*
X0163379Y0021000D01*
X0162873Y0020790D01*
X0162873Y0031176D01*
X0162356Y0032426D01*
X0161399Y0033382D01*
X0157399Y0037382D01*
X0156150Y0037900D01*
X0107382Y0037900D01*
X0099356Y0045926D01*
X0098782Y0046500D01*
X0099356Y0047074D01*
X0100856Y0048574D01*
X0101373Y0049824D01*
X0101373Y0053200D01*
X0104573Y0053200D01*
X0104573Y0045023D01*
X0104939Y0044141D01*
X0105614Y0043465D01*
X0108114Y0040965D01*
X0108996Y0040600D01*
X0156951Y0040600D01*
X0157833Y0040965D01*
X0158508Y0041641D01*
X0158873Y0042523D01*
X0158323Y0041455D02*
X0166073Y0041455D01*
X0166073Y0040257D02*
X0105025Y0040257D01*
X0106223Y0039058D02*
X0166073Y0039058D01*
X0166073Y0037860D02*
X0156247Y0037860D01*
X0158120Y0036661D02*
X0166073Y0036661D01*
X0166073Y0035463D02*
X0159319Y0035463D01*
X0160517Y0034264D02*
X0166073Y0034264D01*
X0166073Y0033066D02*
X0161716Y0033066D01*
X0161399Y0033382D02*
X0161399Y0033382D01*
X0162587Y0031867D02*
X0166073Y0031867D01*
X0166073Y0030669D02*
X0162873Y0030669D01*
X0162873Y0029470D02*
X0166073Y0029470D01*
X0166073Y0028272D02*
X0162873Y0028272D01*
X0162873Y0027073D02*
X0166073Y0027073D01*
X0166073Y0025875D02*
X0162873Y0025875D01*
X0162873Y0024676D02*
X0166134Y0024676D01*
X0166687Y0023478D02*
X0162873Y0023478D01*
X0162873Y0022279D02*
X0167886Y0022279D01*
X0169084Y0021081D02*
X0162873Y0021081D01*
X0167869Y0019882D02*
X0170283Y0019882D01*
X0169879Y0018684D02*
X0169068Y0018684D01*
X0169263Y0012691D02*
X0169684Y0012691D01*
X0170703Y0011493D02*
X0168244Y0011493D01*
X0166277Y0010294D02*
X0172669Y0010294D01*
X0162669Y0010294D02*
X0156277Y0010294D01*
X0158244Y0011493D02*
X0160703Y0011493D01*
X0159684Y0012691D02*
X0159263Y0012691D01*
X0152669Y0010294D02*
X0137046Y0010294D01*
X0136751Y0010000D02*
X0139973Y0013222D01*
X0139973Y0017778D01*
X0137251Y0020500D01*
X0139973Y0023222D01*
X0139973Y0027778D01*
X0136751Y0031000D01*
X0132195Y0031000D01*
X0129473Y0028278D01*
X0126751Y0031000D01*
X0122195Y0031000D01*
X0119473Y0028278D01*
X0116751Y0031000D01*
X0112195Y0031000D01*
X0109473Y0028278D01*
X0106751Y0031000D01*
X0102195Y0031000D01*
X0099473Y0028278D01*
X0096751Y0031000D01*
X0092195Y0031000D01*
X0088973Y0027778D01*
X0088973Y0023222D01*
X0091695Y0020500D01*
X0088973Y0017778D01*
X0088973Y0013222D01*
X0092195Y0010000D01*
X0096751Y0010000D01*
X0099473Y0012722D01*
X0102195Y0010000D01*
X0106751Y0010000D01*
X0109473Y0012722D01*
X0112195Y0010000D01*
X0116751Y0010000D01*
X0119473Y0012722D01*
X0122195Y0010000D01*
X0126751Y0010000D01*
X0129473Y0012722D01*
X0132195Y0010000D01*
X0136751Y0010000D01*
X0138244Y0011493D02*
X0150703Y0011493D01*
X0149684Y0012691D02*
X0139443Y0012691D01*
X0139973Y0013890D02*
X0149187Y0013890D01*
X0148973Y0015088D02*
X0139973Y0015088D01*
X0139973Y0016287D02*
X0148973Y0016287D01*
X0149342Y0017485D02*
X0139973Y0017485D01*
X0139068Y0018684D02*
X0149879Y0018684D01*
X0151077Y0019882D02*
X0137869Y0019882D01*
X0137832Y0021081D02*
X0156073Y0021081D01*
X0156073Y0022279D02*
X0139031Y0022279D01*
X0139973Y0023478D02*
X0156073Y0023478D01*
X0156073Y0024676D02*
X0139973Y0024676D01*
X0139973Y0025875D02*
X0156073Y0025875D01*
X0156073Y0027073D02*
X0139973Y0027073D01*
X0139480Y0028272D02*
X0156073Y0028272D01*
X0155695Y0029470D02*
X0138281Y0029470D01*
X0137083Y0030669D02*
X0154496Y0030669D01*
X0172873Y0029470D02*
X0186047Y0029470D01*
X0187050Y0028272D02*
X0172873Y0028272D01*
X0166073Y0045051D02*
X0158873Y0045051D01*
X0158873Y0046249D02*
X0166073Y0046249D01*
X0166073Y0047448D02*
X0158873Y0047448D01*
X0158873Y0048646D02*
X0166073Y0048646D01*
X0165320Y0049845D02*
X0158873Y0049845D01*
X0158873Y0051043D02*
X0164122Y0051043D01*
X0162923Y0052242D02*
X0158873Y0052242D01*
X0158873Y0053440D02*
X0161725Y0053440D01*
X0160526Y0054639D02*
X0158873Y0054639D01*
X0158873Y0055837D02*
X0159328Y0055837D01*
X0163373Y0064227D02*
X0165314Y0064227D01*
X0165314Y0065426D02*
X0163373Y0065426D01*
X0168892Y0061830D02*
X0170054Y0061830D01*
X0170054Y0060632D02*
X0168892Y0060632D01*
X0173553Y0060632D02*
X0177948Y0060632D01*
X0176749Y0061830D02*
X0173632Y0061830D01*
X0194375Y0062665D02*
X0194375Y0058098D01*
X0195473Y0057000D01*
X0195473Y0042000D01*
X0204473Y0033000D01*
X0241973Y0033000D01*
X0254473Y0020500D01*
X0254473Y0015500D01*
X0250703Y0011493D02*
X0248244Y0011493D01*
X0249263Y0012691D02*
X0249684Y0012691D01*
X0252669Y0010294D02*
X0246277Y0010294D01*
X0256277Y0010294D02*
X0262669Y0010294D01*
X0260703Y0011493D02*
X0258244Y0011493D01*
X0259263Y0012691D02*
X0259684Y0012691D01*
X0264473Y0015500D02*
X0264473Y0020500D01*
X0249473Y0035500D01*
X0205473Y0035500D01*
X0197973Y0043000D01*
X0197973Y0058000D01*
X0197525Y0058449D01*
X0197525Y0062665D01*
X0200674Y0062665D02*
X0200674Y0043799D01*
X0206473Y0038000D01*
X0256973Y0038000D01*
X0274473Y0020500D01*
X0274473Y0015500D01*
X0277869Y0019882D02*
X0285603Y0019882D01*
X0286801Y0021081D02*
X0276831Y0021081D01*
X0276088Y0022279D02*
X0288000Y0022279D01*
X0289198Y0023478D02*
X0274890Y0023478D01*
X0273691Y0024676D02*
X0290397Y0024676D01*
X0291595Y0025875D02*
X0272493Y0025875D01*
X0271294Y0027073D02*
X0292173Y0027073D01*
X0292173Y0028272D02*
X0288187Y0028272D01*
X0289898Y0029470D02*
X0292173Y0029470D01*
X0292173Y0030669D02*
X0291096Y0030669D01*
X0291735Y0031867D02*
X0292173Y0031867D01*
X0292173Y0039058D02*
X0291766Y0039058D01*
X0292173Y0040257D02*
X0291170Y0040257D01*
X0292173Y0041455D02*
X0289972Y0041455D01*
X0288367Y0042654D02*
X0292173Y0042654D01*
X0292173Y0043852D02*
X0219936Y0043852D01*
X0219915Y0042654D02*
X0280580Y0042654D01*
X0278975Y0041455D02*
X0218962Y0041455D01*
X0216554Y0041455D02*
X0215392Y0041455D01*
X0215392Y0042654D02*
X0216554Y0042654D01*
X0216554Y0043852D02*
X0215392Y0043852D01*
X0216555Y0045051D02*
X0292173Y0045051D01*
X0292173Y0046249D02*
X0219936Y0046249D01*
X0219936Y0047448D02*
X0292173Y0047448D01*
X0292173Y0048646D02*
X0219835Y0048646D01*
X0216554Y0048646D02*
X0215392Y0048646D01*
X0215392Y0047448D02*
X0216554Y0047448D01*
X0216554Y0046249D02*
X0215392Y0046249D01*
X0212984Y0041455D02*
X0211396Y0041455D01*
X0207973Y0045500D02*
X0204973Y0045500D01*
X0203473Y0047000D01*
X0203473Y0058000D01*
X0203824Y0058350D01*
X0203824Y0062665D01*
X0203824Y0068150D01*
X0203473Y0068500D01*
X0206622Y0067218D02*
X0206873Y0067824D01*
X0206873Y0072603D01*
X0207819Y0072211D01*
X0208184Y0072211D01*
X0208184Y0071846D01*
X0208685Y0070637D01*
X0209610Y0069712D01*
X0210819Y0069211D01*
X0211184Y0069211D01*
X0211184Y0068846D01*
X0211685Y0067637D01*
X0211904Y0067418D01*
X0208393Y0067418D01*
X0208188Y0067213D01*
X0208168Y0067218D01*
X0206973Y0067218D01*
X0206622Y0067218D01*
X0206973Y0067218D02*
X0206973Y0062665D01*
X0206973Y0062665D01*
X0206973Y0067218D01*
X0206973Y0066624D02*
X0206973Y0066624D01*
X0206973Y0065426D02*
X0206973Y0065426D01*
X0206973Y0064227D02*
X0206973Y0064227D01*
X0206973Y0063029D02*
X0206973Y0063029D01*
X0206973Y0061830D02*
X0206973Y0061830D01*
X0206973Y0060632D02*
X0206973Y0060632D01*
X0206973Y0059433D02*
X0206973Y0059433D01*
X0206973Y0058234D02*
X0206973Y0058234D01*
X0207342Y0057036D02*
X0205877Y0057036D01*
X0205873Y0055837D02*
X0207184Y0055837D01*
X0207477Y0054639D02*
X0205873Y0054639D01*
X0205873Y0053440D02*
X0208382Y0053440D01*
X0205873Y0052242D02*
X0292173Y0052242D01*
X0292173Y0053440D02*
X0278773Y0053440D01*
X0279508Y0054141D02*
X0279508Y0054141D01*
X0280006Y0054639D02*
X0292173Y0054639D01*
X0292173Y0055837D02*
X0281205Y0055837D01*
X0282403Y0057036D02*
X0292173Y0057036D01*
X0292173Y0058234D02*
X0283602Y0058234D01*
X0284629Y0059433D02*
X0292173Y0059433D01*
X0292173Y0060632D02*
X0284873Y0060632D01*
X0284873Y0061830D02*
X0292173Y0061830D01*
X0292173Y0063029D02*
X0284873Y0063029D01*
X0284873Y0064227D02*
X0292173Y0064227D01*
X0292173Y0065426D02*
X0284873Y0065426D01*
X0284873Y0066624D02*
X0292173Y0066624D01*
X0292173Y0067823D02*
X0284873Y0067823D01*
X0284873Y0069021D02*
X0292173Y0069021D01*
X0292173Y0070220D02*
X0284873Y0070220D01*
X0284873Y0071418D02*
X0292173Y0071418D01*
X0292173Y0072617D02*
X0284873Y0072617D01*
X0284873Y0073815D02*
X0292173Y0073815D01*
X0292173Y0075014D02*
X0284873Y0075014D01*
X0284873Y0076212D02*
X0292173Y0076212D01*
X0292173Y0077411D02*
X0284873Y0077411D01*
X0284873Y0078609D02*
X0292173Y0078609D01*
X0292173Y0079808D02*
X0284873Y0079808D01*
X0284873Y0081006D02*
X0292173Y0081006D01*
X0292173Y0082205D02*
X0284873Y0082205D01*
X0284873Y0083403D02*
X0292173Y0083403D01*
X0292173Y0084602D02*
X0284873Y0084602D01*
X0284873Y0085800D02*
X0292173Y0085800D01*
X0292173Y0086999D02*
X0284873Y0086999D01*
X0284873Y0088197D02*
X0292173Y0088197D01*
X0292173Y0089396D02*
X0284873Y0089396D01*
X0284873Y0090594D02*
X0292173Y0090594D01*
X0292173Y0091793D02*
X0284873Y0091793D01*
X0284873Y0092991D02*
X0292173Y0092991D01*
X0292173Y0094190D02*
X0285557Y0094190D01*
X0286756Y0095388D02*
X0292173Y0095388D01*
X0292173Y0096587D02*
X0287954Y0096587D01*
X0289153Y0097785D02*
X0292173Y0097785D01*
X0292173Y0098984D02*
X0290351Y0098984D01*
X0291550Y0100182D02*
X0292173Y0100182D01*
X0290973Y0103000D02*
X0282473Y0094500D01*
X0282473Y0060500D01*
X0277473Y0055500D01*
X0237473Y0055500D01*
X0232973Y0060000D01*
X0232973Y0066587D01*
X0229808Y0069752D01*
X0225721Y0069752D01*
X0216973Y0078500D01*
X0205473Y0078500D01*
X0202473Y0081500D02*
X0217473Y0081500D01*
X0226072Y0072902D01*
X0229808Y0072902D01*
X0233572Y0072902D01*
X0235473Y0071000D01*
X0235473Y0061000D01*
X0238473Y0058000D01*
X0276473Y0058000D01*
X0279973Y0061500D01*
X0279973Y0101000D01*
X0280473Y0101500D01*
X0273191Y0095388D02*
X0264332Y0095388D01*
X0264332Y0094190D02*
X0274389Y0094190D01*
X0275073Y0092991D02*
X0264332Y0092991D01*
X0264332Y0091793D02*
X0275073Y0091793D01*
X0275073Y0090594D02*
X0264332Y0090594D01*
X0263836Y0089396D02*
X0275073Y0089396D01*
X0275073Y0088197D02*
X0263898Y0088197D01*
X0264132Y0086999D02*
X0275073Y0086999D01*
X0275073Y0085800D02*
X0264132Y0085800D01*
X0264132Y0083403D02*
X0275073Y0083403D01*
X0275073Y0082205D02*
X0264073Y0082205D01*
X0260554Y0082205D02*
X0259392Y0082205D01*
X0259392Y0083403D02*
X0260554Y0083403D01*
X0260555Y0084602D02*
X0275073Y0084602D01*
X0275073Y0081006D02*
X0242361Y0081006D01*
X0241163Y0082205D02*
X0255874Y0082205D01*
X0255814Y0083403D02*
X0239964Y0083403D01*
X0238459Y0084602D02*
X0241791Y0084602D01*
X0240949Y0085800D02*
X0234361Y0085800D01*
X0234361Y0085500D02*
X0229808Y0085500D01*
X0229808Y0085500D01*
X0234361Y0085500D01*
X0237623Y0082350D02*
X0242973Y0077000D01*
X0243213Y0077000D01*
X0244473Y0076000D01*
X0249233Y0075740D01*
X0251473Y0073500D01*
X0254406Y0075014D02*
X0275073Y0075014D01*
X0275073Y0076212D02*
X0253412Y0076212D01*
X0250959Y0077411D02*
X0275073Y0077411D01*
X0275073Y0078609D02*
X0248832Y0078609D01*
X0248132Y0079808D02*
X0275073Y0079808D01*
X0275073Y0073815D02*
X0254762Y0073815D01*
X0254667Y0072617D02*
X0275073Y0072617D01*
X0275073Y0071418D02*
X0254043Y0071418D01*
X0252148Y0070220D02*
X0275073Y0070220D01*
X0275073Y0069021D02*
X0248632Y0069021D01*
X0248632Y0070220D02*
X0250798Y0070220D01*
X0248904Y0071418D02*
X0248239Y0071418D01*
X0245055Y0067823D02*
X0275073Y0067823D01*
X0275073Y0066624D02*
X0248632Y0066624D01*
X0248632Y0065426D02*
X0275073Y0065426D01*
X0275073Y0064227D02*
X0247789Y0064227D01*
X0245054Y0064227D02*
X0243892Y0064227D01*
X0243892Y0065426D02*
X0245054Y0065426D01*
X0245054Y0066624D02*
X0243892Y0066624D01*
X0241158Y0064227D02*
X0240373Y0064227D01*
X0240839Y0063029D02*
X0274608Y0063029D01*
X0275473Y0060500D02*
X0239973Y0060500D01*
X0237973Y0062500D01*
X0237973Y0072500D01*
X0234422Y0076051D01*
X0229808Y0076051D01*
X0226422Y0076051D01*
X0217973Y0084500D01*
X0199473Y0084500D01*
X0203489Y0091793D02*
X0203573Y0091793D01*
X0203573Y0092991D02*
X0188891Y0092991D01*
X0188891Y0091793D02*
X0189038Y0091793D01*
X0188891Y0094190D02*
X0203573Y0094190D01*
X0203573Y0095388D02*
X0188891Y0095388D01*
X0188891Y0096587D02*
X0203573Y0096587D01*
X0203573Y0097785D02*
X0188891Y0097785D01*
X0188891Y0098984D02*
X0203573Y0098984D01*
X0203573Y0100182D02*
X0188891Y0100182D01*
X0188891Y0101381D02*
X0203573Y0101381D01*
X0203573Y0102579D02*
X0188891Y0102579D01*
X0189299Y0103778D02*
X0188091Y0103778D01*
X0188441Y0104976D02*
X0184391Y0104976D01*
X0185904Y0106175D02*
X0175403Y0106175D01*
X0174473Y0103000D02*
X0182973Y0103000D01*
X0184139Y0101835D01*
X0184139Y0101248D01*
X0184139Y0098098D02*
X0180375Y0098098D01*
X0178473Y0100000D01*
X0176973Y0100000D01*
X0177473Y0096000D02*
X0178973Y0096000D01*
X0180025Y0094949D01*
X0184139Y0094949D01*
X0184139Y0091799D02*
X0178174Y0091799D01*
X0177973Y0092000D01*
X0179123Y0088650D02*
X0177473Y0087500D01*
X0179123Y0088650D02*
X0184139Y0088650D01*
X0189824Y0088650D01*
X0189973Y0088500D01*
X0174563Y0084602D02*
X0173632Y0084602D01*
X0173365Y0085800D02*
X0173338Y0085800D01*
X0173250Y0094190D02*
X0174663Y0094190D01*
X0187473Y0108000D02*
X0185973Y0109500D01*
X0187473Y0108000D02*
X0190891Y0108000D01*
X0191225Y0108335D01*
X0200674Y0108335D02*
X0200674Y0113799D01*
X0196473Y0118000D01*
X0196473Y0173500D01*
X0190473Y0179500D01*
X0182473Y0179500D01*
X0175973Y0186000D01*
X0148973Y0186000D01*
X0136973Y0198000D01*
X0100973Y0198000D01*
X0098473Y0200500D01*
X0098473Y0205500D01*
X0092973Y0205651D02*
X0092573Y0205651D01*
X0092573Y0204453D02*
X0092973Y0204453D01*
X0093450Y0203254D02*
X0092310Y0203254D01*
X0091813Y0202056D02*
X0094139Y0202056D01*
X0095338Y0200857D02*
X0091285Y0200857D01*
X0090086Y0199659D02*
X0096224Y0199659D01*
X0097119Y0198460D02*
X0088642Y0198460D01*
X0080400Y0192468D02*
X0109854Y0192468D01*
X0109259Y0193666D02*
X0071373Y0193666D01*
X0068973Y0191000D02*
X0068973Y0185500D01*
X0064873Y0185277D02*
X0026773Y0185277D01*
X0026773Y0186475D02*
X0064873Y0186475D01*
X0064873Y0187674D02*
X0026773Y0187674D01*
X0026773Y0188872D02*
X0064873Y0188872D01*
X0065548Y0190071D02*
X0063784Y0190071D01*
X0063754Y0190018D02*
X0063964Y0190382D01*
X0064073Y0190789D01*
X0064073Y0192350D01*
X0059623Y0192350D01*
X0059623Y0189400D01*
X0062684Y0189400D01*
X0063091Y0189509D01*
X0063456Y0189720D01*
X0063754Y0190018D01*
X0064073Y0191269D02*
X0066573Y0191269D01*
X0066573Y0192468D02*
X0059623Y0192468D01*
X0059623Y0192350D02*
X0059623Y0192650D01*
X0059323Y0192650D01*
X0059323Y0192350D01*
X0054873Y0192350D01*
X0054873Y0190789D01*
X0054982Y0190382D01*
X0055193Y0190018D01*
X0055491Y0189720D01*
X0055856Y0189509D01*
X0056263Y0189400D01*
X0059323Y0189400D01*
X0059323Y0192350D01*
X0059623Y0192350D01*
X0059623Y0192650D02*
X0064073Y0192650D01*
X0064073Y0194211D01*
X0063964Y0194618D01*
X0063754Y0194982D01*
X0063456Y0195280D01*
X0063091Y0195491D01*
X0062684Y0195600D01*
X0059623Y0195600D01*
X0059623Y0192650D01*
X0059323Y0192650D02*
X0059323Y0195600D01*
X0056263Y0195600D01*
X0055856Y0195491D01*
X0055491Y0195280D01*
X0055193Y0194982D01*
X0054982Y0194618D01*
X0054873Y0194211D01*
X0054873Y0192650D01*
X0059323Y0192650D01*
X0059323Y0192468D02*
X0039623Y0192468D01*
X0039623Y0192350D02*
X0039623Y0192650D01*
X0039323Y0192650D01*
X0039323Y0192350D01*
X0034873Y0192350D01*
X0034873Y0190789D01*
X0034982Y0190382D01*
X0035193Y0190018D01*
X0035491Y0189720D01*
X0035856Y0189509D01*
X0036263Y0189400D01*
X0039323Y0189400D01*
X0039323Y0192350D01*
X0039623Y0192350D01*
X0039623Y0189400D01*
X0042684Y0189400D01*
X0043091Y0189509D01*
X0043456Y0189720D01*
X0043754Y0190018D01*
X0043964Y0190382D01*
X0044073Y0190789D01*
X0044073Y0192350D01*
X0039623Y0192350D01*
X0039623Y0192650D02*
X0044073Y0192650D01*
X0044073Y0194211D01*
X0043964Y0194618D01*
X0043754Y0194982D01*
X0043456Y0195280D01*
X0043091Y0195491D01*
X0042684Y0195600D01*
X0039623Y0195600D01*
X0039623Y0192650D01*
X0039323Y0192650D02*
X0039323Y0195600D01*
X0036263Y0195600D01*
X0035856Y0195491D01*
X0035491Y0195280D01*
X0035193Y0194982D01*
X0034982Y0194618D01*
X0034873Y0194211D01*
X0034873Y0192650D01*
X0039323Y0192650D01*
X0039323Y0192468D02*
X0026773Y0192468D01*
X0026773Y0193666D02*
X0034873Y0193666D01*
X0035125Y0194865D02*
X0026773Y0194865D01*
X0026773Y0196063D02*
X0066573Y0196063D01*
X0066573Y0194865D02*
X0063822Y0194865D01*
X0064073Y0193666D02*
X0066573Y0193666D01*
X0066573Y0197262D02*
X0026773Y0197262D01*
X0026773Y0198460D02*
X0066573Y0198460D01*
X0066573Y0199659D02*
X0026773Y0199659D01*
X0026773Y0200857D02*
X0066573Y0200857D01*
X0066573Y0202056D02*
X0026773Y0202056D01*
X0026773Y0203254D02*
X0066573Y0203254D01*
X0065626Y0204453D02*
X0063472Y0204453D01*
X0065973Y0207500D02*
X0059473Y0207500D01*
X0039473Y0207500D01*
X0043472Y0204453D02*
X0055475Y0204453D01*
X0055373Y0210445D02*
X0043573Y0210445D01*
X0035373Y0210445D02*
X0026773Y0210445D01*
X0026773Y0209247D02*
X0034673Y0209247D01*
X0034673Y0208048D02*
X0026773Y0208048D01*
X0026773Y0206850D02*
X0034673Y0206850D01*
X0034673Y0205651D02*
X0026773Y0205651D01*
X0026773Y0204453D02*
X0035475Y0204453D01*
X0026781Y0211644D02*
X0079163Y0211644D01*
X0077965Y0210445D02*
X0063573Y0210445D01*
X0081035Y0212842D02*
X0027419Y0212842D01*
X0039323Y0194865D02*
X0039623Y0194865D01*
X0039623Y0193666D02*
X0039323Y0193666D01*
X0039323Y0191269D02*
X0039623Y0191269D01*
X0039623Y0190071D02*
X0039323Y0190071D01*
X0043784Y0190071D02*
X0055162Y0190071D01*
X0054873Y0191269D02*
X0044073Y0191269D01*
X0044073Y0193666D02*
X0054873Y0193666D01*
X0055125Y0194865D02*
X0043822Y0194865D01*
X0034873Y0191269D02*
X0026773Y0191269D01*
X0026773Y0190071D02*
X0035162Y0190071D01*
X0026773Y0184078D02*
X0064873Y0184078D01*
X0064873Y0182880D02*
X0026773Y0182880D01*
X0026773Y0181681D02*
X0064873Y0181681D01*
X0059623Y0190071D02*
X0059323Y0190071D01*
X0059323Y0191269D02*
X0059623Y0191269D01*
X0059623Y0193666D02*
X0059323Y0193666D01*
X0059323Y0194865D02*
X0059623Y0194865D01*
X0074973Y0185500D02*
X0079473Y0185500D01*
X0080973Y0184000D01*
X0112473Y0184000D01*
X0118473Y0178000D01*
X0118473Y0174000D01*
X0117200Y0171879D02*
X0119439Y0169641D01*
X0120114Y0168965D01*
X0120996Y0168600D01*
X0126106Y0168600D01*
X0125114Y0167608D01*
X0125114Y0165035D01*
X0125114Y0165035D01*
X0124439Y0164359D01*
X0122979Y0162900D01*
X0117139Y0162900D01*
X0116636Y0164115D01*
X0115089Y0165663D01*
X0114032Y0166101D01*
X0125114Y0166101D01*
X0125114Y0167299D02*
X0115768Y0167299D01*
X0116016Y0167547D02*
X0116506Y0168222D01*
X0116885Y0168966D01*
X0117143Y0169759D01*
X0117273Y0170583D01*
X0117273Y0170600D01*
X0112373Y0170600D01*
X0112373Y0171400D01*
X0117273Y0171400D01*
X0117273Y0171417D01*
X0117200Y0171879D01*
X0118185Y0170895D02*
X0112373Y0170895D01*
X0112373Y0172093D02*
X0111573Y0172093D01*
X0111573Y0173292D02*
X0112373Y0173292D01*
X0112373Y0174490D02*
X0111573Y0174490D01*
X0111573Y0175689D02*
X0112373Y0175689D01*
X0109501Y0175689D02*
X0095026Y0175689D01*
X0096261Y0174490D02*
X0098685Y0174490D01*
X0097487Y0173292D02*
X0096977Y0173292D01*
X0101973Y0170000D02*
X0096973Y0165500D01*
X0105261Y0174490D02*
X0107968Y0174490D01*
X0107193Y0173292D02*
X0106460Y0173292D01*
X0112597Y0180483D02*
X0026773Y0180483D01*
X0026773Y0179284D02*
X0113795Y0179284D01*
X0114994Y0178086D02*
X0026773Y0178086D01*
X0026773Y0176887D02*
X0028029Y0176887D01*
X0030873Y0176887D02*
X0032073Y0176887D01*
X0032073Y0175689D02*
X0030873Y0175689D01*
X0030873Y0174490D02*
X0032073Y0174490D01*
X0032073Y0173292D02*
X0030873Y0173292D01*
X0046561Y0152917D02*
X0050162Y0152917D01*
X0051361Y0151718D02*
X0046561Y0151718D01*
X0046361Y0150520D02*
X0052559Y0150520D01*
X0053758Y0149321D02*
X0046344Y0149321D01*
X0046361Y0150382D02*
X0045535Y0150382D01*
X0046361Y0150382D01*
X0045535Y0150382D02*
X0045535Y0150382D01*
X0046077Y0148123D02*
X0054573Y0148123D01*
X0054573Y0146924D02*
X0046364Y0146924D01*
X0046230Y0145726D02*
X0054573Y0145726D01*
X0054573Y0144527D02*
X0045590Y0144527D01*
X0043731Y0143329D02*
X0054573Y0143329D01*
X0054736Y0142130D02*
X0036677Y0142130D01*
X0037206Y0140932D02*
X0055647Y0140932D01*
X0056846Y0139733D02*
X0037471Y0139733D01*
X0035734Y0143329D02*
X0042050Y0143329D01*
X0040192Y0144527D02*
X0034029Y0144527D01*
X0032073Y0137336D02*
X0030873Y0137336D01*
X0030873Y0136138D02*
X0032073Y0136138D01*
X0032073Y0134939D02*
X0030873Y0134939D01*
X0030873Y0133741D02*
X0032073Y0133741D01*
X0028639Y0133741D02*
X0026773Y0133741D01*
X0026773Y0134939D02*
X0027071Y0134939D01*
X0040142Y0126550D02*
X0041304Y0126550D01*
X0041304Y0125351D02*
X0040142Y0125351D01*
X0040142Y0124153D02*
X0041304Y0124153D01*
X0044266Y0119359D02*
X0044398Y0119359D01*
X0044718Y0116962D02*
X0043856Y0116962D01*
X0037181Y0119359D02*
X0026773Y0119359D01*
X0026773Y0120557D02*
X0036761Y0120557D01*
X0026773Y0108572D02*
X0063401Y0108572D01*
X0064173Y0107373D02*
X0026773Y0107373D01*
X0026773Y0106175D02*
X0038544Y0106175D01*
X0040403Y0106175D02*
X0065404Y0106175D01*
X0070178Y0104976D02*
X0042148Y0104976D01*
X0042711Y0103778D02*
X0076511Y0103778D01*
X0076552Y0102579D02*
X0042762Y0102579D01*
X0040339Y0102134D02*
X0039473Y0103000D01*
X0040339Y0102134D02*
X0040723Y0098000D01*
X0036561Y0097785D02*
X0026773Y0097785D01*
X0026773Y0096587D02*
X0036561Y0096587D01*
X0036561Y0095388D02*
X0026773Y0095388D01*
X0026773Y0094190D02*
X0037067Y0094190D01*
X0037049Y0091793D02*
X0026773Y0091793D01*
X0026773Y0092991D02*
X0063573Y0092991D01*
X0062317Y0094190D02*
X0061630Y0094190D01*
X0061647Y0091793D02*
X0062299Y0091793D01*
X0065973Y0088000D02*
X0065973Y0098000D01*
X0070136Y0097785D02*
X0084886Y0097785D01*
X0084857Y0096587D02*
X0070136Y0096587D01*
X0070136Y0095388D02*
X0081403Y0095388D01*
X0079885Y0094190D02*
X0069630Y0094190D01*
X0068373Y0092991D02*
X0079052Y0092991D01*
X0078556Y0091793D02*
X0069647Y0091793D01*
X0070136Y0090594D02*
X0078473Y0090594D01*
X0078478Y0089396D02*
X0073972Y0089396D01*
X0075170Y0088197D02*
X0078974Y0088197D01*
X0079696Y0086999D02*
X0076369Y0086999D01*
X0077567Y0085800D02*
X0080947Y0085800D01*
X0080297Y0084602D02*
X0078766Y0084602D01*
X0079473Y0080500D02*
X0083973Y0080500D01*
X0079473Y0080500D02*
X0071973Y0088000D01*
X0063573Y0083403D02*
X0042762Y0083403D01*
X0042704Y0082205D02*
X0063573Y0082205D01*
X0063573Y0081006D02*
X0042131Y0081006D01*
X0040361Y0079808D02*
X0063573Y0079808D01*
X0063573Y0078609D02*
X0026773Y0078609D01*
X0026773Y0077411D02*
X0063573Y0077411D01*
X0057973Y0073000D02*
X0048223Y0073000D01*
X0052386Y0076212D02*
X0053811Y0076212D01*
X0053811Y0070220D02*
X0052386Y0070220D01*
X0051711Y0069021D02*
X0054485Y0069021D01*
X0054994Y0067050D02*
X0054629Y0066839D01*
X0054331Y0066541D01*
X0054120Y0066177D01*
X0054011Y0065770D01*
X0054011Y0063581D01*
X0057392Y0063581D01*
X0057392Y0067159D01*
X0055400Y0067159D01*
X0054994Y0067050D01*
X0054413Y0066624D02*
X0026773Y0066624D01*
X0026773Y0065426D02*
X0054011Y0065426D01*
X0054011Y0064227D02*
X0026773Y0064227D01*
X0026773Y0063029D02*
X0057392Y0063029D01*
X0057392Y0064227D02*
X0058554Y0064227D01*
X0058554Y0065426D02*
X0057392Y0065426D01*
X0057392Y0066624D02*
X0058554Y0066624D01*
X0061533Y0066624D02*
X0062131Y0066624D01*
X0063573Y0067823D02*
X0026773Y0067823D01*
X0026773Y0069021D02*
X0037620Y0069021D01*
X0036764Y0070220D02*
X0026773Y0070220D01*
X0026773Y0071418D02*
X0036761Y0071418D01*
X0036761Y0073581D02*
X0040142Y0073581D01*
X0040142Y0077159D01*
X0038150Y0077159D01*
X0037744Y0077050D01*
X0037379Y0076839D01*
X0037081Y0076541D01*
X0036870Y0076177D01*
X0036761Y0075770D01*
X0036761Y0073581D01*
X0036761Y0073815D02*
X0026773Y0073815D01*
X0026773Y0072617D02*
X0040142Y0072617D01*
X0040142Y0073815D02*
X0041304Y0073815D01*
X0041304Y0075014D02*
X0040142Y0075014D01*
X0040142Y0076212D02*
X0041304Y0076212D01*
X0036891Y0076212D02*
X0026773Y0076212D01*
X0026773Y0075014D02*
X0036761Y0075014D01*
X0040142Y0071418D02*
X0041304Y0071418D01*
X0041304Y0070220D02*
X0040142Y0070220D01*
X0040142Y0069021D02*
X0041304Y0069021D01*
X0043826Y0069021D02*
X0044735Y0069021D01*
X0054011Y0061830D02*
X0026773Y0061830D01*
X0026773Y0060632D02*
X0054011Y0060632D01*
X0054356Y0059433D02*
X0026773Y0059433D01*
X0026773Y0058234D02*
X0074248Y0058234D01*
X0074248Y0057036D02*
X0026773Y0057036D01*
X0026773Y0055837D02*
X0065710Y0055837D01*
X0065587Y0054639D02*
X0026773Y0054639D01*
X0026773Y0053440D02*
X0065587Y0053440D01*
X0065587Y0052242D02*
X0026773Y0052242D01*
X0026773Y0051043D02*
X0031361Y0051043D01*
X0031604Y0051167D02*
X0030723Y0050718D01*
X0029922Y0050136D01*
X0029223Y0049437D01*
X0028641Y0048637D01*
X0028192Y0047755D01*
X0027886Y0046814D01*
X0027748Y0045942D01*
X0038102Y0045942D01*
X0038102Y0044743D01*
X0027748Y0044743D01*
X0027886Y0043871D01*
X0028192Y0042930D01*
X0028641Y0042048D01*
X0029223Y0041248D01*
X0029922Y0040549D01*
X0030723Y0039967D01*
X0031604Y0039518D01*
X0032545Y0039212D01*
X0033522Y0039057D01*
X0038102Y0039057D01*
X0038102Y0044742D01*
X0039302Y0044742D01*
X0039302Y0039057D01*
X0043881Y0039057D01*
X0044858Y0039212D01*
X0045799Y0039518D01*
X0046681Y0039967D01*
X0047481Y0040549D01*
X0048181Y0041248D01*
X0048762Y0042048D01*
X0049211Y0042930D01*
X0049517Y0043871D01*
X0049655Y0044743D01*
X0039302Y0044743D01*
X0039302Y0045942D01*
X0049655Y0045942D01*
X0049517Y0046814D01*
X0049211Y0047755D01*
X0048762Y0048637D01*
X0048181Y0049437D01*
X0047481Y0050136D01*
X0046681Y0050718D01*
X0045799Y0051167D01*
X0044858Y0051473D01*
X0043881Y0051628D01*
X0039302Y0051628D01*
X0039302Y0045943D01*
X0038102Y0045943D01*
X0038102Y0051628D01*
X0033522Y0051628D01*
X0032545Y0051473D01*
X0031604Y0051167D01*
X0029631Y0049845D02*
X0026773Y0049845D01*
X0026773Y0048646D02*
X0028648Y0048646D01*
X0028092Y0047448D02*
X0026773Y0047448D01*
X0026773Y0046249D02*
X0027797Y0046249D01*
X0026773Y0045051D02*
X0038102Y0045051D01*
X0038102Y0046249D02*
X0039302Y0046249D01*
X0039302Y0045051D02*
X0068114Y0045051D01*
X0067117Y0046249D02*
X0049606Y0046249D01*
X0049311Y0047448D02*
X0066743Y0047448D01*
X0066743Y0048646D02*
X0048755Y0048646D01*
X0047773Y0049845D02*
X0066028Y0049845D01*
X0065587Y0051043D02*
X0046042Y0051043D01*
X0039302Y0051043D02*
X0038102Y0051043D01*
X0038102Y0049845D02*
X0039302Y0049845D01*
X0039302Y0048646D02*
X0038102Y0048646D01*
X0038102Y0047448D02*
X0039302Y0047448D01*
X0039302Y0043852D02*
X0038102Y0043852D01*
X0038102Y0042654D02*
X0039302Y0042654D01*
X0039302Y0041455D02*
X0038102Y0041455D01*
X0038102Y0040257D02*
X0039302Y0040257D01*
X0039302Y0039058D02*
X0038102Y0039058D01*
X0033517Y0039058D02*
X0026773Y0039058D01*
X0026773Y0037860D02*
X0054525Y0037860D01*
X0055723Y0039058D02*
X0043887Y0039058D01*
X0047080Y0040257D02*
X0056922Y0040257D01*
X0053326Y0036661D02*
X0026773Y0036661D01*
X0026773Y0035463D02*
X0052128Y0035463D01*
X0050929Y0034264D02*
X0026773Y0034264D01*
X0026773Y0033066D02*
X0049731Y0033066D01*
X0048532Y0031867D02*
X0045341Y0031867D01*
X0052156Y0025875D02*
X0064011Y0025875D01*
X0064011Y0027073D02*
X0053355Y0027073D01*
X0054553Y0028272D02*
X0067392Y0028272D01*
X0067392Y0028581D02*
X0064011Y0028581D01*
X0064011Y0030770D01*
X0064120Y0031177D01*
X0064331Y0031541D01*
X0064629Y0031839D01*
X0064994Y0032050D01*
X0065400Y0032159D01*
X0067392Y0032159D01*
X0067392Y0028581D01*
X0067392Y0029470D02*
X0068554Y0029470D01*
X0068554Y0030669D02*
X0067392Y0030669D01*
X0067392Y0031867D02*
X0068554Y0031867D01*
X0071270Y0031867D02*
X0072374Y0031867D01*
X0075973Y0028000D02*
X0080973Y0028000D01*
X0084973Y0032000D01*
X0084973Y0038000D01*
X0084973Y0046000D01*
X0081973Y0049000D01*
X0079064Y0049000D01*
X0078804Y0049260D01*
X0077731Y0045051D02*
X0082528Y0045051D01*
X0082573Y0043852D02*
X0078503Y0043852D01*
X0078723Y0042654D02*
X0082573Y0042654D01*
X0082573Y0041455D02*
X0079679Y0041455D01*
X0079679Y0040257D02*
X0081535Y0040257D01*
X0081205Y0039058D02*
X0079679Y0039058D01*
X0079679Y0037860D02*
X0081205Y0037860D01*
X0081205Y0036661D02*
X0079679Y0036661D01*
X0079679Y0035463D02*
X0081815Y0035463D01*
X0082573Y0034264D02*
X0079641Y0034264D01*
X0079573Y0031867D02*
X0081446Y0031867D01*
X0082573Y0033066D02*
X0059347Y0033066D01*
X0058149Y0031867D02*
X0064677Y0031867D01*
X0064011Y0030669D02*
X0056950Y0030669D01*
X0055752Y0029470D02*
X0064011Y0029470D01*
X0067392Y0027073D02*
X0068554Y0027073D01*
X0068554Y0025875D02*
X0067392Y0025875D01*
X0067392Y0024676D02*
X0068554Y0024676D01*
X0071741Y0024676D02*
X0071830Y0024676D01*
X0074798Y0022279D02*
X0049007Y0022279D01*
X0049759Y0023478D02*
X0077569Y0023478D01*
X0080116Y0024676D02*
X0088973Y0024676D01*
X0088973Y0023478D02*
X0081378Y0023478D01*
X0082114Y0025875D02*
X0088973Y0025875D01*
X0088973Y0027073D02*
X0083441Y0027073D01*
X0084639Y0028272D02*
X0089467Y0028272D01*
X0090665Y0029470D02*
X0085838Y0029470D01*
X0087020Y0030669D02*
X0091864Y0030669D01*
X0097083Y0030669D02*
X0101864Y0030669D01*
X0100665Y0029470D02*
X0098281Y0029470D01*
X0102599Y0033066D02*
X0087373Y0033066D01*
X0087373Y0034264D02*
X0101401Y0034264D01*
X0100202Y0035463D02*
X0097131Y0035463D01*
X0097742Y0036661D02*
X0099004Y0036661D01*
X0097805Y0037860D02*
X0097742Y0037860D01*
X0093973Y0038000D02*
X0093973Y0043500D01*
X0093473Y0044000D01*
X0091210Y0041455D02*
X0087373Y0041455D01*
X0087373Y0042654D02*
X0090011Y0042654D01*
X0088976Y0043852D02*
X0087373Y0043852D01*
X0087373Y0045051D02*
X0088456Y0045051D01*
X0088412Y0040257D02*
X0090535Y0040257D01*
X0090205Y0039058D02*
X0088742Y0039058D01*
X0088742Y0037860D02*
X0090205Y0037860D01*
X0090205Y0036661D02*
X0088742Y0036661D01*
X0088131Y0035463D02*
X0090815Y0035463D01*
X0087373Y0031867D02*
X0103798Y0031867D01*
X0107083Y0030669D02*
X0111864Y0030669D01*
X0110665Y0029470D02*
X0108281Y0029470D01*
X0117083Y0030669D02*
X0121864Y0030669D01*
X0120665Y0029470D02*
X0118281Y0029470D01*
X0127083Y0030669D02*
X0131864Y0030669D01*
X0130665Y0029470D02*
X0128281Y0029470D01*
X0107624Y0041455D02*
X0103826Y0041455D01*
X0102628Y0042654D02*
X0106425Y0042654D01*
X0105227Y0043852D02*
X0101429Y0043852D01*
X0100231Y0045051D02*
X0104573Y0045051D01*
X0104573Y0046249D02*
X0099032Y0046249D01*
X0099730Y0047448D02*
X0104573Y0047448D01*
X0104573Y0048646D02*
X0100886Y0048646D01*
X0101373Y0049845D02*
X0104573Y0049845D01*
X0104573Y0051043D02*
X0101373Y0051043D01*
X0101373Y0052242D02*
X0104573Y0052242D01*
X0092554Y0060632D02*
X0091392Y0060632D01*
X0094438Y0064227D02*
X0070136Y0064227D01*
X0070136Y0065426D02*
X0081852Y0065426D01*
X0080071Y0066624D02*
X0069816Y0066624D01*
X0068373Y0067823D02*
X0079129Y0067823D01*
X0078633Y0069021D02*
X0069461Y0069021D01*
X0070136Y0070220D02*
X0078473Y0070220D01*
X0078473Y0071418D02*
X0070136Y0071418D01*
X0070136Y0072617D02*
X0078897Y0072617D01*
X0079510Y0073815D02*
X0070136Y0073815D01*
X0062485Y0069021D02*
X0061461Y0069021D01*
X0058554Y0061830D02*
X0057392Y0061830D01*
X0057392Y0060632D02*
X0058554Y0060632D01*
X0058554Y0059433D02*
X0057392Y0059433D01*
X0061590Y0059433D02*
X0062073Y0059433D01*
X0069873Y0059433D02*
X0074248Y0059433D01*
X0086095Y0065426D02*
X0093239Y0065426D01*
X0092041Y0066624D02*
X0087876Y0066624D01*
X0098062Y0070220D02*
X0099147Y0070220D01*
X0069313Y0043852D02*
X0049511Y0043852D01*
X0049071Y0042654D02*
X0065223Y0042654D01*
X0064268Y0041455D02*
X0048331Y0041455D01*
X0060546Y0034264D02*
X0064305Y0034264D01*
X0064205Y0024676D02*
X0050958Y0024676D01*
X0047981Y0021081D02*
X0073600Y0021081D01*
X0072522Y0019882D02*
X0046390Y0019882D01*
X0031013Y0019882D02*
X0026773Y0019882D01*
X0026773Y0018684D02*
X0072026Y0018684D01*
X0071529Y0017485D02*
X0026773Y0017485D01*
X0026773Y0016287D02*
X0071374Y0016287D01*
X0071374Y0015088D02*
X0026773Y0015088D01*
X0026773Y0013890D02*
X0071374Y0013890D01*
X0071870Y0012691D02*
X0026773Y0012691D01*
X0026773Y0011493D02*
X0072367Y0011493D01*
X0073225Y0010294D02*
X0026773Y0010294D01*
X0026814Y0009096D02*
X0074424Y0009096D01*
X0076664Y0007897D02*
X0027933Y0007897D01*
X0026773Y0021081D02*
X0029422Y0021081D01*
X0028397Y0022279D02*
X0026773Y0022279D01*
X0026773Y0023478D02*
X0027900Y0023478D01*
X0027532Y0024676D02*
X0026773Y0024676D01*
X0026773Y0025875D02*
X0027532Y0025875D01*
X0027584Y0027073D02*
X0026773Y0027073D01*
X0026773Y0028272D02*
X0028080Y0028272D01*
X0028658Y0029470D02*
X0026773Y0029470D01*
X0026773Y0030669D02*
X0029857Y0030669D01*
X0032062Y0031867D02*
X0026773Y0031867D01*
X0026773Y0040257D02*
X0030324Y0040257D01*
X0029072Y0041455D02*
X0026773Y0041455D01*
X0026773Y0042654D02*
X0028333Y0042654D01*
X0027892Y0043852D02*
X0026773Y0043852D01*
X0026773Y0079808D02*
X0038586Y0079808D01*
X0036816Y0081006D02*
X0026773Y0081006D01*
X0026773Y0082205D02*
X0036243Y0082205D01*
X0036184Y0083403D02*
X0026773Y0083403D01*
X0026773Y0084602D02*
X0036577Y0084602D01*
X0036561Y0085800D02*
X0026773Y0085800D01*
X0026773Y0086999D02*
X0036561Y0086999D01*
X0036561Y0088197D02*
X0026773Y0088197D01*
X0026773Y0089396D02*
X0036561Y0089396D01*
X0036561Y0090594D02*
X0026773Y0090594D01*
X0026773Y0098984D02*
X0036561Y0098984D01*
X0036561Y0100182D02*
X0026773Y0100182D01*
X0026773Y0101381D02*
X0036584Y0101381D01*
X0036184Y0102579D02*
X0026773Y0102579D01*
X0026773Y0103778D02*
X0036236Y0103778D01*
X0036798Y0104976D02*
X0026773Y0104976D01*
X0044380Y0094190D02*
X0044567Y0094190D01*
X0044549Y0091793D02*
X0044397Y0091793D01*
X0040723Y0088000D02*
X0040339Y0083866D01*
X0039473Y0083000D01*
X0048223Y0088000D02*
X0057973Y0088000D01*
X0053811Y0090594D02*
X0052386Y0090594D01*
X0051897Y0091793D02*
X0054299Y0091793D01*
X0054317Y0094190D02*
X0051880Y0094190D01*
X0052386Y0095388D02*
X0053811Y0095388D01*
X0057973Y0098000D02*
X0048223Y0098000D01*
X0052309Y0101381D02*
X0053887Y0101381D01*
X0053811Y0109770D02*
X0052386Y0109770D01*
X0070059Y0101381D02*
X0077751Y0101381D01*
X0079892Y0101381D02*
X0081054Y0101381D01*
X0081054Y0102579D02*
X0079892Y0102579D01*
X0079892Y0103778D02*
X0081054Y0103778D01*
X0083195Y0101381D02*
X0084973Y0101381D01*
X0084944Y0100182D02*
X0070136Y0100182D01*
X0070136Y0098984D02*
X0084915Y0098984D01*
X0053905Y0084602D02*
X0052292Y0084602D01*
X0052141Y0126550D02*
X0054056Y0126550D01*
X0061891Y0126550D02*
X0062056Y0126550D01*
X0051973Y0140500D02*
X0051973Y0148000D01*
X0049473Y0150500D01*
X0042221Y0150500D01*
X0042103Y0150382D01*
X0066864Y0146924D02*
X0067082Y0146924D01*
X0067534Y0144527D02*
X0066413Y0144527D01*
X0114032Y0166101D02*
X0114751Y0166467D01*
X0115426Y0166957D01*
X0116016Y0167547D01*
X0116647Y0168498D02*
X0126004Y0168498D01*
X0124981Y0164902D02*
X0115849Y0164902D01*
X0116807Y0163703D02*
X0123783Y0163703D01*
X0126473Y0163000D02*
X0128233Y0163000D01*
X0129473Y0164500D01*
X0126473Y0163000D02*
X0123973Y0160500D01*
X0119383Y0169696D02*
X0117122Y0169696D01*
X0123373Y0176887D02*
X0143692Y0176887D01*
X0142494Y0178086D02*
X0123373Y0178086D01*
X0123373Y0179284D02*
X0141295Y0179284D01*
X0140097Y0180483D02*
X0122885Y0180483D01*
X0121686Y0181681D02*
X0138898Y0181681D01*
X0137700Y0182880D02*
X0120488Y0182880D01*
X0119289Y0184078D02*
X0136501Y0184078D01*
X0135303Y0185277D02*
X0118091Y0185277D01*
X0116892Y0186475D02*
X0121347Y0186475D01*
X0120463Y0187674D02*
X0115694Y0187674D01*
X0114018Y0188872D02*
X0120184Y0188872D01*
X0120357Y0190071D02*
X0082797Y0190071D01*
X0081598Y0191269D02*
X0111679Y0191269D01*
X0113268Y0191269D02*
X0121091Y0191269D01*
X0123473Y0189000D02*
X0134973Y0189000D01*
X0145973Y0178000D01*
X0172473Y0178000D01*
X0179473Y0171500D01*
X0179780Y0174490D02*
X0180089Y0174490D01*
X0178891Y0175689D02*
X0178490Y0175689D01*
X0177692Y0176887D02*
X0177199Y0176887D01*
X0176494Y0178086D02*
X0175908Y0178086D01*
X0175295Y0179284D02*
X0174617Y0179284D01*
X0174097Y0180483D02*
X0146885Y0180483D01*
X0145898Y0181681D02*
X0145686Y0181681D01*
X0144700Y0182880D02*
X0144488Y0182880D01*
X0143501Y0184078D02*
X0143289Y0184078D01*
X0142303Y0185277D02*
X0142091Y0185277D01*
X0141104Y0186475D02*
X0140892Y0186475D01*
X0139905Y0187674D02*
X0139694Y0187674D01*
X0138707Y0188872D02*
X0138495Y0188872D01*
X0137508Y0190071D02*
X0137297Y0190071D01*
X0136310Y0191269D02*
X0135766Y0191269D01*
X0135111Y0192468D02*
X0115092Y0192468D01*
X0125600Y0186475D02*
X0134104Y0186475D01*
X0138961Y0175689D02*
X0145282Y0175689D01*
X0146328Y0173292D02*
X0174017Y0173292D01*
X0172726Y0174490D02*
X0140377Y0174490D01*
X0141576Y0173292D02*
X0142618Y0173292D01*
X0148892Y0167299D02*
X0150054Y0167299D01*
X0150054Y0166101D02*
X0148892Y0166101D01*
X0153632Y0166101D02*
X0185073Y0166101D01*
X0185073Y0167299D02*
X0153572Y0167299D01*
X0149973Y0189000D02*
X0176973Y0189000D01*
X0183473Y0182500D01*
X0191973Y0182500D01*
X0199473Y0175000D01*
X0199473Y0136500D01*
X0199184Y0133211D02*
X0198873Y0133211D01*
X0198873Y0127481D01*
X0198994Y0127550D01*
X0199400Y0127659D01*
X0201392Y0127659D01*
X0201392Y0124081D01*
X0202554Y0124081D01*
X0202554Y0127659D01*
X0204546Y0127659D01*
X0204953Y0127550D01*
X0205318Y0127339D01*
X0205616Y0127041D01*
X0205811Y0126703D01*
X0205811Y0126805D01*
X0206866Y0127859D01*
X0213081Y0127859D01*
X0214136Y0126805D01*
X0214136Y0122056D01*
X0215073Y0122994D01*
X0215073Y0129711D01*
X0213819Y0129711D01*
X0212610Y0130212D01*
X0211685Y0131137D01*
X0211473Y0131648D01*
X0211262Y0131137D01*
X0210336Y0130212D01*
X0209128Y0129711D01*
X0207819Y0129711D01*
X0206610Y0130212D01*
X0205685Y0131137D01*
X0205473Y0131648D01*
X0205262Y0131137D01*
X0204336Y0130212D01*
X0203128Y0129711D01*
X0201819Y0129711D01*
X0200610Y0130212D01*
X0199685Y0131137D01*
X0199184Y0132346D01*
X0199184Y0133211D01*
X0199184Y0132542D02*
X0198873Y0132542D01*
X0198873Y0131344D02*
X0199599Y0131344D01*
X0198873Y0130145D02*
X0200771Y0130145D01*
X0198873Y0128947D02*
X0215073Y0128947D01*
X0215073Y0127748D02*
X0213192Y0127748D01*
X0214136Y0126550D02*
X0215073Y0126550D01*
X0215073Y0125351D02*
X0214136Y0125351D01*
X0214136Y0124153D02*
X0215073Y0124153D01*
X0215033Y0122954D02*
X0214136Y0122954D01*
X0217473Y0122000D02*
X0217473Y0181000D01*
X0204473Y0194000D01*
X0204473Y0205500D01*
X0198973Y0205651D02*
X0193973Y0205651D01*
X0193973Y0204453D02*
X0198973Y0204453D01*
X0199450Y0203254D02*
X0193973Y0203254D01*
X0193973Y0202056D02*
X0200139Y0202056D01*
X0201338Y0200857D02*
X0193776Y0200857D01*
X0191473Y0197500D02*
X0188473Y0200500D01*
X0188473Y0205500D01*
X0193973Y0206850D02*
X0199079Y0206850D01*
X0199576Y0208048D02*
X0193973Y0208048D01*
X0193973Y0209247D02*
X0200442Y0209247D01*
X0202041Y0210445D02*
X0193473Y0210445D01*
X0183473Y0210445D02*
X0180906Y0210445D01*
X0182505Y0209247D02*
X0182973Y0209247D01*
X0178473Y0205500D02*
X0178473Y0203500D01*
X0187473Y0194500D01*
X0195973Y0194500D01*
X0211473Y0179000D01*
X0211473Y0136500D01*
X0208473Y0133000D02*
X0208473Y0178000D01*
X0194973Y0191500D01*
X0186473Y0191500D01*
X0179973Y0198000D01*
X0170973Y0198000D01*
X0168473Y0200500D01*
X0168473Y0205500D01*
X0164442Y0209247D02*
X0162505Y0209247D01*
X0163371Y0208048D02*
X0163576Y0208048D01*
X0166041Y0210445D02*
X0160906Y0210445D01*
X0156041Y0210445D02*
X0150906Y0210445D01*
X0152505Y0209247D02*
X0154442Y0209247D01*
X0153576Y0208048D02*
X0153371Y0208048D01*
X0148473Y0205500D02*
X0148473Y0200500D01*
X0156973Y0192000D01*
X0177973Y0192000D01*
X0184473Y0185500D01*
X0192973Y0185500D01*
X0202473Y0176000D01*
X0202473Y0133000D01*
X0205347Y0131344D02*
X0205599Y0131344D01*
X0206771Y0130145D02*
X0204176Y0130145D01*
X0206755Y0127748D02*
X0198873Y0127748D01*
X0201392Y0126550D02*
X0202554Y0126550D01*
X0202554Y0125351D02*
X0201392Y0125351D01*
X0201392Y0124153D02*
X0202554Y0124153D01*
X0202554Y0122919D02*
X0202554Y0119341D01*
X0204546Y0119341D01*
X0204953Y0119450D01*
X0205318Y0119661D01*
X0205616Y0119959D01*
X0205811Y0120297D01*
X0205811Y0120195D01*
X0206866Y0119141D01*
X0207220Y0119141D01*
X0204939Y0116859D01*
X0204573Y0115977D01*
X0204573Y0112887D01*
X0203824Y0112887D01*
X0203824Y0108335D01*
X0203824Y0108335D01*
X0203824Y0112887D01*
X0203074Y0112887D01*
X0203074Y0114277D01*
X0202709Y0115159D01*
X0202034Y0115834D01*
X0202034Y0115834D01*
X0198873Y0118994D01*
X0198873Y0119519D01*
X0198994Y0119450D01*
X0199400Y0119341D01*
X0201392Y0119341D01*
X0201392Y0122919D01*
X0202554Y0122919D01*
X0202554Y0121756D02*
X0201392Y0121756D01*
X0201392Y0120557D02*
X0202554Y0120557D01*
X0202554Y0119359D02*
X0201392Y0119359D01*
X0199335Y0119359D02*
X0198873Y0119359D01*
X0199707Y0118160D02*
X0206239Y0118160D01*
X0206648Y0119359D02*
X0204612Y0119359D01*
X0206973Y0115500D02*
X0209973Y0118500D01*
X0209973Y0123500D01*
X0210176Y0130145D02*
X0212771Y0130145D01*
X0211599Y0131344D02*
X0211347Y0131344D01*
X0214473Y0133000D02*
X0214473Y0180000D01*
X0196973Y0197500D01*
X0191473Y0197500D01*
X0198033Y0199659D02*
X0202073Y0199659D01*
X0202073Y0198460D02*
X0199407Y0198460D01*
X0200606Y0197262D02*
X0202073Y0197262D01*
X0202073Y0196063D02*
X0201804Y0196063D01*
X0193973Y0188500D02*
X0185473Y0188500D01*
X0178973Y0195000D01*
X0163973Y0195000D01*
X0158473Y0200500D01*
X0158473Y0205500D01*
X0146041Y0210445D02*
X0140906Y0210445D01*
X0142505Y0209247D02*
X0144442Y0209247D01*
X0143576Y0208048D02*
X0143371Y0208048D01*
X0138473Y0205500D02*
X0138473Y0200500D01*
X0149973Y0189000D01*
X0128873Y0206850D02*
X0128073Y0206850D01*
X0128073Y0208048D02*
X0128873Y0208048D01*
X0128873Y0209247D02*
X0128073Y0209247D01*
X0128073Y0210445D02*
X0128873Y0210445D01*
X0130404Y0210445D02*
X0136041Y0210445D01*
X0134442Y0209247D02*
X0132222Y0209247D01*
X0133123Y0208048D02*
X0133576Y0208048D01*
X0126543Y0210445D02*
X0120906Y0210445D01*
X0122505Y0209247D02*
X0124725Y0209247D01*
X0123823Y0208048D02*
X0123371Y0208048D01*
X0116041Y0210445D02*
X0110906Y0210445D01*
X0112505Y0209247D02*
X0114442Y0209247D01*
X0113576Y0208048D02*
X0113371Y0208048D01*
X0106041Y0210445D02*
X0100906Y0210445D01*
X0102505Y0209247D02*
X0104442Y0209247D01*
X0103576Y0208048D02*
X0103371Y0208048D01*
X0096041Y0210445D02*
X0090982Y0210445D01*
X0091688Y0209247D02*
X0094442Y0209247D01*
X0093576Y0208048D02*
X0092184Y0208048D01*
X0092573Y0206850D02*
X0093079Y0206850D01*
X0089783Y0211644D02*
X0279077Y0211644D01*
X0279473Y0210445D02*
X0280275Y0210445D01*
X0279973Y0209247D02*
X0281474Y0209247D01*
X0282173Y0208048D02*
X0279973Y0208048D01*
X0279973Y0206850D02*
X0282173Y0206850D01*
X0282173Y0205651D02*
X0279973Y0205651D01*
X0279973Y0204453D02*
X0282173Y0204453D01*
X0282173Y0203254D02*
X0279973Y0203254D01*
X0279973Y0202056D02*
X0282173Y0202056D01*
X0282173Y0200857D02*
X0279776Y0200857D01*
X0282173Y0199659D02*
X0276723Y0199659D01*
X0275828Y0198460D02*
X0282173Y0198460D01*
X0282173Y0197262D02*
X0274629Y0197262D01*
X0273431Y0196063D02*
X0282173Y0196063D01*
X0282173Y0194865D02*
X0272232Y0194865D01*
X0271034Y0193666D02*
X0282173Y0193666D01*
X0282173Y0192468D02*
X0269835Y0192468D01*
X0268637Y0191269D02*
X0282173Y0191269D01*
X0282173Y0190071D02*
X0267438Y0190071D01*
X0266240Y0188872D02*
X0282173Y0188872D01*
X0282173Y0187674D02*
X0265041Y0187674D01*
X0262973Y0189000D02*
X0274473Y0200500D01*
X0274473Y0205500D01*
X0268973Y0209247D02*
X0268505Y0209247D01*
X0269473Y0210445D02*
X0266906Y0210445D01*
X0262041Y0210445D02*
X0256906Y0210445D01*
X0258505Y0209247D02*
X0260442Y0209247D01*
X0259576Y0208048D02*
X0259371Y0208048D01*
X0254473Y0205500D02*
X0254473Y0200500D01*
X0248973Y0195000D01*
X0240473Y0195000D01*
X0232473Y0187000D01*
X0232473Y0106000D01*
X0229808Y0103335D01*
X0229808Y0101248D01*
X0229808Y0098098D02*
X0233572Y0098098D01*
X0235473Y0100000D01*
X0235473Y0123500D01*
X0236213Y0124240D01*
X0236213Y0124260D01*
X0235473Y0125000D01*
X0235473Y0185500D01*
X0241973Y0192000D01*
X0255973Y0192000D01*
X0264473Y0200500D01*
X0264473Y0205500D01*
X0252041Y0210445D02*
X0246906Y0210445D01*
X0248505Y0209247D02*
X0250442Y0209247D01*
X0249576Y0208048D02*
X0249371Y0208048D01*
X0244473Y0205500D02*
X0244473Y0201000D01*
X0241473Y0198000D01*
X0238973Y0198000D01*
X0229473Y0188500D01*
X0229473Y0110500D01*
X0227308Y0108335D01*
X0222721Y0108335D01*
X0219572Y0108335D02*
X0219572Y0112098D01*
X0226473Y0119000D01*
X0226473Y0190000D01*
X0234473Y0198000D01*
X0234473Y0205500D01*
X0230442Y0209247D02*
X0228505Y0209247D01*
X0229371Y0208048D02*
X0229576Y0208048D01*
X0232041Y0210445D02*
X0226906Y0210445D01*
X0222041Y0210445D02*
X0216906Y0210445D01*
X0218505Y0209247D02*
X0220442Y0209247D01*
X0219576Y0208048D02*
X0219371Y0208048D01*
X0214473Y0205500D02*
X0214473Y0188000D01*
X0220473Y0182000D01*
X0220473Y0121000D01*
X0213273Y0113799D01*
X0213273Y0108335D01*
X0216422Y0108335D02*
X0216422Y0112949D01*
X0223473Y0120000D01*
X0223473Y0191500D01*
X0224473Y0192500D01*
X0224473Y0205500D01*
X0212041Y0210445D02*
X0206906Y0210445D01*
X0208505Y0209247D02*
X0210442Y0209247D01*
X0209576Y0208048D02*
X0209371Y0208048D01*
X0193973Y0188500D02*
X0205473Y0177000D01*
X0205473Y0136500D01*
X0191073Y0136138D02*
X0189873Y0136138D01*
X0189873Y0137336D02*
X0191073Y0137336D01*
X0191073Y0138535D02*
X0189873Y0138535D01*
X0189873Y0139733D02*
X0191073Y0139733D01*
X0191073Y0140932D02*
X0189873Y0140932D01*
X0189873Y0142130D02*
X0191073Y0142130D01*
X0191073Y0143329D02*
X0189873Y0143329D01*
X0189873Y0144527D02*
X0191073Y0144527D01*
X0191073Y0145726D02*
X0189873Y0145726D01*
X0189873Y0146924D02*
X0191073Y0146924D01*
X0191073Y0134939D02*
X0189873Y0134939D01*
X0189873Y0133741D02*
X0191073Y0133741D01*
X0191073Y0132542D02*
X0189873Y0132542D01*
X0189873Y0131344D02*
X0191073Y0131344D01*
X0191073Y0130145D02*
X0189873Y0130145D01*
X0189873Y0128947D02*
X0191073Y0128947D01*
X0191073Y0127748D02*
X0189873Y0127748D01*
X0189873Y0126550D02*
X0191073Y0126550D01*
X0191073Y0125351D02*
X0189873Y0125351D01*
X0189873Y0124153D02*
X0191073Y0124153D01*
X0185073Y0131344D02*
X0174936Y0131344D01*
X0174863Y0132542D02*
X0185073Y0132542D01*
X0200906Y0116962D02*
X0205041Y0116962D01*
X0204573Y0115763D02*
X0202104Y0115763D01*
X0202955Y0114565D02*
X0204573Y0114565D01*
X0204573Y0113366D02*
X0203074Y0113366D01*
X0203824Y0112168D02*
X0203824Y0112168D01*
X0203824Y0110969D02*
X0203824Y0110969D01*
X0203824Y0109770D02*
X0203824Y0109770D01*
X0203824Y0108572D02*
X0203824Y0108572D01*
X0203824Y0108335D02*
X0203824Y0103782D01*
X0203824Y0103782D01*
X0203824Y0108335D01*
X0203824Y0108335D01*
X0203824Y0107373D02*
X0203824Y0107373D01*
X0203824Y0106175D02*
X0203824Y0106175D01*
X0203824Y0104976D02*
X0203824Y0104976D01*
X0203823Y0103778D02*
X0202600Y0103778D01*
X0206973Y0102500D02*
X0206973Y0108335D01*
X0206973Y0115500D01*
X0210123Y0114650D02*
X0217473Y0122000D01*
X0210123Y0114650D02*
X0210123Y0108335D01*
X0210205Y0103582D02*
X0211853Y0103582D01*
X0224451Y0103582D01*
X0225506Y0104636D01*
X0225506Y0105935D01*
X0227785Y0105935D01*
X0228667Y0106300D01*
X0230073Y0107706D01*
X0230073Y0106994D01*
X0227773Y0104694D01*
X0227499Y0104032D01*
X0226110Y0104032D01*
X0225055Y0102978D01*
X0225055Y0087226D01*
X0221399Y0090882D01*
X0220150Y0091400D01*
X0210373Y0091400D01*
X0210373Y0103176D01*
X0210205Y0103582D01*
X0210373Y0102579D02*
X0225055Y0102579D01*
X0225055Y0101381D02*
X0210373Y0101381D01*
X0210373Y0100182D02*
X0225055Y0100182D01*
X0225055Y0098984D02*
X0210373Y0098984D01*
X0210373Y0097785D02*
X0225055Y0097785D01*
X0225055Y0096587D02*
X0210373Y0096587D01*
X0210373Y0095388D02*
X0225055Y0095388D01*
X0225055Y0094190D02*
X0210373Y0094190D01*
X0210373Y0092991D02*
X0225055Y0092991D01*
X0225055Y0091793D02*
X0210373Y0091793D01*
X0221687Y0090594D02*
X0225055Y0090594D01*
X0225055Y0089396D02*
X0222886Y0089396D01*
X0224084Y0088197D02*
X0225055Y0088197D01*
X0229808Y0088650D02*
X0238123Y0088650D01*
X0239973Y0090500D01*
X0247099Y0090500D01*
X0247473Y0090126D01*
X0254099Y0090126D01*
X0256973Y0093000D01*
X0259713Y0093000D01*
X0259973Y0093000D01*
X0255614Y0095388D02*
X0253418Y0095388D01*
X0253998Y0094190D02*
X0254769Y0094190D01*
X0256093Y0096587D02*
X0246954Y0096587D01*
X0248153Y0097785D02*
X0270794Y0097785D01*
X0271992Y0096587D02*
X0263853Y0096587D01*
X0263424Y0098984D02*
X0269595Y0098984D01*
X0268397Y0100182D02*
X0264332Y0100182D01*
X0264332Y0101381D02*
X0267198Y0101381D01*
X0266573Y0102579D02*
X0264332Y0102579D01*
X0264332Y0103778D02*
X0266573Y0103778D01*
X0266573Y0104976D02*
X0264332Y0104976D01*
X0264265Y0106175D02*
X0266573Y0106175D01*
X0266573Y0107373D02*
X0263531Y0107373D01*
X0264132Y0108572D02*
X0266573Y0108572D01*
X0266573Y0109770D02*
X0264132Y0109770D01*
X0264132Y0112168D02*
X0266652Y0112168D01*
X0266573Y0110969D02*
X0260555Y0110969D01*
X0259392Y0110969D02*
X0253585Y0110969D01*
X0253998Y0109770D02*
X0255814Y0109770D01*
X0255814Y0108572D02*
X0253998Y0108572D01*
X0255994Y0107373D02*
X0256416Y0107373D01*
X0254099Y0105874D02*
X0256973Y0103000D01*
X0259713Y0103000D01*
X0259973Y0103000D01*
X0255614Y0100965D02*
X0255614Y0100965D01*
X0255198Y0101381D02*
X0253998Y0101381D01*
X0253998Y0102579D02*
X0254000Y0102579D01*
X0252989Y0100182D02*
X0255614Y0100182D01*
X0256523Y0098984D02*
X0249351Y0098984D01*
X0247473Y0100500D02*
X0247473Y0105874D01*
X0254099Y0105874D01*
X0247473Y0100500D02*
X0244973Y0098000D01*
X0242473Y0098000D01*
X0236273Y0091799D01*
X0229808Y0091799D01*
X0229808Y0094949D02*
X0234922Y0094949D01*
X0238473Y0098500D01*
X0238473Y0112000D01*
X0246973Y0120500D01*
X0246973Y0123500D01*
X0247713Y0124240D01*
X0247713Y0124260D01*
X0246973Y0125000D01*
X0246973Y0140500D01*
X0238473Y0149000D01*
X0238473Y0184000D01*
X0243473Y0189000D01*
X0262973Y0189000D01*
X0244343Y0186475D02*
X0282173Y0186475D01*
X0282173Y0185277D02*
X0243144Y0185277D01*
X0241946Y0184078D02*
X0282173Y0184078D01*
X0282173Y0182880D02*
X0240873Y0182880D01*
X0240873Y0181681D02*
X0282173Y0181681D01*
X0282173Y0180483D02*
X0240873Y0180483D01*
X0240873Y0179284D02*
X0282173Y0179284D01*
X0282173Y0178086D02*
X0240873Y0178086D01*
X0240873Y0176887D02*
X0282173Y0176887D01*
X0282173Y0175689D02*
X0240873Y0175689D01*
X0240873Y0174490D02*
X0282173Y0174490D01*
X0282173Y0173292D02*
X0240873Y0173292D01*
X0240873Y0172093D02*
X0282173Y0172093D01*
X0282173Y0170895D02*
X0240873Y0170895D01*
X0240873Y0169696D02*
X0282173Y0169696D01*
X0282173Y0168498D02*
X0240873Y0168498D01*
X0240873Y0167299D02*
X0282173Y0167299D01*
X0282173Y0166101D02*
X0240873Y0166101D01*
X0240873Y0164902D02*
X0282173Y0164902D01*
X0282173Y0163703D02*
X0240873Y0163703D01*
X0240873Y0162505D02*
X0283216Y0162505D01*
X0283521Y0162200D02*
X0283521Y0162200D01*
X0284414Y0161306D02*
X0240873Y0161306D01*
X0240873Y0160108D02*
X0285613Y0160108D01*
X0286811Y0158909D02*
X0240873Y0158909D01*
X0240873Y0157711D02*
X0250217Y0157711D01*
X0246651Y0156512D02*
X0240873Y0156512D01*
X0240873Y0155314D02*
X0245165Y0155314D01*
X0244684Y0154115D02*
X0240873Y0154115D01*
X0240873Y0152917D02*
X0244684Y0152917D01*
X0245151Y0151718D02*
X0240873Y0151718D01*
X0240873Y0150520D02*
X0246573Y0150520D01*
X0249373Y0150520D02*
X0250987Y0150520D01*
X0250114Y0149321D02*
X0241546Y0149321D01*
X0242745Y0148123D02*
X0250114Y0148123D01*
X0250114Y0146924D02*
X0243943Y0146924D01*
X0245142Y0145726D02*
X0250114Y0145726D01*
X0250114Y0144527D02*
X0246340Y0144527D01*
X0247539Y0143329D02*
X0250178Y0143329D01*
X0248737Y0142130D02*
X0265002Y0142130D01*
X0266229Y0140932D02*
X0253490Y0140932D01*
X0254815Y0139733D02*
X0267457Y0139733D01*
X0268685Y0138535D02*
X0255262Y0138535D01*
X0255258Y0137336D02*
X0269913Y0137336D01*
X0271140Y0136138D02*
X0255302Y0136138D01*
X0256332Y0134939D02*
X0272368Y0134939D01*
X0273596Y0133741D02*
X0256332Y0133741D01*
X0256332Y0132542D02*
X0274824Y0132542D01*
X0276051Y0131344D02*
X0256332Y0131344D01*
X0256332Y0130145D02*
X0272340Y0130145D01*
X0271142Y0128947D02*
X0256332Y0128947D01*
X0255692Y0127748D02*
X0270451Y0127748D01*
X0269973Y0126550D02*
X0256332Y0126550D01*
X0256332Y0125351D02*
X0269973Y0125351D01*
X0270078Y0124153D02*
X0256332Y0124153D01*
X0256332Y0122954D02*
X0270575Y0122954D01*
X0271440Y0121756D02*
X0256332Y0121756D01*
X0255997Y0120557D02*
X0272310Y0120557D01*
X0270554Y0119359D02*
X0249098Y0119359D01*
X0248333Y0118465D02*
X0248333Y0118465D01*
X0248027Y0118160D02*
X0269622Y0118160D01*
X0269126Y0116962D02*
X0246829Y0116962D01*
X0245630Y0115763D02*
X0268973Y0115763D01*
X0268644Y0114565D02*
X0263593Y0114565D01*
X0264132Y0113366D02*
X0267445Y0113366D01*
X0267614Y0113535D02*
X0267614Y0113535D01*
X0268973Y0111500D02*
X0268973Y0103000D01*
X0277473Y0094500D01*
X0277473Y0062500D01*
X0275473Y0060500D01*
X0292173Y0051043D02*
X0205873Y0051043D01*
X0211095Y0049845D02*
X0292173Y0049845D01*
X0277776Y0040257D02*
X0257796Y0040257D01*
X0259309Y0039058D02*
X0277181Y0039058D01*
X0276684Y0037860D02*
X0260508Y0037860D01*
X0261706Y0036661D02*
X0276374Y0036661D01*
X0276374Y0035463D02*
X0262905Y0035463D01*
X0264103Y0034264D02*
X0276374Y0034264D01*
X0276715Y0033066D02*
X0265302Y0033066D01*
X0266500Y0031867D02*
X0277212Y0031867D01*
X0277851Y0030669D02*
X0267699Y0030669D01*
X0268897Y0029470D02*
X0279049Y0029470D01*
X0280760Y0028272D02*
X0270096Y0028272D01*
X0279068Y0018684D02*
X0284404Y0018684D01*
X0283206Y0017485D02*
X0279604Y0017485D01*
X0279973Y0016287D02*
X0282173Y0016287D01*
X0282173Y0015088D02*
X0279973Y0015088D01*
X0279759Y0013890D02*
X0282173Y0013890D01*
X0282173Y0012691D02*
X0279263Y0012691D01*
X0278244Y0011493D02*
X0282173Y0011493D01*
X0282173Y0010294D02*
X0276277Y0010294D01*
X0272669Y0010294D02*
X0266277Y0010294D01*
X0268244Y0011493D02*
X0270703Y0011493D01*
X0269684Y0012691D02*
X0269263Y0012691D01*
X0281014Y0007897D02*
X0082282Y0007897D01*
X0084523Y0009096D02*
X0282133Y0009096D01*
X0236174Y0053440D02*
X0216565Y0053440D01*
X0217470Y0054639D02*
X0234940Y0054639D01*
X0233742Y0055837D02*
X0217762Y0055837D01*
X0217604Y0057036D02*
X0232543Y0057036D01*
X0231345Y0058234D02*
X0224773Y0058234D01*
X0225506Y0059433D02*
X0230610Y0059433D01*
X0230573Y0060632D02*
X0225506Y0060632D01*
X0225506Y0061830D02*
X0230573Y0061830D01*
X0230573Y0063029D02*
X0225506Y0063029D01*
X0225506Y0064227D02*
X0230573Y0064227D01*
X0230573Y0065426D02*
X0225506Y0065426D01*
X0225245Y0066624D02*
X0229542Y0066624D01*
X0222721Y0069252D02*
X0222721Y0062665D01*
X0219572Y0062665D02*
X0219572Y0068902D01*
X0215973Y0072500D01*
X0211473Y0072500D01*
X0209102Y0070220D02*
X0206873Y0070220D01*
X0206873Y0071418D02*
X0208361Y0071418D01*
X0206873Y0069021D02*
X0211184Y0069021D01*
X0211608Y0067823D02*
X0206873Y0067823D01*
X0210123Y0062665D02*
X0210123Y0056350D01*
X0210473Y0056000D01*
X0214473Y0056000D02*
X0214473Y0058000D01*
X0213273Y0059201D01*
X0213273Y0062665D01*
X0216422Y0062665D02*
X0216422Y0067551D01*
X0214473Y0069500D01*
X0216473Y0075500D02*
X0208473Y0075500D01*
X0216473Y0075500D02*
X0222721Y0069252D01*
X0229808Y0079201D02*
X0235773Y0079201D01*
X0237473Y0077500D01*
X0237623Y0082350D02*
X0229808Y0082350D01*
X0225123Y0082350D01*
X0223973Y0083500D01*
X0239866Y0086999D02*
X0240949Y0086999D01*
X0253156Y0084602D02*
X0259392Y0084602D01*
X0255814Y0085800D02*
X0253998Y0085800D01*
X0253998Y0086999D02*
X0255814Y0086999D01*
X0256049Y0088197D02*
X0255565Y0088197D01*
X0241471Y0100182D02*
X0240873Y0100182D01*
X0240873Y0101381D02*
X0240949Y0101381D01*
X0240949Y0102579D02*
X0240873Y0102579D01*
X0240873Y0103778D02*
X0240949Y0103778D01*
X0240949Y0104976D02*
X0240873Y0104976D01*
X0240873Y0106175D02*
X0240949Y0106175D01*
X0240949Y0107373D02*
X0240873Y0107373D01*
X0240873Y0108572D02*
X0240949Y0108572D01*
X0240949Y0109770D02*
X0240873Y0109770D01*
X0240873Y0110969D02*
X0241361Y0110969D01*
X0242035Y0112168D02*
X0255814Y0112168D01*
X0255814Y0111581D02*
X0259392Y0111581D01*
X0259392Y0114962D01*
X0257204Y0114962D01*
X0256797Y0114853D01*
X0256432Y0114643D01*
X0256134Y0114345D01*
X0255923Y0113980D01*
X0255814Y0113573D01*
X0255814Y0111581D01*
X0255814Y0113366D02*
X0243233Y0113366D01*
X0244432Y0114565D02*
X0256354Y0114565D01*
X0259392Y0114565D02*
X0260554Y0114565D01*
X0260554Y0113366D02*
X0259392Y0113366D01*
X0259392Y0112168D02*
X0260554Y0112168D01*
X0268973Y0111500D02*
X0272973Y0115500D01*
X0274473Y0115500D01*
X0279473Y0111000D02*
X0280473Y0110000D01*
X0284473Y0115500D02*
X0286973Y0115500D01*
X0290973Y0111500D01*
X0290973Y0103000D01*
X0291303Y0114565D02*
X0292173Y0114565D01*
X0292173Y0115763D02*
X0290104Y0115763D01*
X0289821Y0116962D02*
X0292173Y0116962D01*
X0292173Y0118160D02*
X0289325Y0118160D01*
X0288393Y0119359D02*
X0292173Y0119359D01*
X0292173Y0120557D02*
X0287912Y0120557D01*
X0289507Y0121756D02*
X0292173Y0121756D01*
X0292173Y0122954D02*
X0290372Y0122954D01*
X0290868Y0124153D02*
X0292173Y0124153D01*
X0292173Y0125351D02*
X0290973Y0125351D01*
X0290973Y0126550D02*
X0292173Y0126550D01*
X0292173Y0127748D02*
X0290495Y0127748D01*
X0289805Y0128947D02*
X0292173Y0128947D01*
X0292173Y0130145D02*
X0288606Y0130145D01*
X0292173Y0131344D02*
X0282923Y0131344D01*
X0281695Y0132542D02*
X0292173Y0132542D01*
X0292173Y0133741D02*
X0280467Y0133741D01*
X0279240Y0134939D02*
X0292173Y0134939D01*
X0292173Y0136138D02*
X0278012Y0136138D01*
X0276784Y0137336D02*
X0292173Y0137336D01*
X0292173Y0138535D02*
X0288822Y0138535D01*
X0290161Y0139733D02*
X0292173Y0139733D01*
X0292173Y0140932D02*
X0291348Y0140932D01*
X0291844Y0142130D02*
X0292173Y0142130D01*
X0292153Y0148123D02*
X0292173Y0148123D01*
X0292173Y0149321D02*
X0291657Y0149321D01*
X0292173Y0150520D02*
X0290907Y0150520D01*
X0289709Y0151718D02*
X0292173Y0151718D01*
X0292173Y0152917D02*
X0287732Y0152917D01*
X0290407Y0155314D02*
X0267454Y0155314D01*
X0267454Y0156512D02*
X0289208Y0156512D01*
X0288010Y0157711D02*
X0267454Y0157711D01*
X0264473Y0155000D02*
X0260690Y0155000D01*
X0259930Y0154240D01*
X0254473Y0154500D01*
X0248713Y0154240D01*
X0247973Y0153500D01*
X0254473Y0146500D02*
X0259930Y0146760D01*
X0260690Y0146000D01*
X0264473Y0146000D01*
X0285473Y0125500D01*
X0279973Y0120500D02*
X0279473Y0120000D01*
X0279973Y0120500D02*
X0275473Y0125500D01*
X0275556Y0138535D02*
X0280125Y0138535D01*
X0278786Y0139733D02*
X0274329Y0139733D01*
X0273101Y0140932D02*
X0277599Y0140932D01*
X0277103Y0142130D02*
X0271873Y0142130D01*
X0270645Y0143329D02*
X0276606Y0143329D01*
X0276374Y0144527D02*
X0269418Y0144527D01*
X0268190Y0145726D02*
X0276374Y0145726D01*
X0276374Y0146924D02*
X0267454Y0146924D01*
X0267454Y0148123D02*
X0276793Y0148123D01*
X0277290Y0149321D02*
X0266847Y0149321D01*
X0266887Y0151718D02*
X0279238Y0151718D01*
X0278039Y0150520D02*
X0257960Y0150520D01*
X0258832Y0151718D02*
X0262060Y0151718D01*
X0262099Y0149321D02*
X0258832Y0149321D01*
X0258769Y0143329D02*
X0261492Y0143329D01*
X0251973Y0138000D02*
X0251973Y0132000D01*
X0251973Y0124000D02*
X0247713Y0124260D01*
X0246973Y0125000D02*
X0246973Y0123500D01*
X0241973Y0124000D02*
X0236213Y0124260D01*
X0235473Y0125000D02*
X0235473Y0123500D01*
X0241973Y0132000D02*
X0241973Y0138000D01*
X0248333Y0142535D02*
X0248333Y0142535D01*
X0249373Y0140932D02*
X0250457Y0140932D01*
X0267454Y0152917D02*
X0281215Y0152917D01*
X0291605Y0154115D02*
X0267454Y0154115D01*
X0261492Y0157711D02*
X0258729Y0157711D01*
X0239576Y0208048D02*
X0239371Y0208048D01*
X0238505Y0209247D02*
X0240442Y0209247D01*
X0242041Y0210445D02*
X0236906Y0210445D01*
X0277878Y0212842D02*
X0087911Y0212842D01*
X0080300Y0181681D02*
X0079073Y0181681D01*
X0148973Y0129374D02*
X0151973Y0132374D01*
X0158051Y0121756D02*
X0158811Y0121756D01*
X0158636Y0120557D02*
X0158498Y0120557D01*
X0151973Y0116626D02*
X0149599Y0114000D01*
X0224647Y0103778D02*
X0225855Y0103778D01*
X0225506Y0104976D02*
X0228056Y0104976D01*
X0228366Y0106175D02*
X0229254Y0106175D01*
X0229741Y0107373D02*
X0230073Y0107373D01*
X0221077Y0019882D02*
X0207869Y0019882D01*
X0209068Y0018684D02*
X0219879Y0018684D01*
X0219342Y0017485D02*
X0209604Y0017485D01*
X0209973Y0016287D02*
X0218973Y0016287D01*
X0218973Y0015088D02*
X0209973Y0015088D01*
X0209759Y0013890D02*
X0219187Y0013890D01*
X0219684Y0012691D02*
X0209263Y0012691D01*
X0208244Y0011493D02*
X0220703Y0011493D01*
X0131901Y0010294D02*
X0127046Y0010294D01*
X0128244Y0011493D02*
X0130703Y0011493D01*
X0129504Y0012691D02*
X0129443Y0012691D01*
X0121901Y0010294D02*
X0117046Y0010294D01*
X0118244Y0011493D02*
X0120703Y0011493D01*
X0119504Y0012691D02*
X0119443Y0012691D01*
X0111901Y0010294D02*
X0107046Y0010294D01*
X0108244Y0011493D02*
X0110703Y0011493D01*
X0109504Y0012691D02*
X0109443Y0012691D01*
X0101901Y0010294D02*
X0097046Y0010294D01*
X0098244Y0011493D02*
X0100703Y0011493D01*
X0099504Y0012691D02*
X0099443Y0012691D01*
X0091901Y0010294D02*
X0085721Y0010294D01*
X0086580Y0011493D02*
X0090703Y0011493D01*
X0089504Y0012691D02*
X0087076Y0012691D01*
X0087573Y0013890D02*
X0088973Y0013890D01*
X0088973Y0015088D02*
X0087573Y0015088D01*
X0087573Y0016287D02*
X0088973Y0016287D01*
X0088973Y0017485D02*
X0087418Y0017485D01*
X0086921Y0018684D02*
X0089879Y0018684D01*
X0091077Y0019882D02*
X0086425Y0019882D01*
X0085347Y0021081D02*
X0091115Y0021081D01*
X0089916Y0022279D02*
X0084148Y0022279D01*
X0080248Y0030669D02*
X0080136Y0030669D01*
X0173371Y0208048D02*
X0173576Y0208048D01*
X0174442Y0209247D02*
X0172505Y0209247D01*
X0170906Y0210445D02*
X0176041Y0210445D01*
D36*
X0144473Y0170500D03*
X0161973Y0160500D03*
X0169473Y0160500D03*
X0144473Y0151500D03*
X0142473Y0147500D03*
X0118473Y0157000D03*
X0110973Y0153000D03*
X0107973Y0138000D03*
X0116473Y0136000D03*
X0112473Y0123500D03*
X0112473Y0119000D03*
X0118973Y0120000D03*
X0121973Y0123000D03*
X0126473Y0118000D03*
X0141473Y0125000D03*
X0120973Y0105250D03*
X0107973Y0101000D03*
X0095473Y0101000D03*
X0095473Y0094000D03*
X0096973Y0082500D03*
X0096973Y0074500D03*
X0109473Y0081500D03*
X0114473Y0076500D03*
X0119473Y0071500D03*
X0114473Y0066500D03*
X0119473Y0061500D03*
X0114473Y0056500D03*
X0119473Y0052500D03*
X0129473Y0053000D03*
X0134473Y0056500D03*
X0139473Y0052500D03*
X0144473Y0056500D03*
X0149473Y0052500D03*
X0154473Y0056500D03*
X0149473Y0061500D03*
X0144473Y0066500D03*
X0139473Y0071500D03*
X0134473Y0076500D03*
X0129473Y0081500D03*
X0119473Y0081500D03*
X0139473Y0081500D03*
X0144473Y0076500D03*
X0149473Y0071500D03*
X0154473Y0066500D03*
X0154473Y0076500D03*
X0164973Y0077500D03*
X0177973Y0092000D03*
X0177473Y0096000D03*
X0176973Y0100000D03*
X0174473Y0103000D03*
X0179473Y0107500D03*
X0185973Y0109500D03*
X0184473Y0114000D03*
X0187473Y0120000D03*
X0179473Y0128000D03*
X0179473Y0135500D03*
X0199473Y0136500D03*
X0202473Y0133000D03*
X0205473Y0136500D03*
X0208473Y0133000D03*
X0211473Y0136500D03*
X0214473Y0133000D03*
X0241973Y0138000D03*
X0251973Y0138000D03*
X0264473Y0130500D03*
X0264473Y0120500D03*
X0251973Y0115500D03*
X0269473Y0093000D03*
X0269473Y0085500D03*
X0286973Y0085500D03*
X0286973Y0093000D03*
X0264473Y0068000D03*
X0256973Y0068000D03*
X0251473Y0073500D03*
X0237473Y0077500D03*
X0214473Y0069500D03*
X0211473Y0072500D03*
X0208473Y0075500D03*
X0205473Y0078500D03*
X0202473Y0081500D03*
X0199473Y0084500D03*
X0190973Y0084000D03*
X0193973Y0074500D03*
X0190973Y0071500D03*
X0196973Y0070500D03*
X0210473Y0056000D03*
X0214473Y0056000D03*
X0224473Y0048000D03*
X0231973Y0048000D03*
X0261973Y0048000D03*
X0269473Y0048000D03*
X0220973Y0097000D03*
X0195973Y0095500D03*
X0166973Y0103000D03*
X0145473Y0101000D03*
X0145973Y0092500D03*
X0145973Y0088500D03*
X0133473Y0101000D03*
X0087973Y0133000D03*
X0076973Y0133000D03*
X0076973Y0140500D03*
X0076973Y0145500D03*
X0076973Y0150500D03*
X0076973Y0155500D03*
X0088473Y0150500D03*
X0081973Y0168000D03*
X0081973Y0178000D03*
X0084473Y0193000D03*
X0091973Y0193000D03*
X0112473Y0194500D03*
X0123473Y0189000D03*
X0054473Y0178000D03*
X0044473Y0178000D03*
X0051973Y0140500D03*
X0051973Y0133000D03*
X0071473Y0113000D03*
X0071473Y0108000D03*
X0071473Y0098000D03*
X0071473Y0080500D03*
X0071473Y0063000D03*
X0083973Y0063000D03*
X0091973Y0063000D03*
X0102473Y0046500D03*
X0094473Y0033000D03*
X0069473Y0015500D03*
X0059473Y0015500D03*
X0139473Y0061500D03*
X0160473Y0052500D03*
X0176473Y0044000D03*
X0181473Y0044000D03*
X0184473Y0047000D03*
X0179473Y0033500D03*
X0188973Y0031000D03*
X0159473Y0024500D03*
X0159473Y0021000D03*
X0144473Y0015500D03*
X0039473Y0083000D03*
X0039473Y0103000D03*
X0031973Y0105500D03*
X0247973Y0153500D03*
X0269473Y0160500D03*
X0279473Y0160500D03*
D37*
X0206973Y0102500D02*
X0206973Y0088000D01*
X0219473Y0088000D01*
X0223973Y0083500D01*
X0206973Y0088000D02*
X0202473Y0088000D01*
X0200973Y0089500D01*
X0197973Y0089500D01*
X0196973Y0088500D01*
X0195473Y0088500D01*
X0195473Y0082500D01*
X0203473Y0074500D01*
X0203473Y0068500D01*
X0177473Y0087500D02*
X0176973Y0087000D01*
X0173473Y0090500D01*
X0169473Y0090500D01*
X0159973Y0090500D01*
X0160973Y0090000D01*
X0159973Y0090500D02*
X0159973Y0103500D01*
X0156473Y0107000D01*
X0132973Y0107000D01*
X0130973Y0109000D01*
X0127973Y0116500D02*
X0126473Y0118000D01*
X0126473Y0124000D01*
X0128973Y0126500D01*
X0088804Y0115500D02*
X0088213Y0114909D01*
X0088473Y0105500D01*
X0088213Y0094740D01*
X0083973Y0090500D01*
X0083973Y0070500D02*
X0092973Y0070500D01*
X0096973Y0066500D01*
X0104773Y0066500D01*
X0104773Y0057400D02*
X0099873Y0057400D01*
X0097973Y0055500D01*
X0097973Y0050500D01*
X0096473Y0049000D01*
X0091973Y0049000D01*
X0091973Y0045500D01*
X0093473Y0044000D01*
X0096473Y0044000D01*
X0105973Y0034500D01*
X0155473Y0034500D01*
X0159473Y0030500D01*
X0159473Y0021000D01*
X0169473Y0025500D02*
X0169473Y0050500D01*
X0159973Y0060000D01*
X0159973Y0087500D01*
X0189973Y0088500D02*
X0195473Y0088500D01*
X0169473Y0025500D02*
X0174473Y0020500D01*
X0174473Y0015500D01*
X0091973Y0049000D02*
X0087713Y0049260D01*
X0085473Y0051500D01*
X0085473Y0054500D01*
X0083233Y0056740D01*
X0078804Y0056740D01*
X0070143Y0053000D02*
X0070143Y0047831D01*
X0075320Y0042654D01*
X0075320Y0038000D01*
X0068627Y0038000D02*
X0059473Y0038000D01*
X0046973Y0025500D01*
X0038859Y0025500D01*
X0038702Y0025657D01*
X0080143Y0115500D02*
X0080733Y0116091D01*
X0080473Y0125500D01*
X0080733Y0129260D01*
X0082473Y0131000D01*
X0082473Y0157500D01*
X0079473Y0160500D01*
X0070320Y0160500D01*
D38*
X0119473Y0078000D02*
X0136973Y0078000D01*
X0136973Y0055500D01*
X0119473Y0055500D01*
X0119473Y0078000D01*
X0119473Y0077433D02*
X0136973Y0077433D01*
X0136973Y0075834D02*
X0119473Y0075834D01*
X0119473Y0074236D02*
X0136973Y0074236D01*
X0136973Y0072637D02*
X0119473Y0072637D01*
X0119473Y0071039D02*
X0136973Y0071039D01*
X0136973Y0069440D02*
X0119473Y0069440D01*
X0119473Y0067842D02*
X0136973Y0067842D01*
X0136973Y0066243D02*
X0119473Y0066243D01*
X0119473Y0064645D02*
X0136973Y0064645D01*
X0136973Y0063046D02*
X0119473Y0063046D01*
X0119473Y0061448D02*
X0136973Y0061448D01*
X0136973Y0059849D02*
X0119473Y0059849D01*
X0119473Y0058251D02*
X0136973Y0058251D01*
X0136973Y0056652D02*
X0119473Y0056652D01*
M02*
