G75*
G70*
%OFA0B0*%
%FSLAX24Y24*%
%IPPOS*%
%LPD*%
%AMOC8*
5,1,8,0,0,1.08239X$1,22.5*
%
%ADD10C,0.0000*%
%ADD11C,0.1300*%
%ADD12C,0.0100*%
%ADD13C,0.0780*%
%ADD14R,0.0780X0.0780*%
%ADD15OC8,0.0780*%
%ADD16C,0.0434*%
%ADD17C,0.1740*%
D10*
X007319Y001837D02*
X007321Y001887D01*
X007327Y001937D01*
X007337Y001986D01*
X007351Y002034D01*
X007368Y002081D01*
X007389Y002126D01*
X007414Y002170D01*
X007442Y002211D01*
X007474Y002250D01*
X007508Y002287D01*
X007545Y002321D01*
X007585Y002351D01*
X007627Y002378D01*
X007671Y002402D01*
X007717Y002423D01*
X007764Y002439D01*
X007812Y002452D01*
X007862Y002461D01*
X007911Y002466D01*
X007962Y002467D01*
X008012Y002464D01*
X008061Y002457D01*
X008110Y002446D01*
X008158Y002431D01*
X008204Y002413D01*
X008249Y002391D01*
X008292Y002365D01*
X008333Y002336D01*
X008372Y002304D01*
X008408Y002269D01*
X008440Y002231D01*
X008470Y002191D01*
X008497Y002148D01*
X008520Y002104D01*
X008539Y002058D01*
X008555Y002010D01*
X008567Y001961D01*
X008575Y001912D01*
X008579Y001862D01*
X008579Y001812D01*
X008575Y001762D01*
X008567Y001713D01*
X008555Y001664D01*
X008539Y001616D01*
X008520Y001570D01*
X008497Y001526D01*
X008470Y001483D01*
X008440Y001443D01*
X008408Y001405D01*
X008372Y001370D01*
X008333Y001338D01*
X008292Y001309D01*
X008249Y001283D01*
X008204Y001261D01*
X008158Y001243D01*
X008110Y001228D01*
X008061Y001217D01*
X008012Y001210D01*
X007962Y001207D01*
X007911Y001208D01*
X007862Y001213D01*
X007812Y001222D01*
X007764Y001235D01*
X007717Y001251D01*
X007671Y001272D01*
X007627Y001296D01*
X007585Y001323D01*
X007545Y001353D01*
X007508Y001387D01*
X007474Y001424D01*
X007442Y001463D01*
X007414Y001504D01*
X007389Y001548D01*
X007368Y001593D01*
X007351Y001640D01*
X007337Y001688D01*
X007327Y001737D01*
X007321Y001787D01*
X007319Y001837D01*
X004396Y014970D02*
X004398Y014997D01*
X004404Y015024D01*
X004413Y015050D01*
X004426Y015074D01*
X004442Y015097D01*
X004461Y015116D01*
X004483Y015133D01*
X004507Y015147D01*
X004532Y015157D01*
X004559Y015164D01*
X004586Y015167D01*
X004614Y015166D01*
X004641Y015161D01*
X004667Y015153D01*
X004691Y015141D01*
X004714Y015125D01*
X004735Y015107D01*
X004752Y015086D01*
X004767Y015062D01*
X004778Y015037D01*
X004786Y015011D01*
X004790Y014984D01*
X004790Y014956D01*
X004786Y014929D01*
X004778Y014903D01*
X004767Y014878D01*
X004752Y014854D01*
X004735Y014833D01*
X004714Y014815D01*
X004692Y014799D01*
X004667Y014787D01*
X004641Y014779D01*
X004614Y014774D01*
X004586Y014773D01*
X004559Y014776D01*
X004532Y014783D01*
X004507Y014793D01*
X004483Y014807D01*
X004461Y014824D01*
X004442Y014843D01*
X004426Y014866D01*
X004413Y014890D01*
X004404Y014916D01*
X004398Y014943D01*
X004396Y014970D01*
X004396Y016703D02*
X004398Y016730D01*
X004404Y016757D01*
X004413Y016783D01*
X004426Y016807D01*
X004442Y016830D01*
X004461Y016849D01*
X004483Y016866D01*
X004507Y016880D01*
X004532Y016890D01*
X004559Y016897D01*
X004586Y016900D01*
X004614Y016899D01*
X004641Y016894D01*
X004667Y016886D01*
X004691Y016874D01*
X004714Y016858D01*
X004735Y016840D01*
X004752Y016819D01*
X004767Y016795D01*
X004778Y016770D01*
X004786Y016744D01*
X004790Y016717D01*
X004790Y016689D01*
X004786Y016662D01*
X004778Y016636D01*
X004767Y016611D01*
X004752Y016587D01*
X004735Y016566D01*
X004714Y016548D01*
X004692Y016532D01*
X004667Y016520D01*
X004641Y016512D01*
X004614Y016507D01*
X004586Y016506D01*
X004559Y016509D01*
X004532Y016516D01*
X004507Y016526D01*
X004483Y016540D01*
X004461Y016557D01*
X004442Y016576D01*
X004426Y016599D01*
X004413Y016623D01*
X004404Y016649D01*
X004398Y016676D01*
X004396Y016703D01*
X007819Y020837D02*
X007821Y020887D01*
X007827Y020937D01*
X007837Y020986D01*
X007851Y021034D01*
X007868Y021081D01*
X007889Y021126D01*
X007914Y021170D01*
X007942Y021211D01*
X007974Y021250D01*
X008008Y021287D01*
X008045Y021321D01*
X008085Y021351D01*
X008127Y021378D01*
X008171Y021402D01*
X008217Y021423D01*
X008264Y021439D01*
X008312Y021452D01*
X008362Y021461D01*
X008411Y021466D01*
X008462Y021467D01*
X008512Y021464D01*
X008561Y021457D01*
X008610Y021446D01*
X008658Y021431D01*
X008704Y021413D01*
X008749Y021391D01*
X008792Y021365D01*
X008833Y021336D01*
X008872Y021304D01*
X008908Y021269D01*
X008940Y021231D01*
X008970Y021191D01*
X008997Y021148D01*
X009020Y021104D01*
X009039Y021058D01*
X009055Y021010D01*
X009067Y020961D01*
X009075Y020912D01*
X009079Y020862D01*
X009079Y020812D01*
X009075Y020762D01*
X009067Y020713D01*
X009055Y020664D01*
X009039Y020616D01*
X009020Y020570D01*
X008997Y020526D01*
X008970Y020483D01*
X008940Y020443D01*
X008908Y020405D01*
X008872Y020370D01*
X008833Y020338D01*
X008792Y020309D01*
X008749Y020283D01*
X008704Y020261D01*
X008658Y020243D01*
X008610Y020228D01*
X008561Y020217D01*
X008512Y020210D01*
X008462Y020207D01*
X008411Y020208D01*
X008362Y020213D01*
X008312Y020222D01*
X008264Y020235D01*
X008217Y020251D01*
X008171Y020272D01*
X008127Y020296D01*
X008085Y020323D01*
X008045Y020353D01*
X008008Y020387D01*
X007974Y020424D01*
X007942Y020463D01*
X007914Y020504D01*
X007889Y020548D01*
X007868Y020593D01*
X007851Y020640D01*
X007837Y020688D01*
X007827Y020737D01*
X007821Y020787D01*
X007819Y020837D01*
X027819Y014837D02*
X027821Y014887D01*
X027827Y014937D01*
X027837Y014986D01*
X027851Y015034D01*
X027868Y015081D01*
X027889Y015126D01*
X027914Y015170D01*
X027942Y015211D01*
X027974Y015250D01*
X028008Y015287D01*
X028045Y015321D01*
X028085Y015351D01*
X028127Y015378D01*
X028171Y015402D01*
X028217Y015423D01*
X028264Y015439D01*
X028312Y015452D01*
X028362Y015461D01*
X028411Y015466D01*
X028462Y015467D01*
X028512Y015464D01*
X028561Y015457D01*
X028610Y015446D01*
X028658Y015431D01*
X028704Y015413D01*
X028749Y015391D01*
X028792Y015365D01*
X028833Y015336D01*
X028872Y015304D01*
X028908Y015269D01*
X028940Y015231D01*
X028970Y015191D01*
X028997Y015148D01*
X029020Y015104D01*
X029039Y015058D01*
X029055Y015010D01*
X029067Y014961D01*
X029075Y014912D01*
X029079Y014862D01*
X029079Y014812D01*
X029075Y014762D01*
X029067Y014713D01*
X029055Y014664D01*
X029039Y014616D01*
X029020Y014570D01*
X028997Y014526D01*
X028970Y014483D01*
X028940Y014443D01*
X028908Y014405D01*
X028872Y014370D01*
X028833Y014338D01*
X028792Y014309D01*
X028749Y014283D01*
X028704Y014261D01*
X028658Y014243D01*
X028610Y014228D01*
X028561Y014217D01*
X028512Y014210D01*
X028462Y014207D01*
X028411Y014208D01*
X028362Y014213D01*
X028312Y014222D01*
X028264Y014235D01*
X028217Y014251D01*
X028171Y014272D01*
X028127Y014296D01*
X028085Y014323D01*
X028045Y014353D01*
X028008Y014387D01*
X027974Y014424D01*
X027942Y014463D01*
X027914Y014504D01*
X027889Y014548D01*
X027868Y014593D01*
X027851Y014640D01*
X027837Y014688D01*
X027827Y014737D01*
X027821Y014787D01*
X027819Y014837D01*
X027819Y003837D02*
X027821Y003887D01*
X027827Y003937D01*
X027837Y003986D01*
X027851Y004034D01*
X027868Y004081D01*
X027889Y004126D01*
X027914Y004170D01*
X027942Y004211D01*
X027974Y004250D01*
X028008Y004287D01*
X028045Y004321D01*
X028085Y004351D01*
X028127Y004378D01*
X028171Y004402D01*
X028217Y004423D01*
X028264Y004439D01*
X028312Y004452D01*
X028362Y004461D01*
X028411Y004466D01*
X028462Y004467D01*
X028512Y004464D01*
X028561Y004457D01*
X028610Y004446D01*
X028658Y004431D01*
X028704Y004413D01*
X028749Y004391D01*
X028792Y004365D01*
X028833Y004336D01*
X028872Y004304D01*
X028908Y004269D01*
X028940Y004231D01*
X028970Y004191D01*
X028997Y004148D01*
X029020Y004104D01*
X029039Y004058D01*
X029055Y004010D01*
X029067Y003961D01*
X029075Y003912D01*
X029079Y003862D01*
X029079Y003812D01*
X029075Y003762D01*
X029067Y003713D01*
X029055Y003664D01*
X029039Y003616D01*
X029020Y003570D01*
X028997Y003526D01*
X028970Y003483D01*
X028940Y003443D01*
X028908Y003405D01*
X028872Y003370D01*
X028833Y003338D01*
X028792Y003309D01*
X028749Y003283D01*
X028704Y003261D01*
X028658Y003243D01*
X028610Y003228D01*
X028561Y003217D01*
X028512Y003210D01*
X028462Y003207D01*
X028411Y003208D01*
X028362Y003213D01*
X028312Y003222D01*
X028264Y003235D01*
X028217Y003251D01*
X028171Y003272D01*
X028127Y003296D01*
X028085Y003323D01*
X028045Y003353D01*
X028008Y003387D01*
X027974Y003424D01*
X027942Y003463D01*
X027914Y003504D01*
X027889Y003548D01*
X027868Y003593D01*
X027851Y003640D01*
X027837Y003688D01*
X027827Y003737D01*
X027821Y003787D01*
X027819Y003837D01*
D11*
X028449Y003837D03*
X028449Y014837D03*
X008449Y020837D03*
X007949Y001837D03*
D12*
X002449Y001230D02*
X002449Y021443D01*
X002451Y021482D01*
X002457Y021520D01*
X002466Y021557D01*
X002479Y021594D01*
X002496Y021629D01*
X002515Y021662D01*
X002538Y021693D01*
X002564Y021722D01*
X002593Y021748D01*
X002624Y021771D01*
X002657Y021790D01*
X002692Y021807D01*
X002729Y021820D01*
X002766Y021829D01*
X002804Y021835D01*
X002843Y021837D01*
X027849Y021837D01*
X028449Y021237D01*
X028449Y016737D01*
X029449Y015737D01*
X029449Y002837D01*
X028449Y001837D01*
X028449Y001230D01*
X028447Y001191D01*
X028441Y001153D01*
X028432Y001116D01*
X028419Y001079D01*
X028402Y001044D01*
X028383Y001011D01*
X028360Y000980D01*
X028334Y000951D01*
X028305Y000925D01*
X028274Y000902D01*
X028241Y000883D01*
X028206Y000866D01*
X028169Y000853D01*
X028132Y000844D01*
X028094Y000838D01*
X028055Y000836D01*
X028055Y000837D02*
X002843Y000837D01*
X002843Y000836D02*
X002804Y000838D01*
X002766Y000844D01*
X002729Y000853D01*
X002692Y000866D01*
X002657Y000883D01*
X002624Y000902D01*
X002593Y000925D01*
X002564Y000951D01*
X002538Y000980D01*
X002515Y001011D01*
X002496Y001044D01*
X002479Y001079D01*
X002466Y001116D01*
X002457Y001153D01*
X002451Y001191D01*
X002449Y001230D01*
D13*
X015449Y001837D03*
X016449Y001837D03*
X017449Y001837D03*
X018449Y001837D03*
X019449Y001837D03*
X020449Y001837D03*
X022449Y001837D03*
X023449Y001837D03*
X024449Y001837D03*
X025449Y001837D03*
X026449Y001837D03*
X027449Y001837D03*
X026449Y020837D03*
X025449Y020837D03*
X024449Y020837D03*
X023449Y020837D03*
X022449Y020837D03*
X021449Y020837D03*
X020449Y020837D03*
X017849Y020837D03*
X016849Y020837D03*
X015849Y020837D03*
X014849Y020837D03*
X013849Y020837D03*
X012849Y020837D03*
X011849Y020837D03*
X010849Y020837D03*
X009849Y020837D03*
D14*
X018849Y020837D03*
X027449Y020837D03*
D15*
X027499Y012837D03*
X028499Y012837D03*
X028499Y011837D03*
X027499Y011837D03*
X027499Y010837D03*
X028499Y010837D03*
X010699Y016837D03*
X009699Y016837D03*
X008699Y016837D03*
X008699Y017837D03*
X009699Y017837D03*
X010699Y017837D03*
D16*
X004593Y016703D03*
X004593Y014970D03*
D17*
X004231Y003837D03*
X005412Y001986D03*
X006593Y003837D03*
M02*
