G75*
G70*
%OFA0B0*%
%FSLAX24Y24*%
%IPPOS*%
%LPD*%
%AMOC8*
5,1,8,0,0,1.08239X$1,22.5*
%
%ADD10C,0.0000*%
%ADD11C,0.0100*%
%ADD12C,0.0740*%
%ADD13R,0.0740X0.0740*%
%ADD14OC8,0.0740*%
%ADD15R,0.0945X0.0787*%
%ADD16R,0.0909X0.0197*%
%ADD17R,0.0591X0.0197*%
%ADD18R,0.0197X0.0591*%
%ADD19R,0.0500X0.0220*%
%ADD20R,0.0220X0.0500*%
%ADD21R,0.0512X0.0591*%
%ADD22R,0.0472X0.0394*%
%ADD23R,0.0591X0.0512*%
%ADD24R,0.0472X0.0472*%
%ADD25R,0.0880X0.0480*%
%ADD26R,0.0866X0.1417*%
%ADD27C,0.1700*%
%ADD28R,0.0472X0.0787*%
%ADD29R,0.0551X0.0551*%
%ADD30R,0.0600X0.0300*%
%ADD31R,0.0460X0.0630*%
%ADD32C,0.0120*%
%ADD33C,0.0258*%
%ADD34C,0.0320*%
%ADD35C,0.0240*%
D10*
X007319Y001837D02*
X007321Y001887D01*
X007327Y001937D01*
X007337Y001986D01*
X007351Y002034D01*
X007368Y002081D01*
X007389Y002126D01*
X007414Y002170D01*
X007442Y002211D01*
X007474Y002250D01*
X007508Y002287D01*
X007545Y002321D01*
X007585Y002351D01*
X007627Y002378D01*
X007671Y002402D01*
X007717Y002423D01*
X007764Y002439D01*
X007812Y002452D01*
X007862Y002461D01*
X007911Y002466D01*
X007962Y002467D01*
X008012Y002464D01*
X008061Y002457D01*
X008110Y002446D01*
X008158Y002431D01*
X008204Y002413D01*
X008249Y002391D01*
X008292Y002365D01*
X008333Y002336D01*
X008372Y002304D01*
X008408Y002269D01*
X008440Y002231D01*
X008470Y002191D01*
X008497Y002148D01*
X008520Y002104D01*
X008539Y002058D01*
X008555Y002010D01*
X008567Y001961D01*
X008575Y001912D01*
X008579Y001862D01*
X008579Y001812D01*
X008575Y001762D01*
X008567Y001713D01*
X008555Y001664D01*
X008539Y001616D01*
X008520Y001570D01*
X008497Y001526D01*
X008470Y001483D01*
X008440Y001443D01*
X008408Y001405D01*
X008372Y001370D01*
X008333Y001338D01*
X008292Y001309D01*
X008249Y001283D01*
X008204Y001261D01*
X008158Y001243D01*
X008110Y001228D01*
X008061Y001217D01*
X008012Y001210D01*
X007962Y001207D01*
X007911Y001208D01*
X007862Y001213D01*
X007812Y001222D01*
X007764Y001235D01*
X007717Y001251D01*
X007671Y001272D01*
X007627Y001296D01*
X007585Y001323D01*
X007545Y001353D01*
X007508Y001387D01*
X007474Y001424D01*
X007442Y001463D01*
X007414Y001504D01*
X007389Y001548D01*
X007368Y001593D01*
X007351Y001640D01*
X007337Y001688D01*
X007327Y001737D01*
X007321Y001787D01*
X007319Y001837D01*
X004396Y014970D02*
X004398Y014997D01*
X004404Y015024D01*
X004413Y015050D01*
X004426Y015074D01*
X004442Y015097D01*
X004461Y015116D01*
X004483Y015133D01*
X004507Y015147D01*
X004532Y015157D01*
X004559Y015164D01*
X004586Y015167D01*
X004614Y015166D01*
X004641Y015161D01*
X004667Y015153D01*
X004691Y015141D01*
X004714Y015125D01*
X004735Y015107D01*
X004752Y015086D01*
X004767Y015062D01*
X004778Y015037D01*
X004786Y015011D01*
X004790Y014984D01*
X004790Y014956D01*
X004786Y014929D01*
X004778Y014903D01*
X004767Y014878D01*
X004752Y014854D01*
X004735Y014833D01*
X004714Y014815D01*
X004692Y014799D01*
X004667Y014787D01*
X004641Y014779D01*
X004614Y014774D01*
X004586Y014773D01*
X004559Y014776D01*
X004532Y014783D01*
X004507Y014793D01*
X004483Y014807D01*
X004461Y014824D01*
X004442Y014843D01*
X004426Y014866D01*
X004413Y014890D01*
X004404Y014916D01*
X004398Y014943D01*
X004396Y014970D01*
X004396Y016703D02*
X004398Y016730D01*
X004404Y016757D01*
X004413Y016783D01*
X004426Y016807D01*
X004442Y016830D01*
X004461Y016849D01*
X004483Y016866D01*
X004507Y016880D01*
X004532Y016890D01*
X004559Y016897D01*
X004586Y016900D01*
X004614Y016899D01*
X004641Y016894D01*
X004667Y016886D01*
X004691Y016874D01*
X004714Y016858D01*
X004735Y016840D01*
X004752Y016819D01*
X004767Y016795D01*
X004778Y016770D01*
X004786Y016744D01*
X004790Y016717D01*
X004790Y016689D01*
X004786Y016662D01*
X004778Y016636D01*
X004767Y016611D01*
X004752Y016587D01*
X004735Y016566D01*
X004714Y016548D01*
X004692Y016532D01*
X004667Y016520D01*
X004641Y016512D01*
X004614Y016507D01*
X004586Y016506D01*
X004559Y016509D01*
X004532Y016516D01*
X004507Y016526D01*
X004483Y016540D01*
X004461Y016557D01*
X004442Y016576D01*
X004426Y016599D01*
X004413Y016623D01*
X004404Y016649D01*
X004398Y016676D01*
X004396Y016703D01*
X007819Y020837D02*
X007821Y020887D01*
X007827Y020937D01*
X007837Y020986D01*
X007851Y021034D01*
X007868Y021081D01*
X007889Y021126D01*
X007914Y021170D01*
X007942Y021211D01*
X007974Y021250D01*
X008008Y021287D01*
X008045Y021321D01*
X008085Y021351D01*
X008127Y021378D01*
X008171Y021402D01*
X008217Y021423D01*
X008264Y021439D01*
X008312Y021452D01*
X008362Y021461D01*
X008411Y021466D01*
X008462Y021467D01*
X008512Y021464D01*
X008561Y021457D01*
X008610Y021446D01*
X008658Y021431D01*
X008704Y021413D01*
X008749Y021391D01*
X008792Y021365D01*
X008833Y021336D01*
X008872Y021304D01*
X008908Y021269D01*
X008940Y021231D01*
X008970Y021191D01*
X008997Y021148D01*
X009020Y021104D01*
X009039Y021058D01*
X009055Y021010D01*
X009067Y020961D01*
X009075Y020912D01*
X009079Y020862D01*
X009079Y020812D01*
X009075Y020762D01*
X009067Y020713D01*
X009055Y020664D01*
X009039Y020616D01*
X009020Y020570D01*
X008997Y020526D01*
X008970Y020483D01*
X008940Y020443D01*
X008908Y020405D01*
X008872Y020370D01*
X008833Y020338D01*
X008792Y020309D01*
X008749Y020283D01*
X008704Y020261D01*
X008658Y020243D01*
X008610Y020228D01*
X008561Y020217D01*
X008512Y020210D01*
X008462Y020207D01*
X008411Y020208D01*
X008362Y020213D01*
X008312Y020222D01*
X008264Y020235D01*
X008217Y020251D01*
X008171Y020272D01*
X008127Y020296D01*
X008085Y020323D01*
X008045Y020353D01*
X008008Y020387D01*
X007974Y020424D01*
X007942Y020463D01*
X007914Y020504D01*
X007889Y020548D01*
X007868Y020593D01*
X007851Y020640D01*
X007837Y020688D01*
X007827Y020737D01*
X007821Y020787D01*
X007819Y020837D01*
X027819Y014837D02*
X027821Y014887D01*
X027827Y014937D01*
X027837Y014986D01*
X027851Y015034D01*
X027868Y015081D01*
X027889Y015126D01*
X027914Y015170D01*
X027942Y015211D01*
X027974Y015250D01*
X028008Y015287D01*
X028045Y015321D01*
X028085Y015351D01*
X028127Y015378D01*
X028171Y015402D01*
X028217Y015423D01*
X028264Y015439D01*
X028312Y015452D01*
X028362Y015461D01*
X028411Y015466D01*
X028462Y015467D01*
X028512Y015464D01*
X028561Y015457D01*
X028610Y015446D01*
X028658Y015431D01*
X028704Y015413D01*
X028749Y015391D01*
X028792Y015365D01*
X028833Y015336D01*
X028872Y015304D01*
X028908Y015269D01*
X028940Y015231D01*
X028970Y015191D01*
X028997Y015148D01*
X029020Y015104D01*
X029039Y015058D01*
X029055Y015010D01*
X029067Y014961D01*
X029075Y014912D01*
X029079Y014862D01*
X029079Y014812D01*
X029075Y014762D01*
X029067Y014713D01*
X029055Y014664D01*
X029039Y014616D01*
X029020Y014570D01*
X028997Y014526D01*
X028970Y014483D01*
X028940Y014443D01*
X028908Y014405D01*
X028872Y014370D01*
X028833Y014338D01*
X028792Y014309D01*
X028749Y014283D01*
X028704Y014261D01*
X028658Y014243D01*
X028610Y014228D01*
X028561Y014217D01*
X028512Y014210D01*
X028462Y014207D01*
X028411Y014208D01*
X028362Y014213D01*
X028312Y014222D01*
X028264Y014235D01*
X028217Y014251D01*
X028171Y014272D01*
X028127Y014296D01*
X028085Y014323D01*
X028045Y014353D01*
X028008Y014387D01*
X027974Y014424D01*
X027942Y014463D01*
X027914Y014504D01*
X027889Y014548D01*
X027868Y014593D01*
X027851Y014640D01*
X027837Y014688D01*
X027827Y014737D01*
X027821Y014787D01*
X027819Y014837D01*
X027819Y003837D02*
X027821Y003887D01*
X027827Y003937D01*
X027837Y003986D01*
X027851Y004034D01*
X027868Y004081D01*
X027889Y004126D01*
X027914Y004170D01*
X027942Y004211D01*
X027974Y004250D01*
X028008Y004287D01*
X028045Y004321D01*
X028085Y004351D01*
X028127Y004378D01*
X028171Y004402D01*
X028217Y004423D01*
X028264Y004439D01*
X028312Y004452D01*
X028362Y004461D01*
X028411Y004466D01*
X028462Y004467D01*
X028512Y004464D01*
X028561Y004457D01*
X028610Y004446D01*
X028658Y004431D01*
X028704Y004413D01*
X028749Y004391D01*
X028792Y004365D01*
X028833Y004336D01*
X028872Y004304D01*
X028908Y004269D01*
X028940Y004231D01*
X028970Y004191D01*
X028997Y004148D01*
X029020Y004104D01*
X029039Y004058D01*
X029055Y004010D01*
X029067Y003961D01*
X029075Y003912D01*
X029079Y003862D01*
X029079Y003812D01*
X029075Y003762D01*
X029067Y003713D01*
X029055Y003664D01*
X029039Y003616D01*
X029020Y003570D01*
X028997Y003526D01*
X028970Y003483D01*
X028940Y003443D01*
X028908Y003405D01*
X028872Y003370D01*
X028833Y003338D01*
X028792Y003309D01*
X028749Y003283D01*
X028704Y003261D01*
X028658Y003243D01*
X028610Y003228D01*
X028561Y003217D01*
X028512Y003210D01*
X028462Y003207D01*
X028411Y003208D01*
X028362Y003213D01*
X028312Y003222D01*
X028264Y003235D01*
X028217Y003251D01*
X028171Y003272D01*
X028127Y003296D01*
X028085Y003323D01*
X028045Y003353D01*
X028008Y003387D01*
X027974Y003424D01*
X027942Y003463D01*
X027914Y003504D01*
X027889Y003548D01*
X027868Y003593D01*
X027851Y003640D01*
X027837Y003688D01*
X027827Y003737D01*
X027821Y003787D01*
X027819Y003837D01*
D11*
X002449Y001230D02*
X002449Y021443D01*
X002451Y021482D01*
X002457Y021520D01*
X002466Y021557D01*
X002479Y021594D01*
X002496Y021629D01*
X002515Y021662D01*
X002538Y021693D01*
X002564Y021722D01*
X002593Y021748D01*
X002624Y021771D01*
X002657Y021790D01*
X002692Y021807D01*
X002729Y021820D01*
X002766Y021829D01*
X002804Y021835D01*
X002843Y021837D01*
X027849Y021837D01*
X028449Y021237D01*
X028449Y016737D01*
X029449Y015737D01*
X029449Y002837D01*
X028449Y001837D01*
X028449Y001230D01*
X028447Y001191D01*
X028441Y001153D01*
X028432Y001116D01*
X028419Y001079D01*
X028402Y001044D01*
X028383Y001011D01*
X028360Y000980D01*
X028334Y000951D01*
X028305Y000925D01*
X028274Y000902D01*
X028241Y000883D01*
X028206Y000866D01*
X028169Y000853D01*
X028132Y000844D01*
X028094Y000838D01*
X028055Y000836D01*
X028055Y000837D02*
X002843Y000837D01*
X002843Y000836D02*
X002804Y000838D01*
X002766Y000844D01*
X002729Y000853D01*
X002692Y000866D01*
X002657Y000883D01*
X002624Y000902D01*
X002593Y000925D01*
X002564Y000951D01*
X002538Y000980D01*
X002515Y001011D01*
X002496Y001044D01*
X002479Y001079D01*
X002466Y001116D01*
X002457Y001153D01*
X002451Y001191D01*
X002449Y001230D01*
X009199Y016337D02*
X009199Y017337D01*
X010199Y016437D02*
X010199Y018237D01*
X027999Y012337D02*
X027999Y010337D01*
D12*
X027449Y001837D03*
X026449Y001837D03*
X025449Y001837D03*
X024449Y001837D03*
X023449Y001837D03*
X022449Y001837D03*
X020449Y001837D03*
X019449Y001837D03*
X018449Y001837D03*
X017449Y001837D03*
X016449Y001837D03*
X015449Y001837D03*
X008699Y006087D03*
X008699Y007087D03*
X008699Y008087D03*
X009849Y020837D03*
X010849Y020837D03*
X011849Y020837D03*
X012849Y020837D03*
X013849Y020837D03*
X014849Y020837D03*
X015849Y020837D03*
X016849Y020837D03*
X017849Y020837D03*
X020449Y020837D03*
X021449Y020837D03*
X022449Y020837D03*
X023449Y020837D03*
X024449Y020837D03*
X025449Y020837D03*
X026449Y020837D03*
D13*
X027449Y020837D03*
X018849Y020837D03*
D14*
X010699Y017837D03*
X009699Y017837D03*
X008699Y017837D03*
X008699Y016837D03*
X009699Y016837D03*
X010699Y016837D03*
X027499Y012837D03*
X028499Y012837D03*
X028499Y011837D03*
X027499Y011837D03*
X027499Y010837D03*
X028499Y010837D03*
X013449Y002837D03*
X012449Y002837D03*
X011449Y002837D03*
X010449Y002837D03*
X009449Y002837D03*
X009449Y001837D03*
X010449Y001837D03*
X011449Y001837D03*
X012449Y001837D03*
X013449Y001837D03*
D15*
X024749Y009299D03*
X024749Y010874D03*
X014949Y011699D03*
X014949Y013274D03*
X005577Y014104D03*
X003412Y014104D03*
X003412Y017569D03*
X005577Y017569D03*
D16*
X005799Y016466D03*
X005799Y016151D03*
X005799Y015837D03*
X005799Y015522D03*
X005799Y015207D03*
D17*
X018416Y010411D03*
X018416Y010096D03*
X018416Y009781D03*
X018416Y009466D03*
X018416Y009151D03*
X018416Y008837D03*
X018416Y008522D03*
X018416Y008207D03*
X018416Y007892D03*
X018416Y007577D03*
X018416Y007262D03*
X022983Y007262D03*
X022983Y007577D03*
X022983Y007892D03*
X022983Y008207D03*
X022983Y008522D03*
X022983Y008837D03*
X022983Y009151D03*
X022983Y009466D03*
X022983Y009781D03*
X022983Y010096D03*
X022983Y010411D03*
D18*
X022274Y011120D03*
X021959Y011120D03*
X021644Y011120D03*
X021329Y011120D03*
X021014Y011120D03*
X020699Y011120D03*
X020384Y011120D03*
X020069Y011120D03*
X019754Y011120D03*
X019439Y011120D03*
X019124Y011120D03*
X019124Y006553D03*
X019439Y006553D03*
X019754Y006553D03*
X020069Y006553D03*
X020384Y006553D03*
X020699Y006553D03*
X021014Y006553D03*
X021329Y006553D03*
X021644Y006553D03*
X021959Y006553D03*
X022274Y006553D03*
D19*
X013389Y011984D03*
X013389Y012299D03*
X013389Y012614D03*
X013389Y012929D03*
X013389Y013244D03*
X013389Y013559D03*
X013389Y013874D03*
X013389Y014189D03*
X010009Y014189D03*
X010009Y013874D03*
X010009Y013559D03*
X010009Y013244D03*
X010009Y012929D03*
X010009Y012614D03*
X010009Y012299D03*
X010009Y011984D03*
D20*
X010597Y011397D03*
X010912Y011397D03*
X011227Y011397D03*
X011542Y011397D03*
X011857Y011397D03*
X012172Y011397D03*
X012487Y011397D03*
X012801Y011397D03*
X012801Y014777D03*
X012487Y014777D03*
X012172Y014777D03*
X011857Y014777D03*
X011542Y014777D03*
X011227Y014777D03*
X010912Y014777D03*
X010597Y014777D03*
D21*
X008073Y014587D03*
X007325Y014587D03*
X007325Y013587D03*
X008073Y013587D03*
X006573Y012587D03*
X005825Y012587D03*
X005825Y011587D03*
X006573Y011587D03*
X008075Y011587D03*
X008823Y011587D03*
X006573Y010087D03*
X005825Y010087D03*
X005825Y009087D03*
X006573Y009087D03*
X008075Y009587D03*
X008823Y009587D03*
X006573Y007587D03*
X005825Y007587D03*
X005825Y006587D03*
X006573Y006587D03*
X008114Y004087D03*
X008784Y004087D03*
X012575Y004087D03*
X013323Y004087D03*
X020825Y004837D03*
X021573Y004837D03*
X020973Y012637D03*
X020225Y012637D03*
X015673Y014437D03*
X014925Y014437D03*
X008034Y015587D03*
X007364Y015587D03*
D22*
X008016Y010587D03*
X008882Y010587D03*
D23*
X010199Y009961D03*
X010199Y009213D03*
X012699Y009213D03*
X012699Y009961D03*
X013949Y009961D03*
X013949Y009213D03*
X016199Y011263D03*
X016199Y012011D03*
X016199Y012963D03*
X016199Y013711D03*
X013949Y015963D03*
X013949Y016711D03*
X012949Y016711D03*
X012949Y015963D03*
X011949Y015963D03*
X011949Y016711D03*
X016949Y009311D03*
X016949Y008563D03*
X016949Y007411D03*
X016949Y006663D03*
X024449Y007113D03*
X024449Y007861D03*
X025999Y008813D03*
X025999Y009561D03*
X025999Y010613D03*
X025999Y011361D03*
X025199Y012713D03*
X025199Y013461D03*
X024199Y013461D03*
X024199Y012713D03*
X025199Y015213D03*
X025199Y015961D03*
D24*
X004863Y012587D03*
X004036Y012587D03*
X004036Y011587D03*
X004863Y011587D03*
X004863Y010087D03*
X004036Y010087D03*
X004036Y009087D03*
X004863Y009087D03*
X004863Y007587D03*
X004036Y007587D03*
D25*
X010479Y007247D03*
X010479Y006337D03*
X010479Y005427D03*
D26*
X012919Y006337D03*
D27*
X006593Y003837D03*
X005412Y001986D03*
X004231Y003837D03*
D28*
X011449Y009035D03*
X011449Y010138D03*
X015199Y010138D03*
X015199Y009035D03*
D29*
X011447Y004087D03*
X009951Y004087D03*
X026199Y014839D03*
X026199Y016335D03*
D30*
X005949Y019537D03*
X005949Y021037D03*
X003949Y021037D03*
X003949Y019537D03*
D31*
X006899Y018837D03*
X007499Y018837D03*
D32*
X007949Y018837D01*
X008099Y018687D01*
X010749Y018687D01*
X011349Y018087D01*
X011349Y017687D01*
X011649Y017387D01*
X012649Y017387D01*
X012949Y017087D01*
X012949Y016711D01*
X013424Y016721D02*
X013889Y016721D01*
X013889Y016770D02*
X013889Y016651D01*
X013494Y016651D01*
X013494Y016434D01*
X013505Y016393D01*
X013526Y016356D01*
X013532Y016351D01*
X013474Y016293D01*
X013474Y016202D01*
X013424Y016202D01*
X013424Y016293D01*
X013381Y016337D01*
X013424Y016380D01*
X013424Y017028D01*
X013505Y017028D01*
X013494Y016988D01*
X013494Y016770D01*
X013889Y016770D01*
X013889Y016771D02*
X013889Y017126D01*
X013676Y017126D01*
X013711Y017162D01*
X013758Y017275D01*
X013758Y017398D01*
X013711Y017511D01*
X013624Y017598D01*
X013511Y017645D01*
X013388Y017645D01*
X013274Y017598D01*
X013252Y017576D01*
X013199Y017576D01*
X012935Y017840D01*
X012847Y017876D01*
X012751Y017876D01*
X011899Y017876D01*
X011839Y017936D01*
X011839Y018234D01*
X011803Y018322D01*
X011735Y018390D01*
X010985Y019140D01*
X010897Y019176D01*
X010801Y019176D01*
X008399Y019176D01*
X007985Y019590D01*
X007897Y019626D01*
X007801Y019626D01*
X007139Y019626D01*
X007139Y020784D01*
X007103Y020872D01*
X007035Y020940D01*
X006735Y021240D01*
X006647Y021276D01*
X006551Y021276D01*
X006414Y021276D01*
X006324Y021366D01*
X005575Y021366D01*
X005485Y021276D01*
X004414Y021276D01*
X004324Y021366D01*
X003575Y021366D01*
X003469Y021261D01*
X003469Y020812D01*
X003575Y020707D01*
X004324Y020707D01*
X004414Y020797D01*
X005485Y020797D01*
X005575Y020707D01*
X006324Y020707D01*
X006414Y020797D01*
X006500Y020797D01*
X006659Y020637D01*
X006659Y019434D01*
X006659Y019339D01*
X006659Y019331D01*
X006595Y019331D01*
X006489Y019226D01*
X006489Y018447D01*
X006595Y018342D01*
X007204Y018342D01*
X007804Y018342D01*
X007909Y018447D01*
X007909Y018537D01*
X007963Y018483D01*
X008051Y018447D01*
X008147Y018447D01*
X008970Y018447D01*
X008910Y018386D01*
X008471Y018386D01*
X008149Y018064D01*
X008149Y017609D01*
X008421Y017336D01*
X008149Y017064D01*
X008149Y016609D01*
X008459Y016299D01*
X008459Y016134D01*
X008459Y016039D01*
X008496Y015951D01*
X008520Y015926D01*
X008470Y015926D01*
X008470Y015956D01*
X008364Y016062D01*
X007703Y016062D01*
X007699Y016058D01*
X007695Y016062D01*
X007689Y016062D01*
X007689Y016254D01*
X007637Y016379D01*
X007542Y016475D01*
X007542Y016475D01*
X007387Y016629D01*
X007292Y016725D01*
X007167Y016776D01*
X006681Y016776D01*
X006557Y016725D01*
X006538Y016706D01*
X006366Y016706D01*
X006328Y016745D01*
X005270Y016745D01*
X005165Y016639D01*
X005165Y016324D01*
X005165Y016009D01*
X005165Y015695D01*
X005165Y015349D01*
X005185Y015328D01*
X005185Y015326D01*
X005185Y015207D01*
X005799Y015207D01*
X005799Y015206D01*
X005799Y015206D01*
X005799Y014948D01*
X005324Y014948D01*
X005283Y014959D01*
X005247Y014980D01*
X005217Y015010D01*
X005196Y015046D01*
X005185Y015087D01*
X005185Y015206D01*
X005799Y015206D01*
X005799Y014948D01*
X006259Y014948D01*
X006259Y013834D01*
X006259Y013739D01*
X006296Y013651D01*
X006496Y013451D01*
X006563Y013383D01*
X006651Y013347D01*
X006889Y013347D01*
X006889Y013217D01*
X006995Y013111D01*
X007656Y013111D01*
X007699Y013155D01*
X007743Y013111D01*
X008404Y013111D01*
X008509Y013217D01*
X008509Y013290D01*
X008538Y013278D01*
X008661Y013278D01*
X008759Y013318D01*
X008759Y013227D01*
X007883Y012351D01*
X007787Y012255D01*
X007735Y012130D01*
X007735Y012052D01*
X007639Y011956D01*
X007639Y011733D01*
X007624Y011748D01*
X007511Y011795D01*
X007472Y011795D01*
X007397Y011826D01*
X007301Y011826D01*
X007276Y011826D01*
X007361Y011912D01*
X007408Y012025D01*
X007408Y012148D01*
X007361Y012261D01*
X007339Y012283D01*
X007339Y012484D01*
X007303Y012572D01*
X008104Y012572D01*
X007986Y012454D02*
X007339Y012454D01*
X007339Y012335D02*
X007867Y012335D01*
X007771Y012217D02*
X007380Y012217D01*
X007408Y012098D02*
X007735Y012098D01*
X007662Y011980D02*
X007389Y011980D01*
X007310Y011861D02*
X007639Y011861D01*
X007630Y011743D02*
X007639Y011743D01*
X007449Y011487D02*
X007349Y011587D01*
X006573Y011587D01*
X007009Y011347D02*
X007173Y011347D01*
X007187Y011312D01*
X007274Y011225D01*
X007388Y011178D01*
X007511Y011178D01*
X007624Y011225D01*
X007639Y011240D01*
X007639Y011217D01*
X007676Y011180D01*
X007676Y010934D01*
X007600Y010858D01*
X007600Y010315D01*
X007705Y010210D01*
X007926Y010210D01*
X007850Y010111D01*
X007821Y010082D01*
X007813Y010065D01*
X007811Y010062D01*
X007745Y010062D01*
X007639Y009956D01*
X007639Y009217D01*
X007735Y009121D01*
X007735Y008643D01*
X007787Y008518D01*
X007883Y008422D01*
X008149Y008156D01*
X008149Y007977D01*
X008233Y007775D01*
X008388Y007620D01*
X008469Y007586D01*
X008388Y007553D01*
X008233Y007398D01*
X008203Y007326D01*
X007747Y007326D01*
X007651Y007326D01*
X007563Y007290D01*
X007100Y006826D01*
X007009Y006826D01*
X007009Y006956D01*
X006904Y007062D01*
X006813Y007062D01*
X006813Y007111D01*
X006904Y007111D01*
X007009Y007217D01*
X007009Y007956D01*
X006904Y008062D01*
X006813Y008062D01*
X006813Y008611D01*
X006904Y008611D01*
X007009Y008717D01*
X007009Y009456D01*
X006904Y009562D01*
X006813Y009562D01*
X006813Y009611D01*
X006904Y009611D01*
X007009Y009717D01*
X007009Y010456D01*
X006904Y010562D01*
X006243Y010562D01*
X006199Y010518D01*
X006156Y010562D01*
X005495Y010562D01*
X005389Y010456D01*
X005389Y010326D01*
X005279Y010326D01*
X005279Y010397D01*
X005173Y010503D01*
X004552Y010503D01*
X004449Y010400D01*
X004401Y010449D01*
X004480Y010528D01*
X004511Y010528D01*
X004624Y010575D01*
X004711Y010662D01*
X004758Y010775D01*
X004758Y010898D01*
X004711Y011011D01*
X004624Y011098D01*
X004511Y011145D01*
X004388Y011145D01*
X004274Y011098D01*
X004187Y011011D01*
X004140Y010898D01*
X004140Y010867D01*
X003832Y010559D01*
X003809Y010503D01*
X003725Y010503D01*
X003620Y010397D01*
X003620Y009776D01*
X003725Y009670D01*
X004150Y009670D01*
X004140Y009648D01*
X004140Y009617D01*
X004026Y009503D01*
X003725Y009503D01*
X003620Y009397D01*
X003620Y008776D01*
X003725Y008670D01*
X004346Y008670D01*
X004449Y008773D01*
X004552Y008670D01*
X005173Y008670D01*
X005279Y008776D01*
X005279Y008847D01*
X005389Y008847D01*
X005389Y008717D01*
X005495Y008611D01*
X006156Y008611D01*
X006199Y008655D01*
X006243Y008611D01*
X006333Y008611D01*
X006333Y008062D01*
X006243Y008062D01*
X006199Y008018D01*
X006156Y008062D01*
X005495Y008062D01*
X005389Y007956D01*
X005389Y007826D01*
X005279Y007826D01*
X005279Y007897D01*
X005173Y008003D01*
X004552Y008003D01*
X004446Y007897D01*
X004446Y007276D01*
X004552Y007170D01*
X005173Y007170D01*
X005279Y007276D01*
X005279Y007347D01*
X005389Y007347D01*
X005389Y007217D01*
X005495Y007111D01*
X006156Y007111D01*
X006199Y007155D01*
X006243Y007111D01*
X006333Y007111D01*
X006333Y007062D01*
X006243Y007062D01*
X006185Y007004D01*
X006179Y007010D01*
X006143Y007031D01*
X006102Y007042D01*
X005885Y007042D01*
X005885Y006647D01*
X005765Y006647D01*
X005765Y007042D01*
X005548Y007042D01*
X005507Y007031D01*
X005471Y007010D01*
X005441Y006980D01*
X005420Y006944D01*
X005409Y006903D01*
X005409Y006646D01*
X005765Y006646D01*
X005765Y006527D01*
X002679Y006527D01*
X002679Y006645D02*
X005765Y006645D01*
X005765Y006527D02*
X005409Y006527D01*
X005409Y006270D01*
X005420Y006229D01*
X005441Y006193D01*
X005471Y006163D01*
X005507Y006142D01*
X005548Y006131D01*
X005765Y006131D01*
X005765Y006526D01*
X005885Y006526D01*
X005885Y006131D01*
X006102Y006131D01*
X006143Y006142D01*
X006179Y006163D01*
X006185Y006169D01*
X006243Y006111D01*
X006904Y006111D01*
X007009Y006217D01*
X007009Y006347D01*
X007247Y006347D01*
X007335Y006383D01*
X007403Y006451D01*
X007799Y006847D01*
X008203Y006847D01*
X008233Y006775D01*
X008388Y006620D01*
X008469Y006586D01*
X008388Y006553D01*
X008233Y006398D01*
X008149Y006196D01*
X008149Y005977D01*
X008233Y005775D01*
X008388Y005620D01*
X008590Y005537D01*
X008809Y005537D01*
X009011Y005620D01*
X009165Y005775D01*
X009249Y005977D01*
X009249Y005997D01*
X009885Y005997D01*
X009965Y005917D01*
X010459Y005917D01*
X010459Y005846D01*
X009965Y005846D01*
X009859Y005741D01*
X009859Y005112D01*
X009965Y005007D01*
X010139Y005007D01*
X010139Y004889D01*
X010191Y004764D01*
X010461Y004494D01*
X010557Y004398D01*
X010681Y004347D01*
X010992Y004347D01*
X010992Y003736D01*
X011097Y003631D01*
X011797Y003631D01*
X011903Y003736D01*
X011903Y003747D01*
X012139Y003747D01*
X012139Y003717D01*
X012245Y003611D01*
X012292Y003611D01*
X012321Y003541D01*
X012475Y003386D01*
X012221Y003386D01*
X011949Y003114D01*
X011677Y003386D01*
X011221Y003386D01*
X010949Y003114D01*
X010677Y003386D01*
X010221Y003386D01*
X009949Y003114D01*
X009677Y003386D01*
X009221Y003386D01*
X008899Y003064D01*
X008899Y002609D01*
X009171Y002336D01*
X008899Y002064D01*
X008899Y001609D01*
X009221Y001287D01*
X009677Y001287D01*
X009949Y001559D01*
X010221Y001287D01*
X010677Y001287D01*
X010949Y001559D01*
X011221Y001287D01*
X011677Y001287D01*
X011949Y001559D01*
X012221Y001287D01*
X012677Y001287D01*
X012949Y001559D01*
X013221Y001287D01*
X013677Y001287D01*
X013999Y001609D01*
X013999Y002064D01*
X013727Y002336D01*
X013999Y002609D01*
X013999Y003064D01*
X013877Y003187D01*
X015425Y003187D01*
X015649Y002962D01*
X015649Y002669D01*
X015640Y002648D01*
X015640Y002525D01*
X015687Y002412D01*
X015774Y002325D01*
X015888Y002278D01*
X016011Y002278D01*
X016124Y002325D01*
X016211Y002412D01*
X016258Y002525D01*
X016258Y002648D01*
X016249Y002669D01*
X016249Y003027D01*
X016249Y003146D01*
X016203Y003256D01*
X015719Y003741D01*
X015609Y003786D01*
X015489Y003786D01*
X013739Y003786D01*
X013739Y004027D01*
X013383Y004027D01*
X013383Y004146D01*
X013739Y004146D01*
X013739Y004403D01*
X013728Y004444D01*
X013707Y004480D01*
X013677Y004510D01*
X013641Y004531D01*
X013600Y004542D01*
X013383Y004542D01*
X013383Y004147D01*
X013263Y004147D01*
X013263Y004542D01*
X013046Y004542D01*
X013005Y004531D01*
X012969Y004510D01*
X012963Y004504D01*
X012906Y004562D01*
X012245Y004562D01*
X012139Y004456D01*
X012139Y004426D01*
X011903Y004426D01*
X011903Y004437D01*
X011797Y004542D01*
X011773Y004542D01*
X011751Y004597D01*
X014747Y004597D01*
X014835Y004633D01*
X014903Y004701D01*
X015153Y004951D01*
X015189Y005039D01*
X015189Y005134D01*
X015189Y008134D01*
X015153Y008222D01*
X015085Y008290D01*
X014835Y008540D01*
X014747Y008576D01*
X014651Y008576D01*
X013299Y008576D01*
X013139Y008736D01*
X013139Y008847D01*
X013174Y008882D01*
X013174Y009543D01*
X013117Y009601D01*
X013122Y009606D01*
X013143Y009643D01*
X013154Y009684D01*
X013154Y009901D01*
X012759Y009901D01*
X012759Y010020D01*
X013154Y010020D01*
X013154Y010238D01*
X013143Y010278D01*
X013122Y010315D01*
X013093Y010344D01*
X013056Y010366D01*
X013015Y010376D01*
X012759Y010376D01*
X012759Y010021D01*
X012639Y010021D01*
X012639Y010376D01*
X012383Y010376D01*
X012342Y010366D01*
X012306Y010344D01*
X012276Y010315D01*
X012255Y010278D01*
X012244Y010238D01*
X012244Y010020D01*
X012639Y010020D01*
X012639Y009901D01*
X012244Y009901D01*
X012244Y009684D01*
X012255Y009643D01*
X012276Y009606D01*
X012282Y009601D01*
X012257Y009576D01*
X012247Y009576D01*
X011792Y009576D01*
X011764Y009605D01*
X011784Y009616D01*
X011813Y009646D01*
X011834Y009682D01*
X011845Y009723D01*
X011845Y010080D01*
X011507Y010080D01*
X011507Y010196D01*
X011391Y010196D01*
X011391Y010691D01*
X011192Y010691D01*
X011151Y010680D01*
X011115Y010659D01*
X011085Y010630D01*
X011064Y010593D01*
X011053Y010552D01*
X011053Y010196D01*
X011391Y010196D01*
X011391Y010080D01*
X011053Y010080D01*
X011053Y009723D01*
X011064Y009682D01*
X011085Y009646D01*
X011115Y009616D01*
X011134Y009605D01*
X011033Y009504D01*
X011033Y008610D01*
X011000Y008576D01*
X010901Y008576D01*
X010813Y008540D01*
X010746Y008472D01*
X010496Y008222D01*
X010459Y008134D01*
X010459Y008039D01*
X010459Y007307D01*
X010419Y007307D01*
X010419Y007646D01*
X010018Y007646D01*
X009977Y007636D01*
X009941Y007615D01*
X009911Y007585D01*
X009890Y007548D01*
X009879Y007508D01*
X009879Y007306D01*
X010419Y007306D01*
X010419Y007187D01*
X009879Y007187D01*
X009879Y006985D01*
X009890Y006945D01*
X009911Y006908D01*
X009941Y006879D01*
X009977Y006857D01*
X010018Y006847D01*
X010419Y006847D01*
X010419Y007186D01*
X010459Y007186D01*
X010459Y006756D01*
X009965Y006756D01*
X009885Y006676D01*
X009067Y006676D01*
X009165Y006775D01*
X009249Y006977D01*
X009249Y007196D01*
X009165Y007398D01*
X009011Y007553D01*
X008929Y007586D01*
X009011Y007620D01*
X009165Y007775D01*
X009249Y007977D01*
X009249Y008196D01*
X009165Y008398D01*
X009011Y008553D01*
X008809Y008636D01*
X008630Y008636D01*
X008415Y008851D01*
X008415Y009121D01*
X008463Y009169D01*
X008469Y009163D01*
X008505Y009142D01*
X008546Y009131D01*
X008763Y009131D01*
X008763Y009526D01*
X008883Y009526D01*
X008883Y009131D01*
X009100Y009131D01*
X009141Y009142D01*
X009177Y009163D01*
X009207Y009193D01*
X009228Y009229D01*
X009239Y009270D01*
X009239Y009527D01*
X008883Y009527D01*
X008883Y009646D01*
X009239Y009646D01*
X009239Y009903D01*
X009228Y009944D01*
X009207Y009980D01*
X009177Y010010D01*
X009141Y010031D01*
X009100Y010042D01*
X009014Y010042D01*
X009035Y010058D01*
X009052Y010065D01*
X009082Y010095D01*
X009114Y010121D01*
X009123Y010137D01*
X009136Y010150D01*
X009152Y010188D01*
X009165Y010210D01*
X009193Y010210D01*
X009298Y010315D01*
X009298Y010858D01*
X009193Y010963D01*
X008571Y010963D01*
X008466Y010858D01*
X008466Y010436D01*
X008432Y010436D01*
X008432Y010858D01*
X008356Y010934D01*
X008356Y011111D01*
X008406Y011111D01*
X008463Y011169D01*
X008469Y011163D01*
X008505Y011142D01*
X008546Y011131D01*
X008763Y011131D01*
X008763Y011526D01*
X008883Y011526D01*
X008883Y011131D01*
X009100Y011131D01*
X009141Y011142D01*
X009177Y011163D01*
X009207Y011193D01*
X009228Y011229D01*
X009239Y011270D01*
X009239Y011527D01*
X008883Y011527D01*
X008883Y011646D01*
X009239Y011646D01*
X009239Y011903D01*
X009228Y011944D01*
X009207Y011980D01*
X009177Y012010D01*
X009141Y012031D01*
X009100Y012042D01*
X008883Y012042D01*
X008883Y011647D01*
X008763Y011647D01*
X008763Y012042D01*
X008546Y012042D01*
X008531Y012038D01*
X009387Y012894D01*
X009439Y013019D01*
X009439Y013154D01*
X009439Y015007D01*
X009769Y014677D01*
X009769Y014479D01*
X009685Y014479D01*
X009579Y014373D01*
X009579Y014058D01*
X009579Y013744D01*
X009579Y013429D01*
X009579Y013114D01*
X009579Y012799D01*
X009579Y012484D01*
X009579Y012169D01*
X009579Y011800D01*
X009685Y011694D01*
X010307Y011694D01*
X010307Y011158D01*
X010263Y011140D01*
X010063Y010940D01*
X009996Y010872D01*
X009959Y010784D01*
X009959Y010396D01*
X009829Y010396D01*
X009724Y010291D01*
X009724Y009630D01*
X009782Y009572D01*
X009776Y009567D01*
X009755Y009530D01*
X009744Y009489D01*
X009744Y009272D01*
X010139Y009272D01*
X010139Y009153D01*
X009744Y009153D01*
X009744Y008936D01*
X009755Y008895D01*
X009776Y008858D01*
X009806Y008829D01*
X009842Y008808D01*
X009883Y008797D01*
X010139Y008797D01*
X010139Y009152D01*
X010259Y009152D01*
X010259Y008797D01*
X010515Y008797D01*
X010556Y008808D01*
X010593Y008829D01*
X010622Y008858D01*
X010643Y008895D01*
X010654Y008936D01*
X010654Y009153D01*
X010259Y009153D01*
X010259Y009272D01*
X010654Y009272D01*
X010654Y009489D01*
X010643Y009530D01*
X010622Y009567D01*
X010617Y009572D01*
X010674Y009630D01*
X010674Y010291D01*
X010569Y010396D01*
X010439Y010396D01*
X010439Y010637D01*
X010499Y010697D01*
X011147Y010697D01*
X011235Y010733D01*
X011303Y010801D01*
X011430Y010928D01*
X011454Y010987D01*
X011541Y010987D01*
X011541Y011396D01*
X011542Y011396D01*
X011542Y010987D01*
X011652Y010987D01*
X011672Y010967D01*
X011987Y010967D01*
X012192Y010967D01*
X012187Y010961D01*
X012140Y010848D01*
X012140Y010725D01*
X012187Y010612D01*
X012274Y010525D01*
X012388Y010478D01*
X012511Y010478D01*
X012624Y010525D01*
X012711Y010612D01*
X012750Y010705D01*
X012807Y010648D01*
X012931Y010597D01*
X013117Y010597D01*
X013458Y010597D01*
X013459Y010596D01*
X013459Y010489D01*
X013459Y009689D01*
X013474Y009653D01*
X013474Y009630D01*
X013490Y009614D01*
X013496Y009601D01*
X013528Y009569D01*
X013526Y009567D01*
X013505Y009530D01*
X013494Y009489D01*
X013494Y009272D01*
X013889Y009272D01*
X013889Y009153D01*
X013494Y009153D01*
X013494Y008936D01*
X013505Y008895D01*
X013526Y008858D01*
X013556Y008829D01*
X013592Y008808D01*
X013633Y008797D01*
X013889Y008797D01*
X013889Y009152D01*
X014009Y009152D01*
X014009Y008797D01*
X014265Y008797D01*
X014306Y008808D01*
X014343Y008829D01*
X014372Y008858D01*
X014393Y008895D01*
X014404Y008936D01*
X014404Y009153D01*
X014009Y009153D01*
X014009Y009272D01*
X014404Y009272D01*
X014404Y009489D01*
X014402Y009497D01*
X014817Y009497D01*
X014814Y009491D01*
X014803Y009450D01*
X014803Y009093D01*
X015141Y009093D01*
X015141Y008977D01*
X015257Y008977D01*
X015257Y008482D01*
X015456Y008482D01*
X015497Y008493D01*
X015534Y008514D01*
X015563Y008543D01*
X015584Y008580D01*
X015595Y008621D01*
X015595Y008977D01*
X015257Y008977D01*
X015257Y009093D01*
X015595Y009093D01*
X015595Y009360D01*
X015759Y009196D01*
X015759Y006019D01*
X015811Y005894D01*
X015907Y005798D01*
X016157Y005548D01*
X016281Y005497D01*
X016417Y005497D01*
X017058Y005497D01*
X017109Y005446D01*
X017109Y002274D01*
X016983Y002148D01*
X016949Y002067D01*
X016915Y002148D01*
X016761Y002303D01*
X016559Y002386D01*
X016340Y002386D01*
X016138Y002303D01*
X015983Y002148D01*
X015949Y002067D01*
X015915Y002148D01*
X015761Y002303D01*
X015559Y002386D01*
X015340Y002386D01*
X015138Y002303D01*
X014983Y002148D01*
X014899Y001946D01*
X014899Y001727D01*
X014983Y001525D01*
X015138Y001370D01*
X015340Y001287D01*
X015559Y001287D01*
X015761Y001370D01*
X015915Y001525D01*
X015949Y001606D01*
X015983Y001525D01*
X016138Y001370D01*
X016340Y001287D01*
X016559Y001287D01*
X016761Y001370D01*
X016915Y001525D01*
X016949Y001606D01*
X016983Y001525D01*
X017138Y001370D01*
X017340Y001287D01*
X017559Y001287D01*
X017761Y001370D01*
X017915Y001525D01*
X017959Y001631D01*
X017996Y001559D01*
X018045Y001491D01*
X018104Y001432D01*
X018171Y001383D01*
X018246Y001345D01*
X018325Y001320D01*
X018407Y001307D01*
X018409Y001307D01*
X018409Y001796D01*
X018489Y001796D01*
X018489Y001307D01*
X018491Y001307D01*
X018573Y001320D01*
X018653Y001345D01*
X018727Y001383D01*
X018794Y001432D01*
X018853Y001491D01*
X018902Y001559D01*
X018940Y001633D01*
X018949Y001660D01*
X018958Y001633D01*
X018996Y001559D01*
X019045Y001491D01*
X019104Y001432D01*
X019171Y001383D01*
X019246Y001345D01*
X019325Y001320D01*
X019407Y001307D01*
X019409Y001307D01*
X019409Y001796D01*
X019489Y001796D01*
X019489Y001307D01*
X019491Y001307D01*
X019573Y001320D01*
X019653Y001345D01*
X019727Y001383D01*
X019794Y001432D01*
X019853Y001491D01*
X019902Y001559D01*
X019939Y001631D01*
X019983Y001525D01*
X020138Y001370D01*
X020340Y001287D01*
X020559Y001287D01*
X020761Y001370D01*
X020915Y001525D01*
X020999Y001727D01*
X020999Y001946D01*
X020915Y002148D01*
X020761Y002303D01*
X020559Y002386D01*
X020340Y002386D01*
X020138Y002303D01*
X019983Y002148D01*
X019939Y002042D01*
X019902Y002114D01*
X019853Y002182D01*
X019794Y002241D01*
X019727Y002290D01*
X019653Y002328D01*
X019573Y002353D01*
X019491Y002366D01*
X019489Y002366D01*
X019489Y001877D01*
X019409Y001877D01*
X019409Y002366D01*
X019407Y002366D01*
X019325Y002353D01*
X019246Y002328D01*
X019171Y002290D01*
X019104Y002241D01*
X019045Y002182D01*
X018996Y002114D01*
X018958Y002040D01*
X018949Y002013D01*
X018940Y002040D01*
X018902Y002114D01*
X018853Y002182D01*
X018794Y002241D01*
X018727Y002290D01*
X018653Y002328D01*
X018573Y002353D01*
X018491Y002366D01*
X018489Y002366D01*
X018489Y001877D01*
X018409Y001877D01*
X018409Y002366D01*
X018407Y002366D01*
X018325Y002353D01*
X018246Y002328D01*
X018171Y002290D01*
X018104Y002241D01*
X018045Y002182D01*
X017996Y002114D01*
X017959Y002042D01*
X017915Y002148D01*
X017789Y002274D01*
X017789Y005519D01*
X017789Y005654D01*
X017737Y005779D01*
X017487Y006029D01*
X017392Y006125D01*
X017267Y006176D01*
X016490Y006176D01*
X016439Y006227D01*
X016439Y008971D01*
X016483Y008971D01*
X016532Y008922D01*
X016526Y008917D01*
X016505Y008880D01*
X016494Y008839D01*
X016494Y008622D01*
X016889Y008622D01*
X016889Y008503D01*
X016494Y008503D01*
X016494Y008286D01*
X016505Y008245D01*
X016526Y008208D01*
X016556Y008179D01*
X016592Y008158D01*
X016633Y008147D01*
X016889Y008147D01*
X016889Y008502D01*
X017009Y008502D01*
X017009Y008147D01*
X017265Y008147D01*
X017306Y008158D01*
X017343Y008179D01*
X017372Y008208D01*
X017393Y008245D01*
X017404Y008286D01*
X017404Y008503D01*
X017009Y008503D01*
X017009Y008622D01*
X017404Y008622D01*
X017404Y008801D01*
X017411Y008794D01*
X017507Y008698D01*
X017631Y008647D01*
X017767Y008647D01*
X017892Y008698D01*
X017960Y008767D01*
X017960Y008730D01*
X017948Y008725D01*
X017713Y008490D01*
X017646Y008422D01*
X017609Y008334D01*
X017609Y007886D01*
X017500Y007776D01*
X017389Y007776D01*
X017319Y007846D01*
X016579Y007846D01*
X016474Y007741D01*
X016474Y007080D01*
X016532Y007022D01*
X016526Y007017D01*
X016505Y006980D01*
X016494Y006939D01*
X016494Y006722D01*
X016889Y006722D01*
X016889Y006603D01*
X016494Y006603D01*
X016494Y006386D01*
X016505Y006345D01*
X016526Y006308D01*
X016556Y006279D01*
X016592Y006258D01*
X016633Y006247D01*
X016889Y006247D01*
X016889Y006602D01*
X017009Y006602D01*
X017009Y006247D01*
X017265Y006247D01*
X017306Y006258D01*
X017343Y006279D01*
X017372Y006308D01*
X017393Y006345D01*
X017404Y006386D01*
X017404Y006603D01*
X017009Y006603D01*
X017009Y006722D01*
X017404Y006722D01*
X017404Y006939D01*
X017393Y006980D01*
X017372Y007017D01*
X017367Y007022D01*
X017424Y007080D01*
X017424Y007297D01*
X017609Y007297D01*
X017609Y006684D01*
X017609Y006589D01*
X017646Y006501D01*
X018559Y005587D01*
X018559Y005125D01*
X018511Y005145D01*
X018388Y005145D01*
X018274Y005098D01*
X018187Y005011D01*
X018140Y004898D01*
X018140Y004845D01*
X018088Y004845D01*
X017974Y004798D01*
X017887Y004711D01*
X017840Y004598D01*
X017840Y004475D01*
X017887Y004362D01*
X017974Y004275D01*
X018059Y004239D01*
X018059Y003939D01*
X018096Y003851D01*
X018163Y003783D01*
X018243Y003704D01*
X018240Y003698D01*
X018240Y003575D01*
X018287Y003462D01*
X018374Y003375D01*
X018488Y003328D01*
X018611Y003328D01*
X018724Y003375D01*
X018811Y003462D01*
X018818Y003478D01*
X018843Y003454D01*
X018840Y003448D01*
X018840Y003325D01*
X018887Y003212D01*
X018974Y003125D01*
X019088Y003078D01*
X019211Y003078D01*
X019324Y003125D01*
X019411Y003212D01*
X019418Y003228D01*
X019946Y002701D01*
X020013Y002633D01*
X020101Y002597D01*
X021850Y002597D01*
X022142Y002304D01*
X022138Y002303D01*
X021983Y002148D01*
X021899Y001946D01*
X021899Y001727D01*
X021983Y001525D01*
X022138Y001370D01*
X022340Y001287D01*
X022559Y001287D01*
X022761Y001370D01*
X022915Y001525D01*
X022949Y001606D01*
X022983Y001525D01*
X023138Y001370D01*
X023340Y001287D01*
X023559Y001287D01*
X023761Y001370D01*
X023915Y001525D01*
X023949Y001606D01*
X023983Y001525D01*
X024138Y001370D01*
X024340Y001287D01*
X024559Y001287D01*
X024761Y001370D01*
X024915Y001525D01*
X024949Y001606D01*
X024983Y001525D01*
X025138Y001370D01*
X025340Y001287D01*
X025559Y001287D01*
X025761Y001370D01*
X025915Y001525D01*
X025949Y001606D01*
X025983Y001525D01*
X026138Y001370D01*
X026340Y001287D01*
X026559Y001287D01*
X026761Y001370D01*
X026915Y001525D01*
X026949Y001606D01*
X026983Y001525D01*
X027138Y001370D01*
X027340Y001287D01*
X027559Y001287D01*
X027761Y001370D01*
X027915Y001525D01*
X027999Y001727D01*
X027999Y001946D01*
X027915Y002148D01*
X027761Y002303D01*
X027689Y002332D01*
X027689Y002384D01*
X027653Y002472D01*
X027585Y002540D01*
X025835Y004290D01*
X025747Y004326D01*
X025651Y004326D01*
X020749Y004326D01*
X020714Y004361D01*
X021156Y004361D01*
X021213Y004419D01*
X021219Y004413D01*
X021255Y004392D01*
X021296Y004381D01*
X021513Y004381D01*
X021513Y004776D01*
X021633Y004776D01*
X021633Y004381D01*
X021850Y004381D01*
X021891Y004392D01*
X021927Y004413D01*
X021957Y004443D01*
X021978Y004479D01*
X021989Y004520D01*
X021989Y004777D01*
X021633Y004777D01*
X021633Y004896D01*
X021989Y004896D01*
X021989Y005153D01*
X021978Y005194D01*
X021957Y005230D01*
X021927Y005260D01*
X021891Y005281D01*
X021850Y005292D01*
X021633Y005292D01*
X021633Y004897D01*
X021513Y004897D01*
X021513Y005292D01*
X021296Y005292D01*
X021255Y005281D01*
X021219Y005260D01*
X021213Y005254D01*
X021156Y005312D01*
X020589Y005312D01*
X020589Y005989D01*
X020624Y006074D01*
X020624Y006098D01*
X020699Y006098D01*
X020699Y006553D01*
X020699Y006553D01*
X020699Y006098D01*
X020774Y006098D01*
X020774Y006030D01*
X020740Y005948D01*
X020740Y005825D01*
X020787Y005712D01*
X020874Y005625D01*
X020988Y005578D01*
X021111Y005578D01*
X021224Y005625D01*
X021249Y005650D01*
X021274Y005625D01*
X021388Y005578D01*
X021511Y005578D01*
X021624Y005625D01*
X021711Y005712D01*
X021758Y005825D01*
X021758Y005948D01*
X021711Y006061D01*
X021695Y006078D01*
X021786Y006078D01*
X022101Y006078D01*
X022447Y006078D01*
X022552Y006183D01*
X022552Y006923D01*
X022514Y006961D01*
X022514Y007027D01*
X022526Y007022D01*
X022574Y007022D01*
X022613Y006983D01*
X022922Y006983D01*
X023059Y006846D01*
X023059Y006239D01*
X023096Y006151D01*
X023163Y006083D01*
X023613Y005633D01*
X023701Y005597D01*
X023797Y005597D01*
X027797Y005597D01*
X027885Y005633D01*
X027953Y005701D01*
X028385Y006133D01*
X028453Y006201D01*
X028489Y006289D01*
X028489Y009637D01*
X029219Y010367D01*
X029219Y004094D01*
X029136Y004295D01*
X028908Y004523D01*
X028610Y004646D01*
X028288Y004646D01*
X027990Y004523D01*
X027763Y004295D01*
X027639Y003998D01*
X027639Y003675D01*
X027763Y003378D01*
X027990Y003150D01*
X028288Y003027D01*
X028610Y003027D01*
X028908Y003150D01*
X029136Y003378D01*
X029219Y003579D01*
X029219Y002932D01*
X028354Y002066D01*
X028219Y001932D01*
X028219Y001325D01*
X028219Y001230D01*
X028216Y001198D01*
X028192Y001139D01*
X028146Y001094D01*
X028087Y001070D01*
X028055Y001066D01*
X008206Y001066D01*
X008408Y001150D01*
X008636Y001378D01*
X008759Y001675D01*
X008759Y001998D01*
X008636Y002295D01*
X008408Y002523D01*
X008110Y002646D01*
X007788Y002646D01*
X007490Y002523D01*
X007263Y002295D01*
X007139Y001998D01*
X007139Y001675D01*
X007263Y001378D01*
X007490Y001150D01*
X007692Y001066D01*
X005830Y001066D01*
X005901Y001101D01*
X005997Y001161D01*
X006086Y001232D01*
X006166Y001312D01*
X006237Y001401D01*
X006297Y001497D01*
X006346Y001599D01*
X006384Y001706D01*
X006409Y001817D01*
X006421Y001926D01*
X005472Y001926D01*
X005472Y002046D01*
X006421Y002046D01*
X006409Y002156D01*
X006384Y002266D01*
X006346Y002373D01*
X006297Y002475D01*
X006237Y002571D01*
X006166Y002660D01*
X006086Y002740D01*
X005997Y002811D01*
X005901Y002871D01*
X005799Y002921D01*
X005692Y002958D01*
X005581Y002983D01*
X005472Y002996D01*
X005472Y002046D01*
X005352Y002046D01*
X005352Y002996D01*
X005242Y002983D01*
X005132Y002958D01*
X005025Y002921D01*
X004922Y002871D01*
X004826Y002811D01*
X004738Y002740D01*
X004657Y002660D01*
X004587Y002571D01*
X004526Y002475D01*
X004477Y002373D01*
X004440Y002266D01*
X004414Y002156D01*
X004402Y002046D01*
X005352Y002046D01*
X005352Y001926D01*
X004402Y001926D01*
X004414Y001817D01*
X004440Y001706D01*
X004477Y001599D01*
X004526Y001497D01*
X004587Y001401D01*
X004657Y001312D01*
X004738Y001232D01*
X004826Y001161D01*
X004922Y001101D01*
X004994Y001066D01*
X002938Y001066D01*
X002843Y001066D01*
X002811Y001070D01*
X002752Y001094D01*
X002707Y001139D01*
X002682Y001198D01*
X002679Y001230D01*
X002679Y021348D01*
X002679Y021443D01*
X002682Y021475D01*
X002707Y021534D01*
X002752Y021579D01*
X002811Y021603D01*
X002843Y021607D01*
X008192Y021607D01*
X007990Y021523D01*
X007763Y021295D01*
X007639Y020998D01*
X007639Y020675D01*
X007763Y020378D01*
X007990Y020150D01*
X008288Y020027D01*
X008610Y020027D01*
X008908Y020150D01*
X009136Y020378D01*
X009259Y020675D01*
X009259Y020998D01*
X009136Y021295D01*
X008908Y021523D01*
X008706Y021607D01*
X027754Y021607D01*
X028219Y021141D01*
X028219Y016641D01*
X028354Y016507D01*
X029219Y015641D01*
X029219Y015094D01*
X029136Y015295D01*
X028908Y015523D01*
X028610Y015646D01*
X028288Y015646D01*
X027990Y015523D01*
X027763Y015295D01*
X027639Y014998D01*
X027639Y014675D01*
X027763Y014378D01*
X027990Y014150D01*
X028288Y014027D01*
X028610Y014027D01*
X028908Y014150D01*
X029136Y014378D01*
X029219Y014579D01*
X029219Y011656D01*
X029049Y011826D01*
X029049Y012064D01*
X028777Y012337D01*
X029049Y012609D01*
X029049Y013064D01*
X028727Y013386D01*
X028289Y013386D01*
X026675Y015000D01*
X026671Y015008D01*
X026655Y015022D01*
X026655Y015189D01*
X026549Y015294D01*
X026098Y015294D01*
X026049Y015345D01*
X026048Y015348D01*
X026017Y015380D01*
X025986Y015412D01*
X025983Y015414D01*
X025981Y015416D01*
X025940Y015433D01*
X025899Y015451D01*
X025896Y015451D01*
X025893Y015452D01*
X025848Y015452D01*
X025804Y015454D01*
X025800Y015452D01*
X025674Y015452D01*
X025674Y015543D01*
X025631Y015587D01*
X025674Y015630D01*
X025674Y015721D01*
X025800Y015721D01*
X025804Y015719D01*
X025848Y015721D01*
X025893Y015721D01*
X025896Y015722D01*
X025899Y015722D01*
X025940Y015740D01*
X025981Y015757D01*
X025983Y015759D01*
X025986Y015761D01*
X026017Y015793D01*
X026048Y015825D01*
X026050Y015828D01*
X026098Y015879D01*
X026549Y015879D01*
X026655Y015984D01*
X026655Y016685D01*
X026549Y016790D01*
X025849Y016790D01*
X025744Y016685D01*
X025744Y016203D01*
X025742Y016201D01*
X025674Y016201D01*
X025674Y016291D01*
X025569Y016396D01*
X025446Y016396D01*
X025461Y016412D01*
X025508Y016525D01*
X025508Y016648D01*
X025461Y016761D01*
X025374Y016848D01*
X025261Y016895D01*
X025138Y016895D01*
X025024Y016848D01*
X024937Y016761D01*
X024890Y016648D01*
X024890Y016525D01*
X024937Y016412D01*
X024952Y016396D01*
X024829Y016396D01*
X024724Y016291D01*
X024724Y015630D01*
X024767Y015587D01*
X024724Y015543D01*
X024724Y014882D01*
X024829Y014777D01*
X025569Y014777D01*
X025674Y014882D01*
X025674Y014973D01*
X025742Y014973D01*
X025744Y014970D01*
X025744Y014488D01*
X025849Y014383D01*
X026549Y014383D01*
X026581Y014415D01*
X027610Y013386D01*
X027271Y013386D01*
X026949Y013064D01*
X026949Y012609D01*
X027221Y012337D01*
X026949Y012064D01*
X026949Y011826D01*
X026763Y011640D01*
X026696Y011572D01*
X026659Y011484D01*
X026659Y010634D01*
X026659Y010539D01*
X026696Y010451D01*
X027509Y009637D01*
X027509Y006636D01*
X027450Y006576D01*
X024099Y006576D01*
X024039Y006636D01*
X024039Y006745D01*
X024056Y006729D01*
X024092Y006708D01*
X024133Y006697D01*
X024389Y006697D01*
X024389Y007052D01*
X024509Y007052D01*
X024509Y006697D01*
X024765Y006697D01*
X024806Y006708D01*
X024843Y006729D01*
X024872Y006758D01*
X024893Y006795D01*
X024904Y006836D01*
X024904Y007053D01*
X024509Y007053D01*
X024509Y007172D01*
X024904Y007172D01*
X024904Y007389D01*
X024893Y007430D01*
X024872Y007467D01*
X024867Y007472D01*
X024878Y007484D01*
X024887Y007462D01*
X024974Y007375D01*
X025088Y007328D01*
X025211Y007328D01*
X025324Y007375D01*
X025411Y007462D01*
X025458Y007575D01*
X025458Y007698D01*
X025411Y007811D01*
X025324Y007898D01*
X025211Y007945D01*
X025180Y007945D01*
X025061Y008064D01*
X024973Y008101D01*
X024924Y008101D01*
X024924Y008191D01*
X024819Y008296D01*
X024329Y008296D01*
X023900Y008725D01*
X023812Y008762D01*
X023716Y008762D01*
X023438Y008762D01*
X023438Y008836D01*
X022983Y008836D01*
X022983Y008837D01*
X023438Y008837D01*
X023438Y008911D01*
X023766Y008911D01*
X023862Y008911D01*
X023950Y008948D01*
X024097Y009095D01*
X024097Y008831D01*
X024202Y008725D01*
X025296Y008725D01*
X025402Y008831D01*
X025402Y009059D01*
X025459Y009059D01*
X025545Y009095D01*
X025544Y009089D01*
X025544Y008872D01*
X025939Y008872D01*
X025939Y008753D01*
X025544Y008753D01*
X025544Y008536D01*
X025555Y008495D01*
X025576Y008458D01*
X025606Y008429D01*
X025642Y008408D01*
X025683Y008397D01*
X025939Y008397D01*
X025939Y008752D01*
X026059Y008752D01*
X026059Y008397D01*
X026315Y008397D01*
X026356Y008408D01*
X026393Y008429D01*
X026422Y008458D01*
X026443Y008495D01*
X026454Y008536D01*
X026454Y008753D01*
X026059Y008753D01*
X026059Y008872D01*
X026454Y008872D01*
X026454Y009089D01*
X026443Y009130D01*
X026422Y009167D01*
X026417Y009172D01*
X026474Y009230D01*
X026474Y009891D01*
X026369Y009996D01*
X025629Y009996D01*
X025524Y009891D01*
X025524Y009751D01*
X025496Y009722D01*
X025402Y009628D01*
X025402Y009767D01*
X025296Y009873D01*
X024610Y009873D01*
X024635Y009883D01*
X024885Y010133D01*
X024953Y010201D01*
X025604Y010201D01*
X025629Y010177D02*
X026369Y010177D01*
X026474Y010282D01*
X026474Y010943D01*
X026417Y011001D01*
X026422Y011006D01*
X026443Y011043D01*
X026454Y011084D01*
X026454Y011301D01*
X026059Y011301D01*
X026059Y011420D01*
X026454Y011420D01*
X026454Y011638D01*
X026443Y011678D01*
X026422Y011715D01*
X026393Y011744D01*
X026356Y011766D01*
X026315Y011776D01*
X026059Y011776D01*
X026059Y011421D01*
X025939Y011421D01*
X025939Y011776D01*
X025683Y011776D01*
X025642Y011766D01*
X025606Y011744D01*
X025576Y011715D01*
X025555Y011678D01*
X025544Y011638D01*
X025544Y011420D01*
X025939Y011420D01*
X025939Y011301D01*
X025544Y011301D01*
X025544Y011084D01*
X025545Y011078D01*
X025459Y011114D01*
X025402Y011114D01*
X025402Y011342D01*
X025296Y011448D01*
X024202Y011448D01*
X024097Y011342D01*
X024097Y010406D01*
X024183Y010319D01*
X024113Y010290D01*
X024089Y010266D01*
X024089Y011387D01*
X024903Y012201D01*
X024934Y012277D01*
X025569Y012277D01*
X025674Y012382D01*
X025674Y013043D01*
X025631Y013086D01*
X025674Y013130D01*
X025674Y013791D01*
X025569Y013896D01*
X025446Y013896D01*
X025461Y013912D01*
X025508Y014025D01*
X025508Y014148D01*
X025461Y014261D01*
X025374Y014348D01*
X025261Y014395D01*
X025138Y014395D01*
X025024Y014348D01*
X024939Y014263D01*
X024939Y014289D01*
X024939Y014384D01*
X024903Y014472D01*
X024089Y015286D01*
X024089Y018587D01*
X024449Y018947D01*
X026251Y018947D01*
X026347Y018947D01*
X026435Y018983D01*
X027585Y020133D01*
X027653Y020201D01*
X027688Y020287D01*
X027894Y020287D01*
X027999Y020392D01*
X027999Y021281D01*
X027894Y021386D01*
X027005Y021386D01*
X026899Y021281D01*
X026899Y021164D01*
X026761Y021303D01*
X026559Y021386D01*
X026340Y021386D01*
X026138Y021303D01*
X025983Y021148D01*
X025949Y021067D01*
X025915Y021148D01*
X025761Y021303D01*
X025559Y021386D01*
X025340Y021386D01*
X025138Y021303D01*
X024983Y021148D01*
X024949Y021067D01*
X024915Y021148D01*
X024761Y021303D01*
X024559Y021386D01*
X024340Y021386D01*
X024138Y021303D01*
X023983Y021148D01*
X023949Y021067D01*
X023915Y021148D01*
X023761Y021303D01*
X023559Y021386D01*
X023340Y021386D01*
X023138Y021303D01*
X022983Y021148D01*
X022949Y021067D01*
X022915Y021148D01*
X022761Y021303D01*
X022559Y021386D01*
X022340Y021386D01*
X022138Y021303D01*
X021983Y021148D01*
X021949Y021067D01*
X021915Y021148D01*
X021761Y021303D01*
X021559Y021386D01*
X021340Y021386D01*
X021138Y021303D01*
X020983Y021148D01*
X020949Y021067D01*
X020915Y021148D01*
X020761Y021303D01*
X020559Y021386D01*
X020340Y021386D01*
X020138Y021303D01*
X019983Y021148D01*
X019899Y020946D01*
X019899Y020727D01*
X019983Y020525D01*
X020138Y020370D01*
X020209Y020341D01*
X020209Y019866D01*
X019903Y020172D01*
X019835Y020240D01*
X019747Y020276D01*
X019249Y020276D01*
X019238Y020287D01*
X019294Y020287D01*
X019399Y020392D01*
X019399Y021281D01*
X019294Y021386D01*
X018405Y021386D01*
X018299Y021281D01*
X018299Y021164D01*
X018161Y021303D01*
X017959Y021386D01*
X017740Y021386D01*
X017538Y021303D01*
X017383Y021148D01*
X017349Y021067D01*
X017315Y021148D01*
X017161Y021303D01*
X016959Y021386D01*
X016740Y021386D01*
X016538Y021303D01*
X016383Y021148D01*
X016349Y021067D01*
X016315Y021148D01*
X016161Y021303D01*
X015959Y021386D01*
X015740Y021386D01*
X015538Y021303D01*
X015383Y021148D01*
X015349Y021067D01*
X015315Y021148D01*
X015161Y021303D01*
X014959Y021386D01*
X014740Y021386D01*
X014538Y021303D01*
X014383Y021148D01*
X014349Y021067D01*
X014315Y021148D01*
X014161Y021303D01*
X013959Y021386D01*
X013740Y021386D01*
X013538Y021303D01*
X013383Y021148D01*
X013339Y021042D01*
X013302Y021114D01*
X013253Y021182D01*
X013194Y021241D01*
X013127Y021290D01*
X013053Y021328D01*
X012973Y021353D01*
X012891Y021366D01*
X012889Y021366D01*
X012889Y020877D01*
X012809Y020877D01*
X012809Y021366D01*
X012807Y021366D01*
X012725Y021353D01*
X012646Y021328D01*
X012571Y021290D01*
X012504Y021241D01*
X012445Y021182D01*
X012396Y021114D01*
X012359Y021042D01*
X012315Y021148D01*
X012161Y021303D01*
X011959Y021386D01*
X011740Y021386D01*
X011538Y021303D01*
X011383Y021148D01*
X011349Y021067D01*
X011315Y021148D01*
X011161Y021303D01*
X010959Y021386D01*
X010740Y021386D01*
X010538Y021303D01*
X010383Y021148D01*
X010349Y021067D01*
X010315Y021148D01*
X010161Y021303D01*
X009959Y021386D01*
X009740Y021386D01*
X009538Y021303D01*
X009383Y021148D01*
X009299Y020946D01*
X009299Y020727D01*
X009383Y020525D01*
X009538Y020370D01*
X009609Y020341D01*
X009609Y020289D01*
X009646Y020201D01*
X009896Y019951D01*
X009963Y019883D01*
X010051Y019847D01*
X010760Y019847D01*
X010740Y019798D01*
X010740Y019675D01*
X010787Y019562D01*
X010874Y019475D01*
X010988Y019428D01*
X011111Y019428D01*
X011224Y019475D01*
X011296Y019547D01*
X013500Y019547D01*
X014596Y018451D01*
X014663Y018383D01*
X014751Y018347D01*
X017400Y018347D01*
X018013Y017733D01*
X018101Y017697D01*
X018197Y017697D01*
X018850Y017697D01*
X019109Y017437D01*
X019109Y011939D01*
X019114Y011926D01*
X018646Y011926D01*
X018624Y011948D01*
X018511Y011995D01*
X018388Y011995D01*
X018274Y011948D01*
X018187Y011861D01*
X016674Y011861D01*
X016674Y011743D02*
X018140Y011743D01*
X018140Y011748D02*
X018140Y011625D01*
X018187Y011512D01*
X018274Y011425D01*
X018333Y011400D01*
X018290Y011298D01*
X018290Y011175D01*
X018337Y011062D01*
X018424Y010975D01*
X018538Y010928D01*
X018569Y010928D01*
X018613Y010883D01*
X018701Y010847D01*
X018797Y010847D01*
X018846Y010847D01*
X018846Y010750D01*
X018951Y010645D01*
X019297Y010645D01*
X019612Y010645D01*
X019927Y010645D01*
X020242Y010645D01*
X020263Y010665D01*
X020265Y010665D01*
X020384Y010665D01*
X020384Y011120D01*
X020384Y011575D01*
X020309Y011575D01*
X020309Y011619D01*
X020309Y011714D01*
X020273Y011802D01*
X019889Y012186D01*
X019889Y012203D01*
X019907Y012192D01*
X019948Y012181D01*
X020165Y012181D01*
X020165Y012576D01*
X020285Y012576D01*
X020285Y012181D01*
X020502Y012181D01*
X020543Y012192D01*
X020579Y012213D01*
X020585Y012219D01*
X020643Y012161D01*
X020684Y012161D01*
X020496Y011972D01*
X020459Y011884D01*
X020459Y011789D01*
X020459Y011575D01*
X020384Y011575D01*
X020384Y011120D01*
X020384Y011120D01*
X020384Y011120D01*
X020384Y010665D01*
X020359Y010604D01*
X020359Y009457D01*
X020292Y009525D01*
X020167Y009576D01*
X020031Y009576D01*
X019731Y009576D01*
X019607Y009525D01*
X019558Y009476D01*
X019481Y009476D01*
X018931Y009476D01*
X018891Y009460D01*
X018891Y009639D01*
X018891Y009954D01*
X018891Y010269D01*
X018891Y010584D01*
X018785Y010690D01*
X018535Y010690D01*
X018503Y010722D01*
X018435Y010790D01*
X018347Y010826D01*
X017646Y010826D01*
X017624Y010848D01*
X017511Y010895D01*
X017388Y010895D01*
X017274Y010848D01*
X017187Y010761D01*
X017140Y010648D01*
X017140Y010525D01*
X017187Y010412D01*
X017274Y010325D01*
X017388Y010278D01*
X017390Y010278D01*
X017390Y010225D01*
X017437Y010112D01*
X017487Y010061D01*
X017440Y009948D01*
X017440Y009825D01*
X017487Y009712D01*
X017537Y009661D01*
X017525Y009632D01*
X017417Y009676D01*
X017389Y009676D01*
X017319Y009746D01*
X016579Y009746D01*
X016483Y009651D01*
X016266Y009651D01*
X015689Y010227D01*
X015689Y010634D01*
X015653Y010722D01*
X015585Y010790D01*
X015335Y011040D01*
X015247Y011076D01*
X015151Y011076D01*
X013940Y011076D01*
X013792Y011225D01*
X013667Y011276D01*
X013531Y011276D01*
X013289Y011276D01*
X013289Y011334D01*
X013253Y011422D01*
X013185Y011490D01*
X013091Y011584D01*
X013091Y011694D01*
X013714Y011694D01*
X013764Y011744D01*
X014297Y011744D01*
X014297Y011231D01*
X014402Y011125D01*
X015496Y011125D01*
X015602Y011231D01*
X015602Y011447D01*
X015697Y011447D01*
X015744Y011466D01*
X015744Y011322D01*
X016139Y011322D01*
X016139Y011203D01*
X015744Y011203D01*
X015744Y010986D01*
X015755Y010945D01*
X015776Y010908D01*
X015806Y010879D01*
X015842Y010858D01*
X015883Y010847D01*
X016139Y010847D01*
X016139Y011202D01*
X016259Y011202D01*
X016259Y010847D01*
X016515Y010847D01*
X016556Y010858D01*
X016593Y010879D01*
X016622Y010908D01*
X016643Y010945D01*
X016654Y010986D01*
X016654Y011203D01*
X016259Y011203D01*
X016259Y011322D01*
X016654Y011322D01*
X016654Y011539D01*
X016643Y011580D01*
X016622Y011617D01*
X016617Y011622D01*
X016674Y011680D01*
X016674Y012341D01*
X016569Y012446D01*
X015829Y012446D01*
X015724Y012341D01*
X015724Y012101D01*
X015602Y011978D01*
X015602Y012167D01*
X015496Y012273D01*
X014975Y012273D01*
X015085Y012383D01*
X015153Y012451D01*
X015189Y012539D01*
X015189Y012700D01*
X015496Y012700D01*
X015602Y012806D01*
X015602Y012945D01*
X015724Y012822D01*
X015724Y012632D01*
X015829Y012527D01*
X016569Y012527D01*
X016674Y012632D01*
X016674Y013293D01*
X016617Y013351D01*
X016622Y013356D01*
X016643Y013393D01*
X016654Y013434D01*
X016654Y013651D01*
X016259Y013651D01*
X016259Y013770D01*
X016654Y013770D01*
X016654Y013988D01*
X016643Y014028D01*
X016622Y014065D01*
X016593Y014094D01*
X016556Y014116D01*
X016515Y014126D01*
X016259Y014126D01*
X016259Y013771D01*
X016139Y013771D01*
X016139Y014126D01*
X016089Y014126D01*
X016089Y014377D01*
X015733Y014377D01*
X015733Y014496D01*
X016089Y014496D01*
X016089Y014753D01*
X016078Y014794D01*
X016057Y014830D01*
X016027Y014860D01*
X015991Y014881D01*
X015950Y014892D01*
X015733Y014892D01*
X015733Y014497D01*
X015613Y014497D01*
X015613Y014892D01*
X015396Y014892D01*
X015355Y014881D01*
X015319Y014860D01*
X015313Y014854D01*
X015256Y014912D01*
X014595Y014912D01*
X014489Y014806D01*
X014489Y014676D01*
X014101Y014676D01*
X014013Y014640D01*
X013979Y014606D01*
X014008Y014675D01*
X014008Y014798D01*
X013961Y014911D01*
X013874Y014998D01*
X013761Y015045D01*
X013658Y015045D01*
X013658Y015148D01*
X013611Y015261D01*
X013524Y015348D01*
X013411Y015395D01*
X013288Y015395D01*
X013174Y015348D01*
X013087Y015261D01*
X013041Y015151D01*
X012986Y015206D01*
X012908Y015206D01*
X013085Y015383D01*
X013153Y015451D01*
X013184Y015527D01*
X013319Y015527D01*
X013424Y015632D01*
X013424Y015723D01*
X013474Y015723D01*
X013474Y015632D01*
X013579Y015527D01*
X014319Y015527D01*
X014424Y015632D01*
X014424Y016293D01*
X014367Y016351D01*
X014372Y016356D01*
X014393Y016393D01*
X014404Y016434D01*
X014404Y016651D01*
X014009Y016651D01*
X014009Y016770D01*
X014404Y016770D01*
X014404Y016988D01*
X014393Y017028D01*
X014372Y017065D01*
X014343Y017094D01*
X014306Y017116D01*
X014265Y017126D01*
X014009Y017126D01*
X014009Y016771D01*
X013889Y016771D01*
X013889Y016840D02*
X014009Y016840D01*
X014009Y016958D02*
X013889Y016958D01*
X013889Y017077D02*
X014009Y017077D01*
X013725Y017196D02*
X017909Y017196D01*
X017910Y017195D02*
X017954Y017197D01*
X018400Y017197D01*
X018509Y017087D01*
X018509Y012483D01*
X018487Y012461D01*
X018440Y012348D01*
X018440Y012225D01*
X018487Y012112D01*
X018574Y012025D01*
X018688Y011978D01*
X018811Y011978D01*
X018924Y012025D01*
X019011Y012112D01*
X019058Y012225D01*
X019058Y012348D01*
X019011Y012461D01*
X018989Y012483D01*
X018989Y017234D01*
X018953Y017322D01*
X018885Y017390D01*
X018635Y017640D01*
X018547Y017676D01*
X018451Y017676D01*
X018043Y017676D01*
X017416Y018259D01*
X017385Y018290D01*
X017381Y018292D01*
X017377Y018295D01*
X017337Y018310D01*
X017297Y018326D01*
X017292Y018326D01*
X017288Y018328D01*
X017244Y018326D01*
X014699Y018326D01*
X013635Y019390D01*
X013547Y019426D01*
X013451Y019426D01*
X012796Y019426D01*
X012774Y019448D01*
X012661Y019495D01*
X012538Y019495D01*
X012424Y019448D01*
X012337Y019361D01*
X012290Y019248D01*
X012290Y019125D01*
X012337Y019012D01*
X012424Y018925D01*
X012538Y018878D01*
X012661Y018878D01*
X012774Y018925D01*
X012796Y018947D01*
X013400Y018947D01*
X014396Y017951D01*
X014463Y017883D01*
X014551Y017847D01*
X017155Y017847D01*
X017782Y017264D01*
X017813Y017233D01*
X017817Y017231D01*
X017821Y017228D01*
X017861Y017213D01*
X017901Y017197D01*
X017906Y017197D01*
X017910Y017195D01*
X017926Y017196D02*
X018401Y017196D01*
X018509Y017077D02*
X014360Y017077D01*
X014404Y016958D02*
X018509Y016958D01*
X018509Y016840D02*
X014404Y016840D01*
X014404Y016603D02*
X018509Y016603D01*
X018509Y016721D02*
X014009Y016721D01*
X014378Y016366D02*
X018509Y016366D01*
X018509Y016484D02*
X014404Y016484D01*
X014424Y016247D02*
X018509Y016247D01*
X018509Y016129D02*
X014424Y016129D01*
X014424Y016010D02*
X018509Y016010D01*
X018509Y015892D02*
X014424Y015892D01*
X014424Y015773D02*
X018509Y015773D01*
X018509Y015654D02*
X014424Y015654D01*
X014328Y015536D02*
X018509Y015536D01*
X018509Y015417D02*
X013119Y015417D01*
X013085Y015383D02*
X013085Y015383D01*
X013125Y015299D02*
X013001Y015299D01*
X013012Y015180D02*
X013054Y015180D01*
X013349Y015087D02*
X013039Y014777D01*
X012801Y014777D01*
X012487Y014777D02*
X012487Y013774D01*
X011449Y012737D01*
X011199Y012737D01*
X011075Y012454D02*
X010889Y012454D01*
X010937Y012562D02*
X011024Y012475D01*
X011138Y012428D01*
X011261Y012428D01*
X011374Y012475D01*
X011396Y012497D01*
X011497Y012497D01*
X011585Y012533D01*
X011653Y012601D01*
X012690Y013638D01*
X012726Y013726D01*
X012726Y013822D01*
X012726Y014347D01*
X012959Y014347D01*
X012959Y014004D01*
X012959Y013689D01*
X012959Y013374D01*
X012959Y013276D01*
X012831Y013276D01*
X012707Y013225D01*
X012457Y012975D01*
X012361Y012879D01*
X012309Y012754D01*
X012309Y012375D01*
X012261Y012395D01*
X012138Y012395D01*
X012059Y012363D01*
X011974Y012448D01*
X011861Y012495D01*
X011738Y012495D01*
X011624Y012448D01*
X011537Y012361D01*
X011490Y012248D01*
X011490Y012125D01*
X011537Y012012D01*
X011617Y011932D01*
X011617Y011806D01*
X011542Y011806D01*
X011542Y011397D01*
X011541Y011397D01*
X011541Y011806D01*
X011431Y011806D01*
X011411Y011826D01*
X011042Y011826D01*
X010727Y011826D01*
X010628Y011826D01*
X010785Y011983D01*
X010853Y012051D01*
X010889Y012139D01*
X010889Y013810D01*
X010924Y013825D01*
X011011Y013912D01*
X011058Y014025D01*
X011058Y014148D01*
X011011Y014261D01*
X010926Y014347D01*
X011096Y014347D01*
X011411Y014347D01*
X011726Y014347D01*
X011932Y014347D01*
X011932Y014008D01*
X011366Y013443D01*
X011361Y013445D01*
X011238Y013445D01*
X011124Y013398D01*
X011037Y013311D01*
X010990Y013198D01*
X010990Y013075D01*
X011023Y012997D01*
X010937Y012911D01*
X010890Y012798D01*
X010890Y012675D01*
X010937Y012562D01*
X010933Y012572D02*
X010889Y012572D01*
X010889Y012691D02*
X010890Y012691D01*
X010889Y012809D02*
X010895Y012809D01*
X010889Y012928D02*
X010954Y012928D01*
X011002Y013046D02*
X010889Y013046D01*
X010889Y013165D02*
X010990Y013165D01*
X011026Y013284D02*
X010889Y013284D01*
X010889Y013402D02*
X011133Y013402D01*
X010889Y013521D02*
X011444Y013521D01*
X011562Y013639D02*
X010889Y013639D01*
X010889Y013758D02*
X011681Y013758D01*
X011799Y013876D02*
X010976Y013876D01*
X011045Y013995D02*
X011918Y013995D01*
X011932Y014113D02*
X011058Y014113D01*
X011023Y014232D02*
X011932Y014232D01*
X012172Y013909D02*
X011399Y013137D01*
X011299Y013137D01*
X011743Y012691D02*
X012309Y012691D01*
X012309Y012572D02*
X011624Y012572D01*
X011637Y012454D02*
X011324Y012454D01*
X011526Y012335D02*
X010889Y012335D01*
X010889Y012217D02*
X011490Y012217D01*
X011501Y012098D02*
X010872Y012098D01*
X010782Y011980D02*
X011569Y011980D01*
X011617Y011861D02*
X010663Y011861D01*
X010447Y011984D02*
X010649Y012187D01*
X010649Y013987D01*
X010749Y014087D01*
X010597Y014777D02*
X010587Y014787D01*
X010399Y014787D01*
X009199Y015987D01*
X009199Y016337D01*
X008699Y016087D02*
X008699Y016837D01*
X008149Y016840D02*
X004944Y016840D01*
X004970Y016778D02*
X004912Y016916D01*
X004806Y017022D01*
X004668Y017079D01*
X004518Y017079D01*
X004379Y017022D01*
X004273Y016916D01*
X004216Y016778D01*
X004216Y016628D01*
X004273Y016489D01*
X004379Y016383D01*
X004518Y016326D01*
X004668Y016326D01*
X004806Y016383D01*
X004912Y016489D01*
X004970Y016628D01*
X004970Y016778D01*
X004970Y016721D02*
X005247Y016721D01*
X005165Y016603D02*
X004959Y016603D01*
X004907Y016484D02*
X005165Y016484D01*
X005165Y016366D02*
X004764Y016366D01*
X004422Y016366D02*
X002679Y016366D01*
X002679Y016484D02*
X004278Y016484D01*
X004226Y016603D02*
X002679Y016603D01*
X002679Y016721D02*
X004216Y016721D01*
X004242Y016840D02*
X002679Y016840D01*
X002679Y016958D02*
X004316Y016958D01*
X004512Y017077D02*
X004041Y017077D01*
X004064Y017101D02*
X004064Y018037D01*
X003959Y018142D01*
X002865Y018142D01*
X002759Y018037D01*
X002759Y017101D01*
X002865Y016995D01*
X003959Y016995D01*
X004064Y017101D01*
X004064Y017196D02*
X004925Y017196D01*
X004925Y017101D02*
X005030Y016995D01*
X006124Y016995D01*
X006229Y017101D01*
X006229Y018037D01*
X006124Y018142D01*
X005030Y018142D01*
X004925Y018037D01*
X004925Y017101D01*
X004948Y017077D02*
X004674Y017077D01*
X004870Y016958D02*
X008149Y016958D01*
X008162Y017077D02*
X006206Y017077D01*
X006229Y017196D02*
X008280Y017196D01*
X008399Y017314D02*
X006229Y017314D01*
X006229Y017433D02*
X008325Y017433D01*
X008207Y017551D02*
X006229Y017551D01*
X006229Y017670D02*
X008149Y017670D01*
X008149Y017788D02*
X006229Y017788D01*
X006229Y017907D02*
X008149Y017907D01*
X008149Y018025D02*
X006229Y018025D01*
X006555Y018381D02*
X002679Y018381D01*
X002679Y018499D02*
X006489Y018499D01*
X006489Y018618D02*
X002679Y018618D01*
X002679Y018737D02*
X006489Y018737D01*
X006489Y018855D02*
X002679Y018855D01*
X002679Y018974D02*
X006489Y018974D01*
X006489Y019092D02*
X002679Y019092D01*
X002679Y019211D02*
X006489Y019211D01*
X006377Y019288D02*
X006398Y019325D01*
X006409Y019365D01*
X006409Y019521D01*
X005964Y019521D01*
X005964Y019227D01*
X006270Y019227D01*
X006311Y019237D01*
X006347Y019259D01*
X006377Y019288D01*
X006399Y019329D02*
X006592Y019329D01*
X006659Y019448D02*
X006409Y019448D01*
X006409Y019552D02*
X005964Y019552D01*
X005934Y019552D01*
X005934Y019846D01*
X005628Y019846D01*
X005587Y019836D01*
X005551Y019815D01*
X005521Y019785D01*
X005500Y019748D01*
X005489Y019708D01*
X005489Y019552D01*
X005934Y019552D01*
X005934Y019521D01*
X005964Y019521D01*
X005964Y019552D01*
X005964Y019846D01*
X006270Y019846D01*
X006311Y019836D01*
X006347Y019815D01*
X006377Y019785D01*
X006398Y019748D01*
X006409Y019708D01*
X006409Y019552D01*
X006409Y019566D02*
X006659Y019566D01*
X006659Y019685D02*
X006409Y019685D01*
X006358Y019803D02*
X006659Y019803D01*
X006659Y019922D02*
X002679Y019922D01*
X002679Y019803D02*
X003540Y019803D01*
X003551Y019815D02*
X003521Y019785D01*
X003500Y019748D01*
X003489Y019708D01*
X003489Y019552D01*
X003934Y019552D01*
X003934Y019846D01*
X003628Y019846D01*
X003587Y019836D01*
X003551Y019815D01*
X003489Y019685D02*
X002679Y019685D01*
X002679Y019566D02*
X003489Y019566D01*
X003489Y019521D02*
X003489Y019365D01*
X003500Y019325D01*
X003521Y019288D01*
X003551Y019259D01*
X003587Y019237D01*
X003628Y019227D01*
X003934Y019227D01*
X003934Y019521D01*
X003964Y019521D01*
X003964Y019227D01*
X004270Y019227D01*
X004311Y019237D01*
X004347Y019259D01*
X004377Y019288D01*
X004398Y019325D01*
X004409Y019365D01*
X004409Y019521D01*
X003964Y019521D01*
X003964Y019552D01*
X003934Y019552D01*
X003934Y019521D01*
X003489Y019521D01*
X003489Y019448D02*
X002679Y019448D01*
X002679Y019329D02*
X003499Y019329D01*
X003934Y019329D02*
X003964Y019329D01*
X003964Y019448D02*
X003934Y019448D01*
X003964Y019552D02*
X004409Y019552D01*
X004409Y019708D01*
X004398Y019748D01*
X004377Y019785D01*
X004347Y019815D01*
X004311Y019836D01*
X004270Y019846D01*
X003964Y019846D01*
X003964Y019552D01*
X003964Y019566D02*
X003934Y019566D01*
X003934Y019685D02*
X003964Y019685D01*
X003964Y019803D02*
X003934Y019803D01*
X004358Y019803D02*
X005540Y019803D01*
X005489Y019685D02*
X004409Y019685D01*
X004409Y019566D02*
X005489Y019566D01*
X005489Y019521D02*
X005489Y019365D01*
X005500Y019325D01*
X005521Y019288D01*
X005551Y019259D01*
X005587Y019237D01*
X005628Y019227D01*
X005934Y019227D01*
X005934Y019521D01*
X005489Y019521D01*
X005489Y019448D02*
X004409Y019448D01*
X004399Y019329D02*
X005499Y019329D01*
X005934Y019329D02*
X005964Y019329D01*
X005964Y019448D02*
X005934Y019448D01*
X005934Y019566D02*
X005964Y019566D01*
X005964Y019685D02*
X005934Y019685D01*
X005934Y019803D02*
X005964Y019803D01*
X006659Y020041D02*
X002679Y020041D01*
X002679Y020159D02*
X006659Y020159D01*
X006659Y020278D02*
X002679Y020278D01*
X002679Y020396D02*
X006659Y020396D01*
X006659Y020515D02*
X002679Y020515D01*
X002679Y020633D02*
X006659Y020633D01*
X006544Y020752D02*
X006369Y020752D01*
X006599Y021037D02*
X005949Y021037D01*
X003949Y021037D01*
X003469Y020989D02*
X002679Y020989D01*
X002679Y021107D02*
X003469Y021107D01*
X003469Y021226D02*
X002679Y021226D01*
X002679Y021345D02*
X003553Y021345D01*
X003469Y020870D02*
X002679Y020870D01*
X002679Y020752D02*
X003529Y020752D01*
X004369Y020752D02*
X005529Y020752D01*
X005553Y021345D02*
X004346Y021345D01*
X002758Y021582D02*
X008132Y021582D01*
X007930Y021463D02*
X002681Y021463D01*
X006346Y021345D02*
X007812Y021345D01*
X007734Y021226D02*
X006749Y021226D01*
X006868Y021107D02*
X007685Y021107D01*
X007639Y020989D02*
X006986Y020989D01*
X007103Y020870D02*
X007639Y020870D01*
X007639Y020752D02*
X007139Y020752D01*
X007139Y020633D02*
X007657Y020633D01*
X007706Y020515D02*
X007139Y020515D01*
X007139Y020396D02*
X007755Y020396D01*
X007863Y020278D02*
X007139Y020278D01*
X007139Y020159D02*
X007981Y020159D01*
X008254Y020041D02*
X007139Y020041D01*
X007139Y019922D02*
X009924Y019922D01*
X009806Y020041D02*
X008644Y020041D01*
X008917Y020159D02*
X009687Y020159D01*
X009614Y020278D02*
X009036Y020278D01*
X009143Y020396D02*
X009512Y020396D01*
X009393Y020515D02*
X009192Y020515D01*
X009242Y020633D02*
X009338Y020633D01*
X009299Y020752D02*
X009259Y020752D01*
X009259Y020870D02*
X009299Y020870D01*
X009317Y020989D02*
X009259Y020989D01*
X009214Y021107D02*
X009366Y021107D01*
X009461Y021226D02*
X009164Y021226D01*
X009086Y021345D02*
X009638Y021345D01*
X010060Y021345D02*
X010638Y021345D01*
X010461Y021226D02*
X010237Y021226D01*
X010332Y021107D02*
X010366Y021107D01*
X009849Y020837D02*
X009849Y020337D01*
X010099Y020087D01*
X013699Y020087D01*
X014899Y018887D01*
X017599Y018887D01*
X018249Y018237D01*
X019049Y018237D01*
X019649Y017637D01*
X019649Y012087D01*
X020069Y011666D01*
X020069Y011120D01*
X019754Y011120D02*
X019754Y011581D01*
X019349Y011987D01*
X019349Y017537D01*
X018949Y017937D01*
X018149Y017937D01*
X017499Y018587D01*
X014799Y018587D01*
X013599Y019787D01*
X011099Y019787D01*
X011049Y019737D01*
X010740Y019685D02*
X007139Y019685D01*
X007139Y019803D02*
X010743Y019803D01*
X010785Y019566D02*
X008009Y019566D01*
X008127Y019448D02*
X010939Y019448D01*
X011159Y019448D02*
X012424Y019448D01*
X012324Y019329D02*
X008246Y019329D01*
X008364Y019211D02*
X012290Y019211D01*
X012304Y019092D02*
X011033Y019092D01*
X011151Y018974D02*
X012375Y018974D01*
X012599Y019187D02*
X013499Y019187D01*
X014599Y018087D01*
X017249Y018087D01*
X017949Y017437D01*
X018499Y017437D01*
X018749Y017187D01*
X018749Y012287D01*
X018501Y012098D02*
X016674Y012098D01*
X016674Y011980D02*
X018350Y011980D01*
X018549Y011980D02*
X018683Y011980D01*
X018815Y011980D02*
X019109Y011980D01*
X019109Y012098D02*
X018998Y012098D01*
X019054Y012217D02*
X019109Y012217D01*
X019109Y012335D02*
X019058Y012335D01*
X019014Y012454D02*
X019109Y012454D01*
X019109Y012572D02*
X018989Y012572D01*
X018989Y012691D02*
X019109Y012691D01*
X019109Y012809D02*
X018989Y012809D01*
X018989Y012928D02*
X019109Y012928D01*
X019109Y013046D02*
X018989Y013046D01*
X018989Y013165D02*
X019109Y013165D01*
X019109Y013284D02*
X018989Y013284D01*
X018989Y013402D02*
X019109Y013402D01*
X019109Y013521D02*
X018989Y013521D01*
X018989Y013639D02*
X019109Y013639D01*
X019109Y013758D02*
X018989Y013758D01*
X018989Y013876D02*
X019109Y013876D01*
X019109Y013995D02*
X018989Y013995D01*
X018989Y014113D02*
X019109Y014113D01*
X019109Y014232D02*
X018989Y014232D01*
X018989Y014350D02*
X019109Y014350D01*
X019109Y014469D02*
X018989Y014469D01*
X018989Y014588D02*
X019109Y014588D01*
X019109Y014706D02*
X018989Y014706D01*
X018989Y014825D02*
X019109Y014825D01*
X019109Y014943D02*
X018989Y014943D01*
X018989Y015062D02*
X019109Y015062D01*
X019109Y015180D02*
X018989Y015180D01*
X018989Y015299D02*
X019109Y015299D01*
X019109Y015417D02*
X018989Y015417D01*
X018989Y015536D02*
X019109Y015536D01*
X019109Y015654D02*
X018989Y015654D01*
X018989Y015773D02*
X019109Y015773D01*
X019109Y015892D02*
X018989Y015892D01*
X018989Y016010D02*
X019109Y016010D01*
X019109Y016129D02*
X018989Y016129D01*
X018989Y016247D02*
X019109Y016247D01*
X019109Y016366D02*
X018989Y016366D01*
X018989Y016484D02*
X019109Y016484D01*
X019109Y016603D02*
X018989Y016603D01*
X018989Y016721D02*
X019109Y016721D01*
X019109Y016840D02*
X018989Y016840D01*
X018989Y016958D02*
X019109Y016958D01*
X019109Y017077D02*
X018989Y017077D01*
X018989Y017196D02*
X019109Y017196D01*
X019109Y017314D02*
X018956Y017314D01*
X018842Y017433D02*
X019109Y017433D01*
X018995Y017551D02*
X018724Y017551D01*
X018877Y017670D02*
X018563Y017670D01*
X017958Y017788D02*
X017923Y017788D01*
X017839Y017907D02*
X017795Y017907D01*
X017721Y018025D02*
X017668Y018025D01*
X017602Y018144D02*
X017540Y018144D01*
X017484Y018262D02*
X017413Y018262D01*
X017218Y017788D02*
X012987Y017788D01*
X013105Y017670D02*
X017345Y017670D01*
X017473Y017551D02*
X013671Y017551D01*
X013744Y017433D02*
X017601Y017433D01*
X017728Y017314D02*
X013758Y017314D01*
X013449Y017337D02*
X013099Y017337D01*
X012799Y017637D01*
X011799Y017637D01*
X011599Y017837D01*
X011599Y018187D01*
X010849Y018937D01*
X008299Y018937D01*
X007849Y019387D01*
X006899Y019387D01*
X006899Y018837D01*
X006899Y019387D02*
X006899Y020737D01*
X006599Y021037D01*
X008767Y021582D02*
X027779Y021582D01*
X027897Y021463D02*
X008968Y021463D01*
X011060Y021345D02*
X011638Y021345D01*
X011461Y021226D02*
X011237Y021226D01*
X011332Y021107D02*
X011366Y021107D01*
X012060Y021345D02*
X012698Y021345D01*
X012809Y021345D02*
X012889Y021345D01*
X013001Y021345D02*
X013638Y021345D01*
X013461Y021226D02*
X013209Y021226D01*
X013306Y021107D02*
X013366Y021107D01*
X012889Y021107D02*
X012809Y021107D01*
X012809Y020989D02*
X012889Y020989D01*
X012889Y021226D02*
X012809Y021226D01*
X012489Y021226D02*
X012237Y021226D01*
X012332Y021107D02*
X012392Y021107D01*
X013849Y020837D02*
X013849Y020337D01*
X014999Y019187D01*
X017699Y019187D01*
X018349Y018537D01*
X019199Y018537D01*
X019949Y017787D01*
X019949Y013937D01*
X019940Y013628D02*
X019889Y013628D01*
X019889Y013070D01*
X019907Y013081D01*
X019948Y013092D01*
X020165Y013092D01*
X020165Y012697D01*
X020285Y012697D01*
X020285Y013092D01*
X020502Y013092D01*
X020543Y013081D01*
X020579Y013060D01*
X020585Y013054D01*
X020643Y013112D01*
X021304Y013112D01*
X021409Y013006D01*
X021409Y012486D01*
X021509Y012586D01*
X021509Y013278D01*
X021388Y013278D01*
X021274Y013325D01*
X021187Y013412D01*
X021149Y013504D01*
X021111Y013412D01*
X021024Y013325D01*
X020911Y013278D01*
X020788Y013278D01*
X020674Y013325D01*
X020587Y013412D01*
X020549Y013504D01*
X020511Y013412D01*
X020424Y013325D01*
X020311Y013278D01*
X020188Y013278D01*
X020074Y013325D01*
X019987Y013412D01*
X019940Y013525D01*
X019940Y013628D01*
X019942Y013521D02*
X019889Y013521D01*
X019889Y013402D02*
X019997Y013402D01*
X019889Y013284D02*
X020173Y013284D01*
X020325Y013284D02*
X020773Y013284D01*
X020925Y013284D02*
X021373Y013284D01*
X021509Y013165D02*
X019889Y013165D01*
X020165Y013046D02*
X020285Y013046D01*
X020285Y012928D02*
X020165Y012928D01*
X020165Y012809D02*
X020285Y012809D01*
X020285Y012572D02*
X020165Y012572D01*
X020165Y012454D02*
X020285Y012454D01*
X020285Y012335D02*
X020165Y012335D01*
X020165Y012217D02*
X020285Y012217D01*
X020583Y012217D02*
X020587Y012217D01*
X020621Y012098D02*
X019977Y012098D01*
X020095Y011980D02*
X020503Y011980D01*
X020459Y011861D02*
X020214Y011861D01*
X020297Y011743D02*
X020459Y011743D01*
X020459Y011624D02*
X020309Y011624D01*
X020384Y011505D02*
X020384Y011505D01*
X020384Y011387D02*
X020384Y011387D01*
X020384Y011268D02*
X020384Y011268D01*
X020384Y011150D02*
X020384Y011150D01*
X020384Y011031D02*
X020384Y011031D01*
X020384Y010913D02*
X020384Y010913D01*
X020384Y010794D02*
X020384Y010794D01*
X020384Y010676D02*
X020384Y010676D01*
X020359Y010557D02*
X018891Y010557D01*
X018891Y010439D02*
X020359Y010439D01*
X020359Y010320D02*
X018891Y010320D01*
X018891Y010201D02*
X020359Y010201D01*
X020359Y010083D02*
X018891Y010083D01*
X018891Y009964D02*
X020359Y009964D01*
X020359Y009846D02*
X018891Y009846D01*
X018891Y009727D02*
X020359Y009727D01*
X020359Y009609D02*
X018891Y009609D01*
X018891Y009490D02*
X019572Y009490D01*
X018999Y009137D02*
X018984Y009151D01*
X018416Y009151D01*
X017914Y009151D01*
X017749Y009037D01*
X018030Y008837D02*
X018030Y008836D01*
X018415Y008836D01*
X018415Y008837D01*
X018030Y008837D01*
X018049Y008837D02*
X017799Y008587D01*
X016973Y008587D01*
X016949Y008563D01*
X016889Y008542D02*
X016439Y008542D01*
X016439Y008660D02*
X016494Y008660D01*
X016494Y008779D02*
X016439Y008779D01*
X016439Y008897D02*
X016515Y008897D01*
X016494Y008423D02*
X016439Y008423D01*
X016439Y008305D02*
X016494Y008305D01*
X016548Y008186D02*
X016439Y008186D01*
X016439Y008068D02*
X017609Y008068D01*
X017609Y008186D02*
X017350Y008186D01*
X017404Y008305D02*
X017609Y008305D01*
X017646Y008423D02*
X017404Y008423D01*
X017404Y008660D02*
X017598Y008660D01*
X017800Y008660D02*
X017884Y008660D01*
X017765Y008542D02*
X017009Y008542D01*
X017009Y008423D02*
X016889Y008423D01*
X016889Y008305D02*
X017009Y008305D01*
X017009Y008186D02*
X016889Y008186D01*
X016563Y007831D02*
X016439Y007831D01*
X016439Y007949D02*
X017609Y007949D01*
X017554Y007831D02*
X017335Y007831D01*
X017599Y007537D02*
X016973Y007537D01*
X016949Y007411D01*
X017424Y007238D02*
X017609Y007238D01*
X017609Y007119D02*
X017424Y007119D01*
X017382Y007001D02*
X017609Y007001D01*
X017609Y006882D02*
X017404Y006882D01*
X017404Y006764D02*
X017609Y006764D01*
X017609Y006645D02*
X017009Y006645D01*
X017009Y006527D02*
X016889Y006527D01*
X016889Y006645D02*
X016439Y006645D01*
X016439Y006527D02*
X016494Y006527D01*
X016494Y006408D02*
X016439Y006408D01*
X016439Y006290D02*
X016545Y006290D01*
X016889Y006290D02*
X017009Y006290D01*
X017009Y006408D02*
X016889Y006408D01*
X017280Y006171D02*
X017975Y006171D01*
X017857Y006290D02*
X017354Y006290D01*
X017404Y006408D02*
X017738Y006408D01*
X017635Y006527D02*
X017404Y006527D01*
X017849Y006637D02*
X018799Y005687D01*
X018799Y004187D01*
X020149Y002837D01*
X021949Y002837D01*
X022449Y002337D01*
X022449Y001837D01*
X022094Y002259D02*
X020804Y002259D01*
X020919Y002141D02*
X021980Y002141D01*
X021931Y002022D02*
X020968Y002022D01*
X020999Y001903D02*
X021899Y001903D01*
X021899Y001785D02*
X020999Y001785D01*
X020974Y001666D02*
X021924Y001666D01*
X021973Y001548D02*
X020925Y001548D01*
X020820Y001429D02*
X022079Y001429D01*
X022281Y001311D02*
X020617Y001311D01*
X020281Y001311D02*
X019517Y001311D01*
X019489Y001311D02*
X019409Y001311D01*
X019381Y001311D02*
X018517Y001311D01*
X018489Y001311D02*
X018409Y001311D01*
X018381Y001311D02*
X017617Y001311D01*
X017820Y001429D02*
X018108Y001429D01*
X018004Y001548D02*
X017925Y001548D01*
X018409Y001548D02*
X018489Y001548D01*
X018489Y001666D02*
X018409Y001666D01*
X018409Y001785D02*
X018489Y001785D01*
X018489Y001796D02*
X018489Y001877D01*
X018919Y001877D01*
X019409Y001877D01*
X019409Y001796D01*
X018919Y001796D01*
X018489Y001796D01*
X018489Y001903D02*
X018409Y001903D01*
X018409Y002022D02*
X018489Y002022D01*
X018489Y002141D02*
X018409Y002141D01*
X018409Y002259D02*
X018489Y002259D01*
X018769Y002259D02*
X019129Y002259D01*
X019015Y002141D02*
X018883Y002141D01*
X018946Y002022D02*
X018952Y002022D01*
X019409Y002022D02*
X019489Y002022D01*
X019489Y002141D02*
X019409Y002141D01*
X019409Y002259D02*
X019489Y002259D01*
X019769Y002259D02*
X020094Y002259D01*
X019980Y002141D02*
X019883Y002141D01*
X019489Y001903D02*
X019409Y001903D01*
X019409Y001785D02*
X019489Y001785D01*
X019489Y001666D02*
X019409Y001666D01*
X019409Y001548D02*
X019489Y001548D01*
X019489Y001429D02*
X019409Y001429D01*
X019108Y001429D02*
X018790Y001429D01*
X018894Y001548D02*
X019004Y001548D01*
X018489Y001429D02*
X018409Y001429D01*
X018015Y002141D02*
X017919Y002141D01*
X017804Y002259D02*
X018129Y002259D01*
X017789Y002378D02*
X020318Y002378D01*
X020580Y002378D02*
X022069Y002378D01*
X021950Y002496D02*
X017789Y002496D01*
X017789Y002615D02*
X020058Y002615D01*
X019913Y002733D02*
X017789Y002733D01*
X017789Y002852D02*
X019794Y002852D01*
X019676Y002970D02*
X017789Y002970D01*
X017789Y003089D02*
X019061Y003089D01*
X019238Y003089D02*
X019557Y003089D01*
X019439Y003207D02*
X019407Y003207D01*
X019149Y003387D02*
X019149Y003487D01*
X018549Y004087D01*
X018549Y004737D01*
X018449Y004837D01*
X018140Y004867D02*
X017789Y004867D01*
X017789Y004986D02*
X018177Y004986D01*
X018288Y005104D02*
X017789Y005104D01*
X017789Y005223D02*
X018559Y005223D01*
X018559Y005341D02*
X017789Y005341D01*
X017789Y005460D02*
X018559Y005460D01*
X018559Y005578D02*
X017789Y005578D01*
X017771Y005697D02*
X018449Y005697D01*
X018331Y005815D02*
X017701Y005815D01*
X017583Y005934D02*
X018212Y005934D01*
X018094Y006052D02*
X017464Y006052D01*
X017849Y006637D02*
X017849Y007387D01*
X018039Y007577D01*
X018416Y007577D01*
X018416Y007892D02*
X018894Y007892D01*
X019099Y007687D01*
X019099Y007437D01*
X019408Y007428D02*
X019461Y007428D01*
X019574Y007475D01*
X019661Y007562D01*
X019708Y007675D01*
X019708Y007798D01*
X019661Y007911D01*
X019574Y007998D01*
X019461Y008045D01*
X019430Y008045D01*
X019114Y008361D01*
X019130Y008378D01*
X019161Y008378D01*
X019234Y008408D01*
X019261Y008344D01*
X020009Y007596D01*
X020009Y007069D01*
X020026Y007028D01*
X019896Y007028D01*
X019581Y007028D01*
X019266Y007028D01*
X018951Y007028D01*
X018846Y006923D01*
X018846Y006329D01*
X018656Y006519D01*
X018656Y006983D01*
X018785Y006983D01*
X018891Y007089D01*
X018891Y007208D01*
X018924Y007175D01*
X019038Y007128D01*
X019161Y007128D01*
X019274Y007175D01*
X019361Y007262D01*
X019408Y007375D01*
X019408Y007428D01*
X019400Y007356D02*
X020009Y007356D01*
X020009Y007238D02*
X019337Y007238D01*
X019574Y007475D02*
X020009Y007475D01*
X020009Y007594D02*
X019674Y007594D01*
X019708Y007712D02*
X019893Y007712D01*
X019774Y007831D02*
X019694Y007831D01*
X019656Y007949D02*
X019623Y007949D01*
X019537Y008068D02*
X019407Y008068D01*
X019419Y008186D02*
X019289Y008186D01*
X019300Y008305D02*
X019170Y008305D01*
X018929Y008207D02*
X019399Y007737D01*
X018929Y008207D02*
X018416Y008207D01*
X018416Y008522D02*
X018084Y008522D01*
X017849Y008287D01*
X017849Y007787D01*
X017599Y007537D01*
X018416Y007262D02*
X018416Y006420D01*
X019049Y005787D01*
X019049Y004287D01*
X020249Y003087D01*
X022699Y003087D01*
X023449Y002337D01*
X023449Y001837D01*
X023079Y001429D02*
X022820Y001429D01*
X022925Y001548D02*
X022973Y001548D01*
X023281Y001311D02*
X022617Y001311D01*
X023617Y001311D02*
X024281Y001311D01*
X024079Y001429D02*
X023820Y001429D01*
X023925Y001548D02*
X023973Y001548D01*
X024449Y001837D02*
X024449Y002337D01*
X023449Y003337D01*
X020349Y003337D01*
X019299Y004387D01*
X019299Y005887D01*
X019124Y006061D01*
X019124Y006553D01*
X018846Y006527D02*
X018656Y006527D01*
X018656Y006645D02*
X018846Y006645D01*
X018846Y006764D02*
X018656Y006764D01*
X018656Y006882D02*
X018846Y006882D01*
X018803Y007001D02*
X018924Y007001D01*
X018891Y007119D02*
X020009Y007119D01*
X020349Y007137D02*
X020384Y007101D01*
X020384Y006553D01*
X020384Y006122D01*
X020349Y006087D01*
X020349Y004987D01*
X020499Y004837D01*
X020825Y004837D01*
X020589Y005341D02*
X029219Y005341D01*
X029219Y005223D02*
X021961Y005223D01*
X021989Y005104D02*
X029219Y005104D01*
X029219Y004986D02*
X021989Y004986D01*
X021989Y004748D02*
X029219Y004748D01*
X029219Y004630D02*
X028650Y004630D01*
X028920Y004511D02*
X029219Y004511D01*
X029219Y004393D02*
X029038Y004393D01*
X029144Y004274D02*
X029219Y004274D01*
X029219Y004156D02*
X029194Y004156D01*
X029212Y003563D02*
X029219Y003563D01*
X029219Y003444D02*
X029163Y003444D01*
X029219Y003326D02*
X029084Y003326D01*
X028965Y003207D02*
X029219Y003207D01*
X029219Y003089D02*
X028760Y003089D01*
X029021Y002733D02*
X027392Y002733D01*
X027510Y002615D02*
X028902Y002615D01*
X028784Y002496D02*
X027629Y002496D01*
X027689Y002378D02*
X028665Y002378D01*
X028546Y002259D02*
X027804Y002259D01*
X027919Y002141D02*
X028428Y002141D01*
X028309Y002022D02*
X027968Y002022D01*
X027999Y001903D02*
X028219Y001903D01*
X028219Y001785D02*
X027999Y001785D01*
X027974Y001666D02*
X028219Y001666D01*
X028219Y001548D02*
X027925Y001548D01*
X027820Y001429D02*
X028219Y001429D01*
X028219Y001311D02*
X027617Y001311D01*
X027281Y001311D02*
X026617Y001311D01*
X026820Y001429D02*
X027079Y001429D01*
X026973Y001548D02*
X026925Y001548D01*
X026449Y001837D02*
X026449Y002337D01*
X024949Y003837D01*
X020549Y003837D01*
X019799Y004587D01*
X019799Y006087D01*
X019754Y006131D01*
X019754Y006553D01*
X019439Y006553D02*
X019439Y006096D01*
X019549Y005987D01*
X019549Y004487D01*
X020449Y003587D01*
X024199Y003587D01*
X025449Y002337D01*
X025449Y001837D01*
X025079Y001429D02*
X024820Y001429D01*
X024925Y001548D02*
X024973Y001548D01*
X025281Y001311D02*
X024617Y001311D01*
X025617Y001311D02*
X026281Y001311D01*
X026079Y001429D02*
X025820Y001429D01*
X025925Y001548D02*
X025973Y001548D01*
X027449Y001837D02*
X027449Y002337D01*
X025699Y004087D01*
X020649Y004087D01*
X020069Y004666D01*
X020069Y006553D01*
X020699Y006553D02*
X020699Y007008D01*
X020664Y007008D01*
X020689Y007069D01*
X020689Y007568D01*
X020788Y007528D01*
X020840Y007528D01*
X020840Y007475D01*
X020887Y007362D01*
X020974Y007275D01*
X021088Y007228D01*
X021140Y007228D01*
X021140Y007175D01*
X021187Y007062D01*
X021221Y007028D01*
X021156Y007028D01*
X020841Y007028D01*
X020821Y007008D01*
X020819Y007008D01*
X020699Y007008D01*
X020699Y006553D01*
X020699Y006553D01*
X020699Y006527D02*
X020699Y006527D01*
X020699Y006645D02*
X020699Y006645D01*
X020699Y006764D02*
X020699Y006764D01*
X020699Y006882D02*
X020699Y006882D01*
X020699Y007001D02*
X020699Y007001D01*
X020689Y007119D02*
X021163Y007119D01*
X021063Y007238D02*
X020689Y007238D01*
X020689Y007356D02*
X020892Y007356D01*
X020840Y007475D02*
X020689Y007475D01*
X020849Y007837D02*
X021649Y007837D01*
X022274Y007212D01*
X022274Y006553D01*
X022552Y006527D02*
X023059Y006527D01*
X023059Y006645D02*
X022552Y006645D01*
X022552Y006764D02*
X023059Y006764D01*
X023023Y006882D02*
X022552Y006882D01*
X022514Y007001D02*
X022595Y007001D01*
X022574Y007262D02*
X021699Y008137D01*
X020549Y008137D01*
X020249Y008437D02*
X021749Y008437D01*
X022609Y007577D01*
X022983Y007577D01*
X023359Y007577D01*
X023549Y007387D01*
X023549Y006387D01*
X023849Y006087D01*
X027649Y006087D01*
X027999Y006437D01*
X027999Y010337D01*
X028239Y010347D02*
X028280Y010307D01*
X028459Y010307D01*
X028459Y010796D01*
X028539Y010796D01*
X028539Y010366D01*
X028239Y010066D01*
X028239Y010347D01*
X028239Y010320D02*
X028266Y010320D01*
X028239Y010201D02*
X028375Y010201D01*
X028459Y010320D02*
X028493Y010320D01*
X028459Y010439D02*
X028539Y010439D01*
X028539Y010557D02*
X028459Y010557D01*
X028459Y010676D02*
X028539Y010676D01*
X028539Y010794D02*
X028459Y010794D01*
X029099Y010587D02*
X029099Y011437D01*
X028699Y011837D01*
X028499Y011837D01*
X029049Y011861D02*
X029219Y011861D01*
X029219Y011743D02*
X029133Y011743D01*
X029049Y011980D02*
X029219Y011980D01*
X029219Y012098D02*
X029015Y012098D01*
X028897Y012217D02*
X029219Y012217D01*
X029219Y012335D02*
X028778Y012335D01*
X028894Y012454D02*
X029219Y012454D01*
X029219Y012572D02*
X029013Y012572D01*
X029049Y012691D02*
X029219Y012691D01*
X029219Y012809D02*
X029049Y012809D01*
X029049Y012928D02*
X029219Y012928D01*
X029219Y013046D02*
X029049Y013046D01*
X028948Y013165D02*
X029219Y013165D01*
X029219Y013284D02*
X028830Y013284D01*
X029219Y013402D02*
X028273Y013402D01*
X028154Y013521D02*
X029219Y013521D01*
X029219Y013639D02*
X028036Y013639D01*
X027917Y013758D02*
X029219Y013758D01*
X029219Y013876D02*
X027799Y013876D01*
X027680Y013995D02*
X029219Y013995D01*
X029219Y014113D02*
X028820Y014113D01*
X028990Y014232D02*
X029219Y014232D01*
X029219Y014350D02*
X029108Y014350D01*
X029174Y014469D02*
X029219Y014469D01*
X029183Y015180D02*
X029219Y015180D01*
X029219Y015299D02*
X029132Y015299D01*
X029219Y015417D02*
X029014Y015417D01*
X028877Y015536D02*
X029219Y015536D01*
X029206Y015654D02*
X025674Y015654D01*
X025674Y015536D02*
X028021Y015536D01*
X027885Y015417D02*
X025977Y015417D01*
X026094Y015299D02*
X027766Y015299D01*
X027715Y015180D02*
X026655Y015180D01*
X026655Y015062D02*
X027666Y015062D01*
X027639Y014943D02*
X026732Y014943D01*
X026850Y014825D02*
X027639Y014825D01*
X027639Y014706D02*
X026969Y014706D01*
X027087Y014588D02*
X027676Y014588D01*
X027725Y014469D02*
X027206Y014469D01*
X027325Y014350D02*
X027790Y014350D01*
X027908Y014232D02*
X027443Y014232D01*
X027562Y014113D02*
X028079Y014113D01*
X027357Y013639D02*
X025674Y013639D01*
X025674Y013521D02*
X027476Y013521D01*
X027594Y013402D02*
X025674Y013402D01*
X025674Y013284D02*
X027168Y013284D01*
X027050Y013165D02*
X025674Y013165D01*
X025671Y013046D02*
X026949Y013046D01*
X026949Y012928D02*
X025674Y012928D01*
X025674Y012809D02*
X026949Y012809D01*
X026949Y012691D02*
X025674Y012691D01*
X025674Y012572D02*
X026986Y012572D01*
X027104Y012454D02*
X025674Y012454D01*
X025628Y012335D02*
X027220Y012335D01*
X027101Y012217D02*
X024909Y012217D01*
X024800Y012098D02*
X026983Y012098D01*
X026949Y011980D02*
X024682Y011980D01*
X024563Y011861D02*
X026949Y011861D01*
X026866Y011743D02*
X026395Y011743D01*
X026454Y011624D02*
X026747Y011624D01*
X026668Y011505D02*
X026454Y011505D01*
X026659Y011387D02*
X026059Y011387D01*
X026059Y011505D02*
X025939Y011505D01*
X025939Y011387D02*
X025357Y011387D01*
X025402Y011268D02*
X025544Y011268D01*
X025544Y011150D02*
X025402Y011150D01*
X025412Y010874D02*
X025699Y010587D01*
X025973Y010587D01*
X025999Y010613D01*
X025524Y010422D02*
X025524Y010282D01*
X025629Y010177D01*
X025524Y010320D02*
X025316Y010320D01*
X025296Y010300D02*
X025402Y010406D01*
X025402Y010545D01*
X025496Y010451D01*
X025524Y010422D01*
X025508Y010439D02*
X025402Y010439D01*
X025296Y010300D02*
X024989Y010300D01*
X024989Y010289D01*
X024953Y010201D01*
X024835Y010083D02*
X027063Y010083D01*
X026945Y010201D02*
X026394Y010201D01*
X026474Y010320D02*
X026826Y010320D01*
X026708Y010439D02*
X026474Y010439D01*
X026474Y010557D02*
X026659Y010557D01*
X026659Y010676D02*
X026474Y010676D01*
X026474Y010794D02*
X026659Y010794D01*
X026659Y010913D02*
X026474Y010913D01*
X026437Y011031D02*
X026659Y011031D01*
X026659Y011150D02*
X026454Y011150D01*
X026454Y011268D02*
X026659Y011268D01*
X026899Y011437D02*
X026899Y010587D01*
X027749Y009737D01*
X027749Y006537D01*
X027549Y006337D01*
X023999Y006337D01*
X023799Y006537D01*
X023799Y007537D01*
X023444Y007892D01*
X022983Y007892D01*
X022644Y007892D01*
X021799Y008737D01*
X019949Y008737D01*
X020326Y009490D02*
X020359Y009490D01*
X021039Y009490D02*
X022507Y009490D01*
X022507Y009372D02*
X022145Y009372D01*
X022142Y009375D02*
X022017Y009426D01*
X021039Y009426D01*
X021039Y010604D01*
X021022Y010645D01*
X021187Y010645D01*
X021502Y010645D01*
X021817Y010645D01*
X022132Y010645D01*
X022447Y010645D01*
X022552Y010750D01*
X022552Y010880D01*
X022685Y010880D01*
X022780Y010880D01*
X022869Y010917D01*
X023009Y011057D01*
X023009Y010986D01*
X022779Y010756D01*
X022752Y010690D01*
X022613Y010690D01*
X022507Y010584D01*
X022507Y010238D01*
X022507Y009923D01*
X022507Y009608D01*
X022507Y009293D01*
X022507Y009009D01*
X022237Y009279D01*
X022142Y009375D01*
X022237Y009279D02*
X022237Y009279D01*
X022263Y009253D02*
X022507Y009253D01*
X022507Y009135D02*
X022382Y009135D01*
X022500Y009016D02*
X022507Y009016D01*
X022399Y008637D02*
X022514Y008522D01*
X022983Y008522D01*
X023764Y008522D01*
X024299Y007987D01*
X024323Y007987D01*
X024449Y007861D01*
X024925Y007861D01*
X025149Y007637D01*
X025018Y007356D02*
X024904Y007356D01*
X024904Y007238D02*
X027509Y007238D01*
X027509Y007356D02*
X025280Y007356D01*
X025417Y007475D02*
X027509Y007475D01*
X027509Y007594D02*
X025458Y007594D01*
X025452Y007712D02*
X027509Y007712D01*
X027509Y007831D02*
X025392Y007831D01*
X025176Y007949D02*
X027509Y007949D01*
X027509Y008068D02*
X025052Y008068D01*
X024924Y008186D02*
X027509Y008186D01*
X027509Y008305D02*
X024320Y008305D01*
X024202Y008423D02*
X025615Y008423D01*
X025544Y008542D02*
X024083Y008542D01*
X023965Y008660D02*
X025544Y008660D01*
X025350Y008779D02*
X025939Y008779D01*
X025939Y008660D02*
X026059Y008660D01*
X026059Y008542D02*
X025939Y008542D01*
X025939Y008423D02*
X026059Y008423D01*
X026383Y008423D02*
X027509Y008423D01*
X027509Y008542D02*
X026454Y008542D01*
X026454Y008660D02*
X027509Y008660D01*
X027509Y008779D02*
X026059Y008779D01*
X026454Y008897D02*
X027509Y008897D01*
X027509Y009016D02*
X026454Y009016D01*
X026441Y009135D02*
X027509Y009135D01*
X027509Y009253D02*
X026474Y009253D01*
X026474Y009372D02*
X027509Y009372D01*
X027509Y009490D02*
X026474Y009490D01*
X026474Y009609D02*
X027509Y009609D01*
X027419Y009727D02*
X026474Y009727D01*
X026474Y009846D02*
X027300Y009846D01*
X027182Y009964D02*
X026401Y009964D01*
X025999Y009561D02*
X025973Y009587D01*
X025699Y009587D01*
X025412Y009299D01*
X024749Y009299D01*
X024712Y009337D01*
X023999Y009337D01*
X023814Y009151D01*
X022983Y009151D01*
X023438Y008897D02*
X024097Y008897D01*
X024097Y009016D02*
X024018Y009016D01*
X024149Y008779D02*
X023438Y008779D01*
X023579Y008207D02*
X022983Y008207D01*
X023579Y008207D02*
X023749Y008037D01*
X022983Y007262D02*
X022574Y007262D01*
X022983Y007262D02*
X023299Y006945D01*
X023299Y006287D01*
X023749Y005837D01*
X027749Y005837D01*
X028249Y006337D01*
X028249Y009737D01*
X029099Y010587D01*
X029172Y010320D02*
X029219Y010320D01*
X029219Y010201D02*
X029053Y010201D01*
X028935Y010083D02*
X029219Y010083D01*
X029219Y009964D02*
X028816Y009964D01*
X028698Y009846D02*
X029219Y009846D01*
X029219Y009727D02*
X028579Y009727D01*
X028489Y009609D02*
X029219Y009609D01*
X029219Y009490D02*
X028489Y009490D01*
X028489Y009372D02*
X029219Y009372D01*
X029219Y009253D02*
X028489Y009253D01*
X028489Y009135D02*
X029219Y009135D01*
X029219Y009016D02*
X028489Y009016D01*
X028489Y008897D02*
X029219Y008897D01*
X029219Y008779D02*
X028489Y008779D01*
X028489Y008660D02*
X029219Y008660D01*
X029219Y008542D02*
X028489Y008542D01*
X028489Y008423D02*
X029219Y008423D01*
X029219Y008305D02*
X028489Y008305D01*
X028489Y008186D02*
X029219Y008186D01*
X029219Y008068D02*
X028489Y008068D01*
X028489Y007949D02*
X029219Y007949D01*
X029219Y007831D02*
X028489Y007831D01*
X028489Y007712D02*
X029219Y007712D01*
X029219Y007594D02*
X028489Y007594D01*
X028489Y007475D02*
X029219Y007475D01*
X029219Y007356D02*
X028489Y007356D01*
X028489Y007238D02*
X029219Y007238D01*
X029219Y007119D02*
X028489Y007119D01*
X028489Y007001D02*
X029219Y007001D01*
X029219Y006882D02*
X028489Y006882D01*
X028489Y006764D02*
X029219Y006764D01*
X029219Y006645D02*
X028489Y006645D01*
X028489Y006527D02*
X029219Y006527D01*
X029219Y006408D02*
X028489Y006408D01*
X028489Y006290D02*
X029219Y006290D01*
X029219Y006171D02*
X028423Y006171D01*
X028304Y006052D02*
X029219Y006052D01*
X029219Y005934D02*
X028186Y005934D01*
X028067Y005815D02*
X029219Y005815D01*
X029219Y005697D02*
X027949Y005697D01*
X027509Y006645D02*
X024039Y006645D01*
X024389Y006764D02*
X024509Y006764D01*
X024509Y006882D02*
X024389Y006882D01*
X024389Y007001D02*
X024509Y007001D01*
X024509Y007119D02*
X027509Y007119D01*
X027509Y007001D02*
X024904Y007001D01*
X024904Y006882D02*
X027509Y006882D01*
X027509Y006764D02*
X024875Y006764D01*
X024869Y007475D02*
X024882Y007475D01*
X025402Y008897D02*
X025544Y008897D01*
X025544Y009016D02*
X025402Y009016D01*
X025402Y009727D02*
X025501Y009727D01*
X025524Y009846D02*
X025323Y009846D01*
X025597Y009964D02*
X024716Y009964D01*
X024499Y010087D02*
X024749Y010337D01*
X024749Y010874D01*
X025412Y010874D01*
X025544Y011505D02*
X024207Y011505D01*
X024141Y011387D02*
X024089Y011387D01*
X024089Y011268D02*
X024097Y011268D01*
X024089Y011150D02*
X024097Y011150D01*
X024089Y011031D02*
X024097Y011031D01*
X024089Y010913D02*
X024097Y010913D01*
X024089Y010794D02*
X024097Y010794D01*
X024089Y010676D02*
X024097Y010676D01*
X024089Y010557D02*
X024097Y010557D01*
X024089Y010439D02*
X024097Y010439D01*
X024089Y010320D02*
X024182Y010320D01*
X024249Y010087D02*
X024499Y010087D01*
X024249Y010087D02*
X023629Y009466D01*
X022983Y009466D01*
X022983Y009781D02*
X023494Y009781D01*
X023849Y010137D01*
X023849Y011487D01*
X024699Y012337D01*
X024699Y012637D01*
X024773Y012711D01*
X024773Y012713D01*
X024699Y012787D01*
X024699Y014337D01*
X023849Y015187D01*
X023849Y018687D01*
X024349Y019187D01*
X026299Y019187D01*
X027449Y020337D01*
X027449Y020837D01*
X027999Y020870D02*
X028219Y020870D01*
X028219Y020752D02*
X027999Y020752D01*
X027999Y020633D02*
X028219Y020633D01*
X028219Y020515D02*
X027999Y020515D01*
X027999Y020396D02*
X028219Y020396D01*
X028219Y020278D02*
X027684Y020278D01*
X027611Y020159D02*
X028219Y020159D01*
X028219Y020041D02*
X027493Y020041D01*
X027374Y019922D02*
X028219Y019922D01*
X028219Y019803D02*
X027255Y019803D01*
X027137Y019685D02*
X028219Y019685D01*
X028219Y019566D02*
X027018Y019566D01*
X026900Y019448D02*
X028219Y019448D01*
X028219Y019329D02*
X026781Y019329D01*
X026663Y019211D02*
X028219Y019211D01*
X028219Y019092D02*
X026544Y019092D01*
X026412Y018974D02*
X028219Y018974D01*
X028219Y018855D02*
X024357Y018855D01*
X024239Y018737D02*
X028219Y018737D01*
X028219Y018618D02*
X024120Y018618D01*
X024089Y018499D02*
X028219Y018499D01*
X028219Y018381D02*
X024089Y018381D01*
X024089Y018262D02*
X028219Y018262D01*
X028219Y018144D02*
X024089Y018144D01*
X024089Y018025D02*
X028219Y018025D01*
X028219Y017907D02*
X024089Y017907D01*
X024089Y017788D02*
X028219Y017788D01*
X028219Y017670D02*
X024089Y017670D01*
X024089Y017551D02*
X028219Y017551D01*
X028219Y017433D02*
X024089Y017433D01*
X024089Y017314D02*
X028219Y017314D01*
X028219Y017196D02*
X024089Y017196D01*
X024089Y017077D02*
X028219Y017077D01*
X028219Y016958D02*
X024089Y016958D01*
X024089Y016840D02*
X025016Y016840D01*
X024921Y016721D02*
X024089Y016721D01*
X024089Y016603D02*
X024890Y016603D01*
X024907Y016484D02*
X024089Y016484D01*
X024089Y016366D02*
X024799Y016366D01*
X024724Y016247D02*
X024089Y016247D01*
X024089Y016129D02*
X024724Y016129D01*
X024724Y016010D02*
X024089Y016010D01*
X024089Y015892D02*
X024724Y015892D01*
X024724Y015773D02*
X024089Y015773D01*
X024089Y015654D02*
X024724Y015654D01*
X024724Y015536D02*
X024089Y015536D01*
X024089Y015417D02*
X024724Y015417D01*
X024724Y015299D02*
X024089Y015299D01*
X024195Y015180D02*
X024724Y015180D01*
X024724Y015062D02*
X024313Y015062D01*
X024432Y014943D02*
X024724Y014943D01*
X024781Y014825D02*
X024550Y014825D01*
X024669Y014706D02*
X025744Y014706D01*
X025744Y014588D02*
X024787Y014588D01*
X024904Y014469D02*
X025763Y014469D01*
X025744Y014825D02*
X025617Y014825D01*
X025674Y014943D02*
X025744Y014943D01*
X025845Y015213D02*
X026199Y014839D01*
X026477Y014858D01*
X028499Y012837D01*
X027999Y012337D02*
X027499Y012837D01*
X027238Y013758D02*
X025674Y013758D01*
X025589Y013876D02*
X027120Y013876D01*
X027001Y013995D02*
X025495Y013995D01*
X025508Y014113D02*
X026883Y014113D01*
X026764Y014232D02*
X025473Y014232D01*
X025369Y014350D02*
X026646Y014350D01*
X025845Y015213D02*
X025199Y015213D01*
X025998Y015773D02*
X029087Y015773D01*
X028969Y015892D02*
X026562Y015892D01*
X026655Y016010D02*
X028850Y016010D01*
X028732Y016129D02*
X026655Y016129D01*
X026655Y016247D02*
X028613Y016247D01*
X028495Y016366D02*
X026655Y016366D01*
X026655Y016484D02*
X028376Y016484D01*
X028354Y016507D02*
X028354Y016507D01*
X028258Y016603D02*
X026655Y016603D01*
X026618Y016721D02*
X028219Y016721D01*
X028219Y016840D02*
X025383Y016840D01*
X025478Y016721D02*
X025780Y016721D01*
X025744Y016603D02*
X025508Y016603D01*
X025491Y016484D02*
X025744Y016484D01*
X025744Y016366D02*
X025600Y016366D01*
X025674Y016247D02*
X025744Y016247D01*
X025845Y015961D02*
X026199Y016335D01*
X025845Y015961D02*
X025199Y015961D01*
X025199Y016587D01*
X025029Y014350D02*
X024939Y014350D01*
X025199Y014087D02*
X025199Y013461D01*
X025199Y012713D02*
X024773Y012713D01*
X024699Y012787D02*
X024699Y012637D01*
X024199Y012713D02*
X023623Y012713D01*
X023623Y012711D01*
X023549Y012637D01*
X023549Y012787D01*
X023623Y012713D01*
X023549Y012787D02*
X023549Y018837D01*
X024199Y019487D01*
X025599Y019487D01*
X026449Y020337D01*
X026449Y020837D01*
X026061Y021226D02*
X025837Y021226D01*
X025932Y021107D02*
X025966Y021107D01*
X026238Y021345D02*
X025660Y021345D01*
X025238Y021345D02*
X024660Y021345D01*
X024837Y021226D02*
X025061Y021226D01*
X024966Y021107D02*
X024932Y021107D01*
X024449Y020837D02*
X024449Y020387D01*
X024149Y020087D01*
X023899Y020087D01*
X022949Y019137D01*
X022949Y011337D01*
X022733Y011120D01*
X022274Y011120D01*
X021959Y011120D02*
X021959Y011496D01*
X022649Y012187D01*
X022649Y019287D01*
X023449Y020087D01*
X023449Y020837D01*
X023061Y021226D02*
X022837Y021226D01*
X022932Y021107D02*
X022966Y021107D01*
X023238Y021345D02*
X022660Y021345D01*
X022238Y021345D02*
X021660Y021345D01*
X021837Y021226D02*
X022061Y021226D01*
X021966Y021107D02*
X021932Y021107D01*
X021449Y020837D02*
X021449Y019087D01*
X022049Y018487D01*
X022049Y012387D01*
X021329Y011666D01*
X021329Y011120D01*
X021014Y011120D02*
X021014Y011751D01*
X021749Y012487D01*
X021749Y018387D01*
X020449Y019687D01*
X020449Y020837D01*
X019938Y020633D02*
X019399Y020633D01*
X019399Y020515D02*
X019993Y020515D01*
X020112Y020396D02*
X019399Y020396D01*
X019247Y020278D02*
X020209Y020278D01*
X020209Y020159D02*
X019916Y020159D01*
X020034Y020041D02*
X020209Y020041D01*
X020209Y019922D02*
X020153Y019922D01*
X019699Y020037D02*
X019149Y020037D01*
X018849Y020337D01*
X018849Y020837D01*
X019399Y020870D02*
X019899Y020870D01*
X019899Y020752D02*
X019399Y020752D01*
X019399Y020989D02*
X019917Y020989D01*
X019966Y021107D02*
X019399Y021107D01*
X019399Y021226D02*
X020061Y021226D01*
X020238Y021345D02*
X019336Y021345D01*
X018363Y021345D02*
X018060Y021345D01*
X018237Y021226D02*
X018299Y021226D01*
X017849Y020837D02*
X017849Y020637D01*
X018749Y019737D01*
X019599Y019737D01*
X021149Y018187D01*
X021149Y013937D01*
X020849Y013587D02*
X020849Y018087D01*
X019499Y019437D01*
X018649Y019437D01*
X017999Y020087D01*
X017099Y020087D01*
X016849Y020337D01*
X016849Y020837D01*
X016461Y021226D02*
X016237Y021226D01*
X016332Y021107D02*
X016366Y021107D01*
X016638Y021345D02*
X016060Y021345D01*
X015638Y021345D02*
X015060Y021345D01*
X015237Y021226D02*
X015461Y021226D01*
X015366Y021107D02*
X015332Y021107D01*
X014849Y020837D02*
X014849Y020337D01*
X015699Y019487D01*
X017799Y019487D01*
X018449Y018837D01*
X019299Y018837D01*
X020249Y017887D01*
X020249Y013587D01*
X020502Y013402D02*
X020597Y013402D01*
X021102Y013402D02*
X021197Y013402D01*
X021449Y013587D02*
X021449Y018287D01*
X019699Y020037D01*
X019399Y019137D02*
X018549Y019137D01*
X017899Y019787D01*
X016399Y019787D01*
X015849Y020337D01*
X015849Y020837D01*
X014638Y021345D02*
X014060Y021345D01*
X014237Y021226D02*
X014461Y021226D01*
X014366Y021107D02*
X014332Y021107D01*
X013598Y019448D02*
X012775Y019448D01*
X013696Y019329D02*
X013717Y019329D01*
X013814Y019211D02*
X013835Y019211D01*
X013933Y019092D02*
X013954Y019092D01*
X014051Y018974D02*
X014073Y018974D01*
X014170Y018855D02*
X014191Y018855D01*
X014288Y018737D02*
X014310Y018737D01*
X014407Y018618D02*
X014428Y018618D01*
X014526Y018499D02*
X014547Y018499D01*
X014644Y018381D02*
X014668Y018381D01*
X014202Y018144D02*
X011839Y018144D01*
X011839Y018025D02*
X014321Y018025D01*
X014439Y017907D02*
X011868Y017907D01*
X011827Y018262D02*
X014084Y018262D01*
X013965Y018381D02*
X011744Y018381D01*
X011626Y018499D02*
X013847Y018499D01*
X013728Y018618D02*
X011507Y018618D01*
X011388Y018737D02*
X013610Y018737D01*
X013491Y018855D02*
X011270Y018855D01*
X010739Y018357D02*
X010650Y018447D01*
X010328Y018447D01*
X010403Y018372D01*
X010413Y018348D01*
X010429Y018332D01*
X010429Y018316D01*
X010480Y018366D01*
X010659Y018366D01*
X010659Y017877D01*
X010739Y017877D01*
X010739Y018357D01*
X010715Y018381D02*
X010394Y018381D01*
X010199Y018237D02*
X009999Y018437D01*
X009299Y018437D01*
X008699Y017837D01*
X008347Y018262D02*
X002679Y018262D01*
X002679Y018144D02*
X008229Y018144D01*
X008466Y018381D02*
X007843Y018381D01*
X007909Y018499D02*
X007947Y018499D01*
X009199Y017337D02*
X009699Y017837D01*
X010659Y017907D02*
X010739Y017907D01*
X010739Y018025D02*
X010659Y018025D01*
X010659Y018144D02*
X010739Y018144D01*
X010739Y018262D02*
X010659Y018262D01*
X011154Y017542D02*
X011446Y017251D01*
X011513Y017183D01*
X011601Y017147D01*
X012550Y017147D01*
X012565Y017132D01*
X012474Y017041D01*
X012474Y016380D01*
X012517Y016337D01*
X012474Y016293D01*
X012474Y015632D01*
X012565Y015541D01*
X012550Y015526D01*
X011701Y015526D01*
X011613Y015490D01*
X011546Y015422D01*
X011406Y015282D01*
X011406Y015282D01*
X011338Y015215D01*
X011335Y015206D01*
X011109Y015206D01*
X011103Y015222D01*
X011035Y015290D01*
X010835Y015490D01*
X010747Y015526D01*
X010651Y015526D01*
X010399Y015526D01*
X009939Y015986D01*
X009939Y016299D01*
X009959Y016319D01*
X009959Y016284D01*
X009959Y016189D01*
X009996Y016101D01*
X010290Y015806D01*
X010290Y015775D01*
X010337Y015662D01*
X010424Y015575D01*
X010538Y015528D01*
X010661Y015528D01*
X010774Y015575D01*
X010796Y015597D01*
X011509Y015597D01*
X011579Y015527D01*
X012319Y015527D01*
X012424Y015632D01*
X012424Y016293D01*
X012381Y016337D01*
X012424Y016380D01*
X012424Y017041D01*
X012319Y017146D01*
X011579Y017146D01*
X011509Y017076D01*
X011237Y017076D01*
X010963Y017351D01*
X011154Y017542D01*
X011045Y017433D02*
X011264Y017433D01*
X011382Y017314D02*
X010999Y017314D01*
X011118Y017196D02*
X011501Y017196D01*
X011510Y017077D02*
X011236Y017077D01*
X011237Y016597D02*
X011474Y016597D01*
X011474Y016380D01*
X011517Y016337D01*
X011474Y016293D01*
X011474Y016076D01*
X010796Y016076D01*
X010774Y016098D01*
X010661Y016145D01*
X010630Y016145D01*
X010488Y016287D01*
X010927Y016287D01*
X011237Y016597D01*
X011125Y016484D02*
X011474Y016484D01*
X011488Y016366D02*
X011006Y016366D01*
X010701Y016129D02*
X011474Y016129D01*
X011474Y016247D02*
X010528Y016247D01*
X010199Y016237D02*
X010199Y016437D01*
X010199Y016237D02*
X010599Y015837D01*
X011823Y015837D01*
X011949Y015963D01*
X012424Y016010D02*
X012474Y016010D01*
X012474Y015892D02*
X012424Y015892D01*
X012424Y015773D02*
X012474Y015773D01*
X012474Y015654D02*
X012424Y015654D01*
X012328Y015536D02*
X012559Y015536D01*
X012649Y015287D02*
X012949Y015587D01*
X012949Y015963D01*
X013949Y015963D01*
X013474Y016247D02*
X013424Y016247D01*
X013410Y016366D02*
X013520Y016366D01*
X013494Y016484D02*
X013424Y016484D01*
X013424Y016603D02*
X013494Y016603D01*
X013494Y016840D02*
X013424Y016840D01*
X013424Y016958D02*
X013494Y016958D01*
X012510Y017077D02*
X012388Y017077D01*
X012424Y016958D02*
X012474Y016958D01*
X012474Y016840D02*
X012424Y016840D01*
X012424Y016721D02*
X012474Y016721D01*
X012474Y016603D02*
X012424Y016603D01*
X012424Y016484D02*
X012474Y016484D01*
X012488Y016366D02*
X012410Y016366D01*
X012424Y016247D02*
X012474Y016247D01*
X012474Y016129D02*
X012424Y016129D01*
X011949Y016711D02*
X011823Y016837D01*
X010699Y016837D01*
X009959Y016247D02*
X009939Y016247D01*
X009939Y016129D02*
X009984Y016129D01*
X009939Y016010D02*
X010086Y016010D01*
X010034Y015892D02*
X010205Y015892D01*
X010152Y015773D02*
X010291Y015773D01*
X010271Y015654D02*
X010344Y015654D01*
X010389Y015536D02*
X010518Y015536D01*
X010681Y015536D02*
X011570Y015536D01*
X011546Y015422D02*
X011546Y015422D01*
X011541Y015417D02*
X010908Y015417D01*
X011026Y015299D02*
X011422Y015299D01*
X011542Y015079D02*
X011749Y015287D01*
X012649Y015287D01*
X012172Y014777D02*
X012172Y013909D01*
X012726Y013876D02*
X012959Y013876D01*
X012959Y013758D02*
X012726Y013758D01*
X012690Y013639D02*
X012959Y013639D01*
X012959Y013521D02*
X012573Y013521D01*
X012454Y013402D02*
X012959Y013402D01*
X012959Y013284D02*
X012336Y013284D01*
X012217Y013165D02*
X012647Y013165D01*
X012528Y013046D02*
X012099Y013046D01*
X011980Y012928D02*
X012410Y012928D01*
X012332Y012809D02*
X011861Y012809D01*
X011961Y012454D02*
X012309Y012454D01*
X012199Y012087D02*
X012199Y011424D01*
X012172Y011397D01*
X012487Y011397D02*
X012487Y010824D01*
X012449Y010787D01*
X012167Y010913D02*
X011415Y010913D01*
X011296Y010794D02*
X012140Y010794D01*
X012161Y010676D02*
X011756Y010676D01*
X011747Y010680D02*
X011706Y010691D01*
X011507Y010691D01*
X011507Y010196D01*
X011845Y010196D01*
X011845Y010552D01*
X011834Y010593D01*
X011813Y010630D01*
X011784Y010659D01*
X011747Y010680D01*
X011844Y010557D02*
X012242Y010557D01*
X012281Y010320D02*
X011845Y010320D01*
X011845Y010439D02*
X013459Y010439D01*
X013459Y010557D02*
X012657Y010557D01*
X012737Y010676D02*
X012779Y010676D01*
X012949Y010937D02*
X012801Y011084D01*
X012801Y011397D01*
X012939Y011397D01*
X013049Y011287D01*
X013049Y010937D01*
X013267Y011387D02*
X014297Y011387D01*
X014297Y011505D02*
X013170Y011505D01*
X013091Y011624D02*
X014297Y011624D01*
X014297Y011743D02*
X013762Y011743D01*
X013389Y011984D02*
X014664Y011984D01*
X014949Y011699D01*
X014962Y011687D01*
X015649Y011687D01*
X015973Y012011D01*
X016199Y012011D01*
X015721Y012098D02*
X015602Y012098D01*
X015602Y011980D02*
X015603Y011980D01*
X015552Y012217D02*
X015724Y012217D01*
X015724Y012335D02*
X015037Y012335D01*
X015154Y012454D02*
X018484Y012454D01*
X018509Y012572D02*
X016615Y012572D01*
X016674Y012691D02*
X018509Y012691D01*
X018509Y012809D02*
X016674Y012809D01*
X016674Y012928D02*
X018509Y012928D01*
X018509Y013046D02*
X016674Y013046D01*
X016674Y013165D02*
X018509Y013165D01*
X018509Y013284D02*
X016674Y013284D01*
X016646Y013402D02*
X018509Y013402D01*
X018509Y013521D02*
X016654Y013521D01*
X016654Y013639D02*
X018509Y013639D01*
X018509Y013758D02*
X016259Y013758D01*
X016259Y013876D02*
X016139Y013876D01*
X016139Y013770D02*
X016139Y013651D01*
X015744Y013651D01*
X015744Y013457D01*
X015697Y013476D01*
X015602Y013476D01*
X015602Y013742D01*
X015496Y013848D01*
X014402Y013848D01*
X014297Y013742D01*
X014297Y012806D01*
X014402Y012700D01*
X014709Y012700D01*
X014709Y012686D01*
X014562Y012539D01*
X013799Y012539D01*
X013799Y012614D01*
X013390Y012614D01*
X013390Y012614D01*
X013799Y012614D01*
X013799Y012724D01*
X013819Y012744D01*
X013819Y012767D01*
X014035Y012983D01*
X014103Y013051D01*
X014139Y013139D01*
X014139Y014087D01*
X014249Y014197D01*
X014489Y014197D01*
X014489Y014067D01*
X014595Y013961D01*
X015256Y013961D01*
X015313Y014019D01*
X015319Y014013D01*
X015355Y013992D01*
X015396Y013981D01*
X015613Y013981D01*
X015613Y014376D01*
X015733Y014376D01*
X015733Y013981D01*
X015744Y013981D01*
X015744Y013770D01*
X016139Y013770D01*
X016139Y013758D02*
X015586Y013758D01*
X015602Y013639D02*
X015744Y013639D01*
X015744Y013521D02*
X015602Y013521D01*
X015649Y013237D02*
X014987Y013237D01*
X014949Y013274D01*
X014949Y012587D01*
X014662Y012299D01*
X013389Y012299D01*
X013799Y012572D02*
X014596Y012572D01*
X014709Y012691D02*
X013799Y012691D01*
X013861Y012809D02*
X014297Y012809D01*
X014297Y012928D02*
X013980Y012928D01*
X014099Y013046D02*
X014297Y013046D01*
X014297Y013165D02*
X014139Y013165D01*
X014139Y013284D02*
X014297Y013284D01*
X014297Y013402D02*
X014139Y013402D01*
X014139Y013521D02*
X014297Y013521D01*
X014297Y013639D02*
X014139Y013639D01*
X014139Y013758D02*
X014312Y013758D01*
X014139Y013876D02*
X015744Y013876D01*
X015733Y013995D02*
X015613Y013995D01*
X015613Y014113D02*
X015733Y014113D01*
X015733Y014232D02*
X015613Y014232D01*
X015613Y014350D02*
X015733Y014350D01*
X015733Y014469D02*
X018509Y014469D01*
X018509Y014588D02*
X016089Y014588D01*
X016089Y014706D02*
X018509Y014706D01*
X018509Y014825D02*
X016060Y014825D01*
X015733Y014825D02*
X015613Y014825D01*
X015613Y014706D02*
X015733Y014706D01*
X015733Y014588D02*
X015613Y014588D01*
X016089Y014350D02*
X018509Y014350D01*
X018509Y014232D02*
X016089Y014232D01*
X016139Y014113D02*
X016259Y014113D01*
X016259Y013995D02*
X016139Y013995D01*
X016560Y014113D02*
X018509Y014113D01*
X018509Y013995D02*
X016652Y013995D01*
X016654Y013876D02*
X018509Y013876D01*
X018509Y014943D02*
X013929Y014943D01*
X013997Y014825D02*
X014508Y014825D01*
X014489Y014706D02*
X014008Y014706D01*
X013699Y014737D02*
X013389Y014427D01*
X013389Y014189D01*
X012959Y014232D02*
X012726Y014232D01*
X012726Y014113D02*
X012959Y014113D01*
X012959Y013995D02*
X012726Y013995D01*
X013899Y014187D02*
X013899Y013187D01*
X013642Y012929D01*
X013389Y012929D01*
X012907Y012929D01*
X012899Y012937D01*
X012799Y011937D02*
X012801Y011784D01*
X012801Y011397D01*
X013686Y011268D02*
X014297Y011268D01*
X014378Y011150D02*
X013867Y011150D01*
X013949Y010837D02*
X015199Y010837D01*
X015344Y010691D01*
X015257Y010691D01*
X015257Y010196D01*
X015141Y010196D01*
X015141Y010691D01*
X014942Y010691D01*
X014901Y010680D01*
X014865Y010659D01*
X014835Y010630D01*
X014814Y010593D01*
X014803Y010552D01*
X014803Y010196D01*
X015141Y010196D01*
X015141Y010080D01*
X014803Y010080D01*
X014803Y009737D01*
X014404Y009737D01*
X014404Y009901D01*
X014009Y009901D01*
X014009Y010020D01*
X014404Y010020D01*
X014404Y010238D01*
X014393Y010278D01*
X014372Y010315D01*
X014343Y010344D01*
X014306Y010366D01*
X014265Y010376D01*
X014009Y010376D01*
X014009Y010021D01*
X013889Y010021D01*
X013889Y010376D01*
X013699Y010376D01*
X013699Y010587D01*
X013949Y010837D01*
X013907Y010794D02*
X015241Y010794D01*
X015257Y010676D02*
X015141Y010676D01*
X015141Y010557D02*
X015257Y010557D01*
X015257Y010439D02*
X015141Y010439D01*
X015141Y010320D02*
X015257Y010320D01*
X015257Y010201D02*
X015141Y010201D01*
X015141Y010083D02*
X014404Y010083D01*
X014404Y010201D02*
X014803Y010201D01*
X014803Y010320D02*
X014367Y010320D01*
X014009Y010320D02*
X013889Y010320D01*
X013889Y010201D02*
X014009Y010201D01*
X014009Y010083D02*
X013889Y010083D01*
X014009Y009964D02*
X014803Y009964D01*
X014803Y009846D02*
X014404Y009846D01*
X014404Y009490D02*
X014814Y009490D01*
X014803Y009372D02*
X014404Y009372D01*
X014404Y009135D02*
X014803Y009135D01*
X014803Y009253D02*
X014009Y009253D01*
X014009Y009135D02*
X013889Y009135D01*
X013889Y009253D02*
X013174Y009253D01*
X013174Y009135D02*
X013494Y009135D01*
X013494Y009016D02*
X013174Y009016D01*
X013174Y008897D02*
X013504Y008897D01*
X013215Y008660D02*
X014803Y008660D01*
X014803Y008621D02*
X014814Y008580D01*
X014835Y008543D01*
X014865Y008514D01*
X014901Y008493D01*
X014942Y008482D01*
X015141Y008482D01*
X015141Y008977D01*
X014803Y008977D01*
X014803Y008621D01*
X014831Y008542D02*
X014836Y008542D01*
X014952Y008423D02*
X015759Y008423D01*
X015759Y008305D02*
X015070Y008305D01*
X015168Y008186D02*
X015759Y008186D01*
X015759Y008068D02*
X015189Y008068D01*
X015189Y007949D02*
X015759Y007949D01*
X015759Y007831D02*
X015189Y007831D01*
X015189Y007712D02*
X015759Y007712D01*
X015759Y007594D02*
X015189Y007594D01*
X015189Y007475D02*
X015759Y007475D01*
X015759Y007356D02*
X015189Y007356D01*
X015189Y007238D02*
X015759Y007238D01*
X015759Y007119D02*
X015189Y007119D01*
X015189Y007001D02*
X015759Y007001D01*
X015759Y006882D02*
X015189Y006882D01*
X015189Y006764D02*
X015759Y006764D01*
X015759Y006645D02*
X015189Y006645D01*
X015189Y006527D02*
X015759Y006527D01*
X015759Y006408D02*
X015189Y006408D01*
X015189Y006290D02*
X015759Y006290D01*
X015759Y006171D02*
X015189Y006171D01*
X015189Y006052D02*
X015759Y006052D01*
X015794Y005934D02*
X015189Y005934D01*
X015189Y005815D02*
X015889Y005815D01*
X016008Y005697D02*
X015189Y005697D01*
X015189Y005578D02*
X016127Y005578D01*
X015189Y005460D02*
X017095Y005460D01*
X017109Y005341D02*
X015189Y005341D01*
X015189Y005223D02*
X017109Y005223D01*
X017109Y005104D02*
X015189Y005104D01*
X015167Y004986D02*
X017109Y004986D01*
X017109Y004867D02*
X015069Y004867D01*
X014950Y004748D02*
X017109Y004748D01*
X017109Y004630D02*
X014827Y004630D01*
X014699Y004837D02*
X011530Y004837D01*
X011392Y004975D01*
X011267Y005026D01*
X011131Y005026D01*
X011014Y005026D01*
X011099Y005112D01*
X011099Y005741D01*
X010994Y005846D01*
X010699Y005846D01*
X010699Y005937D01*
X010940Y005937D01*
X010981Y005947D01*
X011017Y005969D01*
X011047Y005998D01*
X011068Y006035D01*
X011079Y006075D01*
X011079Y006277D01*
X010699Y006277D01*
X010699Y006396D01*
X011079Y006396D01*
X011079Y006598D01*
X011068Y006638D01*
X011047Y006675D01*
X011017Y006705D01*
X010981Y006726D01*
X010940Y006736D01*
X010699Y006736D01*
X010699Y006827D01*
X010994Y006827D01*
X011099Y006932D01*
X011099Y007561D01*
X010994Y007666D01*
X010699Y007666D01*
X010699Y008087D01*
X010949Y008337D01*
X011099Y008337D01*
X011244Y008482D01*
X011391Y008482D01*
X011391Y008977D01*
X011507Y008977D01*
X011507Y008482D01*
X011706Y008482D01*
X011747Y008493D01*
X011784Y008514D01*
X011813Y008543D01*
X011834Y008580D01*
X011845Y008621D01*
X011845Y008977D01*
X011507Y008977D01*
X011507Y009093D01*
X011845Y009093D01*
X011845Y009337D01*
X012244Y009337D01*
X012244Y009272D01*
X012639Y009272D01*
X012639Y009153D01*
X012244Y009153D01*
X012244Y008936D01*
X012255Y008895D01*
X012276Y008858D01*
X012306Y008829D01*
X012342Y008808D01*
X012383Y008797D01*
X012639Y008797D01*
X012639Y009152D01*
X012759Y009152D01*
X012759Y008797D01*
X012899Y008797D01*
X012899Y008637D01*
X013199Y008337D01*
X014699Y008337D01*
X014949Y008087D01*
X014949Y005087D01*
X014699Y004837D01*
X014730Y004867D02*
X011499Y004867D01*
X011366Y004986D02*
X014848Y004986D01*
X014949Y005104D02*
X011091Y005104D01*
X011099Y005223D02*
X014949Y005223D01*
X014949Y005341D02*
X011099Y005341D01*
X011099Y005460D02*
X014949Y005460D01*
X014949Y005578D02*
X013505Y005578D01*
X013501Y005566D02*
X013512Y005607D01*
X013512Y006277D01*
X012979Y006277D01*
X012979Y006396D01*
X013512Y006396D01*
X013512Y007066D01*
X013501Y007107D01*
X013480Y007143D01*
X013451Y007173D01*
X013414Y007194D01*
X013373Y007205D01*
X012979Y007205D01*
X012979Y006397D01*
X012859Y006397D01*
X012859Y007205D01*
X012465Y007205D01*
X012424Y007194D01*
X012388Y007173D01*
X012358Y007143D01*
X012337Y007107D01*
X012326Y007066D01*
X012326Y006396D01*
X012859Y006396D01*
X012859Y006277D01*
X012326Y006277D01*
X012326Y005607D01*
X012337Y005566D01*
X012358Y005530D01*
X012388Y005500D01*
X012424Y005479D01*
X012465Y005468D01*
X012859Y005468D01*
X012859Y006276D01*
X012979Y006276D01*
X012979Y005468D01*
X013373Y005468D01*
X013414Y005479D01*
X013451Y005500D01*
X013480Y005530D01*
X013501Y005566D01*
X013512Y005697D02*
X014949Y005697D01*
X014949Y005815D02*
X013512Y005815D01*
X013512Y005934D02*
X014949Y005934D01*
X014949Y006052D02*
X013512Y006052D01*
X013512Y006171D02*
X014949Y006171D01*
X014949Y006290D02*
X012979Y006290D01*
X012979Y006408D02*
X012859Y006408D01*
X012859Y006290D02*
X010699Y006290D01*
X010699Y005934D02*
X012326Y005934D01*
X012326Y006052D02*
X011073Y006052D01*
X011079Y006171D02*
X012326Y006171D01*
X012199Y006171D02*
X013699Y006171D01*
X013699Y006052D02*
X012199Y006052D01*
X012199Y005934D02*
X013699Y005934D01*
X013699Y005815D02*
X012199Y005815D01*
X012199Y005697D02*
X013699Y005697D01*
X013699Y005578D02*
X012199Y005578D01*
X012199Y005460D02*
X013699Y005460D01*
X013699Y005341D02*
X012199Y005341D01*
X012199Y005337D02*
X012199Y007337D01*
X013699Y007337D01*
X013699Y005337D01*
X012199Y005337D01*
X012334Y005578D02*
X011099Y005578D01*
X011099Y005697D02*
X012326Y005697D01*
X012326Y005815D02*
X011025Y005815D01*
X011079Y006408D02*
X012326Y006408D01*
X012326Y006527D02*
X011079Y006527D01*
X011064Y006645D02*
X012326Y006645D01*
X012326Y006764D02*
X010699Y006764D01*
X010459Y006764D02*
X009154Y006764D01*
X009210Y006882D02*
X009937Y006882D01*
X009879Y007001D02*
X009249Y007001D01*
X009249Y007119D02*
X009879Y007119D01*
X009879Y007356D02*
X009183Y007356D01*
X009232Y007238D02*
X010419Y007238D01*
X010419Y007356D02*
X010459Y007356D01*
X010459Y007475D02*
X010419Y007475D01*
X010419Y007594D02*
X010459Y007594D01*
X010459Y007712D02*
X009102Y007712D01*
X009188Y007831D02*
X010459Y007831D01*
X010459Y007949D02*
X009237Y007949D01*
X009249Y008068D02*
X010459Y008068D01*
X010481Y008186D02*
X009249Y008186D01*
X009204Y008305D02*
X010578Y008305D01*
X010696Y008423D02*
X009140Y008423D01*
X009022Y008542D02*
X010818Y008542D01*
X011033Y008660D02*
X008606Y008660D01*
X008487Y008779D02*
X011033Y008779D01*
X011033Y008897D02*
X010644Y008897D01*
X010654Y009016D02*
X011033Y009016D01*
X011033Y009135D02*
X010654Y009135D01*
X010654Y009372D02*
X011033Y009372D01*
X011033Y009490D02*
X010654Y009490D01*
X010653Y009609D02*
X011127Y009609D01*
X011053Y009727D02*
X010674Y009727D01*
X010674Y009846D02*
X011053Y009846D01*
X011053Y009964D02*
X010674Y009964D01*
X010674Y010083D02*
X011391Y010083D01*
X011507Y010083D02*
X012244Y010083D01*
X012244Y010201D02*
X011845Y010201D01*
X011845Y009964D02*
X012639Y009964D01*
X012639Y010083D02*
X012759Y010083D01*
X012759Y010201D02*
X012639Y010201D01*
X012639Y010320D02*
X012759Y010320D01*
X013117Y010320D02*
X013459Y010320D01*
X013459Y010201D02*
X013154Y010201D01*
X013154Y010083D02*
X013459Y010083D01*
X013459Y009964D02*
X012759Y009964D01*
X013154Y009846D02*
X013459Y009846D01*
X013459Y009727D02*
X013154Y009727D01*
X013124Y009609D02*
X013492Y009609D01*
X013494Y009490D02*
X013174Y009490D01*
X013174Y009372D02*
X013494Y009372D01*
X013889Y009016D02*
X014009Y009016D01*
X014009Y008897D02*
X013889Y008897D01*
X014394Y008897D02*
X014803Y008897D01*
X014803Y008779D02*
X013139Y008779D01*
X012899Y008779D02*
X011845Y008779D01*
X011845Y008897D02*
X012254Y008897D01*
X012244Y009016D02*
X011507Y009016D01*
X011507Y008897D02*
X011391Y008897D01*
X011391Y008779D02*
X011507Y008779D01*
X011507Y008660D02*
X011391Y008660D01*
X011391Y008542D02*
X011507Y008542D01*
X011812Y008542D02*
X012994Y008542D01*
X012899Y008660D02*
X011845Y008660D01*
X011845Y009135D02*
X012244Y009135D01*
X012639Y009253D02*
X011845Y009253D01*
X011771Y009609D02*
X012274Y009609D01*
X012244Y009727D02*
X011845Y009727D01*
X011845Y009846D02*
X012244Y009846D01*
X011507Y010201D02*
X011391Y010201D01*
X011391Y010320D02*
X011507Y010320D01*
X011507Y010439D02*
X011391Y010439D01*
X011391Y010557D02*
X011507Y010557D01*
X011507Y010676D02*
X011391Y010676D01*
X011143Y010676D02*
X010478Y010676D01*
X010439Y010557D02*
X011054Y010557D01*
X011053Y010439D02*
X010439Y010439D01*
X010645Y010320D02*
X011053Y010320D01*
X011053Y010201D02*
X010674Y010201D01*
X010199Y009961D02*
X010199Y010737D01*
X010399Y010937D01*
X011099Y010937D01*
X011227Y011064D01*
X011227Y011397D01*
X011541Y011387D02*
X011542Y011387D01*
X011541Y011505D02*
X011542Y011505D01*
X011541Y011624D02*
X011542Y011624D01*
X011541Y011743D02*
X011542Y011743D01*
X011857Y011397D02*
X011857Y012129D01*
X011799Y012187D01*
X011541Y011268D02*
X011542Y011268D01*
X011541Y011150D02*
X011542Y011150D01*
X011541Y011031D02*
X011542Y011031D01*
X010307Y011268D02*
X009239Y011268D01*
X009239Y011387D02*
X010307Y011387D01*
X010307Y011505D02*
X009239Y011505D01*
X009239Y011743D02*
X009636Y011743D01*
X009579Y011861D02*
X009239Y011861D01*
X009207Y011980D02*
X009579Y011980D01*
X009579Y012098D02*
X008591Y012098D01*
X008710Y012217D02*
X009579Y012217D01*
X009579Y012335D02*
X008829Y012335D01*
X008947Y012454D02*
X009579Y012454D01*
X009579Y012572D02*
X009066Y012572D01*
X009184Y012691D02*
X009579Y012691D01*
X009579Y012809D02*
X009303Y012809D01*
X009401Y012928D02*
X009579Y012928D01*
X009579Y013046D02*
X009439Y013046D01*
X009439Y013165D02*
X009579Y013165D01*
X009579Y013284D02*
X009439Y013284D01*
X009439Y013402D02*
X009579Y013402D01*
X009579Y013521D02*
X009439Y013521D01*
X009439Y013639D02*
X009579Y013639D01*
X009579Y013758D02*
X009439Y013758D01*
X009439Y013876D02*
X009579Y013876D01*
X009579Y013995D02*
X009439Y013995D01*
X009439Y014113D02*
X009579Y014113D01*
X009579Y014232D02*
X009439Y014232D01*
X009439Y014350D02*
X009579Y014350D01*
X009675Y014469D02*
X009439Y014469D01*
X009439Y014588D02*
X009769Y014588D01*
X009740Y014706D02*
X009439Y014706D01*
X009439Y014825D02*
X009622Y014825D01*
X009503Y014943D02*
X009439Y014943D01*
X010009Y014777D02*
X010009Y014189D01*
X010009Y014777D02*
X008699Y016087D01*
X008471Y016010D02*
X008416Y016010D01*
X008459Y016129D02*
X007689Y016129D01*
X007689Y016247D02*
X008459Y016247D01*
X008392Y016366D02*
X007643Y016366D01*
X007532Y016484D02*
X008274Y016484D01*
X008155Y016603D02*
X007414Y016603D01*
X007387Y016629D02*
X007387Y016629D01*
X007295Y016721D02*
X008149Y016721D01*
X006749Y016437D02*
X006719Y016466D01*
X005799Y016466D01*
X005799Y016151D02*
X006384Y016151D01*
X006749Y015787D01*
X006749Y014887D01*
X007049Y014587D01*
X007325Y014587D01*
X008073Y014587D02*
X008399Y014587D01*
X008599Y014387D01*
X008599Y014037D01*
X008599Y013587D02*
X008073Y013587D01*
X008509Y013284D02*
X008523Y013284D01*
X008457Y013165D02*
X008697Y013165D01*
X008675Y013284D02*
X008759Y013284D01*
X008578Y013046D02*
X006919Y013046D01*
X006904Y013062D02*
X006243Y013062D01*
X006199Y013018D01*
X006156Y013062D01*
X005495Y013062D01*
X005389Y012956D01*
X005389Y012826D01*
X005279Y012826D01*
X005279Y012897D01*
X005173Y013003D01*
X004552Y013003D01*
X004446Y012897D01*
X004446Y012276D01*
X004552Y012170D01*
X005173Y012170D01*
X005279Y012276D01*
X005279Y012347D01*
X005389Y012347D01*
X005389Y012217D01*
X005220Y012217D01*
X005279Y012335D02*
X005389Y012335D01*
X005389Y012217D02*
X005495Y012111D01*
X006156Y012111D01*
X006199Y012155D01*
X006243Y012111D01*
X006790Y012111D01*
X006790Y012062D01*
X006243Y012062D01*
X006199Y012018D01*
X006156Y012062D01*
X005495Y012062D01*
X005389Y011956D01*
X005389Y011826D01*
X005279Y011826D01*
X005279Y011897D01*
X005173Y012003D01*
X004552Y012003D01*
X004446Y011897D01*
X004446Y011276D01*
X004552Y011170D01*
X005173Y011170D01*
X005279Y011276D01*
X005279Y011347D01*
X005389Y011347D01*
X005389Y011217D01*
X005495Y011111D01*
X006156Y011111D01*
X006199Y011155D01*
X006243Y011111D01*
X006904Y011111D01*
X007009Y011217D01*
X007009Y011347D01*
X007009Y011268D02*
X007230Y011268D01*
X006942Y011150D02*
X007676Y011150D01*
X007676Y011031D02*
X004691Y011031D01*
X004752Y010913D02*
X007655Y010913D01*
X007600Y010794D02*
X004758Y010794D01*
X004717Y010676D02*
X007600Y010676D01*
X007600Y010557D02*
X006908Y010557D01*
X007009Y010439D02*
X007600Y010439D01*
X007600Y010320D02*
X007009Y010320D01*
X007009Y010201D02*
X007920Y010201D01*
X007821Y010083D02*
X007009Y010083D01*
X007009Y009964D02*
X007647Y009964D01*
X007639Y009846D02*
X007009Y009846D01*
X007009Y009727D02*
X007639Y009727D01*
X007639Y009609D02*
X006813Y009609D01*
X006975Y009490D02*
X007639Y009490D01*
X007639Y009372D02*
X007009Y009372D01*
X007009Y009253D02*
X007639Y009253D01*
X007721Y009135D02*
X007009Y009135D01*
X007009Y009016D02*
X007735Y009016D01*
X007735Y008897D02*
X007009Y008897D01*
X007009Y008779D02*
X007735Y008779D01*
X007735Y008660D02*
X006953Y008660D01*
X006813Y008542D02*
X007777Y008542D01*
X007882Y008423D02*
X006813Y008423D01*
X006813Y008305D02*
X008000Y008305D01*
X008119Y008186D02*
X006813Y008186D01*
X006813Y008068D02*
X008149Y008068D01*
X008161Y007949D02*
X007009Y007949D01*
X007009Y007831D02*
X008210Y007831D01*
X008296Y007712D02*
X007009Y007712D01*
X007009Y007594D02*
X008452Y007594D01*
X008310Y007475D02*
X007009Y007475D01*
X007009Y007356D02*
X008216Y007356D01*
X008699Y007087D02*
X007699Y007087D01*
X007199Y006587D01*
X006573Y006587D01*
X006573Y007587D01*
X006573Y009087D01*
X006573Y010087D01*
X006238Y010557D02*
X006160Y010557D01*
X005825Y010087D02*
X004863Y010087D01*
X004488Y010439D02*
X004411Y010439D01*
X004582Y010557D02*
X005490Y010557D01*
X005389Y010439D02*
X005237Y010439D01*
X005456Y011150D02*
X002679Y011150D01*
X002679Y011268D02*
X003662Y011268D01*
X003671Y011252D02*
X003701Y011222D01*
X003738Y011201D01*
X003778Y011190D01*
X003978Y011190D01*
X003978Y011528D01*
X004094Y011528D01*
X004094Y011190D01*
X004293Y011190D01*
X004334Y011201D01*
X004370Y011222D01*
X004400Y011252D01*
X004421Y011289D01*
X004432Y011329D01*
X004432Y011528D01*
X004094Y011528D01*
X004094Y011645D01*
X003978Y011645D01*
X003978Y011983D01*
X003778Y011983D01*
X003738Y011972D01*
X003701Y011951D01*
X003671Y011921D01*
X003650Y011884D01*
X003640Y011844D01*
X003640Y011645D01*
X003977Y011645D01*
X003977Y011528D01*
X003640Y011528D01*
X003640Y011329D01*
X003650Y011289D01*
X003671Y011252D01*
X003640Y011387D02*
X002679Y011387D01*
X002679Y011505D02*
X003640Y011505D01*
X003640Y011743D02*
X002679Y011743D01*
X002679Y011861D02*
X003644Y011861D01*
X003767Y011980D02*
X002679Y011980D01*
X002679Y012098D02*
X006790Y012098D01*
X007099Y012087D02*
X007099Y012437D01*
X006949Y012587D01*
X006573Y012587D01*
X007009Y012821D02*
X007009Y012956D01*
X006904Y013062D01*
X006941Y013165D02*
X002679Y013165D01*
X002679Y013046D02*
X005479Y013046D01*
X005389Y012928D02*
X005248Y012928D01*
X004863Y012587D02*
X005825Y012587D01*
X006171Y013046D02*
X006227Y013046D01*
X006544Y013402D02*
X002679Y013402D01*
X002679Y013284D02*
X006889Y013284D01*
X007009Y012928D02*
X008460Y012928D01*
X008341Y012809D02*
X007038Y012809D01*
X007009Y012821D02*
X007085Y012790D01*
X007235Y012640D01*
X007303Y012572D01*
X007184Y012691D02*
X008223Y012691D01*
X008763Y011980D02*
X008883Y011980D01*
X008883Y011861D02*
X008763Y011861D01*
X008763Y011743D02*
X008883Y011743D01*
X008883Y011624D02*
X010307Y011624D01*
X010447Y011984D02*
X010009Y011984D01*
X010287Y011150D02*
X009154Y011150D01*
X009244Y010913D02*
X010036Y010913D01*
X009963Y010794D02*
X009298Y010794D01*
X009298Y010676D02*
X009959Y010676D01*
X009959Y010557D02*
X009298Y010557D01*
X009298Y010439D02*
X009959Y010439D01*
X009753Y010320D02*
X009298Y010320D01*
X009160Y010201D02*
X009724Y010201D01*
X009724Y010083D02*
X009070Y010083D01*
X009216Y009964D02*
X009724Y009964D01*
X009724Y009846D02*
X009239Y009846D01*
X009239Y009727D02*
X009724Y009727D01*
X009745Y009609D02*
X008883Y009609D01*
X008883Y009490D02*
X008763Y009490D01*
X008763Y009372D02*
X008883Y009372D01*
X008883Y009253D02*
X008763Y009253D01*
X008763Y009135D02*
X008883Y009135D01*
X009112Y009135D02*
X009744Y009135D01*
X009744Y009016D02*
X008415Y009016D01*
X008415Y008897D02*
X009754Y008897D01*
X010139Y008897D02*
X010259Y008897D01*
X010259Y009016D02*
X010139Y009016D01*
X010139Y009135D02*
X010259Y009135D01*
X010259Y009253D02*
X011033Y009253D01*
X010139Y009253D02*
X009234Y009253D01*
X009239Y009372D02*
X009744Y009372D01*
X009744Y009490D02*
X009239Y009490D01*
X008534Y009135D02*
X008429Y009135D01*
X008432Y010439D02*
X008466Y010439D01*
X008466Y010557D02*
X008432Y010557D01*
X008432Y010676D02*
X008466Y010676D01*
X008466Y010794D02*
X008432Y010794D01*
X008377Y010913D02*
X008521Y010913D01*
X008356Y011031D02*
X010154Y011031D01*
X008883Y011150D02*
X008763Y011150D01*
X008763Y011268D02*
X008883Y011268D01*
X008883Y011387D02*
X008763Y011387D01*
X008763Y011505D02*
X008883Y011505D01*
X008492Y011150D02*
X008444Y011150D01*
X006204Y011150D02*
X006194Y011150D01*
X005825Y011587D02*
X004863Y011587D01*
X004446Y011624D02*
X004094Y011624D01*
X004094Y011645D02*
X004432Y011645D01*
X004432Y011844D01*
X004421Y011884D01*
X004400Y011921D01*
X004370Y011951D01*
X004334Y011972D01*
X004293Y011983D01*
X004094Y011983D01*
X004094Y011645D01*
X004094Y011743D02*
X003978Y011743D01*
X003978Y011861D02*
X004094Y011861D01*
X004094Y011980D02*
X003978Y011980D01*
X003978Y012190D02*
X003978Y012528D01*
X004094Y012528D01*
X004094Y012190D01*
X004293Y012190D01*
X004334Y012201D01*
X004370Y012222D01*
X004400Y012252D01*
X004421Y012289D01*
X004432Y012329D01*
X004432Y012528D01*
X004094Y012528D01*
X004094Y012645D01*
X003978Y012645D01*
X003978Y012983D01*
X003778Y012983D01*
X003738Y012972D01*
X003701Y012951D01*
X003671Y012921D01*
X003650Y012884D01*
X003640Y012844D01*
X003640Y012645D01*
X003977Y012645D01*
X003977Y012528D01*
X003640Y012528D01*
X003640Y012329D01*
X003650Y012289D01*
X003671Y012252D01*
X003701Y012222D01*
X003738Y012201D01*
X003778Y012190D01*
X003978Y012190D01*
X003978Y012217D02*
X004094Y012217D01*
X004094Y012335D02*
X003978Y012335D01*
X003978Y012454D02*
X004094Y012454D01*
X004094Y012572D02*
X004446Y012572D01*
X004432Y012645D02*
X004094Y012645D01*
X004094Y012983D01*
X004293Y012983D01*
X004334Y012972D01*
X004370Y012951D01*
X004400Y012921D01*
X004421Y012884D01*
X004432Y012844D01*
X004432Y012645D01*
X004432Y012691D02*
X004446Y012691D01*
X004432Y012809D02*
X004446Y012809D01*
X004477Y012928D02*
X004393Y012928D01*
X004094Y012928D02*
X003978Y012928D01*
X003978Y012809D02*
X004094Y012809D01*
X004094Y012691D02*
X003978Y012691D01*
X003977Y012572D02*
X002679Y012572D01*
X002679Y012454D02*
X003640Y012454D01*
X003640Y012335D02*
X002679Y012335D01*
X002679Y012217D02*
X003711Y012217D01*
X003640Y012691D02*
X002679Y012691D01*
X002679Y012809D02*
X003640Y012809D01*
X003678Y012928D02*
X002679Y012928D01*
X002679Y013521D02*
X006426Y013521D01*
X006307Y013639D02*
X006229Y013639D01*
X006229Y013636D02*
X006229Y014572D01*
X006124Y014678D01*
X005030Y014678D01*
X004925Y014572D01*
X004925Y013636D01*
X005030Y013531D01*
X006124Y013531D01*
X006229Y013636D01*
X006229Y013758D02*
X006259Y013758D01*
X006259Y013876D02*
X006229Y013876D01*
X006229Y013995D02*
X006259Y013995D01*
X006259Y014113D02*
X006229Y014113D01*
X006229Y014232D02*
X006259Y014232D01*
X006259Y014350D02*
X006229Y014350D01*
X006229Y014469D02*
X006259Y014469D01*
X006259Y014588D02*
X006214Y014588D01*
X006259Y014706D02*
X004861Y014706D01*
X004912Y014757D02*
X004806Y014651D01*
X004668Y014594D01*
X004518Y014594D01*
X004379Y014651D01*
X004273Y014757D01*
X004216Y014895D01*
X004216Y015045D01*
X004273Y015184D01*
X004379Y015290D01*
X004518Y015347D01*
X004668Y015347D01*
X004806Y015290D01*
X004912Y015184D01*
X004970Y015045D01*
X004970Y014895D01*
X004912Y014757D01*
X004940Y014825D02*
X006259Y014825D01*
X006259Y014943D02*
X004970Y014943D01*
X004963Y015062D02*
X005192Y015062D01*
X005185Y015180D02*
X004914Y015180D01*
X004785Y015299D02*
X005185Y015299D01*
X005165Y015417D02*
X002679Y015417D01*
X002679Y015299D02*
X004401Y015299D01*
X004272Y015180D02*
X002679Y015180D01*
X002679Y015062D02*
X004223Y015062D01*
X004216Y014943D02*
X002679Y014943D01*
X002679Y014825D02*
X004245Y014825D01*
X004324Y014706D02*
X002679Y014706D01*
X002679Y014588D02*
X002774Y014588D01*
X002759Y014572D02*
X002759Y013636D01*
X002865Y013531D01*
X003959Y013531D01*
X004064Y013636D01*
X004064Y014572D01*
X003959Y014678D01*
X002865Y014678D01*
X002759Y014572D01*
X002759Y014469D02*
X002679Y014469D01*
X002679Y014350D02*
X002759Y014350D01*
X002759Y014232D02*
X002679Y014232D01*
X002679Y014113D02*
X002759Y014113D01*
X002759Y013995D02*
X002679Y013995D01*
X002679Y013876D02*
X002759Y013876D01*
X002759Y013758D02*
X002679Y013758D01*
X002679Y013639D02*
X002759Y013639D01*
X004064Y013639D02*
X004925Y013639D01*
X004925Y013758D02*
X004064Y013758D01*
X004064Y013876D02*
X004925Y013876D01*
X004925Y013995D02*
X004064Y013995D01*
X004064Y014113D02*
X004925Y014113D01*
X004925Y014232D02*
X004064Y014232D01*
X004064Y014350D02*
X004925Y014350D01*
X004925Y014469D02*
X004064Y014469D01*
X004049Y014588D02*
X004940Y014588D01*
X005799Y015062D02*
X005799Y015062D01*
X005799Y015180D02*
X005799Y015180D01*
X005165Y015536D02*
X002679Y015536D01*
X002679Y015654D02*
X005165Y015654D01*
X005165Y015773D02*
X002679Y015773D01*
X002679Y015892D02*
X005165Y015892D01*
X005165Y016010D02*
X002679Y016010D01*
X002679Y016129D02*
X005165Y016129D01*
X005165Y016247D02*
X002679Y016247D01*
X002679Y017077D02*
X002783Y017077D01*
X002759Y017196D02*
X002679Y017196D01*
X002679Y017314D02*
X002759Y017314D01*
X002759Y017433D02*
X002679Y017433D01*
X002679Y017551D02*
X002759Y017551D01*
X002759Y017670D02*
X002679Y017670D01*
X002679Y017788D02*
X002759Y017788D01*
X002759Y017907D02*
X002679Y017907D01*
X002679Y018025D02*
X002759Y018025D01*
X004064Y018025D02*
X004925Y018025D01*
X004925Y017907D02*
X004064Y017907D01*
X004064Y017788D02*
X004925Y017788D01*
X004925Y017670D02*
X004064Y017670D01*
X004064Y017551D02*
X004925Y017551D01*
X004925Y017433D02*
X004064Y017433D01*
X004064Y017314D02*
X004925Y017314D01*
X006351Y016721D02*
X006553Y016721D01*
X006349Y015837D02*
X005799Y015837D01*
X006349Y015837D02*
X006499Y015687D01*
X006499Y013787D01*
X006699Y013587D01*
X007325Y013587D01*
X005412Y011980D02*
X005196Y011980D01*
X005279Y011861D02*
X005389Y011861D01*
X005389Y011268D02*
X005271Y011268D01*
X004454Y011268D02*
X004409Y011268D01*
X004432Y011387D02*
X004446Y011387D01*
X004432Y011505D02*
X004446Y011505D01*
X004432Y011743D02*
X004446Y011743D01*
X004446Y011861D02*
X004427Y011861D01*
X004529Y011980D02*
X004305Y011980D01*
X004360Y012217D02*
X004505Y012217D01*
X004446Y012335D02*
X004432Y012335D01*
X004432Y012454D02*
X004446Y012454D01*
X003977Y011624D02*
X002679Y011624D01*
X002679Y011031D02*
X004207Y011031D01*
X004146Y010913D02*
X002679Y010913D01*
X002679Y010794D02*
X004067Y010794D01*
X003949Y010676D02*
X002679Y010676D01*
X002679Y010557D02*
X003831Y010557D01*
X003661Y010439D02*
X002679Y010439D01*
X002679Y010320D02*
X003620Y010320D01*
X003620Y010201D02*
X002679Y010201D01*
X002679Y010083D02*
X003620Y010083D01*
X003620Y009964D02*
X002679Y009964D01*
X002679Y009846D02*
X003620Y009846D01*
X003668Y009727D02*
X002679Y009727D01*
X002679Y009609D02*
X004132Y009609D01*
X004449Y009587D02*
X004036Y009173D01*
X004036Y009087D01*
X003620Y009135D02*
X002679Y009135D01*
X002679Y009253D02*
X003620Y009253D01*
X003620Y009372D02*
X002679Y009372D01*
X002679Y009490D02*
X003712Y009490D01*
X003620Y009016D02*
X002679Y009016D01*
X002679Y008897D02*
X003620Y008897D01*
X003620Y008779D02*
X002679Y008779D01*
X002679Y008660D02*
X005446Y008660D01*
X005389Y008779D02*
X005279Y008779D01*
X004863Y009087D02*
X005825Y009087D01*
X006333Y008542D02*
X002679Y008542D01*
X002679Y008423D02*
X006333Y008423D01*
X006333Y008305D02*
X002679Y008305D01*
X002679Y008186D02*
X006333Y008186D01*
X006333Y008068D02*
X002679Y008068D01*
X002679Y007949D02*
X003700Y007949D01*
X003701Y007951D02*
X003671Y007921D01*
X003650Y007884D01*
X003640Y007844D01*
X003640Y007645D01*
X003977Y007645D01*
X003977Y007528D01*
X003640Y007528D01*
X003640Y007329D01*
X003650Y007289D01*
X003671Y007252D01*
X003701Y007222D01*
X003738Y007201D01*
X003778Y007190D01*
X003978Y007190D01*
X003978Y007528D01*
X004094Y007528D01*
X004094Y007190D01*
X004293Y007190D01*
X004334Y007201D01*
X004370Y007222D01*
X004400Y007252D01*
X004421Y007289D01*
X004432Y007329D01*
X004432Y007528D01*
X004094Y007528D01*
X004094Y007645D01*
X003978Y007645D01*
X003978Y007983D01*
X003778Y007983D01*
X003738Y007972D01*
X003701Y007951D01*
X003640Y007831D02*
X002679Y007831D01*
X002679Y007712D02*
X003640Y007712D01*
X003640Y007475D02*
X002679Y007475D01*
X002679Y007594D02*
X003977Y007594D01*
X004094Y007594D02*
X004446Y007594D01*
X004432Y007645D02*
X004432Y007844D01*
X004421Y007884D01*
X004400Y007921D01*
X004370Y007951D01*
X004334Y007972D01*
X004293Y007983D01*
X004094Y007983D01*
X004094Y007645D01*
X004432Y007645D01*
X004432Y007712D02*
X004446Y007712D01*
X004432Y007831D02*
X004446Y007831D01*
X004498Y007949D02*
X004372Y007949D01*
X004094Y007949D02*
X003978Y007949D01*
X003978Y007831D02*
X004094Y007831D01*
X004094Y007712D02*
X003978Y007712D01*
X003978Y007475D02*
X004094Y007475D01*
X004094Y007356D02*
X003978Y007356D01*
X003978Y007238D02*
X004094Y007238D01*
X004386Y007238D02*
X004484Y007238D01*
X004446Y007356D02*
X004432Y007356D01*
X004432Y007475D02*
X004446Y007475D01*
X004863Y007587D02*
X005825Y007587D01*
X005389Y007831D02*
X005279Y007831D01*
X005227Y007949D02*
X005389Y007949D01*
X005389Y007238D02*
X005241Y007238D01*
X005487Y007119D02*
X002679Y007119D01*
X002679Y007001D02*
X005462Y007001D01*
X005409Y006882D02*
X002679Y006882D01*
X002679Y006764D02*
X005409Y006764D01*
X005765Y006764D02*
X005885Y006764D01*
X005885Y006882D02*
X005765Y006882D01*
X005765Y007001D02*
X005885Y007001D01*
X006164Y007119D02*
X006235Y007119D01*
X006912Y007119D02*
X007393Y007119D01*
X007511Y007238D02*
X007009Y007238D01*
X006965Y007001D02*
X007274Y007001D01*
X007155Y006882D02*
X007009Y006882D01*
X007479Y006527D02*
X008361Y006527D01*
X008363Y006645D02*
X007597Y006645D01*
X007716Y006764D02*
X008244Y006764D01*
X008243Y006408D02*
X007360Y006408D01*
X007009Y006290D02*
X008188Y006290D01*
X008149Y006171D02*
X006963Y006171D01*
X005885Y006171D02*
X005765Y006171D01*
X005765Y006290D02*
X005885Y006290D01*
X005885Y006408D02*
X005765Y006408D01*
X005409Y006408D02*
X002679Y006408D01*
X002679Y006290D02*
X005409Y006290D01*
X005463Y006171D02*
X002679Y006171D01*
X002679Y006052D02*
X008149Y006052D01*
X008167Y005934D02*
X002679Y005934D01*
X002679Y005815D02*
X008216Y005815D01*
X008311Y005697D02*
X002679Y005697D01*
X002679Y005578D02*
X008489Y005578D01*
X008909Y005578D02*
X009859Y005578D01*
X009859Y005460D02*
X002679Y005460D01*
X002679Y005341D02*
X009859Y005341D01*
X009859Y005223D02*
X002679Y005223D01*
X002679Y005104D02*
X009867Y005104D01*
X010139Y004986D02*
X002679Y004986D01*
X002679Y004867D02*
X010148Y004867D01*
X010206Y004748D02*
X007073Y004748D01*
X006990Y004796D02*
X007225Y004661D01*
X007417Y004469D01*
X007441Y004426D01*
X007679Y004426D01*
X007679Y004456D01*
X007784Y004562D01*
X008445Y004562D01*
X008449Y004558D01*
X008453Y004562D01*
X009114Y004562D01*
X009220Y004456D01*
X009220Y004426D01*
X009496Y004426D01*
X009496Y004437D01*
X009601Y004542D01*
X010301Y004542D01*
X010407Y004437D01*
X010407Y003736D01*
X010301Y003631D01*
X009601Y003631D01*
X009496Y003736D01*
X009496Y003747D01*
X009220Y003747D01*
X009220Y003717D01*
X009114Y003611D01*
X008453Y003611D01*
X008449Y003615D01*
X008445Y003611D01*
X007784Y003611D01*
X007679Y003717D01*
X007679Y003747D01*
X007623Y003747D01*
X007623Y003701D01*
X007553Y003439D01*
X007417Y003204D01*
X007225Y003012D01*
X006990Y002877D01*
X006728Y002807D01*
X006457Y002807D01*
X006195Y002877D01*
X005960Y003012D01*
X005769Y003204D01*
X005633Y003439D01*
X005563Y003701D01*
X005563Y003972D01*
X005633Y004234D01*
X005769Y004469D01*
X005960Y004661D01*
X006195Y004796D01*
X006457Y004866D01*
X006728Y004866D01*
X006990Y004796D01*
X007256Y004630D02*
X010325Y004630D01*
X010332Y004511D02*
X010443Y004511D01*
X010407Y004393D02*
X010570Y004393D01*
X010407Y004274D02*
X010992Y004274D01*
X010992Y004156D02*
X010407Y004156D01*
X010407Y004037D02*
X010992Y004037D01*
X010992Y003919D02*
X010407Y003919D01*
X010407Y003800D02*
X010992Y003800D01*
X011046Y003682D02*
X010352Y003682D01*
X010161Y003326D02*
X009737Y003326D01*
X009856Y003207D02*
X010042Y003207D01*
X009550Y003682D02*
X009185Y003682D01*
X009161Y003326D02*
X007487Y003326D01*
X007554Y003444D02*
X012417Y003444D01*
X012311Y003563D02*
X007586Y003563D01*
X007618Y003682D02*
X007714Y003682D01*
X007419Y003207D02*
X009042Y003207D01*
X008924Y003089D02*
X007302Y003089D01*
X007152Y002970D02*
X008899Y002970D01*
X008899Y002852D02*
X006897Y002852D01*
X006288Y002852D02*
X005932Y002852D01*
X006033Y002970D02*
X005638Y002970D01*
X005472Y002970D02*
X005352Y002970D01*
X005352Y002852D02*
X005472Y002852D01*
X005472Y002733D02*
X005352Y002733D01*
X005352Y002615D02*
X005472Y002615D01*
X005472Y002496D02*
X005352Y002496D01*
X005352Y002378D02*
X005472Y002378D01*
X005472Y002259D02*
X005352Y002259D01*
X005352Y002141D02*
X005472Y002141D01*
X005472Y002022D02*
X007149Y002022D01*
X007139Y001903D02*
X006419Y001903D01*
X006402Y001785D02*
X007139Y001785D01*
X007143Y001666D02*
X006370Y001666D01*
X006322Y001548D02*
X007192Y001548D01*
X007241Y001429D02*
X006255Y001429D01*
X006165Y001311D02*
X007330Y001311D01*
X007448Y001192D02*
X006036Y001192D01*
X005845Y001074D02*
X007675Y001074D01*
X008224Y001074D02*
X028097Y001074D01*
X028213Y001192D02*
X008450Y001192D01*
X008569Y001311D02*
X009197Y001311D01*
X009079Y001429D02*
X008657Y001429D01*
X008706Y001548D02*
X008960Y001548D01*
X008899Y001666D02*
X008755Y001666D01*
X008759Y001785D02*
X008899Y001785D01*
X008899Y001903D02*
X008759Y001903D01*
X008749Y002022D02*
X008899Y002022D01*
X008975Y002141D02*
X008700Y002141D01*
X008651Y002259D02*
X009094Y002259D01*
X009130Y002378D02*
X008553Y002378D01*
X008435Y002496D02*
X009012Y002496D01*
X008899Y002615D02*
X008187Y002615D01*
X007711Y002615D02*
X006202Y002615D01*
X006284Y002496D02*
X007463Y002496D01*
X007345Y002378D02*
X006344Y002378D01*
X006385Y002259D02*
X007248Y002259D01*
X007198Y002141D02*
X006411Y002141D01*
X006093Y002733D02*
X008899Y002733D01*
X009938Y001548D02*
X009960Y001548D01*
X010079Y001429D02*
X009820Y001429D01*
X009701Y001311D02*
X010197Y001311D01*
X010701Y001311D02*
X011197Y001311D01*
X011079Y001429D02*
X010820Y001429D01*
X010938Y001548D02*
X010960Y001548D01*
X011701Y001311D02*
X012197Y001311D01*
X012079Y001429D02*
X011820Y001429D01*
X011938Y001548D02*
X011960Y001548D01*
X012701Y001311D02*
X013197Y001311D01*
X013079Y001429D02*
X012820Y001429D01*
X012938Y001548D02*
X012960Y001548D01*
X013701Y001311D02*
X015281Y001311D01*
X015079Y001429D02*
X013820Y001429D01*
X013938Y001548D02*
X014973Y001548D01*
X014924Y001666D02*
X013999Y001666D01*
X013999Y001785D02*
X014899Y001785D01*
X014899Y001903D02*
X013999Y001903D01*
X013999Y002022D02*
X014931Y002022D01*
X014980Y002141D02*
X013923Y002141D01*
X013804Y002259D02*
X015094Y002259D01*
X015318Y002378D02*
X013768Y002378D01*
X013887Y002496D02*
X015652Y002496D01*
X015640Y002615D02*
X013999Y002615D01*
X013999Y002733D02*
X015649Y002733D01*
X015649Y002852D02*
X013999Y002852D01*
X013999Y002970D02*
X015641Y002970D01*
X015523Y003089D02*
X013975Y003089D01*
X013739Y003800D02*
X017109Y003800D01*
X017109Y003682D02*
X015778Y003682D01*
X015897Y003563D02*
X017109Y003563D01*
X017109Y003444D02*
X016015Y003444D01*
X016134Y003326D02*
X017109Y003326D01*
X017109Y003207D02*
X016224Y003207D01*
X016249Y003089D02*
X017109Y003089D01*
X017109Y002970D02*
X016249Y002970D01*
X016249Y002852D02*
X017109Y002852D01*
X017109Y002733D02*
X016249Y002733D01*
X016258Y002615D02*
X017109Y002615D01*
X017109Y002496D02*
X016246Y002496D01*
X016177Y002378D02*
X016318Y002378D01*
X016094Y002259D02*
X015804Y002259D01*
X015721Y002378D02*
X015580Y002378D01*
X015919Y002141D02*
X015980Y002141D01*
X016580Y002378D02*
X017109Y002378D01*
X017094Y002259D02*
X016804Y002259D01*
X016919Y002141D02*
X016980Y002141D01*
X016973Y001548D02*
X016925Y001548D01*
X016820Y001429D02*
X017079Y001429D01*
X017281Y001311D02*
X016617Y001311D01*
X016281Y001311D02*
X015617Y001311D01*
X015820Y001429D02*
X016079Y001429D01*
X015973Y001548D02*
X015925Y001548D01*
X017789Y003207D02*
X018891Y003207D01*
X018840Y003326D02*
X017789Y003326D01*
X017789Y003444D02*
X018304Y003444D01*
X018245Y003563D02*
X017789Y003563D01*
X017789Y003682D02*
X018240Y003682D01*
X018146Y003800D02*
X017789Y003800D01*
X017789Y003919D02*
X018067Y003919D01*
X018059Y004037D02*
X017789Y004037D01*
X017789Y004156D02*
X018059Y004156D01*
X017975Y004274D02*
X017789Y004274D01*
X017789Y004393D02*
X017874Y004393D01*
X017840Y004511D02*
X017789Y004511D01*
X017789Y004630D02*
X017854Y004630D01*
X017789Y004748D02*
X017924Y004748D01*
X018149Y004537D02*
X018299Y004387D01*
X018299Y003987D01*
X018549Y003737D01*
X018549Y003637D01*
X018794Y003444D02*
X018840Y003444D01*
X017109Y003919D02*
X013739Y003919D01*
X013739Y004156D02*
X017109Y004156D01*
X017109Y004274D02*
X013739Y004274D01*
X013739Y004393D02*
X017109Y004393D01*
X017109Y004511D02*
X013675Y004511D01*
X013383Y004511D02*
X013263Y004511D01*
X013263Y004393D02*
X013383Y004393D01*
X013383Y004274D02*
X013263Y004274D01*
X013263Y004156D02*
X013383Y004156D01*
X013383Y004037D02*
X017109Y004037D01*
X018767Y006408D02*
X018846Y006408D01*
X020615Y006052D02*
X020774Y006052D01*
X020740Y005934D02*
X020589Y005934D01*
X020589Y005815D02*
X020744Y005815D01*
X020802Y005697D02*
X020589Y005697D01*
X020589Y005578D02*
X020986Y005578D01*
X021112Y005578D02*
X021386Y005578D01*
X021512Y005578D02*
X029219Y005578D01*
X029219Y005460D02*
X020589Y005460D01*
X021049Y005887D02*
X021014Y005922D01*
X021014Y006553D01*
X021329Y006553D02*
X021329Y006207D01*
X021449Y006087D01*
X021449Y005887D01*
X021696Y005697D02*
X023549Y005697D01*
X023431Y005815D02*
X021754Y005815D01*
X021758Y005934D02*
X023312Y005934D01*
X023194Y006052D02*
X021715Y006052D01*
X021644Y006553D02*
X021644Y007042D01*
X021449Y007237D01*
X021599Y007537D02*
X021149Y007537D01*
X021599Y007537D02*
X021959Y007177D01*
X021959Y006553D01*
X022552Y006408D02*
X023059Y006408D01*
X023059Y006290D02*
X022552Y006290D01*
X022540Y006171D02*
X023087Y006171D01*
X021633Y005223D02*
X021513Y005223D01*
X021513Y005104D02*
X021633Y005104D01*
X021633Y004986D02*
X021513Y004986D01*
X021633Y004867D02*
X029219Y004867D01*
X028248Y004630D02*
X021989Y004630D01*
X021987Y004511D02*
X027979Y004511D01*
X027860Y004393D02*
X021892Y004393D01*
X021633Y004393D02*
X021513Y004393D01*
X021513Y004511D02*
X021633Y004511D01*
X021633Y004630D02*
X021513Y004630D01*
X021513Y004748D02*
X021633Y004748D01*
X021254Y004393D02*
X021187Y004393D01*
X020699Y006171D02*
X020699Y006171D01*
X020699Y006290D02*
X020699Y006290D01*
X020699Y006408D02*
X020699Y006408D01*
X018949Y008537D02*
X018431Y008537D01*
X018416Y008522D01*
X018416Y008837D02*
X018049Y008837D01*
X017426Y008779D02*
X017404Y008779D01*
X017411Y008794D02*
X017411Y008794D01*
X017819Y009466D02*
X017799Y009487D01*
X017819Y009466D02*
X018416Y009466D01*
X018416Y009781D02*
X018004Y009781D01*
X017899Y009887D01*
X017749Y009887D01*
X017537Y009661D02*
X017537Y009661D01*
X017481Y009727D02*
X017338Y009727D01*
X017440Y009846D02*
X016071Y009846D01*
X016189Y009727D02*
X016560Y009727D01*
X015952Y009964D02*
X017447Y009964D01*
X017487Y010061D02*
X017487Y010061D01*
X017466Y010083D02*
X015834Y010083D01*
X015715Y010201D02*
X017400Y010201D01*
X017285Y010320D02*
X015689Y010320D01*
X015689Y010439D02*
X017176Y010439D01*
X017140Y010557D02*
X015689Y010557D01*
X015672Y010676D02*
X017152Y010676D01*
X017220Y010794D02*
X015581Y010794D01*
X015462Y010913D02*
X015773Y010913D01*
X015744Y011031D02*
X015344Y011031D01*
X015520Y011150D02*
X015744Y011150D01*
X015602Y011268D02*
X016139Y011268D01*
X016139Y011150D02*
X016259Y011150D01*
X016259Y011268D02*
X018290Y011268D01*
X018301Y011150D02*
X016654Y011150D01*
X016654Y011031D02*
X018368Y011031D01*
X018425Y010794D02*
X018846Y010794D01*
X018800Y010676D02*
X018920Y010676D01*
X018584Y010913D02*
X016625Y010913D01*
X016259Y010913D02*
X016139Y010913D01*
X016139Y011031D02*
X016259Y011031D01*
X016654Y011387D02*
X018327Y011387D01*
X018193Y011505D02*
X016654Y011505D01*
X016618Y011624D02*
X018141Y011624D01*
X018140Y011748D02*
X018187Y011861D01*
X018449Y011687D02*
X019249Y011687D01*
X019439Y011496D01*
X019439Y011120D01*
X019124Y011120D02*
X019091Y011087D01*
X018749Y011087D01*
X018599Y011237D01*
X018299Y010587D02*
X017449Y010587D01*
X017699Y010287D02*
X017849Y010287D01*
X018039Y010096D01*
X018416Y010096D01*
X018416Y010411D02*
X018416Y010470D01*
X018299Y010587D01*
X018444Y012217D02*
X016674Y012217D01*
X016674Y012335D02*
X018440Y012335D01*
X020699Y011837D02*
X020699Y011120D01*
X020699Y010537D01*
X021039Y010557D02*
X022507Y010557D01*
X022507Y010439D02*
X021039Y010439D01*
X021039Y010320D02*
X022507Y010320D01*
X022507Y010201D02*
X021039Y010201D01*
X021039Y010083D02*
X022507Y010083D01*
X022507Y009964D02*
X021039Y009964D01*
X021039Y009846D02*
X022507Y009846D01*
X022507Y009727D02*
X021039Y009727D01*
X021039Y009609D02*
X022507Y009609D01*
X022983Y010096D02*
X023359Y010096D01*
X023549Y010287D01*
X023549Y012637D01*
X024199Y013461D02*
X024199Y014087D01*
X022349Y012287D02*
X022349Y019437D01*
X022449Y019537D01*
X022449Y020837D01*
X021238Y021345D02*
X020660Y021345D01*
X020837Y021226D02*
X021061Y021226D01*
X020966Y021107D02*
X020932Y021107D01*
X019399Y019137D02*
X020549Y017987D01*
X020499Y013937D01*
X021369Y013046D02*
X021509Y013046D01*
X021509Y012928D02*
X021409Y012928D01*
X021409Y012809D02*
X021509Y012809D01*
X021509Y012691D02*
X021409Y012691D01*
X021409Y012572D02*
X021496Y012572D01*
X020999Y012611D02*
X020999Y012137D01*
X020699Y011837D01*
X021644Y011581D02*
X021644Y011120D01*
X021644Y011581D02*
X022349Y012287D01*
X020999Y012611D02*
X020973Y012637D01*
X022983Y011031D02*
X023009Y011031D01*
X022936Y010913D02*
X022859Y010913D01*
X022817Y010794D02*
X022552Y010794D01*
X022599Y010676D02*
X022478Y010676D01*
X022983Y010620D02*
X022983Y010411D01*
X022983Y010620D02*
X023249Y010887D01*
X023249Y018987D01*
X024049Y019787D01*
X024899Y019787D01*
X025449Y020337D01*
X025449Y020837D01*
X024238Y021345D02*
X023660Y021345D01*
X023837Y021226D02*
X024061Y021226D01*
X023966Y021107D02*
X023932Y021107D01*
X026660Y021345D02*
X026963Y021345D01*
X026899Y021226D02*
X026837Y021226D01*
X027936Y021345D02*
X028016Y021345D01*
X027999Y021226D02*
X028134Y021226D01*
X028219Y021107D02*
X027999Y021107D01*
X027999Y020989D02*
X028219Y020989D01*
X018509Y015299D02*
X013574Y015299D01*
X013645Y015180D02*
X018509Y015180D01*
X018509Y015062D02*
X013658Y015062D01*
X013570Y015536D02*
X013328Y015536D01*
X013424Y015654D02*
X013474Y015654D01*
X014149Y014437D02*
X014925Y014437D01*
X014489Y014113D02*
X014165Y014113D01*
X014139Y013995D02*
X014561Y013995D01*
X014149Y014437D02*
X013899Y014187D01*
X014899Y013224D02*
X014949Y013274D01*
X015189Y012691D02*
X015724Y012691D01*
X015724Y012809D02*
X015602Y012809D01*
X015602Y012928D02*
X015618Y012928D01*
X015923Y012963D02*
X015649Y013237D01*
X015923Y012963D02*
X016199Y012963D01*
X015784Y012572D02*
X015189Y012572D01*
X015602Y011387D02*
X015744Y011387D01*
X014893Y010676D02*
X013788Y010676D01*
X013699Y010557D02*
X014804Y010557D01*
X014803Y010439D02*
X013699Y010439D01*
X014404Y009016D02*
X015141Y009016D01*
X015257Y009016D02*
X015759Y009016D01*
X015759Y008897D02*
X015595Y008897D01*
X015595Y008779D02*
X015759Y008779D01*
X015759Y008660D02*
X015595Y008660D01*
X015562Y008542D02*
X015759Y008542D01*
X015257Y008542D02*
X015141Y008542D01*
X015141Y008660D02*
X015257Y008660D01*
X015257Y008779D02*
X015141Y008779D01*
X015141Y008897D02*
X015257Y008897D01*
X015595Y009135D02*
X015759Y009135D01*
X015702Y009253D02*
X015595Y009253D01*
X014731Y008305D02*
X010917Y008305D01*
X010799Y008186D02*
X014849Y008186D01*
X014949Y008068D02*
X010699Y008068D01*
X010699Y007949D02*
X014949Y007949D01*
X014949Y007831D02*
X010699Y007831D01*
X010699Y007712D02*
X014949Y007712D01*
X014949Y007594D02*
X011067Y007594D01*
X011099Y007475D02*
X014949Y007475D01*
X014949Y007356D02*
X011099Y007356D01*
X011099Y007238D02*
X014949Y007238D01*
X014949Y007119D02*
X013494Y007119D01*
X013512Y007001D02*
X014949Y007001D01*
X014949Y006882D02*
X013512Y006882D01*
X013512Y006764D02*
X014949Y006764D01*
X014949Y006645D02*
X013512Y006645D01*
X013512Y006527D02*
X014949Y006527D01*
X014949Y006408D02*
X013512Y006408D01*
X013699Y006408D02*
X012199Y006408D01*
X012199Y006290D02*
X013699Y006290D01*
X013699Y006527D02*
X012199Y006527D01*
X012199Y006645D02*
X013699Y006645D01*
X013699Y006764D02*
X012199Y006764D01*
X012199Y006882D02*
X013699Y006882D01*
X013699Y007001D02*
X012199Y007001D01*
X012199Y007119D02*
X013699Y007119D01*
X013699Y007238D02*
X012199Y007238D01*
X012344Y007119D02*
X011099Y007119D01*
X011099Y007001D02*
X012326Y007001D01*
X012326Y006882D02*
X011049Y006882D01*
X010459Y006882D02*
X010419Y006882D01*
X010419Y007001D02*
X010459Y007001D01*
X010459Y007119D02*
X010419Y007119D01*
X009879Y007475D02*
X009088Y007475D01*
X008946Y007594D02*
X009920Y007594D01*
X011186Y008423D02*
X013112Y008423D01*
X012759Y008897D02*
X012639Y008897D01*
X012639Y009016D02*
X012759Y009016D01*
X012759Y009135D02*
X012639Y009135D01*
X012859Y007119D02*
X012979Y007119D01*
X012979Y007001D02*
X012859Y007001D01*
X012859Y006882D02*
X012979Y006882D01*
X012979Y006764D02*
X012859Y006764D01*
X012859Y006645D02*
X012979Y006645D01*
X012979Y006527D02*
X012859Y006527D01*
X012859Y006171D02*
X012979Y006171D01*
X012979Y006052D02*
X012859Y006052D01*
X012859Y005934D02*
X012979Y005934D01*
X012979Y005815D02*
X012859Y005815D01*
X012859Y005697D02*
X012979Y005697D01*
X012979Y005578D02*
X012859Y005578D01*
X012956Y004511D02*
X012972Y004511D01*
X012194Y004511D02*
X011828Y004511D01*
X011848Y003682D02*
X012174Y003682D01*
X012161Y003326D02*
X011737Y003326D01*
X011856Y003207D02*
X012042Y003207D01*
X011161Y003326D02*
X010737Y003326D01*
X010856Y003207D02*
X011042Y003207D01*
X009570Y004511D02*
X009165Y004511D01*
X007734Y004511D02*
X007375Y004511D01*
X006112Y004748D02*
X004665Y004748D01*
X004618Y004771D02*
X004511Y004809D01*
X004400Y004834D01*
X004291Y004846D01*
X004291Y003897D01*
X004171Y003897D01*
X004171Y004846D01*
X004061Y004834D01*
X003951Y004809D01*
X003844Y004771D01*
X003741Y004722D01*
X003645Y004662D01*
X003557Y004591D01*
X003476Y004511D01*
X003406Y004422D01*
X003345Y004326D01*
X003296Y004224D01*
X003259Y004117D01*
X003233Y004006D01*
X003221Y003896D01*
X004170Y003896D01*
X004170Y003777D01*
X003221Y003777D01*
X003233Y003667D01*
X003259Y003556D01*
X003296Y003449D01*
X003345Y003347D01*
X003406Y003251D01*
X003476Y003162D01*
X003557Y003082D01*
X003645Y003011D01*
X003741Y002951D01*
X003844Y002902D01*
X003951Y002864D01*
X004061Y002839D01*
X004171Y002827D01*
X004171Y003776D01*
X004291Y003776D01*
X004291Y003777D02*
X004291Y003896D01*
X005240Y003896D01*
X005228Y004006D01*
X005203Y004117D01*
X005165Y004224D01*
X005116Y004326D01*
X005056Y004422D01*
X004985Y004511D01*
X004905Y004591D01*
X004816Y004662D01*
X004720Y004722D01*
X004618Y004771D01*
X004856Y004630D02*
X005930Y004630D01*
X005811Y004511D02*
X004984Y004511D01*
X005074Y004393D02*
X005725Y004393D01*
X005656Y004274D02*
X005141Y004274D01*
X005189Y004156D02*
X005612Y004156D01*
X005580Y004037D02*
X005221Y004037D01*
X005238Y003919D02*
X005563Y003919D01*
X005563Y003800D02*
X004291Y003800D01*
X004291Y003777D02*
X005240Y003777D01*
X005228Y003667D01*
X005203Y003556D01*
X005165Y003449D01*
X005116Y003347D01*
X005056Y003251D01*
X004985Y003162D01*
X004905Y003082D01*
X004816Y003011D01*
X004720Y002951D01*
X004618Y002902D01*
X004511Y002864D01*
X004400Y002839D01*
X004291Y002827D01*
X004291Y003776D01*
X004291Y003682D02*
X004171Y003682D01*
X004170Y003800D02*
X002679Y003800D01*
X002679Y003682D02*
X003232Y003682D01*
X003257Y003563D02*
X002679Y003563D01*
X002679Y003444D02*
X003298Y003444D01*
X003359Y003326D02*
X002679Y003326D01*
X002679Y003207D02*
X003440Y003207D01*
X003550Y003089D02*
X002679Y003089D01*
X002679Y002970D02*
X003711Y002970D01*
X004006Y002852D02*
X002679Y002852D01*
X002679Y002733D02*
X004730Y002733D01*
X004621Y002615D02*
X002679Y002615D01*
X002679Y002496D02*
X004539Y002496D01*
X004479Y002378D02*
X002679Y002378D01*
X002679Y002259D02*
X004438Y002259D01*
X004413Y002141D02*
X002679Y002141D01*
X002679Y002022D02*
X005352Y002022D01*
X004405Y001903D02*
X002679Y001903D01*
X002679Y001785D02*
X004422Y001785D01*
X004454Y001666D02*
X002679Y001666D01*
X002679Y001548D02*
X004502Y001548D01*
X004569Y001429D02*
X002679Y001429D01*
X002679Y001311D02*
X004659Y001311D01*
X004787Y001192D02*
X002685Y001192D01*
X002801Y001074D02*
X004979Y001074D01*
X004891Y002852D02*
X004455Y002852D01*
X004291Y002852D02*
X004171Y002852D01*
X004171Y002970D02*
X004291Y002970D01*
X004291Y003089D02*
X004171Y003089D01*
X004171Y003207D02*
X004291Y003207D01*
X004291Y003326D02*
X004171Y003326D01*
X004171Y003444D02*
X004291Y003444D01*
X004291Y003563D02*
X004171Y003563D01*
X004171Y003919D02*
X004291Y003919D01*
X004291Y004037D02*
X004171Y004037D01*
X004171Y004156D02*
X004291Y004156D01*
X004291Y004274D02*
X004171Y004274D01*
X004171Y004393D02*
X004291Y004393D01*
X004291Y004511D02*
X004171Y004511D01*
X004171Y004630D02*
X004291Y004630D01*
X004291Y004748D02*
X004171Y004748D01*
X003797Y004748D02*
X002679Y004748D01*
X002679Y004630D02*
X003606Y004630D01*
X003477Y004511D02*
X002679Y004511D01*
X002679Y004393D02*
X003387Y004393D01*
X003320Y004274D02*
X002679Y004274D01*
X002679Y004156D02*
X003272Y004156D01*
X003240Y004037D02*
X002679Y004037D01*
X002679Y003919D02*
X003224Y003919D01*
X004750Y002970D02*
X005185Y002970D01*
X005021Y003207D02*
X005767Y003207D01*
X005698Y003326D02*
X005103Y003326D01*
X005163Y003444D02*
X005632Y003444D01*
X005600Y003563D02*
X005204Y003563D01*
X005229Y003682D02*
X005568Y003682D01*
X005884Y003089D02*
X004911Y003089D01*
X009087Y005697D02*
X009859Y005697D01*
X009933Y005815D02*
X009182Y005815D01*
X009231Y005934D02*
X009947Y005934D01*
X004036Y010087D02*
X004036Y010423D01*
X004449Y010837D01*
X004094Y011268D02*
X003978Y011268D01*
X003978Y011387D02*
X004094Y011387D01*
X004094Y011505D02*
X003978Y011505D01*
X003640Y007356D02*
X002679Y007356D01*
X002679Y007238D02*
X003686Y007238D01*
X010912Y014777D02*
X010899Y014789D01*
X010899Y015087D01*
X010699Y015287D01*
X010299Y015287D01*
X009699Y015887D01*
X009699Y016837D01*
X011542Y015079D02*
X011542Y014777D01*
X015289Y013995D02*
X015351Y013995D01*
X019099Y008687D02*
X018949Y008537D01*
X016474Y007712D02*
X016439Y007712D01*
X016439Y007594D02*
X016474Y007594D01*
X016474Y007475D02*
X016439Y007475D01*
X016439Y007356D02*
X016474Y007356D01*
X016474Y007238D02*
X016439Y007238D01*
X016439Y007119D02*
X016474Y007119D01*
X016439Y007001D02*
X016517Y007001D01*
X016494Y006882D02*
X016439Y006882D01*
X016439Y006764D02*
X016494Y006764D01*
X019894Y001548D02*
X019973Y001548D01*
X020079Y001429D02*
X019790Y001429D01*
X025851Y004274D02*
X027754Y004274D01*
X027705Y004156D02*
X025969Y004156D01*
X026088Y004037D02*
X027656Y004037D01*
X027639Y003919D02*
X026206Y003919D01*
X026325Y003800D02*
X027639Y003800D01*
X027639Y003682D02*
X026443Y003682D01*
X026562Y003563D02*
X027686Y003563D01*
X027735Y003444D02*
X026681Y003444D01*
X026799Y003326D02*
X027814Y003326D01*
X027933Y003207D02*
X026918Y003207D01*
X027036Y003089D02*
X028138Y003089D01*
X027273Y002852D02*
X029139Y002852D01*
X029219Y002970D02*
X027155Y002970D01*
X028239Y010083D02*
X028256Y010083D01*
X026899Y011437D02*
X027299Y011837D01*
X027499Y011837D01*
X026059Y011743D02*
X025939Y011743D01*
X025939Y011624D02*
X026059Y011624D01*
X025604Y011743D02*
X024445Y011743D01*
X024326Y011624D02*
X025544Y011624D01*
X017366Y021107D02*
X017332Y021107D01*
X017237Y021226D02*
X017461Y021226D01*
X017638Y021345D02*
X017060Y021345D01*
D33*
X012599Y019187D03*
X011049Y019737D03*
X009199Y019587D03*
X008449Y019587D03*
X005199Y018587D03*
X004199Y018587D03*
X009599Y014637D03*
X008599Y014037D03*
X008599Y013587D03*
X009199Y012337D03*
X007449Y011487D03*
X007099Y012087D03*
X006199Y010837D03*
X004449Y010837D03*
X003199Y010837D03*
X004449Y009587D03*
X007199Y008337D03*
X009649Y007287D03*
X010149Y008287D03*
X011199Y008087D03*
X012199Y008087D03*
X013199Y008087D03*
X013699Y007587D03*
X014199Y008087D03*
X014699Y007587D03*
X014199Y007087D03*
X013699Y006587D03*
X014199Y006087D03*
X014699Y006587D03*
X015449Y006587D03*
X014699Y005587D03*
X013699Y005587D03*
X015449Y007587D03*
X016599Y007987D03*
X017799Y009487D03*
X017749Y009887D03*
X017699Y010287D03*
X017449Y010587D03*
X016799Y010587D03*
X016049Y010587D03*
X014499Y010587D03*
X014499Y010237D03*
X013399Y008787D03*
X012449Y010787D03*
X012649Y012087D03*
X012199Y012087D03*
X011799Y012187D03*
X011199Y012187D03*
X011199Y012737D03*
X011299Y013137D03*
X010749Y014087D03*
X011199Y015437D03*
X010599Y015837D03*
X011249Y016287D03*
X013349Y015087D03*
X013699Y014737D03*
X015949Y016337D03*
X016949Y016337D03*
X016949Y014337D03*
X017699Y014337D03*
X019949Y013937D03*
X020249Y013587D03*
X020499Y013937D03*
X020849Y013587D03*
X021149Y013937D03*
X021449Y013587D03*
X024199Y014087D03*
X025199Y014087D03*
X026699Y013837D03*
X027199Y015337D03*
X027699Y016337D03*
X025199Y016587D03*
X024499Y016637D03*
X018749Y012287D03*
X018449Y011687D03*
X018599Y011237D03*
X017699Y012337D03*
X016949Y012337D03*
X019599Y009837D03*
X019949Y008737D03*
X020249Y008437D03*
X020549Y008137D03*
X020849Y007837D03*
X021149Y007537D03*
X021449Y007237D03*
X021449Y005887D03*
X021049Y005887D03*
X022449Y005087D03*
X023199Y005087D03*
X024699Y005087D03*
X025699Y005087D03*
X025699Y007087D03*
X026449Y007087D03*
X025149Y007637D03*
X023749Y008037D03*
X022099Y009987D03*
X019099Y008687D03*
X019399Y007737D03*
X019099Y007437D03*
X019699Y007337D03*
X018449Y004837D03*
X018149Y004537D03*
X018549Y003637D03*
X019149Y003387D03*
X015949Y002587D03*
X009399Y005037D03*
X008399Y005037D03*
X013449Y017337D03*
X025199Y011837D03*
X026699Y012087D03*
X026949Y009587D03*
X026949Y008837D03*
X028699Y008837D03*
X028699Y009587D03*
D34*
X022399Y008637D02*
X021949Y009087D01*
X020699Y009087D01*
X020699Y010537D01*
X020099Y009237D02*
X019799Y009237D01*
X019699Y009137D01*
X019549Y009137D01*
X019549Y008537D01*
X020349Y007737D01*
X020349Y007137D01*
X020249Y009087D02*
X020699Y009087D01*
X020249Y009087D02*
X020099Y009237D01*
X019549Y009137D02*
X018999Y009137D01*
X017749Y009037D02*
X017699Y008987D01*
X017349Y009337D01*
X016975Y009337D01*
X016949Y009311D01*
X016123Y009311D01*
X016123Y009313D01*
X015399Y010037D01*
X015050Y010037D01*
X015199Y010138D01*
X016099Y009287D02*
X016123Y009311D01*
X016099Y009287D02*
X016099Y006087D01*
X016349Y005837D01*
X017199Y005837D01*
X017449Y005587D01*
X017449Y001837D01*
X012575Y004087D02*
X011447Y004087D01*
X011449Y004089D01*
X011449Y004437D01*
X011199Y004687D01*
X010749Y004687D01*
X010479Y004957D01*
X010479Y005427D01*
X010479Y006337D02*
X008949Y006337D01*
X008699Y006087D01*
X008699Y008087D02*
X008075Y008711D01*
X008075Y009587D01*
X008016Y010587D02*
X008016Y011527D01*
X008075Y011587D01*
X008075Y012063D01*
X009099Y013087D01*
X009099Y014987D01*
X008499Y015587D01*
X008034Y015587D01*
X007364Y015587D02*
X007349Y015602D01*
X007349Y016187D01*
X007099Y016437D01*
X006749Y016437D01*
X012649Y012687D02*
X012649Y012087D01*
X012799Y011937D01*
X012649Y012687D02*
X012899Y012937D01*
X012999Y010937D02*
X013049Y010937D01*
X013599Y010937D01*
X013949Y010587D01*
X009951Y004087D02*
X008784Y004087D01*
X008114Y004087D02*
X006843Y004087D01*
X006593Y003837D01*
D35*
X012575Y003711D02*
X012799Y003487D01*
X015549Y003487D01*
X015949Y003087D01*
X015949Y002587D01*
X012575Y003711D02*
X012575Y004087D01*
X008075Y009587D02*
X008075Y009913D01*
X008249Y010137D01*
X008649Y010137D01*
X008882Y010320D01*
X008882Y010587D01*
M02*
