G75*
G70*
%OFA0B0*%
%FSLAX24Y24*%
%IPPOS*%
%LPD*%
%AMOC8*
5,1,8,0,0,1.08239X$1,22.5*
%
%ADD10C,0.0050*%
%ADD11C,0.0000*%
%ADD12C,0.0100*%
%ADD13C,0.0120*%
%ADD14C,0.0030*%
%ADD15C,0.0080*%
%ADD16C,0.0060*%
%ADD17R,0.0276X0.0118*%
%ADD18C,0.0028*%
%ADD19R,0.0118X0.0059*%
%ADD20R,0.0118X0.0118*%
D10*
X002629Y007363D02*
X002629Y007714D01*
X002804Y007714D01*
X002862Y007655D01*
X002862Y007538D01*
X002804Y007480D01*
X002629Y007480D01*
X002997Y007363D02*
X002997Y007714D01*
X003231Y007714D02*
X003231Y007363D01*
X003114Y007480D01*
X002997Y007363D01*
X003366Y007363D02*
X003366Y007714D01*
X003541Y007714D01*
X003599Y007655D01*
X003599Y007538D01*
X003541Y007480D01*
X003366Y007480D01*
X003482Y007480D02*
X003599Y007363D01*
X003481Y008863D02*
X003247Y009214D01*
X003112Y009155D02*
X003112Y009038D01*
X003054Y008980D01*
X002879Y008980D01*
X002996Y008980D02*
X003112Y008863D01*
X003247Y008863D02*
X003481Y009214D01*
X003112Y009155D02*
X003054Y009214D01*
X002879Y009214D01*
X002879Y008863D01*
X002996Y009863D02*
X002996Y010214D01*
X003112Y010214D02*
X002879Y010214D01*
X003247Y010214D02*
X003481Y009863D01*
X003247Y009863D02*
X003481Y010214D01*
X003481Y011363D02*
X003247Y011363D01*
X003481Y011597D01*
X003481Y011655D01*
X003422Y011714D01*
X003306Y011714D01*
X003247Y011655D01*
X003112Y011363D02*
X002879Y011363D01*
X002879Y011714D01*
X002879Y012363D02*
X003112Y012363D01*
X003247Y012363D02*
X003481Y012363D01*
X003364Y012363D02*
X003364Y012714D01*
X003247Y012597D01*
X002879Y012714D02*
X002879Y012363D01*
X002388Y014301D02*
X002388Y017372D01*
X003963Y017372D02*
X005026Y017372D01*
X006010Y017372D02*
X006010Y014301D01*
X006010Y014577D02*
X006010Y015010D01*
X005026Y014301D02*
X003963Y014301D01*
X006010Y016663D02*
X006010Y017096D01*
X006329Y017463D02*
X006329Y017814D01*
X006504Y017814D01*
X006562Y017755D01*
X006562Y017638D01*
X006504Y017580D01*
X006329Y017580D01*
X006446Y017580D02*
X006562Y017463D01*
X006697Y017463D02*
X006931Y017463D01*
X007066Y017522D02*
X007124Y017463D01*
X007241Y017463D01*
X007299Y017522D01*
X007299Y017580D01*
X007241Y017638D01*
X007124Y017638D01*
X007066Y017697D01*
X007066Y017755D01*
X007124Y017814D01*
X007241Y017814D01*
X007299Y017755D01*
X007434Y017814D02*
X007434Y017463D01*
X007667Y017463D01*
X007551Y017638D02*
X007434Y017638D01*
X007434Y017814D02*
X007667Y017814D01*
X007802Y017814D02*
X008036Y017814D01*
X007919Y017814D02*
X007919Y017463D01*
X007759Y017963D02*
X007642Y017963D01*
X007584Y018022D01*
X007584Y018255D01*
X007642Y018314D01*
X007759Y018314D01*
X007817Y018255D01*
X007817Y018022D01*
X007759Y017963D01*
X007449Y018314D02*
X007216Y018314D01*
X007332Y018314D02*
X007332Y017963D01*
X007081Y018022D02*
X007081Y018314D01*
X006847Y018314D02*
X006847Y018022D01*
X006906Y017963D01*
X007022Y017963D01*
X007081Y018022D01*
X006931Y017814D02*
X006697Y017814D01*
X006697Y017463D01*
X006697Y017638D02*
X006814Y017638D01*
X006712Y017963D02*
X006712Y018197D01*
X006596Y018314D01*
X006479Y018197D01*
X006479Y017963D01*
X006479Y018138D02*
X006712Y018138D01*
X008229Y018463D02*
X008346Y018463D01*
X008287Y018463D02*
X008287Y018814D01*
X008229Y018814D02*
X008346Y018814D01*
X008474Y018755D02*
X008533Y018814D01*
X008650Y018814D01*
X008708Y018755D01*
X008843Y018755D02*
X008843Y018697D01*
X008901Y018638D01*
X009018Y018638D01*
X009076Y018580D01*
X009076Y018522D01*
X009018Y018463D01*
X008901Y018463D01*
X008843Y018522D01*
X008708Y018522D02*
X008650Y018463D01*
X008533Y018463D01*
X008474Y018522D01*
X008474Y018755D01*
X008843Y018755D02*
X008901Y018814D01*
X009018Y018814D01*
X009076Y018755D01*
X009211Y018814D02*
X009211Y018463D01*
X009211Y018580D02*
X009386Y018580D01*
X009445Y018638D01*
X009445Y018755D01*
X009386Y018814D01*
X009211Y018814D01*
X009686Y019170D02*
X009744Y019112D01*
X009802Y019112D01*
X009861Y019170D01*
X009861Y019287D01*
X009919Y019345D01*
X009978Y019345D01*
X010036Y019287D01*
X010036Y019170D01*
X009978Y019112D01*
X009686Y019170D02*
X009686Y019287D01*
X009744Y019345D01*
X009744Y019480D02*
X009978Y019480D01*
X010036Y019538D01*
X010036Y019655D01*
X009978Y019714D01*
X010036Y019848D02*
X010036Y020082D01*
X010036Y019848D02*
X009686Y019848D01*
X009744Y019714D02*
X009686Y019655D01*
X009686Y019538D01*
X009744Y019480D01*
X009948Y018814D02*
X009948Y018522D01*
X010006Y018463D01*
X010123Y018463D01*
X010181Y018522D01*
X010181Y018814D01*
X010316Y018755D02*
X010374Y018814D01*
X010491Y018814D01*
X010549Y018755D01*
X010491Y018638D02*
X010549Y018580D01*
X010549Y018522D01*
X010491Y018463D01*
X010374Y018463D01*
X010316Y018522D01*
X010374Y018638D02*
X010491Y018638D01*
X010374Y018638D02*
X010316Y018697D01*
X010316Y018755D01*
X010684Y018814D02*
X010684Y018463D01*
X010859Y018463D01*
X010918Y018522D01*
X010918Y018580D01*
X010859Y018638D01*
X010684Y018638D01*
X010859Y018638D02*
X010918Y018697D01*
X010918Y018755D01*
X010859Y018814D01*
X010684Y018814D01*
X010744Y019112D02*
X010686Y019170D01*
X010686Y019287D01*
X010744Y019345D01*
X010861Y019287D02*
X010919Y019345D01*
X010978Y019345D01*
X011036Y019287D01*
X011036Y019170D01*
X010978Y019112D01*
X010861Y019170D02*
X010861Y019287D01*
X010861Y019170D02*
X010802Y019112D01*
X010744Y019112D01*
X010686Y019480D02*
X010686Y019655D01*
X010744Y019714D01*
X010978Y019714D01*
X011036Y019655D01*
X011036Y019480D01*
X010686Y019480D01*
X010802Y019848D02*
X010686Y019965D01*
X010802Y020082D01*
X011036Y020082D01*
X010861Y020082D02*
X010861Y019848D01*
X010802Y019848D02*
X011036Y019848D01*
X011686Y019848D02*
X011686Y020082D01*
X011861Y019965D02*
X011861Y019848D01*
X012036Y019848D02*
X011686Y019848D01*
X011686Y019714D02*
X011686Y019480D01*
X012036Y019480D01*
X012036Y019714D01*
X011861Y019597D02*
X011861Y019480D01*
X011861Y019345D02*
X011919Y019287D01*
X011919Y019112D01*
X011919Y019229D02*
X012036Y019345D01*
X011861Y019345D02*
X011744Y019345D01*
X011686Y019287D01*
X011686Y019112D01*
X012036Y019112D01*
X012036Y018977D02*
X011802Y018977D01*
X011686Y018860D01*
X011802Y018744D01*
X012036Y018744D01*
X011861Y018744D02*
X011861Y018977D01*
X012681Y019160D02*
X012740Y019102D01*
X012973Y019102D01*
X013032Y019160D01*
X013032Y019277D01*
X012973Y019335D01*
X012856Y019335D01*
X012856Y019219D01*
X012740Y019335D02*
X012681Y019277D01*
X012681Y019160D01*
X012681Y019470D02*
X013032Y019704D01*
X012681Y019704D01*
X012681Y019838D02*
X012681Y020014D01*
X012740Y020072D01*
X012973Y020072D01*
X013032Y020014D01*
X013032Y019838D01*
X012681Y019838D01*
X012681Y019470D02*
X013032Y019470D01*
X013674Y019592D02*
X014024Y019592D01*
X014024Y019708D02*
X014024Y019475D01*
X013966Y019340D02*
X013732Y019340D01*
X013674Y019282D01*
X013674Y019107D01*
X014024Y019107D01*
X014024Y019282D01*
X013966Y019340D01*
X013791Y019475D02*
X013674Y019592D01*
X013732Y019843D02*
X013674Y019902D01*
X013674Y020018D01*
X013732Y020077D01*
X013791Y020077D01*
X013849Y020018D01*
X013907Y020077D01*
X013966Y020077D01*
X014024Y020018D01*
X014024Y019902D01*
X013966Y019843D01*
X013849Y019960D02*
X013849Y020018D01*
X014674Y020018D02*
X014674Y019902D01*
X014732Y019843D01*
X014674Y020018D02*
X014732Y020077D01*
X014791Y020077D01*
X015024Y019843D01*
X015024Y020077D01*
X015024Y019708D02*
X015024Y019475D01*
X015024Y019592D02*
X014674Y019592D01*
X014791Y019475D01*
X014732Y019340D02*
X014674Y019282D01*
X014674Y019107D01*
X015024Y019107D01*
X015024Y019282D01*
X014966Y019340D01*
X014732Y019340D01*
X014791Y018972D02*
X014791Y018913D01*
X014791Y018738D01*
X014907Y018738D02*
X014907Y018972D01*
X015024Y018913D02*
X014674Y018913D01*
X014674Y018797D02*
X015024Y018797D01*
X015674Y019107D02*
X015674Y019282D01*
X015732Y019340D01*
X015966Y019340D01*
X016024Y019282D01*
X016024Y019107D01*
X015674Y019107D01*
X015791Y019475D02*
X015674Y019592D01*
X016024Y019592D01*
X016024Y019708D02*
X016024Y019475D01*
X016024Y019843D02*
X016024Y020077D01*
X016024Y019960D02*
X015674Y019960D01*
X015791Y019843D01*
X016674Y019902D02*
X016674Y020018D01*
X016732Y020077D01*
X016966Y019843D01*
X017024Y019902D01*
X017024Y020018D01*
X016966Y020077D01*
X016732Y020077D01*
X016674Y019902D02*
X016732Y019843D01*
X016966Y019843D01*
X017024Y019708D02*
X017024Y019475D01*
X017024Y019592D02*
X016674Y019592D01*
X016791Y019475D01*
X016732Y019340D02*
X016674Y019282D01*
X016674Y019107D01*
X017024Y019107D01*
X017024Y019282D01*
X016966Y019340D01*
X016732Y019340D01*
X016791Y018972D02*
X016791Y018913D01*
X016791Y018738D01*
X016907Y018738D02*
X016907Y018972D01*
X017024Y018913D02*
X016674Y018913D01*
X016674Y018797D02*
X017024Y018797D01*
X017674Y019165D02*
X018024Y019165D01*
X018024Y019282D02*
X017674Y019282D01*
X017791Y019282D02*
X017791Y019107D01*
X017907Y019107D02*
X017907Y019340D01*
X017791Y019340D02*
X017791Y019282D01*
X017674Y019475D02*
X018024Y019475D01*
X018024Y019650D01*
X017966Y019708D01*
X017732Y019708D01*
X017674Y019650D01*
X017674Y019475D01*
X017732Y019843D02*
X017791Y019843D01*
X017849Y019902D01*
X017849Y020077D01*
X017966Y020077D02*
X017732Y020077D01*
X017674Y020018D01*
X017674Y019902D01*
X017732Y019843D01*
X017966Y019843D02*
X018024Y019902D01*
X018024Y020018D01*
X017966Y020077D01*
X018674Y020018D02*
X018674Y019902D01*
X018732Y019843D01*
X018791Y019843D01*
X018849Y019902D01*
X018849Y020018D01*
X018907Y020077D01*
X018966Y020077D01*
X019024Y020018D01*
X019024Y019902D01*
X018966Y019843D01*
X018907Y019843D01*
X018849Y019902D01*
X018849Y020018D02*
X018791Y020077D01*
X018732Y020077D01*
X018674Y020018D01*
X018732Y019708D02*
X018674Y019650D01*
X018674Y019475D01*
X019024Y019475D01*
X019024Y019650D01*
X018966Y019708D01*
X018732Y019708D01*
X018763Y018512D02*
X018646Y018512D01*
X018588Y018453D01*
X018588Y018220D01*
X018646Y018162D01*
X018763Y018162D01*
X018821Y018220D01*
X018821Y018337D01*
X018705Y018337D01*
X018821Y018453D02*
X018763Y018512D01*
X018956Y018512D02*
X019073Y018512D01*
X019015Y018512D02*
X019015Y018162D01*
X019073Y018162D02*
X018956Y018162D01*
X019202Y018512D02*
X019435Y018512D01*
X019319Y018512D02*
X019319Y018162D01*
X019570Y018162D02*
X019570Y018395D01*
X019687Y018512D01*
X019804Y018395D01*
X019804Y018162D01*
X019938Y018162D02*
X019938Y018512D01*
X019804Y018337D02*
X019570Y018337D01*
X019938Y018162D02*
X020172Y018162D01*
X020675Y018278D02*
X020675Y018395D01*
X020792Y018512D01*
X020921Y018512D02*
X020921Y018162D01*
X020921Y018278D02*
X021096Y018278D01*
X021154Y018337D01*
X021154Y018453D01*
X021096Y018512D01*
X020921Y018512D01*
X020675Y018278D02*
X020792Y018162D01*
X021289Y018162D02*
X021406Y018278D01*
X021522Y018162D01*
X021522Y018512D01*
X021657Y018512D02*
X021774Y018395D01*
X021891Y018512D01*
X021891Y018162D01*
X021657Y018162D02*
X021657Y018512D01*
X021289Y018512D02*
X021289Y018162D01*
X021391Y019107D02*
X021391Y019282D01*
X021391Y019340D01*
X021507Y019340D02*
X021507Y019107D01*
X021624Y019165D02*
X021274Y019165D01*
X021274Y019282D02*
X021624Y019282D01*
X021624Y019475D02*
X021624Y019650D01*
X021566Y019708D01*
X021332Y019708D01*
X021274Y019650D01*
X021274Y019475D01*
X021624Y019475D01*
X021566Y019843D02*
X021624Y019902D01*
X021624Y020018D01*
X021566Y020077D01*
X021507Y020077D01*
X021449Y020018D01*
X021449Y019843D01*
X021566Y019843D01*
X021449Y019843D02*
X021332Y019960D01*
X021274Y020077D01*
X020624Y019843D02*
X020566Y019843D01*
X020332Y020077D01*
X020274Y020077D01*
X020274Y019843D01*
X020332Y019708D02*
X020274Y019650D01*
X020274Y019475D01*
X020624Y019475D01*
X020624Y019650D01*
X020566Y019708D01*
X020332Y019708D01*
X020391Y019340D02*
X020391Y019282D01*
X020391Y019107D01*
X020507Y019107D02*
X020507Y019340D01*
X020624Y019282D02*
X020274Y019282D01*
X020274Y019165D02*
X020624Y019165D01*
X022274Y019165D02*
X022624Y019165D01*
X022624Y019282D02*
X022274Y019282D01*
X022391Y019282D02*
X022391Y019107D01*
X022507Y019107D02*
X022507Y019340D01*
X022391Y019340D02*
X022391Y019282D01*
X022274Y019475D02*
X022624Y019475D01*
X022624Y019650D01*
X022566Y019708D01*
X022332Y019708D01*
X022274Y019650D01*
X022274Y019475D01*
X022274Y019843D02*
X022449Y019843D01*
X022391Y019960D01*
X022391Y020018D01*
X022449Y020077D01*
X022566Y020077D01*
X022624Y020018D01*
X022624Y019902D01*
X022566Y019843D01*
X022274Y019843D02*
X022274Y020077D01*
X023274Y020018D02*
X023449Y019843D01*
X023449Y020077D01*
X023624Y020018D02*
X023274Y020018D01*
X023332Y019708D02*
X023274Y019650D01*
X023274Y019475D01*
X023624Y019475D01*
X023624Y019650D01*
X023566Y019708D01*
X023332Y019708D01*
X023391Y019340D02*
X023391Y019282D01*
X023391Y019107D01*
X023507Y019107D02*
X023507Y019340D01*
X023624Y019282D02*
X023274Y019282D01*
X023274Y019165D02*
X023624Y019165D01*
X024274Y019475D02*
X024274Y019650D01*
X024332Y019708D01*
X024566Y019708D01*
X024624Y019650D01*
X024624Y019475D01*
X024274Y019475D01*
X024332Y019843D02*
X024274Y019902D01*
X024274Y020018D01*
X024332Y020077D01*
X024391Y020077D01*
X024449Y020018D01*
X024507Y020077D01*
X024566Y020077D01*
X024624Y020018D01*
X024624Y019902D01*
X024566Y019843D01*
X024449Y019960D02*
X024449Y020018D01*
X025274Y020018D02*
X025274Y019902D01*
X025332Y019843D01*
X025332Y019708D02*
X025274Y019650D01*
X025274Y019475D01*
X025624Y019475D01*
X025624Y019650D01*
X025566Y019708D01*
X025332Y019708D01*
X025624Y019843D02*
X025391Y020077D01*
X025332Y020077D01*
X025274Y020018D01*
X025624Y020077D02*
X025624Y019843D01*
X026274Y019960D02*
X026624Y019960D01*
X026624Y019843D02*
X026624Y020077D01*
X026391Y019843D02*
X026274Y019960D01*
X026332Y019708D02*
X026274Y019650D01*
X026274Y019475D01*
X026624Y019475D01*
X026624Y019650D01*
X026566Y019708D01*
X026332Y019708D01*
X027274Y019650D02*
X027274Y019475D01*
X027624Y019475D01*
X027624Y019650D01*
X027566Y019708D01*
X027332Y019708D01*
X027274Y019650D01*
X027332Y019843D02*
X027274Y019902D01*
X027274Y020018D01*
X027332Y020077D01*
X027566Y019843D01*
X027624Y019902D01*
X027624Y020018D01*
X027566Y020077D01*
X027332Y020077D01*
X027332Y019843D02*
X027566Y019843D01*
X027566Y017977D02*
X027624Y017918D01*
X027624Y017802D01*
X027566Y017743D01*
X027332Y017977D01*
X027566Y017977D01*
X027332Y017977D02*
X027274Y017918D01*
X027274Y017802D01*
X027332Y017743D01*
X027566Y017743D01*
X027624Y017608D02*
X027274Y017375D01*
X027332Y017240D02*
X027449Y017240D01*
X027507Y017182D01*
X027507Y017007D01*
X027507Y017123D02*
X027624Y017240D01*
X027624Y017375D02*
X027274Y017608D01*
X027332Y017240D02*
X027274Y017182D01*
X027274Y017007D01*
X027624Y017007D01*
X026626Y017119D02*
X026276Y017119D01*
X026276Y017235D02*
X026276Y017002D01*
X026276Y017370D02*
X026626Y017604D01*
X026568Y017738D02*
X026334Y017738D01*
X026276Y017797D01*
X026276Y017914D01*
X026334Y017972D01*
X026568Y017738D01*
X026626Y017797D01*
X026626Y017914D01*
X026568Y017972D01*
X026334Y017972D01*
X026276Y017604D02*
X026626Y017370D01*
X025624Y017375D02*
X025274Y017608D01*
X025391Y017743D02*
X025274Y017860D01*
X025624Y017860D01*
X025624Y017743D02*
X025624Y017977D01*
X025624Y017608D02*
X025274Y017375D01*
X025332Y017240D02*
X025449Y017240D01*
X025507Y017182D01*
X025507Y017007D01*
X025507Y017123D02*
X025624Y017240D01*
X025624Y017007D02*
X025274Y017007D01*
X025274Y017182D01*
X025332Y017240D01*
X024626Y017119D02*
X024276Y017119D01*
X024276Y017235D02*
X024276Y017002D01*
X024276Y017370D02*
X024626Y017604D01*
X024626Y017738D02*
X024626Y017972D01*
X024626Y017855D02*
X024276Y017855D01*
X024392Y017738D01*
X024276Y017604D02*
X024626Y017370D01*
X022879Y018278D02*
X022879Y018395D01*
X022762Y018512D01*
X022627Y018395D02*
X022569Y018395D01*
X022394Y018395D01*
X022394Y018278D02*
X022627Y018278D01*
X022569Y018162D02*
X022569Y018512D01*
X022452Y018512D02*
X022452Y018162D01*
X022762Y018162D02*
X022879Y018278D01*
X022621Y016362D02*
X022680Y016303D01*
X022446Y016070D01*
X022505Y016012D01*
X022621Y016012D01*
X022680Y016070D01*
X022680Y016303D01*
X022621Y016362D02*
X022505Y016362D01*
X022446Y016303D01*
X022446Y016070D01*
X022311Y016070D02*
X022253Y016012D01*
X022136Y016012D01*
X022078Y016070D01*
X022195Y016187D02*
X022253Y016187D01*
X022311Y016128D01*
X022311Y016070D01*
X022253Y016187D02*
X022311Y016245D01*
X022311Y016303D01*
X022253Y016362D01*
X022136Y016362D01*
X022078Y016303D01*
X021943Y016362D02*
X021710Y016012D01*
X021575Y016012D02*
X021341Y016012D01*
X021575Y016245D01*
X021575Y016303D01*
X021516Y016362D01*
X021400Y016362D01*
X021341Y016303D01*
X021090Y016362D02*
X020973Y016245D01*
X021090Y016362D02*
X021090Y016012D01*
X020973Y016012D02*
X021207Y016012D01*
X021145Y015762D02*
X021145Y015412D01*
X020970Y015412D01*
X020912Y015470D01*
X020912Y015587D01*
X020970Y015645D01*
X021145Y015645D01*
X021280Y015587D02*
X021338Y015645D01*
X021455Y015645D01*
X021513Y015587D01*
X021513Y015528D01*
X021280Y015528D01*
X021280Y015470D02*
X021280Y015587D01*
X021280Y015470D02*
X021338Y015412D01*
X021455Y015412D01*
X021648Y015412D02*
X021648Y015645D01*
X021823Y015645D01*
X021882Y015587D01*
X021882Y015412D01*
X020777Y015412D02*
X020777Y015587D01*
X020718Y015645D01*
X020543Y015645D01*
X020543Y015412D01*
X020415Y015412D02*
X020298Y015412D01*
X020356Y015412D02*
X020356Y015645D01*
X020298Y015645D01*
X020356Y015762D02*
X020356Y015820D01*
X020353Y016012D02*
X020353Y016362D01*
X020236Y016245D01*
X020236Y016012D02*
X020470Y016012D01*
X020605Y016012D02*
X020838Y016362D01*
X020102Y016012D02*
X019868Y016012D01*
X019985Y016012D02*
X019985Y016362D01*
X019868Y016245D01*
X019733Y016303D02*
X019733Y016070D01*
X019675Y016012D01*
X019558Y016012D01*
X019500Y016070D01*
X019733Y016303D01*
X019675Y016362D01*
X019558Y016362D01*
X019500Y016303D01*
X019500Y016070D01*
X019365Y016012D02*
X019131Y016012D01*
X019365Y016245D01*
X019365Y016303D01*
X019307Y016362D01*
X019190Y016362D01*
X019131Y016303D01*
X018628Y016303D02*
X018628Y016245D01*
X018395Y016012D01*
X018628Y016012D01*
X018696Y015762D02*
X018579Y015645D01*
X018579Y015412D01*
X018579Y015587D02*
X018813Y015587D01*
X018813Y015645D02*
X018813Y015412D01*
X018947Y015470D02*
X018947Y015587D01*
X019006Y015645D01*
X019181Y015645D01*
X019181Y015762D02*
X019181Y015412D01*
X019006Y015412D01*
X018947Y015470D01*
X018813Y015645D02*
X018696Y015762D01*
X018269Y016012D02*
X018269Y016070D01*
X018211Y016070D01*
X018211Y016012D01*
X018269Y016012D01*
X018076Y016070D02*
X018018Y016012D01*
X017901Y016012D01*
X017842Y016070D01*
X018076Y016303D01*
X018076Y016070D01*
X018076Y016303D02*
X018018Y016362D01*
X017901Y016362D01*
X017842Y016303D01*
X017842Y016070D01*
X017708Y016245D02*
X017591Y016012D01*
X017474Y016245D01*
X017474Y015762D02*
X017474Y015412D01*
X017649Y015412D01*
X017708Y015470D01*
X017708Y015587D01*
X017649Y015645D01*
X017474Y015645D01*
X017842Y015645D02*
X017842Y015470D01*
X017901Y015412D01*
X018076Y015412D01*
X018076Y015353D02*
X018018Y015295D01*
X017959Y015295D01*
X018076Y015353D02*
X018076Y015645D01*
X018395Y016303D02*
X018453Y016362D01*
X018570Y016362D01*
X018628Y016303D01*
X019374Y015820D02*
X019374Y015762D01*
X019374Y015645D02*
X019374Y015412D01*
X019316Y015412D02*
X019432Y015412D01*
X019374Y015645D02*
X019316Y015645D01*
X019929Y015762D02*
X019929Y015412D01*
X020163Y015412D01*
X018459Y018162D02*
X018342Y018162D01*
X018401Y018162D02*
X018401Y018512D01*
X018459Y018512D02*
X018342Y018512D01*
X018208Y018453D02*
X018149Y018512D01*
X017974Y018512D01*
X017974Y018162D01*
X018149Y018162D01*
X018208Y018220D01*
X018208Y018453D01*
X014024Y018797D02*
X013674Y018797D01*
X013674Y018913D02*
X014024Y018913D01*
X013907Y018972D02*
X013907Y018738D01*
X013791Y018738D02*
X013791Y018913D01*
X013791Y018972D01*
X008718Y016210D02*
X008718Y015860D01*
X008601Y015860D02*
X008835Y015860D01*
X008601Y016093D02*
X008718Y016210D01*
X003322Y019516D02*
X002972Y019516D01*
X002972Y019691D01*
X003031Y019750D01*
X003147Y019750D01*
X003206Y019691D01*
X003206Y019516D01*
X003206Y019633D02*
X003322Y019750D01*
X003322Y019885D02*
X003322Y020118D01*
X003264Y020253D02*
X003322Y020311D01*
X003322Y020428D01*
X003264Y020486D01*
X003206Y020486D01*
X003147Y020428D01*
X003147Y020311D01*
X003089Y020253D01*
X003031Y020253D01*
X002972Y020311D01*
X002972Y020428D01*
X003031Y020486D01*
X002972Y020621D02*
X003322Y020621D01*
X003322Y020855D01*
X003147Y020738D02*
X003147Y020621D01*
X002972Y020621D02*
X002972Y020855D01*
X002972Y020990D02*
X002972Y021223D01*
X002972Y021106D02*
X003322Y021106D01*
X002972Y020118D02*
X002972Y019885D01*
X003322Y019885D01*
X003147Y019885D02*
X003147Y020001D01*
X014369Y012996D02*
X014369Y011240D01*
X014371Y011223D01*
X014376Y011206D01*
X014384Y011191D01*
X014395Y011178D01*
X014408Y011167D01*
X014423Y011159D01*
X014440Y011154D01*
X014457Y011152D01*
X015478Y011152D01*
X015499Y011151D01*
X015520Y011153D01*
X015540Y011158D01*
X015559Y011166D01*
X015576Y011177D01*
X015592Y011190D01*
X015605Y011206D01*
X015616Y011224D01*
X015624Y011243D01*
X015629Y011263D01*
X015629Y011264D02*
X015629Y013009D01*
X015629Y013010D02*
X015624Y013030D01*
X015616Y013049D01*
X015605Y013067D01*
X015592Y013083D01*
X015576Y013096D01*
X015559Y013107D01*
X015540Y013115D01*
X015520Y013120D01*
X015499Y013122D01*
X015478Y013121D01*
X014494Y013121D01*
X014494Y013120D02*
X014475Y013118D01*
X014456Y013114D01*
X014438Y013106D01*
X014421Y013096D01*
X014406Y013084D01*
X014394Y013069D01*
X014384Y013052D01*
X014376Y013034D01*
X014372Y013015D01*
X014370Y012996D01*
X014487Y012688D02*
X014487Y011585D01*
X014488Y011585D02*
X014490Y011557D01*
X014495Y011529D01*
X014503Y011501D01*
X014515Y011475D01*
X014530Y011451D01*
X014547Y011429D01*
X014568Y011408D01*
X014590Y011391D01*
X014614Y011376D01*
X014640Y011364D01*
X014668Y011356D01*
X014696Y011351D01*
X014724Y011349D01*
X015275Y011349D01*
X015305Y011353D01*
X015335Y011361D01*
X015364Y011372D01*
X015392Y011387D01*
X015417Y011405D01*
X015440Y011426D01*
X015460Y011450D01*
X015477Y011476D01*
X015491Y011503D01*
X015502Y011533D01*
X015509Y011563D01*
X015512Y011594D01*
X015511Y011625D01*
X015511Y012688D01*
X015510Y012687D02*
X015511Y012716D01*
X015508Y012744D01*
X015501Y012772D01*
X015491Y012798D01*
X015477Y012823D01*
X015461Y012846D01*
X015441Y012866D01*
X015419Y012884D01*
X015395Y012899D01*
X015369Y012911D01*
X015342Y012919D01*
X015314Y012923D01*
X015314Y012924D02*
X014763Y012924D01*
X014732Y012925D01*
X014701Y012922D01*
X014671Y012915D01*
X014641Y012904D01*
X014614Y012890D01*
X014588Y012873D01*
X014564Y012853D01*
X014543Y012830D01*
X014525Y012805D01*
X014510Y012777D01*
X014499Y012749D01*
X014491Y012719D01*
X014487Y012688D01*
X009172Y009587D02*
X008187Y009587D01*
X015324Y004268D02*
X015324Y004035D01*
X015324Y004151D02*
X015674Y004151D01*
X015674Y003900D02*
X015674Y003666D01*
X015324Y003666D01*
X015324Y003900D01*
X015499Y003783D02*
X015499Y003666D01*
X015557Y003532D02*
X015616Y003532D01*
X015674Y003473D01*
X015674Y003356D01*
X015616Y003298D01*
X015499Y003356D02*
X015499Y003473D01*
X015557Y003532D01*
X015382Y003532D02*
X015324Y003473D01*
X015324Y003356D01*
X015382Y003298D01*
X015441Y003298D01*
X015499Y003356D01*
X015674Y003163D02*
X015674Y002930D01*
X015324Y002930D01*
X015324Y003163D01*
X015499Y003047D02*
X015499Y002930D01*
X015499Y002795D02*
X015557Y002737D01*
X015557Y002562D01*
X015557Y002678D02*
X015674Y002795D01*
X015499Y002795D02*
X015382Y002795D01*
X015324Y002737D01*
X015324Y002562D01*
X015674Y002562D01*
X016324Y002620D02*
X016324Y002737D01*
X016382Y002795D01*
X016441Y002795D01*
X016499Y002737D01*
X016557Y002795D01*
X016616Y002795D01*
X016674Y002737D01*
X016674Y002620D01*
X016616Y002562D01*
X016499Y002678D02*
X016499Y002737D01*
X016557Y002930D02*
X016324Y002930D01*
X016324Y003163D02*
X016557Y003163D01*
X016674Y003047D01*
X016557Y002930D01*
X016324Y002620D02*
X016382Y002562D01*
X016382Y003298D02*
X016324Y003356D01*
X016324Y003473D01*
X016382Y003532D01*
X016441Y003532D01*
X016499Y003473D01*
X016557Y003532D01*
X016616Y003532D01*
X016674Y003473D01*
X016674Y003356D01*
X016616Y003298D01*
X016499Y003415D02*
X016499Y003473D01*
X017324Y003163D02*
X017557Y003163D01*
X017674Y003047D01*
X017557Y002930D01*
X017324Y002930D01*
X017324Y002795D02*
X017324Y002562D01*
X017499Y002562D01*
X017441Y002678D01*
X017441Y002737D01*
X017499Y002795D01*
X017616Y002795D01*
X017674Y002737D01*
X017674Y002620D01*
X017616Y002562D01*
X018324Y002620D02*
X018382Y002562D01*
X018616Y002562D01*
X018674Y002620D01*
X018674Y002737D01*
X018616Y002795D01*
X018499Y002795D01*
X018499Y002678D01*
X018382Y002795D02*
X018324Y002737D01*
X018324Y002620D01*
X018324Y002930D02*
X018674Y003163D01*
X018324Y003163D01*
X018324Y003298D02*
X018324Y003473D01*
X018382Y003532D01*
X018616Y003532D01*
X018674Y003473D01*
X018674Y003298D01*
X018324Y003298D01*
X018324Y002930D02*
X018674Y002930D01*
X019324Y002930D02*
X019674Y003163D01*
X019324Y003163D01*
X019324Y003298D02*
X019324Y003473D01*
X019382Y003532D01*
X019616Y003532D01*
X019674Y003473D01*
X019674Y003298D01*
X019324Y003298D01*
X019324Y002930D02*
X019674Y002930D01*
X019616Y002795D02*
X019499Y002795D01*
X019499Y002678D01*
X019382Y002562D02*
X019616Y002562D01*
X019674Y002620D01*
X019674Y002737D01*
X019616Y002795D01*
X019382Y002795D02*
X019324Y002737D01*
X019324Y002620D01*
X019382Y002562D01*
X020324Y002562D02*
X020557Y002562D01*
X020674Y002678D01*
X020557Y002795D01*
X020324Y002795D01*
X020324Y002930D02*
X020324Y003047D01*
X020324Y002988D02*
X020674Y002988D01*
X020674Y002930D02*
X020674Y003047D01*
X020674Y003175D02*
X020324Y003175D01*
X020674Y003409D01*
X020324Y003409D01*
X019181Y003912D02*
X019064Y004028D01*
X019122Y004028D02*
X018947Y004028D01*
X018947Y003912D02*
X018947Y004262D01*
X019122Y004262D01*
X019181Y004203D01*
X019181Y004087D01*
X019122Y004028D01*
X018813Y003912D02*
X018579Y003912D01*
X018579Y004262D01*
X018813Y004262D01*
X018696Y004087D02*
X018579Y004087D01*
X018444Y003912D02*
X018444Y004262D01*
X018211Y004262D02*
X018211Y003912D01*
X018327Y004028D01*
X018444Y003912D01*
X018076Y003970D02*
X018076Y004203D01*
X018018Y004262D01*
X017901Y004262D01*
X017842Y004203D01*
X017842Y003970D01*
X017901Y003912D01*
X018018Y003912D01*
X018076Y003970D01*
X017708Y004087D02*
X017708Y004203D01*
X017649Y004262D01*
X017474Y004262D01*
X017474Y003912D01*
X017474Y004028D02*
X017649Y004028D01*
X017708Y004087D01*
X022324Y003105D02*
X022382Y003163D01*
X022616Y002930D01*
X022674Y002988D01*
X022674Y003105D01*
X022616Y003163D01*
X022382Y003163D01*
X022324Y003105D02*
X022324Y002988D01*
X022382Y002930D01*
X022616Y002930D01*
X022674Y002795D02*
X022441Y002795D01*
X022324Y002678D01*
X022441Y002562D01*
X022674Y002562D01*
X022499Y002562D02*
X022499Y002795D01*
X023324Y002678D02*
X023441Y002795D01*
X023674Y002795D01*
X023674Y002930D02*
X023674Y003163D01*
X023674Y003047D02*
X023324Y003047D01*
X023441Y002930D01*
X023499Y002795D02*
X023499Y002562D01*
X023441Y002562D02*
X023324Y002678D01*
X023441Y002562D02*
X023674Y002562D01*
X024324Y002678D02*
X024441Y002795D01*
X024674Y002795D01*
X024674Y002930D02*
X024441Y003163D01*
X024382Y003163D01*
X024324Y003105D01*
X024324Y002988D01*
X024382Y002930D01*
X024499Y002795D02*
X024499Y002562D01*
X024441Y002562D02*
X024324Y002678D01*
X024441Y002562D02*
X024674Y002562D01*
X024674Y002930D02*
X024674Y003163D01*
X025324Y003105D02*
X025382Y003163D01*
X025441Y003163D01*
X025499Y003105D01*
X025557Y003163D01*
X025616Y003163D01*
X025674Y003105D01*
X025674Y002988D01*
X025616Y002930D01*
X025674Y002795D02*
X025441Y002795D01*
X025324Y002678D01*
X025441Y002562D01*
X025674Y002562D01*
X025499Y002562D02*
X025499Y002795D01*
X025382Y002930D02*
X025324Y002988D01*
X025324Y003105D01*
X025499Y003105D02*
X025499Y003047D01*
X026324Y003105D02*
X026499Y002930D01*
X026499Y003163D01*
X026674Y003105D02*
X026324Y003105D01*
X026441Y002795D02*
X026674Y002795D01*
X026499Y002795D02*
X026499Y002562D01*
X026441Y002562D02*
X026324Y002678D01*
X026441Y002795D01*
X026441Y002562D02*
X026674Y002562D01*
X027324Y002678D02*
X027441Y002795D01*
X027674Y002795D01*
X027616Y002930D02*
X027674Y002988D01*
X027674Y003105D01*
X027616Y003163D01*
X027499Y003163D01*
X027441Y003105D01*
X027441Y003047D01*
X027499Y002930D01*
X027324Y002930D01*
X027324Y003163D01*
X027499Y002795D02*
X027499Y002562D01*
X027441Y002562D02*
X027324Y002678D01*
X027441Y002562D02*
X027674Y002562D01*
X026049Y003970D02*
X025991Y003912D01*
X025874Y003912D01*
X025816Y003970D01*
X025816Y004203D01*
X025874Y004262D01*
X025991Y004262D01*
X026049Y004203D01*
X026049Y004087D02*
X025932Y004087D01*
X026049Y004087D02*
X026049Y003970D01*
X025681Y003970D02*
X025681Y004203D01*
X025622Y004262D01*
X025506Y004262D01*
X025447Y004203D01*
X025447Y003970D01*
X025506Y003912D01*
X025622Y003912D01*
X025681Y003970D01*
X025313Y003912D02*
X025079Y003912D01*
X025079Y004262D01*
X024944Y004145D02*
X024944Y003912D01*
X024944Y004087D02*
X024711Y004087D01*
X024711Y004145D02*
X024711Y003912D01*
X024576Y003912D02*
X024576Y004262D01*
X024711Y004145D02*
X024827Y004262D01*
X024944Y004145D01*
X024576Y003912D02*
X024342Y004262D01*
X024342Y003912D01*
X024208Y003912D02*
X024208Y004145D01*
X024091Y004262D01*
X023974Y004145D01*
X023974Y003912D01*
X023974Y004087D02*
X024208Y004087D01*
X024270Y009102D02*
X025255Y009102D01*
X025255Y009103D02*
X025274Y009105D01*
X025293Y009109D01*
X025311Y009117D01*
X025328Y009127D01*
X025343Y009139D01*
X025355Y009154D01*
X025365Y009171D01*
X025373Y009189D01*
X025377Y009208D01*
X025379Y009227D01*
X025379Y010983D01*
X025377Y011000D01*
X025372Y011017D01*
X025364Y011032D01*
X025353Y011045D01*
X025340Y011056D01*
X025325Y011064D01*
X025308Y011069D01*
X025291Y011071D01*
X024270Y011071D01*
X024249Y011072D01*
X024228Y011070D01*
X024208Y011065D01*
X024189Y011057D01*
X024172Y011046D01*
X024156Y011033D01*
X024143Y011017D01*
X024132Y010999D01*
X024124Y010980D01*
X024119Y010960D01*
X024119Y010959D02*
X024119Y009214D01*
X024119Y009213D02*
X024124Y009193D01*
X024132Y009174D01*
X024143Y009156D01*
X024156Y009140D01*
X024172Y009127D01*
X024189Y009116D01*
X024208Y009108D01*
X024228Y009103D01*
X024249Y009101D01*
X024270Y009102D01*
X024434Y009299D02*
X024985Y009299D01*
X025016Y009298D01*
X025047Y009301D01*
X025077Y009308D01*
X025107Y009319D01*
X025134Y009333D01*
X025160Y009350D01*
X025184Y009370D01*
X025205Y009393D01*
X025223Y009418D01*
X025238Y009446D01*
X025249Y009474D01*
X025257Y009504D01*
X025261Y009535D01*
X025261Y010638D01*
X025259Y010666D01*
X025254Y010694D01*
X025246Y010722D01*
X025234Y010748D01*
X025219Y010772D01*
X025202Y010794D01*
X025181Y010815D01*
X025159Y010832D01*
X025135Y010847D01*
X025109Y010859D01*
X025081Y010867D01*
X025053Y010872D01*
X025025Y010874D01*
X024474Y010874D01*
X024473Y010874D02*
X024443Y010870D01*
X024413Y010862D01*
X024384Y010851D01*
X024356Y010836D01*
X024331Y010818D01*
X024308Y010797D01*
X024288Y010773D01*
X024271Y010747D01*
X024257Y010720D01*
X024246Y010690D01*
X024239Y010660D01*
X024236Y010629D01*
X024237Y010598D01*
X024237Y009535D01*
X024238Y009536D02*
X024237Y009507D01*
X024240Y009479D01*
X024247Y009451D01*
X024257Y009425D01*
X024271Y009400D01*
X024287Y009377D01*
X024307Y009357D01*
X024329Y009339D01*
X024353Y009324D01*
X024379Y009312D01*
X024406Y009304D01*
X024434Y009300D01*
X026472Y010366D02*
X026472Y010483D01*
X026472Y010425D02*
X026822Y010425D01*
X026822Y010483D02*
X026822Y010366D01*
X026764Y010612D02*
X026531Y010612D01*
X026472Y010670D01*
X026472Y010787D01*
X026531Y010845D01*
X026531Y010980D02*
X026589Y010980D01*
X026647Y011039D01*
X026647Y011155D01*
X026706Y011214D01*
X026764Y011214D01*
X026822Y011155D01*
X026822Y011039D01*
X026764Y010980D01*
X026764Y010845D02*
X026822Y010787D01*
X026822Y010670D01*
X026764Y010612D01*
X026531Y010980D02*
X026472Y011039D01*
X026472Y011155D01*
X026531Y011214D01*
X026472Y011348D02*
X026472Y011524D01*
X026531Y011582D01*
X026647Y011582D01*
X026706Y011524D01*
X026706Y011348D01*
X026822Y011348D02*
X026472Y011348D01*
X026589Y012716D02*
X026472Y012833D01*
X026822Y012833D01*
X026822Y012716D02*
X026822Y012950D01*
D11*
X027819Y014837D02*
X027821Y014887D01*
X027827Y014937D01*
X027837Y014986D01*
X027851Y015034D01*
X027868Y015081D01*
X027889Y015126D01*
X027914Y015170D01*
X027942Y015211D01*
X027974Y015250D01*
X028008Y015287D01*
X028045Y015321D01*
X028085Y015351D01*
X028127Y015378D01*
X028171Y015402D01*
X028217Y015423D01*
X028264Y015439D01*
X028312Y015452D01*
X028362Y015461D01*
X028411Y015466D01*
X028462Y015467D01*
X028512Y015464D01*
X028561Y015457D01*
X028610Y015446D01*
X028658Y015431D01*
X028704Y015413D01*
X028749Y015391D01*
X028792Y015365D01*
X028833Y015336D01*
X028872Y015304D01*
X028908Y015269D01*
X028940Y015231D01*
X028970Y015191D01*
X028997Y015148D01*
X029020Y015104D01*
X029039Y015058D01*
X029055Y015010D01*
X029067Y014961D01*
X029075Y014912D01*
X029079Y014862D01*
X029079Y014812D01*
X029075Y014762D01*
X029067Y014713D01*
X029055Y014664D01*
X029039Y014616D01*
X029020Y014570D01*
X028997Y014526D01*
X028970Y014483D01*
X028940Y014443D01*
X028908Y014405D01*
X028872Y014370D01*
X028833Y014338D01*
X028792Y014309D01*
X028749Y014283D01*
X028704Y014261D01*
X028658Y014243D01*
X028610Y014228D01*
X028561Y014217D01*
X028512Y014210D01*
X028462Y014207D01*
X028411Y014208D01*
X028362Y014213D01*
X028312Y014222D01*
X028264Y014235D01*
X028217Y014251D01*
X028171Y014272D01*
X028127Y014296D01*
X028085Y014323D01*
X028045Y014353D01*
X028008Y014387D01*
X027974Y014424D01*
X027942Y014463D01*
X027914Y014504D01*
X027889Y014548D01*
X027868Y014593D01*
X027851Y014640D01*
X027837Y014688D01*
X027827Y014737D01*
X027821Y014787D01*
X027819Y014837D01*
X027819Y003837D02*
X027821Y003887D01*
X027827Y003937D01*
X027837Y003986D01*
X027851Y004034D01*
X027868Y004081D01*
X027889Y004126D01*
X027914Y004170D01*
X027942Y004211D01*
X027974Y004250D01*
X028008Y004287D01*
X028045Y004321D01*
X028085Y004351D01*
X028127Y004378D01*
X028171Y004402D01*
X028217Y004423D01*
X028264Y004439D01*
X028312Y004452D01*
X028362Y004461D01*
X028411Y004466D01*
X028462Y004467D01*
X028512Y004464D01*
X028561Y004457D01*
X028610Y004446D01*
X028658Y004431D01*
X028704Y004413D01*
X028749Y004391D01*
X028792Y004365D01*
X028833Y004336D01*
X028872Y004304D01*
X028908Y004269D01*
X028940Y004231D01*
X028970Y004191D01*
X028997Y004148D01*
X029020Y004104D01*
X029039Y004058D01*
X029055Y004010D01*
X029067Y003961D01*
X029075Y003912D01*
X029079Y003862D01*
X029079Y003812D01*
X029075Y003762D01*
X029067Y003713D01*
X029055Y003664D01*
X029039Y003616D01*
X029020Y003570D01*
X028997Y003526D01*
X028970Y003483D01*
X028940Y003443D01*
X028908Y003405D01*
X028872Y003370D01*
X028833Y003338D01*
X028792Y003309D01*
X028749Y003283D01*
X028704Y003261D01*
X028658Y003243D01*
X028610Y003228D01*
X028561Y003217D01*
X028512Y003210D01*
X028462Y003207D01*
X028411Y003208D01*
X028362Y003213D01*
X028312Y003222D01*
X028264Y003235D01*
X028217Y003251D01*
X028171Y003272D01*
X028127Y003296D01*
X028085Y003323D01*
X028045Y003353D01*
X028008Y003387D01*
X027974Y003424D01*
X027942Y003463D01*
X027914Y003504D01*
X027889Y003548D01*
X027868Y003593D01*
X027851Y003640D01*
X027837Y003688D01*
X027827Y003737D01*
X027821Y003787D01*
X027819Y003837D01*
X007319Y001837D02*
X007321Y001887D01*
X007327Y001937D01*
X007337Y001986D01*
X007351Y002034D01*
X007368Y002081D01*
X007389Y002126D01*
X007414Y002170D01*
X007442Y002211D01*
X007474Y002250D01*
X007508Y002287D01*
X007545Y002321D01*
X007585Y002351D01*
X007627Y002378D01*
X007671Y002402D01*
X007717Y002423D01*
X007764Y002439D01*
X007812Y002452D01*
X007862Y002461D01*
X007911Y002466D01*
X007962Y002467D01*
X008012Y002464D01*
X008061Y002457D01*
X008110Y002446D01*
X008158Y002431D01*
X008204Y002413D01*
X008249Y002391D01*
X008292Y002365D01*
X008333Y002336D01*
X008372Y002304D01*
X008408Y002269D01*
X008440Y002231D01*
X008470Y002191D01*
X008497Y002148D01*
X008520Y002104D01*
X008539Y002058D01*
X008555Y002010D01*
X008567Y001961D01*
X008575Y001912D01*
X008579Y001862D01*
X008579Y001812D01*
X008575Y001762D01*
X008567Y001713D01*
X008555Y001664D01*
X008539Y001616D01*
X008520Y001570D01*
X008497Y001526D01*
X008470Y001483D01*
X008440Y001443D01*
X008408Y001405D01*
X008372Y001370D01*
X008333Y001338D01*
X008292Y001309D01*
X008249Y001283D01*
X008204Y001261D01*
X008158Y001243D01*
X008110Y001228D01*
X008061Y001217D01*
X008012Y001210D01*
X007962Y001207D01*
X007911Y001208D01*
X007862Y001213D01*
X007812Y001222D01*
X007764Y001235D01*
X007717Y001251D01*
X007671Y001272D01*
X007627Y001296D01*
X007585Y001323D01*
X007545Y001353D01*
X007508Y001387D01*
X007474Y001424D01*
X007442Y001463D01*
X007414Y001504D01*
X007389Y001548D01*
X007368Y001593D01*
X007351Y001640D01*
X007337Y001688D01*
X007327Y001737D01*
X007321Y001787D01*
X007319Y001837D01*
X004396Y014970D02*
X004398Y014997D01*
X004404Y015024D01*
X004413Y015050D01*
X004426Y015074D01*
X004442Y015097D01*
X004461Y015116D01*
X004483Y015133D01*
X004507Y015147D01*
X004532Y015157D01*
X004559Y015164D01*
X004586Y015167D01*
X004614Y015166D01*
X004641Y015161D01*
X004667Y015153D01*
X004691Y015141D01*
X004714Y015125D01*
X004735Y015107D01*
X004752Y015086D01*
X004767Y015062D01*
X004778Y015037D01*
X004786Y015011D01*
X004790Y014984D01*
X004790Y014956D01*
X004786Y014929D01*
X004778Y014903D01*
X004767Y014878D01*
X004752Y014854D01*
X004735Y014833D01*
X004714Y014815D01*
X004692Y014799D01*
X004667Y014787D01*
X004641Y014779D01*
X004614Y014774D01*
X004586Y014773D01*
X004559Y014776D01*
X004532Y014783D01*
X004507Y014793D01*
X004483Y014807D01*
X004461Y014824D01*
X004442Y014843D01*
X004426Y014866D01*
X004413Y014890D01*
X004404Y014916D01*
X004398Y014943D01*
X004396Y014970D01*
X004396Y016703D02*
X004398Y016730D01*
X004404Y016757D01*
X004413Y016783D01*
X004426Y016807D01*
X004442Y016830D01*
X004461Y016849D01*
X004483Y016866D01*
X004507Y016880D01*
X004532Y016890D01*
X004559Y016897D01*
X004586Y016900D01*
X004614Y016899D01*
X004641Y016894D01*
X004667Y016886D01*
X004691Y016874D01*
X004714Y016858D01*
X004735Y016840D01*
X004752Y016819D01*
X004767Y016795D01*
X004778Y016770D01*
X004786Y016744D01*
X004790Y016717D01*
X004790Y016689D01*
X004786Y016662D01*
X004778Y016636D01*
X004767Y016611D01*
X004752Y016587D01*
X004735Y016566D01*
X004714Y016548D01*
X004692Y016532D01*
X004667Y016520D01*
X004641Y016512D01*
X004614Y016507D01*
X004586Y016506D01*
X004559Y016509D01*
X004532Y016516D01*
X004507Y016526D01*
X004483Y016540D01*
X004461Y016557D01*
X004442Y016576D01*
X004426Y016599D01*
X004413Y016623D01*
X004404Y016649D01*
X004398Y016676D01*
X004396Y016703D01*
X007819Y020837D02*
X007821Y020887D01*
X007827Y020937D01*
X007837Y020986D01*
X007851Y021034D01*
X007868Y021081D01*
X007889Y021126D01*
X007914Y021170D01*
X007942Y021211D01*
X007974Y021250D01*
X008008Y021287D01*
X008045Y021321D01*
X008085Y021351D01*
X008127Y021378D01*
X008171Y021402D01*
X008217Y021423D01*
X008264Y021439D01*
X008312Y021452D01*
X008362Y021461D01*
X008411Y021466D01*
X008462Y021467D01*
X008512Y021464D01*
X008561Y021457D01*
X008610Y021446D01*
X008658Y021431D01*
X008704Y021413D01*
X008749Y021391D01*
X008792Y021365D01*
X008833Y021336D01*
X008872Y021304D01*
X008908Y021269D01*
X008940Y021231D01*
X008970Y021191D01*
X008997Y021148D01*
X009020Y021104D01*
X009039Y021058D01*
X009055Y021010D01*
X009067Y020961D01*
X009075Y020912D01*
X009079Y020862D01*
X009079Y020812D01*
X009075Y020762D01*
X009067Y020713D01*
X009055Y020664D01*
X009039Y020616D01*
X009020Y020570D01*
X008997Y020526D01*
X008970Y020483D01*
X008940Y020443D01*
X008908Y020405D01*
X008872Y020370D01*
X008833Y020338D01*
X008792Y020309D01*
X008749Y020283D01*
X008704Y020261D01*
X008658Y020243D01*
X008610Y020228D01*
X008561Y020217D01*
X008512Y020210D01*
X008462Y020207D01*
X008411Y020208D01*
X008362Y020213D01*
X008312Y020222D01*
X008264Y020235D01*
X008217Y020251D01*
X008171Y020272D01*
X008127Y020296D01*
X008085Y020323D01*
X008045Y020353D01*
X008008Y020387D01*
X007974Y020424D01*
X007942Y020463D01*
X007914Y020504D01*
X007889Y020548D01*
X007868Y020593D01*
X007851Y020640D01*
X007837Y020688D01*
X007827Y020737D01*
X007821Y020787D01*
X007819Y020837D01*
D12*
X002449Y021443D02*
X002449Y001230D01*
X002451Y001191D01*
X002457Y001153D01*
X002466Y001116D01*
X002479Y001079D01*
X002496Y001044D01*
X002515Y001011D01*
X002538Y000980D01*
X002564Y000951D01*
X002593Y000925D01*
X002624Y000902D01*
X002657Y000883D01*
X002692Y000866D01*
X002729Y000853D01*
X002766Y000844D01*
X002804Y000838D01*
X002843Y000836D01*
X002843Y000837D02*
X028055Y000837D01*
X028055Y000836D02*
X028094Y000838D01*
X028132Y000844D01*
X028169Y000853D01*
X028206Y000866D01*
X028241Y000883D01*
X028274Y000902D01*
X028305Y000925D01*
X028334Y000951D01*
X028360Y000980D01*
X028383Y001011D01*
X028402Y001044D01*
X028419Y001079D01*
X028432Y001116D01*
X028441Y001153D01*
X028447Y001191D01*
X028449Y001230D01*
X028449Y001837D01*
X029449Y002837D01*
X029449Y015737D01*
X028449Y016737D01*
X028449Y021237D01*
X027849Y021837D01*
X002843Y021837D01*
X002804Y021835D01*
X002766Y021829D01*
X002729Y021820D01*
X002692Y021807D01*
X002657Y021790D01*
X002624Y021771D01*
X002593Y021748D01*
X002564Y021722D01*
X002538Y021693D01*
X002515Y021662D01*
X002496Y021629D01*
X002479Y021594D01*
X002466Y021557D01*
X002457Y021520D01*
X002451Y021482D01*
X002449Y021443D01*
X022163Y007262D02*
X022165Y007282D01*
X022170Y007302D01*
X022180Y007320D01*
X022192Y007337D01*
X022207Y007351D01*
X022225Y007361D01*
X022244Y007369D01*
X022264Y007373D01*
X022284Y007373D01*
X022304Y007369D01*
X022323Y007361D01*
X022341Y007351D01*
X022356Y007337D01*
X022368Y007320D01*
X022378Y007302D01*
X022383Y007282D01*
X022385Y007262D01*
X022383Y007242D01*
X022378Y007222D01*
X022368Y007204D01*
X022356Y007187D01*
X022341Y007173D01*
X022323Y007163D01*
X022304Y007155D01*
X022284Y007151D01*
X022264Y007151D01*
X022244Y007155D01*
X022225Y007163D01*
X022207Y007173D01*
X022192Y007187D01*
X022180Y007204D01*
X022170Y007222D01*
X022165Y007242D01*
X022163Y007262D01*
X020499Y003587D02*
X020499Y002487D01*
X016499Y002537D02*
X016499Y003587D01*
D13*
X016199Y004087D02*
X015949Y003837D01*
X016199Y004087D02*
X017199Y004087D01*
X019449Y004087D02*
X020699Y004087D01*
X020949Y003837D01*
X021949Y003837D02*
X022199Y004087D01*
X023699Y004087D01*
X026449Y004087D02*
X027699Y004087D01*
X027949Y003837D01*
X023384Y016516D02*
X023384Y017057D01*
X023654Y017057D01*
X023744Y016967D01*
X023744Y016787D01*
X023654Y016697D01*
X023384Y016697D01*
X023046Y016697D02*
X023046Y017237D01*
X022776Y016967D01*
X023136Y016967D01*
X022529Y017057D02*
X022438Y016967D01*
X022258Y016967D01*
X022168Y017057D01*
X022168Y017147D01*
X022258Y017237D01*
X022438Y017237D01*
X022529Y017147D01*
X022529Y017057D01*
X022438Y016967D02*
X022529Y016877D01*
X022529Y016787D01*
X022438Y016697D01*
X022258Y016697D01*
X022168Y016787D01*
X022168Y016877D01*
X022258Y016967D01*
X021921Y017057D02*
X021921Y017147D01*
X021831Y017237D01*
X021651Y017237D01*
X021561Y017147D01*
X021921Y017057D02*
X021561Y016697D01*
X021921Y016697D01*
X021313Y016697D02*
X020953Y016697D01*
X021133Y016697D02*
X021133Y017237D01*
X020953Y017057D01*
X020705Y016967D02*
X020345Y016967D01*
X020098Y016967D02*
X020098Y016787D01*
X020008Y016697D01*
X019827Y016697D01*
X019737Y016787D01*
X019737Y016967D01*
X019827Y017057D01*
X020008Y017057D01*
X020098Y016967D01*
X019490Y016967D02*
X019490Y016697D01*
X019130Y016697D02*
X019130Y017057D01*
X019400Y017057D01*
X019490Y016967D01*
X018905Y016697D02*
X018725Y016697D01*
X018815Y016697D02*
X018815Y017057D01*
X018725Y017057D01*
X018815Y017237D02*
X018815Y017327D01*
X018477Y017057D02*
X018477Y016697D01*
X018207Y016697D01*
X018117Y016787D01*
X018117Y017057D01*
X017869Y017147D02*
X017509Y016787D01*
X017509Y016967D02*
X017869Y016967D01*
X017869Y016787D02*
X017509Y017147D01*
X017689Y017147D02*
X017689Y016787D01*
X017699Y018337D02*
X013599Y018337D01*
X013349Y018587D01*
X023199Y018337D02*
X027699Y018337D01*
X027949Y018587D01*
X027649Y018987D02*
X027449Y018787D01*
X027299Y018937D01*
X027499Y018937D01*
X027449Y018887D02*
X027449Y018837D01*
X027449Y018687D02*
X027099Y019037D01*
X027799Y019037D01*
X027449Y018687D01*
X027249Y018987D02*
X027649Y018987D01*
X026749Y018687D02*
X026399Y019037D01*
X026049Y018687D01*
X026749Y018687D01*
X026599Y018737D02*
X026399Y018937D01*
X026199Y018737D01*
X026299Y018737D02*
X026449Y018837D01*
X026599Y018737D02*
X026299Y018737D01*
X025799Y019037D02*
X025449Y018687D01*
X025099Y019037D01*
X025799Y019037D01*
X025649Y018987D02*
X025449Y018787D01*
X025299Y018937D01*
X025499Y018937D01*
X025449Y018887D02*
X025449Y018837D01*
X025249Y018987D02*
X025649Y018987D01*
X024749Y018687D02*
X024399Y019037D01*
X024049Y018687D01*
X024749Y018687D01*
X024599Y018737D02*
X024299Y018737D01*
X024449Y018837D01*
X024399Y018937D02*
X024599Y018737D01*
X024399Y018937D02*
X024199Y018737D01*
D14*
X026577Y016602D02*
X026824Y016602D01*
X026701Y016725D02*
X026701Y016478D01*
X013824Y006852D02*
X013577Y006852D01*
X013701Y006975D02*
X013701Y006728D01*
X007824Y006102D02*
X007577Y006102D01*
X007701Y006225D02*
X007701Y005978D01*
X007701Y007978D02*
X007701Y008225D01*
X007824Y008102D02*
X007577Y008102D01*
X005372Y008725D02*
X005126Y008725D01*
X005249Y008602D02*
X005249Y008848D01*
X005249Y009602D02*
X005249Y009848D01*
X005126Y009725D02*
X005372Y009725D01*
X005249Y011102D02*
X005249Y011348D01*
X005126Y011225D02*
X005372Y011225D01*
X005249Y012102D02*
X005249Y012348D01*
X005126Y012225D02*
X005372Y012225D01*
X005249Y007348D02*
X005249Y007102D01*
X005126Y007225D02*
X005372Y007225D01*
D15*
X006593Y005608D02*
X006593Y004781D01*
X006593Y005608D02*
X002380Y005608D01*
X002380Y002065D01*
X004467Y002065D01*
X006317Y002065D02*
X006593Y002065D01*
X006593Y002892D01*
X010409Y003687D02*
X012989Y003687D01*
X012989Y004987D01*
X010409Y004987D01*
X010409Y003687D01*
X014949Y002087D02*
X014949Y001587D01*
X015199Y001337D01*
X015699Y001337D01*
X015949Y001587D01*
X016199Y001337D01*
X016699Y001337D01*
X016949Y001587D01*
X017199Y001337D01*
X017699Y001337D01*
X017949Y001587D01*
X018199Y001337D01*
X018699Y001337D01*
X018949Y001587D01*
X019199Y001337D01*
X019699Y001337D01*
X019949Y001587D01*
X020199Y001337D01*
X020699Y001337D01*
X020949Y001587D01*
X020949Y002087D01*
X020699Y002337D01*
X020199Y002337D01*
X019949Y002087D01*
X019699Y002337D01*
X019199Y002337D01*
X018949Y002087D01*
X018699Y002337D01*
X018199Y002337D01*
X017949Y002087D01*
X017699Y002337D01*
X017199Y002337D01*
X016949Y002087D01*
X016699Y002337D01*
X016199Y002337D01*
X015949Y002087D01*
X015699Y002337D01*
X015199Y002337D01*
X014949Y002087D01*
X018967Y006947D02*
X018809Y007104D01*
X018809Y010569D01*
X018967Y010726D01*
X022431Y010726D01*
X022589Y010569D01*
X022589Y007104D01*
X022431Y006947D01*
X018967Y006947D01*
X022199Y002337D02*
X021949Y002087D01*
X021949Y001587D01*
X022199Y001337D01*
X022699Y001337D01*
X022949Y001587D01*
X023199Y001337D01*
X023699Y001337D01*
X023949Y001587D01*
X024199Y001337D01*
X024699Y001337D01*
X024949Y001587D01*
X025199Y001337D01*
X025699Y001337D01*
X025949Y001587D01*
X026199Y001337D01*
X026699Y001337D01*
X026949Y001587D01*
X027199Y001337D01*
X027699Y001337D01*
X027949Y001587D01*
X027949Y002087D01*
X027699Y002337D01*
X027199Y002337D01*
X026949Y002087D01*
X026699Y002337D01*
X026199Y002337D01*
X025949Y002087D01*
X025699Y002337D01*
X025199Y002337D01*
X024949Y002087D01*
X024699Y002337D01*
X024199Y002337D01*
X023949Y002087D01*
X023699Y002337D01*
X023199Y002337D01*
X022949Y002087D01*
X022699Y002337D01*
X022199Y002337D01*
X005555Y019287D02*
X004343Y019287D01*
X003949Y019798D02*
X003949Y020787D01*
X004343Y021287D02*
X005555Y021287D01*
X005949Y020775D02*
X005949Y019798D01*
X004449Y020287D02*
X004451Y020331D01*
X004457Y020375D01*
X004467Y020418D01*
X004480Y020460D01*
X004497Y020501D01*
X004518Y020540D01*
X004542Y020577D01*
X004569Y020612D01*
X004599Y020644D01*
X004632Y020674D01*
X004668Y020700D01*
X004705Y020724D01*
X004745Y020743D01*
X004786Y020760D01*
X004829Y020772D01*
X004872Y020781D01*
X004916Y020786D01*
X004960Y020787D01*
X005004Y020784D01*
X005048Y020777D01*
X005091Y020766D01*
X005133Y020752D01*
X005173Y020734D01*
X005212Y020712D01*
X005248Y020688D01*
X005282Y020660D01*
X005314Y020629D01*
X005343Y020595D01*
X005369Y020559D01*
X005391Y020521D01*
X005410Y020481D01*
X005425Y020439D01*
X005437Y020397D01*
X005445Y020353D01*
X005449Y020309D01*
X005449Y020265D01*
X005445Y020221D01*
X005437Y020177D01*
X005425Y020135D01*
X005410Y020093D01*
X005391Y020053D01*
X005369Y020015D01*
X005343Y019979D01*
X005314Y019945D01*
X005282Y019914D01*
X005248Y019886D01*
X005212Y019862D01*
X005173Y019840D01*
X005133Y019822D01*
X005091Y019808D01*
X005048Y019797D01*
X005004Y019790D01*
X004960Y019787D01*
X004916Y019788D01*
X004872Y019793D01*
X004829Y019802D01*
X004786Y019814D01*
X004745Y019831D01*
X004705Y019850D01*
X004668Y019874D01*
X004632Y019900D01*
X004599Y019930D01*
X004569Y019962D01*
X004542Y019997D01*
X004518Y020034D01*
X004497Y020073D01*
X004480Y020114D01*
X004467Y020156D01*
X004457Y020199D01*
X004451Y020243D01*
X004449Y020287D01*
X009349Y020587D02*
X009349Y021087D01*
X009599Y021337D01*
X010099Y021337D01*
X010349Y021087D01*
X010599Y021337D01*
X011099Y021337D01*
X011349Y021087D01*
X011599Y021337D01*
X012099Y021337D01*
X012349Y021087D01*
X012599Y021337D01*
X013099Y021337D01*
X013349Y021087D01*
X013599Y021337D01*
X014099Y021337D01*
X014349Y021087D01*
X014599Y021337D01*
X015099Y021337D01*
X015349Y021087D01*
X015599Y021337D01*
X016099Y021337D01*
X016349Y021087D01*
X016599Y021337D01*
X017099Y021337D01*
X017349Y021087D01*
X017599Y021337D01*
X018099Y021337D01*
X018349Y021087D01*
X018599Y021337D01*
X019099Y021337D01*
X019349Y021087D01*
X019349Y020587D01*
X019099Y020337D01*
X018599Y020337D01*
X018349Y020587D01*
X018099Y020337D01*
X017599Y020337D01*
X017349Y020587D01*
X017099Y020337D01*
X016599Y020337D01*
X016349Y020587D01*
X016099Y020337D01*
X015599Y020337D01*
X015349Y020587D01*
X015099Y020337D01*
X014599Y020337D01*
X014349Y020587D01*
X014099Y020337D01*
X013599Y020337D01*
X013349Y020587D01*
X013099Y020337D01*
X012599Y020337D01*
X012349Y020587D01*
X012099Y020337D01*
X011599Y020337D01*
X011349Y020587D01*
X011099Y020337D01*
X010599Y020337D01*
X010349Y020587D01*
X010099Y020337D01*
X009599Y020337D01*
X009349Y020587D01*
X019949Y020587D02*
X020199Y020337D01*
X020699Y020337D01*
X020949Y020587D01*
X021199Y020337D01*
X021699Y020337D01*
X021949Y020587D01*
X022199Y020337D01*
X022699Y020337D01*
X022949Y020587D01*
X023199Y020337D01*
X023699Y020337D01*
X023949Y020587D01*
X024199Y020337D01*
X024699Y020337D01*
X024949Y020587D01*
X025199Y020337D01*
X025699Y020337D01*
X025949Y020587D01*
X026199Y020337D01*
X026699Y020337D01*
X026949Y020587D01*
X027199Y020337D01*
X027699Y020337D01*
X027949Y020587D01*
X027949Y021087D01*
X027699Y021337D01*
X027199Y021337D01*
X026949Y021087D01*
X026699Y021337D01*
X026199Y021337D01*
X025949Y021087D01*
X025699Y021337D01*
X025199Y021337D01*
X024949Y021087D01*
X024699Y021337D01*
X024199Y021337D01*
X023949Y021087D01*
X023699Y021337D01*
X023199Y021337D01*
X022949Y021087D01*
X022699Y021337D01*
X022199Y021337D01*
X021949Y021087D01*
X021699Y021337D01*
X021199Y021337D01*
X020949Y021087D01*
X020699Y021337D01*
X020199Y021337D01*
X019949Y021087D01*
X019949Y020587D01*
D16*
X013079Y014466D02*
X013079Y011846D01*
X012939Y011707D01*
X010319Y011707D01*
X010319Y014466D01*
X013079Y014466D01*
X011199Y016587D02*
X010949Y016337D01*
X010449Y016337D01*
X010199Y016587D01*
X009949Y016337D01*
X009449Y016337D01*
X009199Y016587D01*
X008949Y016337D01*
X008449Y016337D01*
X008199Y016587D01*
X008199Y018087D01*
X008449Y018337D01*
X008949Y018337D01*
X009199Y018087D01*
X009449Y018337D01*
X009949Y018337D01*
X010199Y018087D01*
X010449Y018337D01*
X010949Y018337D01*
X011199Y018087D01*
X011199Y016587D01*
X007849Y018537D02*
X007849Y019137D01*
X007847Y019154D01*
X007843Y019171D01*
X007836Y019187D01*
X007826Y019201D01*
X007813Y019214D01*
X007799Y019224D01*
X007783Y019231D01*
X007766Y019235D01*
X007749Y019237D01*
X006649Y019237D01*
X006632Y019235D01*
X006615Y019231D01*
X006599Y019224D01*
X006585Y019214D01*
X006572Y019201D01*
X006562Y019187D01*
X006555Y019171D01*
X006551Y019154D01*
X006549Y019137D01*
X006549Y018537D01*
X006551Y018520D01*
X006555Y018503D01*
X006562Y018487D01*
X006572Y018473D01*
X006585Y018460D01*
X006599Y018450D01*
X006615Y018443D01*
X006632Y018439D01*
X006649Y018437D01*
X007749Y018437D01*
X007766Y018439D01*
X007783Y018443D01*
X007799Y018450D01*
X007813Y018460D01*
X007826Y018473D01*
X007836Y018487D01*
X007843Y018503D01*
X007847Y018520D01*
X007849Y018537D01*
X012638Y012007D02*
X012640Y012030D01*
X012646Y012053D01*
X012655Y012074D01*
X012668Y012094D01*
X012684Y012111D01*
X012702Y012125D01*
X012722Y012136D01*
X012744Y012144D01*
X012767Y012148D01*
X012791Y012148D01*
X012814Y012144D01*
X012836Y012136D01*
X012856Y012125D01*
X012874Y012111D01*
X012890Y012094D01*
X012903Y012074D01*
X012912Y012053D01*
X012918Y012030D01*
X012920Y012007D01*
X012918Y011984D01*
X012912Y011961D01*
X012903Y011940D01*
X012890Y011920D01*
X012874Y011903D01*
X012856Y011889D01*
X012836Y011878D01*
X012814Y011870D01*
X012791Y011866D01*
X012767Y011866D01*
X012744Y011870D01*
X012722Y011878D01*
X012702Y011889D01*
X012684Y011903D01*
X012668Y011920D01*
X012655Y011940D01*
X012646Y011961D01*
X012640Y011984D01*
X012638Y012007D01*
X026999Y012087D02*
X026999Y011587D01*
X027249Y011337D01*
X026999Y011087D01*
X026999Y010587D01*
X027249Y010337D01*
X028749Y010337D01*
X028999Y010587D01*
X028999Y011087D01*
X028749Y011337D01*
X028999Y011587D01*
X028999Y012087D01*
X028749Y012337D01*
X028999Y012587D01*
X028999Y013087D01*
X028749Y013337D01*
X027249Y013337D01*
X026999Y013087D01*
X026999Y012587D01*
X027249Y012337D01*
X026999Y012087D01*
D17*
X008699Y009587D03*
D18*
X008305Y009833D02*
X009093Y009833D01*
X009093Y009340D02*
X008305Y009340D01*
D19*
X004390Y009323D03*
X004390Y008850D03*
X004390Y009850D03*
X004390Y010323D03*
X004390Y011350D03*
X004390Y011823D03*
X004390Y012350D03*
X004390Y012823D03*
X004390Y007823D03*
X004390Y007350D03*
D20*
X004390Y007587D03*
X004390Y009087D03*
X004390Y010087D03*
X004390Y011587D03*
X004390Y012587D03*
M02*
