G75*
G70*
%OFA0B0*%
%FSLAX24Y24*%
%IPPOS*%
%LPD*%
%AMOC8*
5,1,8,0,0,1.08239X$1,22.5*
%
%ADD10C,0.0000*%
%ADD11C,0.0100*%
%ADD12C,0.0740*%
%ADD13R,0.0740X0.0740*%
%ADD14OC8,0.0740*%
%ADD15C,0.1700*%
%ADD16C,0.0258*%
%ADD17C,0.0120*%
%ADD18C,0.0320*%
%ADD19C,0.0240*%
D10*
X007319Y001837D02*
X007321Y001887D01*
X007327Y001937D01*
X007337Y001986D01*
X007351Y002034D01*
X007368Y002081D01*
X007389Y002126D01*
X007414Y002170D01*
X007442Y002211D01*
X007474Y002250D01*
X007508Y002287D01*
X007545Y002321D01*
X007585Y002351D01*
X007627Y002378D01*
X007671Y002402D01*
X007717Y002423D01*
X007764Y002439D01*
X007812Y002452D01*
X007862Y002461D01*
X007911Y002466D01*
X007962Y002467D01*
X008012Y002464D01*
X008061Y002457D01*
X008110Y002446D01*
X008158Y002431D01*
X008204Y002413D01*
X008249Y002391D01*
X008292Y002365D01*
X008333Y002336D01*
X008372Y002304D01*
X008408Y002269D01*
X008440Y002231D01*
X008470Y002191D01*
X008497Y002148D01*
X008520Y002104D01*
X008539Y002058D01*
X008555Y002010D01*
X008567Y001961D01*
X008575Y001912D01*
X008579Y001862D01*
X008579Y001812D01*
X008575Y001762D01*
X008567Y001713D01*
X008555Y001664D01*
X008539Y001616D01*
X008520Y001570D01*
X008497Y001526D01*
X008470Y001483D01*
X008440Y001443D01*
X008408Y001405D01*
X008372Y001370D01*
X008333Y001338D01*
X008292Y001309D01*
X008249Y001283D01*
X008204Y001261D01*
X008158Y001243D01*
X008110Y001228D01*
X008061Y001217D01*
X008012Y001210D01*
X007962Y001207D01*
X007911Y001208D01*
X007862Y001213D01*
X007812Y001222D01*
X007764Y001235D01*
X007717Y001251D01*
X007671Y001272D01*
X007627Y001296D01*
X007585Y001323D01*
X007545Y001353D01*
X007508Y001387D01*
X007474Y001424D01*
X007442Y001463D01*
X007414Y001504D01*
X007389Y001548D01*
X007368Y001593D01*
X007351Y001640D01*
X007337Y001688D01*
X007327Y001737D01*
X007321Y001787D01*
X007319Y001837D01*
X004396Y014970D02*
X004398Y014997D01*
X004404Y015024D01*
X004413Y015050D01*
X004426Y015074D01*
X004442Y015097D01*
X004461Y015116D01*
X004483Y015133D01*
X004507Y015147D01*
X004532Y015157D01*
X004559Y015164D01*
X004586Y015167D01*
X004614Y015166D01*
X004641Y015161D01*
X004667Y015153D01*
X004691Y015141D01*
X004714Y015125D01*
X004735Y015107D01*
X004752Y015086D01*
X004767Y015062D01*
X004778Y015037D01*
X004786Y015011D01*
X004790Y014984D01*
X004790Y014956D01*
X004786Y014929D01*
X004778Y014903D01*
X004767Y014878D01*
X004752Y014854D01*
X004735Y014833D01*
X004714Y014815D01*
X004692Y014799D01*
X004667Y014787D01*
X004641Y014779D01*
X004614Y014774D01*
X004586Y014773D01*
X004559Y014776D01*
X004532Y014783D01*
X004507Y014793D01*
X004483Y014807D01*
X004461Y014824D01*
X004442Y014843D01*
X004426Y014866D01*
X004413Y014890D01*
X004404Y014916D01*
X004398Y014943D01*
X004396Y014970D01*
X004396Y016703D02*
X004398Y016730D01*
X004404Y016757D01*
X004413Y016783D01*
X004426Y016807D01*
X004442Y016830D01*
X004461Y016849D01*
X004483Y016866D01*
X004507Y016880D01*
X004532Y016890D01*
X004559Y016897D01*
X004586Y016900D01*
X004614Y016899D01*
X004641Y016894D01*
X004667Y016886D01*
X004691Y016874D01*
X004714Y016858D01*
X004735Y016840D01*
X004752Y016819D01*
X004767Y016795D01*
X004778Y016770D01*
X004786Y016744D01*
X004790Y016717D01*
X004790Y016689D01*
X004786Y016662D01*
X004778Y016636D01*
X004767Y016611D01*
X004752Y016587D01*
X004735Y016566D01*
X004714Y016548D01*
X004692Y016532D01*
X004667Y016520D01*
X004641Y016512D01*
X004614Y016507D01*
X004586Y016506D01*
X004559Y016509D01*
X004532Y016516D01*
X004507Y016526D01*
X004483Y016540D01*
X004461Y016557D01*
X004442Y016576D01*
X004426Y016599D01*
X004413Y016623D01*
X004404Y016649D01*
X004398Y016676D01*
X004396Y016703D01*
X007819Y020837D02*
X007821Y020887D01*
X007827Y020937D01*
X007837Y020986D01*
X007851Y021034D01*
X007868Y021081D01*
X007889Y021126D01*
X007914Y021170D01*
X007942Y021211D01*
X007974Y021250D01*
X008008Y021287D01*
X008045Y021321D01*
X008085Y021351D01*
X008127Y021378D01*
X008171Y021402D01*
X008217Y021423D01*
X008264Y021439D01*
X008312Y021452D01*
X008362Y021461D01*
X008411Y021466D01*
X008462Y021467D01*
X008512Y021464D01*
X008561Y021457D01*
X008610Y021446D01*
X008658Y021431D01*
X008704Y021413D01*
X008749Y021391D01*
X008792Y021365D01*
X008833Y021336D01*
X008872Y021304D01*
X008908Y021269D01*
X008940Y021231D01*
X008970Y021191D01*
X008997Y021148D01*
X009020Y021104D01*
X009039Y021058D01*
X009055Y021010D01*
X009067Y020961D01*
X009075Y020912D01*
X009079Y020862D01*
X009079Y020812D01*
X009075Y020762D01*
X009067Y020713D01*
X009055Y020664D01*
X009039Y020616D01*
X009020Y020570D01*
X008997Y020526D01*
X008970Y020483D01*
X008940Y020443D01*
X008908Y020405D01*
X008872Y020370D01*
X008833Y020338D01*
X008792Y020309D01*
X008749Y020283D01*
X008704Y020261D01*
X008658Y020243D01*
X008610Y020228D01*
X008561Y020217D01*
X008512Y020210D01*
X008462Y020207D01*
X008411Y020208D01*
X008362Y020213D01*
X008312Y020222D01*
X008264Y020235D01*
X008217Y020251D01*
X008171Y020272D01*
X008127Y020296D01*
X008085Y020323D01*
X008045Y020353D01*
X008008Y020387D01*
X007974Y020424D01*
X007942Y020463D01*
X007914Y020504D01*
X007889Y020548D01*
X007868Y020593D01*
X007851Y020640D01*
X007837Y020688D01*
X007827Y020737D01*
X007821Y020787D01*
X007819Y020837D01*
X027819Y014837D02*
X027821Y014887D01*
X027827Y014937D01*
X027837Y014986D01*
X027851Y015034D01*
X027868Y015081D01*
X027889Y015126D01*
X027914Y015170D01*
X027942Y015211D01*
X027974Y015250D01*
X028008Y015287D01*
X028045Y015321D01*
X028085Y015351D01*
X028127Y015378D01*
X028171Y015402D01*
X028217Y015423D01*
X028264Y015439D01*
X028312Y015452D01*
X028362Y015461D01*
X028411Y015466D01*
X028462Y015467D01*
X028512Y015464D01*
X028561Y015457D01*
X028610Y015446D01*
X028658Y015431D01*
X028704Y015413D01*
X028749Y015391D01*
X028792Y015365D01*
X028833Y015336D01*
X028872Y015304D01*
X028908Y015269D01*
X028940Y015231D01*
X028970Y015191D01*
X028997Y015148D01*
X029020Y015104D01*
X029039Y015058D01*
X029055Y015010D01*
X029067Y014961D01*
X029075Y014912D01*
X029079Y014862D01*
X029079Y014812D01*
X029075Y014762D01*
X029067Y014713D01*
X029055Y014664D01*
X029039Y014616D01*
X029020Y014570D01*
X028997Y014526D01*
X028970Y014483D01*
X028940Y014443D01*
X028908Y014405D01*
X028872Y014370D01*
X028833Y014338D01*
X028792Y014309D01*
X028749Y014283D01*
X028704Y014261D01*
X028658Y014243D01*
X028610Y014228D01*
X028561Y014217D01*
X028512Y014210D01*
X028462Y014207D01*
X028411Y014208D01*
X028362Y014213D01*
X028312Y014222D01*
X028264Y014235D01*
X028217Y014251D01*
X028171Y014272D01*
X028127Y014296D01*
X028085Y014323D01*
X028045Y014353D01*
X028008Y014387D01*
X027974Y014424D01*
X027942Y014463D01*
X027914Y014504D01*
X027889Y014548D01*
X027868Y014593D01*
X027851Y014640D01*
X027837Y014688D01*
X027827Y014737D01*
X027821Y014787D01*
X027819Y014837D01*
X027819Y003837D02*
X027821Y003887D01*
X027827Y003937D01*
X027837Y003986D01*
X027851Y004034D01*
X027868Y004081D01*
X027889Y004126D01*
X027914Y004170D01*
X027942Y004211D01*
X027974Y004250D01*
X028008Y004287D01*
X028045Y004321D01*
X028085Y004351D01*
X028127Y004378D01*
X028171Y004402D01*
X028217Y004423D01*
X028264Y004439D01*
X028312Y004452D01*
X028362Y004461D01*
X028411Y004466D01*
X028462Y004467D01*
X028512Y004464D01*
X028561Y004457D01*
X028610Y004446D01*
X028658Y004431D01*
X028704Y004413D01*
X028749Y004391D01*
X028792Y004365D01*
X028833Y004336D01*
X028872Y004304D01*
X028908Y004269D01*
X028940Y004231D01*
X028970Y004191D01*
X028997Y004148D01*
X029020Y004104D01*
X029039Y004058D01*
X029055Y004010D01*
X029067Y003961D01*
X029075Y003912D01*
X029079Y003862D01*
X029079Y003812D01*
X029075Y003762D01*
X029067Y003713D01*
X029055Y003664D01*
X029039Y003616D01*
X029020Y003570D01*
X028997Y003526D01*
X028970Y003483D01*
X028940Y003443D01*
X028908Y003405D01*
X028872Y003370D01*
X028833Y003338D01*
X028792Y003309D01*
X028749Y003283D01*
X028704Y003261D01*
X028658Y003243D01*
X028610Y003228D01*
X028561Y003217D01*
X028512Y003210D01*
X028462Y003207D01*
X028411Y003208D01*
X028362Y003213D01*
X028312Y003222D01*
X028264Y003235D01*
X028217Y003251D01*
X028171Y003272D01*
X028127Y003296D01*
X028085Y003323D01*
X028045Y003353D01*
X028008Y003387D01*
X027974Y003424D01*
X027942Y003463D01*
X027914Y003504D01*
X027889Y003548D01*
X027868Y003593D01*
X027851Y003640D01*
X027837Y003688D01*
X027827Y003737D01*
X027821Y003787D01*
X027819Y003837D01*
D11*
X002449Y001230D02*
X002449Y021443D01*
X002451Y021482D01*
X002457Y021520D01*
X002466Y021557D01*
X002479Y021594D01*
X002496Y021629D01*
X002515Y021662D01*
X002538Y021693D01*
X002564Y021722D01*
X002593Y021748D01*
X002624Y021771D01*
X002657Y021790D01*
X002692Y021807D01*
X002729Y021820D01*
X002766Y021829D01*
X002804Y021835D01*
X002843Y021837D01*
X027849Y021837D01*
X028449Y021237D01*
X028449Y016737D01*
X029449Y015737D01*
X029449Y002837D01*
X028449Y001837D01*
X028449Y001230D01*
X028447Y001191D01*
X028441Y001153D01*
X028432Y001116D01*
X028419Y001079D01*
X028402Y001044D01*
X028383Y001011D01*
X028360Y000980D01*
X028334Y000951D01*
X028305Y000925D01*
X028274Y000902D01*
X028241Y000883D01*
X028206Y000866D01*
X028169Y000853D01*
X028132Y000844D01*
X028094Y000838D01*
X028055Y000836D01*
X028055Y000837D02*
X002843Y000837D01*
X002843Y000836D02*
X002804Y000838D01*
X002766Y000844D01*
X002729Y000853D01*
X002692Y000866D01*
X002657Y000883D01*
X002624Y000902D01*
X002593Y000925D01*
X002564Y000951D01*
X002538Y000980D01*
X002515Y001011D01*
X002496Y001044D01*
X002479Y001079D01*
X002466Y001116D01*
X002457Y001153D01*
X002451Y001191D01*
X002449Y001230D01*
X027999Y010337D02*
X027999Y012337D01*
D12*
X026449Y020837D03*
X025449Y020837D03*
X024449Y020837D03*
X023449Y020837D03*
X022449Y020837D03*
X021449Y020837D03*
X020449Y020837D03*
X017849Y020837D03*
X016849Y020837D03*
X015849Y020837D03*
X014849Y020837D03*
X013849Y020837D03*
X012849Y020837D03*
X011849Y020837D03*
X010849Y020837D03*
X009849Y020837D03*
X015449Y001837D03*
X016449Y001837D03*
X017449Y001837D03*
X018449Y001837D03*
X019449Y001837D03*
X020449Y001837D03*
X022449Y001837D03*
X023449Y001837D03*
X024449Y001837D03*
X025449Y001837D03*
X026449Y001837D03*
X027449Y001837D03*
D13*
X027449Y020837D03*
X018849Y020837D03*
D14*
X010699Y017837D03*
X009699Y017837D03*
X008699Y017837D03*
X008699Y016837D03*
X009699Y016837D03*
X010699Y016837D03*
X027499Y012837D03*
X028499Y012837D03*
X028499Y011837D03*
X027499Y011837D03*
X027499Y010837D03*
X028499Y010837D03*
D15*
X006593Y003837D03*
X005412Y001986D03*
X004231Y003837D03*
D16*
X004699Y006087D03*
X003699Y006087D03*
X004449Y009587D03*
X004449Y010837D03*
X007299Y011587D03*
X007349Y012237D03*
X008599Y013587D03*
X008599Y014037D03*
X010749Y014087D03*
X011299Y013137D03*
X011199Y012737D03*
X011799Y012187D03*
X012199Y012087D03*
X012649Y012187D03*
X013699Y009837D03*
X014449Y009837D03*
X015449Y007837D03*
X016199Y007837D03*
X013199Y006587D03*
X012449Y006587D03*
X011699Y006587D03*
X010949Y006587D03*
X010199Y006587D03*
X009949Y005587D03*
X010949Y004337D03*
X011699Y004337D03*
X012449Y004337D03*
X013199Y003087D03*
X013199Y002587D03*
X012949Y002087D03*
X013449Y002087D03*
X013949Y002337D03*
X013949Y002837D03*
X013949Y003337D03*
X013949Y003837D03*
X012449Y002087D03*
X011949Y002087D03*
X011449Y002087D03*
X010949Y002087D03*
X010449Y002087D03*
X009949Y002087D03*
X010199Y002587D03*
X010199Y003087D03*
X009449Y003337D03*
X009449Y003837D03*
X009449Y002837D03*
X009449Y002337D03*
X010699Y008587D03*
X011449Y008587D03*
X018599Y011237D03*
X018449Y011687D03*
X018749Y012287D03*
X020249Y013587D03*
X020499Y013937D03*
X019949Y013937D03*
X020849Y013587D03*
X021149Y013937D03*
X021449Y013587D03*
X024199Y014087D03*
X025199Y014087D03*
X026699Y013837D03*
X027199Y015337D03*
X025199Y016587D03*
X024499Y016637D03*
X026699Y012087D03*
X026949Y009587D03*
X026949Y008837D03*
X025149Y007637D03*
X025699Y007087D03*
X026449Y007087D03*
X023749Y008037D03*
X021449Y007237D03*
X021149Y007537D03*
X020849Y007837D03*
X020549Y008137D03*
X020249Y008437D03*
X019949Y008737D03*
X019199Y008037D03*
X019199Y007337D03*
X019599Y009837D03*
X022099Y009987D03*
X017699Y014087D03*
X016949Y014087D03*
X016949Y016337D03*
X015949Y016337D03*
X013699Y014737D03*
X013349Y015087D03*
X011199Y015437D03*
X010599Y015837D03*
X011249Y016287D03*
X013449Y017337D03*
X012599Y019187D03*
X011049Y019737D03*
X009199Y019587D03*
X008449Y019587D03*
X005199Y018587D03*
X004199Y018587D03*
X022199Y004587D03*
X022949Y004587D03*
X024699Y004587D03*
X025449Y004587D03*
D17*
X023989Y004630D02*
X028248Y004630D01*
X028288Y004646D02*
X027990Y004523D01*
X027763Y004295D01*
X027639Y003998D01*
X027639Y003675D01*
X027763Y003378D01*
X027990Y003150D01*
X028288Y003027D01*
X028610Y003027D01*
X028908Y003150D01*
X029136Y003378D01*
X029219Y003579D01*
X029219Y002932D01*
X028354Y002066D01*
X028219Y001932D01*
X028219Y001325D01*
X028219Y001230D01*
X028216Y001198D01*
X028192Y001139D01*
X028146Y001094D01*
X028087Y001070D01*
X028055Y001066D01*
X008206Y001066D01*
X008408Y001150D01*
X008636Y001378D01*
X008759Y001675D01*
X008759Y001998D01*
X008636Y002295D01*
X008408Y002523D01*
X008110Y002646D01*
X007788Y002646D01*
X007490Y002523D01*
X007263Y002295D01*
X007139Y001998D01*
X007139Y001675D01*
X007263Y001378D01*
X007490Y001150D01*
X007692Y001066D01*
X005830Y001066D01*
X005901Y001101D01*
X005997Y001161D01*
X006086Y001232D01*
X006166Y001312D01*
X006237Y001401D01*
X006297Y001497D01*
X006346Y001599D01*
X006384Y001706D01*
X006409Y001817D01*
X006421Y001926D01*
X005472Y001926D01*
X005472Y002046D01*
X006421Y002046D01*
X006409Y002156D01*
X006384Y002266D01*
X006346Y002373D01*
X006297Y002475D01*
X006237Y002571D01*
X006166Y002660D01*
X006086Y002740D01*
X005997Y002811D01*
X005901Y002871D01*
X005799Y002921D01*
X005692Y002958D01*
X005581Y002983D01*
X005472Y002996D01*
X005472Y002046D01*
X005352Y002046D01*
X005352Y002996D01*
X005242Y002983D01*
X005132Y002958D01*
X005025Y002921D01*
X004922Y002871D01*
X004826Y002811D01*
X004738Y002740D01*
X004657Y002660D01*
X004587Y002571D01*
X004526Y002475D01*
X004477Y002373D01*
X004440Y002266D01*
X004414Y002156D01*
X004402Y002046D01*
X005352Y002046D01*
X005352Y001926D01*
X004402Y001926D01*
X004414Y001817D01*
X004440Y001706D01*
X004477Y001599D01*
X004526Y001497D01*
X004587Y001401D01*
X004657Y001312D01*
X004738Y001232D01*
X004826Y001161D01*
X004922Y001101D01*
X004994Y001066D01*
X002938Y001066D01*
X002843Y001066D01*
X002811Y001070D01*
X002752Y001094D01*
X002707Y001139D01*
X002682Y001198D01*
X002679Y001230D01*
X002679Y021348D01*
X002679Y021443D01*
X002682Y021475D01*
X002707Y021534D01*
X002752Y021579D01*
X002811Y021603D01*
X002843Y021607D01*
X008192Y021607D01*
X007990Y021523D01*
X007763Y021295D01*
X007639Y020998D01*
X007639Y020675D01*
X007763Y020378D01*
X007990Y020150D01*
X008288Y020027D01*
X008610Y020027D01*
X008908Y020150D01*
X009136Y020378D01*
X009259Y020675D01*
X009259Y020998D01*
X009136Y021295D01*
X008908Y021523D01*
X008706Y021607D01*
X027754Y021607D01*
X028219Y021141D01*
X028219Y016641D01*
X028354Y016507D01*
X029219Y015641D01*
X029219Y015094D01*
X029136Y015295D01*
X028908Y015523D01*
X028610Y015646D01*
X028288Y015646D01*
X027990Y015523D01*
X027763Y015295D01*
X027639Y014998D01*
X027639Y014675D01*
X027763Y014378D01*
X027990Y014150D01*
X028288Y014027D01*
X028610Y014027D01*
X028908Y014150D01*
X029136Y014378D01*
X029219Y014579D01*
X029219Y004094D01*
X029136Y004295D01*
X028908Y004523D01*
X028610Y004646D01*
X028288Y004646D01*
X027979Y004511D02*
X023978Y004511D01*
X023989Y004539D02*
X023989Y007797D01*
X024881Y007797D01*
X024840Y007698D01*
X024840Y007575D01*
X024887Y007462D01*
X024974Y007375D01*
X025088Y007328D01*
X025211Y007328D01*
X025324Y007375D01*
X025386Y007437D01*
X027289Y007437D01*
X027409Y007437D01*
X027519Y007482D01*
X027969Y007932D01*
X028053Y008017D01*
X028099Y008127D01*
X028099Y010012D01*
X028253Y010167D01*
X028299Y010277D01*
X028299Y010307D01*
X028459Y010307D01*
X028459Y010796D01*
X028539Y010796D01*
X028539Y010307D01*
X028719Y010307D01*
X029029Y010617D01*
X029029Y010796D01*
X028539Y010796D01*
X028539Y010877D01*
X029029Y010877D01*
X029029Y011056D01*
X028763Y011322D01*
X029049Y011609D01*
X029049Y012064D01*
X028777Y012337D01*
X029049Y012609D01*
X029049Y013064D01*
X028727Y013386D01*
X028271Y013386D01*
X027999Y013114D01*
X027727Y013386D01*
X027271Y013386D01*
X026949Y013064D01*
X026949Y012609D01*
X027221Y012337D01*
X026949Y012064D01*
X026949Y011609D01*
X027221Y011337D01*
X026961Y011076D01*
X026549Y011076D01*
X026189Y011436D01*
X026189Y013789D01*
X026189Y013884D01*
X026153Y013972D01*
X024851Y015274D01*
X025335Y015757D01*
X025403Y015825D01*
X025439Y015913D01*
X025439Y016390D01*
X025461Y016412D01*
X025508Y016525D01*
X025508Y016648D01*
X025461Y016761D01*
X025374Y016848D01*
X025261Y016895D01*
X025138Y016895D01*
X025024Y016848D01*
X024937Y016761D01*
X024890Y016648D01*
X024890Y016525D01*
X024937Y016412D01*
X024959Y016390D01*
X024959Y016060D01*
X024476Y015576D01*
X024401Y015576D01*
X013799Y015576D01*
X013689Y015686D01*
X013689Y017140D01*
X013711Y017162D01*
X013758Y017275D01*
X013758Y017398D01*
X013711Y017511D01*
X013624Y017598D01*
X013511Y017645D01*
X013388Y017645D01*
X013274Y017598D01*
X013187Y017511D01*
X013140Y017398D01*
X013140Y017275D01*
X013187Y017162D01*
X013209Y017140D01*
X013209Y015634D01*
X013209Y015539D01*
X013246Y015451D01*
X013301Y015395D01*
X013288Y015395D01*
X013174Y015348D01*
X013087Y015261D01*
X013040Y015148D01*
X013040Y015025D01*
X013087Y014912D01*
X013174Y014825D01*
X010850Y014825D01*
X010839Y014836D02*
X010839Y015640D01*
X010861Y015662D01*
X010908Y015775D01*
X010908Y015898D01*
X010861Y016011D01*
X010774Y016098D01*
X010661Y016145D01*
X010538Y016145D01*
X010439Y016105D01*
X010439Y016237D01*
X010489Y016287D01*
X010927Y016287D01*
X011249Y016609D01*
X011249Y017064D01*
X010963Y017351D01*
X011229Y017617D01*
X011229Y017796D01*
X010739Y017796D01*
X010739Y017877D01*
X010659Y017877D01*
X010659Y018366D01*
X010480Y018366D01*
X010213Y018100D01*
X009927Y018386D01*
X009471Y018386D01*
X009199Y018114D01*
X008927Y018386D01*
X008471Y018386D01*
X008149Y018064D01*
X008149Y017609D01*
X008421Y017336D01*
X008149Y017064D01*
X008149Y016609D01*
X008471Y016287D01*
X008927Y016287D01*
X009199Y016559D01*
X009471Y016287D01*
X009927Y016287D01*
X009959Y016319D01*
X009959Y014684D01*
X009959Y014589D01*
X009996Y014501D01*
X010440Y014056D01*
X010440Y014025D01*
X010460Y013976D01*
X008999Y013976D01*
X008908Y014067D01*
X008908Y014098D01*
X008861Y014211D01*
X008774Y014298D01*
X008661Y014345D01*
X008538Y014345D01*
X008424Y014298D01*
X008337Y014211D01*
X008290Y014098D01*
X008290Y013975D01*
X008337Y013862D01*
X008387Y013811D01*
X008337Y013761D01*
X008290Y013648D01*
X008290Y013525D01*
X008337Y013412D01*
X008424Y013325D01*
X008538Y013278D01*
X008576Y013278D01*
X008651Y013247D01*
X008747Y013247D01*
X010820Y013247D01*
X010800Y013226D01*
X005201Y013226D01*
X005113Y013190D01*
X005046Y013122D01*
X004563Y012640D01*
X004496Y012572D01*
X002679Y012572D01*
X002679Y012454D02*
X004459Y012454D01*
X004459Y012484D02*
X004459Y011186D01*
X004419Y011145D01*
X004388Y011145D01*
X004274Y011098D01*
X004187Y011011D01*
X004140Y010898D01*
X004140Y010775D01*
X004187Y010662D01*
X004274Y010575D01*
X004388Y010528D01*
X004511Y010528D01*
X004624Y010575D01*
X004709Y010660D01*
X004709Y010186D01*
X004419Y009895D01*
X004388Y009895D01*
X004274Y009848D01*
X004187Y009761D01*
X004140Y009648D01*
X004140Y009525D01*
X004187Y009412D01*
X004274Y009325D01*
X004388Y009278D01*
X004511Y009278D01*
X004624Y009325D01*
X004711Y009412D01*
X004758Y009525D01*
X004758Y009556D01*
X005085Y009883D01*
X005153Y009951D01*
X005189Y010039D01*
X005189Y012237D01*
X005449Y012497D01*
X007172Y012497D01*
X007087Y012411D01*
X007040Y012298D01*
X007040Y012175D01*
X007087Y012062D01*
X007109Y012040D01*
X007109Y011989D01*
X007146Y011901D01*
X007176Y011870D01*
X007124Y011848D01*
X007037Y011761D01*
X006990Y011648D01*
X006990Y011525D01*
X007037Y011412D01*
X007124Y011325D01*
X007238Y011278D01*
X007269Y011278D01*
X007596Y010951D01*
X007663Y010883D01*
X007751Y010847D01*
X018401Y010847D01*
X018497Y010847D01*
X018585Y010883D01*
X018630Y010928D01*
X018661Y010928D01*
X018774Y010975D01*
X018861Y011062D01*
X018908Y011175D01*
X018908Y011298D01*
X018861Y011411D01*
X018774Y011498D01*
X018716Y011523D01*
X018758Y011625D01*
X018758Y011748D01*
X018711Y011861D01*
X018835Y011861D01*
X018711Y011861D02*
X018624Y011948D01*
X018511Y011995D01*
X018388Y011995D01*
X018274Y011948D01*
X018187Y011861D01*
X012752Y011861D01*
X012717Y011847D02*
X012842Y011898D01*
X012937Y011994D01*
X012989Y012119D01*
X012989Y013504D01*
X012937Y013629D01*
X012842Y013725D01*
X012842Y013725D01*
X012287Y014279D01*
X012192Y014375D01*
X012067Y014426D01*
X011249Y014426D01*
X010839Y014836D01*
X010839Y014943D02*
X013074Y014943D01*
X013040Y015062D02*
X010839Y015062D01*
X010839Y015180D02*
X013054Y015180D01*
X013125Y015299D02*
X010839Y015299D01*
X010839Y015417D02*
X013279Y015417D01*
X013210Y015536D02*
X010839Y015536D01*
X010854Y015654D02*
X013209Y015654D01*
X013209Y015773D02*
X010907Y015773D01*
X010908Y015892D02*
X013209Y015892D01*
X013209Y016010D02*
X010862Y016010D01*
X010701Y016129D02*
X013209Y016129D01*
X013209Y016247D02*
X010449Y016247D01*
X010439Y016129D02*
X010497Y016129D01*
X010599Y015837D02*
X010599Y014737D01*
X011249Y014087D01*
X010749Y014087D02*
X010199Y014637D01*
X010199Y016337D01*
X010699Y016837D01*
X011249Y016840D02*
X013209Y016840D01*
X013209Y016958D02*
X011249Y016958D01*
X011236Y017077D02*
X013209Y017077D01*
X013173Y017196D02*
X011118Y017196D01*
X010999Y017314D02*
X013140Y017314D01*
X013155Y017433D02*
X011045Y017433D01*
X011163Y017551D02*
X013227Y017551D01*
X013449Y017337D02*
X013449Y015587D01*
X013699Y015337D01*
X024449Y015337D01*
X024575Y015337D01*
X024575Y015211D01*
X025949Y013837D01*
X025949Y011337D01*
X026449Y010837D01*
X027499Y010837D01*
X027499Y008337D01*
X027199Y008037D01*
X023749Y008037D01*
X023749Y004587D01*
X023249Y004087D01*
X015949Y004087D01*
X015449Y003587D01*
X015449Y001837D01*
X015949Y002067D02*
X015915Y002148D01*
X015761Y002303D01*
X015689Y002332D01*
X015689Y003487D01*
X016049Y003847D01*
X023201Y003847D01*
X023297Y003847D01*
X023385Y003883D01*
X023885Y004383D01*
X023953Y004451D01*
X023989Y004539D01*
X023895Y004393D02*
X027860Y004393D01*
X027754Y004274D02*
X023776Y004274D01*
X023658Y004156D02*
X027705Y004156D01*
X027656Y004037D02*
X023539Y004037D01*
X023421Y003919D02*
X027639Y003919D01*
X027639Y003800D02*
X016002Y003800D01*
X015884Y003682D02*
X027639Y003682D01*
X027686Y003563D02*
X015765Y003563D01*
X015689Y003444D02*
X027735Y003444D01*
X027814Y003326D02*
X015689Y003326D01*
X015689Y003207D02*
X027933Y003207D01*
X028138Y003089D02*
X015689Y003089D01*
X015689Y002970D02*
X029219Y002970D01*
X029219Y003089D02*
X028760Y003089D01*
X028965Y003207D02*
X029219Y003207D01*
X029219Y003326D02*
X029084Y003326D01*
X029163Y003444D02*
X029219Y003444D01*
X029212Y003563D02*
X029219Y003563D01*
X029194Y004156D02*
X029219Y004156D01*
X029219Y004274D02*
X029144Y004274D01*
X029219Y004393D02*
X029038Y004393D01*
X028920Y004511D02*
X029219Y004511D01*
X029219Y004630D02*
X028650Y004630D01*
X029219Y004748D02*
X023989Y004748D01*
X023989Y004867D02*
X029219Y004867D01*
X029219Y004986D02*
X023989Y004986D01*
X023989Y005104D02*
X029219Y005104D01*
X029219Y005223D02*
X023989Y005223D01*
X023989Y005341D02*
X029219Y005341D01*
X029219Y005460D02*
X023989Y005460D01*
X023989Y005578D02*
X029219Y005578D01*
X029219Y005697D02*
X023989Y005697D01*
X023989Y005815D02*
X029219Y005815D01*
X029219Y005934D02*
X023989Y005934D01*
X023989Y006052D02*
X029219Y006052D01*
X029219Y006171D02*
X023989Y006171D01*
X023989Y006290D02*
X029219Y006290D01*
X029219Y006408D02*
X023989Y006408D01*
X023989Y006527D02*
X029219Y006527D01*
X029219Y006645D02*
X023989Y006645D01*
X023989Y006764D02*
X029219Y006764D01*
X029219Y006882D02*
X023989Y006882D01*
X023989Y007001D02*
X029219Y007001D01*
X029219Y007119D02*
X023989Y007119D01*
X023989Y007238D02*
X029219Y007238D01*
X029219Y007356D02*
X025280Y007356D01*
X025018Y007356D02*
X023989Y007356D01*
X023989Y007475D02*
X024882Y007475D01*
X024840Y007594D02*
X023989Y007594D01*
X023989Y007712D02*
X024846Y007712D01*
X023946Y008276D02*
X023924Y008298D01*
X023811Y008345D01*
X023688Y008345D01*
X023574Y008298D01*
X023487Y008211D01*
X023440Y008098D01*
X023440Y007975D01*
X023487Y007862D01*
X023509Y007840D01*
X023509Y004686D01*
X023150Y004326D01*
X015901Y004326D01*
X015813Y004290D01*
X015746Y004222D01*
X015246Y003722D01*
X015209Y003634D01*
X015209Y003539D01*
X015209Y002332D01*
X015138Y002303D01*
X014983Y002148D01*
X014899Y001946D01*
X014899Y001727D01*
X014983Y001525D01*
X015138Y001370D01*
X015340Y001287D01*
X015559Y001287D01*
X015761Y001370D01*
X015915Y001525D01*
X015949Y001606D01*
X015983Y001525D01*
X016138Y001370D01*
X016340Y001287D01*
X016559Y001287D01*
X016761Y001370D01*
X016915Y001525D01*
X016949Y001606D01*
X016983Y001525D01*
X017138Y001370D01*
X017340Y001287D01*
X017559Y001287D01*
X017761Y001370D01*
X017915Y001525D01*
X017959Y001631D01*
X017996Y001559D01*
X018045Y001491D01*
X018104Y001432D01*
X018171Y001383D01*
X018246Y001345D01*
X018325Y001320D01*
X018407Y001307D01*
X018409Y001307D01*
X018409Y001796D01*
X018489Y001796D01*
X018489Y001307D01*
X018491Y001307D01*
X018573Y001320D01*
X018653Y001345D01*
X018727Y001383D01*
X018794Y001432D01*
X018853Y001491D01*
X018902Y001559D01*
X018940Y001633D01*
X018949Y001660D01*
X018958Y001633D01*
X018996Y001559D01*
X019045Y001491D01*
X019104Y001432D01*
X019171Y001383D01*
X019246Y001345D01*
X019325Y001320D01*
X019407Y001307D01*
X019409Y001307D01*
X019409Y001796D01*
X019489Y001796D01*
X019489Y001307D01*
X019491Y001307D01*
X019573Y001320D01*
X019653Y001345D01*
X019727Y001383D01*
X019794Y001432D01*
X019853Y001491D01*
X019902Y001559D01*
X019939Y001631D01*
X019983Y001525D01*
X020138Y001370D01*
X020340Y001287D01*
X020559Y001287D01*
X020761Y001370D01*
X020915Y001525D01*
X020999Y001727D01*
X020999Y001946D01*
X020915Y002148D01*
X020761Y002303D01*
X020559Y002386D01*
X020340Y002386D01*
X020138Y002303D01*
X019983Y002148D01*
X019939Y002042D01*
X019902Y002114D01*
X019853Y002182D01*
X019794Y002241D01*
X019727Y002290D01*
X019653Y002328D01*
X019573Y002353D01*
X019491Y002366D01*
X019489Y002366D01*
X019489Y001877D01*
X019409Y001877D01*
X019409Y002366D01*
X019407Y002366D01*
X019325Y002353D01*
X019246Y002328D01*
X019171Y002290D01*
X019104Y002241D01*
X019045Y002182D01*
X018996Y002114D01*
X018958Y002040D01*
X018949Y002013D01*
X018940Y002040D01*
X018902Y002114D01*
X018853Y002182D01*
X018794Y002241D01*
X018727Y002290D01*
X018653Y002328D01*
X018573Y002353D01*
X018491Y002366D01*
X018489Y002366D01*
X018489Y001877D01*
X018409Y001877D01*
X018409Y002366D01*
X018407Y002366D01*
X018325Y002353D01*
X018246Y002328D01*
X018171Y002290D01*
X018104Y002241D01*
X018045Y002182D01*
X017996Y002114D01*
X017959Y002042D01*
X017915Y002148D01*
X017761Y002303D01*
X017559Y002386D01*
X017340Y002386D01*
X017138Y002303D01*
X016983Y002148D01*
X016949Y002067D01*
X016915Y002148D01*
X016761Y002303D01*
X016559Y002386D01*
X016340Y002386D01*
X016138Y002303D01*
X015983Y002148D01*
X015949Y002067D01*
X015919Y002141D02*
X015980Y002141D01*
X016094Y002259D02*
X015804Y002259D01*
X015689Y002378D02*
X016318Y002378D01*
X016580Y002378D02*
X017318Y002378D01*
X017094Y002259D02*
X016804Y002259D01*
X016919Y002141D02*
X016980Y002141D01*
X017580Y002378D02*
X020318Y002378D01*
X020094Y002259D02*
X019769Y002259D01*
X019883Y002141D02*
X019980Y002141D01*
X019489Y002141D02*
X019409Y002141D01*
X019409Y002259D02*
X019489Y002259D01*
X019489Y002022D02*
X019409Y002022D01*
X019409Y001903D02*
X019489Y001903D01*
X019409Y001877D02*
X019409Y001796D01*
X018919Y001796D01*
X018489Y001796D01*
X018489Y001877D01*
X018919Y001877D01*
X019409Y001877D01*
X019409Y001785D02*
X019489Y001785D01*
X019489Y001666D02*
X019409Y001666D01*
X019409Y001548D02*
X019489Y001548D01*
X019489Y001429D02*
X019409Y001429D01*
X019409Y001311D02*
X019489Y001311D01*
X019517Y001311D02*
X020281Y001311D01*
X020079Y001429D02*
X019790Y001429D01*
X019894Y001548D02*
X019973Y001548D01*
X019381Y001311D02*
X018517Y001311D01*
X018489Y001311D02*
X018409Y001311D01*
X018381Y001311D02*
X017617Y001311D01*
X017820Y001429D02*
X018108Y001429D01*
X018004Y001548D02*
X017925Y001548D01*
X018409Y001548D02*
X018489Y001548D01*
X018489Y001666D02*
X018409Y001666D01*
X018409Y001785D02*
X018489Y001785D01*
X018489Y001903D02*
X018409Y001903D01*
X018409Y002022D02*
X018489Y002022D01*
X018489Y002141D02*
X018409Y002141D01*
X018409Y002259D02*
X018489Y002259D01*
X018769Y002259D02*
X019129Y002259D01*
X019015Y002141D02*
X018883Y002141D01*
X018946Y002022D02*
X018952Y002022D01*
X019004Y001548D02*
X018894Y001548D01*
X018790Y001429D02*
X019108Y001429D01*
X018489Y001429D02*
X018409Y001429D01*
X018015Y002141D02*
X017919Y002141D01*
X017804Y002259D02*
X018129Y002259D01*
X017281Y001311D02*
X016617Y001311D01*
X016820Y001429D02*
X017079Y001429D01*
X016973Y001548D02*
X016925Y001548D01*
X016281Y001311D02*
X015617Y001311D01*
X015820Y001429D02*
X016079Y001429D01*
X015973Y001548D02*
X015925Y001548D01*
X015281Y001311D02*
X008569Y001311D01*
X008657Y001429D02*
X015079Y001429D01*
X014973Y001548D02*
X008706Y001548D01*
X008755Y001666D02*
X009280Y001666D01*
X009313Y001633D02*
X009401Y001597D01*
X013997Y001597D01*
X014085Y001633D01*
X014153Y001701D01*
X014653Y002201D01*
X014689Y002289D01*
X014689Y002384D01*
X014689Y007134D01*
X014653Y007222D01*
X014585Y007290D01*
X014085Y007790D01*
X013997Y007826D01*
X013901Y007826D01*
X009401Y007826D01*
X009313Y007790D01*
X009246Y007722D01*
X008746Y007222D01*
X008709Y007134D01*
X008709Y007039D01*
X008709Y002289D01*
X008746Y002201D01*
X008813Y002133D01*
X009246Y001701D01*
X009313Y001633D01*
X009161Y001785D02*
X008759Y001785D01*
X008759Y001903D02*
X009043Y001903D01*
X008924Y002022D02*
X008749Y002022D01*
X008700Y002141D02*
X008806Y002141D01*
X008721Y002259D02*
X008651Y002259D01*
X008709Y002378D02*
X008553Y002378D01*
X008435Y002496D02*
X008709Y002496D01*
X008709Y002615D02*
X008187Y002615D01*
X007711Y002615D02*
X006202Y002615D01*
X006284Y002496D02*
X007463Y002496D01*
X007345Y002378D02*
X006344Y002378D01*
X006385Y002259D02*
X007248Y002259D01*
X007198Y002141D02*
X006411Y002141D01*
X006419Y001903D02*
X007139Y001903D01*
X007139Y001785D02*
X006402Y001785D01*
X006370Y001666D02*
X007143Y001666D01*
X007192Y001548D02*
X006322Y001548D01*
X006255Y001429D02*
X007241Y001429D01*
X007330Y001311D02*
X006165Y001311D01*
X006036Y001192D02*
X007448Y001192D01*
X007675Y001074D02*
X005845Y001074D01*
X004979Y001074D02*
X002801Y001074D01*
X002685Y001192D02*
X004787Y001192D01*
X004659Y001311D02*
X002679Y001311D01*
X002679Y001429D02*
X004569Y001429D01*
X004502Y001548D02*
X002679Y001548D01*
X002679Y001666D02*
X004454Y001666D01*
X004422Y001785D02*
X002679Y001785D01*
X002679Y001903D02*
X004405Y001903D01*
X004413Y002141D02*
X002679Y002141D01*
X002679Y002259D02*
X004438Y002259D01*
X004479Y002378D02*
X002679Y002378D01*
X002679Y002496D02*
X004539Y002496D01*
X004621Y002615D02*
X002679Y002615D01*
X002679Y002733D02*
X004730Y002733D01*
X004891Y002852D02*
X004455Y002852D01*
X004400Y002839D02*
X004511Y002864D01*
X004618Y002902D01*
X004720Y002951D01*
X004816Y003011D01*
X004905Y003082D01*
X004985Y003162D01*
X005056Y003251D01*
X005116Y003347D01*
X005165Y003449D01*
X005203Y003556D01*
X005228Y003667D01*
X005240Y003777D01*
X004291Y003777D01*
X004291Y003896D01*
X005240Y003896D01*
X005228Y004006D01*
X005203Y004117D01*
X005165Y004224D01*
X005116Y004326D01*
X005056Y004422D01*
X004985Y004511D01*
X004905Y004591D01*
X004816Y004662D01*
X004720Y004722D01*
X004618Y004771D01*
X004511Y004809D01*
X004400Y004834D01*
X004291Y004846D01*
X004291Y003897D01*
X004171Y003897D01*
X004171Y004846D01*
X004061Y004834D01*
X003951Y004809D01*
X003844Y004771D01*
X003741Y004722D01*
X003645Y004662D01*
X003557Y004591D01*
X003476Y004511D01*
X003406Y004422D01*
X003345Y004326D01*
X003296Y004224D01*
X003259Y004117D01*
X003233Y004006D01*
X003221Y003896D01*
X004170Y003896D01*
X004170Y003777D01*
X003221Y003777D01*
X003233Y003667D01*
X003259Y003556D01*
X003296Y003449D01*
X003345Y003347D01*
X003406Y003251D01*
X003476Y003162D01*
X003557Y003082D01*
X003645Y003011D01*
X003741Y002951D01*
X003844Y002902D01*
X003951Y002864D01*
X004061Y002839D01*
X004171Y002827D01*
X004171Y003776D01*
X004291Y003776D01*
X004291Y002827D01*
X004400Y002839D01*
X004291Y002852D02*
X004171Y002852D01*
X004171Y002970D02*
X004291Y002970D01*
X004291Y003089D02*
X004171Y003089D01*
X004171Y003207D02*
X004291Y003207D01*
X004291Y003326D02*
X004171Y003326D01*
X004171Y003444D02*
X004291Y003444D01*
X004291Y003563D02*
X004171Y003563D01*
X004171Y003682D02*
X004291Y003682D01*
X004291Y003800D02*
X005563Y003800D01*
X005563Y003701D02*
X005633Y003439D01*
X005769Y003204D01*
X005960Y003012D01*
X006195Y002877D01*
X006457Y002807D01*
X006728Y002807D01*
X006990Y002877D01*
X007225Y003012D01*
X007417Y003204D01*
X007553Y003439D01*
X007623Y003701D01*
X007623Y003972D01*
X007553Y004234D01*
X007417Y004469D01*
X007225Y004661D01*
X006990Y004796D01*
X006728Y004866D01*
X006457Y004866D01*
X006195Y004796D01*
X005960Y004661D01*
X005769Y004469D01*
X005633Y004234D01*
X005563Y003972D01*
X005563Y003701D01*
X005568Y003682D02*
X005229Y003682D01*
X005204Y003563D02*
X005600Y003563D01*
X005632Y003444D02*
X005163Y003444D01*
X005103Y003326D02*
X005698Y003326D01*
X005767Y003207D02*
X005021Y003207D01*
X004911Y003089D02*
X005884Y003089D01*
X006033Y002970D02*
X005638Y002970D01*
X005472Y002970D02*
X005352Y002970D01*
X005352Y002852D02*
X005472Y002852D01*
X005472Y002733D02*
X005352Y002733D01*
X005352Y002615D02*
X005472Y002615D01*
X005472Y002496D02*
X005352Y002496D01*
X005352Y002378D02*
X005472Y002378D01*
X005472Y002259D02*
X005352Y002259D01*
X005352Y002141D02*
X005472Y002141D01*
X005472Y002022D02*
X007149Y002022D01*
X006897Y002852D02*
X008709Y002852D01*
X008709Y002970D02*
X007152Y002970D01*
X007302Y003089D02*
X008709Y003089D01*
X008709Y003207D02*
X007419Y003207D01*
X007487Y003326D02*
X008709Y003326D01*
X008709Y003444D02*
X007554Y003444D01*
X007586Y003563D02*
X008709Y003563D01*
X008709Y003682D02*
X007618Y003682D01*
X007623Y003800D02*
X008709Y003800D01*
X008709Y003919D02*
X007623Y003919D01*
X007605Y004037D02*
X008709Y004037D01*
X008709Y004156D02*
X007574Y004156D01*
X007529Y004274D02*
X008709Y004274D01*
X008709Y004393D02*
X007461Y004393D01*
X007375Y004511D02*
X008709Y004511D01*
X008709Y004630D02*
X007256Y004630D01*
X007073Y004748D02*
X008709Y004748D01*
X008709Y004867D02*
X002679Y004867D01*
X002679Y004986D02*
X008709Y004986D01*
X008709Y005104D02*
X002679Y005104D01*
X002679Y005223D02*
X008709Y005223D01*
X008709Y005341D02*
X002679Y005341D01*
X002679Y005460D02*
X008709Y005460D01*
X008709Y005578D02*
X002679Y005578D01*
X002679Y005697D02*
X008709Y005697D01*
X008709Y005815D02*
X002679Y005815D01*
X002679Y005934D02*
X008709Y005934D01*
X008709Y006052D02*
X002679Y006052D01*
X002679Y006171D02*
X008709Y006171D01*
X008709Y006290D02*
X002679Y006290D01*
X002679Y006408D02*
X008709Y006408D01*
X008709Y006527D02*
X002679Y006527D01*
X002679Y006645D02*
X008709Y006645D01*
X008709Y006764D02*
X002679Y006764D01*
X002679Y006882D02*
X008709Y006882D01*
X008709Y007001D02*
X002679Y007001D01*
X002679Y007119D02*
X008709Y007119D01*
X008761Y007238D02*
X002679Y007238D01*
X002679Y007356D02*
X008880Y007356D01*
X008998Y007475D02*
X002679Y007475D01*
X002679Y007594D02*
X009117Y007594D01*
X009235Y007712D02*
X002679Y007712D01*
X002679Y007831D02*
X018968Y007831D01*
X018937Y007862D02*
X019024Y007775D01*
X019138Y007728D01*
X019261Y007728D01*
X019374Y007775D01*
X019461Y007862D01*
X019508Y007975D01*
X019508Y008098D01*
X019461Y008211D01*
X019439Y008233D01*
X019439Y011884D01*
X019403Y011972D01*
X019335Y012040D01*
X019058Y012317D01*
X019058Y012348D01*
X019011Y012461D01*
X018924Y012548D01*
X018811Y012595D01*
X018688Y012595D01*
X018574Y012548D01*
X018487Y012461D01*
X018440Y012348D01*
X018440Y012225D01*
X018487Y012112D01*
X018574Y012025D01*
X018688Y011978D01*
X018719Y011978D01*
X018959Y011737D01*
X018959Y008233D01*
X018937Y008211D01*
X018890Y008098D01*
X018890Y007975D01*
X018937Y007862D01*
X018901Y007949D02*
X002679Y007949D01*
X002679Y008068D02*
X018890Y008068D01*
X018927Y008186D02*
X002679Y008186D01*
X002679Y008305D02*
X018959Y008305D01*
X018959Y008423D02*
X002679Y008423D01*
X002679Y008542D02*
X018959Y008542D01*
X018959Y008660D02*
X002679Y008660D01*
X002679Y008779D02*
X018959Y008779D01*
X018959Y008897D02*
X002679Y008897D01*
X002679Y009016D02*
X018959Y009016D01*
X018959Y009135D02*
X002679Y009135D01*
X002679Y009253D02*
X018959Y009253D01*
X018959Y009372D02*
X004671Y009372D01*
X004744Y009490D02*
X018959Y009490D01*
X018959Y009609D02*
X004811Y009609D01*
X004929Y009727D02*
X018959Y009727D01*
X018959Y009846D02*
X005048Y009846D01*
X005158Y009964D02*
X018959Y009964D01*
X018959Y010083D02*
X005189Y010083D01*
X005189Y010201D02*
X018959Y010201D01*
X018959Y010320D02*
X005189Y010320D01*
X005189Y010439D02*
X018959Y010439D01*
X018959Y010557D02*
X005189Y010557D01*
X005189Y010676D02*
X018959Y010676D01*
X018959Y010794D02*
X005189Y010794D01*
X005189Y010913D02*
X007634Y010913D01*
X007515Y011031D02*
X005189Y011031D01*
X005189Y011150D02*
X007396Y011150D01*
X007278Y011268D02*
X005189Y011268D01*
X005189Y011387D02*
X007062Y011387D01*
X006998Y011505D02*
X005189Y011505D01*
X005189Y011624D02*
X006990Y011624D01*
X007029Y011743D02*
X005189Y011743D01*
X005189Y011861D02*
X007155Y011861D01*
X007113Y011980D02*
X005189Y011980D01*
X005189Y012098D02*
X007072Y012098D01*
X007040Y012217D02*
X005189Y012217D01*
X005287Y012335D02*
X007056Y012335D01*
X007130Y012454D02*
X005406Y012454D01*
X005349Y012737D02*
X004949Y012337D01*
X004949Y010087D01*
X004449Y009587D01*
X004227Y009372D02*
X002679Y009372D01*
X002679Y009490D02*
X004155Y009490D01*
X004140Y009609D02*
X002679Y009609D01*
X002679Y009727D02*
X004173Y009727D01*
X004272Y009846D02*
X002679Y009846D01*
X002679Y009964D02*
X004488Y009964D01*
X004606Y010083D02*
X002679Y010083D01*
X002679Y010201D02*
X004709Y010201D01*
X004709Y010320D02*
X002679Y010320D01*
X002679Y010439D02*
X004709Y010439D01*
X004709Y010557D02*
X004582Y010557D01*
X004317Y010557D02*
X002679Y010557D01*
X002679Y010676D02*
X004181Y010676D01*
X004140Y010794D02*
X002679Y010794D01*
X002679Y010913D02*
X004146Y010913D01*
X004207Y011031D02*
X002679Y011031D01*
X002679Y011150D02*
X004423Y011150D01*
X004459Y011268D02*
X002679Y011268D01*
X002679Y011387D02*
X004459Y011387D01*
X004459Y011505D02*
X002679Y011505D01*
X002679Y011624D02*
X004459Y011624D01*
X004459Y011743D02*
X002679Y011743D01*
X002679Y011861D02*
X004459Y011861D01*
X004459Y011980D02*
X002679Y011980D01*
X002679Y012098D02*
X004459Y012098D01*
X004459Y012217D02*
X002679Y012217D01*
X002679Y012335D02*
X004459Y012335D01*
X004459Y012484D02*
X004496Y012572D01*
X004563Y012640D02*
X004563Y012640D01*
X004614Y012691D02*
X002679Y012691D01*
X002679Y012809D02*
X004733Y012809D01*
X004851Y012928D02*
X002679Y012928D01*
X002679Y013046D02*
X004970Y013046D01*
X005046Y013122D02*
X005046Y013122D01*
X005088Y013165D02*
X002679Y013165D01*
X002679Y013284D02*
X008523Y013284D01*
X008347Y013402D02*
X002679Y013402D01*
X002679Y013521D02*
X008292Y013521D01*
X008290Y013639D02*
X002679Y013639D01*
X002679Y013758D02*
X008336Y013758D01*
X008331Y013876D02*
X002679Y013876D01*
X002679Y013995D02*
X008290Y013995D01*
X008297Y014113D02*
X002679Y014113D01*
X002679Y014232D02*
X008358Y014232D01*
X008599Y014037D02*
X008899Y013737D01*
X011799Y013737D01*
X012199Y013337D01*
X012199Y012087D01*
X011988Y011861D02*
X007864Y011861D01*
X007983Y011743D02*
X018140Y011743D01*
X018140Y011748D02*
X018140Y011717D01*
X018000Y011576D01*
X008149Y011576D01*
X007626Y012099D01*
X007658Y012175D01*
X007658Y012298D01*
X007611Y012411D01*
X007526Y012497D01*
X011002Y012497D01*
X011024Y012475D01*
X011138Y012428D01*
X011261Y012428D01*
X011374Y012475D01*
X011461Y012562D01*
X011508Y012675D01*
X011508Y012798D01*
X011476Y012876D01*
X011561Y012962D01*
X011608Y013075D01*
X011608Y013198D01*
X011588Y013247D01*
X011600Y013247D01*
X011709Y013137D01*
X011709Y012484D01*
X011624Y012448D01*
X011537Y012361D01*
X011490Y012248D01*
X011490Y012125D01*
X011537Y012012D01*
X011624Y011925D01*
X011738Y011878D01*
X011861Y011878D01*
X011939Y011910D01*
X012024Y011825D01*
X012138Y011778D01*
X012261Y011778D01*
X012374Y011825D01*
X012452Y011903D01*
X012457Y011898D01*
X012581Y011847D01*
X012717Y011847D01*
X012546Y011861D02*
X012411Y011861D01*
X012923Y011980D02*
X018350Y011980D01*
X018501Y012098D02*
X012981Y012098D01*
X012989Y012217D02*
X018444Y012217D01*
X018440Y012335D02*
X012989Y012335D01*
X012989Y012454D02*
X018484Y012454D01*
X018632Y012572D02*
X012989Y012572D01*
X012989Y012691D02*
X019709Y012691D01*
X019709Y012809D02*
X012989Y012809D01*
X012989Y012928D02*
X019709Y012928D01*
X019709Y013046D02*
X012989Y013046D01*
X012989Y013165D02*
X019709Y013165D01*
X019709Y013284D02*
X012989Y013284D01*
X012989Y013402D02*
X019709Y013402D01*
X019709Y013521D02*
X012982Y013521D01*
X012927Y013639D02*
X019709Y013639D01*
X019709Y013740D02*
X019709Y008933D01*
X019687Y008911D01*
X019640Y008798D01*
X019640Y008675D01*
X019687Y008562D01*
X019774Y008475D01*
X019888Y008428D01*
X019940Y008428D01*
X019940Y008375D01*
X019987Y008262D01*
X020074Y008175D01*
X020188Y008128D01*
X020240Y008128D01*
X020240Y008075D01*
X020287Y007962D01*
X020374Y007875D01*
X020488Y007828D01*
X020540Y007828D01*
X020540Y007775D01*
X020587Y007662D01*
X020674Y007575D01*
X020788Y007528D01*
X020840Y007528D01*
X020840Y007475D01*
X020887Y007362D01*
X020974Y007275D01*
X021088Y007228D01*
X021140Y007228D01*
X021140Y007175D01*
X021187Y007062D01*
X021274Y006975D01*
X021388Y006928D01*
X021511Y006928D01*
X021624Y006975D01*
X021711Y007062D01*
X021758Y007175D01*
X021758Y007298D01*
X021711Y007411D01*
X021689Y007433D01*
X021689Y013390D01*
X021711Y013412D01*
X021758Y013525D01*
X021758Y013648D01*
X021711Y013761D01*
X021624Y013848D01*
X021511Y013895D01*
X021458Y013895D01*
X021458Y013998D01*
X021411Y014111D01*
X021324Y014198D01*
X021211Y014245D01*
X021088Y014245D01*
X020974Y014198D01*
X020887Y014111D01*
X020840Y013998D01*
X020840Y013895D01*
X020808Y013895D01*
X020808Y013998D01*
X020761Y014111D01*
X020674Y014198D01*
X020561Y014245D01*
X020438Y014245D01*
X020324Y014198D01*
X020237Y014111D01*
X020224Y014080D01*
X020211Y014111D01*
X020124Y014198D01*
X020011Y014245D01*
X019888Y014245D01*
X019774Y014198D01*
X019687Y014111D01*
X019640Y013998D01*
X019640Y013875D01*
X019687Y013762D01*
X019709Y013740D01*
X019691Y013758D02*
X012809Y013758D01*
X012690Y013876D02*
X019640Y013876D01*
X019640Y013995D02*
X012572Y013995D01*
X012453Y014113D02*
X019689Y014113D01*
X019855Y014232D02*
X012334Y014232D01*
X012287Y014279D02*
X012287Y014279D01*
X012216Y014350D02*
X023959Y014350D01*
X023959Y014283D02*
X023937Y014261D01*
X023890Y014148D01*
X023890Y014025D01*
X023937Y013912D01*
X024024Y013825D01*
X024138Y013778D01*
X024261Y013778D01*
X024374Y013825D01*
X024461Y013912D01*
X024508Y014025D01*
X024508Y014148D01*
X024461Y014261D01*
X024439Y014283D01*
X024439Y014507D01*
X024890Y014056D01*
X024890Y014025D01*
X024937Y013912D01*
X025024Y013825D01*
X025138Y013778D01*
X025261Y013778D01*
X025374Y013825D01*
X025461Y013912D01*
X025483Y013964D01*
X025709Y013737D01*
X025709Y011384D01*
X025709Y011289D01*
X025746Y011201D01*
X026246Y010701D01*
X026313Y010633D01*
X026401Y010597D01*
X026961Y010597D01*
X027259Y010299D01*
X027259Y008436D01*
X027100Y008276D01*
X023946Y008276D01*
X023909Y008305D02*
X027128Y008305D01*
X027246Y008423D02*
X021689Y008423D01*
X021689Y008305D02*
X023590Y008305D01*
X023477Y008186D02*
X021689Y008186D01*
X021689Y008068D02*
X023440Y008068D01*
X023451Y007949D02*
X021689Y007949D01*
X021689Y007831D02*
X023509Y007831D01*
X023509Y007712D02*
X021689Y007712D01*
X021689Y007594D02*
X023509Y007594D01*
X023509Y007475D02*
X021689Y007475D01*
X021734Y007356D02*
X023509Y007356D01*
X023509Y007238D02*
X021758Y007238D01*
X021735Y007119D02*
X023509Y007119D01*
X023509Y007001D02*
X021650Y007001D01*
X021449Y007237D02*
X021449Y013587D01*
X021557Y013876D02*
X023972Y013876D01*
X023903Y013995D02*
X021458Y013995D01*
X021409Y014113D02*
X023890Y014113D01*
X023925Y014232D02*
X021243Y014232D01*
X021055Y014232D02*
X020593Y014232D01*
X020405Y014232D02*
X020043Y014232D01*
X020209Y014113D02*
X020239Y014113D01*
X020499Y013937D02*
X020549Y008137D01*
X020300Y007949D02*
X019497Y007949D01*
X019508Y008068D02*
X020243Y008068D01*
X020063Y008186D02*
X019471Y008186D01*
X019439Y008305D02*
X019969Y008305D01*
X019940Y008423D02*
X019439Y008423D01*
X019439Y008542D02*
X019707Y008542D01*
X019646Y008660D02*
X019439Y008660D01*
X019439Y008779D02*
X019640Y008779D01*
X019681Y008897D02*
X019439Y008897D01*
X019439Y009016D02*
X019709Y009016D01*
X019709Y009135D02*
X019439Y009135D01*
X019439Y009253D02*
X019709Y009253D01*
X019709Y009372D02*
X019439Y009372D01*
X019439Y009490D02*
X019709Y009490D01*
X019709Y009609D02*
X019439Y009609D01*
X019439Y009727D02*
X019709Y009727D01*
X019709Y009846D02*
X019439Y009846D01*
X019439Y009964D02*
X019709Y009964D01*
X019709Y010083D02*
X019439Y010083D01*
X019439Y010201D02*
X019709Y010201D01*
X019709Y010320D02*
X019439Y010320D01*
X019439Y010439D02*
X019709Y010439D01*
X019709Y010557D02*
X019439Y010557D01*
X019439Y010676D02*
X019709Y010676D01*
X019709Y010794D02*
X019439Y010794D01*
X019439Y010913D02*
X019709Y010913D01*
X019709Y011031D02*
X019439Y011031D01*
X019439Y011150D02*
X019709Y011150D01*
X019709Y011268D02*
X019439Y011268D01*
X019439Y011387D02*
X019709Y011387D01*
X019709Y011505D02*
X019439Y011505D01*
X019439Y011624D02*
X019709Y011624D01*
X019709Y011743D02*
X019439Y011743D01*
X019439Y011861D02*
X019709Y011861D01*
X019709Y011980D02*
X019395Y011980D01*
X019277Y012098D02*
X019709Y012098D01*
X019709Y012217D02*
X019158Y012217D01*
X019058Y012335D02*
X019709Y012335D01*
X019709Y012454D02*
X019014Y012454D01*
X018866Y012572D02*
X019709Y012572D01*
X019199Y011837D02*
X019199Y008037D01*
X019430Y007831D02*
X020481Y007831D01*
X020566Y007712D02*
X014163Y007712D01*
X014282Y007594D02*
X020655Y007594D01*
X020840Y007475D02*
X014400Y007475D01*
X014519Y007356D02*
X020892Y007356D01*
X021063Y007238D02*
X014637Y007238D01*
X014689Y007119D02*
X021163Y007119D01*
X021248Y007001D02*
X014689Y007001D01*
X014689Y006882D02*
X023509Y006882D01*
X023509Y006764D02*
X014689Y006764D01*
X014689Y006645D02*
X023509Y006645D01*
X023509Y006527D02*
X014689Y006527D01*
X014689Y006408D02*
X023509Y006408D01*
X023509Y006290D02*
X014689Y006290D01*
X014689Y006171D02*
X023509Y006171D01*
X023509Y006052D02*
X014689Y006052D01*
X014689Y005934D02*
X023509Y005934D01*
X023509Y005815D02*
X014689Y005815D01*
X014689Y005697D02*
X023509Y005697D01*
X023509Y005578D02*
X014689Y005578D01*
X014689Y005460D02*
X023509Y005460D01*
X023509Y005341D02*
X014689Y005341D01*
X014689Y005223D02*
X023509Y005223D01*
X023509Y005104D02*
X014689Y005104D01*
X014689Y004986D02*
X023509Y004986D01*
X023509Y004867D02*
X014689Y004867D01*
X014689Y004748D02*
X023509Y004748D01*
X023453Y004630D02*
X014689Y004630D01*
X014689Y004511D02*
X023335Y004511D01*
X023216Y004393D02*
X014689Y004393D01*
X014689Y004274D02*
X015797Y004274D01*
X015679Y004156D02*
X014689Y004156D01*
X014689Y004037D02*
X015560Y004037D01*
X015442Y003919D02*
X014689Y003919D01*
X014689Y003800D02*
X015323Y003800D01*
X015229Y003682D02*
X014689Y003682D01*
X014689Y003563D02*
X015209Y003563D01*
X015209Y003444D02*
X014689Y003444D01*
X014689Y003326D02*
X015209Y003326D01*
X015209Y003207D02*
X014689Y003207D01*
X014689Y003089D02*
X015209Y003089D01*
X015209Y002970D02*
X014689Y002970D01*
X014689Y002852D02*
X015209Y002852D01*
X015209Y002733D02*
X014689Y002733D01*
X014689Y002615D02*
X015209Y002615D01*
X015209Y002496D02*
X014689Y002496D01*
X014689Y002378D02*
X015209Y002378D01*
X015094Y002259D02*
X014677Y002259D01*
X014593Y002141D02*
X014980Y002141D01*
X014931Y002022D02*
X014474Y002022D01*
X014355Y001903D02*
X014899Y001903D01*
X014899Y001785D02*
X014237Y001785D01*
X014118Y001666D02*
X014924Y001666D01*
X014372Y002259D02*
X009027Y002259D01*
X008949Y002337D02*
X009449Y001837D01*
X013949Y001837D01*
X014449Y002337D01*
X014449Y007087D01*
X013949Y007587D01*
X009449Y007587D01*
X008949Y007087D01*
X008949Y002337D01*
X008949Y002378D02*
X014449Y002378D01*
X014449Y002496D02*
X008949Y002496D01*
X008949Y002615D02*
X014449Y002615D01*
X014449Y002733D02*
X008949Y002733D01*
X008949Y002852D02*
X014449Y002852D01*
X014449Y002970D02*
X008949Y002970D01*
X008949Y003089D02*
X014449Y003089D01*
X014449Y003207D02*
X008949Y003207D01*
X008949Y003326D02*
X014449Y003326D01*
X014449Y003444D02*
X008949Y003444D01*
X008949Y003563D02*
X014449Y003563D01*
X014449Y003682D02*
X008949Y003682D01*
X008949Y003800D02*
X014449Y003800D01*
X014449Y003919D02*
X008949Y003919D01*
X008949Y004037D02*
X014449Y004037D01*
X014449Y004156D02*
X008949Y004156D01*
X008949Y004274D02*
X014449Y004274D01*
X014449Y004393D02*
X008949Y004393D01*
X008949Y004511D02*
X014449Y004511D01*
X014449Y004630D02*
X008949Y004630D01*
X008949Y004748D02*
X014449Y004748D01*
X014449Y004867D02*
X008949Y004867D01*
X008949Y004986D02*
X014449Y004986D01*
X014449Y005104D02*
X008949Y005104D01*
X008949Y005223D02*
X014449Y005223D01*
X014449Y005341D02*
X008949Y005341D01*
X008949Y005460D02*
X014449Y005460D01*
X014449Y005578D02*
X008949Y005578D01*
X008949Y005697D02*
X014449Y005697D01*
X014449Y005815D02*
X008949Y005815D01*
X008949Y005934D02*
X014449Y005934D01*
X014449Y006052D02*
X008949Y006052D01*
X008949Y006171D02*
X014449Y006171D01*
X014449Y006290D02*
X008949Y006290D01*
X008949Y006408D02*
X014449Y006408D01*
X014449Y006527D02*
X008949Y006527D01*
X008949Y006645D02*
X014449Y006645D01*
X014449Y006764D02*
X008949Y006764D01*
X008949Y006882D02*
X014449Y006882D01*
X014449Y007001D02*
X008949Y007001D01*
X008982Y007119D02*
X014416Y007119D01*
X014298Y007238D02*
X009100Y007238D01*
X009219Y007356D02*
X014179Y007356D01*
X014061Y007475D02*
X009338Y007475D01*
X006112Y004748D02*
X004665Y004748D01*
X004856Y004630D02*
X005930Y004630D01*
X005811Y004511D02*
X004984Y004511D01*
X005074Y004393D02*
X005725Y004393D01*
X005656Y004274D02*
X005141Y004274D01*
X005189Y004156D02*
X005612Y004156D01*
X005580Y004037D02*
X005221Y004037D01*
X005238Y003919D02*
X005563Y003919D01*
X004291Y003919D02*
X004171Y003919D01*
X004171Y004037D02*
X004291Y004037D01*
X004291Y004156D02*
X004171Y004156D01*
X004171Y004274D02*
X004291Y004274D01*
X004291Y004393D02*
X004171Y004393D01*
X004171Y004511D02*
X004291Y004511D01*
X004291Y004630D02*
X004171Y004630D01*
X004171Y004748D02*
X004291Y004748D01*
X003797Y004748D02*
X002679Y004748D01*
X002679Y004630D02*
X003606Y004630D01*
X003477Y004511D02*
X002679Y004511D01*
X002679Y004393D02*
X003387Y004393D01*
X003320Y004274D02*
X002679Y004274D01*
X002679Y004156D02*
X003272Y004156D01*
X003240Y004037D02*
X002679Y004037D01*
X002679Y003919D02*
X003224Y003919D01*
X003232Y003682D02*
X002679Y003682D01*
X002679Y003800D02*
X004170Y003800D01*
X003359Y003326D02*
X002679Y003326D01*
X002679Y003444D02*
X003298Y003444D01*
X003257Y003563D02*
X002679Y003563D01*
X002679Y003207D02*
X003440Y003207D01*
X003550Y003089D02*
X002679Y003089D01*
X002679Y002970D02*
X003711Y002970D01*
X004006Y002852D02*
X002679Y002852D01*
X002679Y002022D02*
X005352Y002022D01*
X006093Y002733D02*
X008709Y002733D01*
X009145Y002141D02*
X014253Y002141D01*
X014135Y002022D02*
X009264Y002022D01*
X009382Y001903D02*
X014016Y001903D01*
X015689Y002496D02*
X028784Y002496D01*
X028902Y002615D02*
X015689Y002615D01*
X015689Y002733D02*
X029021Y002733D01*
X029139Y002852D02*
X015689Y002852D01*
X020580Y002378D02*
X022318Y002378D01*
X022340Y002386D02*
X022138Y002303D01*
X021983Y002148D01*
X021899Y001946D01*
X021899Y001727D01*
X021983Y001525D01*
X022138Y001370D01*
X022340Y001287D01*
X022559Y001287D01*
X022761Y001370D01*
X022915Y001525D01*
X022949Y001606D01*
X022983Y001525D01*
X023138Y001370D01*
X023340Y001287D01*
X023559Y001287D01*
X023761Y001370D01*
X023915Y001525D01*
X023949Y001606D01*
X023983Y001525D01*
X024138Y001370D01*
X024340Y001287D01*
X024559Y001287D01*
X024761Y001370D01*
X024915Y001525D01*
X024949Y001606D01*
X024983Y001525D01*
X025138Y001370D01*
X025340Y001287D01*
X025559Y001287D01*
X025761Y001370D01*
X025915Y001525D01*
X025949Y001606D01*
X025983Y001525D01*
X026138Y001370D01*
X026340Y001287D01*
X026559Y001287D01*
X026761Y001370D01*
X026915Y001525D01*
X026949Y001606D01*
X026983Y001525D01*
X027138Y001370D01*
X027340Y001287D01*
X027559Y001287D01*
X027761Y001370D01*
X027915Y001525D01*
X027999Y001727D01*
X027999Y001946D01*
X027915Y002148D01*
X027761Y002303D01*
X027559Y002386D01*
X027340Y002386D01*
X027138Y002303D01*
X026983Y002148D01*
X026949Y002067D01*
X026915Y002148D01*
X026761Y002303D01*
X026559Y002386D01*
X026340Y002386D01*
X026138Y002303D01*
X025983Y002148D01*
X025949Y002067D01*
X025915Y002148D01*
X025761Y002303D01*
X025559Y002386D01*
X025340Y002386D01*
X025138Y002303D01*
X024983Y002148D01*
X024949Y002067D01*
X024915Y002148D01*
X024761Y002303D01*
X024559Y002386D01*
X024340Y002386D01*
X024138Y002303D01*
X023983Y002148D01*
X023949Y002067D01*
X023915Y002148D01*
X023761Y002303D01*
X023559Y002386D01*
X023340Y002386D01*
X023138Y002303D01*
X022983Y002148D01*
X022949Y002067D01*
X022915Y002148D01*
X022761Y002303D01*
X022559Y002386D01*
X022340Y002386D01*
X022580Y002378D02*
X023318Y002378D01*
X023094Y002259D02*
X022804Y002259D01*
X022919Y002141D02*
X022980Y002141D01*
X023580Y002378D02*
X024318Y002378D01*
X024094Y002259D02*
X023804Y002259D01*
X023919Y002141D02*
X023980Y002141D01*
X024580Y002378D02*
X025318Y002378D01*
X025094Y002259D02*
X024804Y002259D01*
X024919Y002141D02*
X024980Y002141D01*
X025580Y002378D02*
X026318Y002378D01*
X026094Y002259D02*
X025804Y002259D01*
X025919Y002141D02*
X025980Y002141D01*
X026580Y002378D02*
X027318Y002378D01*
X027094Y002259D02*
X026804Y002259D01*
X026919Y002141D02*
X026980Y002141D01*
X027580Y002378D02*
X028665Y002378D01*
X028546Y002259D02*
X027804Y002259D01*
X027919Y002141D02*
X028428Y002141D01*
X028309Y002022D02*
X027968Y002022D01*
X027999Y001903D02*
X028219Y001903D01*
X028219Y001785D02*
X027999Y001785D01*
X027974Y001666D02*
X028219Y001666D01*
X028219Y001548D02*
X027925Y001548D01*
X027820Y001429D02*
X028219Y001429D01*
X028219Y001311D02*
X027617Y001311D01*
X027281Y001311D02*
X026617Y001311D01*
X026820Y001429D02*
X027079Y001429D01*
X026973Y001548D02*
X026925Y001548D01*
X026281Y001311D02*
X025617Y001311D01*
X025820Y001429D02*
X026079Y001429D01*
X025973Y001548D02*
X025925Y001548D01*
X025281Y001311D02*
X024617Y001311D01*
X024820Y001429D02*
X025079Y001429D01*
X024973Y001548D02*
X024925Y001548D01*
X024281Y001311D02*
X023617Y001311D01*
X023820Y001429D02*
X024079Y001429D01*
X023973Y001548D02*
X023925Y001548D01*
X023281Y001311D02*
X022617Y001311D01*
X022820Y001429D02*
X023079Y001429D01*
X022973Y001548D02*
X022925Y001548D01*
X022281Y001311D02*
X020617Y001311D01*
X020820Y001429D02*
X022079Y001429D01*
X021973Y001548D02*
X020925Y001548D01*
X020974Y001666D02*
X021924Y001666D01*
X021899Y001785D02*
X020999Y001785D01*
X020999Y001903D02*
X021899Y001903D01*
X021931Y002022D02*
X020968Y002022D01*
X020919Y002141D02*
X021980Y002141D01*
X022094Y002259D02*
X020804Y002259D01*
X021149Y007537D02*
X021149Y013937D01*
X020889Y014113D02*
X020759Y014113D01*
X020808Y013995D02*
X020840Y013995D01*
X020849Y013587D02*
X020849Y007837D01*
X020249Y008437D02*
X020249Y013587D01*
X019949Y013937D02*
X019949Y008737D01*
X021689Y008779D02*
X027259Y008779D01*
X027259Y008897D02*
X021689Y008897D01*
X021689Y009016D02*
X027259Y009016D01*
X027259Y009135D02*
X021689Y009135D01*
X021689Y009253D02*
X027259Y009253D01*
X027259Y009372D02*
X021689Y009372D01*
X021689Y009490D02*
X027259Y009490D01*
X027259Y009609D02*
X021689Y009609D01*
X021689Y009727D02*
X027259Y009727D01*
X027259Y009846D02*
X021689Y009846D01*
X021689Y009964D02*
X027259Y009964D01*
X027259Y010083D02*
X021689Y010083D01*
X021689Y010201D02*
X027259Y010201D01*
X027238Y010320D02*
X021689Y010320D01*
X021689Y010439D02*
X027119Y010439D01*
X027001Y010557D02*
X021689Y010557D01*
X021689Y010676D02*
X026271Y010676D01*
X026152Y010794D02*
X021689Y010794D01*
X021689Y010913D02*
X026034Y010913D01*
X025915Y011031D02*
X021689Y011031D01*
X021689Y011150D02*
X025796Y011150D01*
X025718Y011268D02*
X021689Y011268D01*
X021689Y011387D02*
X025709Y011387D01*
X025709Y011505D02*
X021689Y011505D01*
X021689Y011624D02*
X025709Y011624D01*
X025709Y011743D02*
X021689Y011743D01*
X021689Y011861D02*
X025709Y011861D01*
X025709Y011980D02*
X021689Y011980D01*
X021689Y012098D02*
X025709Y012098D01*
X025709Y012217D02*
X021689Y012217D01*
X021689Y012335D02*
X025709Y012335D01*
X025709Y012454D02*
X021689Y012454D01*
X021689Y012572D02*
X025709Y012572D01*
X025709Y012691D02*
X021689Y012691D01*
X021689Y012809D02*
X025709Y012809D01*
X025709Y012928D02*
X021689Y012928D01*
X021689Y013046D02*
X025709Y013046D01*
X025709Y013165D02*
X021689Y013165D01*
X021689Y013284D02*
X025709Y013284D01*
X025709Y013402D02*
X021702Y013402D01*
X021756Y013521D02*
X025709Y013521D01*
X025709Y013639D02*
X021758Y013639D01*
X021713Y013758D02*
X025688Y013758D01*
X025570Y013876D02*
X025426Y013876D01*
X025199Y014087D02*
X024199Y015087D01*
X013349Y015087D01*
X013390Y014778D02*
X013390Y014675D01*
X013437Y014562D01*
X013524Y014475D01*
X013638Y014428D01*
X013761Y014428D01*
X013874Y014475D01*
X013961Y014562D01*
X013975Y014597D01*
X023850Y014597D01*
X023959Y014487D01*
X023959Y014283D01*
X023959Y014469D02*
X013860Y014469D01*
X013972Y014588D02*
X023859Y014588D01*
X023949Y014837D02*
X024199Y014587D01*
X024199Y014087D01*
X024426Y013876D02*
X024972Y013876D01*
X024903Y013995D02*
X024495Y013995D01*
X024508Y014113D02*
X024833Y014113D01*
X024714Y014232D02*
X024473Y014232D01*
X024439Y014350D02*
X024596Y014350D01*
X024477Y014469D02*
X024439Y014469D01*
X023949Y014837D02*
X013799Y014837D01*
X013699Y014737D01*
X013390Y014706D02*
X010969Y014706D01*
X011087Y014588D02*
X013426Y014588D01*
X013538Y014469D02*
X011206Y014469D01*
X010453Y013995D02*
X008980Y013995D01*
X008902Y014113D02*
X010383Y014113D01*
X010264Y014232D02*
X008841Y014232D01*
X008599Y013587D02*
X008699Y013487D01*
X011699Y013487D01*
X011949Y013237D01*
X011949Y012337D01*
X011799Y012187D01*
X011569Y011980D02*
X007745Y011980D01*
X007627Y012098D02*
X011501Y012098D01*
X011490Y012217D02*
X007658Y012217D01*
X007643Y012335D02*
X011526Y012335D01*
X011637Y012454D02*
X011324Y012454D01*
X011465Y012572D02*
X011709Y012572D01*
X011709Y012691D02*
X011508Y012691D01*
X011503Y012809D02*
X011709Y012809D01*
X011709Y012928D02*
X011527Y012928D01*
X011596Y013046D02*
X011709Y013046D01*
X011681Y013165D02*
X011608Y013165D01*
X011299Y013137D02*
X011049Y013137D01*
X010899Y012987D01*
X005249Y012987D01*
X004699Y012437D01*
X004699Y011087D01*
X004449Y010837D01*
X005349Y012737D02*
X011199Y012737D01*
X011075Y012454D02*
X007569Y012454D01*
X007349Y012237D02*
X007349Y012037D01*
X008049Y011337D01*
X018099Y011337D01*
X018449Y011687D01*
X018758Y011743D02*
X018954Y011743D01*
X018959Y011624D02*
X018758Y011624D01*
X018757Y011505D02*
X018959Y011505D01*
X018959Y011387D02*
X018871Y011387D01*
X018908Y011268D02*
X018959Y011268D01*
X018959Y011150D02*
X018898Y011150D01*
X018959Y011031D02*
X018831Y011031D01*
X018959Y010913D02*
X018615Y010913D01*
X018449Y011087D02*
X018599Y011237D01*
X018449Y011087D02*
X007799Y011087D01*
X007299Y011587D01*
X008101Y011624D02*
X018047Y011624D01*
X018140Y011748D02*
X018187Y011861D01*
X018549Y011980D02*
X018683Y011980D01*
X018749Y012287D02*
X019199Y011837D01*
X021689Y008660D02*
X027259Y008660D01*
X027259Y008542D02*
X021689Y008542D01*
X026238Y011387D02*
X027171Y011387D01*
X027153Y011268D02*
X026357Y011268D01*
X026475Y011150D02*
X027035Y011150D01*
X027052Y011505D02*
X026189Y011505D01*
X026189Y011624D02*
X026949Y011624D01*
X026949Y011743D02*
X026189Y011743D01*
X026189Y011861D02*
X026949Y011861D01*
X026949Y011980D02*
X026189Y011980D01*
X026189Y012098D02*
X026983Y012098D01*
X027101Y012217D02*
X026189Y012217D01*
X026189Y012335D02*
X027220Y012335D01*
X027104Y012454D02*
X026189Y012454D01*
X026189Y012572D02*
X026986Y012572D01*
X026949Y012691D02*
X026189Y012691D01*
X026189Y012809D02*
X026949Y012809D01*
X026949Y012928D02*
X026189Y012928D01*
X026189Y013046D02*
X026949Y013046D01*
X027050Y013165D02*
X026189Y013165D01*
X026189Y013284D02*
X027168Y013284D01*
X027830Y013284D02*
X028168Y013284D01*
X028050Y013165D02*
X027948Y013165D01*
X028830Y013284D02*
X029219Y013284D01*
X029219Y013402D02*
X026189Y013402D01*
X026189Y013521D02*
X029219Y013521D01*
X029219Y013639D02*
X026189Y013639D01*
X026189Y013758D02*
X029219Y013758D01*
X029219Y013876D02*
X026189Y013876D01*
X026130Y013995D02*
X029219Y013995D01*
X029219Y014113D02*
X028820Y014113D01*
X028990Y014232D02*
X029219Y014232D01*
X029219Y014350D02*
X029108Y014350D01*
X029174Y014469D02*
X029219Y014469D01*
X029183Y015180D02*
X029219Y015180D01*
X029219Y015299D02*
X029132Y015299D01*
X029219Y015417D02*
X029014Y015417D01*
X028877Y015536D02*
X029219Y015536D01*
X029206Y015654D02*
X025232Y015654D01*
X025114Y015536D02*
X028021Y015536D01*
X027885Y015417D02*
X024995Y015417D01*
X024877Y015299D02*
X027766Y015299D01*
X027715Y015180D02*
X024945Y015180D01*
X025063Y015062D02*
X027666Y015062D01*
X027639Y014943D02*
X025182Y014943D01*
X025300Y014825D02*
X027639Y014825D01*
X027639Y014706D02*
X025419Y014706D01*
X025537Y014588D02*
X027676Y014588D01*
X027725Y014469D02*
X025656Y014469D01*
X025775Y014350D02*
X027790Y014350D01*
X027908Y014232D02*
X025893Y014232D01*
X026012Y014113D02*
X028079Y014113D01*
X028948Y013165D02*
X029219Y013165D01*
X029219Y013046D02*
X029049Y013046D01*
X029049Y012928D02*
X029219Y012928D01*
X029219Y012809D02*
X029049Y012809D01*
X029049Y012691D02*
X029219Y012691D01*
X029219Y012572D02*
X029013Y012572D01*
X028894Y012454D02*
X029219Y012454D01*
X029219Y012335D02*
X028778Y012335D01*
X028897Y012217D02*
X029219Y012217D01*
X029219Y012098D02*
X029015Y012098D01*
X029049Y011980D02*
X029219Y011980D01*
X029219Y011861D02*
X029049Y011861D01*
X029049Y011743D02*
X029219Y011743D01*
X029219Y011624D02*
X029049Y011624D01*
X028946Y011505D02*
X029219Y011505D01*
X029219Y011387D02*
X028827Y011387D01*
X028817Y011268D02*
X029219Y011268D01*
X029219Y011150D02*
X028935Y011150D01*
X029029Y011031D02*
X029219Y011031D01*
X029219Y010913D02*
X029029Y010913D01*
X029029Y010794D02*
X029219Y010794D01*
X029219Y010676D02*
X029029Y010676D01*
X028969Y010557D02*
X029219Y010557D01*
X029219Y010439D02*
X028851Y010439D01*
X028732Y010320D02*
X029219Y010320D01*
X029219Y010201D02*
X028268Y010201D01*
X028170Y010083D02*
X029219Y010083D01*
X029219Y009964D02*
X028099Y009964D01*
X028099Y009846D02*
X029219Y009846D01*
X029219Y009727D02*
X028099Y009727D01*
X028099Y009609D02*
X029219Y009609D01*
X029219Y009490D02*
X028099Y009490D01*
X028099Y009372D02*
X029219Y009372D01*
X029219Y009253D02*
X028099Y009253D01*
X028099Y009135D02*
X029219Y009135D01*
X029219Y009016D02*
X028099Y009016D01*
X028099Y008897D02*
X029219Y008897D01*
X029219Y008779D02*
X028099Y008779D01*
X028099Y008660D02*
X029219Y008660D01*
X029219Y008542D02*
X028099Y008542D01*
X028099Y008423D02*
X029219Y008423D01*
X029219Y008305D02*
X028099Y008305D01*
X028099Y008186D02*
X029219Y008186D01*
X029219Y008068D02*
X028075Y008068D01*
X027986Y007949D02*
X029219Y007949D01*
X029219Y007831D02*
X027867Y007831D01*
X027749Y007712D02*
X029219Y007712D01*
X029219Y007594D02*
X027630Y007594D01*
X027502Y007475D02*
X029219Y007475D01*
X028539Y010320D02*
X028459Y010320D01*
X028459Y010439D02*
X028539Y010439D01*
X028539Y010557D02*
X028459Y010557D01*
X028459Y010676D02*
X028539Y010676D01*
X028539Y010794D02*
X028459Y010794D01*
X024575Y015211D02*
X024449Y015337D01*
X024575Y015337D02*
X025199Y015961D01*
X025199Y016587D01*
X024921Y016721D02*
X013689Y016721D01*
X013689Y016603D02*
X024890Y016603D01*
X024907Y016484D02*
X013689Y016484D01*
X013689Y016366D02*
X024959Y016366D01*
X024959Y016247D02*
X013689Y016247D01*
X013689Y016129D02*
X024959Y016129D01*
X024909Y016010D02*
X013689Y016010D01*
X013689Y015892D02*
X024791Y015892D01*
X024672Y015773D02*
X013689Y015773D01*
X013721Y015654D02*
X024554Y015654D01*
X025351Y015773D02*
X029087Y015773D01*
X028969Y015892D02*
X025430Y015892D01*
X025439Y016010D02*
X028850Y016010D01*
X028732Y016129D02*
X025439Y016129D01*
X025439Y016247D02*
X028613Y016247D01*
X028495Y016366D02*
X025439Y016366D01*
X025491Y016484D02*
X028376Y016484D01*
X028354Y016507D02*
X028354Y016507D01*
X028258Y016603D02*
X025508Y016603D01*
X025478Y016721D02*
X028219Y016721D01*
X028219Y016840D02*
X025383Y016840D01*
X025016Y016840D02*
X013689Y016840D01*
X013689Y016958D02*
X028219Y016958D01*
X028219Y017077D02*
X013689Y017077D01*
X013725Y017196D02*
X028219Y017196D01*
X028219Y017314D02*
X013758Y017314D01*
X013744Y017433D02*
X028219Y017433D01*
X028219Y017551D02*
X013671Y017551D01*
X013209Y016721D02*
X011249Y016721D01*
X011243Y016603D02*
X013209Y016603D01*
X013209Y016484D02*
X011125Y016484D01*
X011006Y016366D02*
X013209Y016366D01*
X013174Y014825D02*
X013288Y014778D01*
X013390Y014778D01*
X010146Y014350D02*
X002679Y014350D01*
X002679Y014469D02*
X010027Y014469D01*
X009960Y014588D02*
X002679Y014588D01*
X002679Y014706D02*
X004324Y014706D01*
X004273Y014757D02*
X004379Y014651D01*
X004518Y014594D01*
X004668Y014594D01*
X004806Y014651D01*
X004912Y014757D01*
X004970Y014895D01*
X004970Y015045D01*
X004912Y015184D01*
X004806Y015290D01*
X004668Y015347D01*
X004518Y015347D01*
X004379Y015290D01*
X004273Y015184D01*
X004216Y015045D01*
X004216Y014895D01*
X004273Y014757D01*
X004245Y014825D02*
X002679Y014825D01*
X002679Y014943D02*
X004216Y014943D01*
X004223Y015062D02*
X002679Y015062D01*
X002679Y015180D02*
X004272Y015180D01*
X004401Y015299D02*
X002679Y015299D01*
X002679Y015417D02*
X009959Y015417D01*
X009959Y015299D02*
X004785Y015299D01*
X004914Y015180D02*
X009959Y015180D01*
X009959Y015062D02*
X004963Y015062D01*
X004970Y014943D02*
X009959Y014943D01*
X009959Y014825D02*
X004940Y014825D01*
X004861Y014706D02*
X009959Y014706D01*
X009959Y015536D02*
X002679Y015536D01*
X002679Y015654D02*
X009959Y015654D01*
X009959Y015773D02*
X002679Y015773D01*
X002679Y015892D02*
X009959Y015892D01*
X009959Y016010D02*
X002679Y016010D01*
X002679Y016129D02*
X009959Y016129D01*
X009959Y016247D02*
X002679Y016247D01*
X002679Y016366D02*
X004422Y016366D01*
X004379Y016383D02*
X004518Y016326D01*
X004668Y016326D01*
X004806Y016383D01*
X004912Y016489D01*
X004970Y016628D01*
X004970Y016778D01*
X004912Y016916D01*
X004806Y017022D01*
X004668Y017079D01*
X004518Y017079D01*
X004379Y017022D01*
X004273Y016916D01*
X004216Y016778D01*
X004216Y016628D01*
X004273Y016489D01*
X004379Y016383D01*
X004278Y016484D02*
X002679Y016484D01*
X002679Y016603D02*
X004226Y016603D01*
X004216Y016721D02*
X002679Y016721D01*
X002679Y016840D02*
X004242Y016840D01*
X004316Y016958D02*
X002679Y016958D01*
X002679Y017077D02*
X004512Y017077D01*
X004674Y017077D02*
X008162Y017077D01*
X008149Y016958D02*
X004870Y016958D01*
X004944Y016840D02*
X008149Y016840D01*
X008149Y016721D02*
X004970Y016721D01*
X004959Y016603D02*
X008155Y016603D01*
X008274Y016484D02*
X004907Y016484D01*
X004764Y016366D02*
X008392Y016366D01*
X009006Y016366D02*
X009392Y016366D01*
X009274Y016484D02*
X009125Y016484D01*
X008399Y017314D02*
X002679Y017314D01*
X002679Y017196D02*
X008280Y017196D01*
X008325Y017433D02*
X002679Y017433D01*
X002679Y017551D02*
X008207Y017551D01*
X008149Y017670D02*
X002679Y017670D01*
X002679Y017788D02*
X008149Y017788D01*
X008149Y017907D02*
X002679Y017907D01*
X002679Y018025D02*
X008149Y018025D01*
X008229Y018144D02*
X002679Y018144D01*
X002679Y018262D02*
X008347Y018262D01*
X008466Y018381D02*
X002679Y018381D01*
X002679Y018499D02*
X028219Y018499D01*
X028219Y018381D02*
X009932Y018381D01*
X010051Y018262D02*
X010376Y018262D01*
X010257Y018144D02*
X010170Y018144D01*
X010659Y018144D02*
X010739Y018144D01*
X010739Y018262D02*
X010659Y018262D01*
X010739Y018366D02*
X010739Y017877D01*
X011229Y017877D01*
X011229Y018056D01*
X010919Y018366D01*
X010739Y018366D01*
X011023Y018262D02*
X028219Y018262D01*
X028219Y018144D02*
X011141Y018144D01*
X011229Y018025D02*
X028219Y018025D01*
X028219Y017907D02*
X011229Y017907D01*
X011229Y017788D02*
X028219Y017788D01*
X028219Y017670D02*
X011229Y017670D01*
X010739Y017907D02*
X010659Y017907D01*
X010659Y018025D02*
X010739Y018025D01*
X009466Y018381D02*
X008932Y018381D01*
X009051Y018262D02*
X009347Y018262D01*
X009229Y018144D02*
X009170Y018144D01*
X010787Y019562D02*
X010874Y019475D01*
X010988Y019428D01*
X011111Y019428D01*
X011224Y019475D01*
X011311Y019562D01*
X011358Y019675D01*
X011358Y019798D01*
X011311Y019911D01*
X011224Y019998D01*
X011111Y020045D01*
X011089Y020045D01*
X011089Y020341D01*
X011161Y020370D01*
X011315Y020525D01*
X011349Y020606D01*
X011383Y020525D01*
X011538Y020370D01*
X011609Y020341D01*
X011609Y019984D01*
X011609Y019889D01*
X011646Y019801D01*
X012290Y019156D01*
X012290Y019125D01*
X012337Y019012D01*
X012424Y018925D01*
X012538Y018878D01*
X012661Y018878D01*
X012774Y018925D01*
X012861Y019012D01*
X012908Y019125D01*
X012908Y019248D01*
X012861Y019361D01*
X012774Y019448D01*
X012661Y019495D01*
X012630Y019495D01*
X012089Y020036D01*
X012089Y020341D01*
X012161Y020370D01*
X012315Y020525D01*
X012359Y020631D01*
X012396Y020559D01*
X012445Y020491D01*
X012504Y020432D01*
X012571Y020383D01*
X012646Y020345D01*
X012725Y020320D01*
X012807Y020307D01*
X012809Y020307D01*
X012809Y020796D01*
X012889Y020796D01*
X012889Y020307D01*
X012891Y020307D01*
X012973Y020320D01*
X013053Y020345D01*
X013127Y020383D01*
X013194Y020432D01*
X013253Y020491D01*
X013302Y020559D01*
X013339Y020631D01*
X013383Y020525D01*
X013538Y020370D01*
X013740Y020287D01*
X013959Y020287D01*
X014161Y020370D01*
X014315Y020525D01*
X014349Y020606D01*
X014383Y020525D01*
X014538Y020370D01*
X014740Y020287D01*
X014959Y020287D01*
X015161Y020370D01*
X015315Y020525D01*
X015349Y020606D01*
X015383Y020525D01*
X015538Y020370D01*
X015740Y020287D01*
X015959Y020287D01*
X016161Y020370D01*
X016315Y020525D01*
X016349Y020606D01*
X016383Y020525D01*
X016538Y020370D01*
X016740Y020287D01*
X016959Y020287D01*
X017161Y020370D01*
X017315Y020525D01*
X017349Y020606D01*
X017383Y020525D01*
X017538Y020370D01*
X017740Y020287D01*
X017959Y020287D01*
X018161Y020370D01*
X018299Y020509D01*
X018299Y020392D01*
X018405Y020287D01*
X019294Y020287D01*
X019399Y020392D01*
X019399Y021281D01*
X019294Y021386D01*
X018405Y021386D01*
X018299Y021281D01*
X018299Y021164D01*
X018161Y021303D01*
X017959Y021386D01*
X017740Y021386D01*
X017538Y021303D01*
X017383Y021148D01*
X017349Y021067D01*
X017315Y021148D01*
X017161Y021303D01*
X016959Y021386D01*
X016740Y021386D01*
X016538Y021303D01*
X016383Y021148D01*
X016349Y021067D01*
X016315Y021148D01*
X016161Y021303D01*
X015959Y021386D01*
X015740Y021386D01*
X015538Y021303D01*
X015383Y021148D01*
X015349Y021067D01*
X015315Y021148D01*
X015161Y021303D01*
X014959Y021386D01*
X014740Y021386D01*
X014538Y021303D01*
X014383Y021148D01*
X014349Y021067D01*
X014315Y021148D01*
X014161Y021303D01*
X013959Y021386D01*
X013740Y021386D01*
X013538Y021303D01*
X013383Y021148D01*
X013339Y021042D01*
X013302Y021114D01*
X013253Y021182D01*
X013194Y021241D01*
X013127Y021290D01*
X013053Y021328D01*
X012973Y021353D01*
X012891Y021366D01*
X012889Y021366D01*
X012889Y020877D01*
X012809Y020877D01*
X012809Y021366D01*
X012807Y021366D01*
X012725Y021353D01*
X012646Y021328D01*
X012571Y021290D01*
X012504Y021241D01*
X012445Y021182D01*
X012396Y021114D01*
X012359Y021042D01*
X012315Y021148D01*
X012161Y021303D01*
X011959Y021386D01*
X011740Y021386D01*
X011538Y021303D01*
X011383Y021148D01*
X011349Y021067D01*
X011315Y021148D01*
X011161Y021303D01*
X010959Y021386D01*
X010740Y021386D01*
X010538Y021303D01*
X010383Y021148D01*
X010349Y021067D01*
X010315Y021148D01*
X010161Y021303D01*
X009959Y021386D01*
X009740Y021386D01*
X009538Y021303D01*
X009383Y021148D01*
X009299Y020946D01*
X009299Y020727D01*
X009383Y020525D01*
X009538Y020370D01*
X009740Y020287D01*
X009959Y020287D01*
X010161Y020370D01*
X010315Y020525D01*
X010349Y020606D01*
X010383Y020525D01*
X010538Y020370D01*
X010609Y020341D01*
X010609Y019984D01*
X010609Y019889D01*
X010646Y019801D01*
X010740Y019706D01*
X010740Y019675D01*
X010787Y019562D01*
X010785Y019566D02*
X002679Y019566D01*
X002679Y019448D02*
X010939Y019448D01*
X011159Y019448D02*
X011998Y019448D01*
X011880Y019566D02*
X011313Y019566D01*
X011358Y019685D02*
X011761Y019685D01*
X011644Y019803D02*
X011356Y019803D01*
X011300Y019922D02*
X011609Y019922D01*
X011609Y020041D02*
X011122Y020041D01*
X011089Y020159D02*
X011609Y020159D01*
X011609Y020278D02*
X011089Y020278D01*
X011187Y020396D02*
X011512Y020396D01*
X011393Y020515D02*
X011305Y020515D01*
X010849Y020837D02*
X010849Y019937D01*
X011049Y019737D01*
X010740Y019685D02*
X002679Y019685D01*
X002679Y019803D02*
X010644Y019803D01*
X010609Y019922D02*
X002679Y019922D01*
X002679Y020041D02*
X008254Y020041D01*
X007981Y020159D02*
X002679Y020159D01*
X002679Y020278D02*
X007863Y020278D01*
X007755Y020396D02*
X002679Y020396D01*
X002679Y020515D02*
X007706Y020515D01*
X007657Y020633D02*
X002679Y020633D01*
X002679Y020752D02*
X007639Y020752D01*
X007639Y020870D02*
X002679Y020870D01*
X002679Y020989D02*
X007639Y020989D01*
X007685Y021107D02*
X002679Y021107D01*
X002679Y021226D02*
X007734Y021226D01*
X007812Y021345D02*
X002679Y021345D01*
X002681Y021463D02*
X007930Y021463D01*
X008132Y021582D02*
X002758Y021582D01*
X002679Y019329D02*
X012117Y019329D01*
X012235Y019211D02*
X002679Y019211D01*
X002679Y019092D02*
X012304Y019092D01*
X012375Y018974D02*
X002679Y018974D01*
X002679Y018855D02*
X028219Y018855D01*
X028219Y018737D02*
X002679Y018737D01*
X002679Y018618D02*
X028219Y018618D01*
X028219Y018974D02*
X012823Y018974D01*
X012894Y019092D02*
X028219Y019092D01*
X028219Y019211D02*
X012908Y019211D01*
X012874Y019329D02*
X028219Y019329D01*
X028219Y019448D02*
X012775Y019448D01*
X012559Y019566D02*
X028219Y019566D01*
X028219Y019685D02*
X012440Y019685D01*
X012322Y019803D02*
X028219Y019803D01*
X028219Y019922D02*
X012203Y019922D01*
X012089Y020041D02*
X028219Y020041D01*
X028219Y020159D02*
X012089Y020159D01*
X012089Y020278D02*
X028219Y020278D01*
X028219Y020396D02*
X027999Y020396D01*
X027999Y020392D02*
X027999Y021281D01*
X027894Y021386D01*
X027005Y021386D01*
X026899Y021281D01*
X026899Y021164D01*
X026761Y021303D01*
X026559Y021386D01*
X026340Y021386D01*
X026138Y021303D01*
X025983Y021148D01*
X025949Y021067D01*
X025915Y021148D01*
X025761Y021303D01*
X025559Y021386D01*
X025340Y021386D01*
X025138Y021303D01*
X024983Y021148D01*
X024949Y021067D01*
X024915Y021148D01*
X024761Y021303D01*
X024559Y021386D01*
X024340Y021386D01*
X024138Y021303D01*
X023983Y021148D01*
X023949Y021067D01*
X023915Y021148D01*
X023761Y021303D01*
X023559Y021386D01*
X023340Y021386D01*
X023138Y021303D01*
X022983Y021148D01*
X022949Y021067D01*
X022915Y021148D01*
X022761Y021303D01*
X022559Y021386D01*
X022340Y021386D01*
X022138Y021303D01*
X021983Y021148D01*
X021949Y021067D01*
X021915Y021148D01*
X021761Y021303D01*
X021559Y021386D01*
X021340Y021386D01*
X021138Y021303D01*
X020983Y021148D01*
X020949Y021067D01*
X020915Y021148D01*
X020761Y021303D01*
X020559Y021386D01*
X020340Y021386D01*
X020138Y021303D01*
X019983Y021148D01*
X019899Y020946D01*
X019899Y020727D01*
X019983Y020525D01*
X020138Y020370D01*
X020340Y020287D01*
X020559Y020287D01*
X020761Y020370D01*
X020915Y020525D01*
X020949Y020606D01*
X020983Y020525D01*
X021138Y020370D01*
X021340Y020287D01*
X021559Y020287D01*
X021761Y020370D01*
X021915Y020525D01*
X021949Y020606D01*
X021983Y020525D01*
X022138Y020370D01*
X022340Y020287D01*
X022559Y020287D01*
X022761Y020370D01*
X022915Y020525D01*
X022949Y020606D01*
X022983Y020525D01*
X023138Y020370D01*
X023340Y020287D01*
X023559Y020287D01*
X023761Y020370D01*
X023915Y020525D01*
X023949Y020606D01*
X023983Y020525D01*
X024138Y020370D01*
X024340Y020287D01*
X024559Y020287D01*
X024761Y020370D01*
X024915Y020525D01*
X024949Y020606D01*
X024983Y020525D01*
X025138Y020370D01*
X025340Y020287D01*
X025559Y020287D01*
X025761Y020370D01*
X025915Y020525D01*
X025949Y020606D01*
X025983Y020525D01*
X026138Y020370D01*
X026340Y020287D01*
X026559Y020287D01*
X026761Y020370D01*
X026899Y020509D01*
X026899Y020392D01*
X027005Y020287D01*
X027894Y020287D01*
X027999Y020392D01*
X027999Y020515D02*
X028219Y020515D01*
X028219Y020633D02*
X027999Y020633D01*
X027999Y020752D02*
X028219Y020752D01*
X028219Y020870D02*
X027999Y020870D01*
X027999Y020989D02*
X028219Y020989D01*
X028219Y021107D02*
X027999Y021107D01*
X027999Y021226D02*
X028134Y021226D01*
X028016Y021345D02*
X027936Y021345D01*
X027897Y021463D02*
X008968Y021463D01*
X009086Y021345D02*
X009638Y021345D01*
X009461Y021226D02*
X009164Y021226D01*
X009214Y021107D02*
X009366Y021107D01*
X009317Y020989D02*
X009259Y020989D01*
X009259Y020870D02*
X009299Y020870D01*
X009299Y020752D02*
X009259Y020752D01*
X009242Y020633D02*
X009338Y020633D01*
X009393Y020515D02*
X009192Y020515D01*
X009143Y020396D02*
X009512Y020396D01*
X009036Y020278D02*
X010609Y020278D01*
X010609Y020159D02*
X008917Y020159D01*
X008644Y020041D02*
X010609Y020041D01*
X010512Y020396D02*
X010187Y020396D01*
X010305Y020515D02*
X010393Y020515D01*
X010366Y021107D02*
X010332Y021107D01*
X010237Y021226D02*
X010461Y021226D01*
X010638Y021345D02*
X010060Y021345D01*
X011060Y021345D02*
X011638Y021345D01*
X011461Y021226D02*
X011237Y021226D01*
X011332Y021107D02*
X011366Y021107D01*
X011849Y020837D02*
X011849Y019937D01*
X012599Y019187D01*
X012554Y020396D02*
X012187Y020396D01*
X012305Y020515D02*
X012428Y020515D01*
X012809Y020515D02*
X012889Y020515D01*
X012889Y020633D02*
X012809Y020633D01*
X012809Y020752D02*
X012889Y020752D01*
X012889Y020989D02*
X012809Y020989D01*
X012809Y021107D02*
X012889Y021107D01*
X012889Y021226D02*
X012809Y021226D01*
X012809Y021345D02*
X012889Y021345D01*
X013001Y021345D02*
X013638Y021345D01*
X013461Y021226D02*
X013209Y021226D01*
X013306Y021107D02*
X013366Y021107D01*
X012698Y021345D02*
X012060Y021345D01*
X012237Y021226D02*
X012489Y021226D01*
X012392Y021107D02*
X012332Y021107D01*
X013270Y020515D02*
X013393Y020515D01*
X013512Y020396D02*
X013145Y020396D01*
X012889Y020396D02*
X012809Y020396D01*
X014187Y020396D02*
X014512Y020396D01*
X014393Y020515D02*
X014305Y020515D01*
X014332Y021107D02*
X014366Y021107D01*
X014461Y021226D02*
X014237Y021226D01*
X014060Y021345D02*
X014638Y021345D01*
X015060Y021345D02*
X015638Y021345D01*
X015461Y021226D02*
X015237Y021226D01*
X015332Y021107D02*
X015366Y021107D01*
X016060Y021345D02*
X016638Y021345D01*
X016461Y021226D02*
X016237Y021226D01*
X016332Y021107D02*
X016366Y021107D01*
X017060Y021345D02*
X017638Y021345D01*
X017461Y021226D02*
X017237Y021226D01*
X017332Y021107D02*
X017366Y021107D01*
X018060Y021345D02*
X018363Y021345D01*
X018299Y021226D02*
X018237Y021226D01*
X017393Y020515D02*
X017305Y020515D01*
X017187Y020396D02*
X017512Y020396D01*
X018187Y020396D02*
X018299Y020396D01*
X019399Y020396D02*
X020112Y020396D01*
X019993Y020515D02*
X019399Y020515D01*
X019399Y020633D02*
X019938Y020633D01*
X019899Y020752D02*
X019399Y020752D01*
X019399Y020870D02*
X019899Y020870D01*
X019917Y020989D02*
X019399Y020989D01*
X019399Y021107D02*
X019966Y021107D01*
X020061Y021226D02*
X019399Y021226D01*
X019336Y021345D02*
X020238Y021345D01*
X020660Y021345D02*
X021238Y021345D01*
X021061Y021226D02*
X020837Y021226D01*
X020932Y021107D02*
X020966Y021107D01*
X021660Y021345D02*
X022238Y021345D01*
X022061Y021226D02*
X021837Y021226D01*
X021932Y021107D02*
X021966Y021107D01*
X022660Y021345D02*
X023238Y021345D01*
X023061Y021226D02*
X022837Y021226D01*
X022932Y021107D02*
X022966Y021107D01*
X022993Y020515D02*
X022905Y020515D01*
X022787Y020396D02*
X023112Y020396D01*
X023787Y020396D02*
X024112Y020396D01*
X023993Y020515D02*
X023905Y020515D01*
X024787Y020396D02*
X025112Y020396D01*
X024993Y020515D02*
X024905Y020515D01*
X024932Y021107D02*
X024966Y021107D01*
X025061Y021226D02*
X024837Y021226D01*
X024660Y021345D02*
X025238Y021345D01*
X025660Y021345D02*
X026238Y021345D01*
X026061Y021226D02*
X025837Y021226D01*
X025932Y021107D02*
X025966Y021107D01*
X025993Y020515D02*
X025905Y020515D01*
X025787Y020396D02*
X026112Y020396D01*
X026787Y020396D02*
X026899Y020396D01*
X026899Y021226D02*
X026837Y021226D01*
X026963Y021345D02*
X026660Y021345D01*
X027779Y021582D02*
X008767Y021582D01*
X015187Y020396D02*
X015512Y020396D01*
X015393Y020515D02*
X015305Y020515D01*
X016187Y020396D02*
X016512Y020396D01*
X016393Y020515D02*
X016305Y020515D01*
X020787Y020396D02*
X021112Y020396D01*
X020993Y020515D02*
X020905Y020515D01*
X021787Y020396D02*
X022112Y020396D01*
X021993Y020515D02*
X021905Y020515D01*
X023660Y021345D02*
X024238Y021345D01*
X024061Y021226D02*
X023837Y021226D01*
X023932Y021107D02*
X023966Y021107D01*
X006288Y002852D02*
X005932Y002852D01*
X005185Y002970D02*
X004750Y002970D01*
X008224Y001074D02*
X028097Y001074D01*
X028213Y001192D02*
X008450Y001192D01*
D18*
X012649Y012187D02*
X012649Y013437D01*
X011999Y014087D01*
X011249Y014087D01*
D19*
X025149Y007637D02*
X025249Y007737D01*
X027349Y007737D01*
X027799Y008187D01*
X027799Y010137D01*
X027999Y010337D01*
X027999Y012337D02*
X028499Y012837D01*
M02*
